<?xml version="1.0" encoding="iso-8859-1"?>
<!-- Generator: Adobe Illustrator 19.0.0, SVG Export Plug-In . SVG Version: 6.00 Build 0)  -->
<svg version="1.1" id="Capa_1" xmlns="http://www.w3.org/2000/svg" xmlns:xlink="http://www.w3.org/1999/xlink" x="0px" y="0px"
	 viewBox="0 0 512.005 512.005" style="enable-background:new 0 0 512.005 512.005;" xml:space="preserve">
<circle style="fill:#F16645;" cx="105.251" cy="283.603" r="105.251"/>
<path style="fill:#EB5836;" d="M210.499,283.602c0,58.12-47.128,105.248-105.249,105.248c-44.573,0-82.679-27.71-98.027-66.845
	c18.563,16.42,42.977,26.392,69.709,26.392c58.131,0,105.249-47.117,105.249-105.248c0-13.556-2.565-26.505-7.231-38.403
	C196.757,224.03,210.499,252.214,210.499,283.602z"/>
<circle style="fill:#44C1DD;" cx="256.003" cy="283.603" r="105.251"/>
<path style="fill:#37B0C4;" d="M361.249,283.602c0,58.12-47.128,105.248-105.249,105.248c-44.573,0-82.679-27.71-98.027-66.845
	c18.563,16.42,42.977,26.392,69.709,26.392c58.131,0,105.249-47.117,105.249-105.248c0-13.556-2.565-26.505-7.231-38.403
	C347.506,224.03,361.249,252.214,361.249,283.602z"/>
<circle style="fill:#FFE1A0;" cx="406.754" cy="283.603" r="105.251"/>
<path style="fill:#EFCC86;" d="M512,283.6c0,58.12-47.128,105.248-105.249,105.248c-44.573,0-82.679-27.71-98.027-66.846
	c18.563,16.42,42.977,26.392,69.709,26.392c58.131,0,105.249-47.118,105.249-105.248c0-13.556-2.565-26.505-7.231-38.403
	C498.259,224.028,512,252.212,512,283.6z"/>
<g>
	<path style="fill:#2D2D2D;" d="M183.485,128.598c-1.259-4.077-5.587-6.358-9.662-5.101c-4.077,1.26-6.36,5.586-5.1,9.662
		l3.2,10.355c-39.541-25.512-86.423-12.65-88.505-12.06c-4.104,1.166-6.487,5.438-5.322,9.543c1.165,4.104,5.439,6.489,9.543,5.322
		c0.432-0.123,40.78-11.206,74.289,9.172l-11.035-0.12c-0.028,0-0.057,0-0.085,0c-4.228,0-7.678,3.404-7.724,7.642
		c-0.046,4.266,3.375,7.763,7.642,7.809l35.369,0.383c0.028,0,0.056,0,0.084,0c2.436,0,4.733-1.15,6.192-3.106
		c1.476-1.978,1.918-4.542,1.189-6.901L183.485,128.598z"/>
	<path style="fill:#2D2D2D;" d="M347.019,161.199l-10.074-32.601c-1.258-4.076-5.58-6.361-9.662-5.101
		c-4.077,1.26-6.361,5.586-5.101,9.662l3.2,10.355c-39.54-25.512-86.423-12.65-88.505-12.06c-4.104,1.166-6.487,5.438-5.322,9.543
		c1.166,4.104,5.44,6.489,9.543,5.322c0.432-0.123,40.78-11.207,74.289,9.172l-11.036-0.12c-0.028,0-0.056,0-0.086,0
		c-4.227,0-7.678,3.404-7.724,7.642c-0.046,4.266,3.375,7.763,7.642,7.809l35.369,0.383c0.028,0,0.055,0,0.083,0
		c2.438,0,4.733-1.15,6.193-3.106C347.305,166.121,347.747,163.557,347.019,161.199z"/>
</g>
<g>
</g>
<g>
</g>
<g>
</g>
<g>
</g>
<g>
</g>
<g>
</g>
<g>
</g>
<g>
</g>
<g>
</g>
<g>
</g>
<g>
</g>
<g>
</g>
<g>
</g>
<g>
</g>
<g>
</g>
</svg>
