<?xml version="1.0" encoding="iso-8859-1"?>
<!-- Generator: Adobe Illustrator 19.0.0, SVG Export Plug-In . SVG Version: 6.00 Build 0)  -->
<svg version="1.1" id="Capa_1" xmlns="http://www.w3.org/2000/svg" xmlns:xlink="http://www.w3.org/1999/xlink" x="0px" y="0px"
	 viewBox="0 0 512 512" style="enable-background:new 0 0 512 512;" xml:space="preserve">
<g>
	<path style="fill:#607D8B;" d="M32,469.333c-5.891,0-10.667-4.776-10.667-10.667V53.333c0-5.891,4.776-10.667,10.667-10.667
		s10.667,4.776,10.667,10.667v405.333C42.667,464.558,37.891,469.333,32,469.333z"/>
	<path style="fill:#607D8B;" d="M458.667,42.667H53.333c-5.891,0-10.667-4.776-10.667-10.667s4.776-10.667,10.667-10.667h405.333
		c5.891,0,10.667,4.776,10.667,10.667S464.558,42.667,458.667,42.667z"/>
	<path style="fill:#607D8B;" d="M480,469.333c-5.891,0-10.667-4.776-10.667-10.667V53.333c0-5.891,4.776-10.667,10.667-10.667
		c5.891,0,10.667,4.776,10.667,10.667v405.333C490.667,464.558,485.891,469.333,480,469.333z"/>
	<path style="fill:#607D8B;" d="M458.667,490.667H53.333c-5.891,0-10.667-4.776-10.667-10.667c0-5.891,4.776-10.667,10.667-10.667
		h405.333c5.891,0,10.667,4.776,10.667,10.667C469.333,485.891,464.558,490.667,458.667,490.667z"/>
</g>
<g>
	<path style="fill:#455A64;" d="M53.333,64H10.667C4.776,64,0,59.224,0,53.333V10.667C0,4.776,4.776,0,10.667,0h42.667
		C59.224,0,64,4.776,64,10.667v42.667C64,59.224,59.224,64,53.333,64z"/>
	<path style="fill:#455A64;" d="M501.333,64h-42.667C452.776,64,448,59.224,448,53.333V10.667C448,4.776,452.776,0,458.667,0h42.667
		C507.224,0,512,4.776,512,10.667v42.667C512,59.224,507.224,64,501.333,64z"/>
	<path style="fill:#455A64;" d="M53.333,512H10.667C4.776,512,0,507.224,0,501.333v-42.667C0,452.776,4.776,448,10.667,448h42.667
		C59.224,448,64,452.776,64,458.667v42.667C64,507.224,59.224,512,53.333,512z"/>
	<path style="fill:#455A64;" d="M501.333,512h-42.667c-5.891,0-10.667-4.776-10.667-10.667v-42.667
		c0-5.891,4.776-10.667,10.667-10.667h42.667c5.891,0,10.667,4.776,10.667,10.667v42.667C512,507.224,507.224,512,501.333,512z"/>
</g>
<g>
</g>
<g>
</g>
<g>
</g>
<g>
</g>
<g>
</g>
<g>
</g>
<g>
</g>
<g>
</g>
<g>
</g>
<g>
</g>
<g>
</g>
<g>
</g>
<g>
</g>
<g>
</g>
<g>
</g>
</svg>
