<?xml version="1.0" encoding="iso-8859-1"?>
<!-- Generator: Adobe Illustrator 21.0.0, SVG Export Plug-In . SVG Version: 6.00 Build 0)  -->
<svg version="1.1" id="Capa_1" xmlns="http://www.w3.org/2000/svg" xmlns:xlink="http://www.w3.org/1999/xlink" x="0px" y="0px"
	 viewBox="0 0 587.697 587.697" style="enable-background:new 0 0 587.697 587.697;" xml:space="preserve">
<g>
	<g>
		<g id="flat_15_">
			<path style="fill:#E34B87;" d="M0,0v162.123h40.531l14.186-78.184c3.506-19.283,20.306-33.286,39.903-33.276h67.504v444.197
				c0,13.081-8.37,24.703-20.782,28.838l-70.412,23.467v40.531h283.716v-40.531l-70.412-23.467
				c-12.413-4.134-20.782-15.756-20.782-28.838V50.663h67.504c19.597-0.01,36.397,13.993,39.903,33.276l14.186,78.184h40.531V0H0z"
				/>
			<polygon style="fill:#87CED9;" points="547.166,121.592 587.697,121.592 526.9,0 466.104,121.592 506.635,121.592 
				506.635,466.104 466.104,466.104 526.9,587.697 587.697,466.104 547.166,466.104 			"/>
			<path style="fill:#D94881;" d="M162.123,494.861c0,13.081-8.37,24.703-20.782,28.838l-70.412,23.467v40.531h283.716v-40.531
				l-70.412-23.467c-12.413-4.134-20.782-15.756-20.782-28.838v-246.61L162.123,349.578V494.861z"/>
			<polygon style="fill:#71C4D1;" points="547.166,283.716 506.635,324.246 506.635,466.104 466.104,466.104 526.9,587.697 
				587.697,466.104 547.166,466.104 			"/>
		</g>
	</g>
</g>
<g>
</g>
<g>
</g>
<g>
</g>
<g>
</g>
<g>
</g>
<g>
</g>
<g>
</g>
<g>
</g>
<g>
</g>
<g>
</g>
<g>
</g>
<g>
</g>
<g>
</g>
<g>
</g>
<g>
</g>
</svg>
