<svg id="Layer_1" enable-background="new 0 0 512.001 512.001" height="512" viewBox="0 0 512.001 512.001" width="512" xmlns="http://www.w3.org/2000/svg"><g><g><path d="m215.051 265.173h-152.825c-6.498 0-12.258-4.185-14.266-10.365l-47.225-145.344c-2.008-6.18.191-12.951 5.449-16.771l123.638-89.828c5.256-3.819 12.377-3.819 17.633 0l123.637 89.828c5.258 3.82 7.458 10.59 5.449 16.771l-47.225 145.345c-2.008 6.18-7.767 10.364-14.265 10.364z" fill="#ff3980"/></g><path d="m271.092 92.693-123.637-89.828c-2.73-1.984-5.964-2.928-9.177-2.851v265.158h76.773c6.498 0 12.258-4.185 14.266-10.365l47.225-145.345c2.008-6.179-.193-12.949-5.45-16.769z" fill="#c09"/><g><path d="m379.277 420.735h-226c-8.284 0-15-6.716-15-15v-226c0-8.284 6.716-15 15-15h226c8.284 0 15 6.716 15 15v226c0 8.284-6.715 15-15 15z" fill="#bee75e"/></g><path d="m379.277 164.735h-112.595v256h112.596c8.284 0 15-6.716 15-15v-226c-.001-8.285-6.716-15-15.001-15z" fill="#00cb75"/><g><path d="m396.271 512c-63.813 0-115.729-51.916-115.729-115.729s51.916-115.729 115.729-115.729 115.729 51.916 115.729 115.729-51.915 115.729-115.729 115.729z" fill="#fdbf00"/></g><path d="m396.271 280.542c-.211 0-.421.007-.632.008v231.442c.211.001.421.008.632.008 63.813 0 115.729-51.916 115.729-115.729s-51.915-115.729-115.729-115.729z" fill="#ff8856"/></g></svg>