<svg xmlns="http://www.w3.org/2000/svg" height="512pt" version="1.1" viewBox="0 -67 512.00002 512" width="512pt">
<g id="surface1">
<path d="M 281.0625 340.832031 L 183.324219 22.289062 C 178.773438 7.097656 160.027344 0 140.789062 0 C 122.046875 0 103.3125 7.097656 98.757812 22.289062 L 74.808594 100.324219 L 65.695312 130.023438 L 1.007812 340.832031 C 0.503906 342.859375 0 344.878906 0 345.898438 C 0 362.097656 23.800781 373.242188 41.527344 373.242188 C 52.667969 373.242188 61.28125 369.699219 63.8125 360.078125 L 83.050781 292.722656 L 199.03125 292.722656 L 218.269531 360.078125 C 220.804688 369.699219 229.414062 373.242188 240.558594 373.242188 C 258.28125 373.242188 282.082031 361.59375 282.082031 345.898438 C 282.082031 344.371094 281.578125 342.859375 281.0625 340.832031 Z M 96.730469 241.0625 L 140.789062 85.585938 L 184.847656 241.0625 Z M 96.730469 241.0625 " style=" stroke:none;fill-rule:nonzero;fill:rgb(24.313725%,29.411765%,36.078431%);fill-opacity:1;" />
<path d="M 512 298.328125 L 512 352.476562 C 512 364.125 498.328125 373.242188 480.09375 373.242188 C 463.382812 373.242188 450.722656 364.125 450.722656 352.476562 L 450.722656 337.792969 C 432.492188 358.554688 408.6875 377.800781 373.742188 377.800781 C 337.789062 377.800781 307.90625 356.53125 307.90625 310.445312 C 307.90625 252.207031 356.019531 236 425.90625 236 L 446.671875 236 L 446.671875 229.414062 C 446.671875 207.636719 435.527344 182.824219 402.105469 182.824219 C 363.109375 182.824219 356.523438 198.523438 344.371094 198.523438 C 329.683594 198.523438 322.085938 180.796875 322.085938 166.109375 C 322.085938 145.347656 367.160156 129.648438 403.117188 129.648438 C 482.117188 129.648438 512 177.253906 512 228.402344 Z M 446.671875 269.929688 L 439.074219 269.929688 C 405.144531 269.929688 373.238281 273.476562 373.238281 301.835938 C 373.238281 320.574219 384.886719 329.183594 400.078125 329.183594 C 420.839844 329.183594 446.667969 305.378906 446.667969 280.566406 L 446.667969 269.929688 Z M 446.671875 269.929688 " style=" stroke:none;fill-rule:nonzero;fill:rgb(24.313725%,29.411765%,36.078431%);fill-opacity:1;" />
</g>
</svg>