<svg height="512pt" viewBox="0 -42 512 512" width="512pt" xmlns="http://www.w3.org/2000/svg"><path d="m90.359375 78.390625h-82.816406c-4.167969 0-7.542969 3.378906-7.542969 7.542969v256.722656c0 4.164062 3.375 7.542969 7.542969 7.542969h82.816406c4.167969 0 7.542969-3.378907 7.542969-7.542969v-256.722656c0-4.164063-3.375-7.542969-7.542969-7.542969zm0 0" fill="#f9e075"/><path d="m173.179688 78.390625h-82.820313c-4.164063 0-7.539063 3.378906-7.539063 7.542969v256.722656c0 4.164062 3.375 7.542969 7.539063 7.542969h82.820313c4.167968 0 7.542968-3.378907 7.542968-7.542969v-256.722656c0-4.164063-3.375-7.542969-7.542968-7.542969zm0 0" fill="#f9cd45"/><path d="m256 78.390625h-82.820312c-4.164063 0-7.539063 3.378906-7.539063 7.542969v256.722656c0 4.164062 3.375 7.542969 7.539063 7.542969h82.820312c4.164062 0 7.542969-3.378907 7.542969-7.542969v-256.722656c0-4.164063-3.378907-7.542969-7.542969-7.542969zm0 0" fill="#f8b53c"/><path d="m338.820312 78.390625h-82.820312c-4.167969 0-7.542969 3.378906-7.542969 7.542969v256.722656c0 4.164062 3.375 7.542969 7.542969 7.542969h82.820312c4.164063 0 7.539063-3.378907 7.539063-7.542969v-256.722656c0-4.164063-3.375-7.542969-7.539063-7.542969zm0 0" fill="#ff9f4d"/><path d="m421.640625 78.390625h-82.820313c-4.167968 0-7.542968 3.378906-7.542968 7.542969v256.722656c0 4.164062 3.375 7.542969 7.542968 7.542969h82.820313c4.164063 0 7.539063-3.378907 7.539063-7.542969v-256.722656c0-4.164063-3.375-7.542969-7.539063-7.542969zm0 0" fill="#fb900d"/><path d="m504.457031 78.390625h-82.816406c-4.167969 0-7.542969 3.378906-7.542969 7.542969v256.722656c0 4.164062 3.375 7.542969 7.542969 7.542969h82.816406c4.167969 0 7.542969-3.378907 7.542969-7.542969v-256.722656c0-4.164063-3.375-7.542969-7.542969-7.542969zm0 0" fill="#f85e49"/><path d="m504.457031 78.390625h-24.132812c4.167969 0 7.542969 3.378906 7.542969 7.542969v256.722656c0 4.164062-3.375 7.542969-7.542969 7.542969h24.132812c4.167969 0 7.542969-3.378907 7.542969-7.542969v-256.722656c0-4.164063-3.375-7.542969-7.542969-7.542969zm0 0" fill="#ba4737"/><path d="m456.292969 3.914062c-1.320313-2.414062-3.859375-3.914062-6.609375-3.914062h-59.359375c-2.753907 0-5.289063 1.5-6.613281 3.914062-.621094 1.132813-.929688 2.382813-.929688 3.628907 0 1.410156.398438 2.820312 1.183594 4.054687l29.679687 46.53125c1.386719 2.171875 3.785157 3.488282 6.359375 3.488282 2.574219 0 4.972656-1.316407 6.359375-3.488282l29.679688-46.53125c.785156-1.234375 1.183593-2.644531 1.183593-4.054687-.003906-1.246094-.3125-2.496094-.933593-3.628907zm0 0" fill="#d0cfd1"/><path d="m456.292969 3.914062c-1.320313-2.414062-3.859375-3.914062-6.609375-3.914062h-23.128906c2.753906 0 5.289062 1.5 6.613281 3.914062.621093 1.132813.929687 2.382813.929687 3.628907 0 1.410156-.398437 2.820312-1.183594 4.054687l-24.476562 38.371094 5.207031 8.160156c1.386719 2.171875 3.78125 3.488282 6.359375 3.488282 2.574219 0 4.972656-1.316407 6.355469-3.488282l29.679687-46.53125c.789063-1.234375 1.183594-2.644531 1.183594-4.054687 0-1.246094-.308594-2.496094-.929687-3.628907zm0 0" fill="#b0afb1"/><path d="m126.214844 416.042969-29.679688-46.53125c-1.382812-2.171875-3.78125-3.488281-6.359375-3.488281-2.574219 0-4.972656 1.316406-6.355469 3.488281l-29.679687 46.53125c-.789063 1.234375-1.183594 2.644531-1.183594 4.054687 0 1.246094.308594 2.496094.929688 3.625 1.320312 2.417969 3.859375 3.917969 6.609375 3.917969h59.359375c2.753906 0 5.289062-1.5 6.613281-3.917969.621094-1.128906.929688-2.378906.929688-3.625 0-1.410156-.398438-2.820312-1.183594-4.054687zm0 0" fill="#d0cfd1"/><path d="m126.214844 416.042969-29.679688-46.53125c-1.382812-2.171875-3.78125-3.488281-6.359375-3.488281-2.574219 0-4.972656 1.316406-6.355469 3.488281l-5.710937 8.949219 23.972656 37.582031c.785157 1.234375 1.183594 2.644531 1.183594 4.054687 0 1.246094-.308594 2.496094-.929687 3.625-1.324219 2.414063-3.859376 3.917969-6.613282 3.917969h24.132813c2.753906 0 5.289062-1.503906 6.613281-3.917969.621094-1.132812.929688-2.378906.929688-3.625 0-1.410156-.398438-2.820312-1.183594-4.054687zm0 0" fill="#b0afb1"/></svg>