<svg height="514.42745pt" viewBox="0 0 514.42745 514.42745" width="514.42745pt" xmlns="http://www.w3.org/2000/svg"><path d="m16.074219 514.425781c-8.871094 0-16.074219-7.199219-16.074219-16.074219v-450.125c0-26.636718 21.589844-48.226562 48.226562-48.226562h450.125c8.875 0 16.074219 7.203125 16.074219 16.074219 0 8.875-7.199219 16.078125-16.074219 16.078125h-450.125c-8.871093 0-16.074218 7.203125-16.074218 16.074218v450.125c0 8.875-7.203125 16.074219-16.078125 16.074219zm0 0" fill="#57565c"/><g fill="#d7dee2"><path d="m80.378906 482.277344h32.152344v32.148437h-32.152344zm0 0"/><path d="m160.757812 482.277344h32.152344v32.148437h-32.152344zm0 0"/><path d="m241.136719 482.277344h32.152343v32.148437h-32.152343zm0 0"/><path d="m321.515625 482.277344h32.152344v32.148437h-32.152344zm0 0"/><path d="m401.894531 482.277344h32.152344v32.148437h-32.152344zm0 0"/><path d="m482.277344 401.894531h32.148437v32.152344h-32.148437zm0 0"/><path d="m482.277344 321.515625h32.148437v32.152344h-32.148437zm0 0"/><path d="m482.277344 241.136719h32.148437v32.152343h-32.148437zm0 0"/><path d="m482.277344 160.757812h32.148437v32.152344h-32.148437zm0 0"/><path d="m482.277344 80.378906h32.148437v32.152344h-32.148437zm0 0"/><path d="m482.277344 482.277344h32.148437v32.148437h-32.148437zm0 0"/></g></svg>