<?xml version="1.0" encoding="iso-8859-1"?>
<!-- Generator: Adobe Illustrator 19.0.0, SVG Export Plug-In . SVG Version: 6.00 Build 0)  -->
<svg version="1.1" id="Capa_1" xmlns="http://www.w3.org/2000/svg" xmlns:xlink="http://www.w3.org/1999/xlink" x="0px" y="0px"
	 viewBox="0 0 512 512" style="enable-background:new 0 0 512 512;" xml:space="preserve">
<g>
	<path style="fill:#546E7A;" d="M192.01,512c-2.831,0.005-5.548-1.115-7.552-3.115l-45.781-45.803v38.251
		c0,5.891-4.776,10.667-10.667,10.667c-5.891,0-10.667-4.776-10.667-10.667v-128c0-5.891,4.776-10.667,10.667-10.667h32
		c23.564,0,42.667,19.102,42.667,42.667S183.574,448,160.01,448h-6.251l45.781,45.781c4.171,4.16,4.179,10.914,0.019,15.085
		C197.559,510.872,194.843,511.999,192.01,512z M138.676,426.667h21.333c11.782,0,21.333-9.551,21.333-21.333
		S171.792,384,160.01,384h-21.333V426.667z"/>
	<path style="fill:#546E7A;" d="M373.343,512h-32c-5.891,0-10.667-4.776-10.667-10.667v-128c0-5.891,4.776-10.667,10.667-10.667h32
		c23.564,0.022,42.649,19.143,42.627,42.707c-0.011,12.231-5.272,23.87-14.445,31.96c17.673,15.586,19.365,42.548,3.779,60.221
		C397.213,506.728,385.575,511.989,373.343,512z M352.01,490.667h21.333c11.782,0,21.333-9.551,21.333-21.333
		S385.125,448,373.343,448H352.01V490.667z M352.01,426.667h21.333c11.782,0,21.333-9.551,21.333-21.333S385.125,384,373.343,384
		H352.01V426.667z"/>
	<path style="fill:#546E7A;" d="M266.676,512c-23.564,0-42.667-19.102-42.667-42.667v-64c0-23.564,19.103-42.667,42.667-42.667
		s42.667,19.102,42.667,42.667c0,5.891-4.776,10.667-10.667,10.667c-5.891,0-10.667-4.776-10.667-10.667
		c0-11.782-9.551-21.333-21.333-21.333c-11.782,0-21.333,9.551-21.333,21.333v64c0,11.782,9.551,21.333,21.333,21.333
		c11.782,0,21.333-9.551,21.333-21.333h-10.667c-5.891,0-10.667-4.776-10.667-10.667c0-5.891,4.776-10.667,10.667-10.667h21.333
		c5.891,0,10.667,4.776,10.667,10.667v10.667C309.343,492.898,290.241,512,266.676,512z"/>
</g>
<path style="fill:#2196F3;" d="M202.89,221.653c-0.177,0.769-0.249,1.558-0.213,2.347c0.024,39.629,20.093,76.557,53.333,98.133
	c-18.972,12.574-41.24,19.254-64,19.2c-64.695,0.117-117.236-52.234-117.353-116.93c-0.08-44.236,24.766-84.744,64.233-104.724
	C139.584,162.933,164.242,202.221,202.89,221.653z"/>
<path style="fill:#00BCD4;" d="M309.343,224c-0.024,39.629-20.093,76.557-53.333,98.133c-33.241-21.577-53.31-58.504-53.333-98.133
	c-0.035-0.788,0.036-1.578,0.213-2.347c33.288,17.351,72.952,17.351,106.24,0C309.307,222.422,309.378,223.212,309.343,224z"/>
<path style="fill:#4CAF50;" d="M437.343,224c-0.117,64.753-52.581,117.216-117.333,117.333c-22.76,0.054-45.028-6.626-64-19.2
	c33.241-21.577,53.31-58.504,53.333-98.133c0.035-0.788-0.036-1.578-0.213-2.347c38.648-19.432,63.306-58.721,64-101.973
	C412.459,139.599,437.275,179.914,437.343,224z"/>
<path style="fill:#D81B60;" d="M256.01,125.867c-32.519,21.122-52.425,57.016-53.12,95.787c-38.648-19.432-63.306-58.721-64-101.973
	C176.159,100.33,220.987,102.698,256.01,125.867z"/>
<path style="fill:#FFC107;" d="M373.13,119.68c-0.694,43.253-25.352,82.541-64,101.973c-0.695-38.771-20.601-74.664-53.12-95.787
	C291.033,102.698,335.861,100.33,373.13,119.68z"/>
<path style="fill:#FAFAFA;" d="M309.13,221.653c-33.288,17.351-72.952,17.351-106.24,0c0.695-38.771,20.601-74.664,53.12-95.787
	C288.529,146.989,308.434,182.883,309.13,221.653z"/>
<path style="fill:#F44336;" d="M373.343,117.333c0.035,0.788-0.037,1.578-0.213,2.347c-37.269-19.35-82.097-16.982-117.12,6.187
	c-35.023-23.169-79.851-25.537-117.12-6.187c-0.177-0.769-0.248-1.558-0.213-2.347C138.676,52.532,191.208,0,256.01,0
	S373.343,52.532,373.343,117.333z"/>
<g>
</g>
<g>
</g>
<g>
</g>
<g>
</g>
<g>
</g>
<g>
</g>
<g>
</g>
<g>
</g>
<g>
</g>
<g>
</g>
<g>
</g>
<g>
</g>
<g>
</g>
<g>
</g>
<g>
</g>
</svg>
