<?xml version="1.0" encoding="iso-8859-1"?>
<!-- Generator: Adobe Illustrator 19.0.0, SVG Export Plug-In . SVG Version: 6.00 Build 0)  -->
<svg version="1.1" id="Capa_1" xmlns="http://www.w3.org/2000/svg" xmlns:xlink="http://www.w3.org/1999/xlink" x="0px" y="0px"
	 viewBox="0 0 512 512" style="enable-background:new 0 0 512 512;" xml:space="preserve">
<path style="fill:#4F7097;" d="M417.684,0H94.316C45.972,0.081,6.818,39.235,6.737,87.579v33.684
	c0,18.607,15.077,33.684,33.684,33.684s33.684-15.077,33.684-33.684V87.579c0-11.156,9.054-20.211,20.211-20.211h128v377.263
	h-40.421c-18.607,0-33.684,15.077-33.684,33.684c0,18.607,15.077,33.684,33.684,33.684h148.211
	c18.607,0,33.684-15.077,33.684-33.684c0-18.607-15.077-33.684-33.684-33.684h-40.421V67.368h128
	c11.156,0,20.211,9.054,20.211,20.211v33.684c0,18.607,15.077,33.684,33.684,33.684s33.684-15.077,33.684-33.684V87.579
	C505.182,39.235,466.028,0.081,417.684,0z"/>
<g>
</g>
<g>
</g>
<g>
</g>
<g>
</g>
<g>
</g>
<g>
</g>
<g>
</g>
<g>
</g>
<g>
</g>
<g>
</g>
<g>
</g>
<g>
</g>
<g>
</g>
<g>
</g>
<g>
</g>
</svg>
