<?xml version="1.0" encoding="iso-8859-1"?>
<!-- Generator: Adobe Illustrator 19.0.0, SVG Export Plug-In . SVG Version: 6.00 Build 0)  -->
<svg version="1.1" id="Capa_1" xmlns="http://www.w3.org/2000/svg" xmlns:xlink="http://www.w3.org/1999/xlink" x="0px" y="0px"
	 viewBox="0 0 512 512" style="enable-background:new 0 0 512 512;" xml:space="preserve">
<path style="fill:#2196F3;" d="M274.219,344.448L167.552,237.781c-2.004-1.999-4.721-3.12-7.552-3.115H10.667
	C4.776,234.667,0,239.442,0,245.333v256C0,507.224,4.776,512,10.667,512h256c5.891,0,10.667-4.776,10.667-10.667V352
	C277.338,349.169,276.218,346.452,274.219,344.448z"/>
<path style="fill:#1976D2;" d="M160,0h341.333C507.224,0,512,4.776,512,10.667V352c0,5.891-4.776,10.667-10.667,10.667H160
	c-5.891,0-10.667-4.776-10.667-10.667V10.667C149.333,4.776,154.109,0,160,0z"/>
<g>
	<path style="fill:#FAFAFA;" d="M224,298.667c-5.891,0.011-10.675-4.757-10.686-10.648c-0.005-2.84,1.123-5.565,3.134-7.571
		L429.781,67.115c4.16-4.171,10.914-4.179,15.085-0.019c2.011,2.006,3.139,4.731,3.134,7.571V160
		c0,5.891-4.776,10.667-10.667,10.667s-10.667-4.776-10.667-10.667v-59.584L231.552,295.531
		C229.551,297.538,226.834,298.666,224,298.667z"/>
	<path style="fill:#FAFAFA;" d="M437.333,85.333H352c-5.891,0-10.667-4.776-10.667-10.667S346.109,64,352,64h85.333
		C443.224,64,448,68.776,448,74.667S443.224,85.333,437.333,85.333z"/>
</g>
<g>
</g>
<g>
</g>
<g>
</g>
<g>
</g>
<g>
</g>
<g>
</g>
<g>
</g>
<g>
</g>
<g>
</g>
<g>
</g>
<g>
</g>
<g>
</g>
<g>
</g>
<g>
</g>
<g>
</g>
</svg>
