<?xml version="1.0" encoding="iso-8859-1"?>
<!-- Generator: Adobe Illustrator 19.0.0, SVG Export Plug-In . SVG Version: 6.00 Build 0)  -->
<svg version="1.1" id="Capa_1" xmlns="http://www.w3.org/2000/svg" xmlns:xlink="http://www.w3.org/1999/xlink" x="0px" y="0px"
	 viewBox="0 0 469.333 469.333" style="enable-background:new 0 0 469.333 469.333;" xml:space="preserve">
<path style="fill:#2196F3;" d="M458.667,0h-448C4.776,0,0,4.776,0,10.667v106.667C0,123.224,4.776,128,10.667,128
	s10.667-4.776,10.667-10.667c0-17.673,14.327-32,32-32H192V416c0,17.673-14.327,32-32,32c-5.891,0-10.667,4.776-10.667,10.667
	c0,5.891,4.776,10.667,10.667,10.667h149.333c5.891,0,10.667-4.776,10.667-10.667c0-5.891-4.776-10.667-10.667-10.667
	c-17.673,0-32-14.327-32-32V85.333H416c17.673,0,32,14.327,32,32c0,5.891,4.776,10.667,10.667,10.667
	c5.891,0,10.667-4.776,10.667-10.667V10.667C469.333,4.776,464.558,0,458.667,0z"/>
<g>
</g>
<g>
</g>
<g>
</g>
<g>
</g>
<g>
</g>
<g>
</g>
<g>
</g>
<g>
</g>
<g>
</g>
<g>
</g>
<g>
</g>
<g>
</g>
<g>
</g>
<g>
</g>
<g>
</g>
</svg>
