<svg id="Capa_1" enable-background="new 0 0 512.002 512.002" height="512" viewBox="0 0 512.002 512.002" width="512" xmlns="http://www.w3.org/2000/svg"><g><path d="m504.502 420.059h-22.5v-328.116h22.5c4.143 0 7.5-3.358 7.5-7.5s-3.357-7.5-7.5-7.5h-497.002c-4.143 0-7.5 3.358-7.5 7.5s3.357 7.5 7.5 7.5h459.502v328.116h-459.502c-4.143 0-7.5 3.358-7.5 7.5s3.357 7.5 7.5 7.5h497.002c4.143 0 7.5-3.358 7.5-7.5s-3.357-7.5-7.5-7.5z" fill="#909ba6"/><path d="m172.913 371.102-74.648-197.802c-.026-.069-.053-.138-.082-.206-1.866-4.535-6.238-7.463-11.141-7.463h-.012c-4.908.005-9.28 2.943-11.138 7.486-.023.057-.046.113-.067.17l-75.332 197.794c-1.474 3.871.468 8.204 4.339 9.678.879.335 1.781.493 2.668.493 3.022 0 5.871-1.84 7.01-4.833l16.922-44.431h110.686l16.759 44.409c1.462 3.875 5.789 5.832 9.665 4.369 3.877-1.462 5.833-5.789 4.371-9.664zm-135.767-54.113 49.884-130.977 49.429 130.977z" fill="#c4237c"/><path d="m315.311 91.254c-.053-.138-.106-.275-.162-.411-3.476-8.446-11.618-13.9-20.749-13.9h-.023l-137.416 341.538h24l24.372-63.993c1.051-2.758 183.129-7 183.129-7l27.1 72.57h17.803c1.653 0 3.332-.287 4.975-.867-.086-1.48-.393-2.973-.944-4.434zm-98.552 233.235 77.607-203.767c1.727-4.535 50.636 117.208 50.636 117.208 1.553 4.116 26.262 86.559 32.823 86.559z" fill="#e175a5"/><g fill="#de5791"><path d="m383.712 315.974-76.57-202.896c-1.713-4.54-8.132-4.55-9.859-.015l-2.917 7.659 76.898 203.767h6.56c4.4 0 7.441-4.399 5.888-8.515z"/><path d="m170.293 402.716 124.083-325.772c-12.382.013-19.036 9.768-20.744 13.942-.046.113-.091.226-.134.34l-123.205 323.49c-2.949 7.742.937 16.408 8.679 19.356 7.741 2.949 16.408-.938 19.356-8.679l2.633-6.912c-11.204 0-13.617-8.023-10.668-15.765z"/><path d="m438.341 419.192c-1.643.579-3.323.867-4.975.867-6.063 0-11.77-3.701-14.037-9.708l-24.58-65.133c-1.301-3.448-4.601-5.729-8.286-5.729h-170.515c-2.952 0-5.596 1.823-6.647 4.581l-3.968 10.419h177.253l26.742 70.862c2.268 6.007 7.975 9.708 14.037 9.708 1.759 0 3.55-.312 5.293-.97 6.29-2.374 10.051-8.521 9.683-14.897z"/></g></g></svg>