<?xml version="1.0" encoding="iso-8859-1"?>
<!-- Generator: Adobe Illustrator 19.0.0, SVG Export Plug-In . SVG Version: 6.00 Build 0)  -->
<svg version="1.1" id="Layer_1" xmlns="http://www.w3.org/2000/svg" xmlns:xlink="http://www.w3.org/1999/xlink" x="0px" y="0px"
	 viewBox="0 0 512 512" style="enable-background:new 0 0 512 512;" xml:space="preserve">
<g>
	<path style="fill:#242D3C;" d="M93.676,418.309C50.345,374.897,26.481,317.256,26.481,256
		c0-116.168,86.866-214.144,202.056-227.904l2.097,17.531C124.311,58.324,44.134,148.764,44.134,256
		c0,56.545,22.031,109.757,62.039,149.834L93.676,418.309z"/>
	<path style="fill:#242D3C;" d="M255.997,70.62c-19.469,0-35.31-15.841-35.31-35.31S236.529,0,255.997,0s35.31,15.841,35.31,35.31
		S275.466,70.62,255.997,70.62z M255.997,17.654c-9.736,0-17.654,7.921-17.654,17.654c0,9.736,7.921,17.654,17.654,17.654
		c9.733,0,17.654-7.921,17.654-17.654C273.651,25.577,265.733,17.654,255.997,17.654z"/>
	<path style="fill:#242D3C;" d="M283.461,483.901l-2.097-17.531c106.319-12.698,186.499-103.137,186.499-210.373
		c0-56.545-22.031-109.76-62.036-149.834l12.495-12.475c43.333,43.412,67.197,101.056,67.197,162.309
		C485.514,372.17,398.651,470.144,283.461,483.901z"/>
	<path style="fill:#242D3C;" d="M255.997,512c-19.469,0-35.31-15.841-35.31-35.31s15.841-35.31,35.31-35.31
		c19.469,0,35.31,15.841,35.31,35.31S275.466,512,255.997,512z M255.997,459.036c-9.736,0-17.654,7.921-17.654,17.654
		s7.921,17.654,17.654,17.654c9.733,0,17.654-7.921,17.654-17.654S265.733,459.036,255.997,459.036z"/>
</g>
<path style="fill:#005792;" d="M255.997,123.587c-73.126,0-132.413,59.287-132.413,132.413s59.287,132.416,132.413,132.416
	c36.564,0,69.67-14.822,93.629-38.787L255.997,256V123.587z"/>
<path style="fill:#ffd801;" d="M273.651,238.346h113.551c-7.864-58.995-54.556-105.682-113.551-113.551V238.346L273.651,238.346z"/>
<g>
	<rect x="26.481" y="26.483" style="fill:#242D3C;" width="17.654" height="17.654"/>
	<rect x="467.863" y="26.483" style="fill:#242D3C;" width="17.654" height="17.654"/>
	<rect x="26.481" y="467.866" style="fill:#242D3C;" width="17.654" height="17.654"/>
	<rect x="467.863" y="467.866" style="fill:#242D3C;" width="17.654" height="17.654"/>
	<path style="fill:#242D3C;" d="M255.997,423.726c-92.483,0-167.724-75.243-167.724-167.726S163.515,88.276,255.997,88.276
		S423.724,163.517,423.724,256H406.07c0-82.749-67.323-150.07-150.07-150.07c-82.749,0-150.07,67.32-150.07,150.07
		c0,82.747,67.32,150.07,150.07,150.07v17.656H255.997z"/>
	<path style="fill:#242D3C;" d="M423.468,265.308l-17.628-0.96c0.151-2.793,0.228-5.601,0.228-8.348h17.654
		C423.724,259.062,423.634,262.193,423.468,265.308z"/>
	<path style="fill:#242D3C;" d="M284.114,421.373l-2.936-17.408c5.512-0.929,11.036-2.186,16.402-3.73l4.882,16.965
		C296.456,418.929,290.284,420.334,284.114,421.373z M320.228,410.982l-6.766-16.31c5.171-2.145,10.266-4.603,15.145-7.306
		l8.561,15.442C331.707,405.829,326.013,408.584,320.228,410.982z M353.08,392.786l-10.227-14.392
		c4.559-3.238,8.983-6.774,13.153-10.504l11.773,13.158C363.118,385.219,358.172,389.166,353.08,392.786z M381.071,367.744
		l-13.158-11.766c3.727-4.17,7.263-8.599,10.504-13.164l14.395,10.227C389.187,358.141,385.239,363.09,381.071,367.744z
		 M402.831,337.124l-15.45-8.553c2.716-4.902,5.176-10.002,7.314-15.165l16.31,6.758
		C408.614,325.937,405.868,331.643,402.831,337.124z M417.226,302.38l-16.973-4.869c1.544-5.368,2.796-10.895,3.727-16.425
		l17.408,2.934C420.352,290.199,418.949,296.374,417.226,302.38z"/>
	<path style="fill:#242D3C;" d="M255.997,423.726v-17.654c2.744,0,5.555-0.077,8.348-0.228l0.96,17.628
		C262.19,423.636,259.059,423.726,255.997,423.726z"/>
</g>
<g>
	<rect x="150.065" y="247.168" style="fill:#FFFFFF;" width="17.654" height="17.654"/>
	<rect x="185.367" y="247.168" style="fill:#FFFFFF;" width="17.656" height="17.654"/>
	<rect x="220.695" y="247.168" style="fill:#FFFFFF;" width="17.654" height="17.654"/>
</g>
<g>
</g>
<g>
</g>
<g>
</g>
<g>
</g>
<g>
</g>
<g>
</g>
<g>
</g>
<g>
</g>
<g>
</g>
<g>
</g>
<g>
</g>
<g>
</g>
<g>
</g>
<g>
</g>
<g>
</g>
</svg>
