<?xml version="1.0" encoding="iso-8859-1"?>
<!-- Generator: Adobe Illustrator 19.0.0, SVG Export Plug-In . SVG Version: 6.00 Build 0)  -->
<svg version="1.1" id="Layer_1" xmlns="http://www.w3.org/2000/svg" xmlns:xlink="http://www.w3.org/1999/xlink" x="0px" y="0px"
	 viewBox="0 0 512 512" style="enable-background:new 0 0 512 512;" xml:space="preserve">
<g>
	<polygon style="fill:#242D3C;" points="512,430.913 415.508,430.913 415.508,411.222 492.308,411.222 492.308,83.567 
		19.692,83.567 19.692,411.222 96.492,411.222 96.492,430.913 0,430.913 0,63.876 512,63.876 	"/>
	<path style="fill:#242D3C;" d="M512,83.567H0V2.339h512V83.567z M19.692,63.876h472.614V22.03H19.692V63.876z"/>
</g>
<path style="fill:#005792;" d="M42.668,106.541v281.708H128v-10.506v-78.746v-78.746c0-23.931,57.308-43.323,128-43.323
	c70.694,0,128,19.392,128,43.323v78.746v78.746v10.506h85.335V106.541H42.668z"/>
<g>
	<rect x="121.446" y="33.107" style="fill:#242D3C;" width="19.692" height="19.692"/>
	<rect x="82.048" y="33.107" style="fill:#242D3C;" width="19.692" height="19.692"/>
	<rect x="42.668" y="33.107" style="fill:#242D3C;" width="19.692" height="19.692"/>
	<path style="fill:#242D3C;" d="M256,273.422c-68.5,0-137.846-18.26-137.846-53.169S187.5,167.085,256,167.085
		s137.846,18.26,137.846,53.169S324.5,273.422,256,273.422z M256,186.776c-72.128,0-118.154,19.827-118.154,33.477
		S183.872,253.731,256,253.731s118.154-19.827,118.154-33.477S328.128,186.776,256,186.776z"/>
	<path style="fill:#242D3C;" d="M256,352.168c-68.5,0-137.846-18.263-137.846-53.171v-78.746h19.692v78.746
		c0,13.65,46.026,33.477,118.154,33.477s118.154-19.827,118.154-33.477v-78.746h19.689v78.746
		C393.846,333.907,324.5,352.168,256,352.168z"/>
	<path style="fill:#242D3C;" d="M256,430.913c-68.5,0-137.846-18.26-137.846-53.171v-78.746h19.692v78.746
		c0,13.65,46.026,33.477,118.154,33.477s118.154-19.827,118.154-33.477v-78.746h19.689v78.746
		C393.846,412.653,324.5,430.913,256,430.913z"/>
	<path style="fill:#242D3C;" d="M256,509.661c-68.5,0-137.846-18.263-137.846-53.171v-78.748h19.692v78.748
		c0,13.65,46.026,33.477,118.154,33.477s118.154-19.827,118.154-33.477v-78.748h19.689v78.748
		C393.846,491.398,324.5,509.661,256,509.661z"/>
	<rect x="206.771" y="293.093" style="fill:#242D3C;" width="19.692" height="19.689"/>
	<rect x="246.144" y="293.093" style="fill:#242D3C;" width="19.692" height="19.689"/>
	<rect x="285.542" y="293.093" style="fill:#242D3C;" width="19.692" height="19.689"/>
	<rect x="206.771" y="371.839" style="fill:#242D3C;" width="19.692" height="19.692"/>
	<rect x="246.144" y="371.839" style="fill:#242D3C;" width="19.692" height="19.692"/>
	<rect x="285.542" y="371.839" style="fill:#242D3C;" width="19.692" height="19.692"/>
	<rect x="206.771" y="450.584" style="fill:#242D3C;" width="19.692" height="19.692"/>
	<rect x="246.144" y="450.584" style="fill:#242D3C;" width="19.692" height="19.692"/>
	<rect x="285.542" y="450.584" style="fill:#242D3C;" width="19.692" height="19.692"/>
</g>
<g>
</g>
<g>
</g>
<g>
</g>
<g>
</g>
<g>
</g>
<g>
</g>
<g>
</g>
<g>
</g>
<g>
</g>
<g>
</g>
<g>
</g>
<g>
</g>
<g>
</g>
<g>
</g>
<g>
</g>
</svg>
