<?xml version="1.0" encoding="iso-8859-1"?>
<!-- Generator: Adobe Illustrator 19.0.0, SVG Export Plug-In . SVG Version: 6.00 Build 0)  -->
<svg version="1.1" id="Layer_1" xmlns="http://www.w3.org/2000/svg" xmlns:xlink="http://www.w3.org/1999/xlink" x="0px" y="0px"
	 viewBox="0 0 512 512" style="enable-background:new 0 0 512 512;" xml:space="preserve">
<path style="fill:#242D3C;" d="M227.75,259.529H19.42c-10.711,0-19.42-8.712-19.42-19.42V91.805c0-10.708,8.709-19.42,19.42-19.42
	h208.33c10.711,0,19.42,8.714,19.42,19.42v148.303C247.173,250.817,238.461,259.529,227.75,259.529z M19.42,90.039
	c-0.96,0-1.766,0.806-1.766,1.766v148.303c0,0.96,0.806,1.766,1.766,1.766h208.33c0.96,0,1.766-0.806,1.766-1.766V91.805
	c0-0.96-0.806-1.766-1.766-1.766H19.42z"/>
<rect x="33.536" y="105.932" style="fill:#005792;" width="180.07" height="120.054"/>
<g>
	<rect x="144.768" y="250.7" style="fill:#242D3C;" width="17.654" height="52.966"/>
	<rect x="84.736" y="250.7" style="fill:#242D3C;" width="17.654" height="52.966"/>
	<rect x="67.098" y="294.834" style="fill:#242D3C;" width="112.998" height="17.654"/>
</g>
<g>
	<rect x="79.462" y="190.668" style="fill:#FFFFFF;" width="17.654" height="17.654"/>
	<rect x="114.76" y="190.668" style="fill:#FFFFFF;" width="17.654" height="17.654"/>
	<rect x="150.067" y="190.668" style="fill:#FFFFFF;" width="17.654" height="17.654"/>
</g>
<path style="fill:#242D3C;" d="M492.58,259.529H284.247c-10.706,0-19.42-8.712-19.42-19.42V91.805c0-10.708,8.714-19.42,19.42-19.42
	H492.58c10.706,0,19.42,8.714,19.42,19.42v148.303C512,250.817,503.286,259.529,492.58,259.529z M284.247,90.039
	c-0.957,0-1.764,0.806-1.764,1.766v148.303c0,0.96,0.806,1.766,1.764,1.766H492.58c0.957,0,1.764-0.806,1.764-1.766V91.805
	c0-0.96-0.806-1.766-1.764-1.766H284.247z"/>
<rect x="298.368" y="105.932" style="fill:#ffd801;" width="180.07" height="120.054"/>
<g>
	<rect x="409.6" y="250.7" style="fill:#242D3C;" width="17.654" height="52.966"/>
	<rect x="349.568" y="250.7" style="fill:#242D3C;" width="17.654" height="52.966"/>
	<rect x="331.93" y="294.834" style="fill:#242D3C;" width="112.998" height="17.654"/>
</g>
<g>
	<rect x="344.269" y="190.668" style="fill:#FFFFFF;" width="17.654" height="17.654"/>
	<rect x="379.597" y="190.668" style="fill:#FFFFFF;" width="17.656" height="17.654"/>
	<rect x="414.899" y="190.668" style="fill:#FFFFFF;" width="17.654" height="17.654"/>
</g>
<g>
	<rect x="114.76" y="328.396" style="fill:#242D3C;" width="17.654" height="60.029"/>
	<rect x="379.597" y="328.396" style="fill:#242D3C;" width="17.656" height="60.029"/>
	<rect x="144.768" y="400.767" style="fill:#242D3C;" width="222.584" height="17.654"/>
	<rect x="409.6" y="400.767" style="fill:#242D3C;" width="102.4" height="17.654"/>
	<rect y="400.767" style="fill:#242D3C;" width="102.4" height="17.654"/>
	<path style="fill:#242D3C;" d="M123.587,439.615c-16.55,0-30.013-13.468-30.013-30.016s13.463-30.016,30.013-30.016
		s30.013,13.468,30.013,30.016S140.137,439.615,123.587,439.615z M123.587,397.242c-6.815,0-12.36,5.542-12.36,12.357
		s5.545,12.357,12.36,12.357c6.815,0,12.36-5.542,12.36-12.357S130.401,397.242,123.587,397.242z"/>
	<path style="fill:#242D3C;" d="M388.416,439.615c-16.55,0-30.016-13.468-30.016-30.016s13.466-30.016,30.016-30.016
		c16.548,0,30.013,13.468,30.013,30.016S404.961,439.615,388.416,439.615z M388.416,397.242c-6.815,0-12.36,5.542-12.36,12.357
		s5.545,12.357,12.36,12.357c6.812,0,12.357-5.542,12.357-12.357S395.228,397.242,388.416,397.242z"/>
</g>
<g>
</g>
<g>
</g>
<g>
</g>
<g>
</g>
<g>
</g>
<g>
</g>
<g>
</g>
<g>
</g>
<g>
</g>
<g>
</g>
<g>
</g>
<g>
</g>
<g>
</g>
<g>
</g>
<g>
</g>
</svg>
