<?xml version="1.0" encoding="iso-8859-1"?>
<!-- Generator: Adobe Illustrator 19.0.0, SVG Export Plug-In . SVG Version: 6.00 Build 0)  -->
<svg version="1.1" id="Layer_1" xmlns="http://www.w3.org/2000/svg" xmlns:xlink="http://www.w3.org/1999/xlink" x="0px" y="0px"
	 viewBox="0 0 512 512" style="enable-background:new 0 0 512 512;" xml:space="preserve">
<g>
	<path style="fill:#242D3C;" d="M256.003,396.109l-121.336-70.042V185.946l121.336-70.034l121.329,70.034l0.008,140.114
		L256.003,396.109z M153.631,315.118l102.374,59.098L358.38,315.11l-0.008-118.218l-102.367-59.085l-102.374,59.085
		C153.631,196.892,153.631,315.118,153.631,315.118z"/>
	<polygon style="fill:#242D3C;" points="256,266.947 139.407,199.629 148.89,183.206 256,245.051 363.116,183.206 372.598,199.629 	
		"/>
	<rect x="246.528" y="256" style="fill:#242D3C;" width="18.962" height="129.152"/>
	<polygon style="fill:#242D3C;" points="139.407,199.629 109.315,182.259 74.57,182.259 74.57,163.297 114.396,163.297 
		148.89,183.206 	"/>
</g>
<rect y="134.554" style="fill:#ffd801;" width="74.573" height="74.573"/>
<polygon style="fill:#242D3C;" points="372.593,199.629 363.11,183.206 397.601,163.297 437.43,163.297 437.43,182.259 
	402.685,182.259 "/>
<rect x="437.427" y="134.554" style="fill:#ffd801;" width="74.573" height="74.573"/>
<polygon style="fill:#242D3C;" points="437.43,348.71 397.601,348.71 363.11,328.799 372.593,312.374 402.685,329.748 
	437.43,329.748 "/>
<rect x="437.427" y="302.874" style="fill:#005792;" width="74.573" height="74.573"/>
<polygon style="fill:#242D3C;" points="114.396,348.71 74.57,348.71 74.57,329.748 109.315,329.748 139.407,312.374 148.89,328.799 
	"/>
<rect y="302.874" style="fill:#005792;" width="74.573" height="74.573"/>
<rect x="246.528" y="74.573" style="fill:#242D3C;" width="18.962" height="52.288"/>
<rect x="218.726" style="fill:#005792;" width="74.573" height="74.573"/>
<rect x="246.528" y="385.152" style="fill:#242D3C;" width="18.962" height="52.291"/>
<rect x="218.726" y="437.427" style="fill:#ffd801;" width="74.573" height="74.573"/>
<g>
	<rect x="74.573" y="55.608" style="fill:#242D3C;" width="18.964" height="18.962"/>
	<rect x="418.458" y="55.608" style="fill:#242D3C;" width="18.962" height="18.962"/>
	<rect x="74.573" y="437.453" style="fill:#242D3C;" width="18.964" height="18.962"/>
	<rect x="418.458" y="437.453" style="fill:#242D3C;" width="18.962" height="18.962"/>
</g>
<g>
</g>
<g>
</g>
<g>
</g>
<g>
</g>
<g>
</g>
<g>
</g>
<g>
</g>
<g>
</g>
<g>
</g>
<g>
</g>
<g>
</g>
<g>
</g>
<g>
</g>
<g>
</g>
<g>
</g>
</svg>
