<?xml version="1.0" encoding="iso-8859-1"?>
<!-- Generator: Adobe Illustrator 19.0.0, SVG Export Plug-In . SVG Version: 6.00 Build 0)  -->
<svg version="1.1" id="Layer_1" xmlns="http://www.w3.org/2000/svg" xmlns:xlink="http://www.w3.org/1999/xlink" x="0px" y="0px"
	 viewBox="0 0 512 512" style="enable-background:new 0 0 512 512;" xml:space="preserve">
<rect x="64.85" y="221.005" style="fill:#005792;" width="382.285" height="252.595"/>
<g>
	<path style="fill:#242D3C;" d="M455.665,482.132H56.317V212.48h399.35v269.652H455.665z M73.382,465.065H438.6v-235.52H73.382
		V465.065z"/>
	<rect x="167.834" y="221.005" style="fill:#242D3C;" width="17.068" height="252.595"/>
	<polygon style="fill:#242D3C;" points="169.539,226.135 124.298,165.834 34.132,165.834 71.677,215.892 58.022,226.132 0,148.767 
		132.833,148.767 183.194,215.892 	"/>
	<polygon style="fill:#242D3C;" points="453.96,226.135 440.307,215.892 477.86,165.834 387.699,165.834 342.459,226.135 
		328.806,215.892 379.167,148.767 512,148.767 	"/>
</g>
<polygon style="fill:#ffd801;" points="290.132,122.028 290.132,29.868 221.865,29.868 221.865,122.028 180.905,122.028 256,197.12 
	331.092,122.028 "/>
<g>
	<rect x="213.325" y="253.44" style="fill:#FFFFFF;" width="17.068" height="17.068"/>
	<rect x="247.475" y="253.44" style="fill:#FFFFFF;" width="17.068" height="17.068"/>
	<rect x="281.6" y="253.44" style="fill:#FFFFFF;" width="17.068" height="17.068"/>
</g>
<g>
	<rect x="319.13" y="430.925" style="fill:#242D3C;" width="102.4" height="17.068"/>
	<rect x="319.13" y="396.8" style="fill:#242D3C;" width="51.2" height="17.065"/>
</g>
<g>
</g>
<g>
</g>
<g>
</g>
<g>
</g>
<g>
</g>
<g>
</g>
<g>
</g>
<g>
</g>
<g>
</g>
<g>
</g>
<g>
</g>
<g>
</g>
<g>
</g>
<g>
</g>
<g>
</g>
</svg>
