<?xml version="1.0" encoding="iso-8859-1"?>
<!-- Generator: Adobe Illustrator 19.0.0, SVG Export Plug-In . SVG Version: 6.00 Build 0)  -->
<svg version="1.1" id="Layer_1" xmlns="http://www.w3.org/2000/svg" xmlns:xlink="http://www.w3.org/1999/xlink" x="0px" y="0px"
	 viewBox="0 0 512 512" style="enable-background:new 0 0 512 512;" xml:space="preserve">
<g>
	<rect x="64" y="44.114" style="fill:#242D3C;" width="18.286" height="49.994"/>
	<rect x="100.582" y="59.535" style="fill:#242D3C;" width="18.286" height="34.57"/>
	<rect x="137.139" y="2.678" style="fill:#242D3C;" width="18.286" height="91.428"/>
	<rect x="173.714" y="39.258" style="fill:#242D3C;" width="18.286" height="54.851"/>
	<rect x="210.278" y="15.411" style="fill:#242D3C;" width="18.286" height="78.687"/>
	<rect x="246.861" y="43.182" style="fill:#242D3C;" width="18.286" height="50.926"/>
	<rect x="283.418" y="8.259" style="fill:#242D3C;" width="18.289" height="85.85"/>
	<rect x="320" y="22.922" style="fill:#242D3C;" width="18.286" height="71.186"/>
	<rect x="356.582" y="39.258" style="fill:#242D3C;" width="18.286" height="54.851"/>
	<rect x="393.139" y="9.846" style="fill:#242D3C;" width="18.286" height="84.262"/>
	<rect x="429.722" y="44.114" style="fill:#242D3C;" width="18.286" height="49.994"/>
</g>
<polygon style="fill:#005792;" points="9.142,139.822 201.142,331.822 201.142,340.964 310.858,340.964 310.858,331.822 
	502.858,139.822 "/>
<g>
	<rect x="64" y="139.822" style="fill:#242D3C;" width="18.286" height="18.286"/>
	<rect x="100.582" y="139.822" style="fill:#242D3C;" width="18.286" height="18.286"/>
	<rect x="137.139" y="139.822" style="fill:#242D3C;" width="18.286" height="18.286"/>
	<rect x="173.714" y="139.822" style="fill:#242D3C;" width="18.286" height="18.286"/>
	<rect x="210.278" y="139.822" style="fill:#242D3C;" width="18.286" height="18.286"/>
	<rect x="246.861" y="139.822" style="fill:#242D3C;" width="18.286" height="18.286"/>
	<rect x="283.418" y="139.822" style="fill:#242D3C;" width="18.289" height="18.286"/>
	<rect x="320" y="139.822" style="fill:#242D3C;" width="18.286" height="18.286"/>
	<rect x="356.582" y="139.822" style="fill:#242D3C;" width="18.286" height="18.286"/>
	<rect x="393.139" y="139.822" style="fill:#242D3C;" width="18.286" height="18.286"/>
	<rect x="429.722" y="139.822" style="fill:#242D3C;" width="18.286" height="18.286"/>
	<rect x="100.582" y="176.392" style="fill:#242D3C;" width="18.286" height="18.286"/>
	<rect x="137.139" y="176.392" style="fill:#242D3C;" width="18.286" height="18.286"/>
	<rect x="173.714" y="176.392" style="fill:#242D3C;" width="18.286" height="18.286"/>
	<rect x="210.278" y="176.392" style="fill:#242D3C;" width="18.286" height="18.286"/>
	<rect x="246.861" y="176.392" style="fill:#242D3C;" width="18.286" height="18.286"/>
	<rect x="283.418" y="176.392" style="fill:#242D3C;" width="18.289" height="18.286"/>
	<rect x="320" y="176.392" style="fill:#242D3C;" width="18.286" height="18.286"/>
	<rect x="356.582" y="176.392" style="fill:#242D3C;" width="18.286" height="18.286"/>
	<rect x="393.139" y="176.392" style="fill:#242D3C;" width="18.286" height="18.286"/>
	<rect x="137.139" y="212.966" style="fill:#242D3C;" width="18.286" height="18.286"/>
	<rect x="173.714" y="212.966" style="fill:#242D3C;" width="18.286" height="18.286"/>
	<rect x="210.278" y="212.966" style="fill:#242D3C;" width="18.286" height="18.286"/>
	<rect x="246.861" y="212.966" style="fill:#242D3C;" width="18.286" height="18.286"/>
	<rect x="283.418" y="212.966" style="fill:#242D3C;" width="18.289" height="18.286"/>
	<rect x="320" y="212.966" style="fill:#242D3C;" width="18.286" height="18.286"/>
	<rect x="356.582" y="212.966" style="fill:#242D3C;" width="18.286" height="18.286"/>
	<rect x="173.714" y="249.523" style="fill:#242D3C;" width="18.286" height="18.286"/>
	<rect x="210.278" y="249.523" style="fill:#242D3C;" width="18.286" height="18.286"/>
	<rect x="246.861" y="249.523" style="fill:#242D3C;" width="18.286" height="18.286"/>
	<rect x="283.418" y="249.523" style="fill:#242D3C;" width="18.289" height="18.286"/>
	<rect x="320" y="249.523" style="fill:#242D3C;" width="18.286" height="18.286"/>
	<rect x="210.278" y="286.106" style="fill:#242D3C;" width="18.286" height="18.286"/>
	<rect x="246.861" y="286.106" style="fill:#242D3C;" width="18.286" height="18.286"/>
	<rect x="283.418" y="286.106" style="fill:#242D3C;" width="18.289" height="18.286"/>
	<rect x="246.861" y="322.688" style="fill:#242D3C;" width="18.286" height="18.289"/>
	<polygon style="fill:#242D3C;" points="210.286,423.25 192,423.25 192,335.608 0,143.608 0,75.822 45.714,75.822 45.714,94.108 
		18.286,94.108 18.286,136.036 210.286,328.036 	"/>
	<polygon style="fill:#242D3C;" points="320,423.25 301.714,423.25 301.714,328.036 493.714,136.036 493.714,94.108 466.286,94.108 
		466.286,75.822 512,75.822 512,143.608 320,335.608 	"/>
	<rect x="246.861" y="359.245" style="fill:#242D3C;" width="18.286" height="137.139"/>
	<polygon style="fill:#242D3C;" points="256,509.322 194.678,448 207.608,435.072 256,483.466 304.392,435.072 317.322,448 	"/>
</g>
<g>
</g>
<g>
</g>
<g>
</g>
<g>
</g>
<g>
</g>
<g>
</g>
<g>
</g>
<g>
</g>
<g>
</g>
<g>
</g>
<g>
</g>
<g>
</g>
<g>
</g>
<g>
</g>
<g>
</g>
</svg>
