<?xml version="1.0" encoding="iso-8859-1"?>
<!-- Generator: Adobe Illustrator 19.0.0, SVG Export Plug-In . SVG Version: 6.00 Build 0)  -->
<svg version="1.1" id="Layer_1" xmlns="http://www.w3.org/2000/svg" xmlns:xlink="http://www.w3.org/1999/xlink" x="0px" y="0px"
	 viewBox="0 0 512 512" style="enable-background:new 0 0 512 512;" xml:space="preserve">
<g>
	<rect x="246.555" y="398.643" style="fill:#242D3C;" width="18.893" height="47.232"/>
	<rect x="0.946" y="464.768" style="fill:#242D3C;" width="226.739" height="18.893"/>
	<rect x="284.34" y="464.768" style="fill:#242D3C;" width="226.714" height="18.893"/>
	<path style="fill:#242D3C;" d="M256.001,512c-20.833,0-37.786-16.952-37.786-37.786c0-20.836,16.952-37.788,37.786-37.788
		c20.836,0,37.786,16.952,37.786,37.788C293.787,495.048,276.837,512,256.001,512z M256.001,455.319
		c-10.417,0-18.893,8.479-18.893,18.895c0,10.414,8.476,18.893,18.893,18.893c10.417,0,18.893-8.479,18.893-18.893
		C274.894,463.798,266.418,455.319,256.001,455.319z"/>
</g>
<rect x="67.073" y="96.353" style="fill:#ffd801;" width="434.534" height="264.499"/>
<g>
	<path style="fill:#242D3C;" d="M473.271,408.087H38.732v-18.893c5.048,0,9.789-1.964,13.358-5.535
		c3.571-3.569,5.535-8.31,5.535-13.358V86.907h453.432v283.395c0,10.092-3.93,19.579-11.064,26.716
		C492.855,404.155,483.363,408.087,473.271,408.087z M71.474,389.194h401.797c5.048,0,9.792-1.966,13.361-5.535
		c3.571-3.569,5.532-8.31,5.532-13.358V105.802H76.517v264.502C76.517,377.044,74.766,383.514,71.474,389.194z"/>
	<path style="fill:#242D3C;" d="M38.732,408.087c-10.097,0-19.584-3.932-26.721-11.069c-7.132-7.132-11.067-16.62-11.067-26.716V0
		h183.396l37.786,37.786h288.929v34.007h-18.893V56.678H214.304l-37.786-37.786H19.839v351.411c0,5.048,1.964,9.789,5.535,13.358
		c3.569,3.574,8.31,5.535,13.358,5.535V408.087z"/>
	<rect x="95.412" y="351.411" style="fill:#242D3C;" width="377.856" height="18.893"/>
	<rect x="57.624" y="37.786" style="fill:#242D3C;" width="18.893" height="18.893"/>
	<rect x="95.412" y="37.786" style="fill:#242D3C;" width="18.893" height="18.893"/>
	<rect x="133.198" y="37.786" style="fill:#242D3C;" width="18.893" height="18.893"/>
</g>
<g>
	<rect x="359.912" y="124.695" style="fill:#FFFFFF;" width="113.357" height="18.893"/>
	<rect x="359.912" y="162.483" style="fill:#FFFFFF;" width="56.678" height="18.893"/>
</g>
<g>
</g>
<g>
</g>
<g>
</g>
<g>
</g>
<g>
</g>
<g>
</g>
<g>
</g>
<g>
</g>
<g>
</g>
<g>
</g>
<g>
</g>
<g>
</g>
<g>
</g>
<g>
</g>
<g>
</g>
</svg>
