<?xml version="1.0" encoding="iso-8859-1"?>
<!-- Generator: Adobe Illustrator 19.0.0, SVG Export Plug-In . SVG Version: 6.00 Build 0)  -->
<svg version="1.1" id="Layer_1" xmlns="http://www.w3.org/2000/svg" xmlns:xlink="http://www.w3.org/1999/xlink" x="0px" y="0px"
	 viewBox="0 0 512 512" style="enable-background:new 0 0 512 512;" xml:space="preserve">
<path style="fill:#005792;" d="M218.074,70.162L180.15,32.238H9.482v362.191c0,7.281,2.778,14.561,8.333,20.109
	c5.55,5.558,12.831,8.335,20.111,8.335s14.559-2.778,20.111-8.335c5.555-5.548,8.333-12.831,8.333-20.109V119.468h436.147V70.162
	H218.074z"/>
<g>
	<path style="fill:#242D3C;" d="M474.076,432.356v-18.962c5.064,0,9.825-1.974,13.409-5.555c3.581-3.581,5.553-8.34,5.553-13.407
		V128.95H75.85v265.482c0,10.138-3.948,19.663-11.113,26.819c-7.155,7.16-16.678,11.108-26.811,11.108v-18.962
		c5.064,0,9.825-1.974,13.404-5.555c3.589-3.581,5.558-8.34,5.558-13.407V109.985H512v284.444c0,10.132-3.945,19.661-11.108,26.819
		C493.729,428.411,484.203,432.356,474.076,432.356z"/>
	<rect x="37.926" y="413.389" style="fill:#242D3C;" width="341.325" height="18.962"/>
	<path style="fill:#242D3C;" d="M37.926,432.356c-10.132,0-19.656-3.948-26.819-11.11C3.948,414.093,0,404.567,0,394.429V22.756
		h184.074l37.926,37.926H512v34.132h-18.962V79.644H214.147l-37.924-37.926H18.962v352.712c0,5.066,1.971,9.825,5.553,13.402
		c3.584,3.584,8.343,5.56,13.412,5.56C37.926,413.391,37.926,432.356,37.926,432.356z"/>
	<rect x="94.822" y="375.475" style="fill:#242D3C;" width="284.442" height="18.962"/>
	<rect x="94.822" y="147.912" style="fill:#242D3C;" width="113.792" height="18.962"/>
	<rect x="94.822" y="185.83" style="fill:#242D3C;" width="56.883" height="18.962"/>
	<rect x="426.675" y="147.912" style="fill:#242D3C;" width="28.442" height="18.962"/>
	<rect x="426.675" y="185.83" style="fill:#242D3C;" width="28.442" height="18.962"/>
	<rect x="398.234" y="166.886" style="fill:#242D3C;" width="28.442" height="18.964"/>
	<rect x="398.234" y="204.8" style="fill:#242D3C;" width="28.442" height="18.962"/>
	<rect x="426.675" y="223.77" style="fill:#242D3C;" width="28.442" height="18.964"/>
	<rect x="426.675" y="261.683" style="fill:#242D3C;" width="28.442" height="18.962"/>
	<rect x="398.234" y="242.714" style="fill:#242D3C;" width="28.442" height="18.964"/>
	<rect x="398.234" y="280.653" style="fill:#242D3C;" width="28.442" height="18.962"/>
	<rect x="426.675" y="299.622" style="fill:#242D3C;" width="28.442" height="18.962"/>
	<rect x="426.675" y="337.536" style="fill:#242D3C;" width="28.442" height="18.962"/>
	<rect x="398.234" y="318.566" style="fill:#242D3C;" width="28.442" height="18.962"/>
	<rect x="398.234" y="356.506" style="fill:#242D3C;" width="28.442" height="18.964"/>
	<path style="fill:#242D3C;" d="M426.668,489.244c-7.601,0-14.746-2.959-20.114-8.338c-5.371-5.363-8.33-12.508-8.33-20.106v-66.371
		h18.962V460.8c0,2.532,0.986,4.91,2.775,6.7c3.592,3.592,9.83,3.584,13.407,0.008c1.795-1.797,2.78-4.175,2.78-6.707V394.43h18.962
		v66.37c0,7.601-2.957,14.746-8.335,20.114C441.411,486.285,434.268,489.244,426.668,489.244z"/>
	<rect x="407.706" y="413.389" style="fill:#242D3C;" width="37.926" height="18.962"/>
	<rect x="56.883" y="60.682" style="fill:#242D3C;" width="18.962" height="18.964"/>
	<rect x="94.822" y="60.682" style="fill:#242D3C;" width="18.962" height="18.964"/>
	<rect x="132.741" y="60.682" style="fill:#242D3C;" width="18.962" height="18.964"/>
</g>
<g>
</g>
<g>
</g>
<g>
</g>
<g>
</g>
<g>
</g>
<g>
</g>
<g>
</g>
<g>
</g>
<g>
</g>
<g>
</g>
<g>
</g>
<g>
</g>
<g>
</g>
<g>
</g>
<g>
</g>
</svg>
