<?xml version="1.0" encoding="iso-8859-1"?>
<!-- Generator: Adobe Illustrator 19.0.0, SVG Export Plug-In . SVG Version: 6.00 Build 0)  -->
<svg version="1.1" id="Layer_1" xmlns="http://www.w3.org/2000/svg" xmlns:xlink="http://www.w3.org/1999/xlink" x="0px" y="0px"
	 viewBox="0 0 512 512" style="enable-background:new 0 0 512 512;" xml:space="preserve">
<g>
	<path style="fill:#242D3C;" d="M7.401,258.307l-0.087-35.581l53.322-10.729c1.851-9.853,4.483-19.633,7.862-29.21l-40.742-36.065
		l25.869-44.703l51.535,17.334c6.605-7.693,13.809-14.904,21.512-21.519l-17.413-51.63l44.933-25.848l35.894,40.822
		c9.605-3.384,19.415-6.024,29.294-7.869L230.118,0h51.876l10.732,53.322c9.856,1.853,19.651,4.49,29.245,7.869l35.884-40.837
		L402.801,46.2L385.39,97.782c7.734,6.63,14.968,13.847,21.581,21.55l51.512-17.313l25.848,44.705l-40.666,35.973
		c3.392,9.613,6.036,19.438,7.908,29.343l53.112,10.68v35.564h-19.131v-19.896l-50.752-10.207l-1.009-6.612
		c-1.974-12.941-5.432-25.795-10.291-38.208l-2.427-6.221l38.863-34.376l-10.191-17.626l-49.226,16.55l-4.183-5.212
		c-8.266-10.314-17.718-19.748-28.091-28.052l-5.23-4.18l16.632-49.283l-17.761-10.214l-34.312,39.045l-6.241-2.435
		c-12.413-4.846-25.239-8.294-38.124-10.253l-6.62-1.001l-10.26-50.975h-20.554l-10.266,50.964l-6.628,1.001
		c-12.897,1.946-25.738,5.399-38.159,10.248l-6.241,2.437l-34.327-39.04l-17.759,10.217l16.637,49.311l-5.217,4.183
		c-10.335,8.292-19.763,17.725-28.024,28.037l-4.178,5.217l-49.272-16.571l-10.199,17.631l38.943,34.465l-2.432,6.216
		c-4.836,12.383-8.279,25.188-10.235,38.067l-1.006,6.62l-50.934,10.243l0.049,19.884L7.401,258.307z"/>
	<rect x="246.451" y="87.27" style="fill:#242D3C;" width="19.128" height="19.128"/>
	
		<rect x="170.496" y="107.605" transform="matrix(-0.5 -0.866 0.866 -0.5 168.6219 331.6896)" style="fill:#242D3C;" width="19.128" height="19.128"/>
	
		<rect x="114.902" y="163.208" transform="matrix(-0.866 -0.5 0.5 -0.866 145.8673 384.6307)" style="fill:#242D3C;" width="19.128" height="19.128"/>
	<rect x="94.551" y="239.155" style="fill:#242D3C;" width="19.128" height="19.128"/>
	
		<rect x="114.895" y="315.105" transform="matrix(-0.5 -0.866 0.866 -0.5 -94.4771 594.7921)" style="fill:#242D3C;" width="19.13" height="19.128"/>
	<rect x="398.336" y="239.181" style="fill:#242D3C;" width="19.121" height="19.128"/>
	
		<rect x="377.99" y="315.091" transform="matrix(-0.866 -0.5 0.5 -0.866 560.8519 799.5956)" style="fill:#242D3C;" width="19.128" height="19.13"/>
	
		<rect x="377.97" y="163.207" transform="matrix(-0.5 -0.866 0.866 -0.5 431.6825 594.7709)" style="fill:#242D3C;" width="19.128" height="19.128"/>
	
		<rect x="322.395" y="107.625" transform="matrix(-0.866 -0.5 0.5 -0.866 560.8456 384.6603)" style="fill:#242D3C;" width="19.128" height="19.128"/>
	<path style="fill:#242D3C;" d="M256.01,374.973c-69.619,0-126.254-56.632-126.254-126.244c0-69.619,56.637-126.257,126.254-126.257
		c69.609,0,126.249,56.64,126.249,126.257C382.259,318.341,325.619,374.973,256.01,374.973z M256.01,141.599
		c-59.069,0-107.126,48.056-107.126,107.128c0,59.062,48.056,107.118,107.126,107.118c59.064,0,107.121-48.054,107.121-107.118
		C363.131,189.655,315.075,141.599,256.01,141.599z"/>
</g>
<path style="fill:#005792;" d="M344,248.727c0,48.594-39.401,87.987-87.99,87.987c-48.596,0-87.997-39.393-87.997-87.987
	c0-48.591,39.401-88,87.997-88C304.599,160.727,344,200.136,344,248.727z"/>
<path style="fill:#FFFFFF;" d="M206.272,248.727h-19.131c0-37.972,30.894-68.872,68.869-68.872v19.128
	C228.582,198.986,206.272,221.297,206.272,248.727z"/>
<rect x="223.488" y="401.638" style="fill:#ffd801;" width="65.037" height="110.362"/>
<g>
	<rect x="278.963" y="401.638" style="fill:#242D3C;" width="19.131" height="110.362"/>
	<rect x="213.914" y="401.638" style="fill:#242D3C;" width="19.128" height="110.362"/>
	<polygon style="fill:#242D3C;" points="322.959,411.205 189.059,411.205 189.059,350.339 208.187,350.339 208.187,392.077 
		303.831,392.077 303.831,350.339 322.959,350.339 	"/>
</g>
<g>
</g>
<g>
</g>
<g>
</g>
<g>
</g>
<g>
</g>
<g>
</g>
<g>
</g>
<g>
</g>
<g>
</g>
<g>
</g>
<g>
</g>
<g>
</g>
<g>
</g>
<g>
</g>
<g>
</g>
</svg>
