<?xml version="1.0" encoding="iso-8859-1"?>
<!-- Generator: Adobe Illustrator 19.0.0, SVG Export Plug-In . SVG Version: 6.00 Build 0)  -->
<svg version="1.1" id="Layer_1" xmlns="http://www.w3.org/2000/svg" xmlns:xlink="http://www.w3.org/1999/xlink" x="0px" y="0px"
	 viewBox="0 0 512 512" style="enable-background:new 0 0 512 512;" xml:space="preserve">
<g>
	<polygon style="fill:#242D3C;" points="338.237,498.337 173.75,498.337 173.75,443.645 193.441,443.645 193.441,478.646 
		318.546,478.646 318.546,443.645 338.237,443.645 	"/>
	<rect x="142.285" y="478.643" style="fill:#242D3C;" width="227.43" height="19.692"/>
	<path style="fill:#242D3C;" d="M512,366.863H0V40.878c0-7.24,2.824-14.067,7.946-19.223c5.189-5.169,12.022-7.992,19.277-7.992
		h457.562c7.286,0,14.124,2.834,19.246,7.985c5.14,5.161,7.969,11.994,7.969,19.231V366.863L512,366.863z M19.692,347.169h472.614
		V40.878c0-1.997-0.794-3.894-2.23-5.338c-1.405-1.408-3.285-2.186-5.292-2.186H27.223c-2.012,0-3.912,0.786-5.345,2.214
		c-1.398,1.408-2.186,3.305-2.186,5.309V347.169z"/>
	<path style="fill:#242D3C;" d="M484.785,424.763H27.215c-7.322,0-14.17-2.847-19.272-8.008C2.842,411.699,0,404.854,0,397.545
		v-50.376h512v50.376c0,7.301-2.842,14.141-8.008,19.269C498.949,421.916,492.106,424.763,484.785,424.763z M19.692,366.863v30.682
		c0,2.017,0.776,3.899,2.186,5.292c1.925,1.951,4.168,2.232,5.338,2.232h457.569c1.17,0,3.407-0.282,5.271-2.163
		c1.475-1.469,2.253-3.346,2.253-5.363v-30.682H19.692V366.863z"/>
</g>
<rect x="49.231" y="62.892" style="fill:#005792;" width="413.542" height="254.746"/>
<g>
	<path style="fill:#FFFFFF;" d="M49.231,167.26v-19.692c10.857,0,19.692-8.835,19.692-19.692h19.692
		C88.614,149.594,70.945,167.26,49.231,167.26z"/>
	<path style="fill:#FFFFFF;" d="M167.386,167.26c-21.716,0-39.386-17.667-39.386-39.383h19.692c0,10.857,8.835,19.692,19.692,19.692
		c10.857,0,19.692-8.835,19.692-19.692h19.692C206.769,149.594,189.1,167.26,167.386,167.26z"/>
	<path style="fill:#FFFFFF;" d="M147.692,127.877H128c0-10.86-8.835-19.692-19.692-19.692s-19.692,8.835-19.692,19.692H68.925
		c0-21.716,17.669-39.386,39.386-39.386S147.692,106.161,147.692,127.877z"/>
	<path style="fill:#FFFFFF;" d="M285.537,167.26c-21.714,0-39.383-17.669-39.383-39.383h19.692c0,10.857,8.835,19.692,19.692,19.692
		c10.857,0,19.691-8.835,19.691-19.692h19.692C324.923,149.594,307.254,167.26,285.537,167.26z"/>
	<path style="fill:#FFFFFF;" d="M265.846,127.877h-19.692c0-10.86-8.835-19.692-19.692-19.692c-10.857,0-19.692,8.835-19.692,19.692
		H187.08c0-21.716,17.669-39.386,39.383-39.386S265.846,106.161,265.846,127.877z"/>
	<path style="fill:#FFFFFF;" d="M403.692,167.26c-21.714,0-39.386-17.669-39.386-39.383H384c0,10.857,8.835,19.692,19.692,19.692
		c10.857,0,19.691-8.835,19.691-19.692h19.692C443.077,149.594,425.408,167.26,403.692,167.26z"/>
	<path style="fill:#FFFFFF;" d="M384,127.877h-19.692c0-10.86-8.835-19.692-19.692-19.692s-19.692,8.835-19.692,19.692h-19.692
		c0-21.716,17.669-39.386,39.386-39.386S384,106.161,384,127.877z"/>
	<path style="fill:#FFFFFF;" d="M443.077,127.877h-19.691c0-21.716,17.669-39.386,39.386-39.386v19.692
		C451.912,108.186,443.077,117.018,443.077,127.877z"/>
</g>
<g>
	<rect x="49.231" y="249.062" style="fill:#242D3C;" width="19.692" height="68.562"/>
	<rect x="88.614" y="270.234" style="fill:#242D3C;" width="19.692" height="47.409"/>
	<rect x="128" y="192.256" style="fill:#242D3C;" width="19.692" height="125.384"/>
	<rect x="167.398" y="242.406" style="fill:#242D3C;" width="19.692" height="75.223"/>
	<rect x="206.771" y="209.723" style="fill:#242D3C;" width="19.692" height="107.904"/>
	<rect x="246.144" y="247.782" style="fill:#242D3C;" width="19.692" height="69.837"/>
	<rect x="285.542" y="199.885" style="fill:#242D3C;" width="19.692" height="117.734"/>
	<rect x="324.915" y="220.006" style="fill:#242D3C;" width="19.692" height="97.613"/>
	<rect x="364.314" y="242.406" style="fill:#242D3C;" width="19.692" height="75.223"/>
	<rect x="403.686" y="202.074" style="fill:#242D3C;" width="19.692" height="115.558"/>
	<rect x="443.085" y="249.062" style="fill:#242D3C;" width="19.692" height="68.562"/>
</g>
<g>
</g>
<g>
</g>
<g>
</g>
<g>
</g>
<g>
</g>
<g>
</g>
<g>
</g>
<g>
</g>
<g>
</g>
<g>
</g>
<g>
</g>
<g>
</g>
<g>
</g>
<g>
</g>
<g>
</g>
</svg>
