<?xml version="1.0" encoding="iso-8859-1"?>
<!-- Generator: Adobe Illustrator 19.0.0, SVG Export Plug-In . SVG Version: 6.00 Build 0)  -->
<svg version="1.1" id="Layer_1" xmlns="http://www.w3.org/2000/svg" xmlns:xlink="http://www.w3.org/1999/xlink" x="0px" y="0px"
	 viewBox="0 0 512 512" style="enable-background:new 0 0 512 512;" xml:space="preserve">
<g>
	<rect x="142.621" y="34.885" style="fill:#242D3C;" width="17.441" height="17.441"/>
	<rect x="351.922" y="34.885" style="fill:#242D3C;" width="17.441" height="17.441"/>
	<rect x="142.621" y="331.418" style="fill:#242D3C;" width="17.441" height="17.441"/>
	<rect x="351.922" y="331.418" style="fill:#242D3C;" width="17.441" height="17.441"/>
</g>
<path style="fill:#ffd801;" d="M255.999,95.933c-52.982,0-95.933,42.952-95.933,95.933s42.952,95.936,95.933,95.936
	s95.936-42.952,95.936-95.936C351.935,138.885,308.98,95.933,255.999,95.933z M255.999,221.519
	c-16.376,0-29.652-13.289-29.652-29.652c0-16.358,13.276-29.652,29.652-29.652c16.361,0,29.652,13.292,29.652,29.652
	C285.651,208.23,272.36,221.519,255.999,221.519z"/>
<g>
	<path style="fill:#242D3C;" d="M255.999,230.241c-21.158,0-38.374-17.213-38.374-38.374c0-21.158,17.216-38.372,38.374-38.372
		c21.161,0,38.372,17.213,38.372,38.372C294.371,213.028,277.16,230.241,255.999,230.241z M255.999,170.936
		c-11.543,0-20.931,9.388-20.931,20.931c0,11.543,9.388,20.931,20.931,20.931s20.931-9.388,20.931-20.931
		C276.929,180.326,267.542,170.936,255.999,170.936z"/>
	<polygon style="fill:#242D3C;" points="205.539,313.966 142.621,313.966 142.621,296.522 198.317,296.522 237.692,257.142 
		250.029,269.473 	"/>
	<path style="fill:#242D3C;" d="M381.587,383.734h-81.979v-17.441h81.979c2.831,0,5.233-2.399,5.233-5.233V22.674
		c0-2.834-2.401-5.233-5.233-5.233H130.413c-2.834,0-5.233,2.399-5.233,5.233V361.06c0,2.834,2.399,5.233,5.233,5.233h81.979v17.441
		h-81.979c-12.503,0-22.674-10.173-22.674-22.674V22.674C107.736,10.173,117.91,0,130.413,0h251.174
		c12.503,0,22.674,10.173,22.674,22.674V361.06C404.261,373.563,394.088,383.734,381.587,383.734z"/>
	<path style="fill:#242D3C;" d="M421.705,488.389h-99.423c-6.057,0-11.75-2.355-16.033-6.643c-4.285-4.283-6.643-9.974-6.643-16.033
		V436.06h17.441v29.652c0,1.398,0.545,2.714,1.533,3.699c0.988,0.986,2.301,1.533,3.699,1.533h99.423v17.444H421.705z"/>
	<polygon style="fill:#242D3C;" points="401.706,512 389.375,499.668 409.371,479.67 389.375,459.674 401.706,447.34 
		434.036,479.67 	"/>
	<rect x="299.595" y="401.178" style="fill:#242D3C;" width="17.441" height="17.441"/>
	<path style="fill:#242D3C;" d="M189.718,488.389H90.295v-17.441h99.423c1.395,0,2.711-0.545,3.699-1.533
		c0.988-0.988,1.533-2.301,1.533-3.699v-29.652h17.441v29.652c0,6.057-2.358,11.75-6.643,16.033
		C201.468,486.034,195.775,488.389,189.718,488.389z"/>
	<polygon style="fill:#242D3C;" points="110.291,512 77.964,479.67 110.291,447.34 122.625,459.674 102.627,479.67 122.625,499.668 
			"/>
	<rect x="194.943" y="401.178" style="fill:#242D3C;" width="17.441" height="17.441"/>
	<rect x="247.269" y="322.688" style="fill:#242D3C;" width="17.441" height="95.933"/>
	<polygon style="fill:#242D3C;" points="275.997,355.018 255.999,335.02 236,355.018 223.668,342.684 255.999,310.354 
		288.329,342.684 	"/>
	<rect x="247.269" y="436.07" style="fill:#242D3C;" width="17.441" height="17.441"/>
	<rect x="247.269" y="470.938" style="fill:#242D3C;" width="17.441" height="17.441"/>
</g>
<g>
</g>
<g>
</g>
<g>
</g>
<g>
</g>
<g>
</g>
<g>
</g>
<g>
</g>
<g>
</g>
<g>
</g>
<g>
</g>
<g>
</g>
<g>
</g>
<g>
</g>
<g>
</g>
<g>
</g>
</svg>
