<?xml version="1.0" encoding="iso-8859-1"?>
<!-- Generator: Adobe Illustrator 19.0.0, SVG Export Plug-In . SVG Version: 6.00 Build 0)  -->
<svg version="1.1" id="Layer_1" xmlns="http://www.w3.org/2000/svg" xmlns:xlink="http://www.w3.org/1999/xlink" x="0px" y="0px"
	 viewBox="0 0 512 512" style="enable-background:new 0 0 512 512;" xml:space="preserve">
<rect x="66.371" y="147.912" style="fill:#ffd801;" width="436.147" height="265.472"/>
<g>
	<path style="fill:#242D3C;" d="M474.076,460.8H37.926v-18.962c5.066,0,9.828-1.971,13.412-5.555
		c3.576-3.579,5.55-8.343,5.55-13.407V138.429H512v284.444c0,10.127-3.945,19.651-11.108,26.816
		C493.724,456.855,484.203,460.8,474.076,460.8z M70.789,441.838h403.287c5.066,0,9.828-1.971,13.409-5.555
		c3.576-3.579,5.553-8.343,5.553-13.407V157.391H75.85v265.482C75.85,429.637,74.092,436.132,70.789,441.838z"/>
	<path style="fill:#242D3C;" d="M37.926,460.8c-10.13,0-19.653-3.945-26.819-11.108C3.945,442.524,0,433.004,0,422.876V51.2h184.074
		l37.926,37.926H512v34.132h-18.962v-15.171H214.147l-37.924-37.926H18.962v352.712c0,5.066,1.974,9.828,5.553,13.407
		c3.584,3.584,8.343,5.555,13.412,5.555C37.926,441.836,37.926,460.8,37.926,460.8z"/>
	<rect x="94.822" y="403.917" style="fill:#242D3C;" width="379.264" height="18.964"/>
</g>
<polygon style="fill:#FFFFFF;" points="322.371,303.409 322.371,201.009 246.518,201.009 246.518,303.409 201.009,303.409 
	284.444,386.844 367.882,303.409 "/>
<g>
	<rect x="56.883" y="89.126" style="fill:#242D3C;" width="18.962" height="18.962"/>
	<rect x="94.822" y="89.126" style="fill:#242D3C;" width="18.962" height="18.962"/>
	<rect x="132.741" y="89.126" style="fill:#242D3C;" width="18.962" height="18.962"/>
</g>
<g>
</g>
<g>
</g>
<g>
</g>
<g>
</g>
<g>
</g>
<g>
</g>
<g>
</g>
<g>
</g>
<g>
</g>
<g>
</g>
<g>
</g>
<g>
</g>
<g>
</g>
<g>
</g>
<g>
</g>
</svg>
