<?xml version="1.0" encoding="iso-8859-1"?>
<!-- Generator: Adobe Illustrator 19.0.0, SVG Export Plug-In . SVG Version: 6.00 Build 0)  -->
<svg version="1.1" id="Layer_1" xmlns="http://www.w3.org/2000/svg" xmlns:xlink="http://www.w3.org/1999/xlink" x="0px" y="0px"
	 viewBox="0 0 512 512" style="enable-background:new 0 0 512 512;" xml:space="preserve">
<path style="fill:#005792;" d="M181.56,139.52c-64.333,0-116.48,52.145-116.48,116.48c0,64.33,52.145,116.475,116.48,116.475
	c64.33,0,116.48-52.145,116.48-116.475C298.04,191.667,245.891,139.52,181.56,139.52z M181.56,302.968
	c-25.938,0-46.968-21.03-46.968-46.968c0-25.943,21.028-46.968,46.968-46.968c25.938,0,46.966,21.025,46.966,46.968
	C228.529,281.938,207.498,302.968,181.56,302.968z"/>
<g>
	<rect x="172.16" y="246.605" style="fill:#242D3C;" width="18.785" height="18.785"/>
	<rect x="446.234" y="85.274" style="fill:#242D3C;" width="18.788" height="18.785"/>
	<rect x="446.234" y="404.838" style="fill:#242D3C;" width="18.788" height="18.788"/>
	<path style="fill:#242D3C;" d="M181.56,312.361c-31.076,0-56.361-25.285-56.361-56.361c0-31.078,25.285-56.361,56.361-56.361
		s56.361,25.28,56.361,56.361C237.921,287.076,212.636,312.361,181.56,312.361z M181.56,218.427
		c-20.721,0-37.573,16.852-37.573,37.573c0,20.718,16.852,37.573,37.573,37.573s37.573-16.855,37.573-37.573
		C219.136,235.279,202.281,218.427,181.56,218.427z"/>
	<path style="fill:#242D3C;" d="M455.639,151.03c-31.081,0-56.361-25.28-56.361-56.361c0-31.078,25.28-56.361,56.361-56.361
		c31.078,0,56.361,25.28,56.361,56.361C512,125.747,486.717,151.03,455.639,151.03z M455.639,57.096
		c-20.718,0-37.576,16.855-37.576,37.573s16.858,37.573,37.576,37.573s37.573-16.855,37.573-37.573S476.357,57.096,455.639,57.096z"
		/>
	<path style="fill:#242D3C;" d="M455.639,470.6c-31.081,0-56.361-25.285-56.361-56.361c0-31.078,25.28-56.364,56.361-56.364
		c31.078,0,56.361,25.285,56.361,56.364C512,445.315,486.717,470.6,455.639,470.6z M455.639,376.666
		c-20.718,0-37.576,16.852-37.576,37.576c0,20.721,16.858,37.573,37.576,37.573s37.573-16.852,37.573-37.573
		C493.212,393.518,476.357,376.666,455.639,376.666z"/>
	
		<rect x="309.934" y="64.381" transform="matrix(-0.5 -0.866 0.866 -0.5 326.1681 541.2465)" style="fill:#242D3C;" width="18.785" height="224.174"/>
	
		<rect x="207.282" y="325.743" transform="matrix(-0.8661 -0.4999 0.4999 -0.8661 426.9411 784.6436)" style="fill:#242D3C;" width="222.57" height="18.788"/>
	<polygon style="fill:#242D3C;" points="363.123,500.224 0,500.224 0,11.776 281.024,11.776 363.123,93.868 363.123,190.246 
		344.335,190.246 344.335,101.647 273.236,30.561 18.785,30.561 18.785,481.439 344.335,481.439 344.335,321.756 363.123,321.756 	
		"/>
	<polygon style="fill:#242D3C;" points="353.72,107.151 267.738,107.151 267.738,21.174 286.525,21.174 286.525,88.364 
		353.72,88.364 	"/>
	<rect x="344.346" y="209.024" style="fill:#242D3C;" width="18.788" height="18.788"/>
	<rect x="344.346" y="246.605" style="fill:#242D3C;" width="18.788" height="18.785"/>
	<rect x="344.346" y="284.186" style="fill:#242D3C;" width="18.788" height="18.788"/>
	<rect x="106.358" y="88.364" style="fill:#242D3C;" width="133.197" height="18.788"/>
	<rect x="46.968" y="88.364" style="fill:#242D3C;" width="40.604" height="18.788"/>
	<rect x="46.968" y="50.79" style="fill:#242D3C;" width="96.297" height="18.788"/>
	<rect x="46.968" y="442.317" style="fill:#242D3C;" width="143.974" height="18.788"/>
	<rect x="209.741" y="442.317" style="fill:#242D3C;" width="67.392" height="18.788"/>
	<rect x="46.968" y="404.736" style="fill:#242D3C;" width="269.184" height="18.785"/>
</g>
<g>
</g>
<g>
</g>
<g>
</g>
<g>
</g>
<g>
</g>
<g>
</g>
<g>
</g>
<g>
</g>
<g>
</g>
<g>
</g>
<g>
</g>
<g>
</g>
<g>
</g>
<g>
</g>
<g>
</g>
</svg>
