<?xml version="1.0" encoding="iso-8859-1"?>
<!-- Generator: Adobe Illustrator 19.0.0, SVG Export Plug-In . SVG Version: 6.00 Build 0)  -->
<svg version="1.1" id="Layer_1" xmlns="http://www.w3.org/2000/svg" xmlns:xlink="http://www.w3.org/1999/xlink" x="0px" y="0px"
	 viewBox="0 0 512 512" style="enable-background:new 0 0 512 512;" xml:space="preserve">
<g>
	<polygon style="fill:#242D3C;" points="325.198,512 21.38,512 21.38,0 315.949,0 402.008,86.052 402.008,129.513 382.317,129.513 
		382.317,94.205 307.795,19.692 41.071,19.692 41.071,492.308 325.198,492.308 	"/>
	<polygon style="fill:#242D3C;" points="392.155,99.976 302.025,99.976 302.025,9.853 321.719,9.853 321.719,80.282 392.155,80.282 
			"/>
</g>
<path style="fill:#005792;" d="M453.201,218.13c0,33.713-27.346,61.048-61.048,61.048c-33.7,0-61.046-27.336-61.046-61.048
	c0-33.71,27.346-61.046,61.046-61.046C425.857,157.084,453.201,184.42,453.201,218.13z"/>
<path style="fill:#FFFFFF;" d="M368.8,218.13h-19.691c0-23.731,19.31-43.039,43.044-43.039v19.692
	C379.278,194.783,368.8,205.258,368.8,218.13z"/>
<g>
	<path style="fill:#242D3C;" d="M392.155,316.593c-54.292,0-98.463-44.17-98.463-98.463s44.17-98.463,98.463-98.463
		c54.295,0,98.465,44.17,98.465,98.463S446.45,316.593,392.155,316.593z M392.155,139.361c-43.436,0-78.771,35.338-78.771,78.771
		s35.336,78.771,78.771,78.771s78.774-35.338,78.774-78.771C470.926,174.7,435.588,139.361,392.155,139.361z"/>
	<path style="fill:#242D3C;" d="M392.155,512c-9.992,0-19.387-3.894-26.458-10.957c-7.066-7.071-10.957-16.466-10.957-26.458
		V301.699h19.691v172.887c0,4.736,1.843,9.185,5.192,12.534c3.346,3.346,7.795,5.187,12.531,5.187s9.185-1.843,12.534-5.192
		c3.348-3.346,5.189-7.795,5.189-12.531V301.696h19.692v172.887c0,9.992-3.894,19.387-10.954,26.458
		C411.544,508.106,402.147,512,392.155,512z"/>
	<rect x="109.997" y="434.739" style="fill:#242D3C;" width="215.194" height="19.692"/>
	<rect x="109.997" y="395.366" style="fill:#242D3C;" width="215.194" height="19.692"/>
	<rect x="109.997" y="355.968" style="fill:#242D3C;" width="215.194" height="19.692"/>
	<rect x="109.997" y="316.595" style="fill:#242D3C;" width="215.194" height="19.692"/>
	<rect x="109.997" y="277.197" style="fill:#242D3C;" width="154.163" height="19.692"/>
	<rect x="109.997" y="237.824" style="fill:#242D3C;" width="154.163" height="19.692"/>
	<rect x="109.997" y="198.451" style="fill:#242D3C;" width="154.163" height="19.692"/>
	<rect x="109.997" y="159.053" style="fill:#242D3C;" width="154.163" height="19.692"/>
	<rect x="109.997" y="119.667" style="fill:#242D3C;" width="154.163" height="19.692"/>
</g>
<g>
	<rect x="70.611" y="434.739" style="fill:#ffd801;" width="19.692" height="19.692"/>
	<rect x="70.611" y="395.366" style="fill:#ffd801;" width="19.692" height="19.692"/>
	<rect x="70.611" y="355.968" style="fill:#ffd801;" width="19.692" height="19.692"/>
	<rect x="70.611" y="316.595" style="fill:#ffd801;" width="19.692" height="19.692"/>
	<rect x="70.611" y="277.197" style="fill:#ffd801;" width="19.692" height="19.692"/>
	<rect x="70.611" y="237.824" style="fill:#ffd801;" width="19.692" height="19.692"/>
	<rect x="70.611" y="198.451" style="fill:#ffd801;" width="19.692" height="19.692"/>
	<rect x="70.611" y="159.053" style="fill:#ffd801;" width="19.692" height="19.692"/>
	<rect x="70.611" y="119.667" style="fill:#ffd801;" width="19.692" height="19.692"/>
</g>
<g>
	<rect x="70.611" y="80.282" style="fill:#242D3C;" width="19.692" height="19.692"/>
	<rect x="109.997" y="80.282" style="fill:#242D3C;" width="19.692" height="19.692"/>
	<rect x="149.375" y="80.282" style="fill:#242D3C;" width="19.694" height="19.692"/>
</g>
<g>
</g>
<g>
</g>
<g>
</g>
<g>
</g>
<g>
</g>
<g>
</g>
<g>
</g>
<g>
</g>
<g>
</g>
<g>
</g>
<g>
</g>
<g>
</g>
<g>
</g>
<g>
</g>
<g>
</g>
</svg>
