<?xml version="1.0" encoding="iso-8859-1"?>
<!-- Generator: Adobe Illustrator 19.0.0, SVG Export Plug-In . SVG Version: 6.00 Build 0)  -->
<svg version="1.1" id="Layer_1" xmlns="http://www.w3.org/2000/svg" xmlns:xlink="http://www.w3.org/1999/xlink" x="0px" y="0px"
	 viewBox="0 0 512.005 512.005" style="enable-background:new 0 0 512.005 512.005;" xml:space="preserve">
<g>
	<polygon style="fill:#242D3C;" points="367.549,512 26.304,512 26.304,0 320.873,0 406.935,86.052 406.935,118.907 
		387.244,118.907 387.244,94.205 312.717,19.692 45.998,19.692 45.998,492.308 367.549,492.308 	"/>
	<polygon style="fill:#242D3C;" points="397.079,99.976 306.947,99.976 306.947,9.853 326.641,9.853 326.641,80.282 397.079,80.282 
			"/>
	<rect x="387.231" y="492.314" style="fill:#242D3C;" width="19.692" height="19.692"/>
	<rect x="75.538" y="80.282" style="fill:#242D3C;" width="19.692" height="19.692"/>
	<rect x="114.924" y="80.282" style="fill:#242D3C;" width="19.692" height="19.692"/>
	<rect x="154.296" y="80.282" style="fill:#242D3C;" width="19.692" height="19.692"/>
</g>
<g>
	<rect x="210.002" y="118.912" style="fill:#ffd801;" width="39.386" height="39.386"/>
	<rect x="328.172" y="118.912" style="fill:#ffd801;" width="39.386" height="39.386"/>
	<rect x="446.316" y="118.912" style="fill:#ffd801;" width="39.386" height="39.386"/>
	<rect x="170.629" y="158.292" style="fill:#ffd801;" width="39.386" height="39.386"/>
	<rect x="210.002" y="158.292" style="fill:#ffd801;" width="39.386" height="39.386"/>
	<rect x="288.773" y="158.292" style="fill:#ffd801;" width="39.388" height="39.386"/>
	<rect x="328.172" y="158.292" style="fill:#ffd801;" width="39.386" height="39.386"/>
	<rect x="406.943" y="158.292" style="fill:#ffd801;" width="39.386" height="39.386"/>
	<rect x="210.002" y="197.683" style="fill:#ffd801;" width="39.386" height="39.386"/>
	<rect x="288.773" y="197.683" style="fill:#ffd801;" width="39.388" height="39.386"/>
	<rect x="367.544" y="197.683" style="fill:#ffd801;" width="39.386" height="39.386"/>
	<rect x="446.316" y="197.683" style="fill:#ffd801;" width="39.386" height="39.386"/>
	<rect x="131.231" y="237.056" style="fill:#ffd801;" width="39.386" height="39.386"/>
	<rect x="249.4" y="237.056" style="fill:#ffd801;" width="39.383" height="39.386"/>
	<rect x="328.172" y="237.056" style="fill:#ffd801;" width="39.386" height="39.386"/>
	<rect x="170.629" y="276.454" style="fill:#ffd801;" width="39.386" height="39.386"/>
	<rect x="210.002" y="276.454" style="fill:#ffd801;" width="39.386" height="39.386"/>
	<rect x="367.544" y="276.454" style="fill:#ffd801;" width="39.386" height="39.386"/>
	<rect x="406.943" y="276.454" style="fill:#ffd801;" width="39.386" height="39.386"/>
	<rect x="446.316" y="276.454" style="fill:#ffd801;" width="39.386" height="39.386"/>
	<rect x="131.231" y="315.827" style="fill:#ffd801;" width="39.386" height="39.386"/>
	<rect x="249.4" y="315.827" style="fill:#ffd801;" width="39.383" height="39.386"/>
	<rect x="328.172" y="315.827" style="fill:#ffd801;" width="39.386" height="39.386"/>
	<rect x="367.544" y="315.827" style="fill:#ffd801;" width="39.386" height="39.386"/>
	<rect x="249.4" y="355.226" style="fill:#ffd801;" width="39.383" height="39.386"/>
	<rect x="288.773" y="355.226" style="fill:#ffd801;" width="39.388" height="39.386"/>
	<rect x="367.544" y="355.226" style="fill:#ffd801;" width="39.386" height="39.386"/>
	<rect x="210.002" y="394.598" style="fill:#ffd801;" width="39.386" height="39.386"/>
	<rect x="249.4" y="394.598" style="fill:#ffd801;" width="39.383" height="39.386"/>
	<rect x="328.172" y="394.598" style="fill:#ffd801;" width="39.386" height="39.386"/>
	<rect x="131.231" y="433.997" style="fill:#ffd801;" width="39.386" height="39.386"/>
	<rect x="249.4" y="433.997" style="fill:#ffd801;" width="39.383" height="39.386"/>
	<rect x="288.773" y="433.997" style="fill:#ffd801;" width="39.388" height="39.386"/>
	<rect x="367.544" y="433.997" style="fill:#ffd801;" width="39.386" height="39.386"/>
	<rect x="446.316" y="433.997" style="fill:#ffd801;" width="39.386" height="39.386"/>
</g>
<g>
</g>
<g>
</g>
<g>
</g>
<g>
</g>
<g>
</g>
<g>
</g>
<g>
</g>
<g>
</g>
<g>
</g>
<g>
</g>
<g>
</g>
<g>
</g>
<g>
</g>
<g>
</g>
<g>
</g>
</svg>
