<?xml version="1.0" encoding="iso-8859-1"?>
<!-- Generator: Adobe Illustrator 19.0.0, SVG Export Plug-In . SVG Version: 6.00 Build 0)  -->
<svg version="1.1" id="Layer_1" xmlns="http://www.w3.org/2000/svg" xmlns:xlink="http://www.w3.org/1999/xlink" x="0px" y="0px"
	 viewBox="0 0 512 512" style="enable-background:new 0 0 512 512;" xml:space="preserve">
<g>
	<path style="fill:#242D3C;" d="M470.246,436.017h-17.654V187.418c0-1.29-0.509-2.516-1.439-3.453
		c-0.901-0.893-2.135-1.411-3.43-1.411H337.208V164.9h110.515c5.985,0,11.633,2.337,15.913,6.582c4.28,4.311,6.61,9.956,6.61,15.936
		L470.246,436.017L470.246,436.017z"/>
	<path style="fill:#242D3C;" d="M59.412,436.017H41.759V187.418c0-5.993,2.345-11.645,6.6-15.908
		c4.224-4.255,9.882-6.61,15.921-6.61h110.513v17.654H64.279c-1.293,0-2.504,0.499-3.407,1.411c-0.95,0.952-1.459,2.171-1.459,3.453
		V436.017z"/>
</g>
<rect x="83.546" y="206.669" style="fill:#005792;" width="344.934" height="220.826"/>
<g>
	<path style="fill:#242D3C;" d="M482.703,485.755H29.289c-7.808,0-15.158-3.036-20.698-8.548C3.049,471.69,0,464.328,0,456.481
		v-29.289h512v29.289c0,7.839-3.046,15.196-8.581,20.718C497.882,482.719,490.524,485.755,482.703,485.755z M17.654,444.846v11.635
		c0,3.121,1.203,6.036,3.395,8.212c2.207,2.197,5.133,3.407,8.241,3.407h453.412c3.118,0,6.049-1.211,8.253-3.402
		c2.184-2.184,3.389-5.1,3.389-8.218v-11.635L17.654,444.846L17.654,444.846z"/>
	<path style="fill:#242D3C;" d="M150.07,173.727h-17.654c0-68.145,55.442-123.587,123.587-123.587h26.483v17.654H256
		C197.591,67.796,150.07,115.318,150.07,173.727z"/>
	<polygon style="fill:#242D3C;" points="262.241,91.692 249.759,79.209 270.001,58.97 249.759,38.728 262.241,26.245 294.966,58.97 
			"/>
	<path style="fill:#242D3C;" d="M256,297.316h-26.476V279.66H256c58.409,0,105.93-47.521,105.93-105.93h17.654
		C379.584,241.871,324.145,297.316,256,297.316z"/>
	<polygon style="fill:#242D3C;" points="249.764,321.211 217.042,288.484 249.764,255.762 262.246,268.244 242.007,288.484 
		262.246,308.728 	"/>
</g>
<circle style="fill:#ffd801;" cx="256" cy="173.727" r="52.966"/>
<path style="fill:#FFFFFF;" d="M273.654,173.727c0,9.731-7.905,17.654-17.656,17.654c-9.756,0-17.654-7.923-17.654-17.654
	s7.9-17.654,17.654-17.654C265.748,156.073,273.654,163.996,273.654,173.727z"/>
<path style="fill:#242D3C;" d="M255.997,235.52c-34.074,0-61.793-27.722-61.793-61.793s27.72-61.793,61.793-61.793
	s61.793,27.72,61.793,61.793S290.071,235.52,255.997,235.52z M255.997,129.59c-24.338,0-44.137,19.799-44.137,44.137
	s19.799,44.137,44.137,44.137s44.139-19.799,44.139-44.137S280.335,129.59,255.997,129.59z"/>
<rect x="105.933" y="351.846" style="fill:#FFFFFF;" width="300.134" height="52.964"/>
<g>
	<rect x="123.597" y="369.485" style="fill:#242D3C;" width="17.654" height="17.654"/>
	<rect x="158.899" y="369.485" style="fill:#242D3C;" width="17.654" height="17.654"/>
	<rect x="194.207" y="369.485" style="fill:#242D3C;" width="17.654" height="17.654"/>
	<rect x="229.53" y="369.485" style="fill:#242D3C;" width="17.654" height="17.654"/>
	<rect x="264.832" y="369.485" style="fill:#242D3C;" width="17.654" height="17.654"/>
</g>
<g>
</g>
<g>
</g>
<g>
</g>
<g>
</g>
<g>
</g>
<g>
</g>
<g>
</g>
<g>
</g>
<g>
</g>
<g>
</g>
<g>
</g>
<g>
</g>
<g>
</g>
<g>
</g>
<g>
</g>
</svg>
