<?xml version="1.0" encoding="iso-8859-1"?>
<!-- Generator: Adobe Illustrator 19.0.0, SVG Export Plug-In . SVG Version: 6.00 Build 0)  -->
<svg version="1.1" id="Layer_1" xmlns="http://www.w3.org/2000/svg" xmlns:xlink="http://www.w3.org/1999/xlink" x="0px" y="0px"
	 viewBox="0 0 512 512" style="enable-background:new 0 0 512 512;" xml:space="preserve">
<polygon style="fill:#005792;" points="149.578,107.011 103.462,124.746 8.868,124.746 8.868,238.262 300.936,238.262 
	300.936,107.011 "/>
<g>
	<polygon style="fill:#242D3C;" points="184.461,282.606 0,282.606 0,115.878 101.816,115.878 147.935,98.14 309.803,98.14 
		309.803,211.658 292.065,211.658 292.065,115.878 151.224,115.878 105.108,133.614 17.738,133.614 17.738,264.868 184.461,264.868 
			"/>
	<polygon style="fill:#242D3C;" points="309.803,107.011 292.065,107.011 292.065,80.404 147.935,80.404 101.816,62.666 
		17.738,62.666 17.738,98.14 0,98.14 0,44.931 105.108,44.931 151.224,62.666 309.803,62.666 	"/>
	<rect x="35.474" y="80.404" style="fill:#242D3C;" width="17.741" height="17.736"/>
	<rect x="70.948" y="80.404" style="fill:#242D3C;" width="17.741" height="17.736"/>
	<rect x="106.422" y="80.404" style="fill:#242D3C;" width="17.738" height="17.736"/>
	<rect x="35.474" y="229.402" style="fill:#242D3C;" width="148.992" height="17.736"/>
</g>
<polygon style="fill:#ffd801;" points="351.78,291.474 305.661,309.21 211.064,309.21 211.064,422.728 503.132,422.728 
	503.132,291.474 "/>
<g>
	<path style="fill:#242D3C;" d="M512,467.069H202.196V300.342h101.816l46.116-17.738H512V467.069z M219.935,449.334h274.33V300.344
		H353.421l-46.116,17.738h-87.37V449.334z"/>
	<polygon style="fill:#242D3C;" points="512,291.474 494.262,291.474 494.262,264.868 350.131,264.868 304.015,247.132 
		219.935,247.132 219.935,282.606 202.196,282.606 202.196,229.394 307.305,229.394 353.421,247.132 512,247.132 	"/>
	<rect x="237.67" y="264.858" style="fill:#242D3C;" width="17.738" height="17.738"/>
	<rect x="273.152" y="264.858" style="fill:#242D3C;" width="17.741" height="17.738"/>
	<rect x="308.608" y="264.858" style="fill:#242D3C;" width="17.738" height="17.738"/>
	<rect x="237.67" y="413.85" style="fill:#242D3C;" width="238.848" height="17.738"/>
	<path style="fill:#242D3C;" d="M512,163.768h-17.738V80.404H410.9V62.666h83.361c4.736,0,9.19,1.848,12.539,5.197
		c3.351,3.351,5.197,7.805,5.197,12.541v83.364H512z"/>
	<rect x="458.803" y="98.15" style="fill:#242D3C;" width="17.736" height="17.738"/>
	<path style="fill:#242D3C;" d="M101.1,467.069H17.738c-4.736,0-9.19-1.848-12.541-5.197C1.846,458.524,0,454.067,0,449.334V365.97
		h17.738v83.364H101.1V467.069z"/>
	<rect x="35.474" y="413.85" style="fill:#242D3C;" width="17.738" height="17.738"/>
</g>
<g>
</g>
<g>
</g>
<g>
</g>
<g>
</g>
<g>
</g>
<g>
</g>
<g>
</g>
<g>
</g>
<g>
</g>
<g>
</g>
<g>
</g>
<g>
</g>
<g>
</g>
<g>
</g>
<g>
</g>
</svg>
