<?xml version="1.0" encoding="iso-8859-1"?>
<!-- Generator: Adobe Illustrator 19.0.0, SVG Export Plug-In . SVG Version: 6.00 Build 0)  -->
<svg version="1.1" id="Layer_1" xmlns="http://www.w3.org/2000/svg" xmlns:xlink="http://www.w3.org/1999/xlink" x="0px" y="0px"
	 viewBox="0 0 511.992 511.992" style="enable-background:new 0 0 511.992 511.992;" xml:space="preserve">
<g>
	<rect x="56.146" y="123.725" style="fill:#005792;" width="399.693" height="53.294"/>
	<rect x="56.146" y="291.2" style="fill:#005792;" width="399.693" height="53.292"/>
	<rect x="56.146" y="458.701" style="fill:#005792;" width="399.693" height="53.292"/>
</g>
<g>
	<rect x="56.146" y="123.725" style="fill:#242D3C;" width="19.034" height="53.294"/>
	<rect x="446.333" y="123.725" style="fill:#242D3C;" width="19.034" height="53.294"/>
	<rect x="56.146" y="291.2" style="fill:#242D3C;" width="19.034" height="53.292"/>
	<rect x="446.333" y="291.2" style="fill:#242D3C;" width="19.034" height="53.292"/>
	<rect x="56.146" y="458.701" style="fill:#242D3C;" width="19.034" height="53.292"/>
	<rect x="446.333" y="458.701" style="fill:#242D3C;" width="19.034" height="53.292"/>
	<rect x="208.407" y="38.067" style="fill:#242D3C;" width="19.034" height="19.034"/>
	<rect x="56.146" y="38.067" style="fill:#242D3C;" width="19.034" height="19.034"/>
	<rect x="94.213" y="38.067" style="fill:#242D3C;" width="19.034" height="19.034"/>
	<rect x="132.28" y="38.067" style="fill:#242D3C;" width="19.034" height="19.034"/>
	<rect x="170.34" y="38.067" style="fill:#242D3C;" width="19.034" height="19.034"/>
	<rect x="56.146" y="76.134" style="fill:#242D3C;" width="19.034" height="19.034"/>
	<rect x="94.213" y="76.134" style="fill:#242D3C;" width="19.034" height="19.034"/>
	<rect x="132.28" y="76.134" style="fill:#242D3C;" width="19.034" height="19.034"/>
	<rect x="170.34" y="76.134" style="fill:#242D3C;" width="19.034" height="19.034"/>
	<rect x="208.407" y="76.134" style="fill:#242D3C;" width="19.034" height="19.034"/>
	<path style="fill:#242D3C;" d="M476.785,133.233H35.21c-9.446,0-17.132-7.683-17.132-17.129V17.129C18.079,7.683,25.764,0,35.21,0
		h441.574c9.446,0,17.129,7.683,17.129,17.129v98.975C493.916,125.55,486.234,133.233,476.785,133.233z M37.112,114.202h437.77
		V19.034H37.112V114.202z"/>
</g>
<g>
	<circle style="fill:#ffd801;" cx="433.021" cy="66.611" r="22.84"/>
	<circle style="fill:#ffd801;" cx="368.305" cy="66.611" r="22.84"/>
</g>
<g>
	<rect x="56.146" y="205.568" style="fill:#242D3C;" width="19.034" height="19.034"/>
	<rect x="94.213" y="205.568" style="fill:#242D3C;" width="19.034" height="19.034"/>
	<rect x="132.28" y="205.568" style="fill:#242D3C;" width="19.034" height="19.034"/>
	<rect x="170.34" y="205.568" style="fill:#242D3C;" width="19.034" height="19.034"/>
	<rect x="56.146" y="243.635" style="fill:#242D3C;" width="19.034" height="19.034"/>
	<rect x="94.213" y="243.635" style="fill:#242D3C;" width="19.034" height="19.034"/>
	<rect x="132.28" y="243.635" style="fill:#242D3C;" width="19.034" height="19.034"/>
	<rect x="170.34" y="243.635" style="fill:#242D3C;" width="19.034" height="19.034"/>
	<rect x="208.407" y="205.568" style="fill:#242D3C;" width="19.034" height="19.034"/>
	<rect x="208.407" y="243.635" style="fill:#242D3C;" width="19.034" height="19.034"/>
	<path style="fill:#242D3C;" d="M476.785,300.728H35.21c-9.446,0-17.132-7.683-17.132-17.129v-98.975
		c0-9.446,7.685-17.129,17.132-17.129h441.574c9.446,0,17.129,7.683,17.129,17.129v98.972
		C493.916,293.046,486.234,300.728,476.785,300.728z M37.112,281.695h437.77v-95.168H37.112V281.695z"/>
</g>
<g>
	<circle style="fill:#ffd801;" cx="433.021" cy="234.112" r="22.84"/>
	<circle style="fill:#ffd801;" cx="368.305" cy="234.112" r="22.84"/>
</g>
<g>
	<rect x="56.146" y="373.043" style="fill:#242D3C;" width="19.034" height="19.036"/>
	<rect x="94.213" y="373.043" style="fill:#242D3C;" width="19.034" height="19.036"/>
	<rect x="132.28" y="373.043" style="fill:#242D3C;" width="19.034" height="19.036"/>
	<rect x="170.34" y="373.043" style="fill:#242D3C;" width="19.034" height="19.036"/>
	<rect x="56.146" y="411.11" style="fill:#242D3C;" width="19.034" height="19.034"/>
	<rect x="94.213" y="411.11" style="fill:#242D3C;" width="19.034" height="19.034"/>
	<rect x="132.28" y="411.11" style="fill:#242D3C;" width="19.034" height="19.034"/>
	<rect x="170.34" y="411.11" style="fill:#242D3C;" width="19.034" height="19.034"/>
	<rect x="208.407" y="373.043" style="fill:#242D3C;" width="19.034" height="19.036"/>
	<rect x="208.407" y="411.11" style="fill:#242D3C;" width="19.034" height="19.034"/>
	<path style="fill:#242D3C;" d="M476.785,468.221H35.21c-9.446,0-17.132-7.683-17.132-17.129V352.12
		c0-9.446,7.685-17.129,17.132-17.129h441.574c9.446,0,17.129,7.683,17.129,17.129v98.972
		C493.916,460.539,486.234,468.221,476.785,468.221z M37.112,449.19h437.77v-95.168H37.112V449.19z"/>
</g>
<g>
	<circle style="fill:#ffd801;" cx="433.021" cy="401.613" r="22.84"/>
	<circle style="fill:#ffd801;" cx="368.305" cy="401.613" r="22.84"/>
</g>
<g>
</g>
<g>
</g>
<g>
</g>
<g>
</g>
<g>
</g>
<g>
</g>
<g>
</g>
<g>
</g>
<g>
</g>
<g>
</g>
<g>
</g>
<g>
</g>
<g>
</g>
<g>
</g>
<g>
</g>
</svg>
