<?xml version="1.0" encoding="iso-8859-1"?>
<!-- Generator: Adobe Illustrator 19.0.0, SVG Export Plug-In . SVG Version: 6.00 Build 0)  -->
<svg version="1.1" id="Layer_1" xmlns="http://www.w3.org/2000/svg" xmlns:xlink="http://www.w3.org/1999/xlink" x="0px" y="0px"
	 viewBox="0 0 512 512" style="enable-background:new 0 0 512 512;" xml:space="preserve">
<g>
	<path style="fill:#242D3C;" d="M310.993,512H49.304c-26.14,0-47.409-21.268-47.409-47.409V47.409C1.898,21.266,23.164,0,49.304,0
		H337.54c26.143,0,47.409,21.266,47.409,47.409v131.684h-18.962V47.409c0-15.685-12.759-28.444-28.444-28.444H49.304
		c-15.685,0-28.444,12.759-28.444,28.444v417.185c0,15.685,12.759,28.444,28.444,28.444h261.688V512z"/>
	<rect x="11.378" y="75.85" style="fill:#242D3C;" width="364.083" height="18.964"/>
	<rect x="11.378" y="417.178" style="fill:#242D3C;" width="299.622" height="18.962"/>
	<rect x="183.942" y="37.926" style="fill:#242D3C;" width="18.962" height="18.962"/>
	<rect x="155.498" y="455.117" style="fill:#242D3C;" width="75.85" height="18.964"/>
</g>
<polygon style="fill:#005792;" points="310.993,312.891 347.025,312.891 347.025,113.777 39.825,113.777 39.825,398.223 
	310.993,398.223 "/>
<circle style="fill:#FFFFFF;" cx="193.435" cy="256" r="89.126"/>
<polygon style="fill:#242D3C;" points="182.714,296.571 143.105,256.965 156.512,243.558 182.714,269.755 230.335,222.134 
	243.741,235.54 "/>
<rect x="310.99" y="455.117" style="fill:#ffd801;" width="189.619" height="47.409"/>
<g>
	<path style="fill:#242D3C;" d="M510.104,512H301.513V303.409h208.591V512z M320.477,493.038h170.665V322.371H320.477
		L320.477,493.038L320.477,493.038z"/>
	<path style="fill:#242D3C;" d="M474.077,322.371H337.542v-92.92c0-18.232,7.099-35.377,19.999-48.269
		c12.892-12.897,30.036-19.996,48.269-19.996s35.377,7.099,48.269,19.996c12.897,12.892,19.999,30.036,19.999,48.269
		L474.077,322.371L474.077,322.371z M356.504,303.409h98.609V229.45c0-13.171-5.128-25.546-14.441-34.862
		c-9.316-9.311-21.693-14.441-34.862-14.441c-13.169,0-25.546,5.128-34.862,14.441c-9.313,9.316-14.444,21.693-14.444,34.862
		V303.409z"/>
	<path style="fill:#242D3C;" d="M405.81,405.809c-15.685,0-28.444-12.759-28.444-28.444s12.759-28.444,28.444-28.444
		c15.685,0,28.444,12.759,28.444,28.444S421.495,405.809,405.81,405.809z M405.81,367.882c-5.23,0-9.482,4.25-9.482,9.48
		s4.252,9.482,9.482,9.482s9.482-4.252,9.482-9.482S411.04,367.882,405.81,367.882z"/>
	<rect x="396.315" y="396.314" style="fill:#242D3C;" width="18.964" height="30.344"/>
</g>
<g>
</g>
<g>
</g>
<g>
</g>
<g>
</g>
<g>
</g>
<g>
</g>
<g>
</g>
<g>
</g>
<g>
</g>
<g>
</g>
<g>
</g>
<g>
</g>
<g>
</g>
<g>
</g>
<g>
</g>
</svg>
