<?xml version="1.0" encoding="iso-8859-1"?>
<!-- Generator: Adobe Illustrator 19.0.0, SVG Export Plug-In . SVG Version: 6.00 Build 0)  -->
<svg version="1.1" id="Layer_1" xmlns="http://www.w3.org/2000/svg" xmlns:xlink="http://www.w3.org/1999/xlink" x="0px" y="0px"
	 viewBox="0 0 512 512" style="enable-background:new 0 0 512 512;" xml:space="preserve">
<path style="fill:#005792;" d="M218.074,98.609L180.15,60.682H9.482v362.194c0,7.281,2.778,14.559,8.333,20.109
	c5.55,5.555,12.831,8.333,20.111,8.333s14.559-2.778,20.111-8.333c5.555-5.553,8.333-12.831,8.333-20.109V147.912h436.147V98.609
	H218.074z"/>
<g>
	<path style="fill:#242D3C;" d="M474.076,460.8H37.926v-18.962c5.066,0,9.825-1.974,13.407-5.555
		c3.584-3.581,5.555-8.343,5.555-13.407V138.429H512v284.444c0,10.127-3.945,19.651-11.108,26.816
		C493.729,456.855,484.203,460.8,474.076,460.8z M70.789,441.838h403.287c5.066,0,9.828-1.974,13.409-5.555
		c3.581-3.581,5.553-8.343,5.553-13.407V157.391H75.85v265.482C75.85,429.64,74.092,436.137,70.789,441.838z"/>
	<path style="fill:#242D3C;" d="M37.926,460.8c-10.132,0-19.656-3.945-26.819-11.11C3.948,442.529,0,433.004,0,422.876V51.2h184.074
		l37.926,37.926H512v34.132h-18.962v-15.171H214.147l-37.924-37.926H18.962v352.712c0,5.066,1.971,9.825,5.555,13.407
		c3.581,3.579,8.34,5.555,13.407,5.555V460.8H37.926z"/>
	<rect x="56.883" y="89.126" style="fill:#242D3C;" width="18.962" height="18.962"/>
	<rect x="94.822" y="89.126" style="fill:#242D3C;" width="18.962" height="18.962"/>
	<rect x="132.741" y="89.126" style="fill:#242D3C;" width="18.962" height="18.962"/>
</g>
<path style="fill:#ffd801;" d="M398.223,308.237v-17.244l-24.704-5c-0.942-6.666-2.721-13.053-5.176-19.146l18.9-16.681
	l-8.479-14.874l-23.964,8.033c-4.234-5.161-8.891-9.856-14.067-14.049l8.054-23.967l-14.879-8.532l-16.678,18.959
	c-6.131-2.412-12.454-4.145-19.113-5.125l-5.069-24.829h-17.149l-5.071,24.829c-6.625,0.96-12.979,2.716-19.105,5.125
	l-16.668-18.959l-14.92,8.535l8.067,23.982c-5.148,4.211-9.884,8.873-14.036,14.034l-23.951-8.033l-8.589,14.874l18.97,16.717
	c-2.419,6.103-4.142,12.442-5.156,19.077l-24.771,5.033l0.067,17.244l24.704,4.992c1.021,6.653,2.747,12.984,5.171,19.11
	l-18.985,16.73l8.589,14.876l23.951-8.115c4.152,5.199,8.888,9.892,14.052,14.067l-8.082,23.985l14.917,8.555l16.668-18.962
	c6.103,2.371,12.465,4.104,19.098,5.151l5.079,24.819h17.149l5.069-24.822c6.666-1.075,13.005-2.801,19.113-5.161l16.678,18.975
	l14.879-8.556l-8.067-23.974c5.189-4.186,9.846-8.847,14.08-14.054l23.964,8.092l8.479-14.876l-18.9-16.681
	c2.458-6.136,4.234-12.508,5.176-19.167L398.223,308.237z M284.454,346.616c-25.948,0-46.958-21.048-46.958-47.009
	c0-25.948,21.012-47.007,46.958-47.007c25.946,0,46.996,21.061,46.996,47.007C331.453,325.571,310.403,346.616,284.454,346.616z"/>
<path style="fill:#242D3C;" d="M284.454,356.101c-31.122,0-56.44-25.339-56.44-56.492c0-31.147,25.318-56.489,56.44-56.489
	c31.145,0,56.479,25.341,56.479,56.489C340.933,330.76,315.599,356.101,284.454,356.101z M284.454,262.083
	c-20.664,0-37.478,16.832-37.478,37.524s16.812,37.53,37.478,37.53c20.685,0,37.514-16.837,37.514-37.53
	S305.139,262.083,284.454,262.083z"/>
<g>
</g>
<g>
</g>
<g>
</g>
<g>
</g>
<g>
</g>
<g>
</g>
<g>
</g>
<g>
</g>
<g>
</g>
<g>
</g>
<g>
</g>
<g>
</g>
<g>
</g>
<g>
</g>
<g>
</g>
</svg>
