<?xml version="1.0" encoding="iso-8859-1"?>
<!-- Generator: Adobe Illustrator 19.0.0, SVG Export Plug-In . SVG Version: 6.00 Build 0)  -->
<svg version="1.1" id="Layer_1" xmlns="http://www.w3.org/2000/svg" xmlns:xlink="http://www.w3.org/1999/xlink" x="0px" y="0px"
	 viewBox="0 0 512 512" style="enable-background:new 0 0 512 512;" xml:space="preserve">
<path style="fill:#005792;" d="M411.036,173.678c-2.289,0-4.882,0.172-7.869,0.507l-23.383,2.701l-5.514-22.915
	c-13.14-54.871-61.783-93.207-118.272-93.207c-56.471,0-105.132,38.344-118.333,93.228l-5.517,22.93l-23.416-2.742
	c-2.916-0.328-5.458-0.499-7.741-0.499c-35.978,0-65.265,29.271-65.265,65.257c0,35.955,29.286,65.229,65.265,65.229H128v-64.087
	c0-4.593,1.764-9.293,5.368-12.836c3.535-3.663,8.251-5.43,12.897-5.43h27.461h45.678v-18.263h109.788v18.263h18.273L384,258.363
	v45.801h27.036c35.965,0,65.239-29.274,65.239-65.229C476.275,202.949,446.999,173.678,411.036,173.678z"/>
<path style="fill:#FFFFFF;" d="M183.657,165.053l-17.779-4.278c10.061-41.792,47.114-70.984,90.117-70.984v18.286
	C221.478,108.078,191.734,131.507,183.657,165.053z"/>
<path style="fill:#242D3C;" d="M411.036,339.878v-18.286c45.591,0,82.68-37.076,82.68-82.657c0-45.604-37.089-82.708-82.68-82.708
	c-2.926,0-6.144,0.21-9.843,0.64l-8.059,0.937l-1.889-7.89C376.228,87.158,320.609,43.328,255.997,43.328
	c-64.571,0-120.205,43.832-135.288,106.593l-1.897,7.892l-8.061-0.947c-3.651-0.43-6.845-0.64-9.764-0.64
	c-45.601,0-82.701,37.105-82.701,82.708c0,45.578,37.1,82.657,82.701,82.657v18.286C45.299,339.878,0,294.597,0,238.935
	c0-55.69,45.299-100.995,100.987-100.995c1.285,0,2.606,0.033,3.971,0.095c19.599-66.918,80.622-112.993,151.04-112.993
	c70.464,0,131.471,46.075,151.007,112.996c1.388-0.064,2.729-0.097,4.032-0.097C466.708,137.94,512,183.245,512,238.935
	C512,294.597,466.708,339.878,411.036,339.878z"/>
<path style="fill:#ffd801;" d="M173.724,221.814v64c0,4.844,1.938,9.562,5.445,13.064c3.528,3.407,8.087,5.286,12.828,5.286h27.405
	v-82.35H173.724z"/>
<g>
	<rect x="146.253" y="212.685" style="fill:#242D3C;" width="73.139" height="18.286"/>
	<path style="fill:#242D3C;" d="M365.734,486.958H146.263c-7.227,0-14.285-2.906-19.356-7.964
		c-5.207-5.289-8.051-12.175-8.051-19.443V240.079c0-7.24,2.949-14.292,8.1-19.354c4.951-5.133,11.863-8.054,19.308-8.054v18.286
		c-1.411,0-4.106,0.343-6.318,2.634c-1.843,1.815-2.803,4.119-2.803,6.487v219.471c0,2.473,0.947,4.736,2.737,6.554
		c1.618,1.613,3.963,2.57,6.385,2.57h219.471c2.468,0,4.756-0.947,6.615-2.737c1.564-1.62,2.506-3.907,2.506-6.385V262.154
		l-31.183-31.194H329.19v-18.286h22.06l41.889,41.907v204.972c0,7.217-2.801,14.085-7.882,19.333
		C379.779,484.168,372.925,486.958,365.734,486.958z"/>
</g>
<rect x="182.861" y="368.077" style="fill:#ffd801;" width="146.33" height="109.737"/>
<g>
	<path style="fill:#242D3C;" d="M338.335,486.958H173.724V358.935h164.611V486.958z M192.01,468.672h128.038v-91.451H192.01V468.672
		z"/>
	<rect x="146.278" y="432.154" style="fill:#242D3C;" width="18.286" height="18.286"/>
	<rect x="347.469" y="432.154" style="fill:#242D3C;" width="18.286" height="18.286"/>
</g>
<g>
	<rect x="210.253" y="395.597" style="fill:#FFFFFF;" width="91.471" height="18.286"/>
	<rect x="210.253" y="432.179" style="fill:#FFFFFF;" width="91.471" height="18.286"/>
</g>
<g>
	<path style="fill:#242D3C;" d="M320,304.164H210.26V194.406h128.074v91.407c0,4.808-1.964,9.528-5.386,12.951
		C329.482,302.208,324.772,304.164,320,304.164z M228.547,285.878h91.364l0.125-73.185h-91.489V285.878z"/>
	<rect x="283.392" y="231.014" style="fill:#242D3C;" width="18.289" height="36.529"/>
</g>
<g>
</g>
<g>
</g>
<g>
</g>
<g>
</g>
<g>
</g>
<g>
</g>
<g>
</g>
<g>
</g>
<g>
</g>
<g>
</g>
<g>
</g>
<g>
</g>
<g>
</g>
<g>
</g>
<g>
</g>
</svg>
