<?xml version="1.0" encoding="iso-8859-1"?>
<!-- Generator: Adobe Illustrator 19.0.0, SVG Export Plug-In . SVG Version: 6.00 Build 0)  -->
<svg version="1.1" id="Layer_1" xmlns="http://www.w3.org/2000/svg" xmlns:xlink="http://www.w3.org/1999/xlink" x="0px" y="0px"
	 viewBox="0 0 512 512" style="enable-background:new 0 0 512 512;" xml:space="preserve">
<g>
	<polygon style="fill:#005792;" points="244.948,127.493 267.049,127.493 281.784,156.961 230.216,156.961 	"/>
	<polygon style="fill:#005792;" points="332.79,145.106 351.931,156.155 349.955,189.048 305.298,163.264 	"/>
	<polygon style="fill:#005792;" points="400.054,204.285 411.105,223.424 392.95,250.921 367.165,206.257 	"/>
	<polygon style="fill:#005792;" points="428.718,289.167 428.718,311.26 399.247,326.003 399.247,274.424 	"/>
	<polygon style="fill:#005792;" points="411.098,377.004 400.051,396.14 367.163,394.171 392.947,349.504 	"/>
	<polygon style="fill:#005792;" points="351.923,444.265 332.787,455.314 305.29,437.164 349.952,411.377 	"/>
	<polygon style="fill:#005792;" points="267.041,472.927 244.948,472.927 230.208,443.459 281.782,443.459 	"/>
	<polygon style="fill:#005792;" points="179.205,455.306 160.069,444.257 162.04,411.372 206.705,437.164 	"/>
	<polygon style="fill:#005792;" points="111.946,396.132 100.9,376.996 119.045,349.499 144.832,394.163 	"/>
	<polygon style="fill:#005792;" points="83.287,311.252 83.282,289.16 112.75,274.417 112.745,325.996 	"/>
	<polygon style="fill:#005792;" points="100.902,223.424 111.949,204.285 144.84,206.249 119.045,250.913 	"/>
	<polygon style="fill:#005792;" points="160.077,156.163 179.21,145.114 206.712,163.264 162.043,189.041 	"/>
	<path style="fill:#005792;" d="M256,152.868c-81.362,0-147.343,66.002-147.343,147.343S174.638,447.544,256,447.544
		c81.344,0,147.343-65.994,147.343-147.336S337.344,152.868,256,152.868z M256,355.456c-30.51,0-55.252-24.74-55.252-55.245
		c0-30.505,24.742-55.255,55.252-55.255c30.505,0,55.252,24.748,55.252,55.252C311.252,330.714,286.505,355.456,256,355.456z"/>
</g>
<g>
	<path style="fill:#242D3C;" d="M256,512c-116.787,0-211.796-95.012-211.796-211.796c0-116.78,95.009-211.789,211.796-211.789
		c116.785,0,211.796,95.009,211.796,211.789C467.796,416.988,372.785,512,256,512z M256,106.829
		c-106.629,0-193.38,86.748-193.38,193.372c0,106.629,86.751,193.38,193.38,193.38s193.38-86.751,193.38-193.38
		C449.38,193.577,362.629,106.829,256,106.829z"/>
	
		<rect x="403.075" y="125.51" transform="matrix(-0.7071 -0.7071 0.7071 -0.7071 602.0347 537.2401)" style="fill:#242D3C;" width="18.416" height="36.848"/>
	
		<rect x="397.651" y="121.71" transform="matrix(-0.7071 -0.7071 0.7071 -0.7071 633.4241 524.2089)" style="fill:#242D3C;" width="55.257" height="18.416"/>
	
		<rect x="81.312" y="134.716" transform="matrix(-0.7071 -0.7071 0.7071 -0.7071 68.4908 316.2217)" style="fill:#242D3C;" width="36.851" height="18.419"/>
	
		<rect x="77.505" y="103.273" transform="matrix(-0.7071 -0.7071 0.7071 -0.7071 55.4688 284.774)" style="fill:#242D3C;" width="18.416" height="55.252"/>
	<rect x="246.784" y="34.993" style="fill:#242D3C;" width="18.419" height="62.628"/>
	<path style="fill:#242D3C;" d="M296.52,69.988H215.48c-9.347,0-18.138-3.64-24.748-10.253
		c-6.607-6.612-10.248-15.398-10.248-24.742s3.64-18.138,10.245-24.748C197.35,3.635,206.139,0,215.48,0h81.039
		c9.339,0,18.13,3.635,24.74,10.24c6.615,6.615,10.253,15.409,10.253,24.753c0,9.341-3.638,18.13-10.245,24.742
		C314.652,66.348,305.866,69.988,296.52,69.988z M215.48,18.417c-4.429,0-8.589,1.723-11.727,4.854
		c-3.123,3.131-4.849,7.296-4.849,11.725c0,4.426,1.725,8.586,4.856,11.72c3.131,3.131,7.291,4.856,11.72,4.856h81.039
		c4.426,0,8.589-1.725,11.722-4.856c3.131-3.133,4.854-7.296,4.854-11.72c0-4.429-1.723-8.594-4.854-11.727
		c-3.128-3.126-7.293-4.849-11.72-4.849H215.48V18.417z"/>
	<path style="fill:#242D3C;" d="M256,331.512c-17.267,0-31.309-14.047-31.309-31.309c0-17.262,14.044-31.309,31.309-31.309
		c17.262,0,31.309,14.047,31.309,31.309C287.309,317.466,273.262,331.512,256,331.512z M256,287.309
		c-7.107,0-12.892,5.786-12.892,12.892c0,7.107,5.786,12.892,12.892,12.892s12.892-5.786,12.892-12.892
		C268.892,293.094,263.107,287.309,256,287.309z"/>
	<rect x="278.093" y="290.995" style="fill:#242D3C;" width="70.513" height="18.417"/>
	<rect x="246.784" y="170.752" style="fill:#242D3C;" width="18.419" height="18.417"/>
	
		<rect x="306.908" y="186.868" transform="matrix(-0.866 -0.5 0.5 -0.866 491.838 523.9429)" style="fill:#242D3C;" width="18.416" height="18.416"/>
	
		<rect x="350.917" y="230.876" transform="matrix(-0.4999 -0.8661 0.8661 -0.4999 332.2172 672.0016)" style="fill:#242D3C;" width="18.419" height="18.417"/>
	<rect x="367.027" y="290.995" style="fill:#242D3C;" width="18.417" height="18.417"/>
	
		<rect x="350.903" y="351.111" transform="matrix(-0.866 -0.5001 0.5001 -0.866 491.7715 852.4345)" style="fill:#242D3C;" width="18.42" height="18.417"/>
	
		<rect x="306.879" y="395.104" transform="matrix(-0.4999 -0.8661 0.8661 -0.4999 123.9256 880.1862)" style="fill:#242D3C;" width="18.417" height="18.419"/>
	<rect x="246.81" y="411.238" style="fill:#242D3C;" width="18.417" height="18.417"/>
	
		<rect x="186.714" y="395.123" transform="matrix(-0.8661 -0.4999 0.4999 -0.8661 163.4856 852.4584)" style="fill:#242D3C;" width="18.417" height="18.417"/>
	
		<rect x="142.675" y="351.12" transform="matrix(-0.5 -0.866 0.866 -0.5 -84.2246 672.0305)" style="fill:#242D3C;" width="18.416" height="18.416"/>
	<rect x="126.566" y="290.995" style="fill:#242D3C;" width="18.417" height="18.419"/>
	
		<rect x="142.666" y="230.876" transform="matrix(-0.866 -0.5 0.5 -0.866 163.3544 523.941)" style="fill:#242D3C;" width="18.416" height="18.416"/>
	
		<rect x="186.676" y="186.867" transform="matrix(-0.5 -0.866 0.866 -0.5 124.0227 463.7545)" style="fill:#242D3C;" width="18.416" height="18.416"/>
</g>
<g>
</g>
<g>
</g>
<g>
</g>
<g>
</g>
<g>
</g>
<g>
</g>
<g>
</g>
<g>
</g>
<g>
</g>
<g>
</g>
<g>
</g>
<g>
</g>
<g>
</g>
<g>
</g>
<g>
</g>
</svg>
