<?xml version="1.0" encoding="iso-8859-1"?>
<!-- Generator: Adobe Illustrator 19.0.0, SVG Export Plug-In . SVG Version: 6.00 Build 0)  -->
<svg version="1.1" id="Layer_1" xmlns="http://www.w3.org/2000/svg" xmlns:xlink="http://www.w3.org/1999/xlink" x="0px" y="0px"
	 viewBox="0 0 512 512" style="enable-background:new 0 0 512 512;" xml:space="preserve">
<path style="fill:#ffd801;" d="M327.667,176.365c-8.151,0-16.3-3.105-22.52-9.329c-6.221-6.216-9.334-14.372-9.334-22.523V80.808
	c0-8.151,3.113-16.307,9.334-22.52c6.221-6.223,14.369-9.329,22.52-9.329H439.15v127.406H327.667z"/>
<g>
	<rect x="439.142" y="103.528" style="fill:#242D3C;" width="63.708" height="18.286"/>
	<polygon style="fill:#242D3C;" points="512,169.588 439.15,169.588 439.15,151.302 493.714,151.302 493.714,74.029 439.15,74.029 
		439.15,55.743 512,55.743 	"/>
	<path style="fill:#242D3C;" d="M448.292,185.509H327.667c-10.949,0-21.243-4.265-28.984-12.006
		c-7.747-7.739-12.009-18.033-12.009-28.987V80.808c0-10.954,4.262-21.245,12.009-28.989c7.741-7.739,18.035-12.004,28.984-12.004
		h120.625V185.509z M327.667,58.1c-6.065,0-11.768,2.36-16.056,6.651c-4.288,4.288-6.653,9.992-6.653,16.056v63.706
		c0,6.065,2.365,11.768,6.653,16.054c4.291,4.293,9.992,6.653,16.056,6.653h102.341V58.1H327.667z"/>
	<rect x="393.446" y="74.267" style="fill:#242D3C;" width="18.289" height="76.8"/>
	<rect x="356.864" y="74.267" style="fill:#242D3C;" width="18.286" height="76.8"/>
	<path style="fill:#242D3C;" d="M295.816,145.693h-23.887c-4.562,0-8.855-1.774-12.088-5c-3.244-3.246-5.018-7.542-5.018-12.106
		V96.739c0-4.575,1.782-8.873,5.018-12.101c3.213-3.226,7.514-5.007,12.088-5.007h23.887v18.286h-22.707v29.494h22.707V145.693z"/>
</g>
<path style="fill:#005792;" d="M184.333,335.628c8.151,0,16.299,3.116,22.518,9.336c6.221,6.208,9.336,14.369,9.336,22.513v63.708
	c0,8.151-3.116,16.307-9.336,22.523c-6.218,6.221-14.367,9.334-22.518,9.334H72.85V335.628L184.333,335.628L184.333,335.628z"/>
<g>
	<rect x="9.142" y="390.196" style="fill:#242D3C;" width="63.708" height="18.286"/>
	<polygon style="fill:#242D3C;" points="72.85,456.26 0,456.26 0,342.417 72.85,342.417 72.85,360.7 18.286,360.7 18.286,437.974 
		72.85,437.974 	"/>
	<path style="fill:#242D3C;" d="M184.333,472.186H63.708v-145.7h120.625c10.947,0,21.238,4.268,28.984,12.014
		c7.744,7.726,12.012,18.022,12.012,28.977v63.708c0,10.954-4.268,21.251-12.017,28.989
		C205.571,467.918,195.279,472.186,184.333,472.186z M81.992,453.902h102.341c6.06,0,11.761-2.365,16.051-6.659
		c4.296-4.291,6.661-9.992,6.661-16.056v-63.708c0-6.062-2.36-11.763-6.651-16.044c-4.301-4.301-9.999-6.664-16.059-6.664H81.992
		V453.902z"/>
	<rect x="136.858" y="360.936" style="fill:#242D3C;" width="18.286" height="76.8"/>
	<rect x="100.275" y="360.936" style="fill:#242D3C;" width="18.286" height="76.8"/>
	<path style="fill:#242D3C;" d="M240.072,432.367h-23.885v-18.289h22.707v-29.494h-22.707v-18.286h23.885
		c4.575,0,8.876,1.782,12.104,5.023c3.228,3.231,5.005,7.524,5.005,12.086v31.857c0,4.559-1.774,8.852-5.005,12.086
		C248.929,430.591,244.636,432.367,240.072,432.367z"/>
	<path style="fill:#242D3C;" d="M399.334,408.48H248.036v-18.286h151.299c16.694,0,32.392-6.502,44.209-18.314
		c11.814-11.804,18.317-27.51,18.317-44.214c0-16.699-6.508-32.399-18.317-44.214c-11.814-11.802-27.515-18.307-44.209-18.307
		H112.663c-21.576,0-41.866-8.407-57.134-23.672c-15.268-15.26-23.68-35.553-23.68-57.142c0-21.583,8.412-41.874,23.68-57.142
		c15.263-15.26,35.553-23.665,57.134-23.665h151.301v18.286H112.663c-16.696,0-32.397,6.505-44.206,18.307
		c-11.814,11.814-18.322,27.52-18.322,44.214c0,16.704,6.508,32.404,18.322,44.211c11.814,11.814,27.515,18.319,44.206,18.319
		h286.671c21.576,0,41.866,8.404,57.132,23.66c15.273,15.268,23.68,35.566,23.68,57.147c0,21.588-8.407,41.884-23.675,57.144
		C441.203,400.073,420.91,408.48,399.334,408.48z"/>
	<path style="fill:#242D3C;" d="M112.663,228.573c-24.397,0-44.242-19.845-44.242-44.242c0-24.392,19.845-44.237,44.242-44.237
		v18.286c-14.313,0-25.956,11.643-25.956,25.951c0,14.313,11.643,25.958,25.956,25.958V228.573z"/>
	<path style="fill:#242D3C;" d="M399.286,371.908v-18.286c14.308,0,25.951-11.645,25.951-25.958
		c0-14.308-11.643-25.951-25.951-25.951v-18.289c24.392,0,44.237,19.845,44.237,44.237
		C443.523,352.06,423.677,371.908,399.286,371.908z"/>
	<rect x="380.979" y="318.516" style="fill:#242D3C;" width="18.294" height="18.286"/>
	<rect x="344.422" y="318.516" style="fill:#242D3C;" width="18.276" height="18.286"/>
	<rect x="307.866" y="318.516" style="fill:#242D3C;" width="18.286" height="18.286"/>
	<rect x="185.805" y="175.182" style="fill:#242D3C;" width="18.289" height="18.286"/>
	<rect x="149.222" y="175.182" style="fill:#242D3C;" width="18.289" height="18.286"/>
	<rect x="112.666" y="175.182" style="fill:#242D3C;" width="18.286" height="18.286"/>
</g>
<g>
</g>
<g>
</g>
<g>
</g>
<g>
</g>
<g>
</g>
<g>
</g>
<g>
</g>
<g>
</g>
<g>
</g>
<g>
</g>
<g>
</g>
<g>
</g>
<g>
</g>
<g>
</g>
<g>
</g>
</svg>
