<?xml version="1.0" encoding="iso-8859-1"?>
<!-- Generator: Adobe Illustrator 19.0.0, SVG Export Plug-In . SVG Version: 6.00 Build 0)  -->
<svg version="1.1" id="Layer_1" xmlns="http://www.w3.org/2000/svg" xmlns:xlink="http://www.w3.org/1999/xlink" x="0px" y="0px"
	 viewBox="0 0 512 512" style="enable-background:new 0 0 512 512;" xml:space="preserve">
<path style="fill:#242D3C;" d="M256.008,512l-4.841-2.796C113.731,429.701,28.355,281.795,28.355,123.197v-9.669h9.669
	c57.275,0,103.872-46.595,103.872-103.862V0h228.239v9.669c0,57.267,46.582,103.862,103.841,103.862h9.669v9.669
	c0,158.618-85.373,306.527-222.797,386.007L256.008,512z M47.793,132.483c3.218,146.322,82.237,282.022,208.215,357.135
	c125.972-75.09,204.982-210.798,208.2-357.135c-60.183-4.744-108.337-52.943-113.034-113.147H160.858
	C156.16,79.539,107.991,127.739,47.793,132.483z"/>
<path style="fill:#ffd801;" d="M329.344,45.03h-146.66c-13.043,53.356-54.915,95.521-108.099,108.995
	c9.636,123.843,76.884,237.358,181.422,305.334c104.52-67.96,171.773-181.491,181.407-305.334
	C384.246,140.544,342.382,98.378,329.344,45.03z M256,320.96c-48.835,0-88.412-39.58-88.412-88.415
	c0-48.832,39.578-88.407,88.412-88.407s88.407,39.575,88.407,88.407C344.407,281.38,304.835,320.96,256,320.96z"/>
<g>
	<path style="fill:#242D3C;" d="M261.901,277.302h-11.745c-7.217,0-14.039-2.811-19.205-7.91
		c-5.179-5.266-7.969-12.081-7.969-19.287h19.336c0,2.107,0.824,4.106,2.319,5.627c1.421,1.398,3.418,2.23,5.519,2.23h11.745
		c2.058,0,4.122-0.865,5.673-2.376c1.725-1.741,2.109-3.95,2.109-5.481c0-1.262-0.282-3.663-2.184-5.558
		c-1.487-1.454-3.551-2.322-5.601-2.322h-11.745c-7.229,0-14.054-2.819-19.215-7.933c-5.153-5.189-7.956-12.022-7.956-19.287
		c0-7.173,2.783-13.972,7.841-19.156c5.284-5.22,12.106-8.026,19.333-8.026h11.745c7.173,0,13.98,2.796,19.174,7.862
		c5.171,5.235,7.946,12.05,7.946,19.318h-19.338c0-1.523-0.387-3.732-2.243-5.609c-1.411-1.372-3.474-2.237-5.54-2.237h-11.745
		c-2.107,0-4.106,0.827-5.619,2.324c-1.388,1.421-2.217,3.425-2.217,5.522c0,2.13,0.812,4.124,2.286,5.609
		c1.459,1.446,3.453,2.273,5.553,2.273h11.745c7.071,0,14.06,2.88,19.19,7.905c5.133,5.115,7.931,11.948,7.931,19.313
		c0,7.301-2.783,14.126-7.841,19.218C275.945,274.429,268.956,277.302,261.901,277.302z"/>
	<rect x="246.349" y="179.507" style="fill:#242D3C;" width="19.338" height="17.997"/>
	<rect x="246.349" y="267.622" style="fill:#242D3C;" width="19.338" height="17.971"/>
	<path style="fill:#242D3C;" d="M256,330.629c-54.08,0-98.081-44.001-98.081-98.084c0-54.077,44.001-98.076,98.081-98.076
		s98.076,44.001,98.076,98.076C354.076,286.63,310.08,330.629,256,330.629z M256,153.807c-43.418,0-78.743,35.32-78.743,78.738
		c0,43.42,35.325,78.748,78.743,78.748s78.738-35.328,78.738-78.748S299.418,153.807,256,153.807z"/>
</g>
<g>
</g>
<g>
</g>
<g>
</g>
<g>
</g>
<g>
</g>
<g>
</g>
<g>
</g>
<g>
</g>
<g>
</g>
<g>
</g>
<g>
</g>
<g>
</g>
<g>
</g>
<g>
</g>
<g>
</g>
</svg>
