<?xml version="1.0" encoding="iso-8859-1"?>
<!-- Generator: Adobe Illustrator 19.0.0, SVG Export Plug-In . SVG Version: 6.00 Build 0)  -->
<svg version="1.1" id="Layer_1" xmlns="http://www.w3.org/2000/svg" xmlns:xlink="http://www.w3.org/1999/xlink" x="0px" y="0px"
	 viewBox="0 0 512 512" style="enable-background:new 0 0 512 512;" xml:space="preserve">
<polygon style="fill:#005792;" points="115.277,332.035 115.277,437.207 396.728,437.207 396.728,187.018 334.177,285.005 
	287.286,253.85 224.74,324.28 177.815,277.371 "/>
<g>
	<rect x="246.144" y="32.468" style="fill:#242D3C;" width="19.692" height="19.692"/>
	<rect x="218.598" y="459.827" style="fill:#242D3C;" width="74.778" height="19.692"/>
	<path style="fill:#242D3C;" d="M390.472,512H121.546c-30.769,0-55.803-25.006-55.803-55.736V55.793
		C65.743,25.027,90.778,0,121.546,0h268.925c30.764,0,55.785,25.027,55.785,55.793v400.471C446.257,486.994,421.235,512,390.472,512
		z M121.546,19.692c-19.912,0-36.111,16.197-36.111,36.101v400.471c0,19.876,16.2,36.045,36.111,36.045h268.925
		c19.899,0,36.093-16.169,36.093-36.045V55.793c0-19.904-16.192-36.101-36.093-36.101C390.472,19.692,121.546,19.692,121.546,19.692
		z"/>
	<path style="fill:#242D3C;" d="M406.572,447.055h-301.14V64.947h301.14V447.055z M125.123,427.361H386.88V84.639H125.123V427.361z"
		/>
	<polygon style="fill:#242D3C;" points="121.759,339.446 108.797,324.623 178.268,263.895 224.315,309.929 285.604,240.911 
		331.272,271.255 388.426,181.722 405.028,192.315 337.08,298.755 288.965,266.788 225.162,338.629 177.362,290.842 	"/>
	<rect x="175.258" y="120.015" style="fill:#242D3C;" width="161.485" height="19.692"/>
	<rect x="175.258" y="159.411" style="fill:#242D3C;" width="80.74" height="19.692"/>
</g>
<g>
</g>
<g>
</g>
<g>
</g>
<g>
</g>
<g>
</g>
<g>
</g>
<g>
</g>
<g>
</g>
<g>
</g>
<g>
</g>
<g>
</g>
<g>
</g>
<g>
</g>
<g>
</g>
<g>
</g>
</svg>
