<?xml version="1.0" encoding="iso-8859-1"?>
<!-- Generator: Adobe Illustrator 19.0.0, SVG Export Plug-In . SVG Version: 6.00 Build 0)  -->
<svg version="1.1" id="Layer_1" xmlns="http://www.w3.org/2000/svg" xmlns:xlink="http://www.w3.org/1999/xlink" x="0px" y="0px"
	 viewBox="0 0 512 512" style="enable-background:new 0 0 512 512;" xml:space="preserve">
<circle style="fill:#005792;" cx="256" cy="256" r="106.491"/>
<g>
	<path style="fill:#242D3C;" d="M263.514,310.925h-14.968c-8.65,0-16.827-3.361-23.009-9.475c-6.185-6.28-9.536-14.441-9.536-23.084
		h20.48c0,3.233,1.265,6.29,3.551,8.609c2.227,2.199,5.286,3.469,8.515,3.469h14.968c3.162,0,6.323-1.318,8.668-3.604
		c2.107-2.12,3.323-5.164,3.323-8.476c0-3.341-1.203-6.38-3.392-8.556c-2.291-2.245-5.443-3.566-8.596-3.566h-14.968
		c-8.658,0-16.835-3.374-23.02-9.508c-6.164-6.203-9.528-14.387-9.528-23.099c0-8.591,3.343-16.745,9.416-22.95
		c6.303-6.231,14.474-9.595,23.13-9.595h14.968c8.468,0,16.842,3.441,22.979,9.431c6.167,6.241,9.492,14.4,9.492,23.114h-20.48
		c0-2.327-0.594-5.706-3.453-8.596c-2.214-2.161-5.376-3.471-8.538-3.471h-14.968c-3.231,0-6.292,1.265-8.612,3.561
		c-2.184,2.232-3.456,5.299-3.456,8.507c0,3.267,1.252,6.323,3.52,8.612c2.273,2.248,5.33,3.517,8.548,3.517h14.968
		c8.468,0,16.842,3.451,22.986,9.467c6.136,6.108,9.485,14.303,9.485,23.132c0,8.763-3.336,16.937-9.388,23.022
		C280.351,307.489,271.974,310.925,263.514,310.925z"/>
	<rect x="245.76" y="188.416" style="fill:#242D3C;" width="20.48" height="22.915"/>
	<rect x="245.76" y="300.672" style="fill:#242D3C;" width="20.48" height="22.894"/>
	<path style="fill:#242D3C;" d="M429.775,444.303l-65.564-65.585l7.247-7.235c30.868-30.835,47.867-71.841,47.867-115.466v-10.24
		h92.662v10.24c0,68.393-26.627,132.69-74.967,181.043L429.775,444.303z M392.983,378.534l36.639,36.649
		c37.686-41.037,59.31-93.253,61.673-148.931h-51.771C437.243,308.106,420.974,347.341,392.983,378.534z"/>
	<path style="fill:#242D3C;" d="M184.067,109.059l-35.438-85.555l9.411-3.945C189.038,6.584,221.978,0,255.941,0h10.24v92.692
		L255.949,92.7c-21.55,0.015-42.55,4.201-62.42,12.434L184.067,109.059z M175.439,34.719l19.814,47.839
		c16.287-5.724,33.185-9.088,50.445-10.048V20.695C221.509,21.732,197.96,26.432,175.439,34.719z"/>
</g>
<path style="fill:#005792;" d="M411.092,204.815h95.688C486.359,104.653,407.316,25.559,307.133,5.161v95.785
	C356.101,117.13,394.883,155.873,411.092,204.815z"/>
<path style="fill:#ffd801;" d="M329.446,401.884c-22.505,11.374-47.514,17.434-73.459,17.434c-90.056,0-163.32-73.27-163.32-163.325
	c0-48.509,21.294-93.189,56.717-123.638l-36.652-88.489C42.99,90.744,0.013,169.516,0.013,256.049
	C0.013,397.181,114.819,512,255.941,512c51.026,0,99.753-14.799,141.284-42.324L329.446,401.884z"/>
<g>
</g>
<g>
</g>
<g>
</g>
<g>
</g>
<g>
</g>
<g>
</g>
<g>
</g>
<g>
</g>
<g>
</g>
<g>
</g>
<g>
</g>
<g>
</g>
<g>
</g>
<g>
</g>
<g>
</g>
</svg>
