<?xml version="1.0" encoding="iso-8859-1"?>
<!-- Generator: Adobe Illustrator 19.0.0, SVG Export Plug-In . SVG Version: 6.00 Build 0)  -->
<svg version="1.1" id="Layer_1" xmlns="http://www.w3.org/2000/svg" xmlns:xlink="http://www.w3.org/1999/xlink" x="0px" y="0px"
	 viewBox="0 0 512 512" style="enable-background:new 0 0 512 512;" xml:space="preserve">
<g>
	<path style="fill:#242D3C;" d="M93.645,505.674H0v-56.425h93.645V505.674z M19.205,486.469h55.232v-18.012H19.205V486.469z"/>
	<path style="fill:#242D3C;" d="M93.645,468.457H0v-56.425h93.645V468.457z M19.205,449.249h55.232v-18.012H19.205V449.249z"/>
	<path style="fill:#242D3C;" d="M93.645,431.237H0v-56.433h93.645V431.237z M19.205,412.032h55.232v-18.02H19.205V412.032z"/>
	<path style="fill:#242D3C;" d="M437.555,505.674h-93.642v-56.425h93.642V505.674z M363.118,486.469h55.232v-18.012h-55.232V486.469
		z"/>
	<path style="fill:#242D3C;" d="M437.555,468.457h-93.642v-56.425h93.642V468.457z M363.118,449.249h55.232v-18.012h-55.232V449.249
		z"/>
	<path style="fill:#242D3C;" d="M512,505.674h-93.65v-56.425H512V505.674z M437.555,486.469h55.24v-18.012h-55.24V486.469z"/>
	<path style="fill:#242D3C;" d="M512,468.457h-93.65v-56.425H512V468.457z M437.555,449.249h55.24v-18.012h-55.24V449.249z"/>
	<path style="fill:#242D3C;" d="M437.555,431.237h-93.642v-56.433h93.642V431.237z M363.118,412.032h55.232v-18.02h-55.232V412.032z
		"/>
	<path style="fill:#242D3C;" d="M437.555,394.012h-93.642v-56.425h93.642V394.012z M363.118,374.804h55.232v-18.012h-55.232V374.804
		z"/>
	<path style="fill:#242D3C;" d="M301.125,168.681H172.17v-65.316h128.955V168.681z M191.375,149.476h90.545v-26.903h-90.545V149.476
		z"/>
	<path style="fill:#242D3C;" d="M295.416,122.573H177.8L125.955,70.72c-7.176-7.094-11.146-16.607-11.146-26.737
		c0-20.762,16.888-37.658,37.647-37.658c11.149,0,21.179,4.861,28.081,12.567c6.902-7.706,16.924-12.567,28.065-12.567
		c11.133,0,21.151,4.856,28.052,12.567c6.902-7.708,16.929-12.567,28.065-12.567c11.133,0,21.158,4.856,28.055,12.567
		c6.904-7.708,16.932-12.567,28.078-12.567c20.756,0,37.645,16.896,37.645,37.658c0,10.424-4.416,20.493-12.106,27.62
		L295.416,122.573z M185.756,103.365h101.709l45.604-45.599c4.106-3.812,6.221-8.62,6.221-13.786
		c0-10.179-8.269-18.452-18.44-18.452c-10.186,0-18.478,8.274-18.478,18.452h-19.208c0-10.179-8.274-18.452-18.447-18.452
		c-10.181,0-18.463,8.274-18.463,18.452h-19.205c0-10.179-8.274-18.452-18.45-18.452c-10.181,0-18.463,8.274-18.463,18.452h-19.205
		c0-10.179-8.282-18.452-18.463-18.452c-10.186,0-18.455,8.274-18.455,18.452c0,4.961,1.948,9.62,5.486,13.117L185.756,103.365z"/>
</g>
<path style="fill:#ffd801;" d="M317.322,341.594c0,44.541-36.145,80.666-80.671,80.666c-44.539,0-80.663-36.122-80.663-80.666
	s36.124-80.663,80.663-80.663C281.178,260.931,317.322,297.047,317.322,341.594z"/>
<g>
	<path style="fill:#FFFFFF;" d="M242.601,386.862h-11.899c-7.306,0-14.195-2.842-19.382-8.013
		c-5.194-5.207-8.038-12.096-8.038-19.423h19.205c0,2.204,0.855,4.283,2.406,5.834c1.539,1.536,3.61,2.396,5.809,2.396h11.899
		c2.189,0,4.268-0.873,5.862-2.442c1.498-1.513,2.36-3.589,2.36-5.788c0-2.199-0.855-4.262-2.401-5.814
		c-1.559-1.551-3.63-2.414-5.821-2.414h-11.899c-7.329,0-14.218-2.854-19.402-8.041c-5.169-5.174-8.02-12.06-8.02-19.392
		c0-7.334,2.847-14.231,8.015-19.405c5.225-5.192,12.106-8.028,19.405-8.028h11.899c7.265,0,14.141,2.826,19.351,7.967
		c5.233,5.271,8.077,12.152,8.077,19.466h-19.205c0-2.202-0.863-4.285-2.424-5.857c-1.523-1.503-3.612-2.371-5.798-2.371h-11.899
		c-2.199,0-4.268,0.855-5.844,2.417c-1.516,1.523-2.371,3.594-2.371,5.811c0,2.199,0.852,4.268,2.396,5.816
		c1.556,1.551,3.62,2.406,5.819,2.406h11.899c7.306,0,14.193,2.852,19.389,8.033c5.192,5.194,8.041,12.083,8.041,19.405
		c0,7.299-2.839,14.185-7.997,19.384C256.753,384.026,249.876,386.862,242.601,386.862z"/>
	<rect x="227.046" y="291.661" style="fill:#FFFFFF;" width="19.205" height="14.272"/>
	<rect x="227.046" y="377.267" style="fill:#FFFFFF;" width="19.205" height="14.267"/>
</g>
<g>
	<path style="fill:#242D3C;" d="M70.536,385.559l-19.072-2.301c1.795-14.835,6.454-28.849,13.842-41.651l110.922-192.133H297.06
		l111.306,192.822l-16.566,9.736c-0.195-0.333-0.374-0.678-0.548-1.016L285.97,168.681h-98.655L81.938,351.211
		C75.85,361.756,72.013,373.312,70.536,385.559z"/>
	<path style="fill:#242D3C;" d="M313.272,505.674H160.023c-32.159,0-62.52-14.049-83.305-38.554l-2.281-2.688v-5.581h12.029
		l4.895-4.157c17.126,20.193,42.156,31.772,68.662,31.772h153.249c12.521,0,24.758-2.593,36.375-7.706l7.734,17.577
		C343.314,502.533,328.474,505.674,313.272,505.674z"/>
</g>
<g>
</g>
<g>
</g>
<g>
</g>
<g>
</g>
<g>
</g>
<g>
</g>
<g>
</g>
<g>
</g>
<g>
</g>
<g>
</g>
<g>
</g>
<g>
</g>
<g>
</g>
<g>
</g>
<g>
</g>
</svg>
