<?xml version="1.0" encoding="iso-8859-1"?>
<!-- Generator: Adobe Illustrator 19.0.0, SVG Export Plug-In . SVG Version: 6.00 Build 0)  -->
<svg version="1.1" id="Layer_1" xmlns="http://www.w3.org/2000/svg" xmlns:xlink="http://www.w3.org/1999/xlink" x="0px" y="0px"
	 viewBox="0 0 512 512" style="enable-background:new 0 0 512 512;" xml:space="preserve">
<path style="fill:#242D3C;" d="M256,512c-119.665,0-217.021-97.357-217.021-217.019C38.979,175.311,136.335,77.96,256,77.96
	s217.021,97.354,217.021,217.021C473.021,414.643,375.665,512,256,512z M256,96.243c-109.583,0-198.738,89.149-198.738,198.738
	c0,109.581,89.155,198.735,198.738,198.735s198.735-89.155,198.735-198.735C454.735,185.393,365.583,96.243,256,96.243z"/>
<path style="fill:#005792;" d="M256,121.743c-95.675,0-173.233,77.558-173.233,173.238c0,95.677,77.558,173.228,173.233,173.228
	c95.677,0,173.233-77.55,173.233-173.228C429.233,199.301,351.677,121.743,256,121.743z M256,396.032
	c-55.724,0-101.059-45.332-101.059-101.053c0-55.726,45.335-101.059,101.059-101.059s101.059,45.332,101.059,101.059
	C357.059,350.7,311.724,396.032,256,396.032z"/>
<g>
	<rect x="246.861" y="147.73" style="fill:#242D3C;" width="18.286" height="20.209"/>
	
		<rect x="177.329" y="167.06" transform="matrix(-0.5003 -0.8658 0.8658 -0.5003 128.644 426.6477)" style="fill:#242D3C;" width="20.205" height="18.288"/>
	
		<rect x="127.131" y="217.252" transform="matrix(-0.866 -0.5001 0.5001 -0.866 142.8468 491.0739)" style="fill:#242D3C;" width="20.207" height="18.282"/>
	<rect x="108.749" y="285.824" style="fill:#242D3C;" width="20.214" height="18.286"/>
	
		<rect x="128.107" y="353.423" transform="matrix(-0.5005 -0.8657 0.8657 -0.5005 -108.7731 664.2943)" style="fill:#242D3C;" width="18.28" height="20.205"/>
	
		<rect x="178.291" y="403.644" transform="matrix(-0.866 -0.5001 0.5001 -0.866 142.838 865.7773)" style="fill:#242D3C;" width="18.287" height="20.209"/>
	<rect x="246.861" y="422.016" style="fill:#242D3C;" width="18.286" height="20.206"/>
	
		<rect x="314.482" y="404.585" transform="matrix(-0.5005 -0.8657 0.8657 -0.5005 128.8774 901.8068)" style="fill:#242D3C;" width="20.213" height="18.28"/>
	
		<rect x="364.669" y="354.42" transform="matrix(-0.8662 -0.4997 0.4997 -0.8662 517.7462 865.7566)" style="fill:#242D3C;" width="20.227" height="18.284"/>
	<rect x="383.027" y="285.824" style="fill:#242D3C;" width="20.216" height="18.286"/>
	
		<rect x="365.629" y="216.28" transform="matrix(-0.5 -0.866 0.866 -0.5 366.0995 664.1559)" style="fill:#242D3C;" width="18.286" height="20.231"/>
	
		<rect x="315.389" y="166.095" transform="matrix(-0.8659 -0.5002 0.5002 -0.8659 517.4113 491.1033)" style="fill:#242D3C;" width="18.286" height="20.208"/>
	<path style="fill:#242D3C;" d="M263.132,346.501h-14.198c-8.056,0-15.665-3.136-21.422-8.824
		c-5.752-5.832-8.876-13.435-8.876-21.484h18.289c0,3.215,1.252,6.252,3.528,8.566c2.23,2.199,5.274,3.459,8.481,3.459h14.198
		c3.146,0,6.29-1.308,8.625-3.584c2.099-2.112,3.31-5.146,3.31-8.438c0-3.328-1.201-6.357-3.377-8.527
		c-2.281-2.225-5.417-3.535-8.558-3.535h-14.198c-8.059,0-15.672-3.146-21.427-8.855c-5.737-5.775-8.87-13.394-8.87-21.504
		c0-8,3.116-15.583,8.771-21.371c5.86-5.796,13.468-8.929,21.527-8.929h14.198c7.875,0,15.675,3.2,21.394,8.778
		c5.732,5.809,8.824,13.407,8.824,21.519h-18.286c0-2.314-0.594-5.678-3.433-8.553c-2.209-2.153-5.358-3.461-8.502-3.461h-14.195
		c-3.215,0-6.257,1.257-8.566,3.538c-2.186,2.235-3.446,5.284-3.446,8.476c0,3.251,1.244,6.295,3.502,8.571
		c2.26,2.24,5.299,3.502,8.507,3.502h14.198c7.875,0,15.677,3.213,21.402,8.812c5.706,5.688,8.817,13.312,8.817,21.537
		c0,8.164-3.1,15.772-8.73,21.43C278.802,343.301,271.007,346.501,263.132,346.501z"/>
	<rect x="246.861" y="230.886" style="fill:#242D3C;" width="18.289" height="21.734"/>
	<rect x="246.861" y="337.357" style="fill:#242D3C;" width="18.289" height="21.714"/>
	<rect x="246.861" y="35.128" style="fill:#242D3C;" width="18.289" height="51.971"/>
	<path style="fill:#242D3C;" d="M281.984,70.257h-51.971c-9.38,0-18.202-3.658-24.837-10.294
		c-6.633-6.63-10.291-15.452-10.291-24.835c0-9.388,3.658-18.207,10.294-24.842C211.809,3.653,220.634,0,230.013,0h51.973
		c9.382,0,18.204,3.653,24.84,10.286c6.636,6.643,10.291,15.46,10.291,24.842c0,9.38-3.656,18.199-10.289,24.835
		C300.191,66.601,291.366,70.257,281.984,70.257z M230.013,18.286c-4.495,0-8.724,1.751-11.901,4.931
		c-3.185,3.182-4.941,7.411-4.941,11.912c0,4.495,1.756,8.724,4.938,11.907c3.18,3.182,7.411,4.936,11.904,4.936h51.973
		c4.498,0,8.73-1.754,11.912-4.936c3.177-3.18,4.931-7.411,4.931-11.907c0-4.5-1.754-8.73-4.936-11.912
		c-3.177-3.182-7.411-4.931-11.907-4.931C281.987,18.286,230.013,18.286,230.013,18.286z"/>
	<path style="fill:#242D3C;" d="M440.082,153.226l-12.931-12.928l12.247-12.25c0.893-0.893,1.382-2.076,1.382-3.338
		c0-1.695-0.868-2.821-1.385-3.336l-9.795-9.797c-1.769-1.766-4.887-1.782-6.664-0.003L410.68,123.83l-12.931-12.933l12.255-12.25
		c4.332-4.334,10.107-6.728,16.259-6.735c6.144,0.005,11.917,2.396,16.264,6.735l9.8,9.8c4.347,4.355,6.74,10.13,6.74,16.266
		c0,6.149-2.396,11.93-6.743,16.271L440.082,153.226z"/>
	<path style="fill:#242D3C;" d="M71.918,153.221l-12.247-12.25c-4.334-4.334-6.733-10.104-6.743-16.243
		c0.01-6.175,2.404-11.942,6.74-16.282l9.8-9.8c4.349-4.347,10.125-6.738,16.261-6.738c6.154,0.005,11.93,2.396,16.266,6.735
		l12.255,12.25l-12.931,12.933l-12.252-12.25c-0.891-0.888-2.076-1.382-3.343-1.382c-1.692,0-2.816,0.87-3.333,1.388l-9.792,9.792
		c-0.891,0.893-1.382,2.086-1.388,3.359c0.005,1.234,0.497,2.422,1.388,3.313l12.244,12.25L71.918,153.221z"/>
</g>
<g>
</g>
<g>
</g>
<g>
</g>
<g>
</g>
<g>
</g>
<g>
</g>
<g>
</g>
<g>
</g>
<g>
</g>
<g>
</g>
<g>
</g>
<g>
</g>
<g>
</g>
<g>
</g>
<g>
</g>
</svg>
