<?xml version="1.0" encoding="iso-8859-1"?>
<!-- Generator: Adobe Illustrator 19.0.0, SVG Export Plug-In . SVG Version: 6.00 Build 0)  -->
<svg version="1.1" id="Layer_1" xmlns="http://www.w3.org/2000/svg" xmlns:xlink="http://www.w3.org/1999/xlink" x="0px" y="0px"
	 viewBox="0 0 512 512" style="enable-background:new 0 0 512 512;" xml:space="preserve">
<g>
	<path style="fill:#ffd801;" d="M219.165,124.16c0-22.94-18.586-41.533-41.528-41.533V43.868h83.064v212.211h-83.064v-90.386
		C200.58,165.693,219.165,147.1,219.165,124.16z"/>
	<circle style="fill:#ffd801;" cx="177.64" cy="421.939" r="19.397"/>
	<circle style="fill:#ffd801;" cx="177.64" cy="124.16" r="19.397"/>
</g>
<g>
	<path style="fill:#242D3C;" d="M221.236,424.957l-5-17.585c13.947-3.965,27.19-10.13,39.363-18.33l10.214,15.168
		C252.038,413.486,237.037,420.467,221.236,424.957z"/>
	<path style="fill:#242D3C;" d="M134.03,424.991C66.651,405.716,19.593,343.235,19.593,273.057
		c0-70.18,47.058-132.657,114.437-151.933l5.028,17.582C79.487,155.748,37.879,210.995,37.879,273.055
		c0,62.065,41.608,117.307,101.179,134.349L134.03,424.991z"/>
	<rect x="114.615" y="339.405" style="fill:#242D3C;" width="209.101" height="18.286"/>
	<path style="fill:#242D3C;" d="M249.466,44.201h-60.608V0h60.605v44.201H249.466z M207.144,25.915h24.036v-7.629h-24.036V25.915z"
		/>
	<path style="fill:#242D3C;" d="M244.179,325.85h-50.022v-70.093h50.022V325.85z M212.443,307.566h13.45v-33.523h-13.45V307.566z"/>
	<path style="fill:#242D3C;" d="M177.637,174.835c-27.945,0-50.678-22.735-50.678-50.675c0-27.945,22.735-50.675,50.678-50.675
		c27.94,0,50.67,22.73,50.67,50.675C228.31,152.1,205.577,174.835,177.637,174.835z M177.637,91.771
		c-17.861,0-32.394,14.528-32.394,32.389s14.533,32.389,32.394,32.389c17.856,0,32.384-14.528,32.384-32.389
		C210.024,106.299,195.493,91.771,177.637,91.771z"/>
	<path style="fill:#242D3C;" d="M228.31,482.816h-101.35v-60.877c0-27.94,22.735-50.673,50.678-50.673
		c27.94,0,50.67,22.733,50.67,50.673v60.877H228.31z M145.243,464.527h64.781v-42.588c0-17.859-14.528-32.387-32.384-32.387
		c-17.861,0-32.394,14.531-32.394,32.387v42.588H145.243z"/>
	<path style="fill:#242D3C;" d="M323.724,512H19.608v-47.473h304.115L323.724,512L323.724,512z M37.894,493.714h267.543v-10.898
		H37.894V493.714z"/>
</g>
<path style="fill:#005792;" d="M391.85,97.05c-55.549,0-100.585,45.036-100.585,100.572v92.908l25.736-25.728
	c18.406,20.485,45.115,33.393,74.849,33.398c55.526,0,100.557-45.033,100.557-100.572S447.379,97.05,391.85,97.05z"/>
<g>
	
		<rect x="382.697" y="133.268" transform="matrix(-0.7071 -0.7071 0.7071 -0.7071 529.1672 614.4397)" style="fill:#FFFFFF;" width="18.283" height="128.716"/>
	<path style="fill:#FFFFFF;" d="M420.187,252.278c-14.495,0-26.294-11.807-26.294-26.314c0-14.5,11.796-26.296,26.294-26.296
		c14.505,0,26.299,11.796,26.299,26.296C446.486,240.471,434.692,252.278,420.187,252.278z M420.187,217.953
		c-4.413,0-8.008,3.592-8.008,8.01c0,4.429,3.594,8.028,8.008,8.028c4.419,0,8.015-3.599,8.015-8.028
		C428.202,221.548,424.603,217.953,420.187,217.953z"/>
	<path style="fill:#FFFFFF;" d="M363.493,195.579c-14.508,0-26.307-11.804-26.307-26.312c0-14.505,11.799-26.299,26.307-26.299
		c14.505,0,26.299,11.796,26.299,26.299C389.795,183.775,377.998,195.579,363.493,195.579z M363.493,161.254
		c-4.421,0-8.02,3.597-8.02,8.013c0,4.426,3.599,8.026,8.02,8.026c4.419,0,8.015-3.599,8.015-8.026
		C371.508,164.851,367.912,161.254,363.493,161.254z"/>
</g>
<g>
</g>
<g>
</g>
<g>
</g>
<g>
</g>
<g>
</g>
<g>
</g>
<g>
</g>
<g>
</g>
<g>
</g>
<g>
</g>
<g>
</g>
<g>
</g>
<g>
</g>
<g>
</g>
<g>
</g>
</svg>
