<?xml version="1.0" encoding="iso-8859-1"?>
<!-- Generator: Adobe Illustrator 19.0.0, SVG Export Plug-In . SVG Version: 6.00 Build 0)  -->
<svg version="1.1" id="Layer_1" xmlns="http://www.w3.org/2000/svg" xmlns:xlink="http://www.w3.org/1999/xlink" x="0px" y="0px"
	 viewBox="0 0 512 512" style="enable-background:new 0 0 512 512;" xml:space="preserve">
<g>
	<polygon style="fill:#242D3C;" points="512,454.899 439.882,454.899 439.882,436.04 493.138,436.04 493.138,274.473 512,274.473 	
		"/>
	<path style="fill:#242D3C;" d="M486.19,491.779h-55.739V99.566l27.878-27.863l27.863,27.866v392.21H486.19z M449.313,472.914
		h18.015V107.379l-9.009-9.004l-9.009,9.009v365.53H449.313z"/>
	<rect x="439.885" y="265.037" style="fill:#242D3C;" width="36.874" height="18.862"/>
	<rect x="448.896" y="66.56" style="fill:#242D3C;" width="18.862" height="18.473"/>
	<polygon style="fill:#242D3C;" points="412.439,491.761 281.869,491.761 281.869,472.899 393.577,472.899 393.577,107.379 
		325.276,39.084 80.558,39.084 80.558,356.055 61.696,356.055 61.696,20.221 333.092,20.221 412.439,99.569 	"/>
	<polygon style="fill:#242D3C;" points="403,112.906 319.752,112.906 319.752,29.66 338.614,29.66 338.614,94.042 403,94.042 	"/>
	<rect x="126.438" y="94.042" style="fill:#242D3C;" width="110.618" height="18.862"/>
	<rect x="126.438" y="270.106" style="fill:#242D3C;" width="221.235" height="18.862"/>
	<rect x="126.438" y="306.97" style="fill:#242D3C;" width="221.235" height="18.862"/>
	<rect x="237.082" y="343.859" style="fill:#242D3C;" width="110.618" height="18.862"/>
</g>
<rect x="126.438" y="140.352" style="fill:#ffd801;" width="221.235" height="102.308"/>
<g>
	<path style="fill:#242D3C;" d="M71.127,491.779c-30.851,0-55.946-25.098-55.946-55.951s25.096-55.951,55.946-55.951
		s55.954,25.101,55.954,55.951C127.081,466.68,101.978,491.779,71.127,491.779z M71.127,398.735
		c-20.447,0-37.084,16.637-37.084,37.089c0,20.454,16.637,37.089,37.084,37.089c20.454,0,37.092-16.635,37.092-37.089
		C108.219,415.373,91.581,398.735,71.127,398.735z"/>
	<path style="fill:#242D3C;" d="M210.691,491.779c-30.851,0-55.949-25.098-55.949-55.951s25.101-55.951,55.949-55.951
		c30.853,0,55.949,25.101,55.949,55.951C266.639,466.68,241.544,491.779,210.691,491.779z M210.691,398.735
		c-20.449,0-37.087,16.637-37.087,37.089c0,20.454,16.637,37.089,37.087,37.089s37.087-16.635,37.087-37.089
		C247.777,415.373,231.14,398.735,210.691,398.735z"/>
	<path style="fill:#242D3C;" d="M177.861,416.76h-18.862c0-9.94-8.082-18.025-18.022-18.025s-18.022,8.084-18.022,18.025h-18.862
		c0-20.339,16.548-36.887,36.884-36.887S177.861,396.421,177.861,416.76z"/>
	<rect x="257.203" y="426.394" style="fill:#242D3C;" width="24.66" height="18.862"/>
	<rect y="426.394" style="fill:#242D3C;" width="24.66" height="18.862"/>
</g>
<g>
</g>
<g>
</g>
<g>
</g>
<g>
</g>
<g>
</g>
<g>
</g>
<g>
</g>
<g>
</g>
<g>
</g>
<g>
</g>
<g>
</g>
<g>
</g>
<g>
</g>
<g>
</g>
<g>
</g>
</svg>
