<?xml version="1.0" encoding="iso-8859-1"?>
<!-- Generator: Adobe Illustrator 19.0.0, SVG Export Plug-In . SVG Version: 6.00 Build 0)  -->
<svg version="1.1" id="Layer_1" xmlns="http://www.w3.org/2000/svg" xmlns:xlink="http://www.w3.org/1999/xlink" x="0px" y="0px"
	 viewBox="0 0 512 512" style="enable-background:new 0 0 512 512;" xml:space="preserve">
<g>
	<path style="fill:#242D3C;" d="M421.559,512H81.286v-83.389h340.27V512H421.559z M99.575,493.714h303.701v-46.817H99.575V493.714z"
		/>
	<path style="fill:#242D3C;" d="M396.084,446.897H106.764l7.954-13.724c42.926-74.107,65.618-165.389,65.618-263.979v-9.142h142.182
		v9.142c0,98.601,22.689,189.88,65.615,263.98L396.084,446.897z M138.17,428.611h226.506
		c-38.328-71.903-59.095-157.908-60.383-250.273H198.555C197.27,270.692,176.498,356.7,138.17,428.611z"/>
	<path style="fill:#242D3C;" d="M319.52,143.071H183.333L124.97,0h82.693v35.653h16.983V0h53.548v35.653h16.983V0h82.703
		L319.52,143.071z M195.621,124.787h111.606L350.67,18.286h-37.21v35.653h-53.553V18.286h-16.975v35.653h-53.555V18.286h-37.202
		L195.621,124.787z"/>
	<path style="fill:#242D3C;" d="M357.549,178.337h-212.25v-53.55h212.25V178.337z M163.583,160.051H339.26v-16.978H163.583V160.051z
		"/>
</g>
<path style="fill:#ffd801;" d="M295.098,282.307c0,24.128-19.533,43.709-43.676,43.709c-24.136,0-43.697-19.581-43.697-43.709
	c0-24.136,19.561-43.694,43.697-43.694C275.567,238.612,295.098,258.171,295.098,282.307z"/>
<g>
	<rect x="43.88" y="273.152" style="fill:#242D3C;" width="135.309" height="18.286"/>
	<polygon style="fill:#242D3C;" points="68.338,319.7 30.941,282.307 68.338,244.908 81.271,257.838 56.803,282.307 81.271,306.772 
			"/>
	<rect x="251.419" y="273.152" style="fill:#242D3C;" width="130.47" height="18.286"/>
	<path style="fill:#242D3C;" d="M481.059,315.914h-78.482l-33.62-33.608l33.62-33.61h78.482l-33.623,33.61L481.059,315.914z
		 M410.149,297.628h26.752l-15.327-15.319l15.327-15.324h-26.752l-15.329,15.324L410.149,297.628z"/>
</g>
<g>
</g>
<g>
</g>
<g>
</g>
<g>
</g>
<g>
</g>
<g>
</g>
<g>
</g>
<g>
</g>
<g>
</g>
<g>
</g>
<g>
</g>
<g>
</g>
<g>
</g>
<g>
</g>
<g>
</g>
</svg>
