<?xml version="1.0" encoding="iso-8859-1"?>
<!-- Generator: Adobe Illustrator 19.0.0, SVG Export Plug-In . SVG Version: 6.00 Build 0)  -->
<svg version="1.1" id="Layer_1" xmlns="http://www.w3.org/2000/svg" xmlns:xlink="http://www.w3.org/1999/xlink" x="0px" y="0px"
	 viewBox="0 0 512 512" style="enable-background:new 0 0 512 512;" xml:space="preserve">
<rect x="53.722" y="259.994" style="fill:#005792;" width="404.557" height="252.006"/>
<g>
	<rect x="120.005" y="259.994" style="fill:#242D3C;" width="18.286" height="252.006"/>
	<rect x="373.701" y="259.994" style="fill:#242D3C;" width="18.286" height="252.006"/>
	<path style="fill:#242D3C;" d="M177.654,260.006h-18.286v-38.6c0-7.229,2.831-14.039,7.974-19.174
		c5.128-5.135,11.953-7.969,19.203-7.969h7.785v18.286h-7.785c-1.672,0-4.116,0.453-6.275,2.611c-1.69,1.69-2.616,3.907-2.616,6.246
		V260.006z"/>
	<path style="fill:#242D3C;" d="M352.617,260.006h-18.286v-38.6c0-2.34-0.929-4.557-2.614-6.241
		c-1.687-1.69-3.904-2.616-6.244-2.616h-7.892v-18.286h7.892c7.227,0,14.039,2.831,19.174,7.974
		c5.135,5.128,7.967,11.94,7.967,19.169v38.6H352.617z"/>
</g>
<polygon style="fill:#005792;" points="345.326,0 166.659,0.013 166.656,84.762 345.326,84.749 "/>
<g>
	<path style="fill:#242D3C;" d="M271.419,243.487c-5.655,0-11.041-1.915-15.416-5.437c-4.324,3.515-9.71,5.432-15.398,5.432
		c-5.693-0.01-11.092-1.912-15.442-5.422c-4.334,3.507-9.718,5.417-15.404,5.417c-0.026,0-0.051,0-0.067,0
		c-6.543,0-12.692-2.55-17.303-7.183c-4.588-4.572-7.15-10.724-7.194-17.303l0.026-58.481l18.286,0.005l-0.026,58.422
		c0.01,1.664,0.666,3.261,1.841,4.431c1.178,1.183,2.732,1.82,4.396,1.82c0.008,0,0.01,0,0.018,0c1.708,0,3.282-0.65,4.462-1.828
		c1.6-1.597,1.836-3.466,1.836-4.442h18.286c0,1.692,0.653,3.274,1.836,4.465c1.165,1.16,2.747,1.81,4.447,1.81
		c0.003,0,0.003,0,0.005,0c0.968,0,2.819-0.236,4.39-1.81c1.608-1.6,1.853-3.515,1.861-4.511l18.286,0.113
		c-0.01,1.628,0.635,3.182,1.823,4.37c2.36,2.335,6.467,2.388,8.855,0.003c1.183-1.185,1.838-2.757,1.838-4.424l18.286,0.015
		c0,1.651,0.648,3.203,1.828,4.372c1.216,1.226,2.772,1.871,4.424,1.871c0,0,0.003,0,0.008,0c1.682,0,3.246-0.65,4.416-1.828
		c1.203-1.203,1.851-2.749,1.838-4.375l0.026-134.241h18.289l-0.026,134.188c0.043,6.484-2.501,12.659-7.163,17.329
		c-4.608,4.646-10.785,7.219-17.37,7.219c-0.008,0-0.015,0-0.023,0c-5.66,0-11.034-1.915-15.375-5.443
		C282.458,241.567,277.082,243.487,271.419,243.487z"/>
	<rect x="185.234" y="48.22" style="fill:#242D3C;" width="18.286" height="18.266"/>
	<path style="fill:#242D3C;" d="M194.332,197.885c-20.838,0-37.796-16.957-37.796-37.801c0-9.925,4.07-19.694,11.174-26.793
		c0.991-1.021,3.082-3.118,4.905-4.585c7.631-6.175,12.575-17.628,12.575-29.169V84.749h18.286v14.789
		c0,17.098-7.424,33.725-19.374,43.397c-0.768,0.622-2.053,1.838-3.364,3.19c-3.791,3.796-5.914,8.847-5.914,13.962
		c0,10.76,8.753,19.515,19.51,19.515v18.284H194.332z"/>
</g>
<g>
</g>
<g>
</g>
<g>
</g>
<g>
</g>
<g>
</g>
<g>
</g>
<g>
</g>
<g>
</g>
<g>
</g>
<g>
</g>
<g>
</g>
<g>
</g>
<g>
</g>
<g>
</g>
<g>
</g>
</svg>
