<?xml version="1.0" encoding="iso-8859-1"?>
<!-- Generator: Adobe Illustrator 19.0.0, SVG Export Plug-In . SVG Version: 6.00 Build 0)  -->
<svg version="1.1" id="Layer_1" xmlns="http://www.w3.org/2000/svg" xmlns:xlink="http://www.w3.org/1999/xlink" x="0px" y="0px"
	 viewBox="0 0 512 512" style="enable-background:new 0 0 512 512;" xml:space="preserve">
<g>
	<path style="fill:#242D3C;" d="M481.535,225.533h-21.23c0-112.653-91.645-204.303-204.298-204.303
		c-112.655,0-204.308,91.651-204.308,204.303H30.47C30.468,101.174,131.644,0,256.004,0S481.535,101.174,481.535,225.533z"/>
	<path style="fill:#242D3C;" d="M159.164,225.533h-21.23C137.934,99.064,189.797,0,256.004,0v21.228
		C203.514,21.228,159.164,114.788,159.164,225.533z"/>
	<path style="fill:#242D3C;" d="M374.076,225.533h-21.228c0-110.746-44.349-204.303-96.845-204.303V0
		C322.213,0,374.076,99.064,374.076,225.533z"/>
	<rect x="245.403" y="10.614" style="fill:#242D3C;" width="21.23" height="214.917"/>
	<path style="fill:#242D3C;" d="M256.004,128.691c-58.396,0-115.945-9.175-171.044-27.269l6.625-20.168
		c52.959,17.388,108.273,26.209,164.419,26.209c56.202,0,111.534-8.819,164.47-26.209l6.628,20.168
		C372.023,119.516,314.456,128.691,256.004,128.691z"/>
</g>
<path style="fill:#005792;" d="M1.248,225.533V512h509.504V225.533H1.248z M256.004,446.103c-42.716,0-77.338-34.629-77.338-77.335
	c0-42.703,34.621-77.338,77.338-77.338c42.724,0,77.263,34.634,77.263,77.338C333.27,411.471,298.728,446.103,256.004,446.103z"/>
<path style="fill:#FFFFFF;" d="M430.798,482.798H81.171v-10.614c0-22.106-17.979-40.09-40.074-40.09H30.483V305.441h10.614
	c22.095,0,40.074-17.981,40.074-40.09v-10.614h349.627v10.614c0,22.108,18.005,40.09,40.133,40.09h10.614v126.653h-10.614
	c-22.129,0-40.133,17.984-40.133,40.09V482.798z M101.48,461.568h309.012c4.439-25.326,24.481-45.353,49.825-49.789v-86.024
	c-25.341-4.436-45.386-24.466-49.825-49.789H101.48c-4.436,25.324-24.456,45.348-49.769,49.784v86.031
	C77.024,416.22,97.043,436.244,101.48,461.568z"/>
<g>
	<path style="fill:#242D3C;" d="M262.353,417.267H249.66c-7.803,0-15.204-3.026-20.836-8.527
		c-5.673-5.816-8.694-13.215-8.694-21.018h21.228c0,2.232,0.883,4.372,2.483,6.016c1.457,1.418,3.587,2.301,5.816,2.301h12.692
		c2.191,0,4.383-0.909,6.003-2.491c1.856-1.871,2.271-4.214,2.271-5.827c0-1.334-0.307-3.866-2.348-5.903
		c-1.559-1.526-3.74-2.437-5.924-2.437H249.66c-7.823,0-15.235-3.049-20.864-8.594c-5.627-5.693-8.666-13.11-8.666-20.987
		c0-7.785,3.018-15.178,8.504-20.815c5.816-5.691,13.22-8.717,21.025-8.717h12.692c7.688,0,15.281,3.108,20.831,8.522
		c5.64,5.706,8.671,13.117,8.671,21.01h-21.228c0-1.605-0.42-3.94-2.404-5.955c-1.48-1.441-3.671-2.348-5.868-2.348h-12.692
		c-2.23,0-4.362,0.883-6.001,2.481c-1.413,1.459-2.301,3.599-2.301,5.821c0,2.255,0.868,4.378,2.435,5.965
		c1.531,1.503,3.648,2.388,5.868,2.388h12.692c7.7,0,15.301,3.128,20.854,8.576c5.599,5.578,8.648,13.018,8.648,20.995
		c0,7.91-3.036,15.327-8.54,20.892C277.633,414.162,270.04,417.267,262.353,417.267z"/>
	<rect x="245.403" y="311.45" style="fill:#242D3C;" width="21.23" height="19.446"/>
	<rect x="245.403" y="406.656" style="fill:#242D3C;" width="21.23" height="19.423"/>
	<rect x="369.793" y="358.144" style="fill:#242D3C;" width="56.806" height="21.23"/>
	<rect x="85.416" y="358.144" style="fill:#242D3C;" width="56.755" height="21.23"/>
</g>
<g>
</g>
<g>
</g>
<g>
</g>
<g>
</g>
<g>
</g>
<g>
</g>
<g>
</g>
<g>
</g>
<g>
</g>
<g>
</g>
<g>
</g>
<g>
</g>
<g>
</g>
<g>
</g>
<g>
</g>
</svg>
