<?xml version="1.0" encoding="iso-8859-1"?>
<!-- Generator: Adobe Illustrator 19.0.0, SVG Export Plug-In . SVG Version: 6.00 Build 0)  -->
<svg version="1.1" id="Layer_1" xmlns="http://www.w3.org/2000/svg" xmlns:xlink="http://www.w3.org/1999/xlink" x="0px" y="0px"
	 viewBox="0 0 512 512" style="enable-background:new 0 0 512 512;" xml:space="preserve">
<g>
	<path style="fill:#242D3C;" d="M474.506,409.827H88.31V177.955c0-5.576,2.181-10.826,6.141-14.784
		c3.907-3.95,9.165-6.139,14.776-6.139h344.343c5.565,0,10.819,2.173,14.787,6.116c3.981,4.024,6.144,9.26,6.144,14.807v231.872
		H474.506z M105.549,392.588h351.716V177.955c0-0.973-0.389-1.905-1.103-2.621c-0.671-0.666-1.61-1.062-2.591-1.062H109.228
		c-0.563,0-1.646,0.138-2.56,1.057c-0.932,0.932-1.121,1.943-1.121,2.627v214.633H105.549z"/>
	<path style="fill:#242D3C;" d="M444.902,409.827H117.916V186.623h326.986V409.827z M135.155,392.588h292.508V203.864H135.155
		V392.588z"/>
	<path style="fill:#242D3C;" d="M486.95,442.661H75.84c-6.653,0-12.933-2.593-17.679-7.301c-4.746-4.741-7.355-11.034-7.355-17.738
		v-25.037H512v25.037c0,6.707-2.606,13-7.34,17.72C499.912,440.065,493.624,442.661,486.95,442.661z M68.047,409.827v7.798
		c0,2.094,0.806,4.05,2.276,5.514c1.475,1.464,3.441,2.284,5.517,2.284h411.108c2.086,0,4.058-0.814,5.542-2.294
		c1.459-1.454,2.268-3.41,2.268-5.504v-7.798L68.047,409.827L68.047,409.827z"/>
</g>
<rect y="229.275" style="fill:#005792;" width="204.754" height="137.912"/>
<g>
	<rect x="50.698" y="285.876" style="fill:#FFFFFF;" width="17.239" height="34.235"/>
	<rect x="21.996" y="309.94" style="fill:#FFFFFF;" width="17.239" height="10.168"/>
	<rect x="79.411" y="298.856" style="fill:#FFFFFF;" width="17.239" height="21.245"/>
	<rect x="108.109" y="269.083" style="fill:#FFFFFF;" width="17.239" height="51.023"/>
	<rect x="136.832" y="281.217" style="fill:#FFFFFF;" width="17.239" height="38.902"/>
	<rect x="165.53" y="254.593" style="fill:#FFFFFF;" width="17.239" height="65.508"/>
</g>
<rect x="21.996" y="330.421" style="fill:#242D3C;" width="160.76" height="17.239"/>
<rect x="245.632" y="88.549" style="fill:#ffd801;" width="266.368" height="174.515"/>
<g>
	<polygon style="fill:#FFFFFF;" points="293.059,212.52 280.868,200.332 327.777,153.412 358.405,184.035 399.232,143.203 
		429.837,173.823 464.571,139.099 476.756,151.287 429.837,198.199 399.232,167.587 358.41,208.416 327.785,177.793 	"/>
	<polygon style="fill:#FFFFFF;" points="479.283,176.457 462.044,176.457 462.044,153.814 439.396,153.814 439.396,136.575 
		479.283,136.575 	"/>
</g>
<g>
	<path style="fill:#242D3C;" d="M342.561,366.304c-19.96,0-36.204-16.238-36.204-36.204c0-19.963,16.243-36.201,36.204-36.201
		c19.958,0,36.201,16.238,36.201,36.201C378.76,350.066,362.516,366.304,342.561,366.304z M342.561,311.139
		c-10.46,0-18.964,8.509-18.964,18.962c0,10.455,8.504,18.964,18.964,18.964c10.458,0,18.962-8.509,18.962-18.964
		C361.523,319.648,353.016,311.139,342.561,311.139z"/>
	<path style="fill:#242D3C;" d="M157.389,127.953c-16.159,0-29.307-13.148-29.307-29.307c0-16.161,13.148-29.307,29.307-29.307
		s29.307,13.146,29.307,29.307C186.698,114.807,173.548,127.953,157.389,127.953z M157.389,86.58
		c-6.653,0-12.065,5.414-12.065,12.068c0,6.653,5.414,12.068,12.065,12.068c6.653,0,12.068-5.414,12.068-12.068
		C169.457,91.995,164.045,86.58,157.389,86.58z"/>
</g>
<g>
</g>
<g>
</g>
<g>
</g>
<g>
</g>
<g>
</g>
<g>
</g>
<g>
</g>
<g>
</g>
<g>
</g>
<g>
</g>
<g>
</g>
<g>
</g>
<g>
</g>
<g>
</g>
<g>
</g>
</svg>
