<?xml version="1.0" encoding="iso-8859-1"?>
<!-- Generator: Adobe Illustrator 19.0.0, SVG Export Plug-In . SVG Version: 6.00 Build 0)  -->
<svg version="1.1" id="Layer_1" xmlns="http://www.w3.org/2000/svg" xmlns:xlink="http://www.w3.org/1999/xlink" x="0px" y="0px"
	 viewBox="0 0 512.002 512.002" style="enable-background:new 0 0 512.002 512.002;" xml:space="preserve">
<g>
	<rect x="96.473" y="387.791" style="fill:#242D3C;" width="18.767" height="18.77"/>
	<rect x="471.833" y="180.533" style="fill:#242D3C;" width="18.767" height="18.767"/>
	<path style="fill:#242D3C;" d="M490.598,370.649h-18.767v-17.134h18.767V370.649z M490.598,336.376h-18.767v-17.132h18.767V336.376
		z M490.598,302.108h-18.767v-17.134h18.767V302.108z M490.598,267.837h-18.767v-17.134h18.767V267.837z M490.598,233.566h-18.767
		v-17.137h18.767V233.566z"/>
	<rect x="471.833" y="387.791" style="fill:#242D3C;" width="18.767" height="18.77"/>
	<path style="fill:#242D3C;" d="M453.063,406.553h-18.767v-18.77h18.767V406.553z M415.523,406.553h-18.767v-18.77h18.767V406.553z
		 M377.989,406.553h-18.767v-18.77h18.767V406.553z M340.454,406.553h-18.767v-18.77h18.767V406.553z M302.919,406.553h-18.767
		v-18.77h18.767V406.553z M265.385,406.553h-18.77v-18.77h18.77V406.553z M227.847,406.553h-18.77v-18.77h18.77V406.553z
		 M190.313,406.553h-18.767v-18.77h18.767V406.553z M152.778,406.553h-18.767v-18.77h18.767V406.553z"/>
	<path style="fill:#242D3C;" d="M415.523,331.478H21.401V105.456h394.122V331.478z M40.169,312.711h356.588V124.226H40.169V312.711z
		"/>
</g>
<path style="fill:#005792;" d="M342.195,140.536H94.699c0,21.094-17.083,38.213-38.195,38.213v79.439
	c21.115,0,38.195,17.114,38.195,38.211h247.496c0-21.097,17.16-38.211,38.244-38.211v-79.439
	C359.355,178.749,342.195,161.63,342.195,140.536z M218.465,281.238c-34.662,0-62.771-28.114-62.771-62.771
	c0-34.66,28.106-62.771,62.771-62.771c34.673,0,62.728,28.111,62.728,62.771C281.193,253.124,253.138,281.238,218.465,281.238z"/>
<g>
	<path style="fill:#242D3C;" d="M223.498,257.894H213.44c-6.461,0-12.577-2.509-17.211-7.063
		c-4.669-4.767-7.171-10.877-7.171-17.331h18.77c0,1.518,0.596,2.962,1.682,4.073c0.975,0.957,2.419,1.554,3.93,1.554h10.058
		c1.487,0,2.972-0.614,4.073-1.697c1.239-1.242,1.518-2.829,1.518-3.93c0-1.108-0.271-2.688-1.554-3.963
		c-1.08-1.065-2.56-1.687-4.035-1.687h-10.058c-6.474,0-12.59-2.527-17.231-7.112c-4.634-4.669-7.148-10.796-7.148-17.316
		c0-6.444,2.501-12.544,7.04-17.183c4.764-4.69,10.88-7.201,17.341-7.201h10.058c6.449,0,12.557,2.504,17.203,7.048
		c4.646,4.677,7.155,10.803,7.155,17.334h-18.767c0-1.093-0.279-2.675-1.61-4.014c-1.009-0.986-2.493-1.603-3.981-1.603h-10.058
		c-1.51,0-2.954,0.596-4.058,1.682c-0.955,0.983-1.554,2.424-1.554,3.935c0,1.533,0.584,2.964,1.638,4.029
		c1.042,1.029,2.476,1.631,3.973,1.631h10.058c6.451,0,12.57,2.522,17.221,7.096c4.608,4.564,7.137,10.711,7.137,17.321
		c0,6.546-2.511,12.675-7.068,17.257C236.055,255.393,229.944,257.894,223.498,257.894z"/>
	<rect x="209.075" y="173.007" style="fill:#242D3C;" width="18.77" height="15.411"/>
	<rect x="209.075" y="248.501" style="fill:#242D3C;" width="18.77" height="15.411"/>
	<rect x="304.204" y="209.077" style="fill:#242D3C;" width="42.819" height="18.767"/>
	<rect x="89.907" y="209.077" style="fill:#242D3C;" width="42.772" height="18.767"/>
	<polygon style="fill:#242D3C;" points="453.063,369.016 58.939,369.016 58.939,322.096 77.706,322.096 77.706,350.246 
		434.293,350.246 434.293,161.763 406.141,161.763 406.141,142.993 453.063,142.993 	"/>
	<path style="fill:#242D3C;" d="M155.658,60.239l-13.271-13.271c62.641-62.623,164.575-62.623,227.22-0.005l-13.268,13.274
		C301.01,4.94,210.982,4.93,155.658,60.239z"/>
	<polygon style="fill:#242D3C;" points="314.926,70.064 312.228,51.489 352.343,45.665 346.514,5.549 365.084,2.851 373.609,61.537 
			"/>
	<path style="fill:#242D3C;" d="M256.002,512.002c-41.142,0-82.289-15.652-113.615-46.961l13.271-13.276
		c55.34,55.306,145.367,55.306,200.684,0l13.268,13.276C338.293,496.35,297.149,512.002,256.002,512.002z"/>
	<polygon style="fill:#242D3C;" points="146.916,509.158 138.391,450.465 197.076,441.947 199.774,460.515 159.657,466.344 
		165.486,506.46 	"/>
</g>
<g>
</g>
<g>
</g>
<g>
</g>
<g>
</g>
<g>
</g>
<g>
</g>
<g>
</g>
<g>
</g>
<g>
</g>
<g>
</g>
<g>
</g>
<g>
</g>
<g>
</g>
<g>
</g>
<g>
</g>
</svg>
