<?xml version="1.0" encoding="iso-8859-1"?>
<!-- Generator: Adobe Illustrator 19.0.0, SVG Export Plug-In . SVG Version: 6.00 Build 0)  -->
<svg version="1.1" id="Layer_1" xmlns="http://www.w3.org/2000/svg" xmlns:xlink="http://www.w3.org/1999/xlink" x="0px" y="0px"
	 viewBox="0 0 512 512" style="enable-background:new 0 0 512 512;" xml:space="preserve">
<g>
	<rect x="128.87" y="310.758" style="fill:#ffd801;" width="18.294" height="18.294"/>
	<rect x="174.592" y="310.758" style="fill:#ffd801;" width="18.294" height="18.294"/>
</g>
<g>
	<rect x="220.314" y="310.758" style="fill:#242D3C;" width="18.294" height="18.294"/>
	<rect x="266.061" y="310.758" style="fill:#242D3C;" width="18.294" height="18.294"/>
	<rect x="128.87" y="356.506" style="fill:#242D3C;" width="18.294" height="18.294"/>
	<rect x="174.592" y="356.506" style="fill:#242D3C;" width="18.294" height="18.294"/>
	<rect x="220.314" y="356.506" style="fill:#242D3C;" width="18.294" height="18.294"/>
	<rect x="266.061" y="356.506" style="fill:#242D3C;" width="18.294" height="18.294"/>
	<rect x="128.87" y="402.227" style="fill:#242D3C;" width="18.294" height="18.294"/>
	<rect x="174.592" y="402.227" style="fill:#242D3C;" width="18.294" height="18.294"/>
	<rect x="220.314" y="402.227" style="fill:#242D3C;" width="18.294" height="18.294"/>
	<rect x="266.061" y="402.227" style="fill:#242D3C;" width="18.294" height="18.294"/>
	<rect x="128.87" y="447.974" style="fill:#242D3C;" width="18.294" height="18.294"/>
	<rect x="174.592" y="447.974" style="fill:#242D3C;" width="18.294" height="18.294"/>
	<rect x="220.314" y="447.974" style="fill:#242D3C;" width="64.026" height="18.294"/>
	<path style="fill:#242D3C;" d="M330.089,512H83.123V265.032h246.968V512H330.089z M101.417,493.706h210.381V283.328H101.417
		C101.417,283.328,101.417,493.706,101.417,493.706z"/>
	<path style="fill:#242D3C;" d="M330.089,283.328H83.123V136.975h246.968v146.353H330.089z M101.417,265.032h210.381V155.269
		H101.417C101.417,155.269,101.417,265.032,101.417,265.032z"/>
</g>
<rect x="128.87" y="182.707" style="fill:#005792;" width="155.497" height="54.881"/>
<g>
	<rect x="247.757" y="201.011" style="fill:#FFFFFF;" width="18.294" height="18.294"/>
	<rect x="211.174" y="201.011" style="fill:#FFFFFF;" width="18.294" height="18.294"/>
	<rect x="174.592" y="201.011" style="fill:#FFFFFF;" width="18.294" height="18.294"/>
</g>
<g>
	<polygon style="fill:#242D3C;" points="428.877,475.412 357.53,475.412 357.53,457.119 410.583,457.119 410.583,307.338 
		428.877,307.338 	"/>
	<path style="fill:#242D3C;" d="M403.264,512h-54.881V142.336l27.441-27.441l27.441,27.441V512z M366.676,493.706h18.294V149.911
		l-9.147-9.147l-9.147,9.147V493.706z"/>
	<rect x="357.53" y="297.037" style="fill:#242D3C;" width="36.59" height="18.294"/>
	<rect x="366.669" y="109.499" style="fill:#242D3C;" width="18.294" height="18.33"/>
	<path style="fill:#242D3C;" d="M299.904,155.269H113.306V30.185L143.493,0l21.038,21.038L185.569,0l21.038,21.038L227.648,0
		l21.036,21.038L269.727,0l30.177,30.185V155.269z M131.602,136.975h150.011V37.76l-11.894-11.891l-21.038,21.038l-21.036-21.038
		l-21.041,21.038l-21.038-21.038l-21.038,21.038l-21.038-21.038L131.599,37.76v99.215H131.602z"/>
	<rect x="147.149" y="62.607" style="fill:#242D3C;" width="118.912" height="18.294"/>
	<rect x="147.149" y="99.195" style="fill:#242D3C;" width="59.469" height="18.294"/>
</g>
<g>
</g>
<g>
</g>
<g>
</g>
<g>
</g>
<g>
</g>
<g>
</g>
<g>
</g>
<g>
</g>
<g>
</g>
<g>
</g>
<g>
</g>
<g>
</g>
<g>
</g>
<g>
</g>
<g>
</g>
</svg>
