<?xml version="1.0" encoding="iso-8859-1"?>
<!-- Generator: Adobe Illustrator 19.0.0, SVG Export Plug-In . SVG Version: 6.00 Build 0)  -->
<svg version="1.1" id="Layer_1" xmlns="http://www.w3.org/2000/svg" xmlns:xlink="http://www.w3.org/1999/xlink" x="0px" y="0px"
	 viewBox="0 0 512.003 512.003" style="enable-background:new 0 0 512.003 512.003;" xml:space="preserve">
<path style="fill:#005792;" d="M384.069,197.637c0,44.644-36.206,80.845-80.842,80.845c-44.641,0-80.84-36.198-80.84-80.845
	s36.201-80.845,80.84-80.845C347.866,116.792,384.069,152.991,384.069,197.637z"/>
<g>
	<path style="fill:#FFFFFF;" d="M309.071,241.654H297.39c-7.068,0-13.719-2.747-18.729-7.744c-5.01-5.025-7.762-11.679-7.762-18.757
		h17.966c0,2.289,0.886,4.439,2.499,6.057c1.6,1.592,3.748,2.481,6.029,2.481h11.681c2.276,0,4.426-0.896,6.07-2.519
		c1.564-1.582,2.465-3.738,2.465-6.019c0-2.278-0.893-4.421-2.501-6.034c-1.613-1.608-3.761-2.499-6.034-2.499h-11.681
		c-7.089,0-13.747-2.762-18.744-7.775c-4.989-4.974-7.747-11.63-7.747-18.726c0-7.099,2.752-13.757,7.754-18.755
		c5.025-4.997,11.671-7.747,18.737-7.747h11.681c7.04,0,13.686,2.744,18.711,7.718c5.038,5.066,7.788,11.72,7.788,18.783h-17.964
		c0-2.284-0.893-4.439-2.511-6.065c-1.595-1.574-3.748-2.473-6.024-2.473h-11.681c-2.284,0-4.429,0.891-6.049,2.506
		c-1.592,1.592-2.478,3.735-2.478,6.031c0,2.289,0.886,4.426,2.486,6.026c1.62,1.628,3.761,2.511,6.042,2.511h11.681
		c7.068,0,13.719,2.755,18.737,7.754c5.01,5.028,7.759,11.679,7.759,18.744c0,7.045-2.742,13.699-7.726,18.721
		C322.765,238.915,316.116,241.654,309.071,241.654z"/>
	<rect x="294.246" y="148.585" style="fill:#FFFFFF;" width="17.971" height="14.019"/>
	<rect x="294.246" y="232.681" style="fill:#FFFFFF;" width="17.971" height="14.019"/>
</g>
<rect y="250.396" style="fill:#ffd801;" width="103.45" height="210.074"/>
<rect x="67.52" y="410.806" style="fill:#FFFFFF;" width="17.971" height="17.971"/>
<g>
	<path style="fill:#242D3C;" d="M293.916,486.723c-7.754,0-15.368-1.375-22.73-4.124l-134.277-53.832H103.45v-17.964h36.925
		l137.295,55.045c6.687,2.491,13.903,3.418,21.228,2.652c7.319-0.76,14.19-3.146,20.401-7.083l169.057-110.776
		c3.005-2.23,4.961-5.489,5.517-9.201c0.568-3.776-0.387-7.529-2.691-10.575l-0.271-0.358c-2.12-2.808-5.192-4.71-8.66-5.348
		c-3.453-0.637-7.017,0.028-10.007,1.887l-90.081,56.069l-9.495-15.25l90.089-56.074c6.815-4.232,14.904-5.763,22.774-4.296
		c7.88,1.459,14.884,5.783,19.72,12.183l0.271,0.358c5.235,6.932,7.406,15.473,6.121,24.061c-1.285,8.584-5.868,16.12-12.905,21.207
		l-0.338,0.23L329.027,476.518c-8.691,5.509-18.163,8.794-28.268,9.853C298.463,486.61,296.182,486.723,293.916,486.723z"/>
	<path style="fill:#242D3C;" d="M230.674,403.692H212.71c0-17.367,14.136-31.503,31.508-31.503H362.47
		c7.465,0,13.535-6.075,13.535-13.542s-6.07-13.545-13.535-13.545H241.592l-43.464-27.814c-8.758-5.601-18.248-9.917-28.211-12.831
		c-9.964-2.918-20.285-4.401-30.682-4.401H103.45v-17.966h35.789c12.109,0,24.131,1.728,35.73,5.125
		c11.592,3.387,22.646,8.412,32.842,14.94l39.04,24.983h115.622c17.367,0,31.501,14.134,31.501,31.508s-14.134,31.508-31.501,31.508
		H244.219C236.749,390.154,230.674,396.224,230.674,403.692z"/>
	<rect x="227.251" y="88.753" style="fill:#242D3C;" width="17.971" height="26.947"/>
	<rect x="336.845" y="55.519" style="fill:#242D3C;" width="17.971" height="41.318"/>
	<rect x="294.246" y="25.28" style="fill:#242D3C;" width="17.971" height="59.29"/>
</g>
<g>
</g>
<g>
</g>
<g>
</g>
<g>
</g>
<g>
</g>
<g>
</g>
<g>
</g>
<g>
</g>
<g>
</g>
<g>
</g>
<g>
</g>
<g>
</g>
<g>
</g>
<g>
</g>
<g>
</g>
</svg>
