<?xml version="1.0" encoding="iso-8859-1"?>
<!-- Generator: Adobe Illustrator 19.0.0, SVG Export Plug-In . SVG Version: 6.00 Build 0)  -->
<svg version="1.1" id="Layer_1" xmlns="http://www.w3.org/2000/svg" xmlns:xlink="http://www.w3.org/1999/xlink" x="0px" y="0px"
	 viewBox="0 0 512 512" style="enable-background:new 0 0 512 512;" xml:space="preserve">
<g>
	<path style="fill:#242D3C;" d="M256,512c-97.759,0-177.293-79.529-177.293-177.29c0-79.923,52.692-149.082,129.001-170.56V39.501
		h96.589v124.652c76.303,21.473,128.996,90.634,128.996,170.56C433.293,432.471,353.759,512,256,512z M225.362,57.155v120.773
		l-6.766,1.623C146.627,196.836,96.361,260.641,96.361,334.71c0,88.02,71.613,159.634,159.636,159.634
		c88.026,0,159.636-71.616,159.636-159.634c0-74.074-50.263-137.874-122.23-155.154l-6.766-1.623V57.155H225.362z"/>
	<path style="fill:#242D3C;" d="M305.119,57.165h-98.202c-15.77,0-28.6-12.828-28.6-28.6c0-15.752,12.831-28.564,28.6-28.564h98.199
		c15.752,0,28.564,12.813,28.564,28.564C333.683,44.337,320.87,57.165,305.119,57.165z M206.917,17.654
		c-6.034,0-10.944,4.897-10.944,10.911c0,6.034,4.91,10.944,10.944,10.944h98.199c6.019,0,10.911-4.91,10.911-10.944
		c0-6.013-4.892-10.911-10.911-10.911C305.116,17.654,206.917,17.654,206.917,17.654z"/>
	<rect x="216.525" y="131.43" style="fill:#242D3C;" width="24.476" height="17.654"/>
	<rect x="216.525" y="100.762" style="fill:#242D3C;" width="24.476" height="17.654"/>
	<rect x="216.525" y="70.131" style="fill:#242D3C;" width="24.476" height="17.654"/>
</g>
<path style="fill:#ffd801;" d="M247.503,211.123c-64.289,4.452-115.09,58.002-115.09,123.42c0,31.04,11.471,59.4,30.372,81.129
	l84.718-84.721V211.123z"/>
<path style="fill:#242D3C;" d="M259.758,343.201l-84.736,84.736c21.737,18.906,50.102,30.359,81.144,30.359
	c65.428,0,118.979-50.78,123.42-115.095L259.758,343.201L259.758,343.201z M256.164,440.643c-19.131,0-37.786-5.179-54.054-14.828
	l64.963-64.957h91.863C347.151,406.853,305.18,440.643,256.164,440.643z"/>
<path style="fill:#005792;" d="M264.835,325.88h114.749c-4.255-61.425-53.33-110.502-114.749-114.757L264.835,325.88L264.835,325.88
	z"/>
<g>
</g>
<g>
</g>
<g>
</g>
<g>
</g>
<g>
</g>
<g>
</g>
<g>
</g>
<g>
</g>
<g>
</g>
<g>
</g>
<g>
</g>
<g>
</g>
<g>
</g>
<g>
</g>
<g>
</g>
</svg>
