<?xml version="1.0" encoding="iso-8859-1"?>
<!-- Generator: Adobe Illustrator 19.0.0, SVG Export Plug-In . SVG Version: 6.00 Build 0)  -->
<svg version="1.1" id="Layer_1" xmlns="http://www.w3.org/2000/svg" xmlns:xlink="http://www.w3.org/1999/xlink" x="0px" y="0px"
	 viewBox="0 0 512 512" style="enable-background:new 0 0 512 512;" xml:space="preserve">
<g>
	<rect x="8.827" y="418.612" style="fill:#242D3C;" width="494.336" height="17.654"/>
	<polygon style="fill:#242D3C;" points="512,468.148 0,468.148 0,425.343 43.238,338.866 64.64,338.866 64.64,356.522 
		54.149,356.522 17.654,429.51 17.654,450.495 494.346,450.495 494.346,429.51 457.853,356.522 447.357,356.522 447.357,338.866 
		468.762,338.866 512,425.343 	"/>
	<rect x="414.618" y="459.316" style="fill:#242D3C;" width="17.654" height="31.895"/>
	<rect x="382.72" y="459.316" style="fill:#242D3C;" width="17.654" height="31.895"/>
	<rect x="111.624" y="459.316" style="fill:#242D3C;" width="17.654" height="31.895"/>
	<rect x="79.744" y="459.316" style="fill:#242D3C;" width="17.654" height="31.895"/>
	<rect x="414.618" y="148.361" style="fill:#242D3C;" width="17.654" height="239.206"/>
	<rect x="79.744" y="148.361" style="fill:#242D3C;" width="17.654" height="239.206"/>
	<polygon style="fill:#242D3C;" points="176.266,157.188 79.734,157.188 79.734,107.642 176.266,107.642 176.266,125.298 
		97.39,125.298 97.39,139.532 176.266,139.532 	"/>
	<polygon style="fill:#242D3C;" points="432.266,157.188 335.734,157.188 335.734,139.532 414.61,139.532 414.61,125.298 
		335.734,125.298 335.734,107.642 432.266,107.642 	"/>
</g>
<path style="fill:#005792;" d="M306.371,172.284c-8.968,18.834-28.116,31.89-50.371,31.89c-22.252,0-41.403-13.056-50.368-31.89
	h-93.151v191.36h287.035v-191.36L306.371,172.284L306.371,172.284z"/>
<g>
	<rect x="192.205" y="259.124" style="fill:#242D3C;" width="127.572" height="17.654"/>
	<rect x="64.64" y="378.728" style="fill:#242D3C;" width="382.72" height="17.654"/>
</g>
<g>
	<rect x="279.91" y="330.881" style="fill:#FFFFFF;" width="15.946" height="17.654"/>
	<rect x="248.013" y="330.881" style="fill:#FFFFFF;" width="15.951" height="17.654"/>
	<rect x="216.141" y="330.881" style="fill:#FFFFFF;" width="15.944" height="17.654"/>
</g>
<path style="fill:#ffd801;" d="M286.016,148.361c0,16.576-13.45,30.013-30.016,30.013s-30.013-13.437-30.013-30.013
	c0-16.573,13.448-30.013,30.013-30.013S286.016,131.788,286.016,148.361z"/>
<g>
	<path style="fill:#242D3C;" d="M256,213.001c-35.645,0-64.64-28.997-64.64-64.64c0-35.64,28.997-64.64,64.64-64.64
		s64.643,29,64.643,64.64C320.643,184.004,291.645,213.001,256,213.001z M256,101.375c-25.907,0-46.986,21.079-46.986,46.986
		c0,25.91,21.079,46.986,46.986,46.986s46.986-21.076,46.986-46.986C302.986,122.454,281.907,101.375,256,101.375z"/>
	<rect x="247.168" y="20.788" style="fill:#242D3C;" width="17.654" height="31.892"/>
	<rect x="279.066" y="36.737" style="fill:#242D3C;" width="17.654" height="31.892"/>
	<rect x="215.27" y="36.737" style="fill:#242D3C;" width="17.656" height="31.892"/>
</g>
<g>
</g>
<g>
</g>
<g>
</g>
<g>
</g>
<g>
</g>
<g>
</g>
<g>
</g>
<g>
</g>
<g>
</g>
<g>
</g>
<g>
</g>
<g>
</g>
<g>
</g>
<g>
</g>
<g>
</g>
</svg>
