<?xml version="1.0" encoding="iso-8859-1"?>
<!-- Generator: Adobe Illustrator 19.0.0, SVG Export Plug-In . SVG Version: 6.00 Build 0)  -->
<svg version="1.1" id="Layer_1" xmlns="http://www.w3.org/2000/svg" xmlns:xlink="http://www.w3.org/1999/xlink" x="0px" y="0px"
	 viewBox="0 0 512 512" style="enable-background:new 0 0 512 512;" xml:space="preserve">
<g>
	<path style="fill:#242D3C;" d="M413.435,390.17H98.565v-50.143h314.87V390.17z M116.221,372.516h279.56v-14.833h-279.56V372.516z"
		/>
	<path style="fill:#242D3C;" d="M345.464,512H166.531l-45.036-139.484h269.018L345.464,512z M179.382,494.346h153.234
		l33.641-104.174H145.748L179.382,494.346z"/>
	<rect x="247.168" y="172.928" style="fill:#242D3C;" width="17.654" height="175.923"/>
</g>
<g>
	<path style="fill:#005792;" d="M98.621,260.897c0,10.322,3.945,20.646,11.82,28.524c7.882,7.882,18.199,11.822,28.531,11.822
		h81.999v-40.346c0-10.332-3.937-20.657-11.822-28.534c-7.875-7.882-18.199-11.82-28.524-11.82H98.621V260.897z"/>
	<path style="fill:#005792;" d="M413.373,260.897c0,10.322-3.937,20.646-11.82,28.524c-7.877,7.882-18.199,11.822-28.526,11.822
		h-82.007v-40.346c0-10.332,3.945-20.657,11.822-28.534c7.882-7.882,18.204-11.82,28.531-11.82h81.999V260.897z"/>
</g>
<path style="fill:#242D3C;" d="M413.435,181.763H98.565V0h314.87V181.763z M116.221,164.106h279.56V17.654h-279.56V164.106z"/>
<path style="fill:#005792;" d="M353.974,29.174H158.001c0,16.704-13.524,30.254-30.241,30.254v62.904
	c16.717,0,30.241,13.55,30.241,30.259h195.973c0-16.707,13.586-30.259,30.282-30.259V59.428
	C367.557,59.428,353.974,45.875,353.974,29.174z M256,140.582c-27.441,0-49.697-22.259-49.697-49.7
	c0-27.446,22.254-49.705,49.697-49.705c27.456,0,49.669,22.259,49.669,49.705C305.669,118.323,283.456,140.582,256,140.582z"/>
<g>
	<path style="fill:#242D3C;" d="M259.986,123.497h-7.964c-5.486,0-10.675-2.127-14.607-5.993c-3.973-4.058-6.095-9.242-6.095-14.717
		h17.654c0,0.832,0.335,1.628,0.937,2.248c0.663,0.648,1.526,0.806,2.112,0.806h7.964c0.814,0,1.633-0.34,2.243-0.937
		c0.497-0.499,0.788-1.239,0.788-2.117c0-0.609-0.143-1.477-0.817-2.145c-0.596-0.586-1.408-0.932-2.212-0.932h-7.964
		c-5.491,0-10.685-2.145-14.625-6.034c-3.942-3.973-6.08-9.172-6.08-14.705c0-5.468,2.125-10.65,5.972-14.587
		c4.055-3.994,9.244-6.121,14.73-6.121h7.964c5.478,0,10.662,2.127,14.6,5.99c3.953,3.973,6.085,9.17,6.085,14.717h-17.654
		c0-0.876-0.294-1.613-0.87-2.194c-0.527-0.517-1.344-0.858-2.161-0.858h-7.964c-0.586,0-1.449,0.161-2.232,0.929
		c-0.653,0.673-0.817,1.536-0.817,2.122c0,0.486,0.118,1.421,0.896,2.207c0.724,0.714,1.577,0.876,2.153,0.876h7.964
		c5.486,0,10.673,2.138,14.618,6.024c3.917,3.881,6.067,9.098,6.067,14.707c0,5.55-2.132,10.755-6.006,14.648
		C270.648,121.372,265.462,123.497,259.986,123.497z"/>
	<rect x="247.168" y="54.881" style="fill:#242D3C;" width="17.654" height="12.211"/>
	<rect x="247.168" y="114.668" style="fill:#242D3C;" width="17.654" height="12.196"/>
	<rect x="323.891" y="82.048" style="fill:#242D3C;" width="33.902" height="17.654"/>
	<rect x="154.214" y="82.048" style="fill:#242D3C;" width="33.869" height="17.654"/>
</g>
<g>
</g>
<g>
</g>
<g>
</g>
<g>
</g>
<g>
</g>
<g>
</g>
<g>
</g>
<g>
</g>
<g>
</g>
<g>
</g>
<g>
</g>
<g>
</g>
<g>
</g>
<g>
</g>
<g>
</g>
</svg>
