<?xml version="1.0" encoding="iso-8859-1"?>
<!-- Generator: Adobe Illustrator 19.0.0, SVG Export Plug-In . SVG Version: 6.00 Build 0)  -->
<svg version="1.1" id="Layer_1" xmlns="http://www.w3.org/2000/svg" xmlns:xlink="http://www.w3.org/1999/xlink" x="0px" y="0px"
	 viewBox="0 0 512 512" style="enable-background:new 0 0 512 512;" xml:space="preserve">
<g>
	<polygon style="fill:#ffd801;" points="182.127,165.527 182.127,132.078 329.883,132.078 329.883,165.527 255.999,239.404 	"/>
	<polygon style="fill:#ffd801;" points="255.999,369.843 182.127,443.72 329.883,443.72 	"/>
</g>
<g>
	<polygon style="fill:#242D3C;" points="373.313,443.72 353.622,443.72 353.622,339.338 271.615,257.347 353.622,175.35 
		353.622,68.278 373.313,68.278 373.313,183.508 299.468,257.347 373.313,331.177 	"/>
	<polygon style="fill:#242D3C;" points="158.388,443.72 138.694,443.72 138.694,331.18 212.527,257.347 138.694,183.508 
		138.694,68.278 158.388,68.278 158.388,175.355 240.372,257.347 158.388,339.336 	"/>
	<rect x="392.447" y="68.278" style="fill:#242D3C;" width="19.692" height="375.45"/>
	<rect x="99.864" y="68.278" style="fill:#242D3C;" width="19.692" height="375.45"/>
	<path style="fill:#242D3C;" d="M445.713,53.279H66.285V0h379.43v53.279H445.713z M85.976,33.585h340.045V19.692H85.976V33.585z"/>
	<path style="fill:#242D3C;" d="M445.713,512H66.285v-53.279h379.43V512H445.713z M85.976,492.308h340.045v-13.893H85.976V492.308z"
		/>
</g>
<g>
</g>
<g>
</g>
<g>
</g>
<g>
</g>
<g>
</g>
<g>
</g>
<g>
</g>
<g>
</g>
<g>
</g>
<g>
</g>
<g>
</g>
<g>
</g>
<g>
</g>
<g>
</g>
<g>
</g>
</svg>
