<?xml version="1.0" encoding="iso-8859-1"?>
<!-- Generator: Adobe Illustrator 19.0.0, SVG Export Plug-In . SVG Version: 6.00 Build 0)  -->
<svg version="1.1" id="Layer_1" xmlns="http://www.w3.org/2000/svg" xmlns:xlink="http://www.w3.org/1999/xlink" x="0px" y="0px"
	 viewBox="0 0 512.005 512.005" style="enable-background:new 0 0 512.005 512.005;" xml:space="preserve">
<g>
	<rect x="306.894" y="406.63" style="fill:#242D3C;" width="17.669" height="64.358"/>
	<rect x="187.444" y="406.63" style="fill:#242D3C;" width="17.669" height="64.358"/>
	<rect x="175.54" y="397.798" style="fill:#242D3C;" width="160.911" height="17.667"/>
	<rect x="175.54" y="429.977" style="fill:#242D3C;" width="160.911" height="17.669"/>
	<rect x="175.54" y="462.157" style="fill:#242D3C;" width="160.911" height="17.669"/>
	<rect x="220.238" y="494.336" style="fill:#242D3C;" width="71.514" height="17.669"/>
	<path style="fill:#242D3C;" d="M324.553,415.457H187.426v-8.835c0-30.876-13.128-60.559-36.022-81.441l-0.817-0.709
		c-1.116-0.973-2.212-1.935-3.292-2.839l-0.287-0.253c-33.508-30.633-52.726-74.161-52.726-119.424
		c0-89.172,72.548-161.718,161.718-161.718c89.172,0,161.72,72.545,161.72,161.718c0,45.253-19.228,88.788-52.751,119.429
		c-1.6,1.357-2.97,2.588-4.321,3.812c-22.94,20.826-36.096,50.504-36.096,81.428L324.553,415.457L324.553,415.457z M204.786,397.79
		h102.405c2.286-32.671,17.152-63.503,41.58-85.678c1.508-1.367,3.036-2.734,4.536-4.004
		c29.609-27.072,46.743-65.851,46.743-106.156c0-79.427-64.62-144.049-144.051-144.049s-144.046,64.62-144.046,144.049
		c0,40.253,17.075,78.976,46.845,106.263c1.124,0.945,2.268,1.948,3.423,2.957l0.945,0.824
		C187.662,334.341,202.507,365.179,204.786,397.79z"/>
</g>
<path style="fill:#005792;" d="M372.123,201.953c0,64.115-52.014,116.114-116.127,116.114c-64.131,0-116.114-52.001-116.114-116.114
	c0-64.125,51.983-116.119,116.114-116.119C320.109,85.831,372.123,137.828,372.123,201.953z"/>
<g>
	<path style="fill:#242D3C;" d="M261.352,242.703h-10.675c-6.546,0-12.751-2.54-17.472-7.16c-4.756-4.877-7.293-11.08-7.293-17.615
		h17.669c0,1.902,0.755,3.727,2.13,5.135c1.249,1.216,3.064,1.971,4.966,1.971h10.675c1.907,0,3.748-0.763,5.179-2.153
		c1.518-1.544,1.866-3.561,1.866-4.954c0-1.152-0.259-3.341-1.964-5.043c-1.352-1.329-3.177-2.086-5.084-2.086h-10.675
		c-6.582,0-12.8-2.57-17.51-7.24c-4.7-4.749-7.252-10.964-7.252-17.567c0-6.536,2.54-12.739,7.15-17.459
		c4.854-4.764,11.062-7.316,17.615-7.316h10.675c6.528,0,12.739,2.54,17.482,7.15c4.71,4.772,7.232,10.985,7.232,17.626h-17.667
		c0-1.39-0.351-3.4-2.01-5.079c-1.298-1.26-3.133-2.028-5.038-2.028h-10.675c-1.894,0-3.709,0.755-5.105,2.122
		c-1.236,1.27-1.992,3.085-1.992,4.984c0,1.915,0.737,3.72,2.081,5.079c1.318,1.3,3.121,2.056,5.015,2.056h10.675
		c6.561,0,12.782,2.555,17.513,7.196c4.662,4.649,7.201,10.88,7.201,17.603c0,6.641-2.516,12.854-7.094,17.498
		C274.08,240.174,267.874,242.703,261.352,242.703z"/>
	<rect x="247.169" y="153.702" style="fill:#242D3C;" width="17.669" height="16.358"/>
	<rect x="247.169" y="233.881" style="fill:#242D3C;" width="17.669" height="16.343"/>
</g>
<path style="fill:#FFFFFF;" d="M255.999,288.74c-47.862,0-86.799-38.932-86.799-86.787s38.935-86.789,86.799-86.789
	s86.807,38.935,86.807,86.789C342.803,249.81,303.86,288.74,255.999,288.74z M255.999,132.833c-38.118,0-69.128,31.007-69.128,69.12
	c0,38.111,31.012,69.117,69.128,69.117c38.121,0,69.135-31.007,69.135-69.117C325.134,163.84,294.12,132.833,255.999,132.833z"/>
<path style="fill:#242D3C;" d="M133.27,362.317c-4.641-3.556-9.183-7.357-13.501-11.305l11.354-12.419
	c3.958,3.617,8.12,7.101,12.38,10.365L133.27,362.317z M379.007,362.125l-10.266-13.343c4.252-3.267,8.415-6.764,12.362-10.388
	l11.382,12.398C388.179,354.747,383.643,358.559,379.007,362.125z M107.301,338.585c-3.96-4.308-7.78-8.837-11.348-13.463
	l13.33-10.278c3.272,4.244,6.774,8.399,10.409,12.347L107.301,338.585z M404.932,338.332l-12.411-11.364
	c3.622-3.96,7.114-8.123,10.373-12.37l13.35,10.248C412.696,329.477,408.887,334.013,404.932,338.332z M85.823,310.725
	c-3.156-4.931-6.134-10.056-8.842-15.227l14.912-7.805c2.478,4.741,5.204,9.439,8.1,13.955L85.823,310.725z M426.349,310.428
	l-14.185-9.055c2.877-4.508,5.599-9.213,8.082-13.978l14.922,7.785C432.457,300.377,429.49,305.505,426.349,310.428z M69.51,279.554
	c-2.25-5.412-4.285-10.975-6.047-16.545l16.041-5.074c1.615,5.097,3.479,10.194,5.542,15.15L69.51,279.554z M442.623,279.222
	l-15.544-6.449c2.058-4.956,3.914-10.056,5.522-15.163l16.049,5.053C446.895,268.244,444.865,273.817,442.623,279.222z
	 M58.886,246.006c-1.262-5.691-2.296-11.523-3.067-17.334l16.684-2.212c0.707,5.33,1.654,10.673,2.813,15.892L58.886,246.006z
	 M453.211,245.652l-16.435-3.633c1.16-5.238,2.099-10.586,2.79-15.89l16.691,2.173C455.497,234.099,454.473,239.936,453.211,245.652
	z M54.255,210.928c-0.138-3.182-0.2-6.157-0.2-9.119c0-2.772,0.054-5.524,0.166-8.269l16.814,0.681
	c-0.105,2.519-0.154,5.048-0.154,7.588c0,2.719,0.059,5.453,0.179,8.197l0.018,0.407L54.255,210.928z M457.76,210.775l-16.812-0.735
	c0.118-2.637,0.172-5.284,0.172-7.944c0-2.721-0.054-5.455-0.179-8.2l-0.013-0.366l16.786-1.226l0.044,0.863
	c0.131,2.988,0.192,5.967,0.192,8.929C457.947,205.005,457.883,207.897,457.76,210.775z M72.395,178.14l-16.696-2.143
	c0.748-5.801,1.761-11.635,3.011-17.352l16.44,3.599C74.003,167.478,73.074,172.828,72.395,178.14z M439.448,177.067
	c-0.717-5.322-1.669-10.668-2.844-15.885l16.42-3.681c1.277,5.693,2.319,11.52,3.1,17.326L439.448,177.067z M79.287,146.644
	l-16.061-5.025c1.751-5.581,3.766-11.156,5.998-16.568l15.557,6.418C82.735,136.43,80.884,141.535,79.287,146.644z M432.385,145.613
	c-1.628-5.107-3.497-10.202-5.571-15.142l15.524-6.502c2.255,5.394,4.306,10.957,6.08,16.532L432.385,145.613z M91.588,116.831
	l-14.94-7.752c2.688-5.179,5.647-10.319,8.786-15.265l14.205,9.021C96.759,107.371,94.048,112.082,91.588,116.831z M419.928,115.871
	c-2.493-4.739-5.225-9.426-8.125-13.932l14.149-9.108c3.169,4.918,6.149,10.04,8.87,15.209L419.928,115.871z M108.881,89.6
	L95.51,79.378c3.548-4.636,7.345-9.18,11.284-13.507l12.436,11.336C115.618,81.172,112.132,85.345,108.881,89.6z M402.487,88.755
	c-3.277-4.237-6.784-8.387-10.422-12.324l12.362-11.415c3.971,4.296,7.793,8.817,11.366,13.44L402.487,88.755z M130.623,65.761
	l-11.407-12.378c4.303-3.963,8.832-7.788,13.45-11.359l10.291,13.317C138.72,58.616,134.57,62.123,130.623,65.761z M380.602,65.049
	c-3.963-3.602-8.133-7.081-12.398-10.34l10.207-13.376c4.652,3.548,9.203,7.345,13.522,11.277L380.602,65.049z M156.148,46.041
	l-9.091-14.159c4.925-3.164,10.043-6.147,15.217-8.86l7.821,14.902C165.354,40.409,160.662,43.143,156.148,46.041z M354.95,45.486
	c-4.529-2.867-9.234-5.573-13.998-8.041l7.736-14.943c5.197,2.693,10.332,5.642,15.268,8.771L354.95,45.486z M184.692,31.06
	l-6.482-15.526c5.407-2.26,10.972-4.296,16.532-6.067l5.094,16.041C194.743,27.126,189.643,28.997,184.692,31.06z M326.301,30.656
	c-4.959-2.038-10.066-3.884-15.181-5.481l5.012-16.064c5.583,1.743,11.159,3.756,16.573,5.985L326.301,30.656z M215.415,21.304
	l-3.674-16.428c5.688-1.27,11.52-2.309,17.334-3.087l2.23,16.681C225.975,19.184,220.627,20.137,215.415,21.304z M295.522,21.053
	c-5.225-1.139-10.575-2.061-15.903-2.739l2.125-16.694c5.814,0.742,11.651,1.746,17.359,2.988L295.522,21.053z M247.374,17.031
	l-0.748-16.814l0.581-0.023c5.737-0.248,11.382-0.256,16.993-0.038l-0.655,16.817c-5.151-0.202-10.353-0.197-15.601,0.031
	L247.374,17.031z"/>
<g>
</g>
<g>
</g>
<g>
</g>
<g>
</g>
<g>
</g>
<g>
</g>
<g>
</g>
<g>
</g>
<g>
</g>
<g>
</g>
<g>
</g>
<g>
</g>
<g>
</g>
<g>
</g>
<g>
</g>
</svg>
