<?xml version="1.0" encoding="iso-8859-1"?>
<!-- Generator: Adobe Illustrator 19.0.0, SVG Export Plug-In . SVG Version: 6.00 Build 0)  -->
<svg version="1.1" id="Layer_1" xmlns="http://www.w3.org/2000/svg" xmlns:xlink="http://www.w3.org/1999/xlink" x="0px" y="0px"
	 viewBox="0 0 512.003 512.003" style="enable-background:new 0 0 512.003 512.003;" xml:space="preserve">
<g>
	<rect x="142.029" y="219.188" style="fill:#ffd801;" width="85.88" height="209.357"/>
	<rect x="284.083" y="301.774" style="fill:#ffd801;" width="85.88" height="126.771"/>
	<rect x="426.138" y="171.905" style="fill:#ffd801;" width="85.865" height="256.64"/>
	<rect y="365.16" style="fill:#ffd801;" width="85.88" height="63.386"/>
</g>
<g>
	
		<rect x="188.321" y="138.01" transform="matrix(-0.7071 -0.7071 0.7071 -0.7071 332.2196 433.9511)" style="fill:#242D3C;" width="135.325" height="20.321"/>
	
		<rect x="387.864" y="80.522" transform="matrix(-0.707 -0.7072 0.7072 -0.707 574.6362 534.4313)" style="fill:#242D3C;" width="20.321" height="135.318"/>
	
		<rect x="103.773" y="80.495" transform="matrix(-0.7071 -0.7071 0.7071 -0.7071 89.6992 333.5674)" style="fill:#242D3C;" width="20.321" height="135.423"/>
	<path style="fill:#242D3C;" d="M42.939,262.13C19.259,262.13,0,242.866,0,219.188s19.259-42.939,42.939-42.939
		s42.941,19.264,42.941,42.939C85.88,242.866,66.621,262.13,42.939,262.13z M42.939,196.573c-12.472,0-22.618,10.145-22.618,22.615
		c0,12.472,10.145,22.618,22.618,22.618s22.618-10.145,22.618-22.618C65.556,206.719,55.414,196.573,42.939,196.573z"/>
	<path style="fill:#242D3C;" d="M184.98,120.091c-23.672,0-42.939-19.261-42.939-42.939c0-23.68,19.267-42.944,42.939-42.944
		c23.68,0,42.941,19.264,42.941,42.944C227.922,100.827,208.66,120.091,184.98,120.091z M184.98,54.529
		c-12.472,0-22.618,10.148-22.618,22.62s10.145,22.618,22.618,22.618s22.618-10.145,22.618-22.618
		C207.598,64.677,197.453,54.529,184.98,54.529z"/>
	<path style="fill:#242D3C;" d="M327.027,262.13c-23.677,0-42.939-19.261-42.939-42.939s19.261-42.939,42.939-42.939
		c23.677,0,42.939,19.264,42.939,42.939C369.969,242.866,350.705,262.13,327.027,262.13z M327.027,196.573
		c-12.472,0-22.618,10.145-22.618,22.615c0,12.472,10.145,22.618,22.618,22.618s22.618-10.145,22.618-22.618
		C349.645,206.719,339.5,196.573,327.027,196.573z"/>
	<path style="fill:#242D3C;" d="M469.074,120.091c-23.677,0-42.939-19.261-42.939-42.939s19.261-42.941,42.939-42.941
		c23.67,0,42.926,19.264,42.926,42.941S492.746,120.091,469.074,120.091z M469.074,54.532c-12.472,0-22.618,10.145-22.618,22.618
		s10.145,22.618,22.618,22.618c12.465,0,22.602-10.145,22.602-22.618C491.679,64.677,481.541,54.532,469.074,54.532z"/>
	<rect x="1.969" y="457.473" style="fill:#242D3C;" width="508.083" height="20.321"/>
</g>
<g>
</g>
<g>
</g>
<g>
</g>
<g>
</g>
<g>
</g>
<g>
</g>
<g>
</g>
<g>
</g>
<g>
</g>
<g>
</g>
<g>
</g>
<g>
</g>
<g>
</g>
<g>
</g>
<g>
</g>
</svg>
