<?xml version="1.0" encoding="iso-8859-1"?>
<!-- Generator: Adobe Illustrator 19.0.0, SVG Export Plug-In . SVG Version: 6.00 Build 0)  -->
<svg version="1.1" id="Layer_1" xmlns="http://www.w3.org/2000/svg" xmlns:xlink="http://www.w3.org/1999/xlink" x="0px" y="0px"
	 viewBox="0 0 512 512" style="enable-background:new 0 0 512 512;" xml:space="preserve">
<g>
	<path style="fill:#242D3C;" d="M497.244,258.211C443.18,177.478,352.993,129.279,256,129.279
		c-57.754,0-113.556,16.945-161.382,49.001l-9.892-14.748C135.491,129.504,194.714,111.52,256,111.52
		c102.93,0,198.63,51.144,256,136.806L497.244,258.211z"/>
	<path style="fill:#242D3C;" d="M14.761,258.205L0,248.334c16.822-25.147,37.125-47.567,60.347-66.637l11.274,13.722
		C49.743,213.385,30.612,234.508,14.761,258.205z"/>
</g>
<circle style="fill:#005792;" cx="256" cy="280.293" r="111.078"/>
<g>
	<path style="fill:#242D3C;" d="M261.135,319.697h-10.227c-6.403,0-12.454-2.491-17.037-7.007
		c-4.603-4.687-7.078-10.732-7.078-17.121h17.759c0,1.71,0.668,3.338,1.889,4.58c1.137,1.121,2.762,1.792,4.467,1.792h10.227
		c1.669,0,3.359-0.704,4.616-1.933c1.385-1.4,1.7-3.197,1.7-4.439c0-1.024-0.233-2.975-1.769-4.508
		c-1.203-1.18-2.883-1.887-4.544-1.887h-10.227c-6.41,0-12.467-2.499-17.052-7.035c-4.58-4.616-7.066-10.675-7.066-17.121
		c0-6.364,2.473-12.401,6.961-16.996c4.69-4.634,10.744-7.124,17.155-7.124h10.227c6.362,0,12.411,2.476,17.014,6.976
		c4.593,4.646,7.058,10.698,7.058,17.144h-17.759c0-1.236-0.315-3.028-1.82-4.554c-1.137-1.103-2.819-1.807-4.495-1.807h-10.227
		c-1.71,0-3.331,0.671-4.564,1.889c-1.116,1.144-1.792,2.772-1.792,4.472c0,1.731,0.658,3.351,1.856,4.559
		c1.18,1.165,2.803,1.841,4.503,1.841h10.227c6.269,0,12.477,2.552,17.029,7.009c4.559,4.544,7.043,10.614,7.043,17.142
		c0,6.472-2.468,12.531-6.953,17.052C273.6,317.157,267.397,319.697,261.135,319.697z"/>
	<rect x="247.142" y="234.111" style="fill:#242D3C;" width="17.759" height="15.66"/>
	<rect x="247.142" y="310.808" style="fill:#242D3C;" width="17.759" height="15.639"/>
</g>
<path style="fill:#FFFFFF;" d="M256,363.752c-46.024,0-83.466-37.443-83.466-83.466c0-46.026,37.443-83.466,83.466-83.466
	c46.026,0,83.466,37.44,83.466,83.466C339.466,326.309,302.026,363.752,256,363.752z M256,214.578
	c-36.232,0-65.708,29.476-65.708,65.708c0,36.229,29.476,65.705,65.708,65.705s65.708-29.476,65.708-65.705
	C321.708,244.054,292.232,214.578,256,214.578z"/>
<path style="fill:#242D3C;" d="M256,400.48c-86.705,0-167.311-43.085-215.621-115.254l-3.308-4.938l3.308-4.941
	C88.689,203.181,169.295,160.096,256,160.096c86.694,0,167.301,43.087,215.624,115.251l3.308,4.941l-3.308,4.938
	C423.301,357.393,342.692,400.48,256,400.48z M58.529,280.285C103.862,344.541,177.231,382.719,256,382.719
	c78.761,0,152.128-38.177,197.468-102.433C408.128,216.027,334.764,177.855,256,177.855
	C177.231,177.855,103.859,216.027,58.529,280.285z"/>
<g>
</g>
<g>
</g>
<g>
</g>
<g>
</g>
<g>
</g>
<g>
</g>
<g>
</g>
<g>
</g>
<g>
</g>
<g>
</g>
<g>
</g>
<g>
</g>
<g>
</g>
<g>
</g>
<g>
</g>
</svg>
