<?xml version="1.0" encoding="iso-8859-1"?>
<!-- Generator: Adobe Illustrator 19.0.0, SVG Export Plug-In . SVG Version: 6.00 Build 0)  -->
<svg version="1.1" id="Layer_1" xmlns="http://www.w3.org/2000/svg" xmlns:xlink="http://www.w3.org/1999/xlink" x="0px" y="0px"
	 viewBox="0 0 512 512" style="enable-background:new 0 0 512 512;" xml:space="preserve">
<g>
	<path style="fill:#242D3C;" d="M256.051,292.385c-66.212,0-120.079-53.868-120.079-120.079
		c0-66.217,53.868-120.084,120.079-120.084s120.074,53.868,120.074,120.082C376.125,238.515,322.263,292.385,256.051,292.385z
		 M256.051,68.739c-57.106,0-103.565,46.456-103.565,103.567c0,57.103,46.456,103.562,103.565,103.562
		c57.103,0,103.56-46.456,103.56-103.565C359.611,115.197,313.155,68.739,256.051,68.739z"/>
	<rect x="247.782" y="284.134" style="fill:#242D3C;" width="16.517" height="44.16"/>
	<path style="fill:#242D3C;" d="M256.051,459.779c-8.177,0-15.867-3.187-21.652-8.975c-5.791-5.791-8.973-13.481-8.968-21.655
		V320.031h61.245v109.125c-0.008,8.179-3.192,15.864-8.975,21.647C271.91,456.589,264.223,459.779,256.051,459.779z
		 M241.948,336.545v92.611c-0.003,3.766,1.464,7.304,4.129,9.971c2.668,2.668,6.211,4.137,9.974,4.137
		c3.761,0,7.304-1.472,9.974-4.14c2.665-2.665,4.137-6.208,4.137-9.971v-92.608L241.948,336.545L241.948,336.545z"/>
</g>
<path style="fill:#005792;" d="M317.322,225.677c27.756-31.882,26.481-80.287-3.866-110.628c-14.4-14.4-32.878-22.236-51.722-23.552
	v78.595L317.322,225.677z"/>
<path style="fill:#ffd801;" d="M250.358,170.094l0.003-78.612c-18.849,1.318-37.322,9.165-51.722,23.565
	c-30.344,30.346-31.629,78.735-3.866,110.633L250.358,170.094z"/>
<g>
	<path style="fill:#242D3C;" d="M256.046,180.493l-53.228,53.225c15.232,13.258,34.232,19.889,53.23,19.889
		c18.995,0,37.996-6.625,53.228-19.881L256.046,180.493z M228.813,231.084l27.233-27.233l27.241,27.238
		c-8.461,3.922-17.748,6.001-27.236,6.001C246.556,237.089,237.271,235.013,228.813,231.084z"/>
	
		<rect x="440.11" y="253.257" transform="matrix(-0.7071 -0.7071 0.7071 -0.7071 560.9894 810.5581)" style="fill:#242D3C;" width="16.514" height="71.674"/>
	
		<rect x="321.989" y="274.606" transform="matrix(-0.7072 -0.707 0.707 -0.7072 425.8946 742.1069)" style="fill:#242D3C;" width="89.246" height="16.52"/>
	<path style="fill:#242D3C;" d="M410.601,352.699c-14.244,0-25.838-11.592-25.838-25.846c0-14.244,11.592-25.833,25.838-25.833
		c14.257,0,25.859,11.587,25.859,25.833C436.457,341.107,424.858,352.699,410.601,352.699z M410.601,317.537
		c-5.143,0-9.323,4.183-9.323,9.318c0,5.146,4.18,9.331,9.323,9.331c5.153,0,9.341-4.186,9.341-9.331
		C419.942,321.72,415.752,317.537,410.601,317.537z"/>
	<path style="fill:#242D3C;" d="M486.162,277.153c-14.252,0-25.848-11.587-25.848-25.83c0-14.252,11.594-25.846,25.848-25.846
		c14.246,0,25.838,11.594,25.838,25.846C512,265.564,500.411,277.153,486.162,277.153z M486.162,241.994
		c-5.143,0-9.331,4.188-9.331,9.329c0,5.135,4.188,9.313,9.331,9.313c5.14,0,9.324-4.178,9.324-9.313
		C495.485,246.182,491.302,241.994,486.162,241.994z"/>
	
		<rect x="27.761" y="280.822" transform="matrix(-0.7071 -0.7071 0.7071 -0.7071 -95.8458 538.4606)" style="fill:#242D3C;" width="71.669" height="16.517"/>
	
		<rect x="137.119" y="238.255" transform="matrix(-0.7071 -0.7071 0.7071 -0.7071 48.1463 585.701)" style="fill:#242D3C;" width="16.514" height="89.248"/>
	<path style="fill:#242D3C;" d="M101.399,352.699c-14.257,0-25.859-11.592-25.859-25.846c0-14.244,11.599-25.833,25.859-25.833
		c14.244,0,25.833,11.587,25.833,25.833C127.232,341.107,115.645,352.699,101.399,352.699z M101.399,317.537
		c-5.156,0-9.341,4.183-9.341,9.318c0,5.146,4.188,9.331,9.341,9.331c5.135,0,9.316-4.186,9.316-9.331
		C110.717,321.72,106.534,317.537,101.399,317.537z"/>
	<path style="fill:#242D3C;" d="M25.838,277.153C11.589,277.153,0,265.564,0,251.323c0-14.252,11.589-25.846,25.838-25.846
		s25.838,11.594,25.838,25.846C51.679,265.564,40.087,277.153,25.838,277.153z M25.838,241.994c-5.143,0-9.324,4.188-9.324,9.329
		c0,5.135,4.18,9.313,9.324,9.313s9.324-4.178,9.324-9.313C35.162,246.182,30.981,241.994,25.838,241.994z"/>
</g>
<g>
</g>
<g>
</g>
<g>
</g>
<g>
</g>
<g>
</g>
<g>
</g>
<g>
</g>
<g>
</g>
<g>
</g>
<g>
</g>
<g>
</g>
<g>
</g>
<g>
</g>
<g>
</g>
<g>
</g>
</svg>
