<?xml version="1.0" encoding="iso-8859-1"?>
<!-- Generator: Adobe Illustrator 19.0.0, SVG Export Plug-In . SVG Version: 6.00 Build 0)  -->
<svg version="1.1" id="Layer_1" xmlns="http://www.w3.org/2000/svg" xmlns:xlink="http://www.w3.org/1999/xlink" x="0px" y="0px"
	 viewBox="0 0 512 512" style="enable-background:new 0 0 512 512;" xml:space="preserve">
<g>
	<polygon style="fill:#242D3C;" points="331.694,512 180.298,512 180.298,461.396 199.795,461.396 199.795,492.503 312.197,492.503 
		312.197,461.396 331.694,461.396 	"/>
	<rect x="152.422" y="492.493" style="fill:#242D3C;" width="207.171" height="19.497"/>
	<path style="fill:#242D3C;" d="M489.974,392.233H22.026V94.541c0-6.828,2.662-13.253,7.493-18.084
		c4.762-4.815,11.197-7.493,18.089-7.493h71.905v19.497H47.611c-0.952,0-2.765,0.225-4.257,1.741
		c-1.196,1.193-1.828,2.721-1.828,4.342v278.193h428.951V94.541c0-1.618-0.632-3.146-1.784-4.298
		c-1.541-1.556-3.348-1.782-4.298-1.782h-71.908V68.964h71.908c6.889,0,13.325,2.678,18.125,7.537
		c4.792,4.79,7.455,11.215,7.455,18.043V392.233z"/>
	<path style="fill:#242D3C;" d="M464.397,444.974H47.598c-6.866,0-13.294-2.665-18.099-7.501c-4.803-4.785-7.47-11.213-7.47-18.068
		v-46.669h467.945v46.671c0,6.856-2.67,13.281-7.519,18.112C477.696,442.309,471.268,444.974,464.397,444.974z M41.526,392.233
		v27.174c0,1.631,0.63,3.151,1.766,4.288c1.549,1.562,3.359,1.782,4.306,1.782h416.799c0.945,0,2.757-0.22,4.26-1.736
		c1.185-1.19,1.818-2.706,1.818-4.334v-27.174L41.526,392.233L41.526,392.233z"/>
</g>
<g>
	<rect x="392.474" y="113.792" style="fill:#005792;" width="52.641" height="233.6"/>
	<rect x="66.867" y="113.792" style="fill:#005792;" width="52.644" height="233.6"/>
</g>
<polygon style="fill:#242D3C;" points="402.232,347.387 382.735,347.387 382.735,40.571 369.728,27.576 347.008,50.319 
	324.242,27.571 301.463,50.319 278.758,27.576 256,50.317 233.257,27.574 210.493,50.317 187.758,27.576 165.023,50.317 
	142.259,27.574 129.265,40.568 129.265,347.387 109.768,347.387 109.768,32.494 142.249,0.003 165.015,22.746 187.758,0 
	210.501,22.746 233.265,0.003 256.008,22.746 278.774,0 301.486,22.74 324.242,0.008 347,22.74 369.72,0 402.232,32.489 "/>
<rect x="154.906" y="111.91" style="fill:#ffd801;" width="202.199" height="97.408"/>
<polygon style="fill:#FFFFFF;" points="239.114,141.11 272.886,160.607 239.114,180.106 "/>
<g>
	<rect x="154.906" y="68.954" style="fill:#242D3C;" width="202.199" height="19.497"/>
	<rect x="154.906" y="232.755" style="fill:#242D3C;" width="87.706" height="19.497"/>
	<rect x="154.906" y="265.933" style="fill:#242D3C;" width="87.706" height="19.497"/>
	<rect x="154.906" y="299.136" style="fill:#242D3C;" width="87.706" height="19.497"/>
	<rect x="269.414" y="232.755" style="fill:#242D3C;" width="87.706" height="19.497"/>
	<rect x="269.414" y="265.933" style="fill:#242D3C;" width="87.706" height="19.497"/>
	<rect x="269.414" y="299.136" style="fill:#242D3C;" width="87.706" height="19.497"/>
</g>
<g>
</g>
<g>
</g>
<g>
</g>
<g>
</g>
<g>
</g>
<g>
</g>
<g>
</g>
<g>
</g>
<g>
</g>
<g>
</g>
<g>
</g>
<g>
</g>
<g>
</g>
<g>
</g>
<g>
</g>
</svg>
