<?xml version="1.0" encoding="iso-8859-1"?>
<!-- Generator: Adobe Illustrator 19.0.0, SVG Export Plug-In . SVG Version: 6.00 Build 0)  -->
<svg version="1.1" id="Layer_1" xmlns="http://www.w3.org/2000/svg" xmlns:xlink="http://www.w3.org/1999/xlink" x="0px" y="0px"
	 viewBox="0 0 512 512" style="enable-background:new 0 0 512 512;" xml:space="preserve">
<path style="fill:#242D3C;" d="M418.254,512l-23.585-143.04l39.68-130.309c6.024-17.587,9.027-35.676,9.027-54.07
	c0-91.546-74.47-166.019-166.008-166.019c-91.551,0-166.034,74.473-166.034,166.019l-0.115,22.615l-35.2,102.984h41.275
	l8.745,110.088l87.588-8.049l11.978,97.134l-18.427,2.271l-9.774-79.276l-88.387,8.12l-8.876-111.729H50.06l42.611-124.675
	l0.102-19.53C92.773,82.803,175.581,0,277.37,0C379.142,0,461.94,82.803,461.94,184.584c0,20.444-3.343,40.561-9.93,59.784
	L413.69,370.225l22.881,138.76L418.254,512z"/>
<path style="fill:#ffd801;" d="M376.206,143.613c9.098-16.22,6.794-37.128-7.014-50.898c-13.814-13.814-34.675-16.113-50.9-7.055
	c-5.051-17.897-21.46-30.999-40.988-30.999s-35.937,13.105-40.988,30.999c-16.225-9.057-37.089-6.758-50.9,7.055
	c-13.778,13.77-16.113,34.675-7.02,50.898c-17.897,5.053-31.035,21.463-31.035,40.955c0,23.537,19.082,42.619,42.621,42.619h70.874
	c23.537,0,42.619,19.082,42.619,42.619v240.686h18.563V269.806c0-23.539,19.046-42.619,42.586-42.619
	c11.768,0,22.426-4.79,30.147-12.477c7.724-7.724,12.475-18.376,12.475-30.144C407.246,165.076,394.103,148.667,376.206,143.613z"/>
<g>
	<rect x="230.885" y="157.286" style="fill:#FFFFFF;" width="18.563" height="18.563"/>
	<rect x="268.031" y="157.286" style="fill:#FFFFFF;" width="18.563" height="18.563"/>
	<rect x="305.151" y="157.286" style="fill:#FFFFFF;" width="18.563" height="18.563"/>
</g>
<g>
</g>
<g>
</g>
<g>
</g>
<g>
</g>
<g>
</g>
<g>
</g>
<g>
</g>
<g>
</g>
<g>
</g>
<g>
</g>
<g>
</g>
<g>
</g>
<g>
</g>
<g>
</g>
<g>
</g>
</svg>
