<?xml version="1.0" encoding="iso-8859-1"?>
<!-- Generator: Adobe Illustrator 19.0.0, SVG Export Plug-In . SVG Version: 6.00 Build 0)  -->
<svg version="1.1" id="Layer_1" xmlns="http://www.w3.org/2000/svg" xmlns:xlink="http://www.w3.org/1999/xlink" x="0px" y="0px"
	 viewBox="0 0 512 512" style="enable-background:new 0 0 512 512;" xml:space="preserve">
<g>
	<rect x="246.529" y="9.482" style="fill:#242D3C;" width="18.964" height="65.423"/>
	<rect x="246.529" y="158.341" style="fill:#242D3C;" width="18.964" height="268.314"/>
	<path style="fill:#242D3C;" d="M341.341,474.076H170.674v-56.891h170.668V474.076z M189.638,455.109H322.38v-18.962H189.638
		V455.109z"/>
	<path style="fill:#242D3C;" d="M379.268,512H132.75v-56.891h246.518V512z M151.712,493.038h208.591v-18.962H151.712V493.038z"/>
	<path style="fill:#242D3C;" d="M256.009,167.823c-28.229,0-51.2-22.968-51.2-51.2c0-28.234,22.971-51.2,51.2-51.2
		s51.2,22.966,51.2,51.2C307.209,144.855,284.238,167.823,256.009,167.823z M256.009,84.385c-17.777,0-32.238,14.464-32.238,32.238
		s14.459,32.236,32.238,32.236s32.238-14.461,32.238-32.236S273.786,84.385,256.009,84.385z"/>
</g>
<path style="fill:#005792;" d="M273.076,116.623c0,9.423-7.652,17.068-17.068,17.068c-9.426,0-17.068-7.644-17.068-17.068
	c0-9.431,7.639-17.068,17.068-17.068C265.425,99.556,273.076,107.192,273.076,116.623z"/>
<g>
	
		<rect x="294.118" y="134.47" transform="matrix(-0.9659 -0.2589 0.2589 -0.9659 666.5125 375.6815)" style="fill:#242D3C;" width="127.751" height="18.964"/>
	
		<rect x="90.163" y="79.791" transform="matrix(-0.9659 -0.2589 0.2589 -0.9659 279.7143 215.3835)" style="fill:#242D3C;" width="127.754" height="18.964"/>
	
		<rect x="27.486" y="148.576" transform="matrix(-0.2676 -0.9635 0.9635 -0.2676 -5.1876 312.1651)" style="fill:#242D3C;" width="177.121" height="18.956"/>
	
		<rect x="59.161" y="69.507" transform="matrix(-0.9635 -0.2677 0.2677 -0.9635 92.4603 328.7462)" style="fill:#242D3C;" width="18.959" height="177.126"/>
</g>
<path style="fill:#005792;" d="M12.691,236.762c0,43.994,35.656,79.644,79.644,79.644c43.978,0,79.644-35.653,79.644-79.644H12.691z
	"/>
<g>
	<rect x="82.853" y="42.022" style="fill:#242D3C;" width="18.964" height="30.712"/>
	
		<rect x="354.804" y="236.33" transform="matrix(-0.2676 -0.9635 0.9635 -0.2676 325.1686 738.7836)" style="fill:#242D3C;" width="177.121" height="18.959"/>
	
		<rect x="386.476" y="157.269" transform="matrix(-0.9635 -0.2677 0.2677 -0.9635 711.6498 588.6887)" style="fill:#242D3C;" width="18.959" height="177.126"/>
</g>
<path style="fill:#005792;" d="M340.023,324.518c0,43.986,35.656,79.644,79.644,79.644c43.973,0,79.642-35.661,79.642-79.644
	H340.023L340.023,324.518z"/>
<g>
	<rect x="410.19" y="129.777" style="fill:#242D3C;" width="18.962" height="30.712"/>
	<rect x="218.088" style="fill:#242D3C;" width="75.85" height="18.962"/>
</g>
<g>
</g>
<g>
</g>
<g>
</g>
<g>
</g>
<g>
</g>
<g>
</g>
<g>
</g>
<g>
</g>
<g>
</g>
<g>
</g>
<g>
</g>
<g>
</g>
<g>
</g>
<g>
</g>
<g>
</g>
</svg>
