<?xml version="1.0" encoding="iso-8859-1"?>
<!-- Generator: Adobe Illustrator 19.0.0, SVG Export Plug-In . SVG Version: 6.00 Build 0)  -->
<svg version="1.1" id="Layer_1" xmlns="http://www.w3.org/2000/svg" xmlns:xlink="http://www.w3.org/1999/xlink" x="0px" y="0px"
	 viewBox="0 0 512.003 512.003" style="enable-background:new 0 0 512.003 512.003;" xml:space="preserve">
<rect x="49.229" y="199.251" style="fill:#ffd801;" width="196.923" height="196.92"/>
<g>
	<path style="fill:#FFFFFF;" d="M101.071,343.661H82.706c-5.44,0-9.846-4.413-9.846-9.846V315.77c0-7.485,2.9-14.5,8.174-19.756
		c5.274-5.263,12.278-8.164,19.722-8.164h12.017c2.194,0,4.255-0.847,5.804-2.399c1.549-1.546,2.406-3.617,2.406-5.804
		c0-2.191-0.858-4.262-2.414-5.819c-1.539-1.541-3.599-2.391-5.793-2.391h-12.017c-2.199,0-4.26,0.85-5.809,2.399
		c-1.549,1.541-2.399,3.599-2.399,5.814H72.86c0-7.475,2.9-14.49,8.174-19.75c5.263-5.256,12.27-8.148,19.722-8.148h12.017
		c7.45,0,14.454,2.893,19.717,8.156c5.281,5.286,8.182,12.296,8.182,19.743c0,7.447-2.9,14.454-8.174,19.727
		c-5.274,5.274-12.278,8.164-19.727,8.164h-12.017c-2.189,0-4.252,0.858-5.809,2.414c-1.549,1.539-2.399,3.599-2.399,5.814v8.2h8.52
		v19.691H101.071z"/>
	<rect x="91.226" y="323.974" style="fill:#FFFFFF;" width="49.449" height="19.689"/>
	<path style="fill:#FFFFFF;" d="M222.52,307.552h-39.936c-7.462,0-14.467-2.911-19.732-8.182c-5.263-5.256-8.164-12.26-8.164-19.717
		v-27.901h19.692v27.899c0,2.186,0.85,4.247,2.399,5.796c1.562,1.556,3.62,2.414,5.809,2.414h39.936v19.692H222.52z"/>
	<rect x="202.829" y="251.757" style="fill:#FFFFFF;" width="19.692" height="91.909"/>
</g>
<g>
	<rect x="265.856" y="199.251" style="fill:#242D3C;" width="19.694" height="19.692"/>
	<rect x="301.286" y="199.251" style="fill:#242D3C;" width="19.692" height="19.692"/>
	<rect x="265.856" y="234.682" style="fill:#242D3C;" width="19.694" height="19.692"/>
	<rect x="301.286" y="234.682" style="fill:#242D3C;" width="19.692" height="19.692"/>
	<rect x="336.742" y="234.682" style="fill:#242D3C;" width="19.692" height="19.692"/>
	<rect x="372.173" y="234.682" style="fill:#242D3C;" width="19.689" height="19.692"/>
	<rect x="407.629" y="234.682" style="fill:#242D3C;" width="19.692" height="19.692"/>
	<rect x="443.059" y="234.682" style="fill:#242D3C;" width="19.694" height="19.692"/>
	<rect x="265.856" y="270.138" style="fill:#242D3C;" width="19.694" height="19.689"/>
	<rect x="301.286" y="270.138" style="fill:#242D3C;" width="19.692" height="19.689"/>
	<rect x="336.742" y="270.138" style="fill:#242D3C;" width="19.692" height="19.689"/>
	<rect x="372.173" y="270.138" style="fill:#242D3C;" width="19.689" height="19.689"/>
	<rect x="407.629" y="270.138" style="fill:#242D3C;" width="19.692" height="19.689"/>
	<rect x="443.059" y="270.138" style="fill:#242D3C;" width="19.694" height="19.689"/>
	<rect x="265.856" y="305.568" style="fill:#242D3C;" width="19.694" height="19.692"/>
	<rect x="301.286" y="305.568" style="fill:#242D3C;" width="19.692" height="19.692"/>
	<rect x="336.742" y="305.568" style="fill:#242D3C;" width="19.692" height="19.692"/>
	<rect x="372.173" y="305.568" style="fill:#242D3C;" width="19.689" height="19.692"/>
	<rect x="407.629" y="305.568" style="fill:#242D3C;" width="19.692" height="19.692"/>
	<rect x="443.059" y="305.568" style="fill:#242D3C;" width="19.694" height="19.692"/>
	<rect x="265.856" y="341.024" style="fill:#242D3C;" width="19.694" height="19.689"/>
	<rect x="301.286" y="341.024" style="fill:#242D3C;" width="19.692" height="19.689"/>
	<rect x="336.742" y="341.024" style="fill:#242D3C;" width="19.692" height="19.689"/>
	<rect x="372.173" y="341.024" style="fill:#242D3C;" width="19.689" height="19.689"/>
	<rect x="407.629" y="341.024" style="fill:#242D3C;" width="19.692" height="19.689"/>
	<rect x="443.059" y="341.024" style="fill:#242D3C;" width="19.694" height="19.689"/>
	<rect x="265.856" y="376.48" style="fill:#242D3C;" width="19.694" height="19.692"/>
	<rect x="301.286" y="376.48" style="fill:#242D3C;" width="19.692" height="19.692"/>
	<rect x="336.742" y="376.48" style="fill:#242D3C;" width="19.692" height="19.692"/>
	<rect x="372.173" y="376.48" style="fill:#242D3C;" width="19.689" height="19.692"/>
	<rect x="407.629" y="376.48" style="fill:#242D3C;" width="19.692" height="19.692"/>
	<polygon style="fill:#242D3C;" points="457.001,445.385 0,445.385 0,184.465 19.692,184.465 19.692,425.691 448.84,425.691 
		492.306,382.232 492.306,184.465 512.003,184.465 512.003,390.378 	"/>
	<polygon style="fill:#242D3C;" points="462.769,435.547 443.072,435.547 443.072,376.472 502.149,376.472 502.149,396.164 
		462.769,396.164 	"/>
</g>
<rect y="90.922" style="fill:#ffd801;" width="512" height="78.771"/>
<g>
	<rect x="49.229" y="66.618" style="fill:#242D3C;" width="19.697" height="66.944"/>
	<rect x="443.059" y="66.618" style="fill:#242D3C;" width="19.694" height="66.944"/>
</g>
<g>
</g>
<g>
</g>
<g>
</g>
<g>
</g>
<g>
</g>
<g>
</g>
<g>
</g>
<g>
</g>
<g>
</g>
<g>
</g>
<g>
</g>
<g>
</g>
<g>
</g>
<g>
</g>
<g>
</g>
</svg>
