<?xml version="1.0" encoding="iso-8859-1"?>
<!-- Generator: Adobe Illustrator 19.0.0, SVG Export Plug-In . SVG Version: 6.00 Build 0)  -->
<svg version="1.1" id="Layer_1" xmlns="http://www.w3.org/2000/svg" xmlns:xlink="http://www.w3.org/1999/xlink" x="0px" y="0px"
	 viewBox="0 0 512 512" style="enable-background:new 0 0 512 512;" xml:space="preserve">
<rect x="61.798" y="54.829" style="fill:#005792;" width="114.248" height="326.4"/>
<rect x="94.436" y="87.469" style="fill:#FFFFFF;" width="48.947" height="130.56"/>
<path style="fill:#242D3C;" d="M152.22,226.866H85.609V78.642h66.614v148.224H152.22z M103.263,209.212h31.306V96.301h-31.306
	V209.212z"/>
<path style="fill:#FFFFFF;" d="M143.393,324.12c0,13.512-10.952,24.484-24.479,24.484s-24.481-10.972-24.481-24.484
	c0-13.522,10.954-24.479,24.481-24.479S143.393,310.598,143.393,324.12z"/>
<g>
	<path style="fill:#242D3C;" d="M118.915,357.434c-18.368,0-33.306-14.943-33.306-33.313c0-18.365,14.938-33.306,33.306-33.306
		c18.365,0,33.306,14.94,33.306,33.306C152.22,342.491,137.28,357.434,118.915,357.434z M118.915,308.468
		c-8.632,0-15.652,7.02-15.652,15.652c0,8.63,7.02,15.657,15.652,15.657s15.652-7.027,15.652-15.657
		C134.566,315.488,127.547,308.468,118.915,308.468z"/>
	<rect x="110.08" y="242.528" style="fill:#242D3C;" width="17.654" height="32.64"/>
</g>
<rect x="198.886" y="54.829" style="fill:#005792;" width="114.232" height="326.4"/>
<rect x="231.526" y="87.469" style="fill:#FFFFFF;" width="48.973" height="130.56"/>
<path style="fill:#242D3C;" d="M289.308,226.866h-66.619V78.642h66.616v148.224H289.308z M240.343,209.212h31.309V96.301h-31.309
	V209.212z"/>
<path style="fill:#FFFFFF;" d="M280.481,324.12c0,13.512-10.97,24.484-24.481,24.484c-13.527,0-24.484-10.972-24.484-24.484
	c0-13.522,10.957-24.479,24.484-24.479C269.509,299.644,280.481,310.598,280.481,324.12z"/>
<g>
	<path style="fill:#242D3C;" d="M256,357.434c-18.368,0-33.311-14.943-33.311-33.313c0-18.365,14.94-33.306,33.311-33.306
		c18.365,0,33.308,14.94,33.308,33.306C289.308,342.491,274.365,357.434,256,357.434z M256,308.468
		c-8.63,0-15.657,7.02-15.657,15.652c0,8.63,7.027,15.657,15.657,15.657c8.632,0,15.652-7.027,15.652-15.657
		C271.652,315.488,264.632,308.468,256,308.468z"/>
	<rect x="247.168" y="242.528" style="fill:#242D3C;" width="17.654" height="32.64"/>
</g>
<rect x="335.974" y="54.829" style="fill:#ffd801;" width="114.248" height="326.4"/>
<rect x="368.614" y="87.469" style="fill:#FFFFFF;" width="48.973" height="130.56"/>
<path style="fill:#242D3C;" d="M426.396,226.866H359.78V78.642h66.616V226.866z M377.434,209.212h31.306V96.301h-31.306V209.212z"/>
<path style="fill:#FFFFFF;" d="M417.567,324.12c0,13.512-10.954,24.484-24.468,24.484c-13.542,0-24.494-10.972-24.494-24.484
	c0-13.522,10.952-24.479,24.494-24.479C406.612,299.644,417.567,310.598,417.567,324.12z"/>
<g>
	<path style="fill:#242D3C;" d="M393.101,357.434c-18.376,0-33.324-14.943-33.324-33.313c0-18.365,14.948-33.306,33.324-33.306
		c18.363,0,33.295,14.94,33.295,33.306C426.396,342.491,411.464,357.434,393.101,357.434z M393.101,308.468
		c-8.64,0-15.667,7.02-15.667,15.652c0,8.63,7.027,15.657,15.667,15.657c8.625,0,15.636-7.027,15.636-15.657
		C408.737,315.488,401.725,308.468,393.101,308.468z"/>
	<rect x="384.282" y="242.528" style="fill:#242D3C;" width="17.654" height="32.64"/>
	<path style="fill:#242D3C;" d="M512,441.268H0v-60.029h512V441.268z M17.654,423.615h476.69v-24.717H17.654V423.615z"/>
	<rect x="52.964" y="432.454" style="fill:#242D3C;" width="17.654" height="24.717"/>
	<rect x="441.37" y="432.454" style="fill:#242D3C;" width="17.654" height="24.717"/>
</g>
<g>
</g>
<g>
</g>
<g>
</g>
<g>
</g>
<g>
</g>
<g>
</g>
<g>
</g>
<g>
</g>
<g>
</g>
<g>
</g>
<g>
</g>
<g>
</g>
<g>
</g>
<g>
</g>
<g>
</g>
</svg>
