<?xml version="1.0" encoding="iso-8859-1"?>
<!-- Generator: Adobe Illustrator 19.0.0, SVG Export Plug-In . SVG Version: 6.00 Build 0)  -->
<svg version="1.1" id="Layer_1" xmlns="http://www.w3.org/2000/svg" xmlns:xlink="http://www.w3.org/1999/xlink" x="0px" y="0px"
	 viewBox="0 0 512 512" style="enable-background:new 0 0 512 512;" xml:space="preserve">
<path style="fill:#242D3C;" d="M255.985,512c-28.997,0-56.276-11.285-76.82-31.785c-20.524-20.549-31.818-47.841-31.818-76.849
	V294.764h217.311v108.603c0,29.002-11.318,56.297-31.869,76.846C312.297,500.71,285.02,512,255.985,512z M165.312,312.73v90.637
	c0,24.215,9.431,46.991,26.55,64.143c17.142,17.103,39.916,26.524,64.123,26.524c24.236,0,47.002-9.423,64.102-26.524
	c17.157-17.157,26.609-39.939,26.609-64.143V312.73H165.312z"/>
<g>
	<path style="fill:#005792;" d="M255.985,303.747h-99.656v-59.789c0-10.209,3.881-20.413,11.702-28.175
		c7.788-7.78,17.961-11.686,28.155-11.686h59.799V303.747z"/>
	<path style="fill:#005792;" d="M355.676,303.747h-99.692v-99.651h59.784c10.184,0,20.396,3.907,28.175,11.686
		c7.808,7.762,11.733,17.969,11.733,28.175V303.747z"/>
</g>
<g>
	<path style="fill:#242D3C;" d="M264.965,312.73H147.346v-68.772c0-13.094,5.097-25.37,14.356-34.552
		c9.211-9.208,21.463-14.292,34.481-14.292h68.782V312.73z M165.312,294.766h81.687v-81.687h-50.816
		c-8.215,0-15.959,3.22-21.804,9.06c-5.855,5.811-9.07,13.553-9.07,21.821v50.806H165.312z"/>
	<path style="fill:#242D3C;" d="M364.657,312.73h-117.66V195.113h68.769c13.036,0,25.3,5.089,34.529,14.321
		c9.252,9.196,14.359,21.463,14.359,34.524v68.772H364.657z M264.965,294.766h81.728v-50.808c0-8.243-3.228-15.982-9.083-21.801
		c-5.855-5.86-13.604-9.078-21.842-9.078h-50.803V294.766z"/>
	<path style="fill:#242D3C;" d="M264.965,204.096h-17.969v-25.51c0-9.172,3.587-17.83,10.092-24.379
		c6.362-6.423,15.278-10.12,24.435-10.12h48.594c4.467,0,8.586-1.702,11.615-4.795c3.182-3.172,4.959-7.416,4.959-11.732
		c0-4.383-1.738-8.532-4.89-11.679c-3.108-3.162-7.237-4.874-11.681-4.874H181.847c-9.18,0-17.843-3.574-24.397-10.068
		c-6.52-6.484-10.107-15.155-10.107-24.425c0-9.19,3.574-17.843,10.068-24.364c6.536-6.525,15.209-10.107,24.435-10.107h48.604
		c4.372,0,8.632-1.756,11.674-4.805c3.146-3.156,4.874-7.319,4.874-11.732V0h17.969v25.503c0,9.203-3.594,17.874-10.12,24.412
		c-6.385,6.41-15.278,10.092-24.397,10.092h-48.604c-4.434,0-8.599,1.718-11.727,4.838c-3.092,3.116-4.813,7.263-4.813,11.671
		c0,4.452,1.708,8.594,4.803,11.679c3.154,3.123,7.327,4.851,11.738,4.851H330.12c9.303,0,17.976,3.617,24.438,10.186
		c6.497,6.49,10.099,15.148,10.099,24.333c0,9.062-3.707,17.948-10.166,24.379c-6.349,6.487-15.035,10.112-24.374,10.112h-48.594
		c-4.398,0-8.65,1.751-11.679,4.81c-3.154,3.172-4.882,7.332-4.882,11.727v25.503H264.965z"/>
</g>
<g>
</g>
<g>
</g>
<g>
</g>
<g>
</g>
<g>
</g>
<g>
</g>
<g>
</g>
<g>
</g>
<g>
</g>
<g>
</g>
<g>
</g>
<g>
</g>
<g>
</g>
<g>
</g>
<g>
</g>
</svg>
