<?xml version="1.0" encoding="iso-8859-1"?>
<!-- Generator: Adobe Illustrator 19.0.0, SVG Export Plug-In . SVG Version: 6.00 Build 0)  -->
<svg version="1.1" id="Layer_1" xmlns="http://www.w3.org/2000/svg" xmlns:xlink="http://www.w3.org/1999/xlink" x="0px" y="0px"
	 viewBox="0 0 512 512" style="enable-background:new 0 0 512 512;" xml:space="preserve">
<path style="fill:#242D3C;" d="M462.771,472.617H49.229V0h413.542L462.771,472.617L462.771,472.617z M68.92,452.925H443.08V19.692
	H68.92V452.925z"/>
<rect x="98.463" y="49.229" style="fill:#ffd801;" width="315.085" height="106.34"/>
<polygon style="fill:#FFFFFF;" points="334.771,126.031 177.229,126.031 177.229,88.612 196.92,88.612 196.92,106.34 315.08,106.34 
	315.08,88.612 334.771,88.612 "/>
<rect x="98.463" y="183.142" style="fill:#ffd801;" width="315.085" height="106.34"/>
<polygon style="fill:#FFFFFF;" points="334.771,259.937 177.229,259.937 177.229,222.525 196.92,222.525 196.92,240.246 
	315.08,240.246 315.08,222.525 334.771,222.525 "/>
<rect x="98.463" y="317.056" style="fill:#ffd801;" width="315.085" height="106.34"/>
<polygon style="fill:#FFFFFF;" points="334.771,393.851 177.229,393.851 177.229,356.429 196.92,356.429 196.92,374.154 
	315.08,374.154 315.08,356.429 334.771,356.429 "/>
<polygon style="fill:#242D3C;" points="413.537,512 98.463,512 98.463,462.771 118.154,462.771 118.154,492.308 393.846,492.308 
	393.846,462.771 413.537,462.771 "/>
<g>
</g>
<g>
</g>
<g>
</g>
<g>
</g>
<g>
</g>
<g>
</g>
<g>
</g>
<g>
</g>
<g>
</g>
<g>
</g>
<g>
</g>
<g>
</g>
<g>
</g>
<g>
</g>
<g>
</g>
</svg>
