<?xml version="1.0" encoding="iso-8859-1"?>
<!-- Generator: Adobe Illustrator 19.0.0, SVG Export Plug-In . SVG Version: 6.00 Build 0)  -->
<svg version="1.1" id="Layer_1" xmlns="http://www.w3.org/2000/svg" xmlns:xlink="http://www.w3.org/1999/xlink" x="0px" y="0px"
	 viewBox="0 0 512 512" style="enable-background:new 0 0 512 512;" xml:space="preserve">
<g>
	<polygon style="fill:#242D3C;" points="512,341.526 0,341.526 0,287.922 54.733,287.922 54.733,305.576 17.656,305.576 
		17.656,323.872 494.346,323.872 494.346,305.576 457.27,305.576 457.27,287.922 512,287.922 	"/>
	<polygon style="fill:#242D3C;" points="466.097,441.079 448.445,441.079 448.445,341.518 430.134,341.518 430.134,441.079 
		412.48,441.079 412.48,323.864 466.097,323.864 	"/>
	<polygon style="fill:#242D3C;" points="99.512,441.079 81.859,441.079 81.859,341.518 63.562,341.518 63.562,441.079 
		45.903,441.079 45.903,323.864 99.512,323.864 	"/>
	<path style="fill:#242D3C;" d="M411.546,275.913H100.449V89.514c0-4.877,1.981-9.667,5.432-13.133
		c3.446-3.466,8.248-5.46,13.166-5.46h273.91c4.851,0,9.485,1.894,13.059,5.33c3.597,3.699,5.532,8.458,5.532,13.266v186.396
		H411.546z M118.103,258.262h275.786V89.514c0-0.187-0.087-0.504-0.333-0.758c-0.195-0.177-0.468-0.177-0.602-0.177h-273.91
		c-0.095,0-0.412,0.015-0.65,0.253c-0.266,0.269-0.294,0.566-0.294,0.681v168.748H118.103z"/>
</g>
<rect x="132.808" y="103.295" style="fill:#005792;" width="246.4" height="163.799"/>
<path style="fill:#242D3C;" d="M419.507,305.576H92.493c-5.798,0-11.282-2.271-15.434-6.385c-4.093-4.07-6.441-9.708-6.441-15.483
	v-25.446h370.76v25.446c0,5.919-2.299,11.423-6.474,15.521C430.764,303.315,425.285,305.576,419.507,305.576z M88.274,275.913v7.795
	c0,1.103,0.445,2.184,1.221,2.949c0.809,0.801,1.905,1.262,2.998,1.262h327.014c1.111,0,2.181-0.453,3.018-1.277
	c1.047-1.029,1.203-2.286,1.203-2.934v-7.795L88.274,275.913L88.274,275.913z"/>
<g>
	<rect x="211.866" y="222.949" style="fill:#FFFFFF;" width="17.654" height="17.654"/>
	<rect x="247.168" y="222.949" style="fill:#FFFFFF;" width="17.654" height="17.654"/>
	<rect x="282.47" y="222.949" style="fill:#FFFFFF;" width="17.654" height="17.654"/>
</g>
<g>
</g>
<g>
</g>
<g>
</g>
<g>
</g>
<g>
</g>
<g>
</g>
<g>
</g>
<g>
</g>
<g>
</g>
<g>
</g>
<g>
</g>
<g>
</g>
<g>
</g>
<g>
</g>
<g>
</g>
</svg>
