<?xml version="1.0" encoding="iso-8859-1"?>
<!-- Generator: Adobe Illustrator 19.0.0, SVG Export Plug-In . SVG Version: 6.00 Build 0)  -->
<svg version="1.1" id="Layer_1" xmlns="http://www.w3.org/2000/svg" xmlns:xlink="http://www.w3.org/1999/xlink" x="0px" y="0px"
	 viewBox="0 0 512 512" style="enable-background:new 0 0 512 512;" xml:space="preserve">
<path style="fill:#005792;" d="M512,436.801c0,28.16-23.043,51.197-51.2,51.197H51.2c-28.16,0-51.2-23.037-51.2-51.197V112.534
	c0-28.157,23.04-51.2,51.2-51.2h409.6c28.157,0,51.2,23.043,51.2,51.2V436.801z"/>
<path style="fill:#242D3C;" d="M85.335,487.999H51.2c-28.232,0-51.2-22.966-51.2-51.197v-268.8h21.332v268.8
	c0,16.468,13.396,29.865,29.868,29.865h34.135c16.463,0,29.862-13.396,29.862-29.865v-21.332h21.338v21.332
	C136.532,465.033,113.567,487.999,85.335,487.999z"/>
<path style="fill:#FFFFFF;" d="M183.468,385.601c0,16.43-13.44,29.867-29.87,29.867H98.132c-16.43,0-29.868-13.437-29.868-29.867
	V64.534c0-16.425,13.435-29.868,29.868-29.868h55.465c16.43,0,29.87,13.44,29.87,29.868V385.601z"/>
<g>
	<path style="fill:#242D3C;" d="M153.597,426.134H98.132c-22.354,0-40.532-18.184-40.532-40.532V64.534
		c0-22.351,18.179-40.532,40.532-40.532h55.465c22.351,0,40.538,18.181,40.538,40.532v321.068
		C194.135,407.95,175.949,426.134,153.597,426.134z M98.132,45.334c-10.586,0-19.2,8.612-19.2,19.2v321.068
		c0,10.586,8.614,19.2,19.2,19.2h55.465c10.588,0,19.205-8.614,19.205-19.2V64.534c0-10.588-8.617-19.2-19.205-19.2H98.132z"/>
	<rect x="238.925" y="263.988" style="fill:#242D3C;" width="56.174" height="21.338"/>
	<rect x="324.966" y="263.988" style="fill:#242D3C;" width="56.177" height="21.338"/>
	<rect x="411.034" y="263.988" style="fill:#242D3C;" width="56.177" height="21.338"/>
	<rect x="238.925" y="313.78" style="fill:#242D3C;" width="56.177" height="21.332"/>
	<rect x="324.966" y="313.78" style="fill:#242D3C;" width="56.177" height="21.332"/>
	<rect x="411.034" y="313.78" style="fill:#242D3C;" width="56.177" height="21.332"/>
	<rect x="238.925" y="363.547" style="fill:#242D3C;" width="56.174" height="21.332"/>
	<rect x="324.966" y="363.547" style="fill:#242D3C;" width="56.177" height="21.332"/>
	<rect x="411.034" y="363.547" style="fill:#242D3C;" width="56.177" height="21.332"/>
	<rect x="238.925" y="413.339" style="fill:#242D3C;" width="56.174" height="21.332"/>
</g>
<g>
	<rect x="324.966" y="413.339" style="fill:#FFFFFF;" width="56.177" height="21.332"/>
	<rect x="411.034" y="413.339" style="fill:#FFFFFF;" width="56.177" height="21.332"/>
	<rect x="249.6" y="125.334" style="fill:#FFFFFF;" width="206.925" height="85.325"/>
</g>
<g>
	<path style="fill:#242D3C;" d="M467.203,221.334H238.935V114.666h228.268V221.334z M260.27,200.001h185.6v-64.003h-185.6V200.001z"
		/>
	<rect x="403.2" y="157.339" style="fill:#242D3C;" width="21.333" height="21.332"/>
	<rect x="360.525" y="157.339" style="fill:#242D3C;" width="21.338" height="21.332"/>
	<rect x="317.875" y="157.339" style="fill:#242D3C;" width="21.332" height="21.332"/>
</g>
<g>
</g>
<g>
</g>
<g>
</g>
<g>
</g>
<g>
</g>
<g>
</g>
<g>
</g>
<g>
</g>
<g>
</g>
<g>
</g>
<g>
</g>
<g>
</g>
<g>
</g>
<g>
</g>
<g>
</g>
</svg>
