<?xml version="1.0" encoding="iso-8859-1"?>
<!-- Generator: Adobe Illustrator 19.0.0, SVG Export Plug-In . SVG Version: 6.00 Build 0)  -->
<svg version="1.1" id="Layer_1" xmlns="http://www.w3.org/2000/svg" xmlns:xlink="http://www.w3.org/1999/xlink" x="0px" y="0px"
	 viewBox="0 0 512 512" style="enable-background:new 0 0 512 512;" xml:space="preserve">
<path style="fill:#005792;" d="M492.886,433.039c0,10.854-8.886,19.74-19.74,19.74H38.854c-10.854,0-19.738-8.886-19.738-19.74
	V235.635c0-10.86,8.886-19.74,19.738-19.74h434.291c10.854,0,19.74,8.881,19.74,19.74V433.039z"/>
<g>
	<path style="fill:#242D3C;" d="M473.146,462.651h-61.194v-19.74h61.194c5.445,0,9.869-4.426,9.869-9.869V235.635
		c0-5.445-4.426-9.869-9.869-9.869H38.854c-5.44,0-9.869,4.426-9.869,9.869v197.404c0,5.443,4.429,9.869,9.869,9.869h61.197v19.74
		H38.854c-16.33,0-29.609-13.281-29.609-29.609V235.635c0-16.33,13.279-29.609,29.609-29.609h434.291
		c16.328,0,29.609,13.281,29.609,29.609v197.404C502.757,449.367,489.473,462.651,473.146,462.651z"/>
	<rect x="19.117" y="324.48" style="fill:#242D3C;" width="473.779" height="19.74"/>
	<polygon style="fill:#242D3C;" points="394.188,215.895 374.445,215.895 374.445,71.048 323.14,19.74 137.558,19.74 
		137.558,215.895 117.818,215.895 117.818,0 331.316,0 394.188,62.874 	"/>
	<polygon style="fill:#242D3C;" points="384.308,76.82 317.359,76.82 317.359,9.869 337.097,9.869 337.097,57.078 384.308,57.078 	
		"/>
	<rect x="163.329" y="94.318" style="fill:#242D3C;" width="185.344" height="19.74"/>
	<rect x="163.329" y="131.533" style="fill:#242D3C;" width="185.344" height="19.74"/>
	<rect x="163.329" y="168.786" style="fill:#242D3C;" width="185.344" height="19.745"/>
	<rect x="163.329" y="57.078" style="fill:#242D3C;" width="92.672" height="19.743"/>
	<rect x="58.595" y="383.693" style="fill:#242D3C;" width="394.803" height="19.74"/>
	<rect x="117.812" y="393.549" style="fill:#242D3C;" width="19.74" height="118.451"/>
	<rect x="154.472" y="393.549" style="fill:#242D3C;" width="19.743" height="118.451"/>
	<rect x="191.156" y="393.549" style="fill:#242D3C;" width="19.74" height="118.451"/>
	<rect x="227.8" y="393.549" style="fill:#242D3C;" width="19.74" height="118.451"/>
	<rect x="264.475" y="393.549" style="fill:#242D3C;" width="19.74" height="118.451"/>
	<rect x="301.108" y="393.549" style="fill:#242D3C;" width="19.743" height="118.451"/>
	<rect x="337.768" y="393.549" style="fill:#242D3C;" width="19.738" height="118.451"/>
	<rect x="374.452" y="393.549" style="fill:#242D3C;" width="19.745" height="118.451"/>
</g>
<g>
	<rect x="86.237" y="261.299" style="fill:#FFFFFF;" width="27.633" height="27.638"/>
	<rect x="141.518" y="261.299" style="fill:#FFFFFF;" width="27.633" height="27.638"/>
</g>
<g>
</g>
<g>
</g>
<g>
</g>
<g>
</g>
<g>
</g>
<g>
</g>
<g>
</g>
<g>
</g>
<g>
</g>
<g>
</g>
<g>
</g>
<g>
</g>
<g>
</g>
<g>
</g>
<g>
</g>
</svg>
