<?xml version="1.0" encoding="iso-8859-1"?>
<!-- Generator: Adobe Illustrator 19.0.0, SVG Export Plug-In . SVG Version: 6.00 Build 0)  -->
<svg version="1.1" id="Layer_1" xmlns="http://www.w3.org/2000/svg" xmlns:xlink="http://www.w3.org/1999/xlink" x="0px" y="0px"
	 viewBox="0 0 511.99 511.99" style="enable-background:new 0 0 511.99 511.99;" xml:space="preserve">
<path style="fill:#ffd801;" d="M255.791,40.922c-88.891,0-161.206,72.315-161.206,161.206c0,45.12,19.154,88.509,52.562,119.05
	l0.294,0.259c1.021,0.845,2.045,1.754,3.09,2.665l1.011,0.876c22.973,20.948,36.147,50.726,36.147,81.715h136.192
	c0-31.048,13.204-60.82,36.227-81.715c1.357-1.226,2.714-2.45,4.296-3.796C397.83,290.632,417,247.235,417,202.13
	C416.997,113.236,344.68,40.922,255.791,40.922z"/>
<g>
	<polygon style="fill:#FFFFFF;" points="289.832,406.689 272.175,406.689 272.175,261.381 239.405,261.381 239.405,406.689 
		221.751,406.689 221.751,243.727 289.832,243.727 	"/>
	<path style="fill:#FFFFFF;" d="M239.405,261.381h-34.04c-18.772,0-34.043-15.265-34.043-34.035
		c0-18.772,15.27-34.043,34.043-34.043c18.77,0,34.04,15.27,34.04,34.043L239.405,261.381L239.405,261.381z M205.364,210.954
		c-9.032,0-16.389,7.352-16.389,16.389c0,9.034,7.357,16.381,16.389,16.381h16.387v-16.381
		C221.751,218.307,214.399,210.954,205.364,210.954z"/>
	<path style="fill:#FFFFFF;" d="M306.216,261.381h-34.04v-34.035c0-18.772,15.27-34.043,34.04-34.043
		c18.772,0,34.048,15.27,34.048,34.043C340.264,246.113,324.988,261.381,306.216,261.381z M289.832,243.727h16.384
		c9.042,0,16.392-7.347,16.392-16.381c0-9.037-7.35-16.389-16.392-16.389c-9.032,0-16.384,7.352-16.384,16.389V243.727z"/>
	<path style="fill:#FFFFFF;" d="M171.869,118.203l-12.488-12.483c25.797-25.792,60.037-40,96.41-40v17.654
		C224.129,83.372,194.326,95.741,171.869,118.203z"/>
</g>
<g>
	<rect x="306.682" y="406.682" style="fill:#242D3C;" width="17.654" height="64.307"/>
	<rect x="187.283" y="406.682" style="fill:#242D3C;" width="17.654" height="64.307"/>
	<rect x="175.379" y="397.85" style="fill:#242D3C;" width="160.817" height="17.654"/>
	<rect x="175.379" y="430.029" style="fill:#242D3C;" width="160.817" height="17.659"/>
	<rect x="175.379" y="462.182" style="fill:#242D3C;" width="160.817" height="17.654"/>
	<rect x="220.061" y="494.336" style="fill:#242D3C;" width="71.475" height="17.654"/>
	<path style="fill:#242D3C;" d="M417.007,324.339l-14.057-10.685c3.356-4.416,6.556-9.037,9.5-13.742l14.968,9.372
		C424.18,314.44,420.684,319.503,417.007,324.339z M94.619,323.871c-3.668-4.854-7.153-9.93-10.36-15.086l14.989-9.329
		c2.931,4.703,6.116,9.334,9.462,13.768L94.619,323.871z M436.42,293.35l-15.749-7.977c2.499-4.933,4.805-10.058,6.866-15.227
		l16.404,6.528C441.686,282.33,439.156,287.946,436.42,293.35z M75.301,292.813c-2.732-5.435-5.248-11.059-7.47-16.712l16.428-6.459
		c2.03,5.153,4.321,10.284,6.817,15.247L75.301,292.813z M449.911,259.361l-16.932-4.997c1.569-5.32,2.906-10.775,3.981-16.207
		l17.318,3.418C453.098,247.542,451.631,253.524,449.911,259.361z M61.912,258.78c-1.702-5.837-3.156-11.827-4.319-17.797
		l17.329-3.372c1.062,5.445,2.388,10.906,3.937,16.228L61.912,258.78z M457.015,223.491l-17.559-1.843
		c0.576-5.504,0.911-11.116,0.998-16.678l17.656,0.269C458.016,211.323,457.647,217.467,457.015,223.491z M54.918,222.881
		c-0.614-6.026-0.963-12.17-1.039-18.271l17.654-0.21c0.067,5.571,0.384,11.182,0.947,16.684L54.918,222.881z M439.963,188.265
		c-0.412-5.56-1.078-11.136-1.984-16.576l17.413-2.903c0.998,5.972,1.728,12.083,2.181,18.171L439.963,188.265z M72.076,187.689
		l-17.603-1.37c0.474-6.067,1.221-12.18,2.232-18.153l17.408,2.947C73.192,176.566,72.506,182.147,72.076,187.689z M434.5,155.351
		c-1.405-5.353-3.069-10.719-4.959-15.941l16.607-6.001c2.071,5.722,3.894,11.607,5.427,17.48L434.5,155.351z M77.644,154.796
		l-17.068-4.518c1.559-5.885,3.402-11.758,5.489-17.459l16.584,6.052C80.749,144.072,79.064,149.43,77.644,154.796z
		 M423.159,123.981c-2.348-5.01-4.959-9.989-7.764-14.787l15.247-8.906c3.075,5.261,5.937,10.716,8.507,16.207L423.159,123.981z
		 M89.082,123.469l-15.964-7.534c2.593-5.496,5.471-10.941,8.558-16.179l15.214,8.955C94.076,113.492,91.45,118.456,89.082,123.469z
		 M406.322,95.171c-3.22-4.513-6.684-8.937-10.301-13.153l13.394-11.5c3.958,4.613,7.757,9.459,11.279,14.4L406.322,95.171z
		 M106.001,94.715L91.657,84.424c3.535-4.938,7.347-9.772,11.325-14.372l13.356,11.54C112.716,85.796,109.234,90.204,106.001,94.715
		z M384.572,69.842c-3.986-3.871-8.189-7.601-12.495-11.092l11.118-13.722c4.721,3.825,9.321,7.916,13.683,12.152L384.572,69.842z
		 M127.825,69.458L115.557,56.76c4.37-4.227,8.986-8.305,13.711-12.109l11.08,13.745C136.029,61.875,131.813,65.595,127.825,69.458z
		 M358.642,48.824c-4.605-3.09-9.408-6.008-14.269-8.663l8.469-15.491c5.332,2.911,10.601,6.108,15.644,9.492L358.642,48.824z
		 M153.814,48.512l-9.787-14.689c5.061-3.379,10.335-6.559,15.67-9.454l8.428,15.519C163.25,42.532,158.437,45.432,153.814,48.512z
		 M329.373,32.824c-5.074-2.204-10.324-4.204-15.596-5.942l5.532-16.765c5.778,1.902,11.53,4.096,17.091,6.51L329.373,32.824z
		 M183.141,32.594l-6.979-16.218c5.591-2.404,11.354-4.577,17.137-6.464l5.473,16.791C193.496,28.416,188.243,30.397,183.141,32.594
		z M297.699,22.387c-5.386-1.244-10.913-2.26-16.422-3.013l2.401-17.495c6.034,0.829,12.091,1.94,18.002,3.308L297.699,22.387z
		 M214.86,22.257l-3.917-17.213c5.924-1.349,11.983-2.442,18.007-3.249l2.342,17.498C225.796,20.027,220.264,21.023,214.86,22.257z
		 M264.649,17.856c-5.548-0.259-11.177-0.266-16.717-0.028l-0.76-17.638c6.06-0.264,12.229-0.251,18.289,0.031L264.649,17.856z"/>
</g>
<g>
</g>
<g>
</g>
<g>
</g>
<g>
</g>
<g>
</g>
<g>
</g>
<g>
</g>
<g>
</g>
<g>
</g>
<g>
</g>
<g>
</g>
<g>
</g>
<g>
</g>
<g>
</g>
<g>
</g>
</svg>
