<?xml version="1.0" encoding="iso-8859-1"?>
<!-- Generator: Adobe Illustrator 19.0.0, SVG Export Plug-In . SVG Version: 6.00 Build 0)  -->
<svg version="1.1" id="Layer_1" xmlns="http://www.w3.org/2000/svg" xmlns:xlink="http://www.w3.org/1999/xlink" x="0px" y="0px"
	 viewBox="0 0 512 512" style="enable-background:new 0 0 512 512;" xml:space="preserve">
<path style="fill:#ffd801;" d="M442.415,502.986H199.251v-24.317c0-12.442,4.754-24.896,14.241-34.386
	c9.482-9.5,21.942-14.249,34.399-14.249h145.887c12.452,0,24.906,4.749,34.383,14.249c9.5,9.49,14.254,21.942,14.254,34.386V502.986
	z"/>
<path style="fill:#242D3C;" d="M320.844,256.451c-24.3,0-44.068-19.761-44.068-44.045s19.768-44.04,44.068-44.04
	c24.274,0,44.032,19.756,44.032,44.04S345.12,256.451,320.844,256.451z M320.844,186.394c-14.357,0-26.04,11.671-26.04,26.012
	c0,14.346,11.681,26.017,26.04,26.017c14.341,0,26.004-11.671,26.004-26.017C346.848,198.062,335.185,186.394,320.844,186.394z"/>
<polygon style="fill:#ffd801;" points="368.111,37.043 273.555,37.043 217.486,212.406 424.165,212.406 "/>
<g>
	<path style="fill:#242D3C;" d="M451.429,512H190.24v-33.331c0-15.396,5.993-29.873,16.878-40.76
		c10.877-10.888,25.357-16.891,40.776-16.891H393.78c15.414,0,29.893,6.003,40.76,16.899c10.89,10.872,16.891,25.349,16.891,40.753
		V512H451.429z M208.265,493.972h225.132v-15.304c0-10.58-4.122-20.531-11.61-28.006c-7.475-7.493-17.416-11.615-28.009-11.615
		H247.891c-10.598,0-20.549,4.122-28.022,11.604c-7.488,7.488-11.604,17.439-11.604,28.017L208.265,493.972L208.265,493.972z"/>
	<path style="fill:#242D3C;" d="M436.512,221.42H205.139l61.832-193.39h107.72L436.512,221.42z M229.828,203.392h181.996
		L361.53,46.057h-81.395L229.828,203.392z"/>
	
		<rect x="178.627" y="81.394" transform="matrix(-0.7072 -0.707 0.707 -0.7072 199.472 424.5152)" style="fill:#242D3C;" width="18.022" height="179.119"/>
	
		<rect x="93.169" y="345.809" transform="matrix(-0.7071 -0.7071 0.7071 -0.7071 89.778 746.8269)" style="fill:#242D3C;" width="212.785" height="18.022"/>
	<path style="fill:#242D3C;" d="M101.677,298.045c-22.666,0-41.108-18.442-41.108-41.111s18.442-41.108,41.108-41.108
		s41.114,18.44,41.114,41.108S124.343,298.045,101.677,298.045z M101.677,233.856c-12.726,0-23.081,10.358-23.081,23.081
		c0,12.728,10.355,23.078,23.081,23.078c12.728,0,23.081-10.35,23.081-23.078C124.758,244.214,114.403,233.856,101.677,233.856z"/>
	<rect x="369.048" y="406.374" style="fill:#242D3C;" width="18.022" height="23.652"/>
	<rect x="236.927" y="212.406" style="fill:#242D3C;" width="18.022" height="71.834"/>
	<path style="fill:#242D3C;" d="M356.113,46.057h-70.574V0h70.574V46.057z M303.566,28.029h34.519V18.028h-34.519V28.029z"/>
</g>
<g>
</g>
<g>
</g>
<g>
</g>
<g>
</g>
<g>
</g>
<g>
</g>
<g>
</g>
<g>
</g>
<g>
</g>
<g>
</g>
<g>
</g>
<g>
</g>
<g>
</g>
<g>
</g>
<g>
</g>
</svg>
