<?xml version="1.0" encoding="iso-8859-1"?>
<!-- Generator: Adobe Illustrator 19.0.0, SVG Export Plug-In . SVG Version: 6.00 Build 0)  -->
<svg version="1.1" id="Layer_1" xmlns="http://www.w3.org/2000/svg" xmlns:xlink="http://www.w3.org/1999/xlink" x="0px" y="0px"
	 viewBox="0 0 512 512" style="enable-background:new 0 0 512 512;" xml:space="preserve">
<g>
	<polygon style="fill:#242D3C;" points="501.294,474.831 428.82,474.831 428.82,456.251 482.714,456.251 482.714,288.568 
		501.294,288.568 	"/>
	<path style="fill:#242D3C;" d="M475.277,512h-55.749V107.748l27.873-27.878l27.878,27.878V512H475.277z M438.111,493.417h18.583
		V115.446l-9.293-9.29l-9.29,9.29V493.417z"/>
	<rect x="428.826" y="279.27" style="fill:#242D3C;" width="37.169" height="18.583"/>
	<rect x="438.118" y="74.394" style="fill:#242D3C;" width="18.583" height="18.616"/>
</g>
<polygon style="fill:#005792;" points="57.165,465.541 57.165,55.749 10.706,55.749 10.706,512 335.905,512 335.905,465.541 "/>
<g>
	<path style="fill:#242D3C;" d="M400.945,474.831H47.869V0h273.229l79.844,79.854v394.977H400.945z M66.455,456.251h315.909V87.552
		l-68.961-68.966H66.455V456.251z"/>
	<polygon style="fill:#242D3C;" points="391.647,92.982 307.96,92.982 307.96,9.29 326.543,9.29 326.543,74.399 391.647,74.399 	"/>
	<rect x="103.621" y="328.038" style="fill:#242D3C;" width="241.587" height="18.583"/>
	<rect x="103.621" y="364.262" style="fill:#242D3C;" width="241.587" height="18.588"/>
	<rect x="103.621" y="400.512" style="fill:#242D3C;" width="241.587" height="18.583"/>
	<rect x="103.621" y="74.394" style="fill:#242D3C;" width="120.781" height="18.583"/>
</g>
<rect x="103.621" y="119.923" style="fill:#005792;" width="241.587" height="181.171"/>
<g>
	<path style="fill:#242D3C;" d="M103.621,119.923v181.166h241.579V119.923H103.621z M326.612,282.506H122.207v-144h204.406V282.506z
		"/>
	
		<rect x="92.008" y="201.217" transform="matrix(-0.8 -0.6 0.6 -0.8 277.636 513.5588)" style="fill:#242D3C;" width="264.806" height="18.58"/>
	
		<rect x="215.136" y="78.103" transform="matrix(-0.5998 -0.8001 0.8001 -0.5998 190.6137 516.3349)" style="fill:#242D3C;" width="18.58" height="264.796"/>
</g>
<g>
</g>
<g>
</g>
<g>
</g>
<g>
</g>
<g>
</g>
<g>
</g>
<g>
</g>
<g>
</g>
<g>
</g>
<g>
</g>
<g>
</g>
<g>
</g>
<g>
</g>
<g>
</g>
<g>
</g>
</svg>
