<?xml version="1.0" encoding="iso-8859-1"?>
<!-- Generator: Adobe Illustrator 19.0.0, SVG Export Plug-In . SVG Version: 6.00 Build 0)  -->
<svg version="1.1" id="Layer_1" xmlns="http://www.w3.org/2000/svg" xmlns:xlink="http://www.w3.org/1999/xlink" x="0px" y="0px"
	 viewBox="0 0 512 512" style="enable-background:new 0 0 512 512;" xml:space="preserve">
<rect x="55.2" y="10.24" style="fill:#005792;" width="65.536" height="491.52"/>
<g>
	<path style="fill:#242D3C;" d="M188.32,512H44.96V0h143.36V512z M65.44,491.52h102.4V20.48H65.44
		C65.44,20.48,65.44,491.52,65.44,491.52z"/>
	<rect x="137.112" y="450.56" style="fill:#242D3C;" width="40.96" height="20.48"/>
	<rect x="137.112" y="409.6" style="fill:#242D3C;" width="40.96" height="20.477"/>
	<rect x="137.112" y="368.64" style="fill:#242D3C;" width="40.96" height="20.48"/>
	<rect x="137.112" y="327.68" style="fill:#242D3C;" width="40.96" height="20.48"/>
	<rect x="137.112" y="286.72" style="fill:#242D3C;" width="40.96" height="20.477"/>
	<rect x="137.112" y="245.76" style="fill:#242D3C;" width="40.96" height="20.48"/>
	<rect x="137.112" y="204.8" style="fill:#242D3C;" width="40.96" height="20.48"/>
	<rect x="137.112" y="163.84" style="fill:#242D3C;" width="40.96" height="20.48"/>
	<rect x="137.112" y="122.88" style="fill:#242D3C;" width="40.96" height="20.48"/>
	<rect x="137.112" y="81.92" style="fill:#242D3C;" width="40.96" height="20.48"/>
	<rect x="137.112" y="40.96" style="fill:#242D3C;" width="40.96" height="20.48"/>
</g>
<polygon style="fill:#ffd801;" points="274.382,138.092 231.328,95.04 231.323,415.667 317.431,415.667 317.436,95.04 "/>
<g>
	<polygon style="fill:#242D3C;" points="252.852,57.759 295.909,57.759 274.377,20.48 	"/>
	<rect x="264.139" y="138.092" style="fill:#242D3C;" width="20.48" height="277.581"/>
	<polygon style="fill:#242D3C;" points="308.571,100.16 274.382,40.955 240.198,100.16 222.46,89.92 274.372,0.005 326.307,89.92 	
		"/>
	<path style="fill:#242D3C;" d="M317.431,425.905h-86.108c-2.714,0-5.317-1.08-7.24-3.003c-1.917-1.917-2.998-4.523-2.998-7.235
		l0.003-320.627c0-4.14,2.499-7.875,6.321-9.462c3.84-1.582,8.238-0.704,11.159,2.222l35.812,35.812L310.194,87.8
		c2.931-2.926,7.332-3.804,11.164-2.222c3.822,1.587,6.316,5.322,6.316,9.462l-0.005,320.627
		C327.671,421.32,323.086,425.905,317.431,425.905z M241.563,405.422h65.628l0.005-285.66l-25.574,25.572
		c-3.999,3.999-10.481,3.999-14.482,0l-25.569-25.572L241.563,405.422z"/>
	<path style="fill:#242D3C;" d="M317.423,461.345h-86.1c-5.652,0-10.24-4.588-10.24-10.24v-35.438c0-5.66,4.588-10.245,10.24-10.245
		h86.108c2.716,0,5.317,1.08,7.24,3.003c1.925,1.92,3,4.529,3,7.242l-0.01,35.443C327.661,456.758,323.076,461.345,317.423,461.345z
		 M241.563,440.865h65.626v-14.961h-65.626V440.865z"/>
	<path style="fill:#242D3C;" d="M274.377,512h-0.021c-14.213,0-27.584-5.537-37.658-15.596
		c-10.071-10.081-15.613-23.468-15.613-37.693v-53.289h106.586l-0.01,53.289c0.015,14.216-5.532,27.604-15.603,37.686
		C301.989,506.463,288.608,512,274.377,512z M241.563,425.905v32.806c0,8.76,3.418,17.004,9.613,23.212
		c6.195,6.182,14.431,9.595,23.178,9.595v10.24l0.015-10.24c8.773,0,17.006-3.412,23.201-9.605c6.2-6.205,9.618-14.444,9.61-23.194
		l0.008-32.817h-65.626V425.905z"/>
</g>
<polygon style="fill:#005792;" points="370.687,50.701 396.013,25.37 421.336,50.701 421.336,451.105 370.687,451.105 "/>
<g>
	<polygon style="fill:#242D3C;" points="467.04,461.345 370.687,461.345 370.687,440.865 446.56,440.865 446.56,250.903 
		467.04,250.903 	"/>
	<path style="fill:#242D3C;" d="M431.576,512h-71.13V46.459l35.569-35.571l35.564,35.571V512H431.576z M380.927,491.52h30.17V54.938
		l-15.083-15.084l-15.086,15.084V491.52z"/>
	<rect x="370.687" y="240.666" style="fill:#242D3C;" width="50.65" height="20.48"/>
	<rect x="385.765" style="fill:#242D3C;" width="20.48" height="25.37"/>
</g>
<g>
</g>
<g>
</g>
<g>
</g>
<g>
</g>
<g>
</g>
<g>
</g>
<g>
</g>
<g>
</g>
<g>
</g>
<g>
</g>
<g>
</g>
<g>
</g>
<g>
</g>
<g>
</g>
<g>
</g>
</svg>
