<?xml version="1.0" encoding="iso-8859-1"?>
<!-- Generator: Adobe Illustrator 19.0.0, SVG Export Plug-In . SVG Version: 6.00 Build 0)  -->
<svg version="1.1" id="Layer_1" xmlns="http://www.w3.org/2000/svg" xmlns:xlink="http://www.w3.org/1999/xlink" x="0px" y="0px"
	 viewBox="0 0 512 512" style="enable-background:new 0 0 512 512;" xml:space="preserve">
<polygon style="fill:#242D3C;" points="282.029,369.654 229.969,369.654 229.969,237.983 247.628,237.983 247.628,351.997 
	264.372,351.997 264.372,237.983 282.029,237.983 "/>
<path style="fill:#ffd801;" d="M362.671,330.98H149.326v-22.054c0-9.572,3.653-19.146,10.949-26.442
	c7.301-7.306,16.873-10.952,26.442-10.952h138.565c9.572,0,19.139,3.648,26.44,10.952c7.301,7.299,10.947,16.87,10.947,26.442
	v22.054H362.671z"/>
<g>
	<rect x="247.167" y="360.832" style="fill:#242D3C;" width="17.654" height="86.925"/>
	<path style="fill:#242D3C;" d="M371.498,447.749h-17.654c0-7.629-2.97-14.799-8.364-20.201c-5.391-5.394-12.567-8.361-20.198-8.361
		H186.717c-7.634,0-14.804,2.965-20.201,8.369c-5.389,5.391-8.364,12.562-8.364,20.193h-17.654c0-12.339,4.805-23.946,13.53-32.676
		c8.737-8.732,20.344-13.54,32.689-13.54h138.565c12.342,0,23.951,4.808,32.681,13.53
		C366.693,423.798,371.498,435.41,371.498,447.749z"/>
	<path style="fill:#242D3C;" d="M255.999,512c-14.354,0-26.03-11.676-26.03-26.03c0-14.346,11.676-26.022,26.03-26.022
		c14.351,0,26.03,11.676,26.03,26.022C282.029,500.324,270.35,512,255.999,512z M255.999,477.601c-4.616,0-8.374,3.753-8.374,8.369
		s3.758,8.374,8.374,8.374c4.616,0,8.374-3.761,8.374-8.374S260.614,477.601,255.999,477.601z"/>
	<path style="fill:#242D3C;" d="M149.326,512c-14.354,0-26.03-11.676-26.03-26.03c0-14.346,11.676-26.022,26.03-26.022
		c14.351,0,26.03,11.676,26.03,26.022C175.356,500.324,163.677,512,149.326,512z M149.326,477.601c-4.616,0-8.374,3.753-8.374,8.369
		s3.758,8.374,8.374,8.374c4.616,0,8.374-3.761,8.374-8.374S153.942,477.601,149.326,477.601z"/>
	<path style="fill:#242D3C;" d="M362.671,512c-14.346,0-26.022-11.676-26.022-26.03c0-14.346,11.676-26.022,26.022-26.022
		c14.354,0,26.03,11.676,26.03,26.022C388.701,500.324,377.025,512,362.671,512z M362.671,477.601c-4.616,0-8.369,3.753-8.369,8.369
		s3.753,8.374,8.369,8.374c4.621,0,8.374-3.761,8.374-8.374S367.292,477.601,362.671,477.601z"/>
</g>
<path style="fill:#ffd801;" d="M336.268,42.307c-1.206-8.947-5.532-17.521-12.864-23.931c-7.329-6.408-16.404-9.546-25.436-9.546
	h-83.942c-9.029,0-18.099,3.139-25.436,9.546c-7.332,6.41-11.658,14.986-12.864,23.931l-24.627,182.531
	c-0.435,3.2,0.468,6.561,2.76,9.18c2.289,2.616,5.496,3.965,8.732,3.965H349.4c3.233,0,6.438-1.347,8.73-3.965
	c2.294-2.616,3.195-5.98,2.762-9.18L336.268,42.307z"/>
<g>
	<rect x="247.167" y="185.19" style="fill:#242D3C;" width="17.654" height="17.654"/>
	<rect x="247.167" y="149.888" style="fill:#242D3C;" width="17.654" height="17.654"/>
	<rect x="247.167" y="114.575" style="fill:#242D3C;" width="17.654" height="17.659"/>
	<rect x="247.167" y="79.265" style="fill:#242D3C;" width="17.654" height="17.654"/>
	<rect x="247.167" y="43.955" style="fill:#242D3C;" width="17.654" height="17.654"/>
	<path style="fill:#242D3C;" d="M371.498,339.807H140.499v-30.881c0-12.349,4.805-23.951,13.53-32.686
		c8.737-8.732,20.344-13.537,32.689-13.537h138.565c12.342,0,23.946,4.805,32.681,13.537c8.73,8.724,13.535,20.334,13.535,32.686
		V339.807z M158.153,322.153h195.689v-13.228c0-7.636-2.97-14.807-8.361-20.201c-5.399-5.394-12.572-8.369-20.201-8.369H186.717
		c-7.626,0-14.804,2.972-20.201,8.369c-5.389,5.391-8.364,12.57-8.364,20.201V322.153z"/>
	<path style="fill:#242D3C;" d="M349.405,246.81H162.595c-5.893,0-11.5-2.542-15.378-6.976c-3.884-4.449-5.655-10.348-4.861-16.184
		l24.625-182.52c1.539-11.397,7.153-21.834,15.798-29.396C191.441,4.168,202.541,0,214.028,0h83.942
		c11.497,0,22.597,4.168,31.242,11.732c8.653,7.562,14.267,17.999,15.811,29.391l24.625,182.528
		c0.791,5.847-0.988,11.743-4.864,16.179C360.897,244.268,355.291,246.81,349.405,246.81z M214.028,17.656
		c-7.217,0-14.188,2.616-19.628,7.368c-5.435,4.746-8.955,11.305-9.923,18.463L159.85,226.012c-0.061,0.474-0.061,1.372,0.658,2.196
		c0.717,0.817,1.61,0.945,2.086,0.945h186.811c0.468,0,1.365-0.128,2.089-0.952c0.714-0.822,0.714-1.72,0.655-2.189L327.52,43.487
		c-0.968-7.158-4.493-13.716-9.93-18.463c-5.432-4.751-12.401-7.368-19.622-7.368C297.967,17.656,214.028,17.656,214.028,17.656z"/>
	<path style="fill:#242D3C;" d="M374.168,318.856h-15.319v-17.661h15.319c7.626,0,14.797-2.967,20.196-8.369
		c5.396-5.394,8.369-12.572,8.369-20.193v-53.445h17.656v53.445c0,12.339-4.81,23.949-13.54,32.684
		C398.117,314.04,386.508,318.856,374.168,318.856z"/>
	<path style="fill:#242D3C;" d="M443.831,226.742h-64.54v-18.145c0-17.795,14.477-32.269,32.271-32.269
		c17.792,0,32.266,14.474,32.266,32.269v18.145H443.831z M394.397,211.635h34.33v-3.041c0-9.467-7.698-17.167-17.162-17.167
		c-9.467,0-17.167,7.7-17.167,17.167L394.397,211.635L394.397,211.635z"/>
	<path style="fill:#242D3C;" d="M153.148,318.856h-15.314c-12.344,0-23.951-4.815-32.684-13.54
		c-8.732-8.732-13.54-20.342-13.54-32.684v-53.445h17.654v53.445c0,7.621,2.97,14.797,8.369,20.201
		c5.396,5.391,12.57,8.361,20.201,8.361h15.314V318.856z"/>
	<path style="fill:#242D3C;" d="M132.707,226.742H68.169v-18.145c0-17.795,14.474-32.269,32.271-32.269
		c17.789,0,32.266,14.474,32.266,32.269V226.742z M83.273,211.635h34.33v-3.041c0-9.467-7.7-17.167-17.162-17.167
		c-9.467,0-17.167,7.7-17.167,17.167V211.635z"/>
</g>
<g>
</g>
<g>
</g>
<g>
</g>
<g>
</g>
<g>
</g>
<g>
</g>
<g>
</g>
<g>
</g>
<g>
</g>
<g>
</g>
<g>
</g>
<g>
</g>
<g>
</g>
<g>
</g>
<g>
</g>
</svg>
