<?xml version="1.0" encoding="iso-8859-1"?>
<!-- Generator: Adobe Illustrator 19.0.0, SVG Export Plug-In . SVG Version: 6.00 Build 0)  -->
<svg version="1.1" id="Layer_1" xmlns="http://www.w3.org/2000/svg" xmlns:xlink="http://www.w3.org/1999/xlink" x="0px" y="0px"
	 viewBox="0 0 512 512" style="enable-background:new 0 0 512 512;" xml:space="preserve">
<polygon style="fill:#242D3C;" points="484.43,431.921 443.081,431.921 443.081,412.227 464.741,412.227 464.741,357.745 
	443.081,357.745 443.081,338.053 484.43,338.053 "/>
<rect x="443.086" y="80.077" style="fill:#ffd801;" width="41.344" height="93.868"/>
<polygon style="fill:#242D3C;" points="484.43,302.93 443.081,302.93 443.081,283.238 464.741,283.238 464.741,228.756 
	443.081,228.756 443.081,209.068 484.43,209.068 "/>
<g>
	<rect x="116.174" y="9.846" style="fill:#005792;" width="326.886" height="164.096"/>
	<rect x="116.174" y="338.048" style="fill:#005792;" width="326.886" height="164.096"/>
</g>
<g>
	<path style="fill:#242D3C;" d="M452.927,512H106.339V0h346.588V512z M126.028,492.308H433.23V19.692H126.028V492.308z"/>
	<path style="fill:#242D3C;" d="M126.028,512H27.57V0h98.458V512z M47.261,492.308h59.075V19.692H47.261V492.308z"/>
	<rect x="225.248" y="207.77" style="fill:#242D3C;" width="108.756" height="19.692"/>
	<rect x="175.259" y="246.144" style="fill:#242D3C;" width="208.742" height="19.692"/>
	<rect x="175.259" y="284.544" style="fill:#242D3C;" width="208.742" height="19.692"/>
	<rect x="66.945" y="123.085" style="fill:#242D3C;" width="19.692" height="19.692"/>
	<rect x="66.945" y="164.096" style="fill:#242D3C;" width="19.692" height="19.692"/>
	<rect x="66.945" y="205.133" style="fill:#242D3C;" width="19.692" height="19.692"/>
	<rect x="66.945" y="246.144" style="fill:#242D3C;" width="19.692" height="19.692"/>
	<rect x="66.945" y="287.181" style="fill:#242D3C;" width="19.692" height="19.692"/>
	<rect x="66.945" y="328.218" style="fill:#242D3C;" width="19.692" height="19.689"/>
	<rect x="66.945" y="369.229" style="fill:#242D3C;" width="19.692" height="19.689"/>
</g>
<g>
</g>
<g>
</g>
<g>
</g>
<g>
</g>
<g>
</g>
<g>
</g>
<g>
</g>
<g>
</g>
<g>
</g>
<g>
</g>
<g>
</g>
<g>
</g>
<g>
</g>
<g>
</g>
<g>
</g>
</svg>
