<?xml version="1.0" encoding="iso-8859-1"?>
<!-- Generator: Adobe Illustrator 19.0.0, SVG Export Plug-In . SVG Version: 6.00 Build 0)  -->
<svg version="1.1" id="Layer_1" xmlns="http://www.w3.org/2000/svg" xmlns:xlink="http://www.w3.org/1999/xlink" x="0px" y="0px"
	 viewBox="0 0 512 512" style="enable-background:new 0 0 512 512;" xml:space="preserve">
<polygon style="fill:#ffd801;" points="42.423,217.738 256.017,360.123 469.597,217.738 469.597,502.518 42.428,502.518 "/>
<g>
	
		<rect x="353.325" y="160.597" transform="matrix(-0.5543 -0.8323 0.8323 -0.5543 323.4249 751.0709)" style="fill:#242D3C;" width="18.964" height="256.688"/>
	<polygon style="fill:#242D3C;" points="479.059,512 32.941,512 32.941,212.664 90.561,174.234 101.078,190.013 51.903,222.81 
		51.903,493.038 460.097,493.038 460.097,222.81 410.961,190.047 421.475,174.272 479.059,212.664 	"/>
	
		<rect x="-0.682" y="350.63" transform="matrix(-0.832 -0.5547 0.5547 -0.832 269.2594 801.7528)" style="fill:#242D3C;" width="513.386" height="18.964"/>
	<polygon style="fill:#242D3C;" points="425.681,253.332 406.721,253.332 406.721,84.687 341.009,18.967 105.302,18.967 
		105.302,253.332 86.34,253.332 86.34,0 348.86,0 425.681,76.828 	"/>
	<polygon style="fill:#242D3C;" points="416.193,90.227 335.453,90.227 335.453,9.485 354.415,9.485 354.415,71.26 416.193,71.26 	
		"/>
	<rect x="290.433" y="229.606" style="fill:#242D3C;" width="87.834" height="18.962"/>
	<rect x="290.433" y="190.029" style="fill:#242D3C;" width="87.834" height="18.962"/>
	<rect x="290.433" y="150.436" style="fill:#242D3C;" width="87.834" height="18.962"/>
	<rect x="290.433" y="110.848" style="fill:#242D3C;" width="87.834" height="18.962"/>
	<rect x="133.761" y="71.26" style="fill:#242D3C;" width="137.728" height="18.967"/>
	<rect x="133.761" y="269.184" style="fill:#242D3C;" width="244.531" height="18.962"/>
	<rect x="193.204" y="308.787" style="fill:#242D3C;" width="125.594" height="18.972"/>
</g>
<rect x="133.761" y="110.848" style="fill:#005792;" width="137.728" height="137.718"/>
<g>
	<rect x="155.214" y="170.24" style="fill:#FFFFFF;" width="18.962" height="18.962"/>
	<rect x="193.128" y="170.24" style="fill:#FFFFFF;" width="18.962" height="18.962"/>
	<rect x="231.067" y="170.24" style="fill:#FFFFFF;" width="18.967" height="18.962"/>
</g>
<g>
</g>
<g>
</g>
<g>
</g>
<g>
</g>
<g>
</g>
<g>
</g>
<g>
</g>
<g>
</g>
<g>
</g>
<g>
</g>
<g>
</g>
<g>
</g>
<g>
</g>
<g>
</g>
<g>
</g>
</svg>
