<?xml version="1.0" encoding="iso-8859-1"?>
<!-- Generator: Adobe Illustrator 19.0.0, SVG Export Plug-In . SVG Version: 6.00 Build 0)  -->
<svg version="1.1" id="Layer_1" xmlns="http://www.w3.org/2000/svg" xmlns:xlink="http://www.w3.org/1999/xlink" x="0px" y="0px"
	 viewBox="0 0 512 512" style="enable-background:new 0 0 512 512;" xml:space="preserve">
<g>
	<polygon style="fill:#242D3C;" points="434.323,512 53.705,512 53.705,0 348.287,0 434.323,86.07 434.323,297.431 414.629,297.431 
		414.629,94.221 340.125,19.692 73.399,19.692 73.399,492.308 414.629,492.308 414.629,442.01 434.323,442.01 	"/>
	<polygon style="fill:#242D3C;" points="424.462,99.976 334.345,99.976 334.345,9.856 354.036,9.856 354.036,80.284 424.462,80.284 
			"/>
	<rect x="117.989" y="353.971" style="fill:#242D3C;" width="126.029" height="19.692"/>
	<rect x="117.989" y="393.062" style="fill:#242D3C;" width="252.058" height="19.692"/>
	<rect x="117.989" y="432.154" style="fill:#242D3C;" width="252.058" height="19.692"/>
</g>
<path style="fill:#005792;" d="M329.944,204.472c0,47.004-38.124,85.105-85.1,85.105c-46.984,0-85.092-38.1-85.092-85.105
	c0-46.979,38.108-85.097,85.092-85.097C291.821,119.375,329.944,157.494,329.944,204.472z"/>
<g>
	<path style="fill:#FFFFFF;" d="M249.171,179.254c0,16.317-13.235,29.542-29.542,29.542s-29.537-13.225-29.537-29.542
		c0-16.307,13.23-29.542,29.537-29.542S249.171,162.947,249.171,179.254z"/>
	<circle style="fill:#FFFFFF;" cx="262.936" cy="222.566" r="13.786"/>
</g>
<g>
	<path style="fill:#242D3C;" d="M244.852,325.801c-32.407,0-62.879-12.618-85.796-35.538c-22.912-22.917-35.535-53.384-35.53-85.788
		c0-66.89,54.431-121.316,121.326-121.321c66.89,0,121.316,54.426,121.316,121.321C366.168,271.375,311.743,325.801,244.852,325.801
		z M244.852,102.845c-56.041,0.003-101.629,45.599-101.629,101.629c-0.003,27.149,10.563,52.667,29.76,71.862
		c19.2,19.195,44.726,29.773,71.872,29.773c56.036,0,101.627-45.596,101.627-101.635
		C346.479,148.439,300.888,102.845,244.852,102.845z"/>
	
		<rect x="318.779" y="285.301" transform="matrix(-0.7073 -0.707 0.707 -0.7073 364.1225 741.0768)" style="fill:#242D3C;" width="33.436" height="19.695"/>
	<path style="fill:#242D3C;" d="M426.147,417.925c-8.594,0-16.663-3.354-22.725-9.436l-85.783-85.768l45.44-45.458l85.791,85.788
		c6.077,6.072,9.426,14.149,9.426,22.73c-0.013,8.612-3.361,16.681-9.436,22.735C442.822,414.572,434.743,417.925,426.147,417.925z
		 M345.481,322.714l71.88,71.862c4.716,4.733,12.897,4.708,17.569,0.015c2.371-2.363,3.666-5.486,3.666-8.819
		c0-3.313-1.295-6.441-3.653-8.799l-71.864-71.854L345.481,322.714z"/>
</g>
<g>
</g>
<g>
</g>
<g>
</g>
<g>
</g>
<g>
</g>
<g>
</g>
<g>
</g>
<g>
</g>
<g>
</g>
<g>
</g>
<g>
</g>
<g>
</g>
<g>
</g>
<g>
</g>
<g>
</g>
</svg>
