<?xml version="1.0" encoding="iso-8859-1"?>
<!-- Generator: Adobe Illustrator 19.0.0, SVG Export Plug-In . SVG Version: 6.00 Build 0)  -->
<svg version="1.1" id="Layer_1" xmlns="http://www.w3.org/2000/svg" xmlns:xlink="http://www.w3.org/1999/xlink" x="0px" y="0px"
	 viewBox="0 0 512.013 512.013" style="enable-background:new 0 0 512.013 512.013;" xml:space="preserve">
<g>
	<rect x="247.046" y="343.501" style="fill:#242D3C;" width="17.971" height="168.512"/>
	<path style="fill:#242D3C;" d="M307.962,352.471H204.044v-56.166h103.918V352.471z M222.007,334.505h67.988v-20.239h-67.988
		V334.505z"/>
</g>
<path style="fill:#ffd801;" d="M127.039,305.285h257.938c0-46.088-24.148-86.469-60.477-109.276V59.937h18.278
	c6.531,0,13.066-2.481,18.045-7.462c4.961-4.982,7.444-11.487,7.444-18.02c0-6.508-2.483-13.046-7.444-17.999
	c-4.979-4.979-11.515-7.473-18.045-7.473h-173.55c-6.505,0-13.041,2.493-17.997,7.473c-4.979,4.956-7.473,11.492-7.473,17.999
	c0,6.533,2.493,13.038,7.473,18.02c4.956,4.979,11.492,7.462,17.997,7.462h18.327v136.067
	C151.223,218.816,127.039,259.197,127.039,305.285z"/>
<g>
	<polygon style="fill:#242D3C;" points="333.48,196.009 315.516,196.009 315.516,68.92 196.538,68.92 196.538,196.009 
		178.574,196.009 178.574,50.954 333.48,50.954 	"/>
	<path style="fill:#242D3C;" d="M393.957,314.266H118.056v-8.98c0-76.068,61.891-137.958,137.958-137.958
		c76.063,0,137.943,61.888,137.943,137.958V314.266z M136.355,296.302h239.306c-4.608-61.99-56.507-111.012-119.644-111.012
		C192.869,185.29,140.96,234.312,136.355,296.302z"/>
	<path style="fill:#242D3C;" d="M342.778,68.92h-173.55c-9.226,0-17.882-3.592-24.364-10.109c-6.5-6.5-10.086-15.155-10.086-24.356
		c0-9.221,3.594-17.874,10.12-24.369C151.354,3.599,160.004,0,169.228,0h173.548c9.219,0,17.882,3.592,24.394,10.104
		c6.497,6.487,10.079,15.135,10.079,24.351c0,9.196-3.574,17.848-10.061,24.361C360.664,65.336,352.001,68.92,342.778,68.92z
		 M169.228,17.966c-4.406,0-8.532,1.718-11.628,4.826c-3.144,3.131-4.856,7.258-4.856,11.666c0,4.403,1.718,8.545,4.841,11.668
		c3.103,3.121,7.232,4.831,11.645,4.831h173.547c4.426,0,8.579-1.718,11.697-4.833c3.095-3.105,4.81-7.255,4.81-11.666
		s-1.71-8.55-4.805-11.64c-3.128-3.128-7.286-4.851-11.702-4.851C342.778,17.966,169.228,17.966,169.228,17.966z"/>
</g>
<g>
</g>
<g>
</g>
<g>
</g>
<g>
</g>
<g>
</g>
<g>
</g>
<g>
</g>
<g>
</g>
<g>
</g>
<g>
</g>
<g>
</g>
<g>
</g>
<g>
</g>
<g>
</g>
<g>
</g>
</svg>
