<?xml version="1.0" encoding="iso-8859-1"?>
<!-- Generator: Adobe Illustrator 19.0.0, SVG Export Plug-In . SVG Version: 6.00 Build 0)  -->
<svg version="1.1" id="Layer_1" xmlns="http://www.w3.org/2000/svg" xmlns:xlink="http://www.w3.org/1999/xlink" x="0px" y="0px"
	 viewBox="0 0 512 512" style="enable-background:new 0 0 512 512;" xml:space="preserve">
<path style="fill:#005792;" d="M256,0C114.614,0,0,114.614,0,256s114.614,256,256,256c141.384,0,256-114.614,256-256
	S397.384,0,256,0z M256,469.335c-117.821,0-213.33-95.514-213.33-213.335S138.179,42.67,256,42.67S469.335,138.179,469.335,256
	S373.821,469.335,256,469.335z"/>
<path style="fill:#242D3C;" d="M256,480C132.485,480,32,379.515,32,256S132.485,32,256,32s224,100.485,224,224S379.515,480,256,480z
	 M256,53.335C144.253,53.335,53.335,144.253,53.335,256c0,111.752,90.918,202.665,202.665,202.665
	c111.752,0,202.665-90.913,202.665-202.665C458.665,144.253,367.752,53.335,256,53.335z"/>
<path style="fill:#005792;" d="M256,165.251c-50.117,0-90.76,40.625-90.76,90.749c0,50.115,40.643,90.749,90.76,90.749
	c50.107,0,90.755-40.635,90.755-90.749C346.755,205.873,306.107,165.251,256,165.251z M256,288c-17.672,0-32-14.328-32-32
	c0-17.672,14.328-32,32-32c17.667,0,32.003,14.328,32.003,32C288.003,273.672,273.667,288,256,288z"/>
<path style="fill:#ffd801;" d="M288.003,256v0.005L405.332,256c0-82.478-66.857-149.332-149.332-149.332V224
	C273.667,224,288.003,238.328,288.003,256z"/>
<g>
	<path style="fill:#242D3C;" d="M288.003,266.67v-21.332l106.263-0.005c-5.468-71.496-65.388-128-138.266-128V96
		c88.225,0,160,71.78,160,160v10.665L288.003,266.67z"/>
	<path style="fill:#242D3C;" d="M256,298.665c-23.526,0-42.67-19.144-42.67-42.665c0-23.521,19.144-42.665,42.67-42.665
		s42.67,19.144,42.67,42.665C298.67,279.521,279.526,298.665,256,298.665z M256,234.673c-11.763,0-21.332,9.564-21.332,21.327
		c0,11.763,9.569,21.332,21.332,21.332c11.763,0,21.332-9.569,21.332-21.332C277.332,244.237,267.763,234.673,256,234.673z"/>
	<rect x="245.325" y="42.67" style="fill:#242D3C;" width="21.332" height="25.597"/>
	
		<rect x="142.927" y="71.667" transform="matrix(-0.5001 -0.866 0.866 -0.5001 162.305 258.366)" style="fill:#242D3C;" width="25.601" height="21.336"/>
	
		<rect x="69.535" y="145.051" transform="matrix(-0.866 -0.5001 0.5001 -0.866 75.7503 331.7389)" style="fill:#242D3C;" width="25.596" height="21.334"/>
	<rect x="42.67" y="245.325" style="fill:#242D3C;" width="25.6" height="21.332"/>
	
		<rect x="71.687" y="343.457" transform="matrix(-0.5 -0.866 0.866 -0.5 -184.9941 605.7076)" style="fill:#242D3C;" width="21.332" height="25.599"/>
	
		<rect x="145.079" y="416.878" transform="matrix(-0.8661 -0.4999 0.4999 -0.8661 75.8422 879.6724)" style="fill:#242D3C;" width="21.333" height="25.6"/>
	<rect x="245.325" y="443.725" style="fill:#242D3C;" width="21.335" height="25.6"/>
	
		<rect x="343.496" y="418.987" transform="matrix(-0.5 -0.866 0.866 -0.5 162.3592 953.0454)" style="fill:#242D3C;" width="25.599" height="21.335"/>
	
		<rect x="416.877" y="345.639" transform="matrix(-0.866 -0.5 0.5 -0.866 623.6547 879.7099)" style="fill:#242D3C;" width="25.602" height="21.336"/>
	<rect x="443.725" y="245.325" style="fill:#242D3C;" width="25.597" height="21.338"/>
	
		<rect x="419.026" y="142.919" transform="matrix(-0.5002 -0.8659 0.8659 -0.5002 509.7923 605.6861)" style="fill:#242D3C;" width="21.337" height="25.6"/>
	
		<rect x="345.61" y="69.535" transform="matrix(-0.8662 -0.4998 0.4998 -0.8662 623.7178 331.7092)" style="fill:#242D3C;" width="21.334" height="25.601"/>
</g>
<g>
</g>
<g>
</g>
<g>
</g>
<g>
</g>
<g>
</g>
<g>
</g>
<g>
</g>
<g>
</g>
<g>
</g>
<g>
</g>
<g>
</g>
<g>
</g>
<g>
</g>
<g>
</g>
<g>
</g>
</svg>
