<?xml version="1.0" encoding="iso-8859-1"?>
<!-- Generator: Adobe Illustrator 19.0.0, SVG Export Plug-In . SVG Version: 6.00 Build 0)  -->
<svg version="1.1" id="Layer_1" xmlns="http://www.w3.org/2000/svg" xmlns:xlink="http://www.w3.org/1999/xlink" x="0px" y="0px"
	 viewBox="0 0 512 512" style="enable-background:new 0 0 512 512;" xml:space="preserve">
<rect y="117.76" style="fill:#ffd801;" width="512" height="348.16"/>
<rect y="281.6" style="fill:#242D3C;" width="512" height="20.48"/>
<g>
	<rect x="98.819" y="117.76" style="fill:#FFFFFF;" width="40.96" height="348.16"/>
	<rect x="372.224" y="117.76" style="fill:#FFFFFF;" width="40.957" height="348.16"/>
</g>
<g>
	<polygon style="fill:#242D3C;" points="160.256,332.803 139.776,332.803 139.776,271.36 98.819,271.36 98.819,332.803 
		78.339,332.803 78.339,250.88 160.256,250.88 	"/>
	<polygon style="fill:#242D3C;" points="433.661,332.803 413.181,332.803 413.181,271.36 372.224,271.36 372.224,332.803 
		351.744,332.803 351.744,250.88 433.661,250.88 	"/>
	<polygon style="fill:#242D3C;" points="348.163,117.76 327.677,117.76 327.677,66.563 184.323,66.563 184.323,117.76 
		163.843,117.76 163.843,46.08 348.163,46.08 	"/>
</g>
<g>
</g>
<g>
</g>
<g>
</g>
<g>
</g>
<g>
</g>
<g>
</g>
<g>
</g>
<g>
</g>
<g>
</g>
<g>
</g>
<g>
</g>
<g>
</g>
<g>
</g>
<g>
</g>
<g>
</g>
</svg>
