<?xml version="1.0" encoding="iso-8859-1"?>
<!-- Generator: Adobe Illustrator 19.0.0, SVG Export Plug-In . SVG Version: 6.00 Build 0)  -->
<svg version="1.1" id="Layer_1" xmlns="http://www.w3.org/2000/svg" xmlns:xlink="http://www.w3.org/1999/xlink" x="0px" y="0px"
	 viewBox="0 0 512 512" style="enable-background:new 0 0 512 512;" xml:space="preserve">
<path style="fill:#005792;" d="M502.154,397.422c0,8.689-3.318,17.375-9.946,24c-6.63,6.635-15.319,9.953-24.008,9.953H43.796
	c8.691,0,17.38-3.318,24.008-9.953c6.625-6.625,9.943-15.311,9.943-24V147.63h424.407L502.154,397.422L502.154,397.422z"/>
<g>
	<path style="fill:#242D3C;" d="M468.203,441.221H43.796v-19.689c6.441,0,12.495-2.506,17.042-7.068
		c4.554-4.547,7.063-10.601,7.063-17.039v-259.64H512v259.638c0,11.694-4.552,22.692-12.828,30.963
		C490.906,436.664,479.905,441.221,468.203,441.221z M80.381,421.53h387.822c6.436,0,12.495-2.506,17.042-7.068
		c4.554-4.547,7.063-10.601,7.063-17.039V157.478H87.596v239.946C87.596,406.121,85.074,414.436,80.381,421.53z"/>
	<path style="fill:#242D3C;" d="M43.796,441.221c-11.704,0-22.705-4.554-30.976-12.836C4.552,420.114,0,409.119,0,397.422V98.371
		h33.951V70.779h147.016v27.592H434.25v19.692H161.27V90.476H53.645v27.587H19.692v279.36c0,6.441,2.509,12.493,7.06,17.039
		c4.552,4.562,10.611,7.068,17.047,7.068v19.692H43.796z"/>
</g>
<rect x="117.133" y="187.008" style="fill:#FFFFFF;" width="137.846" height="47.265"/>
<g>
	<rect x="117.133" y="252.979" style="fill:#242D3C;" width="137.846" height="19.689"/>
	<rect x="117.133" y="291.379" style="fill:#242D3C;" width="68.925" height="19.689"/>
</g>
<g>
</g>
<g>
</g>
<g>
</g>
<g>
</g>
<g>
</g>
<g>
</g>
<g>
</g>
<g>
</g>
<g>
</g>
<g>
</g>
<g>
</g>
<g>
</g>
<g>
</g>
<g>
</g>
<g>
</g>
</svg>
