<?xml version="1.0" encoding="iso-8859-1"?>
<!-- Generator: Adobe Illustrator 19.0.0, SVG Export Plug-In . SVG Version: 6.00 Build 0)  -->
<svg version="1.1" id="Layer_1" xmlns="http://www.w3.org/2000/svg" xmlns:xlink="http://www.w3.org/1999/xlink" x="0px" y="0px"
	 viewBox="0 0 512 512" style="enable-background:new 0 0 512 512;" xml:space="preserve">
<g>
	<path style="fill:#005792;" d="M320.419,241.613c-19.205,0-34.778-15.57-34.778-34.778s15.572-34.778,34.778-34.778
		c25.234,0,45.768-20.531,45.768-45.765c0-19.208,15.57-34.778,34.778-34.778s34.778,15.57,34.778,34.778
		C435.741,189.875,384.009,241.613,320.419,241.613z"/>
	<path style="fill:#005792;" d="M191.563,162.547c-63.575,0-115.305-51.725-115.305-115.305c0-19.208,15.567-34.778,34.778-34.778
		c19.208,0,34.772,15.57,34.772,34.778c0,25.226,20.531,45.75,45.752,45.75c19.213,0,34.778,15.57,34.778,34.778
		S210.774,162.547,191.563,162.547z"/>
	<path style="fill:#005792;" d="M301.556,18.87C288.971,6.292,272.488,0,255.999,0s-32.973,6.292-45.558,18.87
		c-12.585,12.582-18.877,29.066-18.877,45.563v221.468h128.855V64.43C320.419,47.936,314.136,31.45,301.556,18.87z"/>
</g>
<path style="fill:#FFFFFF;" d="M232.139,91.336h-19.32V64.43c0-11.53,4.49-22.38,12.644-30.531
	c8.159-8.159,18.998-12.649,30.533-12.649v19.325c-6.369,0-12.365,2.481-16.873,6.986c-4.503,4.506-6.986,10.493-6.986,16.868
	v26.906H232.139z"/>
<g>
	<path style="fill:#242D3C;" d="M296.756,512h-81.513c-26.24,0-50.916-10.22-69.473-28.78
		c-18.557-18.552-28.782-43.223-28.782-69.466v-97.247h278.001v97.247c0,26.26-10.22,50.934-28.78,69.473
		C347.67,501.78,322.999,512,296.756,512z M136.311,335.828v77.926c0,21.076,8.212,40.901,23.122,55.803
		c14.907,14.912,34.729,23.122,55.811,23.122h81.513c21.082,0,40.899-8.21,55.798-23.117c14.912-14.892,23.117-34.714,23.117-55.808
		v-77.926H136.311z"/>
	<path style="fill:#242D3C;" d="M255.994,481.088h-40.75c-17.987,0-34.903-7.007-47.619-19.722
		c-12.716-12.716-19.72-29.622-19.72-47.611h19.32c0,12.823,4.995,24.883,14.06,33.951c9.07,9.068,21.13,14.062,33.958,14.062h40.75
		V481.088z"/>
	<path style="fill:#242D3C;" d="M415.123,335.828H96.854v-59.587h318.269L415.123,335.828L415.123,335.828z M116.174,316.508
		h279.629V295.56H116.174V316.508z"/>
</g>
<g>
</g>
<g>
</g>
<g>
</g>
<g>
</g>
<g>
</g>
<g>
</g>
<g>
</g>
<g>
</g>
<g>
</g>
<g>
</g>
<g>
</g>
<g>
</g>
<g>
</g>
<g>
</g>
<g>
</g>
</svg>
