<?xml version="1.0" encoding="iso-8859-1"?>
<!-- Generator: Adobe Illustrator 19.0.0, SVG Export Plug-In . SVG Version: 6.00 Build 0)  -->
<svg version="1.1" id="Layer_1" xmlns="http://www.w3.org/2000/svg" xmlns:xlink="http://www.w3.org/1999/xlink" x="0px" y="0px"
	 viewBox="0 0 512.039 512.039" style="enable-background:new 0 0 512.039 512.039;" xml:space="preserve">
<path style="fill:#242D3C;" d="M464.085,316.713H47.947V39.777h416.141v276.936H464.085z M66.363,298.299h379.31V58.189H66.363
	V298.299z"/>
<rect x="86.616" y="78.449" style="fill:#005792;" width="338.816" height="199.596"/>
<polygon style="fill:#FFFFFF;" points="124.432,243.546 111.414,230.525 171.405,170.542 202.788,201.915 229.748,174.958 
	243.231,188.436 295.783,135.892 350.068,190.188 387.602,152.658 400.623,165.681 350.068,216.223 295.783,161.93 243.231,214.474 
	229.748,200.996 202.788,227.958 171.405,196.575 "/>
<g>
	<rect x="108.716" y="98.701" style="fill:#242D3C;" width="87.012" height="18.412"/>
	<rect x="108.716" y="134.602" style="fill:#242D3C;" width="43.505" height="18.412"/>
	<path style="fill:#242D3C;" d="M483.976,58.189H28.063V0h455.913V58.189z M46.472,39.777h419.09V18.417H46.472V39.777z"/>
	<path style="fill:#242D3C;" d="M314.937,356.48H197.1v-58.181h117.834v58.181H314.937z M215.514,338.071h81.011v-21.358h-81.011
		V338.071z"/>
	
		<rect x="185.191" y="326.193" transform="matrix(-0.7904 -0.6126 0.6126 -0.7904 86.5945 883.2321)" style="fill:#242D3C;" width="18.417" height="201.217"/>
	
		<rect x="217.013" y="417.645" transform="matrix(-0.6124 -0.7906 0.7906 -0.6124 174.6961 939.3578)" style="fill:#242D3C;" width="201.25" height="18.412"/>
	<rect x="246.802" y="347.264" style="fill:#242D3C;" width="18.412" height="159.078"/>
</g>
<g>
</g>
<g>
</g>
<g>
</g>
<g>
</g>
<g>
</g>
<g>
</g>
<g>
</g>
<g>
</g>
<g>
</g>
<g>
</g>
<g>
</g>
<g>
</g>
<g>
</g>
<g>
</g>
<g>
</g>
</svg>
