<?xml version="1.0" encoding="iso-8859-1"?>
<!-- Generator: Adobe Illustrator 19.0.0, SVG Export Plug-In . SVG Version: 6.00 Build 0)  -->
<svg version="1.1" id="Layer_1" xmlns="http://www.w3.org/2000/svg" xmlns:xlink="http://www.w3.org/1999/xlink" x="0px" y="0px"
	 viewBox="0 0 512 512" style="enable-background:new 0 0 512 512;" xml:space="preserve">
<polygon style="fill:#ffd801;" points="286.653,113.284 286.653,151.599 225.349,151.599 225.349,113.284 0.261,113.284 
	0.261,189.912 511.744,189.912 511.744,113.284 "/>
<g>
	<polygon style="fill:#242D3C;" points="512,466.021 0,466.021 0,209.548 19.671,209.548 19.671,446.348 492.326,446.348 
		492.326,209.548 512,209.548 	"/>
	<path style="fill:#242D3C;" d="M208.673,416.918h-19.671v-34.051c0-8.136-3.172-15.788-8.934-21.542
		c-5.801-5.76-13.476-8.947-21.581-8.947h-49.882c-8.143,0-15.798,3.172-21.545,8.934c-5.786,5.77-8.957,13.414-8.957,21.555v34.051
		H58.432v-34.051c0-13.402,5.222-25.994,14.723-35.466c9.446-9.467,22.044-14.694,35.451-14.694h49.882
		c13.335,0,25.928,5.212,35.464,14.676c9.503,9.495,14.723,22.093,14.723,35.482L208.673,416.918L208.673,416.918z"/>
	<path style="fill:#242D3C;" d="M133.553,325.224c-26.552,0-48.146-21.601-48.146-48.151c0-26.552,21.594-48.151,48.146-48.151
		c26.532,0,48.123,21.599,48.123,48.151C181.676,303.622,160.084,325.224,133.553,325.224z M133.553,248.595
		c-15.7,0-28.475,12.772-28.475,28.477c0,15.703,12.774,28.477,28.475,28.477c15.69,0,28.452-12.774,28.452-28.477
		C162.004,261.37,149.243,248.595,133.553,248.595z"/>
	<rect x="123.699" y="397.236" style="fill:#242D3C;" width="19.671" height="19.674"/>
	<rect x="123.699" y="363.982" style="fill:#242D3C;" width="19.671" height="19.671"/>
	<rect x="258.867" y="313.217" style="fill:#242D3C;" width="204.006" height="19.671"/>
	<rect x="258.867" y="355.355" style="fill:#242D3C;" width="204.006" height="19.671"/>
	<rect x="258.867" y="397.492" style="fill:#242D3C;" width="110.618" height="19.679"/>
	<path style="fill:#242D3C;" d="M296.486,161.435h-80.973V86.463c0-10.816,4.214-20.979,11.86-28.628
		c7.647-7.644,17.815-11.855,28.628-11.855c10.813,0,20.979,4.211,28.628,11.85c7.644,7.654,11.86,17.815,11.86,28.634v74.972
		H296.486z M235.185,141.761h41.631V86.463c0-5.558-2.166-10.79-6.098-14.717c-3.932-3.93-9.155-6.093-14.717-6.093
		c-5.558,0-10.785,2.166-14.72,6.098c-3.932,3.924-6.098,9.157-6.098,14.715v55.296H235.185z"/>
	<circle style="fill:#242D3C;" cx="256" cy="86.463" r="9.836"/>
</g>
<rect x="258.867" y="229.172" style="fill:#005792;" width="204.006" height="61.304"/>
<rect x="293.837" y="249.985" style="fill:#FFFFFF;" width="134.093" height="19.674"/>
<g>
</g>
<g>
</g>
<g>
</g>
<g>
</g>
<g>
</g>
<g>
</g>
<g>
</g>
<g>
</g>
<g>
</g>
<g>
</g>
<g>
</g>
<g>
</g>
<g>
</g>
<g>
</g>
<g>
</g>
</svg>
