<?xml version="1.0" encoding="iso-8859-1"?>
<!-- Generator: Adobe Illustrator 19.0.0, SVG Export Plug-In . SVG Version: 6.00 Build 0)  -->
<svg version="1.1" id="Layer_1" xmlns="http://www.w3.org/2000/svg" xmlns:xlink="http://www.w3.org/1999/xlink" x="0px" y="0px"
	 viewBox="0 0 512 512" style="enable-background:new 0 0 512 512;" xml:space="preserve">
<g>
	<polygon style="fill:#005792;" points="448.003,310.866 448.003,128.003 411.43,128.003 411.43,91.428 374.858,91.428 
		374.858,201.144 338.289,201.144 338.289,283.428 402.286,283.428 402.286,356.577 438.861,356.577 438.861,512 484.572,512 
		484.572,310.866 	"/>
	<polygon style="fill:#005792;" points="137.142,237.716 137.142,201.144 100.57,201.144 100.57,164.572 64,164.572 64,237.716 
		64,384.005 27.428,384.005 27.428,512 73.142,512 73.142,356.577 109.711,356.577 109.711,283.428 173.714,283.428 
		173.714,237.716 	"/>
</g>
<g>
	<rect x="246.861" y="54.858" style="fill:#242D3C;" width="18.286" height="18.286"/>
	<rect x="246.861" y="91.428" style="fill:#242D3C;" width="18.286" height="18.289"/>
	<rect x="246.861" y="128" style="fill:#242D3C;" width="18.286" height="18.286"/>
	<rect x="246.861" y="164.582" style="fill:#242D3C;" width="18.286" height="18.286"/>
	<rect x="246.861" y="201.139" style="fill:#242D3C;" width="18.286" height="18.286"/>
	<rect x="246.861" y="237.722" style="fill:#242D3C;" width="18.286" height="18.286"/>
	<rect x="246.861" y="274.278" style="fill:#242D3C;" width="18.286" height="18.286"/>
	<rect x="246.861" y="310.861" style="fill:#242D3C;" width="18.286" height="18.286"/>
	<rect x="246.861" y="347.443" style="fill:#242D3C;" width="18.286" height="18.286"/>
	<rect x="246.861" y="384" style="fill:#242D3C;" width="18.286" height="18.286"/>
	<rect x="246.861" y="420.582" style="fill:#242D3C;" width="18.286" height="18.286"/>
	<rect x="246.861" y="457.139" style="fill:#242D3C;" width="18.286" height="18.286"/>
	<rect x="283.418" y="128" style="fill:#242D3C;" width="18.286" height="18.286"/>
	<rect x="283.418" y="164.582" style="fill:#242D3C;" width="18.286" height="18.286"/>
	<rect x="283.418" y="201.139" style="fill:#242D3C;" width="18.286" height="18.286"/>
	<rect x="283.418" y="237.722" style="fill:#242D3C;" width="18.286" height="18.286"/>
	<rect x="283.418" y="274.278" style="fill:#242D3C;" width="18.286" height="18.286"/>
	<rect x="283.418" y="310.861" style="fill:#242D3C;" width="18.286" height="18.286"/>
	<rect x="283.418" y="347.443" style="fill:#242D3C;" width="18.286" height="18.286"/>
	<rect x="283.418" y="384" style="fill:#242D3C;" width="18.286" height="18.286"/>
	<rect x="283.418" y="420.582" style="fill:#242D3C;" width="18.286" height="18.286"/>
	<rect x="283.418" y="457.139" style="fill:#242D3C;" width="18.286" height="18.286"/>
	<rect x="210.278" y="128" style="fill:#242D3C;" width="18.286" height="18.286"/>
	<rect x="210.278" y="164.582" style="fill:#242D3C;" width="18.286" height="18.286"/>
	<rect x="210.278" y="201.139" style="fill:#242D3C;" width="18.286" height="18.286"/>
	<rect x="210.278" y="237.722" style="fill:#242D3C;" width="18.286" height="18.286"/>
	<rect x="210.278" y="274.278" style="fill:#242D3C;" width="18.286" height="18.286"/>
	<rect x="210.278" y="310.861" style="fill:#242D3C;" width="18.286" height="18.286"/>
	<rect x="210.278" y="347.443" style="fill:#242D3C;" width="18.286" height="18.286"/>
	<rect x="210.278" y="384" style="fill:#242D3C;" width="18.286" height="18.286"/>
	<rect x="210.278" y="420.582" style="fill:#242D3C;" width="18.286" height="18.286"/>
	<rect x="210.278" y="457.139" style="fill:#242D3C;" width="18.286" height="18.286"/>
	<path style="fill:#242D3C;" d="M338.289,512H173.714V91.428h36.575V18.289h91.425v73.139h36.575L338.289,512L338.289,512z
		 M192.003,493.714h128V109.716h-36.575V36.575h-54.856v73.144h-36.57V493.714z"/>
	<rect x="246.861" style="fill:#242D3C;" width="18.286" height="27.43"/>
	<rect x="356.582" y="310.861" style="fill:#242D3C;" width="18.286" height="18.286"/>
	<rect x="356.582" y="347.443" style="fill:#242D3C;" width="18.286" height="18.286"/>
	<rect x="356.582" y="384" style="fill:#242D3C;" width="18.286" height="18.286"/>
	<rect x="356.582" y="420.582" style="fill:#242D3C;" width="18.286" height="18.286"/>
	<rect x="356.582" y="457.139" style="fill:#242D3C;" width="18.286" height="18.286"/>
	<rect x="393.139" y="384" style="fill:#242D3C;" width="18.289" height="18.286"/>
	<rect x="393.139" y="420.582" style="fill:#242D3C;" width="18.289" height="18.286"/>
	<rect x="393.139" y="457.139" style="fill:#242D3C;" width="18.289" height="18.286"/>
	<path style="fill:#242D3C;" d="M448.003,512h-128V274.286h91.428v73.149h36.572V512z M338.289,493.714h91.428V365.719h-36.572
		V292.57h-54.856L338.289,493.714L338.289,493.714z"/>
	<rect x="137.139" y="310.861" style="fill:#242D3C;" width="18.286" height="18.286"/>
	<rect x="137.139" y="347.443" style="fill:#242D3C;" width="18.286" height="18.286"/>
	<rect x="137.139" y="384" style="fill:#242D3C;" width="18.286" height="18.286"/>
	<rect x="137.139" y="420.582" style="fill:#242D3C;" width="18.286" height="18.286"/>
	<rect x="137.139" y="457.139" style="fill:#242D3C;" width="18.286" height="18.286"/>
	<rect x="100.557" y="384" style="fill:#242D3C;" width="18.286" height="18.286"/>
	<rect x="100.557" y="420.582" style="fill:#242D3C;" width="18.286" height="18.286"/>
	<rect x="100.557" y="457.139" style="fill:#242D3C;" width="18.286" height="18.286"/>
	<path style="fill:#242D3C;" d="M192.003,512H64V347.436h36.57v-73.149h91.433V512z M82.284,493.714h91.43V292.57h-54.861v73.149
		h-36.57V493.714z"/>
</g>
<g>
</g>
<g>
</g>
<g>
</g>
<g>
</g>
<g>
</g>
<g>
</g>
<g>
</g>
<g>
</g>
<g>
</g>
<g>
</g>
<g>
</g>
<g>
</g>
<g>
</g>
<g>
</g>
<g>
</g>
</svg>
