<?xml version="1.0" encoding="iso-8859-1"?>
<!-- Generator: Adobe Illustrator 19.0.0, SVG Export Plug-In . SVG Version: 6.00 Build 0)  -->
<svg version="1.1" id="Layer_1" xmlns="http://www.w3.org/2000/svg" xmlns:xlink="http://www.w3.org/1999/xlink" x="0px" y="0px"
	 viewBox="0 0 512 512" style="enable-background:new 0 0 512 512;" xml:space="preserve">
<g>
	<polygon style="fill:#005792;" points="214.243,178.936 240.529,238.154 271.487,238.154 297.747,178.929 255.999,150.674 	"/>
	<polygon style="fill:#005792;" points="271.487,238.154 240.529,238.154 185.22,429.612 256.006,512 326.778,429.619 	"/>
</g>
<g>
	<rect x="166.757" y="44.196" style="fill:#242D3C;" width="178.509" height="17.971"/>
	
		<rect x="98.677" y="70.849" transform="matrix(-0.6627 -0.7489 0.7489 -0.6627 261.5856 277.4891)" style="fill:#242D3C;" width="189.214" height="17.971"/>
	<path style="fill:#242D3C;" d="M357.303,230.088l-101.304-68.572l-101.309,68.572L109.72,53.138L123.693,0h264.612l13.975,53.138
		L357.303,230.088z M128.273,53.215L165.8,200.876l90.199-61.051l90.194,61.051l37.53-147.661l-9.272-35.246H137.545L128.273,53.215
		z"/>
	
		<rect x="309.701" y="-14.774" transform="matrix(-0.7489 -0.6626 0.6626 -0.7489 504.4709 350.7769)" style="fill:#242D3C;" width="17.97" height="189.192"/>
</g>
<g>
</g>
<g>
</g>
<g>
</g>
<g>
</g>
<g>
</g>
<g>
</g>
<g>
</g>
<g>
</g>
<g>
</g>
<g>
</g>
<g>
</g>
<g>
</g>
<g>
</g>
<g>
</g>
<g>
</g>
</svg>
