<?xml version="1.0" encoding="iso-8859-1"?>
<!-- Generator: Adobe Illustrator 19.0.0, SVG Export Plug-In . SVG Version: 6.00 Build 0)  -->
<svg version="1.1" id="Layer_1" xmlns="http://www.w3.org/2000/svg" xmlns:xlink="http://www.w3.org/1999/xlink" x="0px" y="0px"
	 viewBox="0 0 511.995 511.995" style="enable-background:new 0 0 511.995 511.995;" xml:space="preserve">
<path style="fill:#242D3C;" d="M408.239,451.766h-33.882v-18.831h33.882c2.509,0,4.869-0.973,6.646-2.747
	c1.784-1.784,2.765-4.152,2.765-6.664v-97.876c0-2.509-0.98-4.877-2.755-6.656c-1.784-1.782-4.145-2.755-6.656-2.755h-33.882
	v-18.824h33.882c7.549,0,14.638,2.934,19.965,8.276c5.325,5.327,8.269,12.413,8.269,19.955v97.876
	c0,7.542-2.944,14.628-8.269,19.965C422.877,448.822,415.789,451.766,408.239,451.766z"/>
<rect x="148.474" y="237.179" style="fill:#ffd801;" width="225.894" height="274.816"/>
<rect x="300.952" y="237.179" style="fill:#242D3C;" width="18.824" height="69.658"/>
<rect x="276.479" y="306.811" style="fill:#FFFFFF;" width="67.766" height="82.816"/>
<g>
	<path style="fill:#242D3C;" d="M238.824,237.174H220v-26.353c0-4.529-1.759-8.781-4.961-11.973
		c-3.197-3.208-7.45-4.966-11.978-4.966h-84.234c-9.551,0-18.532-3.72-25.288-10.481c-6.756-6.748-10.476-15.729-10.476-25.283
		s3.72-18.54,10.476-25.29c6.756-6.756,15.736-10.478,25.288-10.478h44.705c4.524,0,8.778-1.759,11.973-4.956
		c3.203-3.205,4.966-7.457,4.966-11.983c0-4.529-1.764-8.781-4.964-11.978c-3.2-3.205-7.455-4.966-11.978-4.966H55.297
		c-9.554,0-18.532-3.72-25.288-10.476c-6.761-6.748-10.481-15.729-10.481-25.283s3.722-18.54,10.481-25.29
		c6.756-6.756,15.734-10.476,25.288-10.476H217.65c4.524,0,8.778-1.761,11.973-4.961c3.203-3.2,4.966-7.455,4.966-11.981h18.824
		c0,9.554-3.72,18.54-10.481,25.29c-6.738,6.751-15.729,10.473-25.283,10.473H55.297c-4.524,0-8.778,1.766-11.978,4.964
		c-3.205,3.2-4.964,7.455-4.964,11.981c0,4.524,1.759,8.778,4.964,11.973c3.2,3.2,7.455,4.964,11.978,4.964h108.234
		c9.554,0,18.545,3.725,25.288,10.486c6.756,6.743,10.476,15.729,10.476,25.283c0,9.556-3.72,18.537-10.481,25.288
		c-6.738,6.753-15.729,10.478-25.283,10.478h-44.705c-4.524,0-8.778,1.761-11.978,4.959c-3.205,3.2-4.964,7.455-4.964,11.983
		c0,4.524,1.759,8.776,4.964,11.973c3.2,3.2,7.455,4.961,11.978,4.961h84.232c9.559,0,18.545,3.73,25.293,10.486
		c6.751,6.743,10.473,15.729,10.473,25.283V237.174z"/>
	<path style="fill:#242D3C;" d="M342.35,237.174h-18.824v-26.353c0-4.529-1.761-8.781-4.964-11.973
		c-3.195-3.208-7.45-4.966-11.973-4.966h-23.997c-9.554,0-18.534-3.72-25.29-10.481c-6.761-6.748-10.481-15.729-10.481-25.283
		s3.72-18.54,10.481-25.29c6.756-6.756,15.734-10.478,25.29-10.478h150.116c4.526,0,8.778-1.759,11.976-4.956
		c3.205-3.205,4.961-7.457,4.961-11.983c0-4.529-1.759-8.781-4.961-11.978c-3.197-3.205-7.45-4.966-11.976-4.966h-81.884
		c-9.546,0-18.527-3.72-25.283-10.476c-6.758-6.748-10.478-15.729-10.478-25.283s3.72-18.54,10.478-25.29
		c6.756-6.756,15.734-10.476,25.283-10.476h34.355v18.824h-34.355c-4.526,0-8.778,1.766-11.976,4.964
		c-3.205,3.2-4.961,7.455-4.961,11.981c0,4.524,1.759,8.778,4.961,11.973c3.197,3.2,7.45,4.964,11.976,4.964h81.884
		c9.554,0,18.545,3.725,25.293,10.486c6.748,6.743,10.468,15.729,10.468,25.283c0,9.556-3.72,18.537-10.476,25.288
		c-6.74,6.753-15.731,10.478-25.285,10.478H282.592c-4.526,0-8.778,1.761-11.983,4.959c-3.205,3.2-4.964,7.455-4.964,11.983
		c0,4.524,1.761,8.776,4.964,11.973c3.205,3.2,7.457,4.961,11.983,4.961h23.997c9.554,0,18.542,3.73,25.29,10.486
		c6.748,6.743,10.47,15.729,10.47,25.283L342.35,237.174L342.35,237.174z"/>
	<path style="fill:#242D3C;" d="M386.904,210.821h-18.824c0-9.554,3.72-18.54,10.478-25.29c6.748-6.748,15.729-10.478,25.29-10.478
		h52.856c4.526,0,8.778-1.761,11.976-4.959c3.205-3.2,4.961-7.455,4.961-11.978h18.824c0,9.554-3.72,18.534-10.476,25.288
		c-6.758,6.756-15.736,10.476-25.285,10.476h-52.856c-4.531,0-8.786,1.759-11.973,4.959
		C388.663,202.04,386.904,206.292,386.904,210.821z"/>
</g>
<g>
</g>
<g>
</g>
<g>
</g>
<g>
</g>
<g>
</g>
<g>
</g>
<g>
</g>
<g>
</g>
<g>
</g>
<g>
</g>
<g>
</g>
<g>
</g>
<g>
</g>
<g>
</g>
<g>
</g>
</svg>
