<?xml version="1.0" encoding="iso-8859-1"?>
<!-- Generator: Adobe Illustrator 19.0.0, SVG Export Plug-In . SVG Version: 6.00 Build 0)  -->
<svg version="1.1" id="Layer_1" xmlns="http://www.w3.org/2000/svg" xmlns:xlink="http://www.w3.org/1999/xlink" x="0px" y="0px"
	 viewBox="0 0 512 512" style="enable-background:new 0 0 512 512;" xml:space="preserve">
<path style="fill:#005792;" d="M407.955,502.853c3.359,0,6.694-1.285,9.211-3.845c2.614-2.509,3.84-5.847,3.84-9.206v-84.526
	c0-5.519-4.416-9.938-9.856-9.938c-3.08,0-5.719,1.114-7.478,3.343c-7.357,9.267-17.452,16.54-30.126,16.54
	c-19.766,0-35.799-16.008-35.799-35.766c0-19.766,16.036-35.781,35.799-35.781c12.672,0,22.769,7.281,30.126,16.545
	c1.759,2.22,4.398,3.346,7.478,3.346c5.44,0,9.856-4.416,9.856-9.925V269.1c0-3.359-1.229-6.692-3.84-9.201
	c-2.514-2.56-5.852-3.843-9.211-3.843h-84.523c-5.527,0-9.938-4.419-9.938-9.807c0-3.136,1.336-6.003,3.62-7.639
	c9.567-6.986,16.343-17.324,16.343-29.97c0-19.768-16.087-35.84-35.858-35.84c-19.761,0-35.802,16.072-35.802,35.84
	c0,12.646,6.774,22.984,16.343,29.97c2.286,1.636,3.574,4.503,3.574,7.639c0,5.389-4.413,9.807-9.882,9.807h-84.521
	c-3.361,0-6.702,1.28-9.265,3.843c-2.563,2.514-3.843,5.842-3.843,9.208v84.534c0,5.509,4.467,9.925,9.897,9.925
	c3.041,0,5.734-1.121,7.434-3.343c7.421-9.267,17.51-16.548,30.188-16.548c19.758,0,35.796,16.015,35.796,35.784
	c0,19.755-16.038,35.763-35.796,35.763c-12.675,0-22.764-7.273-30.188-16.54c-1.7-2.23-4.393-3.343-7.434-3.343
	c-5.43,0-9.897,4.421-9.897,9.938v84.526c0,3.361,1.28,6.697,3.843,9.213c2.563,2.557,5.903,3.843,9.265,3.843L407.955,502.853z"/>
<g>
	<path style="fill:#242D3C;" d="M187.311,512L187.311,512c-5.924,0-11.51-2.314-15.721-6.51c-4.193-4.116-6.528-9.708-6.528-15.688
		v-84.526c0-10.519,8.54-19.08,19.041-19.08c5.983,0,11.338,2.527,14.705,6.938c6.835,8.532,14.589,12.943,22.917,12.943
		c14.697,0,26.655-11.937,26.655-26.616c0-14.687-11.958-26.637-26.655-26.637c-8.325,0-16.079,4.413-23.05,13.117
		c-3.246,4.245-8.599,6.771-14.572,6.771c-10.501,0-19.041-8.553-19.041-19.067v-84.539c0-5.983,2.34-11.571,6.587-15.736
		c4.14-4.142,9.725-6.456,15.665-6.456h84.518c0.443,0,0.74-0.343,0.74-0.663c0-0.182-0.023-0.325-0.049-0.422
		c-12.841-9.495-19.868-22.671-19.868-37.187c0-24.804,20.165-44.982,44.946-44.982c24.814,0,45,20.178,45,44.982
		c0,14.559-7.071,27.771-19.917,37.222c-0.02,0.087-0.046,0.215-0.046,0.387c0,0.317,0.302,0.663,0.796,0.663h84.523
		c5.978,0,11.569,2.337,15.734,6.579c4.099,3.932,6.456,9.541,6.456,15.608v84.541c0,10.514-8.522,19.067-18.998,19.067
		c-5.967,0-11.169-2.419-14.651-6.817c-6.884-8.668-14.61-13.069-22.953-13.069c-14.7,0-26.657,11.95-26.657,26.634
		c0,14.676,11.958,26.619,26.657,26.619c8.348,0,16.074-4.401,22.966-13.079c3.451-4.375,8.658-6.799,14.638-6.799
		c10.475,0,18.998,8.561,18.998,19.08v84.526c0,6.07-2.36,11.681-6.651,15.798c-3.978,4.058-9.564,6.397-15.542,6.397L187.311,512z
		 M184.104,404.483c-0.366,0-0.753,0.32-0.753,0.796v84.526c0,0.596,0.143,1.746,1.108,2.688c1.021,1.019,2.115,1.226,2.857,1.226
		l220.644-0.005c0.594,0,1.741-0.143,2.685-1.111c0.876-0.842,1.224-1.723,1.224-2.798v-84.526c0.003-0.888-1.262-0.73-1.267-0.735
		c-10.148,12.908-23.04,19.822-37.048,19.822c-24.783,0-44.943-20.147-44.943-44.908c0-24.773,20.16-44.923,44.943-44.923
		c13.96,0,26.819,6.876,37.192,19.889c0.036-0.013,0.184,0.003,0.41,0.003c0.404,0,0.712-0.335,0.712-0.783v-84.541
		c0-0.74-0.179-1.789-1.029-2.609c-1.134-1.149-2.284-1.293-2.877-1.293h-84.523c-10.519,0-19.082-8.499-19.082-18.949
		c0-6.1,2.783-11.732,7.439-15.071c4.636-3.387,12.526-10.885,12.526-22.536c0-14.72-11.986-26.696-26.716-26.696
		c-14.7,0-26.66,11.976-26.66,26.696c0,11.651,7.89,19.149,12.593,22.582c4.557,3.264,7.322,8.901,7.322,15.025
		c0,10.45-8.535,18.949-19.026,18.949h-84.521c-0.748,0-1.836,0.202-2.801,1.165c-0.975,0.957-1.165,2.012-1.165,2.742v84.534
		c-0.003,0.722,0.886,0.799,1.147,0.755c10.547-13.051,23.37-19.863,37.228-19.863c24.778,0,44.941,20.155,44.941,44.925
		c0,24.763-20.16,44.905-44.941,44.905c-13.919,0-26.788-6.866-37.233-19.855C184.403,404.498,184.273,404.483,184.104,404.483z"/>
	<path style="fill:#242D3C;" d="M323.434,265.085L323.434,265.085c-10.524,0-19.087-8.543-19.087-19.046
		c0-5.763,2.45-11.059,6.725-14.528c8.794-6.996,13.217-14.748,13.217-23.086c0-14.697-11.968-26.65-26.68-26.65
		c-14.684,0-26.632,11.953-26.632,26.65c0,8.371,4.406,16.12,13.094,23.03c4.37,3.461,6.792,8.645,6.792,14.584
		c0,10.504-8.54,19.046-19.034,19.046h-84.518c-5.921,0-11.502-2.309-15.713-6.508c-4.201-4.127-6.536-9.713-6.536-15.688v-84.554
		c0-0.768-0.909-0.765-1.106-0.676c-9.421,12.792-22.605,19.832-37.161,19.832c-24.783,0-44.946-20.168-44.946-44.954
		c0-24.781,20.163-44.946,44.946-44.946c14.559,0,27.743,7.043,37.166,19.837c0.197,0.082,1.103,0.092,1.103-0.714V22.193
		c0-5.972,2.337-11.556,6.574-15.726C175.802,2.314,181.388,0,187.311,0h84.518c10.493,0,19.034,8.525,19.034,19.008
		c0,5.949-2.414,11.146-6.799,14.628c-8.684,6.892-13.087,14.628-13.087,22.991c0,14.715,11.948,26.683,26.632,26.683
		c14.712,0,26.68-11.968,26.68-26.683c0-8.333-4.424-16.067-13.143-22.991c-4.421-3.599-6.799-8.768-6.799-14.628
		C304.347,8.525,312.91,0,323.434,0h84.523c5.985,0,11.574,2.34,15.739,6.587c4.093,3.932,6.454,9.539,6.454,15.603v220.7
		c0,6.07-2.36,11.676-6.648,15.795c-3.978,4.063-9.567,6.397-15.544,6.397L323.434,265.085z M164.399,139.297
		c10.45,0,18.949,8.54,18.949,19.041v84.552c0,0.596,0.143,1.743,1.111,2.693c1.016,1.014,2.109,1.219,2.852,1.219h84.518
		c0.425,0,0.745-0.328,0.745-0.76c0-0.343-0.054-0.489-0.054-0.489c-12.915-10.189-19.83-23.099-19.83-37.125
		c0-24.778,20.15-44.936,44.918-44.936c24.794,0,44.964,20.157,44.964,44.936c0,13.975-6.915,26.872-20.001,37.299
		c0.1-0.056,0.056,0.09,0.056,0.315c0,0.448,0.333,0.76,0.801,0.76l84.524-0.003c0.594,0,1.743-0.143,2.685-1.108
		c1.042-1.004,1.224-2.061,1.224-2.801V22.188c0-0.74-0.179-1.792-1.032-2.614c-1.132-1.147-2.276-1.288-2.875-1.288h-84.524
		c-0.458,0-0.801,0.31-0.801,0.722c0,0.289,0.046,0.451,0.064,0.489c12.943,10.24,19.878,23.142,19.878,37.133
		c0,24.796-20.173,44.966-44.964,44.966c-24.768,0-44.918-20.17-44.918-44.966c0-13.983,6.876-26.849,19.883-37.222
		c-0.018-0.036,0.003-0.182,0.003-0.399c0-0.404-0.328-0.722-0.745-0.722h-84.521c-0.742,0-1.836,0.202-2.806,1.175
		c-1.014,0.993-1.157,2.135-1.157,2.732v84.521c0,10.519-8.499,19.075-18.949,19.075c-5.929,0-11.507-2.688-14.922-7.194
		c-3.528-4.838-11.003-12.718-22.682-12.718c-14.7,0-26.66,11.96-26.66,26.66c0,14.705,11.96,26.668,26.66,26.668
		c11.679,0,19.154-7.88,22.572-12.575C152.9,141.983,158.473,139.297,164.399,139.297z"/>
</g>
<g>
</g>
<g>
</g>
<g>
</g>
<g>
</g>
<g>
</g>
<g>
</g>
<g>
</g>
<g>
</g>
<g>
</g>
<g>
</g>
<g>
</g>
<g>
</g>
<g>
</g>
<g>
</g>
<g>
</g>
</svg>
