<?xml version="1.0" encoding="iso-8859-1"?>
<!-- Generator: Adobe Illustrator 19.0.0, SVG Export Plug-In . SVG Version: 6.00 Build 0)  -->
<svg version="1.1" id="Layer_1" xmlns="http://www.w3.org/2000/svg" xmlns:xlink="http://www.w3.org/1999/xlink" x="0px" y="0px"
	 viewBox="0 0 512.003 512.003" style="enable-background:new 0 0 512.003 512.003;" xml:space="preserve">
<g>
	<rect x="218.089" style="fill:#ffd801;" width="75.853" height="37.926"/>
	<rect x="218.089" y="405.811" style="fill:#ffd801;" width="75.853" height="106.191"/>
	<rect x="218.089" y="151.706" style="fill:#ffd801;" width="75.853" height="102.4"/>
</g>
<g>
	<rect x="323.766" y="37.926" style="fill:#242D3C;" width="18.962" height="113.766"/>
	<rect x="380.649" y="37.926" style="fill:#242D3C;" width="18.962" height="113.766"/>
	<path style="fill:#242D3C;" d="M442.291,161.185h-61.627v-9.482c0-10.455-8.512-18.962-18.965-18.962
		c-10.458,0-18.962,8.507-18.962,18.962v9.482H69.714V85.332h52.15c26.14,0,47.409-21.268,47.409-47.409v-9.482h173.463v9.482
		c0,10.455,8.504,18.962,18.962,18.962c10.452,0,18.964-8.507,18.964-18.962v-9.482h61.627v132.744H442.291z M398.426,142.223
		h24.904V47.409h-24.904c-4.221,16.34-19.09,28.444-36.728,28.444c-17.644,0-32.502-12.104-36.726-28.444H187.561
		c-4.616,32.12-32.32,56.888-65.697,56.888H88.678v37.926h236.296c4.221-16.34,19.082-28.444,36.726-28.444
		C379.336,113.777,394.202,125.88,398.426,142.223z"/>
	<path style="fill:#242D3C;" d="M293.926,415.291h-75.853c-7.601,0-14.74-2.959-20.114-8.335c-5.376-5.379-8.33-12.518-8.33-20.109
		s2.954-14.735,8.325-20.106c5.379-5.379,12.518-8.338,20.119-8.338h75.853c7.601,0,14.743,2.959,20.111,8.338
		c5.371,5.371,8.333,12.511,8.333,20.106c0,7.596-2.962,14.738-8.333,20.109C308.669,412.329,301.527,415.291,293.926,415.291z
		 M218.076,377.362c-2.534,0-4.915,0.986-6.707,2.778c-1.789,1.789-2.775,4.175-2.775,6.705s0.986,4.915,2.778,6.707
		c1.789,1.787,4.17,2.772,6.705,2.772h75.853c2.534,0,4.913-0.986,6.697-2.772c1.8-1.797,2.785-4.178,2.785-6.707
		s-0.986-4.913-2.778-6.705s-4.17-2.778-6.705-2.778H218.076z"/>
	<path style="fill:#242D3C;" d="M293.926,377.362h-75.853V358.4h75.853c2.534,0,4.913-0.986,6.697-2.775
		c1.8-1.795,2.785-4.178,2.785-6.707c0-2.527-0.986-4.91-2.778-6.702s-4.17-2.778-6.705-2.778h-56.888v-18.962h56.891
		c7.601,0,14.743,2.957,20.111,8.335c5.371,5.373,8.333,12.513,8.333,20.106c0,7.598-2.962,14.738-8.333,20.111
		C308.669,374.403,301.527,377.362,293.926,377.362z"/>
	<path style="fill:#242D3C;" d="M293.926,339.438h-56.888v-18.962h56.891c2.534,0,4.913-0.986,6.697-2.775
		c1.8-1.797,2.785-4.178,2.785-6.707c0-2.529-0.986-4.91-2.778-6.702c-1.792-1.792-4.17-2.78-6.705-2.78h-56.891V282.55h56.891
		c7.601,0,14.743,2.959,20.111,8.338c5.371,5.371,8.333,12.513,8.333,20.106c0,7.598-2.962,14.738-8.333,20.109
		C308.669,336.479,301.527,339.438,293.926,339.438z"/>
	<path style="fill:#242D3C;" d="M293.926,301.509h-56.888v-18.962h56.891c2.534,0,4.913-0.986,6.697-2.772
		c1.8-1.797,2.785-4.178,2.785-6.707c0-2.529-0.986-4.913-2.778-6.705c-1.792-1.792-4.17-2.778-6.705-2.778h-75.853v-18.962h75.853
		c7.601,0,14.743,2.959,20.111,8.335c5.371,5.371,8.333,12.511,8.333,20.109c0,7.596-2.962,14.735-8.333,20.109
		C308.669,298.55,301.527,301.509,293.926,301.509z"/>
	<path style="fill:#242D3C;" d="M123.259,377.362V358.4c36.595,0,66.371-29.775,66.371-66.371h18.962v37.924
		c0,2.534,0.986,4.915,2.775,6.705c1.792,1.792,4.173,2.778,6.707,2.778h9.482v-66.371c0-2.529-0.986-4.915-2.778-6.707
		c-1.789-1.789-4.17-2.775-6.702-2.775h-56.891c-14.771,0-28.626,5.745-39.022,16.174c-13.967,14.026-32.596,21.75-52.449,21.75
		v-18.962c14.774,0,28.631-5.745,39.014-16.169c13.98-14.029,32.607-21.755,52.454-21.755h56.891c7.601,0,14.74,2.959,20.114,8.333
		c5.376,5.379,8.33,12.521,8.33,20.111V358.4h-28.442c-7.601,0-14.74-2.959-20.114-8.333c-2.355-2.358-4.25-5.053-5.629-7.977
		C176.804,363.453,151.626,377.362,123.259,377.362z"/>
	<rect x="69.711" y="396.314" style="fill:#242D3C;" width="148.36" height="18.964"/>
</g>
<g>
</g>
<g>
</g>
<g>
</g>
<g>
</g>
<g>
</g>
<g>
</g>
<g>
</g>
<g>
</g>
<g>
</g>
<g>
</g>
<g>
</g>
<g>
</g>
<g>
</g>
<g>
</g>
<g>
</g>
</svg>
