<?xml version="1.0" encoding="iso-8859-1"?>
<!-- Generator: Adobe Illustrator 19.0.0, SVG Export Plug-In . SVG Version: 6.00 Build 0)  -->
<svg version="1.1" id="Layer_1" xmlns="http://www.w3.org/2000/svg" xmlns:xlink="http://www.w3.org/1999/xlink" x="0px" y="0px"
	 viewBox="0 0 512 512" style="enable-background:new 0 0 512 512;" xml:space="preserve">
<g>
	<polygon style="fill:#242D3C;" points="333.495,512 178.492,512 178.492,460.193 198.455,460.193 198.455,492.037 313.535,492.037 
		313.535,460.193 333.495,460.193 	"/>
	<rect x="149.964" y="492.032" style="fill:#242D3C;" width="212.096" height="19.963"/>
	<path style="fill:#242D3C;" d="M495.546,389.373H16.452V84.59c0-6.991,2.724-13.568,7.672-18.511
		c4.874-4.936,11.466-7.68,18.519-7.68h59.645v19.963H42.646c-0.97,0-2.824,0.233-4.36,1.784c-1.226,1.226-1.871,2.788-1.871,4.444
		v284.82h439.171V84.59c0-1.656-0.653-3.22-1.83-4.398c-1.577-1.6-3.43-1.833-4.398-1.833h-59.648V58.396h59.648
		c7.05,0,13.64,2.744,18.555,7.721c4.91,4.908,7.634,11.487,7.634,18.473V389.373z"/>
	<rect x="142.207" y="58.399" style="fill:#242D3C;" width="39.926" height="19.963"/>
</g>
<g>
	<rect x="62.365" y="104.302" style="fill:#005792;" width="39.926" height="239.155"/>
	<rect x="142.207" y="104.302" style="fill:#005792;" width="39.926" height="239.155"/>
	<rect x="409.701" y="104.302" style="fill:#005792;" width="39.923" height="239.155"/>
</g>
<g>
	<path style="fill:#242D3C;" d="M469.362,443.379H42.633c-7.037,0-13.619-2.729-18.534-7.69c-4.913-4.887-7.644-11.469-7.644-18.488
		v-47.785h479.094v47.785c0,7.009-2.734,13.601-7.698,18.534C482.979,440.65,476.399,443.379,469.362,443.379z M36.415,389.381
		v27.822c0,1.664,0.643,3.22,1.81,4.388c1.59,1.597,3.443,1.828,4.408,1.828h426.729c0.968,0,2.819-0.23,4.357-1.782
		c1.221-1.213,1.866-2.772,1.866-4.431v-27.822H36.415V389.381z"/>
	<polygon style="fill:#242D3C;" points="133.121,72.492 122.252,48.456 111.382,72.492 93.198,64.269 122.252,0 151.305,64.269 	"/>
	<path style="fill:#242D3C;" d="M152.196,343.468h-19.963V78.359h-19.96v265.108H92.31V68.378c0-5.514,4.467-9.981,9.981-9.981
		h39.923c5.514,0,9.981,4.467,9.981,9.981C152.196,68.378,152.196,343.468,152.196,343.468z"/>
	<polygon style="fill:#242D3C;" points="419.688,343.468 399.727,343.468 399.727,72.527 354.95,27.745 192.119,27.745 
		192.119,343.468 172.159,343.468 172.159,7.782 363.219,7.782 419.688,64.259 	"/>
	<polygon style="fill:#242D3C;" points="409.704,78.359 349.103,78.359 349.103,17.764 369.066,17.764 369.066,58.399 
		409.704,58.399 	"/>
</g>
<path style="fill:#ffd801;" d="M295.924,104.302c-33.078,0-59.889,26.808-59.889,59.878c0,27.543,18.598,50.67,43.904,57.664
	l15.982-34.125l15.979,34.125c25.306-6.994,43.904-30.124,43.904-57.664C355.808,131.11,329.002,104.302,295.924,104.302z"/>
<g>
	<rect x="285.951" y="262.784" style="fill:#242D3C;" width="19.963" height="42.186"/>
	<path style="fill:#242D3C;" d="M346.769,272.758H245.08l50.842-108.57L346.769,272.758z M276.471,252.795h38.902l-19.451-41.539
		L276.471,252.795z"/>
</g>
<g>
</g>
<g>
</g>
<g>
</g>
<g>
</g>
<g>
</g>
<g>
</g>
<g>
</g>
<g>
</g>
<g>
</g>
<g>
</g>
<g>
</g>
<g>
</g>
<g>
</g>
<g>
</g>
<g>
</g>
</svg>
