<?xml version="1.0" encoding="iso-8859-1"?>
<!-- Generator: Adobe Illustrator 19.0.0, SVG Export Plug-In . SVG Version: 6.00 Build 0)  -->
<svg version="1.1" id="Layer_1" xmlns="http://www.w3.org/2000/svg" xmlns:xlink="http://www.w3.org/1999/xlink" x="0px" y="0px"
	 viewBox="0 0 512.01 512.01" style="enable-background:new 0 0 512.01 512.01;" xml:space="preserve">
<g>
	<rect x="244.019" y="44.225" style="fill:#242D3C;" width="19.492" height="19.492"/>
	<rect x="212.173" y="448.365" style="fill:#242D3C;" width="83.151" height="19.492"/>
	<path style="fill:#242D3C;" d="M354.473,509.408H157.545c-24.553,0-44.526-19.955-44.526-44.49V47.136
		c0-24.556,19.973-44.534,44.526-44.534h196.928c24.54,0,44.508,19.976,44.508,44.534V464.92
		C398.981,489.453,379.013,509.408,354.473,509.408z M157.545,22.094c-13.801,0-25.032,11.231-25.032,25.039v417.784
		c0,13.788,11.231,24.998,25.032,24.998h196.928c13.793,0,25.014-11.21,25.014-24.998V47.136c0-13.809-11.223-25.039-25.014-25.039
		H157.545V22.094z"/>
	<rect x="122.765" y="85.851" style="fill:#242D3C;" width="266.47" height="19.492"/>
	<rect x="122.765" y="406.739" style="fill:#242D3C;" width="266.47" height="19.492"/>
	<path style="fill:#242D3C;" d="M94.316,382.757H75.607v-19.492h18.708V382.757z M56.901,382.757H38.198v-19.492h18.703V382.757z"/>
	<rect y="363.27" style="fill:#242D3C;" width="19.492" height="19.492"/>
	<path style="fill:#242D3C;" d="M19.492,343.771H0v-19.494h19.492V343.771z M19.492,304.78H0v-19.492h19.492V304.78z
		 M19.492,265.793H0v-19.497h19.492V265.793z M19.492,226.802H0v-19.497h19.492V226.802z M19.492,187.813H0v-19.497h19.492V187.813z
		"/>
	<rect y="129.338" style="fill:#242D3C;" width="19.492" height="19.492"/>
	<path style="fill:#242D3C;" d="M94.316,148.824H75.61v-19.492h18.706V148.824z M56.906,148.824H38.198v-19.492h18.708V148.824z"/>
	<rect x="418.483" y="129.338" style="fill:#242D3C;" width="93.527" height="19.492"/>
	<rect x="418.483" y="168.321" style="fill:#242D3C;" width="93.527" height="19.492"/>
	<rect x="418.483" y="207.31" style="fill:#242D3C;" width="93.527" height="19.492"/>
	<rect x="418.483" y="246.304" style="fill:#242D3C;" width="93.527" height="19.494"/>
	<rect x="418.483" y="285.293" style="fill:#242D3C;" width="93.527" height="19.492"/>
	<rect x="418.483" y="324.282" style="fill:#242D3C;" width="93.527" height="19.492"/>
	<rect x="418.483" y="363.27" style="fill:#242D3C;" width="93.527" height="19.492"/>
</g>
<g>
	<rect x="156.493" y="129.338" style="fill:#ffd801;" width="35.689" height="35.686"/>
	<rect x="156.493" y="183.771" style="fill:#ffd801;" width="35.689" height="35.692"/>
	<rect x="156.493" y="238.189" style="fill:#ffd801;" width="35.689" height="35.681"/>
	<rect x="156.493" y="347.066" style="fill:#ffd801;" width="35.689" height="35.686"/>
	<rect x="210.944" y="129.338" style="fill:#ffd801;" width="35.686" height="35.686"/>
	<rect x="210.944" y="183.771" style="fill:#ffd801;" width="35.686" height="35.692"/>
	<rect x="210.944" y="238.189" style="fill:#ffd801;" width="35.686" height="35.681"/>
	<rect x="210.944" y="347.066" style="fill:#ffd801;" width="35.686" height="35.686"/>
	<rect x="265.37" y="129.338" style="fill:#ffd801;" width="35.684" height="35.686"/>
	<rect x="265.37" y="183.771" style="fill:#ffd801;" width="35.684" height="35.692"/>
	<rect x="265.37" y="347.066" style="fill:#ffd801;" width="35.684" height="35.686"/>
	<rect x="319.795" y="129.338" style="fill:#ffd801;" width="35.692" height="35.686"/>
	<rect x="319.795" y="183.771" style="fill:#ffd801;" width="35.692" height="35.692"/>
	<rect x="319.795" y="347.066" style="fill:#ffd801;" width="35.692" height="35.686"/>
</g>
<g>
</g>
<g>
</g>
<g>
</g>
<g>
</g>
<g>
</g>
<g>
</g>
<g>
</g>
<g>
</g>
<g>
</g>
<g>
</g>
<g>
</g>
<g>
</g>
<g>
</g>
<g>
</g>
<g>
</g>
</svg>
