<?xml version="1.0" encoding="iso-8859-1"?>
<!-- Generator: Adobe Illustrator 19.0.0, SVG Export Plug-In . SVG Version: 6.00 Build 0)  -->
<svg version="1.1" id="Layer_1" xmlns="http://www.w3.org/2000/svg" xmlns:xlink="http://www.w3.org/1999/xlink" x="0px" y="0px"
	 viewBox="0 0 512 512" style="enable-background:new 0 0 512 512;" xml:space="preserve">
<path style="fill:#242D3C;" d="M418.257,512l-23.585-143.04l39.68-130.304c6.024-17.59,9.027-35.676,9.027-54.072
	c0-91.54-74.47-166.019-166.008-166.019c-91.551,0-166.031,74.478-166.031,166.019l-0.108,22.592L76.026,310.185h41.27
	l8.742,110.008l80.156-8.046l11.986,97.208l-18.422,2.278l-9.766-79.201l-80.957,8.125l-8.883-111.808H50.057l42.609-124.657
	v-28.792h0.338C97.855,77.816,178.697,0,277.372,0c101.773,0,184.571,82.803,184.571,184.584c0,20.447-3.338,40.563-9.93,59.786
	l-38.321,125.855l22.881,138.76L418.257,512z"/>
<path style="fill:#005792;" d="M277.495,81.733c-56.822,0.01-102.861,46.049-102.861,102.871c0,30.093,12.948,57.17,33.539,75.986
	c0.97,0.812,1.951,1.667,2.959,2.552c16.072,14.666,26.163,35.745,26.163,59.192h80.402c0-23.447,10.069-44.529,26.186-59.192
	c0.98-0.886,1.958-1.741,2.936-2.552c20.564-18.819,33.533-45.893,33.533-75.986C380.353,127.782,334.319,81.743,277.495,81.733z"/>
<g>
	<polygon style="fill:#FFFFFF;" points="277.321,115.904 277.321,190.561 245.027,190.561 	"/>
	<polygon style="fill:#FFFFFF;" points="277.321,253.274 277.321,178.606 309.6,178.606 	"/>
</g>
<g>
	<rect x="228.865" y="313.062" style="fill:#242D3C;" width="97.249" height="18.565"/>
	<rect x="228.865" y="342.963" style="fill:#242D3C;" width="97.249" height="18.565"/>
	<rect x="255.054" y="372.89" style="fill:#242D3C;" width="44.884" height="18.565"/>
	<rect x="268.212" y="402.816" style="fill:#242D3C;" width="18.563" height="107.674"/>
	<path style="fill:#242D3C;" d="M194.589,302.147c-5.322-3.758-10.445-7.913-15.219-12.352l12.646-13.591
		c4.163,3.873,8.625,7.496,13.266,10.765L194.589,302.147z M360.329,301.998l-10.721-15.15c4.636-3.284,9.088-6.909,13.233-10.79
		l12.682,13.56C370.763,294.062,365.651,298.232,360.329,301.998z M165.964,275.492c-4.127-5.048-7.941-10.419-11.341-15.979
		l15.831-9.69c2.964,4.841,6.29,9.526,9.884,13.921L165.964,275.492z M388.893,275.279l-14.403-11.712
		c3.581-4.406,6.897-9.098,9.846-13.952l15.864,9.641C396.811,264.832,393.01,270.228,388.893,275.279z M145.558,242.132
		c-2.614-5.985-4.838-12.201-6.602-18.473l17.871-5.028c1.533,5.458,3.466,10.86,5.742,16.067L145.558,242.132z M409.22,241.836
		l-17.027-7.393c2.26-5.204,4.178-10.616,5.701-16.092l17.882,4.974C414.022,229.619,411.818,235.848,409.22,241.836z
		 M134.949,204.462c-0.893-6.428-1.349-13.002-1.364-19.543l18.563-0.044c0.015,5.711,0.415,11.443,1.188,17.044L134.949,204.462z
		 M419.729,204.124l-18.399-2.493c0.763-5.599,1.147-11.333,1.147-17.052l-0.005-0.527h18.565v0.333
		C421.042,191.13,420.599,197.706,419.729,204.124z M153.261,167.823l-18.401-2.465c0.87-6.469,2.189-12.936,3.93-19.213
		l17.889,4.961C155.165,156.57,154.016,162.194,153.261,167.823z M401.266,167.053c-0.791-5.64-1.974-11.259-3.52-16.704
		l17.861-5.066c1.772,6.262,3.139,12.716,4.042,19.19L401.266,167.053z M162.367,135.004l-17.037-7.368
		c2.586-5.983,5.617-11.848,9.004-17.434l15.872,9.626C167.254,124.692,164.617,129.8,162.367,135.004z M391.971,134.287
		c-2.281-5.197-4.943-10.284-7.913-15.117l15.823-9.713c3.41,5.553,6.469,11.4,9.088,17.367L391.971,134.287z M180.038,105.861
		l-14.415-11.689c4.106-5.061,8.591-9.889,13.345-14.354l12.703,13.535C187.526,97.239,183.617,101.448,180.038,105.861z
		 M374.153,105.265c-3.599-4.39-7.532-8.579-11.694-12.439l12.626-13.609c4.777,4.436,9.295,9.236,13.427,14.282L374.153,105.265z
		 M204.888,82.534l-10.755-15.127c5.315-3.786,10.934-7.229,16.707-10.245l8.599,16.448
		C214.414,76.239,209.522,79.242,204.888,82.534z M349.18,82.074c-4.662-3.274-9.58-6.246-14.615-8.84l8.497-16.504
		c5.783,2.977,11.43,6.392,16.786,10.148L349.18,82.074z M235.068,66.755l-6.264-17.472c6.134-2.202,12.483-3.999,18.867-5.34
		l3.822,18.166C245.938,63.276,240.411,64.842,235.068,66.755z M318.883,66.476c-5.348-1.882-10.888-3.412-16.461-4.541
		l3.689-18.194c6.41,1.3,12.78,3.059,18.934,5.225L318.883,66.476z M268.402,59.743l-1.313-18.516
		c3.379-0.241,6.81-0.358,10.194-0.358c0.031,0,0.054,0,0.079,0c3.082,0,6.216,0.097,9.311,0.294L285.5,59.689
		c-2.726-0.174-5.335-0.189-8.21-0.259C274.333,59.43,271.346,59.533,268.402,59.743z"/>
</g>
<g>
</g>
<g>
</g>
<g>
</g>
<g>
</g>
<g>
</g>
<g>
</g>
<g>
</g>
<g>
</g>
<g>
</g>
<g>
</g>
<g>
</g>
<g>
</g>
<g>
</g>
<g>
</g>
<g>
</g>
</svg>
