<?xml version="1.0" encoding="iso-8859-1"?>
<!-- Generator: Adobe Illustrator 19.0.0, SVG Export Plug-In . SVG Version: 6.00 Build 0)  -->
<svg version="1.1" id="Layer_1" xmlns="http://www.w3.org/2000/svg" xmlns:xlink="http://www.w3.org/1999/xlink" x="0px" y="0px"
	 viewBox="0 0 512 512" style="enable-background:new 0 0 512 512;" xml:space="preserve">
<path style="fill:#242D3C;" d="M510.801,512H11.606V192.376h499.195V512z M31.935,491.674h458.54V212.705H31.935V491.674z"/>
<rect x="69.659" y="250.419" style="fill:#ffd801;" width="383.078" height="203.52"/>
<polygon style="fill:#FFFFFF;" points="239.259,317.624 299.114,352.187 239.259,386.747 "/>
<g>
	<path style="fill:#242D3C;" d="M510.801,212.705H11.606v-80.182h499.195V212.705z M31.935,192.376h458.54V152.85H31.935V192.376z"
		/>
	
		<rect x="9.377" y="162.452" transform="matrix(-0.7071 -0.7071 0.7071 -0.7071 -33.8109 331.2254)" style="fill:#242D3C;" width="84.633" height="20.326"/>
	
		<rect x="79.197" y="162.458" transform="matrix(-0.7071 -0.7071 0.7071 -0.7071 85.3962 380.614)" style="fill:#242D3C;" width="84.658" height="20.326"/>
	
		<rect x="149.031" y="162.455" transform="matrix(-0.7071 -0.7071 0.7071 -0.7071 204.6124 429.9898)" style="fill:#242D3C;" width="84.658" height="20.326"/>
	
		<rect x="218.884" y="162.445" transform="matrix(-0.7072 -0.707 0.707 -0.7072 323.9083 479.3594)" style="fill:#242D3C;" width="84.658" height="20.329"/>
	
		<rect x="288.703" y="162.454" transform="matrix(-0.7071 -0.7071 0.7071 -0.7071 443.0486 528.7501)" style="fill:#242D3C;" width="84.658" height="20.326"/>
	
		<rect x="358.543" y="162.455" transform="matrix(-0.7072 -0.707 0.707 -0.7072 562.3281 578.1183)" style="fill:#242D3C;" width="84.658" height="20.331"/>
	
		<rect x="428.375" y="162.452" transform="matrix(-0.7071 -0.7071 0.7071 -0.7071 681.4847 627.5103)" style="fill:#242D3C;" width="84.658" height="20.326"/>
	<path style="fill:#242D3C;" d="M13.249,154.263L1.199,74.985L494.734,0l12.035,79.278L13.249,154.263z M24.355,92.029l5.934,39.078
		l453.332-68.874l-5.934-39.084L24.355,92.029z"/>
	
		<rect x="36.702" y="66.272" transform="matrix(-0.8055 -0.5926 0.5926 -0.8055 20.2588 223.8523)" style="fill:#242D3C;" width="20.326" height="84.659"/>
	
		<rect x="105.734" y="55.771" transform="matrix(-0.8053 -0.5928 0.5928 -0.8053 151.0816 245.8085)" style="fill:#242D3C;" width="20.331" height="84.656"/>
	
		<rect x="174.787" y="45.299" transform="matrix(-0.8052 -0.5931 0.5931 -0.8052 281.8908 267.874)" style="fill:#242D3C;" width="20.325" height="84.664"/>
	
		<rect x="243.82" y="34.813" transform="matrix(-0.8054 -0.5928 0.5928 -0.8054 412.8073 289.8301)" style="fill:#242D3C;" width="20.33" height="84.663"/>
	
		<rect x="312.86" y="24.311" transform="matrix(-0.8055 -0.5926 0.5926 -0.8055 543.7274 311.7425)" style="fill:#242D3C;" width="20.326" height="84.659"/>
	
		<rect x="381.934" y="13.862" transform="matrix(-0.8052 -0.5931 0.5931 -0.8052 674.4683 333.979)" style="fill:#242D3C;" width="20.325" height="84.664"/>
	
		<rect x="450.934" y="3.324" transform="matrix(-0.8053 -0.5928 0.5928 -0.8053 805.3835 355.7449)" style="fill:#242D3C;" width="20.333" height="84.63"/>
</g>
<g>
</g>
<g>
</g>
<g>
</g>
<g>
</g>
<g>
</g>
<g>
</g>
<g>
</g>
<g>
</g>
<g>
</g>
<g>
</g>
<g>
</g>
<g>
</g>
<g>
</g>
<g>
</g>
<g>
</g>
</svg>
