<?xml version="1.0" encoding="iso-8859-1"?>
<!-- Generator: Adobe Illustrator 19.0.0, SVG Export Plug-In . SVG Version: 6.00 Build 0)  -->
<svg version="1.1" id="Layer_1" xmlns="http://www.w3.org/2000/svg" xmlns:xlink="http://www.w3.org/1999/xlink" x="0px" y="0px"
	 viewBox="0 0 512 512" style="enable-background:new 0 0 512 512;" xml:space="preserve">
<rect x="82.79" y="137.482" style="fill:#005792;" width="346.445" height="237.03"/>
<g>
	<polygon style="fill:#FFFFFF;" points="82.78,338.962 82.78,374.52 303.414,374.52 175.319,246.423 	"/>
	<polygon style="fill:#FFFFFF;" points="320.65,193.628 139.758,374.52 429.22,374.52 429.22,302.195 	"/>
	<circle style="fill:#FFFFFF;" cx="228.838" cy="201.037" r="27.569"/>
</g>
<g>
	<rect x="82.79" y="364.672" style="fill:#242D3C;" width="346.445" height="19.692"/>
	<path style="fill:#242D3C;" d="M512,110.861h-56.161V54.7H512V110.861z M475.53,91.169h16.778V74.394H475.53V91.169z"/>
	<path style="fill:#242D3C;" d="M56.159,110.861H0V54.7h56.159V110.861z M19.692,91.169h16.773V74.394H19.692V91.169z"/>
	<path style="fill:#242D3C;" d="M512,457.3h-56.161v-56.161H512V457.3z M475.53,437.606h16.778v-16.778H475.53V437.606z"/>
	<path style="fill:#242D3C;" d="M56.159,457.3H0v-56.161h56.159V457.3z M19.692,437.606h16.773v-16.778H19.692V437.606z"/>
	<rect x="474.086" y="101.015" style="fill:#242D3C;" width="19.692" height="9.846"/>
	<path style="fill:#242D3C;" d="M493.765,381.786h-19.692v-19.351h19.692V381.786z M493.765,343.081h-19.692V323.73h19.692V343.081z
		 M493.765,304.376h-19.692v-19.351h19.692V304.376z M493.765,265.672h-19.692v-19.348h19.692V265.672z M493.765,226.97h-19.692
		v-19.351h19.692V226.97z M493.765,188.265h-19.692v-19.351h19.692V188.265z M493.765,149.56h-19.692v-19.351h19.692V149.56z"/>
	<rect x="474.086" y="401.126" style="fill:#242D3C;" width="19.692" height="9.848"/>
	<rect x="18.235" y="101.015" style="fill:#242D3C;" width="19.692" height="9.846"/>
	<path style="fill:#242D3C;" d="M37.926,381.786H18.235v-19.351h19.692C37.926,362.435,37.926,381.786,37.926,381.786z
		 M37.926,343.081H18.235V323.73h19.692C37.926,323.73,37.926,343.081,37.926,343.081z M37.926,304.376H18.235v-19.351h19.692
		C37.926,285.025,37.926,304.376,37.926,304.376z M37.926,265.672H18.235v-19.348h19.692
		C37.926,246.323,37.926,265.672,37.926,265.672z M37.926,226.97H18.235v-19.351h19.692C37.926,207.619,37.926,226.97,37.926,226.97
		z M37.926,188.265H18.235v-19.351h19.692C37.926,168.914,37.926,188.265,37.926,188.265z M37.926,149.56H18.235v-19.351h19.692
		C37.926,130.209,37.926,149.56,37.926,149.56z"/>
	<rect x="18.235" y="401.126" style="fill:#242D3C;" width="19.692" height="9.848"/>
	<rect x="46.31" y="72.934" style="fill:#242D3C;" width="9.846" height="19.692"/>
	<path style="fill:#242D3C;" d="M436.805,92.628h-19.034V72.934h19.034V92.628z M398.738,92.628h-19.031V72.934h19.031V92.628z
		 M360.673,92.628h-19.031V72.934h19.031V92.628z M322.614,92.628h-19.036V72.934h19.036V92.628z M284.544,92.628H265.51V72.934
		h19.034V92.628z M246.482,92.628h-19.036V72.934h19.036V92.628z M208.415,92.628h-19.031V72.934h19.031V92.628z M170.35,92.628
		h-19.031V72.934h19.031V92.628z M132.285,92.628h-19.031V72.934h19.031C132.285,72.934,132.285,92.628,132.285,92.628z
		 M94.218,92.628H75.187V72.934h19.031V92.628z"/>
	<rect x="455.834" y="72.934" style="fill:#242D3C;" width="9.848" height="19.692"/>
	<rect x="46.31" y="419.379" style="fill:#242D3C;" width="9.846" height="19.692"/>
	<path style="fill:#242D3C;" d="M436.805,439.066h-19.034v-19.692h19.034V439.066z M398.738,439.066h-19.031v-19.692h19.031V439.066
		z M360.673,439.066h-19.031v-19.692h19.031V439.066z M322.614,439.066h-19.036v-19.692h19.036V439.066z M284.544,439.066H265.51
		v-19.692h19.034V439.066z M246.482,439.066h-19.036v-19.692h19.036V439.066z M208.415,439.066h-19.031v-19.692h19.031V439.066z
		 M170.35,439.066h-19.031v-19.692h19.031V439.066z M132.285,439.066h-19.031v-19.692h19.031
		C132.285,419.374,132.285,439.066,132.285,439.066z M94.218,439.066H75.187v-19.692h19.031V439.066z"/>
	<rect x="455.834" y="419.379" style="fill:#242D3C;" width="9.848" height="19.692"/>
</g>
<g>
</g>
<g>
</g>
<g>
</g>
<g>
</g>
<g>
</g>
<g>
</g>
<g>
</g>
<g>
</g>
<g>
</g>
<g>
</g>
<g>
</g>
<g>
</g>
<g>
</g>
<g>
</g>
<g>
</g>
</svg>
