<?xml version="1.0" encoding="iso-8859-1"?>
<!-- Generator: Adobe Illustrator 19.0.0, SVG Export Plug-In . SVG Version: 6.00 Build 0)  -->
<svg version="1.1" id="Layer_1" xmlns="http://www.w3.org/2000/svg" xmlns:xlink="http://www.w3.org/1999/xlink" x="0px" y="0px"
	 viewBox="0 0 512 512" style="enable-background:new 0 0 512 512;" xml:space="preserve">
<path style="fill:#005792;" d="M442.135,283.94c0,102.789-83.336,186.125-186.14,186.125c-102.799,0-186.13-83.336-186.13-186.125
	c0-102.81,83.331-186.153,186.13-186.153C358.799,97.787,442.135,181.13,442.135,283.94z"/>
<path style="fill:#FFFFFF;" d="M382.418,331.259l-102.702-177.9c-4.874-8.468-13.921-13.686-23.721-13.686
	c-9.779,0-18.819,5.217-23.713,13.686l-102.7,177.9c-7.567,13.102-3.082,29.852,10.022,37.425
	c13.092,7.542,29.852,3.057,37.414-10.025l23.716-41.098h110.533l23.731,41.098c5.041,8.776,14.254,13.688,23.716,13.688
	c4.662,0,9.377-1.175,13.681-3.663C385.495,361.111,389.985,344.361,382.418,331.259z M232.364,262.789l23.631-40.963l23.647,40.963
	H232.364z"/>
<g>
	<path style="fill:#242D3C;" d="M358.712,380.9c-12.833,0-24.765-6.889-31.132-17.981l-21.253-36.803H205.676l-21.248,36.82
		c-6.405,11.082-18.348,17.966-31.168,17.966c-6.277,0-12.472-1.661-17.925-4.805c-17.172-9.923-23.073-31.951-13.161-49.116
		l102.7-177.899c6.403-11.082,18.327-17.964,31.122-17.964c12.823,0,24.75,6.886,31.135,17.974l102.7,177.889
		c9.912,17.16,4.009,39.191-13.156,49.108C371.228,379.238,365.015,380.9,358.712,380.9z M195.791,309.005h120.415l26.202,45.376
		c3.338,5.811,9.58,9.411,16.305,9.411c3.302,0,6.551-0.87,9.398-2.511c8.998-5.199,12.093-16.748,6.897-25.741L272.305,157.637
		c-3.346-5.806-9.59-9.408-16.312-9.408c-6.705,0-12.951,3.604-16.302,9.411l-102.7,177.9c-5.192,8.993-2.102,20.539,6.894,25.741
		c2.852,1.641,6.093,2.511,9.375,2.511c6.73,0,12.995-3.61,16.351-9.416L195.791,309.005z M294.459,271.347h-76.913l38.444-66.637
		L294.459,271.347z M247.178,254.236h17.646l-8.827-15.291L247.178,254.236z"/>
	<path style="fill:#242D3C;" d="M451.674,468.28l-8.01-13.867l14.82-8.558l8.01,13.868L451.674,468.28z M435.653,440.542
		l-8.008-13.865l14.817-8.558l8.008,13.868L435.653,440.542z M419.635,412.81l-8.013-13.87l14.82-8.558l8.01,13.865L419.635,412.81z
		 M403.615,385.072l-8.01-13.868l14.817-8.558l8.013,13.87L403.615,385.072z"/>
	<path style="fill:#242D3C;" d="M404.216,495.672l-8.008-13.87l14.817-8.556l8.008,13.87L404.216,495.672z M388.204,467.932
		l-8.008-13.868l14.817-8.558l8.008,13.87L388.204,467.932z M372.191,440.194l-8.008-13.87l14.82-8.556l8.008,13.87L372.191,440.194
		z M356.175,412.454l-8.005-13.865l14.817-8.556l8.008,13.865L356.175,412.454z"/>
	
		<rect x="230.546" y="75.025" transform="matrix(-0.866 0.5 -0.5 -0.866 487.6856 35.3867)" style="fill:#242D3C;" width="17.111" height="16.015"/>
	
		<rect x="199.073" y="18.996" transform="matrix(-0.5 -0.866 0.866 -0.5 286.7632 220.664)" style="fill:#242D3C;" width="16.015" height="17.111"/>
	
		<rect x="214.544" y="47.258" transform="matrix(-0.866 0.5 -0.5 -0.866 443.9409 -8.4251)" style="fill:#242D3C;" width="17.111" height="16.015"/>
	
		<rect x="199.66" y="129.59" transform="matrix(0.5001 0.866 -0.866 0.5001 223.4464 -110.7734)" style="fill:#242D3C;" width="16.013" height="17.112"/>
	
		<rect x="183.108" y="102.395" transform="matrix(-0.866 0.5 -0.5 -0.866 412.8493 110.174)" style="fill:#242D3C;" width="17.111" height="16.01"/>
	
		<rect x="151.095" y="46.93" transform="matrix(-0.866 0.5001 -0.5001 -0.866 325.3766 22.6715)" style="fill:#242D3C;" width="17.112" height="16.013"/>
	
		<rect x="167.1" y="74.681" transform="matrix(-0.866 0.5001 -0.5001 -0.866 369.1204 66.447)" style="fill:#242D3C;" width="17.112" height="16.011"/>
	
		<rect x="296.365" y="19.533" transform="matrix(-0.866 -0.5 0.5 -0.866 555.2166 203.8542)" style="fill:#242D3C;" width="17.111" height="16.015"/>
	<polygon style="fill:#242D3C;" points="256.01,101.015 243.722,108.109 251.73,121.979 260.291,121.979 268.296,108.109 	"/>
	
		<rect x="264.357" y="75.039" transform="matrix(0.866 0.5 -0.5 0.866 78.0888 -125.3327)" style="fill:#242D3C;" width="17.111" height="16.012"/>
	
		<rect x="280.912" y="46.754" transform="matrix(-0.5 0.866 -0.866 -0.5 481.2821 -167.2447)" style="fill:#242D3C;" width="16.015" height="17.111"/>
	
		<rect x="311.754" y="102.413" transform="matrix(0.8661 0.4999 -0.4999 0.8661 98.0908 -145.3341)" style="fill:#242D3C;" width="17.111" height="16.01"/>
	
		<rect x="327.782" y="74.664" transform="matrix(0.866 0.5 -0.5 0.866 86.3983 -157.0961)" style="fill:#242D3C;" width="17.111" height="16.01"/>
	
		<rect x="295.727" y="130.138" transform="matrix(0.8661 0.4999 -0.4999 0.8661 109.8047 -133.6092)" style="fill:#242D3C;" width="17.111" height="16.013"/>
	
		<rect x="344.364" y="46.406" transform="matrix(-0.5 0.866 -0.866 -0.5 576.1589 -222.7173)" style="fill:#242D3C;" width="16.015" height="17.111"/>
	<path style="fill:#242D3C;" d="M512,326.118h-16.015v-17.111H512V326.118z M479.969,326.118h-16.015v-17.111h16.015V326.118z
		 M447.941,326.118h-16.015v-17.111h16.015V326.118z M415.91,326.118h-16.015v-17.111h16.015V326.118z"/>
	<path style="fill:#242D3C;" d="M480.356,271.357H464.34v-17.114h16.015V271.357z M448.328,271.357h-16.015v-17.114h16.015V271.357z
		 M416.302,271.357h-16.015v-17.114h16.015V271.357z M384.274,271.357h-16.015v-17.114h16.015V271.357z"/>
	<path style="fill:#242D3C;" d="M112.105,326.118H96.09v-17.111h16.015V326.118z M80.074,326.118H64.059v-17.111h16.015V326.118z
		 M48.041,326.118l-16.015-0.003l0.003-17.111l16.015,0.003L48.041,326.118z M16.015,326.116H0v-17.111h16.015V326.116z"/>
	<path style="fill:#242D3C;" d="M143.739,271.357h-16.01v-17.114h16.01V271.357z M111.713,271.357H95.698v-17.114h16.015V271.357z
		 M79.683,271.357l-16.01-0.005l0.003-17.111l16.01,0.003L79.683,271.357z M47.66,271.352H31.644v-17.111H47.66V271.352z"/>
	<path style="fill:#242D3C;" d="M60.352,468.28l-14.817-8.556l8.008-13.87l14.817,8.558L60.352,468.28z M76.367,440.542
		l-14.817-8.556l8.008-13.87l14.817,8.556L76.367,440.542z M92.383,412.805l-14.82-8.558l8.008-13.868l14.82,8.556L92.383,412.805z
		 M108.398,385.065l-14.82-8.556l8.008-13.87l14.82,8.556L108.398,385.065z"/>
	<path style="fill:#242D3C;" d="M107.784,495.657l-14.82-8.556l8.008-13.87l14.82,8.558L107.784,495.657z M123.794,467.919
		l-14.817-8.556l8.005-13.867l14.82,8.558L123.794,467.919z M139.809,440.187l-14.82-8.555l8.008-13.87l14.82,8.558L139.809,440.187
		z M155.825,412.449l-14.82-8.556l8.008-13.862l14.82,8.556L155.825,412.449z"/>
</g>
<g>
</g>
<g>
</g>
<g>
</g>
<g>
</g>
<g>
</g>
<g>
</g>
<g>
</g>
<g>
</g>
<g>
</g>
<g>
</g>
<g>
</g>
<g>
</g>
<g>
</g>
<g>
</g>
<g>
</g>
</svg>
