<?xml version="1.0" encoding="iso-8859-1"?>
<!-- Generator: Adobe Illustrator 19.0.0, SVG Export Plug-In . SVG Version: 6.00 Build 0)  -->
<svg version="1.1" id="Layer_1" xmlns="http://www.w3.org/2000/svg" xmlns:xlink="http://www.w3.org/1999/xlink" x="0px" y="0px"
	 viewBox="0 0 512.008 512.008" style="enable-background:new 0 0 512.008 512.008;" xml:space="preserve">
<g>
	<path style="fill:#242D3C;" d="M330.045,407.096H181.955v-9.144c0-33.674-14.321-66.053-39.288-88.829l-1.193-1.037
		c-1.103-0.968-2.196-1.925-3.272-2.821l-0.307-0.266c-36.324-33.198-57.149-80.376-57.149-129.434v-9.142h350.523v9.142
		c0,49.062-20.838,96.235-57.165,129.434l-0.3,0.261c-1.365,1.142-2.742,2.383-4.114,3.615l-0.32,0.292
		c-24.98,22.687-39.322,55.063-39.322,88.788v9.142H330.045z M199.936,388.81h112.131c2.371-35.528,18.486-69.092,45.036-93.21
		l0.358-0.323c1.485-1.331,2.97-2.668,4.442-3.909c30.2-27.661,48.415-66.109,50.808-106.66H99.297
		c2.391,40.545,20.6,78.994,50.785,106.657c1.129,0.945,2.276,1.946,3.433,2.959l1.306,1.142
		C181.466,319.767,197.565,353.334,199.936,388.81z"/>
	<rect x="311.759" y="397.952" style="fill:#242D3C;" width="18.286" height="69.937"/>
	<rect x="181.967" y="397.952" style="fill:#242D3C;" width="18.286" height="69.937"/>
	<rect x="168.586" y="388.813" style="fill:#242D3C;" width="174.848" height="18.289"/>
	<rect x="168.586" y="423.782" style="fill:#242D3C;" width="174.848" height="18.289"/>
	<rect x="168.586" y="458.752" style="fill:#242D3C;" width="174.848" height="18.286"/>
	<rect x="217.142" y="493.722" style="fill:#242D3C;" width="77.704" height="18.286"/>
	<rect x="246.863" y="286.771" style="fill:#242D3C;" width="18.289" height="111.181"/>
	<polygon style="fill:#242D3C;" points="256,301.051 201.536,235.681 215.578,223.98 256,272.484 296.422,223.98 310.472,235.681 	
		"/>
</g>
<g>
	<path style="fill:#ffd801;" d="M403.246,125.855c10.726-12.749,10.115-31.803-1.884-43.812c-6.008-5.996-13.78-9.129-21.65-9.439
		l0.02-0.028c0.538-2.299,0.822-4.71,0.822-7.183c0-17.93-14.543-32.456-32.466-32.456c-4.378,0-8.566,0.868-12.37,2.447
		l-0.031,0.02c-2.893-14.958-16.028-26.26-31.821-26.26c-17.93,0-32.474,14.543-32.474,32.471v133.949h143.608
		c4.442-5.56,7.119-12.611,7.119-20.26C422.124,142.241,414.379,131.008,403.246,125.855z"/>
	<path style="fill:#ffd801;" d="M108.754,125.855c-10.724-12.749-10.109-31.803,1.889-43.812c6.003-5.996,13.778-9.129,21.65-9.439
		l-0.026-0.028c-0.532-2.299-0.819-4.71-0.819-7.183c0-17.93,14.541-32.456,32.466-32.456c4.378,0,8.563,0.868,12.367,2.447
		l0.028,0.02c2.895-14.958,16.028-26.26,31.826-26.26c17.928,0,32.471,14.543,32.471,32.471v133.949H97.001
		c-4.447-5.56-7.122-12.611-7.122-20.26C89.879,142.241,97.62,131.008,108.754,125.855z"/>
</g>
<g>
	<path style="fill:#242D3C;" d="M419.402,184.707H262.252V41.613C262.252,18.668,280.916,0,303.867,0
		c22.92,0,41.569,18.668,41.569,41.613c0,22.943-18.65,41.603-41.569,41.603V64.929c12.836,0,23.286-10.46,23.286-23.319
		c0-12.864-10.45-23.327-23.286-23.327c-12.864,0-23.329,10.463-23.329,23.327v124.808h129.615
		c1.859-3.397,2.826-7.176,2.826-11.118c0-12.856-10.463-23.316-23.327-23.316v-18.286c22.943,0,41.615,18.665,41.615,41.603
		c0,9.385-3.246,18.609-9.121,25.969L419.402,184.707z"/>
	<path style="fill:#242D3C;" d="M320.087,148.337v-18.286c12.856,0,23.306-10.452,23.306-23.304h18.286
		C361.679,129.679,343.022,148.337,320.087,148.337z"/>
	<path style="fill:#242D3C;" d="M388.639,74.637l-17.815-4.122c0.394-1.674,0.586-3.4,0.586-5.12
		c0-12.856-10.465-23.314-23.322-23.314c-3.085,0-6.065,0.586-8.865,1.751l-7.004-16.893c5.028-2.086,10.371-3.144,15.869-3.144
		c22.943,0,41.608,18.662,41.608,41.6C389.696,68.5,389.338,71.611,388.639,74.637z"/>
	<path style="fill:#242D3C;" d="M407.818,134.413l-12.931-12.928c9.093-9.091,9.093-23.882,0.008-32.978
		c-9.101-9.091-23.892-9.091-32.978,0.003l-12.931-12.925c16.215-16.223,42.609-16.228,58.834-0.008
		C424.038,91.812,424.031,118.2,407.818,134.413z"/>
	<path style="fill:#242D3C;" d="M249.751,184.707H92.608l-2.747-3.433c-5.883-7.357-9.121-16.579-9.121-25.971
		c0-22.94,18.668-41.603,41.613-41.603v18.286c-12.864,0-23.329,10.46-23.329,23.316c0,3.942,0.968,7.721,2.826,11.118h129.615
		V41.613c0-12.864-10.465-23.327-23.329-23.327c-12.836,0-23.283,10.463-23.283,23.327c0,12.856,10.447,23.319,23.283,23.319v18.286
		c-22.922,0-41.567-18.66-41.567-41.603C166.569,18.668,185.216,0,208.136,0c22.945,0,41.613,18.668,41.613,41.613v143.094H249.751z
		"/>
	<path style="fill:#242D3C;" d="M191.916,148.337c-22.935,0-41.597-18.657-41.597-41.59h18.286
		c0,12.851,10.458,23.304,23.311,23.304V148.337z"/>
	<path style="fill:#242D3C;" d="M123.359,74.621c-0.694-3.026-1.05-6.134-1.05-9.229c0-22.938,18.665-41.6,41.608-41.6
		c5.496,0,10.834,1.055,15.872,3.144l-6.991,16.893c-2.808-1.165-5.793-1.751-8.878-1.751c-12.856,0-23.322,10.458-23.322,23.314
		c0,1.72,0.2,3.446,0.586,5.135L123.359,74.621z"/>
	<path style="fill:#242D3C;" d="M104.187,134.413c-16.22-16.212-16.225-42.606-0.008-58.831
		c16.228-16.22,42.621-16.218,58.836,0.003l-12.933,12.925c-9.083-9.083-23.875-9.091-32.975,0
		c-9.085,9.093-9.085,23.885,0.008,32.975L104.187,134.413z"/>
</g>
<g>
</g>
<g>
</g>
<g>
</g>
<g>
</g>
<g>
</g>
<g>
</g>
<g>
</g>
<g>
</g>
<g>
</g>
<g>
</g>
<g>
</g>
<g>
</g>
<g>
</g>
<g>
</g>
<g>
</g>
</svg>
