<?xml version="1.0" encoding="iso-8859-1"?>
<!-- Generator: Adobe Illustrator 19.0.0, SVG Export Plug-In . SVG Version: 6.00 Build 0)  -->
<svg version="1.1" id="Layer_1" xmlns="http://www.w3.org/2000/svg" xmlns:xlink="http://www.w3.org/1999/xlink" x="0px" y="0px"
	 viewBox="0 0 512 512" style="enable-background:new 0 0 512 512;" xml:space="preserve">
<path style="fill:#242D3C;" d="M470.203,377.539H41.807V120.108c0-5.937,2.324-11.52,6.541-15.724
	c4.14-4.188,9.733-6.52,15.708-6.52h383.892c5.921,0,11.505,2.312,15.726,6.515c4.219,4.239,6.531,9.812,6.531,15.726v257.434
	H470.203z M58.875,360.471h394.263V120.108c0-1.37-0.545-2.67-1.531-3.663c-0.97-0.968-2.281-1.513-3.661-1.513H64.054
	c-1.38,0-2.66,0.532-3.615,1.495c-1.027,1.019-1.567,2.309-1.567,3.681v240.364H58.875z"/>
<rect x="83.343" y="139.392" style="fill:#005792;" width="345.318" height="229.606"/>
<path style="fill:#242D3C;" d="M485.164,414.136H26.834c-7.137,0-13.87-2.78-18.959-7.831C2.793,401.231,0,394.491,0,387.302
	v-26.831h512v26.831c0,7.181-2.79,13.924-7.852,18.985C499.052,411.354,492.321,414.136,485.164,414.136z M17.068,377.539v9.764
	c0,2.619,1.014,5.074,2.847,6.907c1.853,1.841,4.316,2.86,6.92,2.86h458.33c2.611,0,5.069-1.019,6.93-2.867
	c1.828-1.825,2.839-4.28,2.839-6.899v-9.764H17.068z"/>
<rect x="127.685" y="168.064" style="fill:#FFFFFF;" width="56.113" height="17.068"/>
<g>
	<rect x="183.8" y="226.739" style="fill:#242D3C;" width="60.401" height="17.068"/>
	<rect x="183.8" y="314.726" style="fill:#242D3C;" width="60.401" height="17.067"/>
</g>
<g>
	<rect x="127.685" y="197.402" style="fill:#FFFFFF;" width="116.513" height="17.068"/>
	<rect x="127.685" y="256.077" style="fill:#FFFFFF;" width="56.113" height="17.068"/>
	<rect x="127.685" y="285.363" style="fill:#FFFFFF;" width="116.513" height="17.068"/>
</g>
<g>
	<rect x="267.802" y="226.739" style="fill:#242D3C;" width="116.508" height="17.068"/>
	<rect x="267.802" y="314.726" style="fill:#242D3C;" width="116.508" height="17.067"/>
	<rect x="267.802" y="197.402" style="fill:#242D3C;" width="60.396" height="17.068"/>
	<rect x="267.802" y="285.363" style="fill:#242D3C;" width="60.396" height="17.068"/>
</g>
<g>
</g>
<g>
</g>
<g>
</g>
<g>
</g>
<g>
</g>
<g>
</g>
<g>
</g>
<g>
</g>
<g>
</g>
<g>
</g>
<g>
</g>
<g>
</g>
<g>
</g>
<g>
</g>
<g>
</g>
</svg>
