<?xml version="1.0" encoding="iso-8859-1"?>
<!-- Generator: Adobe Illustrator 19.0.0, SVG Export Plug-In . SVG Version: 6.00 Build 0)  -->
<svg version="1.1" id="Layer_1" xmlns="http://www.w3.org/2000/svg" xmlns:xlink="http://www.w3.org/1999/xlink" x="0px" y="0px"
	 viewBox="0 0 512 512" style="enable-background:new 0 0 512 512;" xml:space="preserve">
<g>
	<path style="fill:#242D3C;" d="M477.35,512c-7.903,0-15.322-3.077-20.895-8.663c-5.571-5.568-8.643-12.982-8.643-20.874v-33.708
		h59.077v33.707c0,7.892-3.075,15.309-8.658,20.887C492.677,508.923,485.256,512,477.35,512z M467.505,468.444v14.019
		c0,2.629,1.021,5.102,2.88,6.961c3.72,3.722,10.22,3.722,13.916,0.013c1.874-1.871,2.898-4.342,2.898-6.973v-14.019H467.505z"/>
	<polygon style="fill:#242D3C;" points="488.069,133.588 477.35,109.878 466.632,133.588 448.686,125.473 477.35,62.077 
		506.015,125.473 	"/>
	<path style="fill:#242D3C;" d="M497.042,468.444h-39.386c-5.437,0-9.846-4.408-9.846-9.846V129.531c0-5.44,4.408-9.846,9.846-9.846
		h39.386c5.44,0,9.848,4.408,9.848,9.846v329.068C506.89,464.038,502.482,468.444,497.042,468.444z M467.505,448.755h19.692V139.377
		h-19.692V448.755z"/>
	<polygon style="fill:#242D3C;" points="81.213,445.719 61.519,445.719 61.519,19.692 185.347,19.692 185.347,39.386 81.213,39.386 
			"/>
	<path style="fill:#242D3C;" d="M361.866,512v-19.692c25.669,0,46.556-20.9,46.556-46.587V39.386H304.328V19.692h123.786v426.028
		C428.111,482.266,398.392,512,361.866,512z"/>
	<path style="fill:#242D3C;" d="M361.841,512H71.38c-36.534,0-66.266-29.727-66.268-66.271l-0.003-9.846l310.157-0.015v9.846
		c0,25.692,20.892,46.592,46.574,46.592V512z M25.856,455.578c4.531,20.966,23.222,36.731,45.527,36.731h243.369
		c-9.664-9.772-16.317-22.531-18.45-36.746L25.856,455.578z"/>
</g>
<path style="fill:#ffd801;" d="M274.363,29.54c0,16.315-13.23,29.542-29.542,29.542c-16.307,0-29.54-13.228-29.54-29.542
	c0-16.31,13.233-29.54,29.54-29.54C261.133,0,274.363,13.23,274.363,29.54z"/>
<g>
	<rect x="212.992" y="324.608" style="fill:#005792;" width="63.675" height="63.677"/>
	<rect x="181.146" y="116.524" style="fill:#005792;" width="127.355" height="63.677"/>
	<rect x="311.168" y="324.608" style="fill:#005792;" width="63.67" height="63.677"/>
	<rect x="114.796" y="324.608" style="fill:#005792;" width="63.677" height="63.677"/>
</g>
<g>
	<path style="fill:#242D3C;" d="M352.855,301.238h-19.692V276.28c0-3.753-1.454-7.268-4.101-9.9
		c-2.665-2.675-6.18-4.134-9.928-4.134H170.516c-3.75,0-7.27,1.459-9.915,4.109c-2.662,2.657-4.124,6.175-4.124,9.925v24.957
		h-19.692V276.28c0-9.016,3.517-17.487,9.892-23.849c6.349-6.367,14.825-9.876,23.839-9.876h148.618
		c9.019,0,17.49,3.515,23.846,9.897c6.356,6.323,9.871,14.794,9.871,23.831v24.955H352.855z"/>
	<rect x="234.982" y="203.571" style="fill:#242D3C;" width="19.692" height="97.69"/>
	<path style="fill:#242D3C;" d="M286.5,398.124h-83.364v-83.366H286.5V398.124z M222.828,378.429h43.981v-43.986h-43.981V378.429z"
		/>
	<path style="fill:#242D3C;" d="M318.346,190.047H171.3v-83.369h147.046L318.346,190.047L318.346,190.047z M190.991,170.353h107.663
		v-43.983H190.991V170.353z"/>
	<path style="fill:#242D3C;" d="M384.694,398.124h-83.361v-83.366h83.361V398.124z M321.024,378.429H365v-43.986h-43.976V378.429z"
		/>
	<path style="fill:#242D3C;" d="M188.321,398.124h-83.369v-83.366h83.369V398.124z M124.641,378.429h43.986v-43.986h-43.986V378.429
		z"/>
</g>
<g>
</g>
<g>
</g>
<g>
</g>
<g>
</g>
<g>
</g>
<g>
</g>
<g>
</g>
<g>
</g>
<g>
</g>
<g>
</g>
<g>
</g>
<g>
</g>
<g>
</g>
<g>
</g>
<g>
</g>
</svg>
