<?xml version="1.0" encoding="iso-8859-1"?>
<!-- Generator: Adobe Illustrator 19.0.0, SVG Export Plug-In . SVG Version: 6.00 Build 0)  -->
<svg version="1.1" id="Layer_1" xmlns="http://www.w3.org/2000/svg" xmlns:xlink="http://www.w3.org/1999/xlink" x="0px" y="0px"
	 viewBox="0 0 511.994 511.994" style="enable-background:new 0 0 511.994 511.994;" xml:space="preserve">
<g>
	
		<rect x="246.985" y="490.239" transform="matrix(-0.7069 0.7073 -0.7073 -0.7069 790.0837 671.1062)" style="fill:#242D3C;" width="18.022" height="18.022"/>
	<path style="fill:#242D3C;" d="M243.34,473.851l-12.744,12.746l-12.662-12.662l12.744-12.746L243.34,473.851z M218.014,448.525
		l-12.744,12.746l-12.662-12.669l12.741-12.741L218.014,448.525z M192.685,423.201l-12.741,12.741l-12.667-12.662l12.746-12.744
		L192.685,423.201z M167.359,397.873l-12.744,12.741l-12.662-12.662l12.741-12.741L167.359,397.873z M142.03,372.547l-12.741,12.741
		l-12.662-12.662l12.741-12.741L142.03,372.547z"/>
	
		<rect x="94.948" y="338.21" transform="matrix(-0.7069 0.7073 -0.7073 -0.7069 423.0403 519.1439)" style="fill:#242D3C;" width="18.022" height="18.022"/>
	<path style="fill:#242D3C;" d="M142.03,321.897l-12.664,12.654l-12.741-12.741l12.662-12.662L142.03,321.897z"/>
	<path style="fill:#242D3C;" d="M395.376,321.812l-12.741,12.741l-12.662-12.662l12.741-12.741L395.376,321.812z"/>
	<polygon style="fill:#242D3C;" points="420.779,347.223 408.04,359.954 395.299,347.223 408.04,334.474 	"/>
	<path style="fill:#242D3C;" d="M395.376,372.626l-12.662,12.662l-12.746-12.741l12.669-12.662L395.376,372.626z M370.045,397.949
		l-12.654,12.662l-12.746-12.741l12.669-12.662L370.045,397.949z M344.724,423.278l-12.667,12.662l-12.744-12.741l12.664-12.664
		L344.724,423.278z M319.4,448.602l-12.669,12.662l-12.741-12.741l12.662-12.662L319.4,448.602z M294.066,473.935l-12.662,12.662
		l-12.741-12.741l12.662-12.669L294.066,473.935z"/>
</g>
<polygon style="fill:#ffd801;" points="256.002,316.815 143.205,204.012 91.225,255.992 256.002,420.777 420.779,255.992 
	368.798,204.012 "/>
<g>
	
		<rect x="170.546" y="155.771" transform="matrix(-0.7071 0.7071 -0.7071 -0.7071 423.0417 154.3341)" style="fill:#242D3C;" width="18.022" height="18.022"/>
	
		<rect x="196.016" y="130.293" transform="matrix(-0.7072 0.707 -0.707 -0.7072 448.5136 92.8658)" style="fill:#242D3C;" width="18.022" height="18.022"/>
	
		<rect x="221.515" y="104.786" transform="matrix(-0.7071 0.7071 -0.7071 -0.7071 473.9991 31.2569)" style="fill:#242D3C;" width="18.022" height="18.022"/>
	
		<rect x="246.989" y="79.306" transform="matrix(-0.7069 0.7073 -0.7073 -0.7069 499.4361 -30.3224)" style="fill:#242D3C;" width="18.022" height="18.022"/>
	
		<rect x="196.031" y="181.236" transform="matrix(-0.7072 0.707 -0.707 -0.7072 484.5555 179.8259)" style="fill:#242D3C;" width="18.022" height="18.022"/>
	
		<rect x="221.514" y="155.749" transform="matrix(-0.7071 0.7071 -0.7071 -0.7071 510.0343 118.2577)" style="fill:#242D3C;" width="18.022" height="18.022"/>
	
		<rect x="246.991" y="130.289" transform="matrix(-0.7071 0.7071 -0.7071 -0.7071 535.5221 56.7792)" style="fill:#242D3C;" width="18.022" height="18.022"/>
	
		<rect x="272.481" y="104.792" transform="matrix(-0.7073 0.7069 -0.7069 -0.7073 561.0411 -4.6913)" style="fill:#242D3C;" width="18.022" height="18.022"/>
	
		<rect x="221.496" y="206.709" transform="matrix(-0.707 0.7072 -0.7072 -0.707 546.0352 205.2191)" style="fill:#242D3C;" width="18.022" height="18.022"/>
	
		<rect x="246.99" y="181.252" transform="matrix(-0.7071 0.7071 -0.7071 -0.7071 571.5573 143.7802)" style="fill:#242D3C;" width="18.022" height="18.022"/>
	
		<rect x="272.482" y="155.766" transform="matrix(-0.7073 0.7069 -0.7069 -0.7073 597.0778 82.3354)" style="fill:#242D3C;" width="18.022" height="18.022"/>
	
		<rect x="297.959" y="130.267" transform="matrix(-0.7071 0.7071 -0.7071 -0.7071 622.5147 20.7029)" style="fill:#242D3C;" width="18.022" height="18.022"/>
	
		<rect x="246.991" y="232.243" transform="matrix(-0.7071 0.7071 -0.7071 -0.7071 607.6149 230.8266)" style="fill:#242D3C;" width="18.022" height="18.022"/>
	
		<rect x="272.476" y="206.703" transform="matrix(-0.7073 0.7069 -0.7069 -0.7073 633.0745 169.3057)" style="fill:#242D3C;" width="18.022" height="18.022"/>
	
		<rect x="297.958" y="181.257" transform="matrix(-0.7071 0.7071 -0.7071 -0.7071 658.568 107.7475)" style="fill:#242D3C;" width="18.022" height="18.022"/>
	
		<rect x="323.435" y="155.777" transform="matrix(-0.7069 0.7073 -0.7073 -0.7069 684.0102 46.1366)" style="fill:#242D3C;" width="18.022" height="18.022"/>
	<path style="fill:#242D3C;" d="M256.002,329.554L91.225,164.777L256.002,0l164.777,164.777L256.002,329.554z M116.704,164.777
		l139.297,139.297l139.297-139.297L256.002,25.48L116.704,164.777z"/>
</g>
<g>
</g>
<g>
</g>
<g>
</g>
<g>
</g>
<g>
</g>
<g>
</g>
<g>
</g>
<g>
</g>
<g>
</g>
<g>
</g>
<g>
</g>
<g>
</g>
<g>
</g>
<g>
</g>
<g>
</g>
</svg>
