<?xml version="1.0" encoding="iso-8859-1"?>
<!-- Generator: Adobe Illustrator 19.0.0, SVG Export Plug-In . SVG Version: 6.00 Build 0)  -->
<svg version="1.1" id="Layer_1" xmlns="http://www.w3.org/2000/svg" xmlns:xlink="http://www.w3.org/1999/xlink" x="0px" y="0px"
	 viewBox="0 0 512 512" style="enable-background:new 0 0 512 512;" xml:space="preserve">
<rect x="160" y="159.36" style="fill:#ffd801;" width="267.878" height="193.28"/>
<g>
	<rect x="259.149" y="265.677" style="fill:#242D3C;" width="69.581" height="19.328"/>
	<rect x="224.358" y="226.995" style="fill:#242D3C;" width="139.162" height="19.328"/>
	<rect x="150.336" y="32.64" style="fill:#242D3C;" width="19.328" height="446.72"/>
	<path style="fill:#242D3C;" d="M316.201,489.024H111.677V22.976h204.524c32.42,0,62.889,12.621,85.803,35.543
		c22.922,22.917,35.551,53.389,35.551,85.804v223.355c0,32.415-12.628,62.886-35.556,85.803
		C379.09,476.403,348.621,489.024,316.201,489.024z M131.008,469.696h185.193c27.254,0,52.869-10.614,72.128-29.88
		c19.279-19.269,29.898-44.887,29.898-72.138V144.323c0-27.251-10.616-52.869-29.893-72.138
		c-19.261-19.267-44.877-29.88-72.133-29.88H131.008V469.696z"/>
	<path style="fill:#242D3C;" d="M483.725,489.024c-7.57,0-14.674-2.949-20.004-8.3c-5.327-5.309-8.271-12.416-8.271-19.981v-32.215
		H512v32.215c0,7.567-2.947,14.671-8.297,20.006C498.376,486.083,491.274,489.024,483.725,489.024z M474.778,447.859v12.884
		c0,2.394,0.927,4.636,2.614,6.321c3.392,3.405,9.27,3.397,12.652,0.008c1.7-1.692,2.627-3.935,2.627-6.328v-12.884H474.778z"/>
	<polygon style="fill:#242D3C;" points="493.527,163.333 483.725,141.65 473.92,163.333 456.305,155.377 483.725,94.73 
		511.142,155.377 	"/>
	<path style="fill:#242D3C;" d="M502.336,447.859h-37.222c-5.338,0-9.664-4.326-9.664-9.664v-278.84
		c0-5.338,4.326-9.664,9.664-9.664h37.222c5.338,0,9.664,4.326,9.664,9.664v278.84C512,443.533,507.674,447.859,502.336,447.859z
		 M474.778,428.531h17.892V169.019h-17.892V428.531z"/>
	<path style="fill:#242D3C;" d="M93.783,489.024H0V22.976h93.783V489.024z M19.328,469.696h55.127V42.304H19.328V469.696z"/>
	<rect x="46.892" y="60.204" style="fill:#242D3C;" width="37.228" height="19.331"/>
	<rect x="46.892" y="97.434" style="fill:#242D3C;" width="37.23" height="19.328"/>
	<rect x="46.892" y="134.659" style="fill:#242D3C;" width="37.228" height="19.328"/>
	<rect x="46.892" y="171.878" style="fill:#242D3C;" width="37.228" height="19.328"/>
	<rect x="46.892" y="209.101" style="fill:#242D3C;" width="37.228" height="19.328"/>
	<rect x="46.892" y="246.323" style="fill:#242D3C;" width="37.228" height="19.331"/>
	<rect x="46.892" y="283.571" style="fill:#242D3C;" width="37.228" height="19.331"/>
	<rect x="46.892" y="320.794" style="fill:#242D3C;" width="37.228" height="19.331"/>
	<rect x="46.892" y="358.016" style="fill:#242D3C;" width="37.228" height="19.331"/>
	<rect x="46.892" y="395.238" style="fill:#242D3C;" width="37.228" height="19.328"/>
	<rect x="46.892" y="432.461" style="fill:#242D3C;" width="37.228" height="19.331"/>
</g>
<g>
</g>
<g>
</g>
<g>
</g>
<g>
</g>
<g>
</g>
<g>
</g>
<g>
</g>
<g>
</g>
<g>
</g>
<g>
</g>
<g>
</g>
<g>
</g>
<g>
</g>
<g>
</g>
<g>
</g>
</svg>
