<?xml version="1.0" encoding="iso-8859-1"?>
<!-- Generator: Adobe Illustrator 19.0.0, SVG Export Plug-In . SVG Version: 6.00 Build 0)  -->
<svg version="1.1" id="Layer_1" xmlns="http://www.w3.org/2000/svg" xmlns:xlink="http://www.w3.org/1999/xlink" x="0px" y="0px"
	 viewBox="0 0 512 512" style="enable-background:new 0 0 512 512;" xml:space="preserve">
<g>
	<path style="fill:#242D3C;" d="M314.604,512H152.814v-10.296c-11.699-1.905-22.477-7.409-31.022-15.951
		c-10.772-10.772-16.701-25.096-16.701-40.328V216.586h257.236v228.838c0,15.232-5.929,29.555-16.704,40.328
		c-8.543,8.545-19.32,14.047-31.02,15.951L314.604,512L314.604,512z M171.433,493.384h124.552v-9.546h9.311
		c10.263,0,19.907-3.999,27.159-11.254c7.258-7.258,11.254-16.904,11.254-27.162V235.203H123.709v210.219
		c0,10.26,3.996,19.904,11.251,27.162c7.255,7.255,16.901,11.254,27.164,11.254h9.308V493.384z"/>
	<rect x="142.336" y="259.405" style="fill:#242D3C;" width="18.616" height="118.067"/>
	<rect x="142.336" y="393.626" style="fill:#242D3C;" width="18.616" height="29.632"/>
	<path style="fill:#242D3C;" d="M384.837,413.371h-9.549v-18.619h9.549c6.011,0,11.661-2.342,15.913-6.589
		c4.247-4.252,6.587-9.907,6.587-15.921v-73.172c0-6.013-2.34-11.668-6.592-15.918c-4.247-4.247-9.897-6.589-15.908-6.589h-9.549
		v-18.616h9.549c10.985,0,21.312,4.278,29.074,12.045c7.767,7.77,12.045,18.097,12.045,29.079v73.172
		c0,10.982-4.278,21.309-12.04,29.079C406.149,409.096,395.822,413.371,384.837,413.371z"/>
	<rect x="272.947" y="225.894" style="fill:#242D3C;" width="18.616" height="69.658"/>
</g>
<rect x="248.755" y="295.552" style="fill:#ffd801;" width="67.021" height="81.92"/>
<path style="fill:#005792;" d="M353.016,38.18c4.887,0,9.774-1.864,13.499-5.594c3.73-3.725,5.594-8.609,5.594-13.496l0,0
	c0-4.884-1.864-9.766-5.594-13.499C362.793,1.866,357.906,0,353.016,0H124.508c-4.887,0-9.766,1.866-13.496,5.588
	c-3.725,3.732-5.594,8.614-5.594,13.499l0,0c0,4.887,1.869,9.774,5.594,13.496c3.73,3.732,8.609,5.594,13.496,5.594h19.551
	c3.256,0,6.515,1.242,9.004,3.727c2.481,2.483,3.725,5.742,3.725,9.001l0,0c0,3.259-1.244,6.515-3.725,9.001
	c-2.486,2.483-5.745,3.727-9.004,3.727H82.153c-8.138,0-16.284,3.105-22.495,9.316c-6.211,6.211-9.324,14.356-9.324,22.5l0,0
	c0,8.141,3.113,16.287,9.324,22.497c6.211,6.211,14.356,9.316,22.495,9.316h130.924c3.259,0,6.515,1.244,9.004,3.732
	c2.481,2.483,3.725,5.74,3.725,8.996l0,0c0,3.259-1.244,6.515-3.725,9.001c-2.488,2.483-5.745,3.727-9.004,3.727h-8.509
	c-6.108,0-12.211,2.332-16.873,6.989c-4.654,4.659-6.989,10.765-6.989,16.873l0,0c0,6.108,2.335,12.214,6.989,16.873
	c4.662,4.657,10.765,6.989,16.873,6.989h96.008c6.108,0,12.211-2.332,16.873-6.989c4.654-4.659,6.989-10.765,6.989-16.873l0,0
	c0-6.111-2.335-12.214-6.989-16.873c-4.662-4.657-10.765-6.989-16.873-6.989h-27.584c-3.259,0-6.518-1.244-8.998-3.727
	c-2.488-2.483-3.73-5.742-3.73-9.001l0,0c0-3.256,1.242-6.513,3.73-8.996c2.481-2.488,5.737-3.732,8.998-3.732h156.856
	c8.146,0,16.282-3.105,22.502-9.316c6.211-6.211,9.316-14.356,9.316-22.497l0,0c0-8.143-3.105-16.287-9.316-22.5
	c-6.221-6.211-14.357-9.316-22.502-9.316H237.476c-3.251,0-6.508-1.244-8.996-3.727c-2.488-2.483-3.725-5.742-3.725-9.001l0,0
	c0-3.256,1.236-6.515,3.725-9.001c2.488-2.486,5.745-3.727,8.996-3.727h115.54V38.18z"/>
<g>
</g>
<g>
</g>
<g>
</g>
<g>
</g>
<g>
</g>
<g>
</g>
<g>
</g>
<g>
</g>
<g>
</g>
<g>
</g>
<g>
</g>
<g>
</g>
<g>
</g>
<g>
</g>
<g>
</g>
</svg>
