<?xml version="1.0" encoding="iso-8859-1"?>
<!-- Generator: Adobe Illustrator 19.0.0, SVG Export Plug-In . SVG Version: 6.00 Build 0)  -->
<svg version="1.1" id="Layer_1" xmlns="http://www.w3.org/2000/svg" xmlns:xlink="http://www.w3.org/1999/xlink" x="0px" y="0px"
	 viewBox="0 0 512 512" style="enable-background:new 0 0 512 512;" xml:space="preserve">
<polygon style="fill:#005792;" points="0,355.167 256,227.19 512,355.167 256,483.169 "/>
<g>
	<path style="fill:#242D3C;" d="M256,450.824L64.694,355.169L256,259.54l191.311,95.626L256,450.824z M104.123,355.167L256,431.109
		l151.885-75.942L256,279.25L104.123,355.167z"/>
	<path style="fill:#242D3C;" d="M264.814,411.848h-17.631v-16.778h17.631V411.848z M264.814,378.294h-17.631v-16.778h17.631V378.294
		z M264.814,344.74h-17.631v-16.778h17.631V344.74z M264.814,311.186h-17.631V294.41h17.631V311.186z M264.814,244.076h-17.631
		v-16.781h17.631V244.076z M264.814,210.519h-17.631v-16.776h17.631V210.519z M264.814,176.965h-17.631v-16.776h17.631V176.965z
		 M264.814,143.411h-17.631V126.63h17.631V143.411z M264.814,109.855h-17.631V93.079h17.631V109.855z"/>
	<polygon style="fill:#242D3C;" points="430.561,363.136 256,63.823 81.444,363.136 66.217,354.25 256,28.831 445.791,354.25 	"/>
</g>
<g>
</g>
<g>
</g>
<g>
</g>
<g>
</g>
<g>
</g>
<g>
</g>
<g>
</g>
<g>
</g>
<g>
</g>
<g>
</g>
<g>
</g>
<g>
</g>
<g>
</g>
<g>
</g>
<g>
</g>
</svg>
