<?xml version="1.0" encoding="iso-8859-1"?>
<!-- Generator: Adobe Illustrator 19.0.0, SVG Export Plug-In . SVG Version: 6.00 Build 0)  -->
<svg version="1.1" id="Layer_1" xmlns="http://www.w3.org/2000/svg" xmlns:xlink="http://www.w3.org/1999/xlink" x="0px" y="0px"
	 viewBox="0 0 512 512" style="enable-background:new 0 0 512 512;" xml:space="preserve">
<path style="fill:#ffd801;" d="M316.503,255.995c0,35.745-28.974,64.707-64.699,64.707s-64.699-28.961-64.699-64.707
	c0-35.738,28.974-64.709,64.699-64.709C287.526,191.286,316.503,220.257,316.503,255.995z"/>
<g>
	<path style="fill:#242D3C;" d="M421.463,320.684c-21.407,0-38.822-17.413-38.822-38.817c0-9.733,3.564-18.857,9.859-25.869
		c-6.295-7.017-9.859-16.141-9.859-25.874c0-21.404,17.416-38.815,38.822-38.815c17.861,0,32.94,12.111,37.455,28.552
		c4.48-1.764,9.3-2.688,14.262-2.688c21.402,0,38.82,17.416,38.82,38.828s-17.418,38.825-38.82,38.825
		c-4.961,0-9.782-0.919-14.264-2.688C454.4,308.572,439.316,320.684,421.463,320.684z M421.463,208.095
		c-12.15,0-22.036,9.882-22.036,22.026c0,7.672,3.904,14.679,10.45,18.747v14.254c-6.546,4.07-10.45,11.072-10.45,18.742
		c0,12.147,9.887,22.031,22.036,22.031c12.157,0,22.044-9.884,22.044-22.031c0-1.006-0.084-2.081-0.253-3.205l14.259-7.142
		c4.173,4.204,9.738,6.518,15.665,6.518c12.147,0,22.031-9.884,22.031-22.039c0-12.155-9.884-22.039-22.031-22.039
		c-5.921,0-11.487,2.314-15.667,6.52l-14.251-7.16c0.161-1.101,0.248-2.179,0.248-3.197
		C443.507,217.974,433.62,208.095,421.463,208.095z"/>
	<rect y="247.598" style="fill:#242D3C;" width="405.453" height="16.786"/>
	<polygon style="fill:#242D3C;" points="27.154,255.995 10.368,255.995 10.368,222.6 0,222.6 0,205.811 27.154,205.811 	"/>
	<polygon style="fill:#242D3C;" points="102.211,255.995 85.422,255.995 85.422,205.811 112.579,205.811 112.579,222.6 
		102.211,222.6 	"/>
	<rect x="47.895" y="214.216" style="fill:#242D3C;" width="16.788" height="41.789"/>
	<rect x="243.405" y="138.849" style="fill:#242D3C;" width="16.788" height="24.479"/>
	
		<rect x="207.161" y="147.82" transform="matrix(-0.3091 -0.951 0.951 -0.3091 138.6596 413.1581)" style="fill:#242D3C;" width="24.483" height="16.785"/>
	
		<rect x="177.9" y="162.719" transform="matrix(-0.5874 -0.8093 0.8093 -0.5874 163.3524 425.5071)" style="fill:#242D3C;" width="24.486" height="16.789"/>
	
		<rect x="154.669" y="185.917" transform="matrix(-0.809 -0.5878 0.5878 -0.809 187.716 449.618)" style="fill:#242D3C;" width="24.473" height="16.788"/>
	
		<rect x="139.787" y="215.191" transform="matrix(-0.9509 -0.3095 0.3095 -0.9509 227.3985 483.2413)" style="fill:#242D3C;" width="24.489" height="16.783"/>
	
		<rect x="143.614" y="276.155" transform="matrix(-0.3089 -0.9511 0.9511 -0.3089 -75.3312 522.0601)" style="fill:#242D3C;" width="16.789" height="24.489"/>
	
		<rect x="158.53" y="305.425" transform="matrix(-0.5875 -0.8092 0.8092 -0.5875 7.9388 639.3638)" style="fill:#242D3C;" width="16.788" height="24.468"/>
	
		<rect x="181.73" y="328.645" transform="matrix(-0.8093 -0.5875 0.5875 -0.8093 143.7218 728.4486)" style="fill:#242D3C;" width="16.79" height="24.493"/>
	
		<rect x="210.985" y="343.539" transform="matrix(-0.9511 -0.309 0.309 -0.9511 318.0886 761.9537)" style="fill:#242D3C;" width="16.789" height="24.5"/>
	<rect x="243.405" y="348.667" style="fill:#242D3C;" width="16.786" height="24.484"/>
	
		<rect x="271.944" y="347.387" transform="matrix(-0.3089 -0.9511 0.9511 -0.3089 33.5969 735.975)" style="fill:#242D3C;" width="24.497" height="16.789"/>
	
		<rect x="301.263" y="332.461" transform="matrix(-0.5872 -0.8094 0.8094 -0.5872 221.7067 794.7731)" style="fill:#242D3C;" width="24.488" height="16.788"/>
	
		<rect x="324.434" y="309.259" transform="matrix(-0.809 -0.5878 0.5878 -0.809 422.3177 772.533)" style="fill:#242D3C;" width="24.471" height="16.791"/>
	
		<rect x="339.309" y="280.043" transform="matrix(-0.9508 -0.3098 0.3098 -0.9508 596.4579 671.5934)" style="fill:#242D3C;" width="24.494" height="16.786"/>
	
		<rect x="275.836" y="143.971" transform="matrix(-0.9511 -0.309 0.309 -0.9511 506.281 392.6056)" style="fill:#242D3C;" width="16.787" height="24.485"/>
	
		<rect x="305.09" y="158.868" transform="matrix(-0.8093 -0.5874 0.5874 -0.8093 466.6757 493.7305)" style="fill:#242D3C;" width="16.789" height="24.486"/>
	
		<rect x="328.288" y="182.084" transform="matrix(-0.5878 -0.809 0.809 -0.5878 377.3769 580.9171)" style="fill:#242D3C;" width="16.786" height="24.471"/>
	
		<rect x="343.183" y="211.348" transform="matrix(-0.3096 -0.9509 0.9509 -0.3096 247.8117 627.1208)" style="fill:#242D3C;" width="16.786" height="24.492"/>
</g>
<g>
</g>
<g>
</g>
<g>
</g>
<g>
</g>
<g>
</g>
<g>
</g>
<g>
</g>
<g>
</g>
<g>
</g>
<g>
</g>
<g>
</g>
<g>
</g>
<g>
</g>
<g>
</g>
<g>
</g>
</svg>
