<?xml version="1.0" encoding="iso-8859-1"?>
<!-- Generator: Adobe Illustrator 19.0.0, SVG Export Plug-In . SVG Version: 6.00 Build 0)  -->
<svg version="1.1" id="Layer_1" xmlns="http://www.w3.org/2000/svg" xmlns:xlink="http://www.w3.org/1999/xlink" x="0px" y="0px"
	 viewBox="0 0 512 512" style="enable-background:new 0 0 512 512;" xml:space="preserve">
<g>
	<rect x="185.37" y="255.951" style="fill:#242D3C;" width="141.235" height="17.654"/>
	<polygon style="fill:#242D3C;" points="79.45,365.545 0,365.545 0,255.941 42.972,255.941 42.972,273.595 17.654,273.595 
		17.654,347.889 79.45,347.889 	"/>
	<polygon style="fill:#242D3C;" points="512,365.545 432.553,365.545 432.553,347.889 494.346,347.889 494.346,273.595 
		467.863,273.595 467.863,255.941 512,255.941 	"/>
	<rect x="185.37" y="347.881" style="fill:#242D3C;" width="141.235" height="17.656"/>
	<path style="fill:#242D3C;" d="M194.207,287.954H34.13v-75.139h74.854l54.523-124.652h30.697v199.79H194.207z M51.786,270.3H176.55
		V105.82h-1.49l-54.528,124.652H51.786V270.3z"/>
	<path style="fill:#242D3C;" d="M476.69,287.954H317.793V88.164h30.697l54.525,124.652h73.674V287.954z M335.447,270.3h123.587
		v-39.828h-67.566L336.934,105.82h-1.49V270.3H335.447z"/>
	<path style="fill:#242D3C;" d="M339.464,444.567h-21.67V333.53H441.38v46.397h-74.427L339.464,444.567z M335.447,351.186v57.707
		l19.822-46.62h68.454v-11.087H335.447z"/>
	<path style="fill:#242D3C;" d="M194.207,444.567h-21.67l-27.489-64.64H70.62V333.53h123.587V444.567z M88.276,362.273h68.454
		l19.82,46.62v-57.707H88.276V362.273z"/>
	<rect x="35.31" y="301.903" style="fill:#242D3C;" width="17.654" height="17.659"/>
	<rect x="70.62" y="301.903" style="fill:#242D3C;" width="17.654" height="17.654"/>
	<rect x="105.933" y="301.903" style="fill:#242D3C;" width="17.654" height="17.654"/>
	<rect x="141.235" y="301.929" style="fill:#242D3C;" width="17.654" height="17.654"/>
	<rect x="176.55" y="301.903" style="fill:#242D3C;" width="17.656" height="17.659"/>
	<rect x="211.866" y="301.903" style="fill:#242D3C;" width="17.654" height="17.654"/>
	<rect x="247.168" y="301.903" style="fill:#242D3C;" width="17.654" height="17.659"/>
	<rect x="282.47" y="301.903" style="fill:#242D3C;" width="17.654" height="17.659"/>
	<rect x="317.798" y="301.903" style="fill:#242D3C;" width="17.654" height="17.659"/>
	<rect x="353.101" y="301.903" style="fill:#242D3C;" width="17.654" height="17.654"/>
	<rect x="388.403" y="301.903" style="fill:#242D3C;" width="17.654" height="17.659"/>
	<rect x="423.731" y="301.903" style="fill:#242D3C;" width="17.654" height="17.659"/>
	<rect x="459.034" y="301.903" style="fill:#242D3C;" width="17.654" height="17.659"/>
</g>
<circle style="fill:#ffd801;" cx="256" cy="129.231" r="61.798"/>
<path style="fill:#FFFFFF;" d="M256,169.838c-22.392,0-40.607-18.214-40.607-40.607S233.608,88.625,256,88.625
	c22.392,0,40.607,18.214,40.607,40.607S278.392,169.838,256,169.838z M256,106.278c-12.654,0-22.95,10.296-22.95,22.95
	s10.296,22.95,22.95,22.95c12.654,0,22.953-10.296,22.953-22.95S268.654,106.278,256,106.278z"/>
<g>
</g>
<g>
</g>
<g>
</g>
<g>
</g>
<g>
</g>
<g>
</g>
<g>
</g>
<g>
</g>
<g>
</g>
<g>
</g>
<g>
</g>
<g>
</g>
<g>
</g>
<g>
</g>
<g>
</g>
</svg>
