<?xml version="1.0" encoding="iso-8859-1"?>
<!-- Generator: Adobe Illustrator 19.0.0, SVG Export Plug-In . SVG Version: 6.00 Build 0)  -->
<svg version="1.1" id="Layer_1" xmlns="http://www.w3.org/2000/svg" xmlns:xlink="http://www.w3.org/1999/xlink" x="0px" y="0px"
	 viewBox="0 0 512 512" style="enable-background:new 0 0 512 512;" xml:space="preserve">
<path style="fill:#ffd801;" d="M334.195,50.335c-24.013,0-46.62,9.357-63.626,26.36l-14.564,14.543l-14.561-14.546
	c-16.993-16.998-39.588-26.355-63.634-26.355c-49.618,0-89.976,40.371-89.976,89.981c0,24.067,9.388,46.694,26.452,63.731
	l91.118,91.123l50.604-101.21l50.604,101.215l91.231-91.228c16.993-16.978,26.332-39.572,26.332-63.631
	C424.169,90.706,383.811,50.335,334.195,50.335z"/>
<g>
	<path style="fill:#242D3C;" d="M455.168,124.36c-7.913-60.47-59.927-106.074-120.98-106.074c-26.488,0-51.638,8.305-72.727,24.008
		L256,46.359l-5.46-4.068c-21.089-15.703-46.239-24.008-72.73-24.008c-61.053,0-113.068,45.604-120.98,106.071l-18.13-2.376
		C47.803,52.442,107.61,0,177.812,0C206.016,0,232.906,8.192,256,23.757C279.099,8.192,305.987,0,334.188,0
		c70.203,0,130.01,52.439,139.118,121.979L455.168,124.36z"/>
	<path style="fill:#242D3C;" d="M491.658,166.623h-52.611v-52.611h52.611V166.623z M457.334,148.337h16.041v-16.038h-16.041V148.337
		z"/>
	<path style="fill:#242D3C;" d="M72.942,166.623h-52.6v-52.611H72.94v52.611H72.942z M38.628,148.337h16.028v-16.038H38.628
		C38.628,132.298,38.628,148.337,38.628,148.337z"/>
	<path style="fill:#242D3C;" d="M298.401,454.973h-84.795v-9.142c0-29.015-23.626-52.618-52.664-52.618H146.15l109.852-219.697
		l109.844,219.697h-14.792c-29.036,0-52.654,23.603-52.654,52.618V454.973L298.401,454.973z M231.306,436.687h49.393
		c3.899-30.134,26.801-54.397,56.264-60.352l-80.96-161.93l-80.968,161.93C204.5,382.29,227.407,406.554,231.306,436.687z"/>
	<rect x="194.23" y="436.685" style="fill:#242D3C;" width="123.546" height="18.286"/>
	<path style="fill:#242D3C;" d="M307.899,512H204.091v-75.313h103.811V512H307.899z M222.374,493.714h67.241v-38.743h-67.241
		V493.714z"/>
	<path style="fill:#242D3C;" d="M256.003,373.921c-15.524,0-28.155-12.626-28.155-28.142c0-15.526,12.628-28.16,28.155-28.16
		c15.532,0,28.163,12.634,28.163,28.16C284.168,361.295,271.534,373.921,256.003,373.921z M256.003,335.903
		c-5.44,0-9.866,4.431-9.866,9.874c0,5.435,4.429,9.859,9.866,9.859c5.445,0,9.879-4.424,9.879-9.859
		C265.882,340.334,261.45,335.903,256.003,335.903z"/>
	<rect x="246.861" y="193.971" style="fill:#242D3C;" width="18.286" height="132.8"/>
</g>
<g>
</g>
<g>
</g>
<g>
</g>
<g>
</g>
<g>
</g>
<g>
</g>
<g>
</g>
<g>
</g>
<g>
</g>
<g>
</g>
<g>
</g>
<g>
</g>
<g>
</g>
<g>
</g>
<g>
</g>
</svg>
