<?xml version="1.0" encoding="iso-8859-1"?>
<!-- Generator: Adobe Illustrator 19.0.0, SVG Export Plug-In . SVG Version: 6.00 Build 0)  -->
<svg version="1.1" id="Layer_1" xmlns="http://www.w3.org/2000/svg" xmlns:xlink="http://www.w3.org/1999/xlink" x="0px" y="0px"
	 viewBox="0 0 512 512" style="enable-background:new 0 0 512 512;" xml:space="preserve">
<path style="fill:#242D3C;" d="M494.566,238.566h-18.353V225.29l-50.778-7.79l-1.073-6.584c-1.81-11.121-4.744-22.088-8.712-32.602
	l-2.355-6.234l40.054-32.12l-13.279-22.994l-47.857,18.634l-4.221-5.151c-7.132-8.701-15.165-16.735-23.869-23.877l-5.148-4.219
	l18.627-47.857l-22.991-13.276l-32.115,40.046l-6.234-2.35c-10.519-3.968-21.494-6.899-32.612-8.712l-6.582-1.075l-7.793-50.772
	h-26.552l-7.795,50.772l-6.582,1.075c-11.126,1.812-22.095,4.746-32.609,8.712l-6.231,2.35l-32.115-40.049l-22.994,13.276
	l18.627,47.857l-5.146,4.219c-8.707,7.145-16.74,15.176-23.872,23.877l-4.221,5.148l-47.859-18.632L58.65,139.958l40.054,32.12
	l-2.355,6.234c-3.971,10.506-6.902,21.478-8.717,32.607l-1.075,6.582l-50.77,7.795v13.274H17.434v-29.023l53.281-8.179
	c1.574-7.869,3.648-15.642,6.208-23.229l-42.038-33.715l29.018-50.276l50.245,19.564c5.294-6.008,10.98-11.692,16.991-16.991
	l-19.558-50.24l50.271-29.033l33.72,42.043c7.588-2.557,15.36-4.631,23.227-6.205L226.975,0h58.051l8.179,53.286
	c7.862,1.569,15.631,3.648,23.224,6.205l33.713-42.043l50.278,29.033l-19.561,50.24c6.011,5.294,11.694,10.982,16.991,16.991
	l50.243-19.564l29.023,50.276l-42.04,33.713c2.56,7.59,4.636,15.363,6.208,23.229l53.284,8.177L494.566,238.566L494.566,238.566z"/>
<path style="fill:#005792;" d="M200.968,238.566c0-30.395,24.635-55.032,55.032-55.032s55.035,24.64,55.035,55.032h75.735
	c0-72.225-58.54-130.767-130.77-130.767s-130.77,58.542-130.77,130.767H200.968z"/>
<g>
	<path style="fill:#242D3C;" d="M320.212,238.569H301.86c0-25.285-20.572-45.86-45.86-45.86c-25.285,0-45.857,20.575-45.857,45.86
		h-18.35c0-35.405,28.803-64.212,64.207-64.212S320.212,203.164,320.212,238.569z"/>
	<rect x="17.434" y="284.442" style="fill:#242D3C;" width="349.286" height="18.35"/>
	<rect x="429.107" y="284.442" style="fill:#242D3C;" width="65.452" height="18.35"/>
	<path style="fill:#242D3C;" d="M379.569,324.818c-17.203,0-31.199-13.998-31.199-31.199s13.996-31.199,31.199-31.199
		c17.201,0,31.196,13.998,31.196,31.199S396.767,324.818,379.569,324.818z M379.569,280.776c-7.084,0-12.849,5.763-12.849,12.846
		c0,7.083,5.765,12.846,12.849,12.846c7.083,0,12.846-5.763,12.846-12.846C392.415,286.538,386.65,280.776,379.569,280.776z"/>
	<rect x="17.434" y="346.829" style="fill:#242D3C;" width="240.41" height="18.353"/>
	<rect x="320.23" y="346.829" style="fill:#242D3C;" width="174.336" height="18.353"/>
	<path style="fill:#242D3C;" d="M270.679,387.213c-17.201,0-31.196-13.998-31.196-31.199c0-17.203,13.996-31.199,31.196-31.199
		c17.203,0,31.199,13.996,31.199,31.199C301.878,373.215,287.882,387.213,270.679,387.213z M270.679,343.168
		c-7.084,0-12.846,5.765-12.846,12.849s5.763,12.846,12.846,12.846c7.083,0,12.849-5.763,12.849-12.846
		S277.763,343.168,270.679,343.168z"/>
	<rect x="17.434" y="409.242" style="fill:#242D3C;" width="63.621" height="18.353"/>
	<rect x="143.437" y="409.242" style="fill:#242D3C;" width="351.13" height="18.353"/>
	<path style="fill:#242D3C;" d="M93.901,449.605c-17.201,0-31.199-13.996-31.199-31.199c0-17.201,13.996-31.196,31.199-31.196
		c17.201,0,31.196,13.995,31.196,31.196C125.097,435.61,111.099,449.605,93.901,449.605z M93.901,405.563
		c-7.084,0-12.846,5.763-12.846,12.846c0,7.084,5.763,12.849,12.846,12.849c7.084,0,12.846-5.765,12.846-12.849
		C106.747,411.325,100.982,405.563,93.901,405.563z"/>
	<rect x="17.434" y="471.629" style="fill:#242D3C;" width="203.085" height="18.35"/>
	<rect x="282.906" y="471.629" style="fill:#242D3C;" width="211.661" height="18.35"/>
	<path style="fill:#242D3C;" d="M233.364,512c-17.201,0-31.196-13.998-31.196-31.199s13.996-31.199,31.196-31.199
		s31.199,13.998,31.199,31.199S250.565,512,233.364,512z M233.364,467.958c-7.081,0-12.846,5.763-12.846,12.846
		c0,7.083,5.763,12.849,12.846,12.849c7.084,0,12.846-5.765,12.846-12.849C246.211,473.72,240.448,467.958,233.364,467.958z"/>
</g>
<g>
</g>
<g>
</g>
<g>
</g>
<g>
</g>
<g>
</g>
<g>
</g>
<g>
</g>
<g>
</g>
<g>
</g>
<g>
</g>
<g>
</g>
<g>
</g>
<g>
</g>
<g>
</g>
<g>
</g>
</svg>
