<?xml version="1.0" encoding="iso-8859-1"?>
<!-- Generator: Adobe Illustrator 19.0.0, SVG Export Plug-In . SVG Version: 6.00 Build 0)  -->
<svg version="1.1" id="Layer_1" xmlns="http://www.w3.org/2000/svg" xmlns:xlink="http://www.w3.org/1999/xlink" x="0px" y="0px"
	 viewBox="0 0 512 512" style="enable-background:new 0 0 512 512;" xml:space="preserve">
<path style="fill:#ffd801;" d="M349.164,211.817c0-10.644,8.202-19.43,18.598-20.352c-1.052-6.172-2.668-12.168-4.71-17.905
	c-9.539,4.408-20.989,0.896-26.342-8.31c-5.304-9.26-2.696-20.936,5.921-26.944c-3.994-4.736-8.358-9.121-13.146-13.105
	c-5.973,8.522-17.644,11.238-26.913,5.898c-9.193-5.343-12.723-16.809-8.294-26.314c-5.796-2.056-11.786-3.651-17.915-4.78
	c-0.94,10.427-9.72,18.611-20.357,18.611c-10.673,0-19.42-8.182-20.357-18.611c-6.172,1.129-12.155,2.721-17.912,4.78
	c4.431,9.505,0.909,20.972-8.325,26.314c-9.239,5.34-20.905,2.624-26.926-5.898c-4.731,3.983-9.108,8.369-13.1,13.105
	c8.532,6.008,11.251,17.684,5.891,26.939c-5.332,9.216-16.801,12.726-26.314,8.312c-2.028,5.737-3.643,11.732-4.769,17.905
	c10.417,0.919,18.614,9.72,18.614,20.352c0,10.652-8.197,19.428-18.614,20.357c1.126,6.162,2.739,12.147,4.769,17.907
	c9.508-4.429,20.982-0.906,26.314,8.31c5.366,9.272,2.642,20.923-5.891,26.957c3.991,4.708,8.369,9.103,13.1,13.102
	c6.021-8.54,17.687-11.251,26.926-5.911c9.242,5.33,12.756,16.824,8.325,26.33c5.757,2.035,11.74,3.628,17.912,4.762
	c0.937-10.44,9.7-18.621,20.357-18.621c10.644,0,19.415,8.182,20.357,18.621c6.129-1.134,12.119-2.726,17.915-4.762
	c-4.426-9.505-0.899-21,8.294-26.33c9.27-5.348,20.941-2.629,26.913,5.911c4.792-4.001,9.152-8.394,13.158-13.102
	c-8.586-6.034-11.241-17.684-5.934-26.957c5.353-9.221,16.804-12.739,26.342-8.31c2.043-5.76,3.658-11.745,4.71-17.907
	C357.366,231.245,349.164,222.469,349.164,211.817z M256.005,264.105c-28.897,0-52.301-23.388-52.301-52.288
	c0-28.892,23.404-52.283,52.301-52.283c28.854,0,52.278,23.393,52.278,52.283C308.285,240.717,284.859,264.105,256.005,264.105z"/>
<g>
	<path style="fill:#242D3C;" d="M256.005,273.096c-33.787,0-61.271-27.487-61.271-61.271c0-33.787,27.484-61.274,61.271-61.274
		c33.782,0,61.268,27.487,61.268,61.274C317.276,245.606,289.787,273.096,256.005,273.096z M256.005,168.517
		c-23.88,0-43.305,19.428-43.305,43.308s19.425,43.305,43.305,43.305s43.305-19.425,43.305-43.305S279.885,168.517,256.005,168.517z
		"/>
	<path style="fill:#242D3C;" d="M342.938,418.427H169.024v-66.483c-48.23-29.998-77.978-83.208-77.978-140.119
		c0-90.947,73.987-164.938,164.933-164.938s164.938,73.989,164.938,164.938c0,56.906-29.747,110.121-77.98,140.119V418.427z
		 M186.988,400.463h137.984v-58.778l4.485-2.598c45.333-26.237,73.495-75.003,73.495-127.263
		c0-81.042-65.93-146.972-146.975-146.972c-81.039,0-146.97,65.93-146.97,146.972c0,52.265,28.16,101.03,73.495,127.263l4.483,2.593
		v58.783H186.988z"/>
	<rect x="169.034" y="431.667" style="fill:#242D3C;" width="173.914" height="17.971"/>
	<rect x="169.034" y="462.848" style="fill:#242D3C;" width="173.914" height="17.971"/>
	<rect x="220.49" y="494.029" style="fill:#242D3C;" width="70.989" height="17.971"/>
	<rect x="247.012" style="fill:#242D3C;" width="17.971" height="27.945"/>
	
		<rect x="308.136" y="9.679" transform="matrix(-0.951 -0.3091 0.3091 -0.951 611.4017 144.1705)" style="fill:#242D3C;" width="17.971" height="27.947"/>
	
		<rect x="363.299" y="37.772" transform="matrix(-0.8091 -0.5877 0.5877 -0.8091 643.0685 312.416)" style="fill:#242D3C;" width="17.97" height="27.948"/>
	
		<rect x="407.07" y="81.544" transform="matrix(-0.5878 -0.809 0.809 -0.5878 583.3398 488.2536)" style="fill:#242D3C;" width="17.971" height="27.947"/>
	
		<rect x="435.193" y="136.712" transform="matrix(-0.3091 -0.951 0.951 -0.3091 438.1724 619.687)" style="fill:#242D3C;" width="17.971" height="27.944"/>
	<rect x="439.882" y="202.829" style="fill:#242D3C;" width="27.945" height="17.971"/>
	
		<rect x="430.23" y="263.962" transform="matrix(-0.9511 -0.309 0.309 -0.9511 782.3295 669.7918)" style="fill:#242D3C;" width="27.943" height="17.972"/>
	
		<rect x="402.074" y="319.113" transform="matrix(-0.8091 -0.5876 0.5876 -0.8091 559.881 838.052)" style="fill:#242D3C;" width="27.941" height="17.97"/>
	
		<rect x="180.897" y="14.671" transform="matrix(-0.3089 -0.9511 0.9511 -0.3089 232.5641 216.3038)" style="fill:#242D3C;" width="27.945" height="17.971"/>
	
		<rect x="125.713" y="42.765" transform="matrix(-0.5876 -0.8091 0.8091 -0.5876 179.8942 195.1831)" style="fill:#242D3C;" width="27.944" height="17.97"/>
	
		<rect x="81.979" y="86.559" transform="matrix(-0.8089 -0.588 0.588 -0.8089 117.3868 229.2477)" style="fill:#242D3C;" width="27.946" height="17.972"/>
	
		<rect x="53.86" y="141.698" transform="matrix(-0.951 -0.3092 0.3092 -0.951 85.7451 314.9561)" style="fill:#242D3C;" width="27.94" height="17.971"/>
	<rect x="44.173" y="202.854" style="fill:#242D3C;" width="27.948" height="17.971"/>
	
		<rect x="58.837" y="259.003" transform="matrix(-0.309 -0.9511 0.9511 -0.309 -170.8387 421.8265)" style="fill:#242D3C;" width="17.972" height="27.946"/>
	
		<rect x="86.974" y="314.156" transform="matrix(-0.5876 -0.8091 0.8091 -0.5876 -113.1492 598.5837)" style="fill:#242D3C;" width="17.97" height="27.939"/>
</g>
<g>
</g>
<g>
</g>
<g>
</g>
<g>
</g>
<g>
</g>
<g>
</g>
<g>
</g>
<g>
</g>
<g>
</g>
<g>
</g>
<g>
</g>
<g>
</g>
<g>
</g>
<g>
</g>
<g>
</g>
</svg>
