<?xml version="1.0" encoding="iso-8859-1"?>
<!-- Generator: Adobe Illustrator 19.0.0, SVG Export Plug-In . SVG Version: 6.00 Build 0)  -->
<svg version="1.1" id="Layer_1" xmlns="http://www.w3.org/2000/svg" xmlns:xlink="http://www.w3.org/1999/xlink" x="0px" y="0px"
	 viewBox="0 0 512.003 512.003" style="enable-background:new 0 0 512.003 512.003;" xml:space="preserve">
<rect x="20.078" y="432.692" style="fill:#005792;" width="481.894" height="64.256"/>
<g>
	<path style="fill:#242D3C;" d="M512,506.981H10.038V366.435H512V506.981z M30.118,486.903h461.806V386.51H30.118V486.903z"/>
	<rect x="451.763" y="376.475" style="fill:#242D3C;" width="20.078" height="40.159"/>
	<rect x="411.597" y="376.475" style="fill:#242D3C;" width="20.081" height="40.159"/>
	<rect x="371.456" y="376.475" style="fill:#242D3C;" width="20.081" height="40.159"/>
	<rect x="331.29" y="376.475" style="fill:#242D3C;" width="20.078" height="40.159"/>
	<rect x="291.149" y="376.475" style="fill:#242D3C;" width="20.078" height="40.159"/>
	<rect x="250.982" y="376.475" style="fill:#242D3C;" width="20.081" height="40.159"/>
	<rect x="210.816" y="376.475" style="fill:#242D3C;" width="20.078" height="40.159"/>
	<rect x="170.675" y="376.475" style="fill:#242D3C;" width="20.078" height="40.159"/>
	<rect x="130.509" y="376.475" style="fill:#242D3C;" width="20.078" height="40.159"/>
	<rect x="90.342" y="376.475" style="fill:#242D3C;" width="20.078" height="40.159"/>
	<rect x="50.196" y="376.475" style="fill:#242D3C;" width="20.078" height="40.159"/>
	<polygon style="fill:#242D3C;" points="56.627,315.209 56.627,272.997 20.078,294.112 	"/>
	<rect x="135.388" y="284.059" style="fill:#242D3C;" width="282.163" height="20.078"/>
	<polygon style="fill:#242D3C;" points="88.156,345.007 0,294.115 88.156,243.199 98.196,260.586 40.156,294.107 98.196,327.617 	
		"/>
	<path style="fill:#242D3C;" d="M417.551,346.354l-324.375-0.003c-4.063,0-7.721-2.447-9.275-6.198
		c-1.556-3.753-0.694-8.069,2.176-10.939l35.11-35.11l-35.11-35.116c-2.872-2.87-3.732-7.188-2.176-10.939
		c1.551-3.75,5.212-6.195,9.275-6.195l0,0l324.375,0.008c5.545,0,10.04,4.493,10.04,10.038v84.416c0,2.665-1.06,5.217-2.941,7.099
		C422.769,345.297,420.214,346.354,417.551,346.354z M117.412,326.271l290.102,0.005v-64.338l-290.102-0.008l25.075,25.075
		c1.882,1.882,2.941,4.434,2.941,7.096c0,2.662-1.06,5.215-2.941,7.096L117.412,326.271z"/>
	<path style="fill:#242D3C;" d="M459.758,346.354h-42.204c-5.545,0-10.04-4.493-10.04-10.04v-84.416c0-2.662,1.06-5.215,2.941-7.096
		c1.882-1.882,4.434-2.941,7.096-2.941l0,0l42.204,0.008c5.545,0,10.038,4.495,10.038,10.04v84.406
		C469.796,341.861,465.303,346.354,459.758,346.354z M427.592,326.276h22.126v-64.33l-22.126-0.008V326.276z"/>
	<path style="fill:#242D3C;" d="M459.758,346.354v-20.078c8.586,0,16.671-3.351,22.756-9.426c6.067-6.077,9.413-14.152,9.411-22.738
		c0-8.599-3.346-16.673-9.418-22.748c-6.077-6.075-14.144-9.421-22.717-9.421c-0.008,0-0.015,0-0.023,0l-0.015-20.078
		c0.01,0,0.028,0,0.038,0c13.934,0,27.041,5.432,36.915,15.299c9.866,9.869,15.299,22.986,15.299,36.946
		c0.005,13.939-5.422,27.057-15.291,36.938C486.822,340.924,473.702,346.354,459.758,346.354z"/>
	<rect x="206.72" y="5.021" style="fill:#242D3C;" width="20.078" height="20.078"/>
	<path style="fill:#242D3C;" d="M187.098,25.1h-19.622V5.021h19.622V25.1z M147.85,25.1h-19.625V5.021h19.625V25.1z M108.608,25.1
		H88.983V5.021h19.625V25.1z M69.366,25.1H49.741V5.021h19.625V25.1z"/>
	<rect x="10.038" y="5.021" style="fill:#242D3C;" width="20.078" height="20.078"/>
	<path style="fill:#242D3C;" d="M30.118,182.081H10.038v-19.622h20.078v19.622H30.118z M30.118,142.836H10.038v-19.625h20.078
		v19.625H30.118z M30.118,103.589H10.038v-19.62h20.078v19.62H30.118z M30.118,64.347H10.038V44.722h20.078v19.625H30.118z"/>
	<rect x="10.038" y="201.704" style="fill:#242D3C;" width="20.078" height="20.078"/>
	<path style="fill:#242D3C;" d="M187.098,221.782h-19.622v-20.078h19.622V221.782z M147.855,221.782H128.23v-20.078h19.625V221.782z
		 M108.611,221.782H88.988v-20.078h19.622V221.782z M69.366,221.782H49.741v-20.078h19.625V221.782z"/>
	<rect x="206.72" y="201.704" style="fill:#242D3C;" width="20.078" height="20.078"/>
	<path style="fill:#242D3C;" d="M226.801,182.081H206.72v-19.625h20.078v19.625H226.801z M226.801,142.831H206.72v-19.62h20.078
		v19.62H226.801z M226.801,103.589H206.72V83.964h20.078v19.625H226.801z M226.801,64.342H206.72v-19.62h20.078v19.62H226.801z"/>
</g>
<rect x="68.224" y="63.205" style="fill:#ffd801;" width="100.403" height="100.403"/>
<path style="fill:#005792;" d="M276.07,113.402v48.189c0,6.623,5.42,12.047,12.047,12.047h32.125
	c6.628,0,12.047-5.425,12.047-12.047v-48.189H276.07z"/>
<g>
	<path style="fill:#242D3C;" d="M320.243,183.676h-32.125c-12.178,0-22.085-9.91-22.085-22.085V65.212
		c0-12.175,9.907-22.085,22.085-22.085h32.125c12.178,0,22.088,9.91,22.088,22.085v96.376
		C342.331,173.766,332.421,183.676,320.243,183.676z M288.118,63.205c-1.091,0-2.007,0.916-2.007,2.007v96.376
		c0,1.091,0.916,2.007,2.007,2.007h32.125c1.091,0,2.007-0.916,2.007-2.007V65.212c0-1.091-0.916-2.007-2.007-2.007H288.118z"/>
	<path style="fill:#242D3C;" d="M461.471,221.782h-29.407c-27.848,0-50.504-22.659-50.504-50.509V55.52
		c0-27.843,22.656-50.499,50.504-50.499h29.407C489.334,5.021,512,27.677,512,55.52v115.753
		C512,199.123,489.334,221.782,461.471,221.782z M432.061,25.1c-16.776,0-30.423,13.647-30.423,30.42v115.753
		c0,16.781,13.647,30.433,30.423,30.433h29.407c16.794,0,30.454-13.652,30.454-30.433V55.52c0-16.773-13.66-30.42-30.454-30.42
		H432.061z"/>
</g>
<path style="fill:#ffd801;" d="M459.814,57.366c0,7.201-5.829,13.064-13.059,13.064c-7.201,0-13.033-5.862-13.033-13.064
	c0-7.247,5.832-13.074,13.033-13.074C453.985,44.292,459.814,50.118,459.814,57.366z"/>
<g>
</g>
<g>
</g>
<g>
</g>
<g>
</g>
<g>
</g>
<g>
</g>
<g>
</g>
<g>
</g>
<g>
</g>
<g>
</g>
<g>
</g>
<g>
</g>
<g>
</g>
<g>
</g>
<g>
</g>
</svg>
