<?xml version="1.0" encoding="iso-8859-1"?>
<!-- Generator: Adobe Illustrator 19.0.0, SVG Export Plug-In . SVG Version: 6.00 Build 0)  -->
<svg version="1.1" id="Layer_1" xmlns="http://www.w3.org/2000/svg" xmlns:xlink="http://www.w3.org/1999/xlink" x="0px" y="0px"
	 viewBox="0 0 512 512" style="enable-background:new 0 0 512 512;" xml:space="preserve">
<g>
	<polygon style="fill:#242D3C;" points="338.821,498.381 173.171,498.381 173.171,443.016 194.504,443.016 194.504,477.048 
		317.489,477.048 317.489,443.016 338.821,443.016 	"/>
	<rect x="142.666" y="477.053" style="fill:#242D3C;" width="226.688" height="21.333"/>
	<path style="fill:#242D3C;" d="M512,367.339H0V41.595c0-7.455,2.9-14.474,8.174-19.771c5.332-5.304,12.355-8.21,19.812-8.21
		h456.031c7.496,0,14.525,2.918,19.789,8.21c5.281,5.292,8.192,12.316,8.192,19.771v325.745H512z M21.332,346.004h469.332V41.595
		c0-1.766-0.699-3.443-1.969-4.713c-1.674-1.684-3.656-1.933-4.682-1.933H27.988c-1.779,0-3.464,0.696-4.728,1.964
		c-1.229,1.234-1.925,2.908-1.925,4.685v304.407H21.332z"/>
	<path style="fill:#242D3C;" d="M484.017,425.047H27.978c-7.521,0-14.554-2.921-19.807-8.22C2.921,411.61,0,404.577,0,397.071
		v-51.067h512v51.067c0,7.501-2.926,14.538-8.233,19.812C498.57,422.129,491.533,425.047,484.017,425.047z M21.332,367.339v29.732
		c0,1.779,0.684,3.443,1.933,4.68c1.7,1.715,3.681,1.964,4.713,1.964h456.038c1.032,0,3.016-0.248,4.657-1.905
		c1.306-1.3,1.992-2.957,1.992-4.739v-29.732H21.332z"/>
</g>
<rect x="51.558" y="65.165" style="fill:#ffd801;" width="408.883" height="250.624"/>
<path style="fill:#FFFFFF;" d="M336.031,190.464c0-9.132,7.05-16.684,15.974-17.475c-0.906-5.292-2.294-10.45-4.047-15.375
	c-8.195,3.784-18.028,0.771-22.625-7.132c-4.557-7.959-2.312-17.984,5.087-23.142c-3.433-4.063-7.178-7.834-11.29-11.254
	c-5.125,7.311-15.148,9.654-23.109,5.064c-7.89-4.588-10.926-14.433-7.119-22.597c-4.979-1.761-10.125-3.139-15.388-4.104
	c-0.806,8.96-8.351,15.985-17.487,15.985c-9.162,0-16.671-7.025-17.485-15.985c-5.292,0.965-10.437,2.342-15.375,4.104
	c3.799,8.161,0.776,18.01-7.158,22.597c-7.931,4.59-17.951,2.25-23.124-5.064c-4.058,3.42-7.818,7.191-11.244,11.254
	c7.324,5.158,9.659,15.183,5.056,23.135c-4.58,7.916-14.431,10.934-22.597,7.142c-1.751,4.925-3.133,10.084-4.096,15.375
	c8.947,0.794,15.985,8.351,15.985,17.475c0,9.149-7.037,16.694-15.985,17.492c0.963,5.292,2.348,10.432,4.096,15.378
	c8.166-3.804,18.017-0.778,22.597,7.13c4.608,7.967,2.271,17.971-5.056,23.15c3.425,4.05,7.183,7.816,11.244,11.259
	c5.174-7.342,15.196-9.667,23.124-5.074c7.941,4.575,10.957,14.444,7.158,22.607c4.938,1.751,10.084,3.118,15.375,4.093
	c0.812-8.968,8.333-15.995,17.485-15.995c9.142,0,16.681,7.027,17.487,15.995c5.263-0.975,10.406-2.342,15.388-4.093
	c-3.804-8.164-0.771-18.033,7.119-22.607c7.962-4.595,17.984-2.266,23.109,5.074c4.114-3.443,7.857-7.209,11.308-11.259
	c-7.383-5.179-9.661-15.183-5.105-23.15c4.598-7.913,14.431-10.934,22.625-7.13c1.756-4.946,3.144-10.086,4.047-15.378
	C343.081,207.155,336.031,199.613,336.031,190.464z M256.026,235.377c-24.817,0-44.908-20.083-44.908-44.913
	c0-24.806,20.093-44.895,44.908-44.895c24.783,0,44.895,20.088,44.895,44.895C300.92,215.293,280.806,235.377,256.026,235.377z"/>
<path style="fill:#242D3C;" d="M256.026,241.672c-28.234,0-51.2-22.963-51.2-51.192c0-28.237,22.966-51.208,51.2-51.208
	c28.232,0,51.2,22.971,51.2,51.208C307.226,218.711,284.257,241.672,256.026,241.672z M256.026,160.607
	c-16.466,0-29.868,13.399-29.868,29.875c0,16.463,13.399,29.857,29.868,29.857s29.868-13.394,29.868-29.857
	C285.893,174.006,272.492,160.607,256.026,160.607z"/>
<g>
</g>
<g>
</g>
<g>
</g>
<g>
</g>
<g>
</g>
<g>
</g>
<g>
</g>
<g>
</g>
<g>
</g>
<g>
</g>
<g>
</g>
<g>
</g>
<g>
</g>
<g>
</g>
<g>
</g>
</svg>
