<?xml version="1.0" encoding="iso-8859-1"?>
<!-- Generator: Adobe Illustrator 19.0.0, SVG Export Plug-In . SVG Version: 6.00 Build 0)  -->
<svg version="1.1" id="Layer_1" xmlns="http://www.w3.org/2000/svg" xmlns:xlink="http://www.w3.org/1999/xlink" x="0px" y="0px"
	 viewBox="0 0 512 512" style="enable-background:new 0 0 512 512;" xml:space="preserve">
<g>
	<polygon style="fill:#242D3C;" points="419.927,436.173 332.145,436.173 332.145,418.514 402.271,418.514 402.271,81.485 
		338.442,17.654 109.729,17.654 109.729,418.514 179.86,418.514 179.86,436.173 92.073,436.173 92.073,0 345.754,0 419.927,74.173 	
		"/>
	<polygon style="fill:#242D3C;" points="411.092,86.643 333.271,86.643 333.271,8.822 350.925,8.822 350.925,68.987 411.092,68.987 
			"/>
	<path style="fill:#242D3C;" d="M267.863,512h-23.752c-22.881,0-41.498-18.619-41.498-41.51v-86.298
		c0-22.884,18.614-41.498,41.498-41.498h23.752c22.897,0,41.526,18.614,41.526,41.498v86.298
		C309.386,493.381,290.76,512,267.863,512z M244.109,360.351c-13.146,0-23.841,10.698-23.841,23.841v86.298
		c0,13.151,10.696,23.854,23.841,23.854h23.752c13.164,0,23.869-10.706,23.869-23.854v-86.298c0-13.146-10.708-23.841-23.869-23.841
		L244.109,360.351L244.109,360.351z"/>
</g>
<g>
	<path style="fill:#ffd801;" d="M266.524,385.684c0,5.814-4.71,10.54-10.547,10.54c-5.814,0-10.524-4.728-10.524-10.54
		c0-5.85,4.71-10.56,10.524-10.56C261.814,375.124,266.524,379.835,266.524,385.684z"/>
	<path style="fill:#ffd801;" d="M256,146.179c-28.262,0-51.172,22.904-51.172,51.167c0,23.529,15.895,43.295,37.509,49.277
		L256,217.452l13.663,29.169c21.614-5.985,37.509-25.748,37.509-49.277C307.172,169.08,284.255,146.179,256,146.179z"/>
</g>
<g>
	<rect x="247.168" y="281.6" style="fill:#242D3C;" width="17.654" height="36.728"/>
	<path style="fill:#242D3C;" d="M299.924,290.417h-87.841L256,196.639L299.924,290.417z M239.846,272.763h32.312L256,238.264
		L239.846,272.763z"/>
	<path style="fill:#242D3C;" d="M348.641,182.221c-6.753-38.956-37.461-69.66-76.413-76.406l3.016-17.393
		c46.282,8.005,82.77,44.493,90.79,90.783L348.641,182.221z"/>
	<path style="fill:#242D3C;" d="M163.372,182.221l-17.393-3.013c8.013-46.292,44.498-82.772,90.783-90.783l3.016,17.393
		C200.819,112.561,170.12,143.263,163.372,182.221z"/>
	<path style="fill:#242D3C;" d="M385.469,225.016h-53.153v-53.138h53.153V225.016z M349.972,207.36h17.843v-17.828h-17.843V207.36z"
		/>
	<path style="fill:#242D3C;" d="M282.565,122.12h-53.13V68.987h53.13V122.12z M247.091,104.463h17.82v-17.82h-17.82V104.463z"/>
	<path style="fill:#242D3C;" d="M179.676,225.016h-53.133v-53.138h53.133V225.016z M144.2,207.36h17.82v-17.828H144.2V207.36z"/>
</g>
<g>
</g>
<g>
</g>
<g>
</g>
<g>
</g>
<g>
</g>
<g>
</g>
<g>
</g>
<g>
</g>
<g>
</g>
<g>
</g>
<g>
</g>
<g>
</g>
<g>
</g>
<g>
</g>
<g>
</g>
</svg>
