<?xml version="1.0" encoding="iso-8859-1"?>
<!-- Generator: Adobe Illustrator 19.0.0, SVG Export Plug-In . SVG Version: 6.00 Build 0)  -->
<svg version="1.1" id="Layer_1" xmlns="http://www.w3.org/2000/svg" xmlns:xlink="http://www.w3.org/1999/xlink" x="0px" y="0px"
	 viewBox="0 0 512 512" style="enable-background:new 0 0 512 512;" xml:space="preserve">
<circle style="fill:#005792;" cx="256" cy="256" r="131.635"/>
<path style="fill:#242D3C;" d="M256,312.212c-30.991,0-56.205-25.219-56.205-56.212c0-30.996,25.213-56.212,56.205-56.212
	s56.205,25.216,56.205,56.212C312.205,286.994,286.991,312.212,256,312.212z M256,217.943c-20.982,0-38.049,17.07-38.049,38.057
	s17.068,38.054,38.049,38.054s38.049-17.07,38.049-38.054S276.982,217.943,256,217.943z"/>
<path style="fill:#FFFFFF;" d="M252.902,222.73c0,16.666-13.522,30.167-30.185,30.167c-16.637,0-30.147-13.499-30.147-30.167
	s13.509-30.164,30.147-30.164C239.38,192.566,252.902,206.065,252.902,222.73z"/>
<g>
	<path style="fill:#242D3C;" d="M256,396.723c-101.804,0-196.257-50.729-252.667-135.703L0,256l3.333-5.02
		C59.743,166.008,154.196,115.279,256,115.279c101.798,0,196.252,50.729,252.667,135.701L512,256l-3.333,5.02
		C452.252,345.992,357.801,396.723,256,396.723z M21.868,256C75.251,332.864,162.317,378.565,256,378.565
		c93.681,0,180.746-45.701,234.132-122.565C436.746,179.136,349.681,133.435,256,133.435C162.317,133.435,75.251,179.136,21.868,256
		z"/>
	<polygon style="fill:#242D3C;" points="453.622,124.022 435.466,124.022 435.466,76.534 387.986,76.534 387.986,58.378 
		453.622,58.378 	"/>
	<polygon style="fill:#242D3C;" points="76.534,124.022 58.378,124.022 58.378,58.378 124.017,58.378 124.017,76.534 76.534,76.534 
			"/>
	<polygon style="fill:#242D3C;" points="453.622,453.622 387.986,453.622 387.986,435.466 435.466,435.466 435.466,387.978 
		453.622,387.978 	"/>
	<polygon style="fill:#242D3C;" points="124.017,453.622 58.378,453.622 58.378,387.978 76.534,387.978 76.534,435.466 
		124.017,435.466 	"/>
	<rect x="208.87" y="58.378" style="fill:#242D3C;" width="18.847" height="18.156"/>
	<rect x="246.554" y="58.378" style="fill:#242D3C;" width="18.865" height="18.156"/>
	<rect x="284.288" y="58.378" style="fill:#242D3C;" width="18.847" height="18.156"/>
	<rect x="208.87" y="435.456" style="fill:#242D3C;" width="18.847" height="18.158"/>
	<rect x="246.554" y="435.456" style="fill:#242D3C;" width="18.865" height="18.158"/>
	<rect x="284.288" y="435.456" style="fill:#242D3C;" width="18.847" height="18.158"/>
</g>
<g>
</g>
<g>
</g>
<g>
</g>
<g>
</g>
<g>
</g>
<g>
</g>
<g>
</g>
<g>
</g>
<g>
</g>
<g>
</g>
<g>
</g>
<g>
</g>
<g>
</g>
<g>
</g>
<g>
</g>
</svg>
