<?xml version="1.0" encoding="iso-8859-1"?>
<!-- Generator: Adobe Illustrator 19.0.0, SVG Export Plug-In . SVG Version: 6.00 Build 0)  -->
<svg version="1.1" id="Layer_1" xmlns="http://www.w3.org/2000/svg" xmlns:xlink="http://www.w3.org/1999/xlink" x="0px" y="0px"
	 viewBox="0 0 512 512" style="enable-background:new 0 0 512 512;" xml:space="preserve">
<g>
	<path style="fill:#242D3C;" d="M474.153,512H146.924V165.888h327.229V512z M165.102,493.819h290.872V184.067H165.102V493.819z"/>
	<path style="fill:#242D3C;" d="M474.153,184.067H146.924v-74.99h327.229V184.067z M165.102,165.888h290.872v-38.63H165.102V165.888
		z"/>
	<rect x="259.046" y="137.482" style="fill:#242D3C;" width="18.181" height="18.179"/>
	<rect x="222.674" y="137.482" style="fill:#242D3C;" width="18.179" height="18.179"/>
	<rect x="186.317" y="137.482" style="fill:#242D3C;" width="18.179" height="18.179"/>
</g>
<rect x="186.317" y="205.286" style="fill:#005792;" width="248.448" height="267.341"/>
<g>
	<rect x="210.56" y="222.595" style="fill:#242D3C;" width="43.75" height="18.181"/>
	<rect x="254.285" y="283.904" style="fill:#242D3C;" width="47.032" height="18.179"/>
	<rect x="254.285" y="314.522" style="fill:#242D3C;" width="47.032" height="18.181"/>
	<rect x="254.285" y="406.451" style="fill:#242D3C;" width="47.032" height="18.181"/>
	<rect x="254.285" y="437.094" style="fill:#242D3C;" width="47.032" height="18.181"/>
	<rect x="210.56" y="253.235" style="fill:#242D3C;" width="90.775" height="18.181"/>
	<rect x="210.56" y="345.19" style="fill:#242D3C;" width="43.75" height="18.181"/>
	<rect x="210.56" y="375.808" style="fill:#242D3C;" width="90.775" height="18.179"/>
	<rect x="319.744" y="283.904" style="fill:#242D3C;" width="47.045" height="18.179"/>
	<rect x="319.744" y="314.522" style="fill:#242D3C;" width="90.79" height="18.181"/>
	<rect x="319.744" y="253.235" style="fill:#242D3C;" width="47.045" height="18.181"/>
	<rect x="319.744" y="406.477" style="fill:#242D3C;" width="47.045" height="18.181"/>
	<rect x="319.744" y="437.12" style="fill:#242D3C;" width="90.79" height="18.181"/>
	<rect x="319.744" y="375.808" style="fill:#242D3C;" width="47.045" height="18.179"/>
	<polygon style="fill:#242D3C;" points="128.745,457.462 92.385,457.462 92.385,54.538 419.615,54.538 419.615,90.898 
		401.436,90.898 401.436,72.717 110.564,72.717 110.564,439.283 128.745,439.283 	"/>
	<polygon style="fill:#242D3C;" points="74.204,402.923 37.847,402.923 37.847,0 365.076,0 365.076,36.36 346.898,36.36 
		346.898,18.181 56.026,18.181 56.026,384.745 74.204,384.745 	"/>
	<polygon style="fill:#242D3C;" points="474.153,45.448 455.974,45.448 455.974,18.181 428.705,18.181 428.705,0 474.153,0 	"/>
	<polygon style="fill:#242D3C;" points="83.295,512 37.847,512 37.847,466.547 56.026,466.547 56.026,493.819 83.295,493.819 	"/>
</g>
<g>
</g>
<g>
</g>
<g>
</g>
<g>
</g>
<g>
</g>
<g>
</g>
<g>
</g>
<g>
</g>
<g>
</g>
<g>
</g>
<g>
</g>
<g>
</g>
<g>
</g>
<g>
</g>
<g>
</g>
</svg>
