<?xml version="1.0" encoding="iso-8859-1"?>
<!-- Generator: Adobe Illustrator 19.0.0, SVG Export Plug-In . SVG Version: 6.00 Build 0)  -->
<svg version="1.1" id="Layer_1" xmlns="http://www.w3.org/2000/svg" xmlns:xlink="http://www.w3.org/1999/xlink" x="0px" y="0px"
	 viewBox="0 0 512.001 512.001" style="enable-background:new 0 0 512.001 512.001;" xml:space="preserve">
<path style="fill:#005792;" d="M262.143,10.067c-1.001-0.998-2.54-1.354-3.927-0.781c-1.385,0.576-2.222,1.912-2.222,3.325v33.326
	c-116.024,0-210.071,94.047-210.071,210.068h50.414c0-88.182,71.478-159.649,159.657-159.649v33.316
	c0,1.411,0.837,2.755,2.222,3.328c1.388,0.573,2.926,0.218,3.927-0.781l61.071-61.076L262.143,10.067z"/>
<path style="fill:#242D3C;" d="M105.341,256.003H87.334c0-92.995,75.661-168.653,168.66-168.653h9.004v29.274l45.486-45.486
	L265,25.652v29.289h-9.004c-110.868,0-201.068,90.196-201.068,201.065H36.925c0-117.778,93.432-214.149,210.071-218.888V12.611
	c0-5.107,3.049-9.674,7.764-11.638C259.511-1,264.898,0.085,268.512,3.7l67.438,67.438l-67.438,67.441
	c-3.615,3.612-9.009,4.69-13.734,2.737c-4.726-1.958-7.782-6.531-7.782-11.648v-24.046
	C168.096,110.296,105.341,175.957,105.341,256.003z"/>
<path style="fill:#005792;" d="M415.643,256.003c0,88.172-71.473,159.657-159.649,159.657v-33.324c0-1.413-0.837-2.752-2.222-3.325
	c-1.388-0.576-2.926-0.22-3.924,0.781l-61.076,61.071l61.076,61.076c0.998,0.998,2.537,1.352,3.924,0.781
	c1.388-0.579,2.222-1.917,2.222-3.328v-33.326c116.032,0,210.076-94.047,210.076-210.066h-50.427V256.003z"/>
<path style="fill:#242D3C;" d="M252.377,512.001c-3.277,0.003-6.482-1.28-8.893-3.692l-67.443-67.443l67.443-67.438
	c3.612-3.615,9.001-4.692,13.727-2.737c4.733,1.961,7.79,6.531,7.79,11.648v24.054c78.891-4.669,141.642-70.339,141.642-150.387
	h18.007c0,93-75.658,168.658-168.653,168.658h-9.004V395.38l-45.491,45.489l45.491,45.491v-29.286h9.004
	c110.871,0,201.073-90.197,201.073-201.065h18.007c0,117.778-93.435,214.149-210.079,218.885v24.504
	c0,5.107-3.049,9.674-7.764,11.638C255.654,511.683,254.01,512.001,252.377,512.001z"/>
<circle style="fill:#ffd801;" cx="255.999" cy="256.001" r="84.634"/>
<polygon style="fill:#FFFFFF;" points="247.293,292.076 211.668,256.459 224.396,243.728 247.285,266.615 287.597,226.295 
	300.328,239.026 "/>
<g>
	<path style="fill:#242D3C;" d="M156.346,422.319c-5.412-3.251-10.734-6.807-15.811-10.578l10.732-14.459
		c4.608,3.42,9.436,6.653,14.349,9.603L156.346,422.319z M125.833,399.665c-4.68-4.244-9.206-8.768-13.45-13.445l13.335-12.101
		c3.853,4.247,7.962,8.356,12.211,12.209L125.833,399.665z M100.308,371.529c-3.771-5.074-7.334-10.394-10.586-15.8l15.432-9.277
		c2.952,4.908,6.182,9.731,9.608,14.339L100.308,371.529z M80.736,338.963c-2.714-5.719-5.164-11.63-7.291-17.567l16.952-6.072
		c1.928,5.381,4.15,10.739,6.61,15.923L80.736,338.963z M67.919,303.184c-1.533-6.136-2.778-12.419-3.699-18.668l17.812-2.624
		c0.837,5.668,1.966,11.361,3.356,16.924L67.919,303.184z"/>
	<path style="fill:#242D3C;" d="M429.966,230.114c-0.837-5.676-1.969-11.366-3.356-16.919l17.462-4.375
		c1.539,6.126,2.783,12.408,3.707,18.67L429.966,230.114z M421.6,196.683c-1.938-5.402-4.16-10.757-6.61-15.923l16.266-7.716
		c2.706,5.699,5.158,11.607,7.296,17.564L421.6,196.683z M406.839,165.559c-2.957-4.915-6.185-9.741-9.605-14.341l14.454-10.739
		c3.763,5.066,7.324,10.386,10.583,15.803L406.839,165.559z M386.267,137.88c-3.837-4.234-7.946-8.333-12.206-12.196l12.093-13.343
		c4.695,4.255,9.224,8.778,13.455,13.448L386.267,137.88z M360.716,114.727c-4.605-3.418-9.434-6.651-14.349-9.6l9.27-15.439
		c5.42,3.256,10.737,6.815,15.813,10.583L360.716,114.727z"/>
</g>
<g>
</g>
<g>
</g>
<g>
</g>
<g>
</g>
<g>
</g>
<g>
</g>
<g>
</g>
<g>
</g>
<g>
</g>
<g>
</g>
<g>
</g>
<g>
</g>
<g>
</g>
<g>
</g>
<g>
</g>
</svg>
