<?xml version="1.0" encoding="iso-8859-1"?>
<!-- Generator: Adobe Illustrator 19.0.0, SVG Export Plug-In . SVG Version: 6.00 Build 0)  -->
<svg version="1.1" id="Layer_1" xmlns="http://www.w3.org/2000/svg" xmlns:xlink="http://www.w3.org/1999/xlink" x="0px" y="0px"
	 viewBox="0 0 512 512" style="enable-background:new 0 0 512 512;" xml:space="preserve">
<g>
	<rect x="247.654" y="71.247" style="fill:#242D3C;" width="16.668" height="17.068"/>
	<rect x="224.358" y="423.68" style="fill:#242D3C;" width="63.291" height="17.065"/>
	<path style="fill:#242D3C;" d="M369.828,472.893h-227.64c-26.153,0-47.432-21.251-47.432-47.373v-95.626h17.068v95.626
		c0,16.709,13.619,30.308,30.367,30.308h227.64c16.732,0,30.346-13.599,30.346-30.308v-95.626h17.068v95.626
		C417.239,451.643,395.971,472.893,369.828,472.893z"/>
	<path style="fill:#242D3C;" d="M417.239,182.164h-17.068V86.536c0-16.742-13.612-30.362-30.346-30.362H142.188
		c-16.748,0-30.367,13.619-30.367,30.362v95.626H94.753V86.536c0-26.153,21.281-47.429,47.432-47.429h227.64
		c26.143,0,47.414,21.279,47.414,47.429V182.164z"/>
</g>
<path style="fill:#005792;" d="M136.881,102.615v306.772h238.241V102.615H136.881z M256,331.013
	c-41.421,0-75.005-33.585-75.005-75.016c0-41.421,33.587-75.003,75.005-75.003c41.413,0,75.013,33.582,75.013,75.003
	C331.013,297.428,297.413,331.013,256,331.013z"/>
<g>
	<path style="fill:#ffd801;" d="M279.572,284.101c-6.513-6.508-15.04-9.766-23.572-9.766c-8.532,0-17.068,3.254-23.572,9.766
		c-6.51,6.508-9.766,15.04-9.766,23.572v23.34h66.673v-23.34C289.334,299.141,286.08,290.609,279.572,284.101z"/>
	<circle style="fill:#ffd801;" cx="256" cy="239.334" r="25.004"/>
</g>
<g>
	<path style="fill:#242D3C;" d="M256,339.548c-46.067,0-83.546-37.481-83.546-83.551c0-46.062,37.481-83.535,83.546-83.535
		c46.062,0,83.54,37.473,83.54,83.535C339.54,302.067,302.062,339.548,256,339.548z M256,189.527
		c-36.657,0-66.481,29.816-66.481,66.47c0,36.662,29.824,66.483,66.481,66.483c36.652,0,66.473-29.821,66.473-66.483
		C322.473,219.343,292.652,189.527,256,189.527z"/>
	<rect x="375.117" y="230.81" style="fill:#242D3C;" width="83.341" height="17.068"/>
	<rect x="475.136" y="230.81" style="fill:#242D3C;" width="16.673" height="17.068"/>
	<rect x="375.117" y="264.141" style="fill:#242D3C;" width="83.341" height="17.068"/>
	<rect x="475.136" y="264.141" style="fill:#242D3C;" width="16.673" height="17.068"/>
	<polygon style="fill:#242D3C;" points="428.068,214.531 358.052,214.531 358.052,197.463 421,197.463 463.288,155.174 
		475.354,167.24 	"/>
	<path style="fill:#242D3C;" d="M483.466,175.596c-15.736,0-28.539-12.8-28.539-28.534c0-15.736,12.803-28.536,28.539-28.536
		c15.734,0,28.534,12.8,28.534,28.536C512,162.796,499.2,175.596,483.466,175.596z M483.466,135.593
		c-6.328,0-11.474,5.146-11.474,11.469c0,6.323,5.148,11.466,11.474,11.466c6.323,0,11.466-5.143,11.466-11.466
		C494.932,140.741,489.789,135.593,483.466,135.593z"/>
	<polygon style="fill:#242D3C;" points="463.288,356.82 421,314.532 358.052,314.532 358.052,297.467 428.068,297.467 
		475.354,344.753 	"/>
	<path style="fill:#242D3C;" d="M483.466,393.467c-15.736,0-28.539-12.805-28.539-28.539c0-15.734,12.803-28.534,28.539-28.534
		c15.734,0,28.534,12.8,28.534,28.534C512,380.662,499.2,393.467,483.466,393.467z M483.466,353.459
		c-6.328,0-11.474,5.143-11.474,11.466c0,6.323,5.148,11.471,11.474,11.471c6.323,0,11.466-5.148,11.466-11.471
		C494.932,358.602,489.789,353.459,483.466,353.459z"/>
	<rect x="53.54" y="230.81" style="fill:#242D3C;" width="83.341" height="17.068"/>
	<rect x="20.201" y="230.81" style="fill:#242D3C;" width="16.671" height="17.068"/>
	<rect x="53.54" y="264.141" style="fill:#242D3C;" width="83.341" height="17.068"/>
	<rect x="20.201" y="264.141" style="fill:#242D3C;" width="16.671" height="17.068"/>
	<polygon style="fill:#242D3C;" points="153.946,214.531 83.935,214.531 36.646,167.24 48.714,155.174 91,197.463 153.946,197.463 	
		"/>
	<path style="fill:#242D3C;" d="M28.534,175.596C12.8,175.596,0,162.796,0,147.064c0-15.736,12.8-28.536,28.534-28.536
		c15.736,0,28.539,12.8,28.539,28.536C57.073,162.796,44.27,175.596,28.534,175.596z M28.534,135.593
		c-6.323,0-11.466,5.146-11.466,11.469c0,6.323,5.143,11.466,11.466,11.466c6.326,0,11.471-5.143,11.471-11.466
		C40.005,140.741,34.86,135.593,28.534,135.593z"/>
	<polygon style="fill:#242D3C;" points="48.714,356.82 36.646,344.753 83.935,297.467 153.946,297.467 153.946,314.532 91,314.532 	
		"/>
	<path style="fill:#242D3C;" d="M28.534,393.467C12.8,393.467,0,380.662,0,364.928c0-15.734,12.8-28.534,28.534-28.534
		c15.736,0,28.539,12.8,28.539,28.534C57.073,380.662,44.27,393.467,28.534,393.467z M28.534,353.459
		c-6.323,0-11.466,5.143-11.466,11.466c0,6.323,5.143,11.471,11.466,11.471c6.326,0,11.471-5.148,11.471-11.471
		C40.005,358.602,34.86,353.459,28.534,353.459z"/>
</g>
<g>
</g>
<g>
</g>
<g>
</g>
<g>
</g>
<g>
</g>
<g>
</g>
<g>
</g>
<g>
</g>
<g>
</g>
<g>
</g>
<g>
</g>
<g>
</g>
<g>
</g>
<g>
</g>
<g>
</g>
</svg>
