<?xml version="1.0" encoding="iso-8859-1"?>
<!-- Generator: Adobe Illustrator 19.0.0, SVG Export Plug-In . SVG Version: 6.00 Build 0)  -->
<svg version="1.1" id="Layer_1" xmlns="http://www.w3.org/2000/svg" xmlns:xlink="http://www.w3.org/1999/xlink" x="0px" y="0px"
	 viewBox="0 0 512 512" style="enable-background:new 0 0 512 512;" xml:space="preserve">
<g>
	<rect x="247.859" y="42.115" style="fill:#242D3C;" width="19.725" height="18.962"/>
	<rect x="215.654" y="450.995" style="fill:#242D3C;" width="84.134" height="18.962"/>
	<path style="fill:#242D3C;" d="M359.619,512H160.374c-24.63,0-44.667-20.022-44.667-44.634V44.675
		C115.707,20.042,135.744,0,160.374,0h199.245c24.622,0,44.652,20.042,44.652,44.675v422.694
		C404.27,491.978,384.241,512,359.619,512z M160.374,18.962c-14.175,0-25.705,11.533-25.705,25.71v422.694
		c0,14.154,11.53,25.669,25.705,25.669h199.245c14.167,0,25.69-11.515,25.69-25.669V44.675c0-14.177-11.523-25.71-25.69-25.71
		H160.374V18.962z"/>
	<rect x="125.189" y="84.227" style="fill:#242D3C;" width="269.594" height="18.962"/>
	<rect x="125.189" y="408.883" style="fill:#242D3C;" width="269.594" height="18.962"/>
</g>
<g>
	<rect x="159.334" y="127.841" style="fill:#ffd801;" width="36.096" height="36.096"/>
	<rect x="159.334" y="182.912" style="fill:#ffd801;" width="36.096" height="36.122"/>
	<rect x="159.334" y="237.978" style="fill:#ffd801;" width="36.096" height="36.096"/>
	<rect x="214.4" y="127.841" style="fill:#ffd801;" width="36.096" height="36.096"/>
	<rect x="214.4" y="182.912" style="fill:#ffd801;" width="36.096" height="36.122"/>
	<rect x="214.4" y="237.978" style="fill:#ffd801;" width="36.096" height="36.096"/>
	<rect x="269.491" y="127.841" style="fill:#ffd801;" width="36.096" height="36.096"/>
	<rect x="269.491" y="182.912" style="fill:#ffd801;" width="36.096" height="36.122"/>
	<rect x="324.557" y="127.841" style="fill:#ffd801;" width="36.122" height="36.096"/>
	<rect x="324.557" y="182.912" style="fill:#ffd801;" width="36.122" height="36.122"/>
</g>
<g>
	<rect x="288.435" y="329.293" style="fill:#242D3C;" width="18.964" height="18.962"/>
	<rect x="250.496" y="329.293" style="fill:#242D3C;" width="18.962" height="18.962"/>
	<rect x="212.582" y="329.293" style="fill:#242D3C;" width="18.964" height="18.962"/>
</g>
<rect x="76.188" y="376.704" style="fill:#005792;" width="375.194" height="41.667"/>
<g>
	<path style="fill:#242D3C;" d="M460.854,427.848H56.356L9.482,397.532l46.874-30.315h404.498V427.848z M61.955,408.886h379.935
		v-22.702H61.955l-17.554,11.351L61.955,408.886z"/>
	<path style="fill:#242D3C;" d="M472.207,427.848h-30.318v-60.631h30.318c8.092,0,15.703,3.151,21.432,8.881
		c5.727,5.724,8.878,13.335,8.878,21.435s-3.149,15.713-8.873,21.435C487.908,424.696,480.292,427.848,472.207,427.848z
		 M460.854,408.886h11.356c3.031,0,5.883-1.185,8.033-3.333c2.138-2.135,3.315-4.984,3.315-8.02c0-3.034-1.178-5.885-3.318-8.026
		c-2.148-2.145-5-3.325-8.031-3.325h-11.356V408.886z"/>
	<rect x="18.022" y="188.544" style="fill:#242D3C;" width="38.843" height="18.962"/>
	<rect x="56.858" y="258.074" style="fill:#242D3C;" width="41.779" height="18.964"/>
	<rect x="56.858" y="292.813" style="fill:#242D3C;" width="41.779" height="18.964"/>
	<rect x="18.022" y="223.283" style="fill:#242D3C;" width="80.622" height="18.964"/>
	<rect x="56.858" y="118.989" style="fill:#242D3C;" width="41.779" height="18.962"/>
	<rect x="56.858" y="153.754" style="fill:#242D3C;" width="41.779" height="18.964"/>
	<rect x="18.022" y="84.227" style="fill:#242D3C;" width="80.622" height="18.962"/>
	<rect x="463.104" y="188.518" style="fill:#242D3C;" width="38.845" height="18.962"/>
	<rect x="421.35" y="118.963" style="fill:#242D3C;" width="41.777" height="18.964"/>
	<rect x="421.35" y="84.227" style="fill:#242D3C;" width="41.777" height="18.962"/>
	<rect x="421.35" y="153.754" style="fill:#242D3C;" width="80.622" height="18.964"/>
	<rect x="421.35" y="258.048" style="fill:#242D3C;" width="41.777" height="18.962"/>
	<rect x="421.35" y="223.283" style="fill:#242D3C;" width="41.777" height="18.964"/>
	<rect x="421.35" y="292.813" style="fill:#242D3C;" width="80.622" height="18.964"/>
</g>
<g>
</g>
<g>
</g>
<g>
</g>
<g>
</g>
<g>
</g>
<g>
</g>
<g>
</g>
<g>
</g>
<g>
</g>
<g>
</g>
<g>
</g>
<g>
</g>
<g>
</g>
<g>
</g>
<g>
</g>
</svg>
