<?xml version="1.0" encoding="iso-8859-1"?>
<!-- Generator: Adobe Illustrator 19.0.0, SVG Export Plug-In . SVG Version: 6.00 Build 0)  -->
<svg version="1.1" id="Layer_1" xmlns="http://www.w3.org/2000/svg" xmlns:xlink="http://www.w3.org/1999/xlink" x="0px" y="0px"
	 viewBox="0 0 512 512" style="enable-background:new 0 0 512 512;" xml:space="preserve">
<g>
	<path style="fill:#242D3C;" d="M512,470.289H0V103.251h512V470.289z M19.692,450.597h472.614V122.943H19.692V450.597z"/>
	<path style="fill:#242D3C;" d="M512,122.943H0V41.711h512V122.943z M19.692,103.251h472.614V61.405H19.692V103.251z"/>
</g>
<path style="fill:#ffd801;" d="M42.668,145.916v281.707h426.668V145.916H42.668z M256,397.372
	c-31.962-18.493-53.478-53.033-53.478-92.616c0-28.278,11.021-53.947,28.946-73.068c-4.275-5.366-6.853-12.15-6.853-19.551
	c0-17.331,14.054-31.386,31.386-31.386c17.331,0,31.386,14.054,31.386,31.386c0,7.401-2.578,14.185-6.858,19.551
	c17.928,19.118,28.954,44.79,28.954,73.068C309.481,344.339,287.962,378.879,256,397.372z"/>
<g>
	<rect x="121.446" y="72.483" style="fill:#242D3C;" width="19.692" height="19.692"/>
	<rect x="82.048" y="72.483" style="fill:#242D3C;" width="19.692" height="19.692"/>
	<rect x="42.668" y="72.483" style="fill:#242D3C;" width="19.692" height="19.692"/>
	<path style="fill:#242D3C;" d="M256,408.746l-4.931-2.852c-36.019-20.844-58.391-59.597-58.391-101.138
		c0-29.724,11.226-58.063,31.616-79.8l14.362,13.468c-16.95,18.079-26.286,41.633-26.286,66.332
		c0,32.599,16.579,63.137,43.63,81.037c27.054-17.9,43.635-48.438,43.635-81.037c0-24.694-9.334-48.256-26.291-66.332l14.362-13.468
		c20.393,21.742,31.621,50.084,31.621,79.8c0,41.539-22.372,80.289-58.399,101.138L256,408.746z"/>
	<path style="fill:#242D3C;" d="M256,253.37c-22.735,0-41.231-18.491-41.231-41.229c0-22.73,18.496-41.231,41.231-41.231
		c22.735,0,41.229,18.501,41.229,41.231C297.229,234.879,278.735,253.37,256,253.37z M256,190.601
		c-11.878,0-21.54,9.661-21.54,21.54c0,11.876,9.661,21.54,21.54,21.54c11.878,0,21.537-9.661,21.537-21.54
		S267.878,190.601,256,190.601z"/>
	<rect x="309.478" y="294.913" style="fill:#242D3C;" width="31.386" height="19.692"/>
	<rect x="171.139" y="294.913" style="fill:#242D3C;" width="31.383" height="19.692"/>
	<polygon style="fill:#242D3C;" points="341.788,259.657 294.28,259.657 294.28,239.963 322.094,239.963 322.094,212.141 
		341.788,212.141 	"/>
	<polygon style="fill:#242D3C;" points="341.788,397.372 322.094,397.372 322.094,369.555 294.28,369.555 294.28,349.864 
		341.788,349.864 	"/>
	<polygon style="fill:#242D3C;" points="217.715,259.657 170.207,259.657 170.207,212.141 189.901,212.141 189.901,239.963 
		217.715,239.963 	"/>
	<polygon style="fill:#242D3C;" points="189.901,397.372 170.207,397.372 170.207,349.864 217.715,349.864 217.715,369.555 
		189.901,369.555 	"/>
	<rect x="246.144" y="268.622" style="fill:#242D3C;" width="19.692" height="128.742"/>
	<rect x="62.362" y="279.22" style="fill:#242D3C;" width="37.955" height="19.692"/>
	<rect x="100.326" y="351.438" style="fill:#242D3C;" width="40.817" height="19.692"/>
	<rect x="100.326" y="387.534" style="fill:#242D3C;" width="40.817" height="19.692"/>
	<rect x="62.362" y="315.316" style="fill:#242D3C;" width="78.771" height="19.692"/>
	<rect x="100.326" y="207.028" style="fill:#242D3C;" width="40.817" height="19.692"/>
	<rect x="100.326" y="243.124" style="fill:#242D3C;" width="40.817" height="19.692"/>
	<rect x="62.362" y="170.909" style="fill:#242D3C;" width="78.771" height="19.692"/>
	<rect x="411.699" y="279.195" style="fill:#242D3C;" width="37.949" height="19.692"/>
	<rect x="370.867" y="207.003" style="fill:#242D3C;" width="40.819" height="19.692"/>
	<rect x="370.867" y="170.909" style="fill:#242D3C;" width="40.819" height="19.692"/>
	<rect x="370.867" y="243.124" style="fill:#242D3C;" width="78.771" height="19.692"/>
	<rect x="370.867" y="351.413" style="fill:#242D3C;" width="40.819" height="19.692"/>
	<rect x="370.867" y="315.316" style="fill:#242D3C;" width="40.819" height="19.692"/>
	<rect x="370.867" y="387.534" style="fill:#242D3C;" width="78.771" height="19.692"/>
</g>
<g>
</g>
<g>
</g>
<g>
</g>
<g>
</g>
<g>
</g>
<g>
</g>
<g>
</g>
<g>
</g>
<g>
</g>
<g>
</g>
<g>
</g>
<g>
</g>
<g>
</g>
<g>
</g>
<g>
</g>
</svg>
