<?xml version="1.0" encoding="iso-8859-1"?>
<!-- Generator: Adobe Illustrator 19.0.0, SVG Export Plug-In . SVG Version: 6.00 Build 0)  -->
<svg version="1.1" id="Layer_1" xmlns="http://www.w3.org/2000/svg" xmlns:xlink="http://www.w3.org/1999/xlink" x="0px" y="0px"
	 viewBox="0 0 512 512" style="enable-background:new 0 0 512 512;" xml:space="preserve">
<path style="fill:#ffd801;" d="M42.668,110.158v303.59h172.308v-48.904c-40.863-16.307-69.747-56.212-69.747-102.897
	c0-61.179,49.585-110.769,110.769-110.769c61.176,0,110.771,49.587,110.771,110.769c0,46.684-28.884,86.589-69.742,102.897v48.904
	h172.308v-303.59H42.668z"/>
<g>
	<polygon style="fill:#242D3C;" points="512,456.411 276.513,456.411 276.513,436.719 492.308,436.719 492.308,87.182 
		19.692,87.182 19.692,436.719 235.484,436.719 235.484,456.411 0,456.411 0,67.488 512,67.488 	"/>
	<path style="fill:#242D3C;" d="M512,87.182H0V5.951h512V87.182z M19.692,67.488h472.614V25.642H19.692V67.488z"/>
	<rect x="121.446" y="36.719" style="fill:#242D3C;" width="19.692" height="19.692"/>
	<rect x="82.048" y="36.719" style="fill:#242D3C;" width="19.692" height="19.692"/>
	<rect x="42.668" y="36.719" style="fill:#242D3C;" width="19.692" height="19.692"/>
	<path style="fill:#242D3C;" d="M256,382.565c-66.506,0-120.614-54.108-120.614-120.617c0-66.506,54.108-120.614,120.614-120.614
		s120.614,54.108,120.614,120.614C376.614,328.459,322.506,382.565,256,382.565z M256,161.025
		c-55.649,0-100.923,45.274-100.923,100.923S200.351,362.874,256,362.874s100.923-45.276,100.923-100.925
		S311.649,161.025,256,161.025z"/>
	<polygon style="fill:#242D3C;" points="306.872,413.748 205.13,413.748 205.13,364.31 224.822,364.31 224.822,394.059 
		287.181,394.059 287.181,364.31 306.872,364.31 	"/>
	<rect x="266.675" y="403.895" style="fill:#242D3C;" width="19.692" height="102.154"/>
	<rect x="225.638" y="403.895" style="fill:#242D3C;" width="19.692" height="102.154"/>
	<polygon style="fill:#242D3C;" points="218.015,300.911 179.062,261.958 218.015,222.995 231.944,236.919 206.907,261.958 
		231.939,286.99 	"/>
	<polygon style="fill:#242D3C;" points="293.985,300.904 280.061,286.982 305.093,261.958 280.061,236.927 293.985,223.003 
		332.938,261.958 	"/>
	
		<rect x="246.174" y="206.73" transform="matrix(-0.9848 -0.1738 0.1738 -0.9848 462.6155 564.4343)" style="fill:#242D3C;" width="19.692" height="110.466"/>
</g>
<g>
	<rect x="79.181" y="212.714" style="fill:#FFFFFF;" width="19.692" height="19.692"/>
	<rect x="79.181" y="252.113" style="fill:#FFFFFF;" width="19.692" height="19.692"/>
	<rect x="79.181" y="291.485" style="fill:#FFFFFF;" width="19.692" height="19.692"/>
	<rect x="413.133" y="212.714" style="fill:#FFFFFF;" width="19.692" height="19.692"/>
	<rect x="413.133" y="252.113" style="fill:#FFFFFF;" width="19.692" height="19.692"/>
	<rect x="413.133" y="291.485" style="fill:#FFFFFF;" width="19.692" height="19.692"/>
</g>
<g>
</g>
<g>
</g>
<g>
</g>
<g>
</g>
<g>
</g>
<g>
</g>
<g>
</g>
<g>
</g>
<g>
</g>
<g>
</g>
<g>
</g>
<g>
</g>
<g>
</g>
<g>
</g>
<g>
</g>
</svg>
