<?xml version="1.0" encoding="iso-8859-1"?>
<!-- Generator: Adobe Illustrator 19.0.0, SVG Export Plug-In . SVG Version: 6.00 Build 0)  -->
<svg version="1.1" id="Layer_1" xmlns="http://www.w3.org/2000/svg" xmlns:xlink="http://www.w3.org/1999/xlink" x="0px" y="0px"
	 viewBox="0 0 512 512" style="enable-background:new 0 0 512 512;" xml:space="preserve">
<path style="fill:#ffd801;" d="M385.946,256c0,71.762-58.176,129.935-129.938,129.935S126.062,327.762,126.062,256
	s58.184-129.951,129.946-129.951S385.946,184.238,385.946,256z"/>
<path style="fill:#242D3C;" d="M282.752,512h-53.391l-11.059-54.945c-10.184-1.905-20.283-4.621-30.175-8.11l-36.913,42.045
	l-46.246-26.65l17.935-53.102c-7.918-6.792-15.332-14.205-22.144-22.149L47.7,406.996l-26.621-46.118l41.946-37.038
	c-3.479-9.866-6.19-19.945-8.102-30.095L0.146,282.78l-0.1-53.545l54.876-11.044c1.905-10.14,4.616-20.209,8.092-30.062
	l-41.935-37.115L47.7,105.001l53.046,17.838c6.802-7.921,14.216-15.34,22.147-22.149l-17.928-53.138l46.244-26.601l36.946,42.017
	c9.887-3.487,19.981-6.203,30.152-8.108L229.361,0h53.391l11.046,54.884c10.145,1.902,20.221,4.613,30.1,8.095l36.933-42.028
	l46.254,26.601l-17.92,53.092c7.964,6.82,15.406,14.246,22.216,22.177l53.02-17.818l26.604,46.019l-41.853,37.018
	c3.489,9.894,6.213,20.012,8.136,30.2l54.666,10.993v53.548l-54.669,10.921c-1.92,10.189-4.644,20.311-8.148,30.226L491,360.878
	l-26.596,46.118l-53.025-17.882c-6.828,7.941-14.262,15.368-22.221,22.172l17.928,53.051l-46.167,26.657l-36.984-42.063
	c-9.882,3.484-19.968,6.2-30.129,8.108L282.752,512z M245.478,492.314h21.153l10.568-52.559l6.817-1.029
	c13.276-2.007,26.478-5.553,39.253-10.55l6.423-2.511l35.359,40.21l18.22-10.519l-17.139-50.721l5.394-4.308
	c10.655-8.504,20.385-18.217,28.918-28.856l4.303-5.371l50.662,17.085l10.499-18.194l-40.026-35.323l2.506-6.415
	c5.005-12.813,8.576-26.056,10.601-39.357l1.039-6.817l52.237-10.437v-21.279l-52.237-10.506l-1.039-6.804
	c-2.03-13.317-5.591-26.55-10.583-39.332l-2.504-6.4l40-35.379l-10.491-18.145l-50.67,17.039l-4.303-5.366
	c-8.509-10.619-18.235-20.334-28.91-28.861l-5.386-4.308l17.124-50.726l-18.286-10.514l-35.313,40.192l-6.426-2.506
	c-12.782-4.992-25.987-8.535-39.242-10.547l-6.812-1.034l-10.56-52.465h-21.148l-10.57,52.449l-6.815,1.029
	c-13.284,2.007-26.499,5.56-39.276,10.552l-6.426,2.511l-35.328-40.184l-18.281,10.516l17.121,50.76l-5.368,4.303
	c-10.632,8.525-20.339,18.235-28.844,28.854l-4.303,5.368l-50.708-17.057l-10.501,18.15l40.079,35.471l-2.504,6.4
	c-4.974,12.744-8.522,25.925-10.532,39.181l-1.032,6.805l-52.426,10.547l0.038,21.281l52.388,10.493l1.034,6.82
	c2.01,13.261,5.563,26.458,10.547,39.219l2.506,6.41l-40.097,35.402l10.506,18.199l50.701-17.111l4.308,5.376
	c8.535,10.655,18.24,20.36,28.849,28.849l5.381,4.308l-17.139,50.742l18.276,10.532l35.297-40.207l6.431,2.519
	c12.774,4.997,25.994,8.553,39.296,10.555l6.822,1.027L245.478,492.314z"/>
<g>
	<polygon style="fill:#FFFFFF;" points="210.872,302.339 164.534,256.008 210.872,209.664 224.791,223.583 192.374,256.003 
		224.791,288.412 	"/>
	<polygon style="fill:#FFFFFF;" points="301.146,302.339 287.224,288.412 319.636,256.008 287.224,223.588 301.146,209.667 
		347.484,256.008 	"/>
	
		<rect x="246.187" y="188.028" transform="matrix(-0.9848 -0.1738 0.1738 -0.9848 463.6732 552.5956)" style="fill:#FFFFFF;" width="19.687" height="135.939"/>
</g>
<g>
	<rect x="246.17" y="88.65" style="fill:#242D3C;" width="19.689" height="19.689"/>
	<rect x="246.17" y="403.661" style="fill:#242D3C;" width="19.689" height="19.689"/>
	<rect x="88.658" y="246.17" style="fill:#242D3C;" width="19.686" height="19.689"/>
	<rect x="403.661" y="246.17" style="fill:#242D3C;" width="19.686" height="19.689"/>
</g>
<g>
</g>
<g>
</g>
<g>
</g>
<g>
</g>
<g>
</g>
<g>
</g>
<g>
</g>
<g>
</g>
<g>
</g>
<g>
</g>
<g>
</g>
<g>
</g>
<g>
</g>
<g>
</g>
<g>
</g>
</svg>
