<?xml version="1.0" encoding="iso-8859-1"?>
<!-- Generator: Adobe Illustrator 19.0.0, SVG Export Plug-In . SVG Version: 6.00 Build 0)  -->
<svg version="1.1" id="Layer_1" xmlns="http://www.w3.org/2000/svg" xmlns:xlink="http://www.w3.org/1999/xlink" x="0px" y="0px"
	 viewBox="0 0 512 512" style="enable-background:new 0 0 512 512;" xml:space="preserve">
<path style="fill:#005792;" d="M255.999,171.492c-71.073,0-128.701,57.628-128.701,128.701c0,71.078,57.628,128.701,128.701,128.701
	S384.7,371.269,384.7,300.193C384.7,229.12,327.072,171.492,255.999,171.492z M255.999,355.443c-30.528,0-55.25-24.717-55.25-55.25
	c0-30.525,24.722-55.25,55.25-55.25s55.25,24.724,55.25,55.25C311.249,330.724,286.527,355.443,255.999,355.443z"/>
<g>
	<path style="fill:#242D3C;" d="M372.835,146.063c-33.846-25.664-74.248-39.232-116.836-39.232
		c-42.593,0-82.99,13.565-116.831,39.232l-11.128-14.674c37.066-28.116,81.316-42.975,127.959-42.975s90.893,14.858,127.964,42.975
		L372.835,146.063z"/>
	<path style="fill:#242D3C;" d="M255.999,512c-116.785,0-211.791-95.007-211.791-211.791c0-46.661,14.874-90.911,43.016-127.964
		l14.669,11.136c-25.69,33.825-39.268,74.225-39.268,116.828c0,106.627,86.751,193.375,193.377,193.375
		s193.375-86.748,193.375-193.375c0-42.604-13.578-83-39.268-116.828l14.666-11.136c28.145,37.053,43.018,81.303,43.018,127.964
		C467.79,416.993,372.783,512,255.999,512z"/>
	<path style="fill:#242D3C;" d="M255.999,475.151c-96.474,0-174.958-78.487-174.958-174.961
		c0-96.471,78.487-174.958,174.958-174.958s174.961,78.487,174.961,174.958C430.959,396.664,352.472,475.151,255.999,475.151z
		 M255.999,143.652c-86.318,0-156.541,70.223-156.541,156.541s70.223,156.541,156.541,156.541S412.54,386.509,412.54,300.193
		S342.317,143.652,255.999,143.652z"/>
</g>
<rect id="SVGCleanerId_0" x="390.015" y="120.111" transform="matrix(-0.7071 -0.7071 0.7071 -0.7071 570.5382 550.2184)" style="fill:#242D3C;" width="18.416" height="73.671"/>
<rect x="397.654" y="121.679" transform="matrix(-0.7071 -0.7071 0.7071 -0.7071 633.447 524.1563)" style="fill:#242D3C;" width="55.252" height="18.416"/>
<rect id="SVGCleanerId_1" x="75.913" y="147.739" transform="matrix(-0.7071 -0.7071 0.7071 -0.7071 81.4966 347.649)" style="fill:#242D3C;" width="73.671" height="18.414"/>
<g>
	
		<rect x="77.505" y="103.265" transform="matrix(-0.7071 -0.7071 0.7071 -0.7071 55.4733 284.7569)" style="fill:#242D3C;" width="18.414" height="55.249"/>
	<rect x="246.783" y="34.99" style="fill:#242D3C;" width="18.417" height="62.633"/>
	<path style="fill:#242D3C;" d="M296.516,69.983h-81.034c-9.347,0-18.132-3.635-24.745-10.245
		c-6.612-6.612-10.248-15.401-10.248-24.748c0-9.344,3.635-18.132,10.245-24.745C197.349,3.635,206.135,0,215.482,0h81.034
		c9.344,0,18.132,3.635,24.742,10.243c6.612,6.615,10.248,15.404,10.248,24.748c0,9.347-3.635,18.132-10.243,24.745
		C314.648,66.348,305.862,69.983,296.516,69.983z M215.482,18.417c-4.429,0-8.589,1.723-11.725,4.856
		c-3.128,3.131-4.854,7.291-4.854,11.72s1.723,8.589,4.856,11.725c3.131,3.128,7.291,4.854,11.72,4.854h81.034
		c4.426,0,8.589-1.723,11.722-4.856c3.131-3.131,4.854-7.291,4.854-11.72c0-4.426-1.723-8.589-4.856-11.722
		c-3.128-3.128-7.291-4.854-11.717-4.854h-81.034V18.417z"/>
</g>
<g>
	
		<rect id="SVGCleanerId_0_1_" x="390.015" y="120.111" transform="matrix(-0.7071 -0.7071 0.7071 -0.7071 570.5382 550.2184)" style="fill:#242D3C;" width="18.416" height="73.671"/>
</g>
<g>
	
		<rect id="SVGCleanerId_1_1_" x="75.913" y="147.739" transform="matrix(-0.7071 -0.7071 0.7071 -0.7071 81.4966 347.649)" style="fill:#242D3C;" width="73.671" height="18.414"/>
</g>
<g>
	<path style="fill:#242D3C;" d="M255.999,331.502c-17.262,0-31.309-14.047-31.309-31.309c0-17.262,14.047-31.306,31.309-31.306
		s31.306,14.044,31.306,31.306S273.261,331.502,255.999,331.502z M255.999,287.304c-7.107,0-12.892,5.783-12.892,12.89
		s5.783,12.892,12.892,12.892c7.109,0,12.892-5.786,12.892-12.892S263.105,287.304,255.999,287.304z"/>
	<rect x="278.092" y="290.995" style="fill:#242D3C;" width="77.133" height="18.417"/>
	<rect x="246.783" y="162.278" style="fill:#242D3C;" width="18.417" height="18.417"/>
	
		<rect x="286.583" y="168.567" transform="matrix(-0.9511 -0.3089 0.3089 -0.9511 522.2057 438.2262)" style="fill:#242D3C;" width="18.419" height="18.417"/>
	
		<rect x="322.443" y="186.873" transform="matrix(-0.809 -0.5879 0.5879 -0.809 484.6751 549.6673)" style="fill:#242D3C;" width="18.418" height="18.413"/>
	
		<rect x="350.931" y="215.336" transform="matrix(-0.5879 -0.8089 0.8089 -0.5879 390.2317 647.881)" style="fill:#242D3C;" width="18.416" height="18.416"/>
	
		<rect x="369.177" y="251.226" transform="matrix(-0.3089 -0.9511 0.9511 -0.3089 247.5703 700.7661)" style="fill:#242D3C;" width="18.419" height="18.419"/>
	<rect x="375.5" y="290.995" style="fill:#242D3C;" width="18.417" height="18.414"/>
</g>
<g>
</g>
<g>
</g>
<g>
</g>
<g>
</g>
<g>
</g>
<g>
</g>
<g>
</g>
<g>
</g>
<g>
</g>
<g>
</g>
<g>
</g>
<g>
</g>
<g>
</g>
<g>
</g>
<g>
</g>
</svg>
