<?xml version="1.0" encoding="iso-8859-1"?>
<!-- Generator: Adobe Illustrator 19.0.0, SVG Export Plug-In . SVG Version: 6.00 Build 0)  -->
<svg version="1.1" id="Layer_1" xmlns="http://www.w3.org/2000/svg" xmlns:xlink="http://www.w3.org/1999/xlink" x="0px" y="0px"
	 viewBox="0 0 512 512" style="enable-background:new 0 0 512 512;" xml:space="preserve">
<g>
	<path style="fill:#242D3C;" d="M17.841,142.717H0V53.519h38.651c7.15,0,13.87,2.783,18.929,7.841
		c5.053,5.064,7.834,11.781,7.834,18.921c0,7.142-2.78,13.86-7.826,18.916c-5.066,5.064-11.786,7.844-18.934,7.844H17.841V142.717z
		 M17.841,89.198h20.81c2.388,0,4.631-0.927,6.318-2.614c1.677-1.679,2.604-3.922,2.604-6.305s-0.927-4.623-2.614-6.313
		c-1.679-1.679-3.919-2.606-6.308-2.606h-20.81V89.198z"/>
	<path style="fill:#242D3C;" d="M184.346,142.717h-17.841V53.519h38.656c7.148,0,13.865,2.783,18.921,7.841
		c5.056,5.056,7.841,11.773,7.841,18.921c0,7.15-2.783,13.868-7.841,18.924c-5.059,5.056-11.779,7.836-18.921,7.836h-20.815V142.717
		z M184.346,89.198h20.815c2.381,0,4.623-0.927,6.31-2.614c1.684-1.682,2.611-3.922,2.611-6.305c0-2.381-0.927-4.621-2.614-6.305
		c-1.687-1.687-3.927-2.614-6.308-2.614h-20.815V89.198z"/>
	<rect x="83.251" y="53.519" style="fill:#242D3C;" width="17.838" height="89.198"/>
	<rect x="130.816" y="53.519" style="fill:#242D3C;" width="17.838" height="89.198"/>
	<rect x="83.251" y="89.198" style="fill:#242D3C;" width="65.413" height="17.841"/>
</g>
<path style="fill:#005792;" d="M387.123,53.519c-68.979,0-124.877,55.898-124.877,124.879c0,26.545,8.302,51.128,22.413,71.36
	h161.933v38.482C485.55,267.1,512,225.843,512,178.399C512,109.417,456.097,53.519,387.123,53.519z"/>
<g>
	<path style="fill:#242D3C;" d="M339.551,222.996h-11.896c-7.148,0-13.865-2.783-18.921-7.841
		c-5.059-5.056-7.841-11.773-7.841-18.918v-35.679c0-7.148,2.783-13.865,7.841-18.921c5.056-5.056,11.773-7.841,18.921-7.841h11.896
		c7.148,0,13.865,2.783,18.921,7.841c5.056,5.059,7.841,11.773,7.841,18.921v8.919h-17.841v-8.919c0-2.381-0.927-4.621-2.614-6.305
		c-1.687-1.687-3.927-2.614-6.308-2.614h-11.896c-2.381,0-4.621,0.927-6.308,2.614c-1.687,1.687-2.614,3.927-2.614,6.305v35.681
		c0,2.378,0.924,4.621,2.614,6.305c1.69,1.684,3.927,2.614,6.308,2.614h11.896c2.381,0,4.621-0.927,6.308-2.614
		c1.685-1.687,2.614-3.927,2.614-6.305v-8.919h17.841v8.919c0,7.148-2.785,13.865-7.841,18.918
		C353.416,220.214,346.698,222.996,339.551,222.996z"/>
	<rect x="401.997" y="133.811" style="fill:#242D3C;" width="17.841" height="89.198"/>
	<rect x="437.683" y="133.811" style="fill:#242D3C;" width="17.838" height="89.198"/>
	<rect x="384.154" y="187.315" style="fill:#242D3C;" width="89.198" height="17.838"/>
	<rect x="384.154" y="151.629" style="fill:#242D3C;" width="89.198" height="17.841"/>
	<path style="fill:#242D3C;" d="M455.508,458.481H0V240.837h455.508V458.481z M17.841,440.64h419.83V258.675H17.841V440.64z"/>
</g>
<rect x="37.463" y="278.298" style="fill:#ffd801;" width="380.57" height="142.717"/>
<g>
	<path style="fill:#FFFFFF;" d="M391.286,394.258H352.63c-7.15,0-13.87-2.783-18.924-7.841c-5.053-5.053-7.839-11.771-7.839-18.918
		V305.06h17.841v62.438c0,2.381,0.927,4.621,2.614,6.308c1.684,1.687,3.922,2.614,6.305,2.614h38.656v17.838H391.286z"/>
	<path style="fill:#FFFFFF;" d="M308.032,394.258h-17.841v-55.636l-13.955,16.75c-3.395,4.063-10.314,4.07-13.706,0l-13.962-16.758
		v55.644H230.73v-80.276c0-3.758,2.35-7.109,5.88-8.387c3.543-1.275,7.488-0.202,9.892,2.675l22.881,27.459l22.876-27.459
		c2.404-2.88,6.351-3.955,9.889-2.675c3.533,1.277,5.885,4.631,5.885,8.387v80.277H308.032z"/>
	<rect x="171.264" y="305.05" style="fill:#FFFFFF;" width="17.841" height="89.198"/>
	<rect x="147.482" y="305.05" style="fill:#FFFFFF;" width="65.411" height="17.841"/>
	<rect x="64.23" y="305.05" style="fill:#FFFFFF;" width="17.841" height="89.198"/>
	<rect x="111.798" y="305.05" style="fill:#FFFFFF;" width="17.841" height="89.198"/>
	<rect x="64.23" y="340.736" style="fill:#FFFFFF;" width="65.416" height="17.841"/>
</g>
<g>
	<rect x="71.36" y="182.861" style="fill:#242D3C;" width="17.841" height="17.838"/>
	<rect x="35.681" y="182.861" style="fill:#242D3C;" width="17.838" height="17.838"/>
	<rect y="182.861" style="fill:#242D3C;" width="17.841" height="17.838"/>
</g>
<g>
</g>
<g>
</g>
<g>
</g>
<g>
</g>
<g>
</g>
<g>
</g>
<g>
</g>
<g>
</g>
<g>
</g>
<g>
</g>
<g>
</g>
<g>
</g>
<g>
</g>
<g>
</g>
<g>
</g>
</svg>
