<?xml version="1.0" encoding="iso-8859-1"?>
<!-- Generator: Adobe Illustrator 19.0.0, SVG Export Plug-In . SVG Version: 6.00 Build 0)  -->
<svg version="1.1" id="Layer_1" xmlns="http://www.w3.org/2000/svg" xmlns:xlink="http://www.w3.org/1999/xlink" x="0px" y="0px"
	 viewBox="0 0 512 512" style="enable-background:new 0 0 512 512;" xml:space="preserve">
<g>
	<polygon style="fill:#242D3C;" points="386.844,512 9.482,512 9.482,59.259 386.844,59.259 386.844,78.223 28.444,78.223 
		28.444,493.038 386.844,493.038 	"/>
	<polygon style="fill:#242D3C;" points="386.844,78.223 9.482,78.223 9.482,0 386.844,0 386.844,18.962 28.444,18.962 
		28.444,59.259 386.844,59.259 	"/>
</g>
<rect x="50.57" y="100.352" style="fill:#ffd801;" width="336.282" height="370.56"/>
<g>
	<rect x="126.413" y="29.629" style="fill:#242D3C;" width="18.962" height="18.962"/>
	<rect x="88.497" y="29.629" style="fill:#242D3C;" width="18.962" height="18.962"/>
	<rect x="50.57" y="29.629" style="fill:#242D3C;" width="18.964" height="18.962"/>
</g>
<rect x="93.635" y="143.411" style="fill:#FFFFFF;" width="56.883" height="56.883"/>
<g>
	<rect x="112.596" y="162.381" style="fill:#242D3C;" width="18.962" height="18.964"/>
	<rect x="169.472" y="143.411" style="fill:#242D3C;" width="174.285" height="18.962"/>
	<rect x="169.472" y="181.332" style="fill:#242D3C;" width="87.142" height="18.962"/>
</g>
<rect x="93.635" y="219.264" style="fill:#FFFFFF;" width="56.883" height="56.883"/>
<g>
	<rect x="112.596" y="238.234" style="fill:#242D3C;" width="18.962" height="18.962"/>
	<rect x="169.472" y="219.264" style="fill:#242D3C;" width="174.285" height="18.964"/>
	<rect x="169.472" y="257.178" style="fill:#242D3C;" width="87.142" height="18.962"/>
</g>
<rect x="93.635" y="295.117" style="fill:#FFFFFF;" width="56.883" height="56.883"/>
<g>
	<rect x="169.472" y="295.117" style="fill:#242D3C;" width="174.285" height="18.964"/>
	<rect x="169.472" y="333.03" style="fill:#242D3C;" width="87.142" height="18.962"/>
</g>
<rect x="93.635" y="370.97" style="fill:#FFFFFF;" width="56.883" height="56.883"/>
<g>
	<rect x="169.472" y="370.97" style="fill:#242D3C;" width="174.285" height="18.962"/>
	<rect x="169.472" y="408.883" style="fill:#242D3C;" width="87.142" height="18.962"/>
</g>
<polygon style="fill:#005792;" points="493.038,433.152 458.903,399.014 424.771,433.152 424.771,68.741 493.038,68.741 "/>
<g>
	<rect x="449.434" y="68.741" style="fill:#242D3C;" width="18.962" height="330.266"/>
	<polygon style="fill:#242D3C;" points="458.903,512 415.291,435.671 415.291,68.741 434.253,68.741 434.253,430.633 
		458.903,473.777 483.556,430.633 483.556,68.741 502.518,68.741 502.518,435.671 	"/>
	<polygon style="fill:#242D3C;" points="486.333,439.854 458.903,412.426 431.475,439.854 418.068,426.447 458.903,385.603 
		499.74,426.447 	"/>
	<path style="fill:#242D3C;" d="M502.518,78.223h-87.227V26.552c0-7.089,2.757-13.755,7.772-18.772
		C428.086,2.76,434.752,0,441.838,0h34.138c7.089,0,13.755,2.76,18.765,7.775c5.02,5.023,7.777,11.689,7.777,18.778V78.223z
		 M434.253,59.259h49.303V26.552c0-2.025-0.794-3.937-2.225-5.373c-1.431-1.426-3.331-2.214-5.356-2.214h-34.138
		c-2.028,0-3.93,0.788-5.368,2.222c-1.426,1.431-2.217,3.341-2.217,5.366V59.259z"/>
</g>
<g>
</g>
<g>
</g>
<g>
</g>
<g>
</g>
<g>
</g>
<g>
</g>
<g>
</g>
<g>
</g>
<g>
</g>
<g>
</g>
<g>
</g>
<g>
</g>
<g>
</g>
<g>
</g>
<g>
</g>
</svg>
