<?xml version="1.0" encoding="iso-8859-1"?>
<!-- Generator: Adobe Illustrator 19.0.0, SVG Export Plug-In . SVG Version: 6.00 Build 0)  -->
<svg version="1.1" id="Layer_1" xmlns="http://www.w3.org/2000/svg" xmlns:xlink="http://www.w3.org/1999/xlink" x="0px" y="0px"
	 viewBox="0 0 512 512" style="enable-background:new 0 0 512 512;" xml:space="preserve">
<path style="fill:#242D3C;" d="M428.756,190.627h-17.654v-16.061l-35.988-5.527l-1.032-6.328
	c-1.283-7.841-3.338-15.532-6.111-22.866l-2.271-5.996l28.39-22.771l-7.534-13.059l-33.923,13.207l-4.06-4.948
	c-5.033-6.134-10.668-11.768-16.747-16.745l-4.959-4.058l13.21-33.925l-13.064-7.537L304.266,72.39l-5.996-2.26
	c-7.378-2.775-15.076-4.836-22.881-6.118l-6.323-1.034l-5.524-35.986h-15.084l-5.524,35.986l-6.323,1.034
	c-7.818,1.283-15.519,3.346-22.876,6.118l-5.996,2.26l-22.758-28.378l-13.059,7.537l13.215,33.925l-4.964,4.06
	c-6.07,4.961-11.704,10.598-16.75,16.745l-4.058,4.946l-33.928-13.204l-7.526,13.056l28.385,22.766l-2.266,5.996
	c-2.775,7.345-4.828,15.035-6.103,22.863l-1.034,6.333l-35.986,5.527v16.061H83.254v-31.209l38.438-5.908
	c0.991-4.672,2.225-9.288,3.686-13.814l-30.328-24.32l22.671-39.301l36.268,14.113c3.2-3.548,6.577-6.927,10.104-10.107
	l-14.118-36.244l39.304-22.689l24.32,30.331c4.524-1.462,9.137-2.698,13.809-3.689l5.896-38.449h45.399l5.898,38.449
	c4.662,0.993,9.275,2.227,13.803,3.692l24.317-30.333l39.309,22.692l-14.116,36.244c3.528,3.182,6.904,6.559,10.099,10.104
	l36.267-14.111l22.671,39.301l-30.328,24.32c1.462,4.521,2.698,9.139,3.686,13.814l38.444,5.903v31.214H428.756z"/>
<path style="fill:#ffd801;" d="M256,88.646c-51.615,0-93.448,41.838-93.448,93.455v8.525h54.111v-8.525h0.005
	c0-21.724,17.608-39.332,39.332-39.332s39.329,17.605,39.329,39.332v8.525h54.118v-8.525C349.448,130.484,307.62,88.646,256,88.646z
	"/>
<g>
	<path style="fill:#242D3C;" d="M225.49,190.634l-17.654-0.013l0.005-8.525c0-26.545,21.604-48.151,48.159-48.151
		s48.159,21.606,48.159,48.159v8.525h-17.654v-8.525c0-16.822-13.683-30.505-30.502-30.505c-16.822,0-30.505,13.683-30.505,30.505
		L225.49,190.634z"/>
	<path style="fill:#242D3C;" d="M470.246,452.916h-17.654V204.32c0-1.293-0.509-2.514-1.436-3.453
		c-0.904-0.896-2.138-1.413-3.433-1.413H64.279c-1.293,0-2.501,0.504-3.402,1.413c-0.952,0.952-1.462,2.166-1.462,3.453v248.596
		H41.761V204.32c0-5.998,2.345-11.648,6.605-15.908c4.216-4.255,9.879-6.612,15.916-6.612h383.447c5.985,0,11.64,2.342,15.918,6.587
		c4.275,4.311,6.605,9.951,6.605,15.936v248.594H470.246z"/>
</g>
<rect x="83.546" y="223.564" style="fill:#005792;" width="344.934" height="220.826"/>
<path style="fill:#242D3C;" d="M482.703,502.662H29.289c-7.813,0-15.165-3.041-20.703-8.563C3.049,488.587,0,481.225,0,473.379
	V444.09h512v29.289c0,7.839-3.046,15.196-8.581,20.718C497.889,499.619,490.529,502.662,482.703,502.662z M17.654,461.743v11.635
	c0,3.118,1.203,6.036,3.395,8.212c2.207,2.204,5.133,3.415,8.241,3.415h453.412c3.118,0,6.049-1.211,8.251-3.407
	c2.186-2.186,3.392-5.102,3.392-8.22v-11.635H17.654z"/>
<g>
	<path style="fill:#FFFFFF;" d="M254.441,382.017h-17.654v-96.067h41.495c7.593,0,14.733,2.957,20.104,8.333
		c5.368,5.379,8.317,12.508,8.317,20.099c0,7.593-2.949,14.733-8.31,20.101c-5.386,5.381-12.523,8.333-20.109,8.333h-23.841v39.201
		H254.441z M254.441,325.157h23.841c2.875,0,5.583-1.121,7.626-3.156c2.02-2.028,3.139-4.736,3.139-7.619
		c0-2.88-1.119-5.583-3.149-7.619c-2.035-2.035-4.741-3.156-7.616-3.156h-23.841L254.441,325.157L254.441,325.157z"/>
	<path style="fill:#FFFFFF;" d="M217.841,382.017h-17.654v-67.635c0-2.872-1.121-5.581-3.159-7.619
		c-2.035-2.035-4.739-3.156-7.613-3.156h-13.079c-2.872,0-5.571,1.119-7.603,3.154c-2.04,2.045-3.167,4.746-3.167,7.621v67.635
		h-17.654v-67.635c0-7.59,2.959-14.728,8.33-20.099c5.358-5.376,12.495-8.333,20.093-8.333h13.079c7.593,0,14.73,2.957,20.104,8.333
		c5.373,5.381,8.323,12.516,8.323,20.099L217.841,382.017L217.841,382.017z"/>
	<rect x="147.909" y="325.17" style="fill:#FFFFFF;" width="69.932" height="17.656"/>
	<rect x="336" y="294.783" style="fill:#FFFFFF;" width="17.654" height="78.41"/>
	<rect x="325.53" y="285.951" style="fill:#FFFFFF;" width="38.554" height="17.654"/>
	<rect x="325.53" y="364.364" style="fill:#FFFFFF;" width="38.554" height="17.654"/>
</g>
<g>
	<rect x="387.302" y="325.17" style="fill:#242D3C;" width="17.654" height="17.656"/>
	<rect x="107.054" y="325.17" style="fill:#242D3C;" width="17.654" height="17.656"/>
</g>
<g>
</g>
<g>
</g>
<g>
</g>
<g>
</g>
<g>
</g>
<g>
</g>
<g>
</g>
<g>
</g>
<g>
</g>
<g>
</g>
<g>
</g>
<g>
</g>
<g>
</g>
<g>
</g>
<g>
</g>
</svg>
