<?xml version="1.0" encoding="iso-8859-1"?>
<!-- Generator: Adobe Illustrator 19.0.0, SVG Export Plug-In . SVG Version: 6.00 Build 0)  -->
<svg version="1.1" id="Layer_1" xmlns="http://www.w3.org/2000/svg" xmlns:xlink="http://www.w3.org/1999/xlink" x="0px" y="0px"
	 viewBox="0 0 512 512" style="enable-background:new 0 0 512 512;" xml:space="preserve">
<g>
	<path style="fill:#242D3C;" d="M512,470.289H0V103.251h512V470.289z M19.692,450.597h472.614V122.943H19.692V450.597z"/>
	<path style="fill:#242D3C;" d="M512,122.943H0V41.711h512V122.943z M19.692,103.251h472.614V61.405H19.692V103.251z"/>
</g>
<path style="fill:#005792;" d="M42.668,145.916v281.707h124.716V256.849H98.46V229.28c15.227,0,27.571-12.342,27.571-27.571h137.846
	v55.14h-57.108v170.775h131.94V300.678c-20.713-7.936-35.446-27.948-35.446-51.456c0-20.288,10.982-37.949,27.302-47.516h8.143
	v43.576h39.386v-43.574h8.143c16.32,9.564,27.302,27.228,27.302,47.516c0,23.508-14.73,43.52-35.446,51.456v126.945h91.243v-281.71
	H42.668z"/>
<g>
	<rect x="121.446" y="72.483" style="fill:#242D3C;" width="19.692" height="19.692"/>
	<rect x="82.048" y="72.483" style="fill:#242D3C;" width="19.692" height="19.692"/>
	<rect x="42.668" y="72.483" style="fill:#242D3C;" width="19.692" height="19.692"/>
</g>
<g>
	<rect x="263.885" y="309.48" style="fill:#FFFFFF;" width="19.692" height="19.692"/>
	<rect x="263.885" y="348.852" style="fill:#FFFFFF;" width="19.692" height="19.689"/>
	<rect x="263.885" y="388.251" style="fill:#FFFFFF;" width="19.692" height="19.692"/>
</g>
<g>
	<polygon style="fill:#242D3C;" points="216.614,460.443 196.923,460.443 196.923,266.694 177.231,266.694 177.231,460.443 
		157.54,460.443 157.54,247 216.614,247 	"/>
	<path style="fill:#242D3C;" d="M273.723,266.694H88.614v-47.263h9.846c9.774,0,17.723-7.949,17.723-17.723v-9.846H273.72v74.831
		H273.723z M108.308,247h145.723v-35.446h-119.47c-3.476,12.731-13.522,22.776-26.253,26.253V247z"/>
	<path style="fill:#242D3C;" d="M387.937,460.443h-19.692V293.905l6.326-2.424c17.418-6.666,29.123-23.652,29.123-42.258
		c0-13.199-5.885-25.715-15.754-34.237v40.146h-59.075v-40.143c-9.869,8.522-15.754,21.038-15.754,34.237
		c0,18.606,11.704,35.584,29.123,42.258l6.326,2.424v166.538h-19.692V307.053c-21.455-11.005-35.448-33.441-35.448-57.828
		c0-22.915,12.326-44.375,32.169-56.01l2.307-1.349h20.662v43.576h19.689v-43.579h20.662l2.307,1.349
		c19.843,11.635,32.169,33.096,32.169,56.01c0,24.384-13.993,46.822-35.448,57.828v153.393H387.937z"/>
</g>
<g>
</g>
<g>
</g>
<g>
</g>
<g>
</g>
<g>
</g>
<g>
</g>
<g>
</g>
<g>
</g>
<g>
</g>
<g>
</g>
<g>
</g>
<g>
</g>
<g>
</g>
<g>
</g>
<g>
</g>
</svg>
