<?xml version="1.0" encoding="iso-8859-1"?>
<!-- Generator: Adobe Illustrator 19.0.0, SVG Export Plug-In . SVG Version: 6.00 Build 0)  -->
<svg version="1.1" id="Layer_1" xmlns="http://www.w3.org/2000/svg" xmlns:xlink="http://www.w3.org/1999/xlink" x="0px" y="0px"
	 viewBox="0 0 512 512" style="enable-background:new 0 0 512 512;" xml:space="preserve">
<path style="fill:#005792;" d="M24.576,61.44v389.12h462.848V61.44H24.576z M258.048,169.984c13.568,0,24.579,11.008,24.579,24.576
	c0,13.576-11.011,24.576-24.579,24.576s-24.576-11-24.576-24.576C233.472,180.992,244.48,169.984,258.048,169.984z M126.295,231.424
	c13.568,0,24.576,11.008,24.576,24.576c0,13.576-11.008,24.576-24.576,24.576c-13.573,0-24.576-11-24.576-24.576
	C101.719,242.432,112.724,231.424,126.295,231.424z M275.456,317.44c0-13.568,11.005-24.576,24.579-24.576
	c13.573,0,24.576,11.008,24.576,24.576c0,13.576-11.003,24.576-24.576,24.576S275.456,331.016,275.456,317.44z M350.892,108.544
	c13.573,0,24.576,11.008,24.576,24.576c0,13.576-11.003,24.576-24.576,24.576s-24.579-11-24.579-24.576
	C326.316,119.552,337.321,108.544,350.892,108.544z M218.624,403.456c-13.571,0-24.576-11-24.576-24.576
	c0-13.568,11.005-24.576,24.576-24.576c13.573,0,24.576,11.008,24.576,24.576C243.2,392.456,232.197,403.456,218.624,403.456z"/>
<g>
	<rect x="65.536" y="122.88" style="fill:#242D3C;" width="260.787" height="20.48"/>
	<rect x="404.147" y="122.88" style="fill:#242D3C;" width="42.324" height="20.48"/>
	<path style="fill:#242D3C;" d="M350.892,167.936c-19.197,0-34.819-15.616-34.819-34.816s15.621-34.816,34.819-34.816
		c19.195,0,34.816,15.616,34.816,34.816S370.086,167.936,350.892,167.936z M350.892,118.784c-7.905,0-14.339,6.433-14.339,14.336
		s6.433,14.336,14.339,14.336c7.903,0,14.336-6.433,14.336-14.336S358.794,118.784,350.892,118.784z"/>
	<rect x="65.536" y="368.64" style="fill:#242D3C;" width="128.512" height="20.48"/>
	<rect x="271.872" y="368.64" style="fill:#242D3C;" width="174.592" height="20.48"/>
	<path style="fill:#242D3C;" d="M218.624,413.696c-19.2,0-34.816-15.616-34.816-34.816c0-19.2,15.616-34.816,34.816-34.816
		s34.816,15.616,34.816,34.816C253.44,398.08,237.824,413.696,218.624,413.696z M218.624,364.544
		c-7.903,0-14.336,6.431-14.336,14.336c0,7.905,6.433,14.336,14.336,14.336c7.903,0,14.336-6.431,14.336-14.336
		C232.96,370.975,226.527,364.544,218.624,364.544z"/>
	<rect x="65.536" y="184.32" style="fill:#242D3C;" width="167.936" height="20.48"/>
	<rect x="311.296" y="184.32" style="fill:#242D3C;" width="135.171" height="20.48"/>
	<path style="fill:#242D3C;" d="M258.048,229.376c-19.2,0-34.816-15.616-34.816-34.816s15.616-34.816,34.816-34.816
		c19.197,0,34.819,15.616,34.819,34.816S277.245,229.376,258.048,229.376z M258.048,180.224c-7.903,0-14.336,6.433-14.336,14.336
		s6.431,14.336,14.336,14.336s14.339-6.433,14.339-14.336S265.953,180.224,258.048,180.224z"/>
	<rect x="65.536" y="245.76" style="fill:#242D3C;" width="36.173" height="20.48"/>
	<rect x="179.533" y="245.76" style="fill:#242D3C;" width="266.931" height="20.48"/>
	<path style="fill:#242D3C;" d="M126.295,290.816c-19.2,0-34.816-15.616-34.816-34.816c0-19.2,15.616-34.816,34.816-34.816
		S161.111,236.8,161.111,256C161.111,275.2,145.495,290.816,126.295,290.816z M126.295,241.664c-7.903,0-14.336,6.433-14.336,14.336
		c0,7.905,6.433,14.336,14.336,14.336s14.336-6.431,14.336-14.336C140.634,248.097,134.2,241.664,126.295,241.664z"/>
	<rect x="65.536" y="307.2" style="fill:#242D3C;" width="209.92" height="20.48"/>
	<rect x="353.28" y="307.2" style="fill:#242D3C;" width="93.184" height="20.48"/>
	<path style="fill:#242D3C;" d="M300.032,352.256c-19.197,0-34.819-15.616-34.819-34.816s15.621-34.816,34.819-34.816
		c19.195,0,34.816,15.616,34.816,34.816S319.227,352.256,300.032,352.256z M300.032,303.104c-7.905,0-14.339,6.431-14.339,14.336
		s6.433,14.336,14.339,14.336c7.903,0,14.336-6.431,14.336-14.336S307.935,303.104,300.032,303.104z"/>
	<path style="fill:#242D3C;" d="M512,266.24c-9.306,0-18.048-3.625-24.62-10.199c-6.572-6.566-10.194-15.311-10.194-24.617V75.776
		c0-3.832-1.492-7.429-4.198-10.132c-2.714-2.716-6.313-4.204-10.14-4.204h-16.384V40.96h16.381c9.306,0,18.048,3.625,24.62,10.199
		c6.572,6.566,10.197,15.311,10.197,24.617v155.648c0,3.832,1.49,7.429,4.196,10.132c2.716,2.716,6.315,4.204,10.143,4.204V266.24z"
		/>
	<path style="fill:#242D3C;" d="M462.848,471.04h-16.384v-20.48h16.381c3.827,0,7.427-1.487,10.138-4.196
		c2.708-2.711,4.201-6.31,4.201-10.14V280.576c0-9.3,3.622-18.043,10.199-24.62C493.955,249.38,502.7,245.76,512,245.76v20.48
		c-3.827,0-7.427,1.487-10.135,4.196c-2.711,2.711-4.201,6.31-4.201,10.14v155.648c0,9.3-3.625,18.043-10.199,24.62
		C480.893,467.42,472.148,471.04,462.848,471.04z"/>
	<path style="fill:#242D3C;" d="M0,266.24v-20.48c3.832,0,7.427-1.487,10.132-4.201c2.716-2.706,4.204-6.303,4.204-10.135V75.776
		c0-9.303,3.625-18.048,10.199-24.62c6.569-6.572,15.311-10.196,24.617-10.196h16.384v20.48H49.152
		c-3.832,0-7.429,1.487-10.132,4.201c-2.716,2.706-4.204,6.303-4.204,10.135v155.648c0,9.303-3.625,18.048-10.199,24.62
		C18.048,262.615,9.303,266.24,0,266.24z"/>
	<path style="fill:#242D3C;" d="M65.536,471.04H49.152c-9.3,0-18.04-3.62-24.617-10.194c-6.574-6.579-10.199-15.322-10.199-24.622
		V280.576c0-3.83-1.492-7.429-4.201-10.14C7.427,267.727,3.832,266.24,0,266.24v-20.48c9.3,0,18.04,3.62,24.617,10.196
		c6.577,6.577,10.199,15.319,10.199,24.62v155.648c0,3.83,1.492,7.429,4.201,10.14c2.706,2.708,6.303,4.196,10.135,4.196h16.384
		V471.04z"/>
</g>
<g>
</g>
<g>
</g>
<g>
</g>
<g>
</g>
<g>
</g>
<g>
</g>
<g>
</g>
<g>
</g>
<g>
</g>
<g>
</g>
<g>
</g>
<g>
</g>
<g>
</g>
<g>
</g>
<g>
</g>
</svg>
