<?xml version="1.0" encoding="iso-8859-1"?>
<!-- Generator: Adobe Illustrator 19.0.0, SVG Export Plug-In . SVG Version: 6.00 Build 0)  -->
<svg version="1.1" id="Layer_1" xmlns="http://www.w3.org/2000/svg" xmlns:xlink="http://www.w3.org/1999/xlink" x="0px" y="0px"
	 viewBox="0 0 512 512" style="enable-background:new 0 0 512 512;" xml:space="preserve">
<g>
	<polygon style="fill:#005792;" points="223.086,401.283 33.679,401.283 33.679,82.23 0,82.23 0,434.964 223.086,434.964 	"/>
	<polygon style="fill:#005792;" points="478.323,82.23 478.323,401.283 288.914,401.283 288.914,434.964 512,434.964 512,82.23 	"/>
</g>
<g>
	<polygon style="fill:#242D3C;" points="487.465,410.424 314.514,410.424 314.514,392.141 469.176,392.141 469.176,68.662 
		314.514,68.662 314.514,50.376 487.465,50.376 	"/>
	<polygon style="fill:#242D3C;" points="197.486,410.424 24.535,410.424 24.535,50.376 197.486,50.376 197.486,68.662 
		42.821,68.662 42.821,392.141 197.486,392.141 	"/>
</g>
<polygon style="fill:#ffd801;" points="288.914,434.964 256,402.048 223.086,434.964 223.086,59.517 288.914,59.517 "/>
<g>
	<rect x="246.861" y="293.734" style="fill:#242D3C;" width="18.286" height="108.314"/>
	<rect x="246.861" y="59.52" style="fill:#242D3C;" width="18.286" height="107.118"/>
	<rect x="246.861" y="184.087" style="fill:#242D3C;" width="18.286" height="18.286"/>
	<rect x="246.861" y="220.646" style="fill:#242D3C;" width="18.286" height="18.286"/>
	<rect x="246.861" y="257.229" style="fill:#242D3C;" width="18.286" height="18.286"/>
	<polygon style="fill:#242D3C;" points="256,510.996 213.942,437.391 213.942,59.517 232.228,59.517 232.228,432.535 256,474.14 
		279.772,432.535 279.772,59.517 298.058,59.517 298.058,437.391 	"/>
	<polygon style="fill:#242D3C;" points="282.45,441.428 256,414.979 229.55,441.428 216.622,428.5 256,389.115 295.378,428.5 	"/>
	<path style="fill:#242D3C;" d="M298.058,68.662h-84.116V26.609c0-6.835,2.662-13.266,7.496-18.104
		c4.844-4.841,11.272-7.501,18.104-7.501h32.916c6.838,0,13.266,2.66,18.097,7.496c4.841,4.844,7.501,11.272,7.501,18.107v42.056
		H298.058z M232.228,50.376h47.544V26.609c0-1.958-0.765-3.794-2.148-5.181c-1.377-1.375-3.21-2.135-5.166-2.135h-32.916
		c-1.953,0-3.789,0.76-5.174,2.143c-1.375,1.382-2.138,3.218-2.138,5.174v23.767H232.228z"/>
	<rect x="119.741" y="217.626" style="fill:#242D3C;" width="37.458" height="18.286"/>
	<rect x="157.21" y="284.672" style="fill:#242D3C;" width="40.287" height="18.286"/>
	<rect x="157.21" y="318.182" style="fill:#242D3C;" width="40.287" height="18.286"/>
	<rect x="119.741" y="251.11" style="fill:#242D3C;" width="77.745" height="18.286"/>
	<rect x="157.21" y="150.564" style="fill:#242D3C;" width="40.287" height="18.286"/>
	<rect x="157.21" y="184.087" style="fill:#242D3C;" width="40.287" height="18.286"/>
	<rect x="119.741" y="117.033" style="fill:#242D3C;" width="77.745" height="18.286"/>
	<rect x="354.79" y="217.59" style="fill:#242D3C;" width="37.458" height="18.286"/>
	<rect x="314.522" y="150.533" style="fill:#242D3C;" width="40.284" height="18.286"/>
	<rect x="314.522" y="117.033" style="fill:#242D3C;" width="40.284" height="18.286"/>
	<rect x="314.522" y="184.087" style="fill:#242D3C;" width="77.742" height="18.286"/>
	<rect x="314.522" y="284.646" style="fill:#242D3C;" width="40.284" height="18.286"/>
	<rect x="314.522" y="251.11" style="fill:#242D3C;" width="40.284" height="18.286"/>
	<rect x="314.522" y="318.182" style="fill:#242D3C;" width="77.742" height="18.286"/>
	<path style="fill:#242D3C;" d="M447.114,235.889c-8.307,0-16.115-3.236-21.983-9.111c-5.868-5.865-9.106-13.67-9.106-21.975
		v-91.489c0-3.42-1.331-6.63-3.745-9.047c-2.422-2.424-5.635-3.753-9.055-3.753h-10.97V82.227h10.97
		c8.307,0,16.115,3.236,21.983,9.108c5.868,5.865,9.106,13.67,9.106,21.978v91.489c0,3.418,1.334,6.633,3.745,9.047
		c2.422,2.422,5.637,3.753,9.055,3.753V235.889z"/>
	<path style="fill:#242D3C;" d="M403.228,371.259h-10.97v-18.286h10.97c3.42,0,6.633-1.334,9.05-3.748
		c2.419-2.419,3.75-5.635,3.75-9.052v-91.484c0-8.302,3.238-16.11,9.108-21.98c5.868-5.87,13.676-9.103,21.98-9.103v18.286
		c-3.418,0-6.633,1.334-9.05,3.748c-2.417,2.422-3.75,5.635-3.75,9.052v91.487c0,8.302-3.238,16.11-9.108,21.983
		C419.341,368.028,411.533,371.259,403.228,371.259z"/>
	<path style="fill:#242D3C;" d="M64.886,235.889v-18.286c3.418,0,6.63-1.334,9.047-3.745c2.422-2.422,3.753-5.637,3.753-9.055
		v-91.489c0-8.307,3.236-16.113,9.111-21.98c5.862-5.868,13.668-9.103,21.975-9.103h10.972v18.286h-10.972
		c-3.418,0-6.633,1.329-9.047,3.75c-2.422,2.419-3.753,5.629-3.753,9.05v91.489c0,8.305-3.236,16.11-9.111,21.983
		C81.001,232.653,73.193,235.889,64.886,235.889z"/>
	<path style="fill:#242D3C;" d="M119.741,371.259h-10.972c-8.305,0-16.11-3.233-21.978-9.103c-5.87-5.873-9.106-13.681-9.106-21.983
		v-91.484c0-3.418-1.334-6.63-3.75-9.052c-2.419-2.414-5.632-3.748-9.05-3.748v-18.286c8.302,0,16.11,3.233,21.978,9.103
		c5.873,5.87,9.108,13.678,9.108,21.98v91.487c0,3.418,1.334,6.633,3.75,9.052c2.417,2.414,5.632,3.748,9.05,3.748h10.972v18.286
		H119.741z"/>
</g>
<g>
</g>
<g>
</g>
<g>
</g>
<g>
</g>
<g>
</g>
<g>
</g>
<g>
</g>
<g>
</g>
<g>
</g>
<g>
</g>
<g>
</g>
<g>
</g>
<g>
</g>
<g>
</g>
<g>
</g>
</svg>
