<?xml version="1.0" encoding="iso-8859-1"?>
<!-- Generator: Adobe Illustrator 19.0.0, SVG Export Plug-In . SVG Version: 6.00 Build 0)  -->
<svg version="1.1" id="Layer_1" xmlns="http://www.w3.org/2000/svg" xmlns:xlink="http://www.w3.org/1999/xlink" x="0px" y="0px"
	 viewBox="0 0 512 512" style="enable-background:new 0 0 512 512;" xml:space="preserve">
<g>
	<polygon style="fill:#242D3C;" points="338.243,498.339 173.75,498.339 173.75,443.644 193.441,443.644 193.441,478.647 
		318.551,478.647 318.551,443.644 338.243,443.644 	"/>
	<rect x="142.285" y="478.644" style="fill:#242D3C;" width="227.43" height="19.692"/>
	<path style="fill:#242D3C;" d="M512,366.86H0V40.879c0-7.247,2.824-14.077,7.949-19.231c5.189-5.164,12.019-7.987,19.274-7.987
		H484.78c7.293,0,14.129,2.839,19.254,7.985c5.135,5.153,7.964,11.986,7.964,19.231V366.86H512z M19.692,347.165h472.614V40.879
		c0-1.999-0.794-3.894-2.23-5.335c-1.405-1.411-3.285-2.189-5.297-2.189H27.223c-2.012,0-3.907,0.786-5.345,2.214
		c-1.398,1.408-2.186,3.3-2.186,5.309V347.165z"/>
	<path style="fill:#242D3C;" d="M484.78,424.764H27.215c-7.314,0-14.162-2.847-19.269-8.008C2.842,411.693,0,404.847,0,397.546
		v-50.381h512v50.381c0,7.299-2.844,14.139-8.008,19.269C498.941,421.917,492.101,424.764,484.78,424.764z M19.692,366.86v30.687
		c0,2.017,0.776,3.894,2.186,5.292c1.444,1.462,3.318,2.232,5.338,2.232h457.564c2.02,0,3.896-0.771,5.276-2.171
		c1.475-1.462,2.253-3.343,2.253-5.355v-30.687H19.692V366.86z"/>
	<path style="fill:#242D3C;" d="M309.023,318.263H202.977L128,243.286V137.235l74.977-74.975h106.045L384,137.235v106.051
		L309.023,318.263z M211.131,298.572h89.731l63.444-63.442v-89.736l-63.444-63.439h-89.731l-63.439,63.439v89.736L211.131,298.572z"
		/>
</g>
<polygon style="fill:#ffd801;" points="219.29,278.88 167.386,226.971 167.386,153.548 219.29,101.649 292.708,101.649 
	344.614,153.555 344.614,226.971 292.708,278.88 "/>
<g>
	
		<rect x="246.143" y="142.908" transform="matrix(-0.7071 -0.7071 0.7071 -0.7071 302.4727 505.788)" style="fill:#FFFFFF;" width="19.691" height="94.683"/>
	
		<rect x="208.667" y="180.412" transform="matrix(-0.7071 -0.7071 0.7071 -0.7071 302.501 505.8157)" style="fill:#FFFFFF;" width="94.683" height="19.691"/>
</g>
<g>
	<polygon style="fill:#242D3C;" points="463.401,99.675 443.707,99.675 443.707,81.955 425.984,81.955 425.984,62.263 
		463.401,62.263 	"/>
	<polygon style="fill:#242D3C;" points="463.401,318.263 425.984,318.263 425.984,298.572 443.707,298.572 443.707,280.846 
		463.401,280.846 	"/>
	<polygon style="fill:#242D3C;" points="68.293,99.675 48.599,99.675 48.599,62.263 86.016,62.263 86.016,81.955 68.293,81.955 	"/>
	<polygon style="fill:#242D3C;" points="86.016,318.263 48.599,318.263 48.599,280.846 68.293,280.846 68.293,298.572 
		86.016,298.572 	"/>
</g>
<g>
</g>
<g>
</g>
<g>
</g>
<g>
</g>
<g>
</g>
<g>
</g>
<g>
</g>
<g>
</g>
<g>
</g>
<g>
</g>
<g>
</g>
<g>
</g>
<g>
</g>
<g>
</g>
<g>
</g>
</svg>
