<?xml version="1.0" encoding="iso-8859-1"?>
<!-- Generator: Adobe Illustrator 19.0.0, SVG Export Plug-In . SVG Version: 6.00 Build 0)  -->
<svg version="1.1" id="Layer_1" xmlns="http://www.w3.org/2000/svg" xmlns:xlink="http://www.w3.org/1999/xlink" x="0px" y="0px"
	 viewBox="0 0 512 512" style="enable-background:new 0 0 512 512;" xml:space="preserve">
<path style="fill:#005792;" d="M401.39,139.727c-2.143,0-4.564,0.151-7.37,0.481l-21.937,2.522l-5.164-21.486
	c-12.326-51.466-57.943-87.411-110.925-87.411c-52.961,0-98.596,35.95-110.973,87.432l-5.174,21.501l-21.965-2.565
	c-2.734-0.323-5.112-0.474-7.263-0.474c-33.743,0-61.199,27.451-61.199,61.189c0,33.733,27.456,61.179,61.199,61.179h290.77
	c33.738,0,61.187-27.448,61.187-61.179C462.577,167.178,435.128,139.727,401.39,139.727z"/>
<path style="fill:#FFFFFF;" d="M188.477,131.712l-17.316-4.165c9.464-39.342,44.347-66.821,84.833-66.821v17.81
	C223.772,78.536,196.006,100.403,188.477,131.712z"/>
<g>
	<path style="fill:#242D3C;" d="M401.39,295.923H289.014v-17.807H401.39c42.58,0,77.215-34.632,77.215-77.199
		c0-42.58-34.634-77.222-77.215-77.222c-2.772,0-5.783,0.192-9.198,0.584l-7.841,0.906l-1.836-7.677
		c-14.06-58.698-66.086-99.697-126.52-99.697c-60.398,0-112.443,41.001-126.559,99.702l-1.848,7.68l-7.844-0.914
		c-3.361-0.392-6.344-0.584-9.126-0.584c-42.583,0-77.228,34.642-77.228,77.222c0,42.568,34.644,77.199,77.228,77.199v17.807
		c-52.403,0-95.035-42.616-95.035-95.007c0-52.398,42.632-95.032,95.035-95.032c1.137,0,2.294,0.023,3.476,0.072
		C132.6,43.197,189.896,0,255.997,0c66.138,0,123.418,43.192,141.868,105.961c1.203-0.054,2.381-0.077,3.528-0.077
		c52.396,0,95.025,42.632,95.025,95.032C496.415,253.304,453.786,295.923,401.39,295.923z"/>
	<path style="fill:#242D3C;" d="M357.604,395.384c-16.259,0-29.481-13.222-29.481-29.481s13.222-29.486,29.481-29.486
		c16.259,0,29.486,13.227,29.486,29.486S373.862,395.384,357.604,395.384z M357.604,354.227c-6.436,0-11.674,5.24-11.674,11.679
		c0,6.438,5.238,11.674,11.674,11.674c6.444,0,11.679-5.235,11.679-11.674C369.283,359.467,364.047,354.227,357.604,354.227z"/>
	<rect x="293.837" y="336.41" style="fill:#242D3C;" width="17.81" height="58.957"/>
	<path style="fill:#242D3C;" d="M234.135,337.08c-16.259,0-29.481-13.222-29.481-29.481c0-16.259,13.225-29.486,29.481-29.486
		s29.481,13.228,29.481,29.486C263.616,323.858,250.394,337.08,234.135,337.08z M234.135,295.923
		c-6.438,0-11.674,5.238-11.674,11.679c0,6.438,5.235,11.674,11.674,11.674c6.436,0,11.674-5.235,11.674-11.674
		C245.809,301.161,240.571,295.923,234.135,295.923z"/>
	<rect x="170.342" y="278.118" style="fill:#242D3C;" width="17.81" height="58.957"/>
	<rect x="136.064" y="278.118" style="fill:#242D3C;" width="17.81" height="58.957"/>
	<path style="fill:#242D3C;" d="M158.679,453.691c-16.259,0-29.481-13.222-29.481-29.481c0-16.259,13.225-29.483,29.481-29.483
		s29.481,13.225,29.481,29.483C188.16,440.468,174.935,453.691,158.679,453.691z M158.679,412.536
		c-6.438,0-11.674,5.235-11.674,11.674c0,6.438,5.235,11.674,11.674,11.674c6.438,0,11.674-5.235,11.674-11.674
		C170.353,417.772,165.117,412.536,158.679,412.536z"/>
	<rect x="204.654" y="394.726" style="fill:#242D3C;" width="17.807" height="58.957"/>
	<rect x="94.899" y="394.726" style="fill:#242D3C;" width="17.807" height="58.957"/>
	<rect x="238.95" y="394.726" style="fill:#242D3C;" width="17.807" height="58.957"/>
	<path style="fill:#242D3C;" d="M306.163,512c-16.259,0-29.486-13.228-29.486-29.486c0-16.259,13.228-29.481,29.486-29.481
		s29.484,13.222,29.484,29.481C335.647,498.772,322.419,512,306.163,512z M306.163,470.843c-6.444,0-11.676,5.235-11.676,11.674
		c0,6.438,5.233,11.679,11.676,11.679c6.436,0,11.674-5.24,11.674-11.679C317.837,476.078,312.596,470.843,306.163,470.843z"/>
	<rect x="386.432" y="453.043" style="fill:#242D3C;" width="17.807" height="58.957"/>
	<rect x="352.128" y="453.043" style="fill:#242D3C;" width="17.81" height="58.957"/>
</g>
<g>
	<rect x="282.726" y="212.045" style="fill:#FFFFFF;" width="17.807" height="17.807"/>
	<rect x="247.091" y="212.045" style="fill:#FFFFFF;" width="17.81" height="17.807"/>
	<rect x="211.482" y="212.045" style="fill:#FFFFFF;" width="17.81" height="17.807"/>
</g>
<g>
</g>
<g>
</g>
<g>
</g>
<g>
</g>
<g>
</g>
<g>
</g>
<g>
</g>
<g>
</g>
<g>
</g>
<g>
</g>
<g>
</g>
<g>
</g>
<g>
</g>
<g>
</g>
<g>
</g>
</svg>
