<?xml version="1.0" encoding="iso-8859-1"?>
<!-- Generator: Adobe Illustrator 19.0.0, SVG Export Plug-In . SVG Version: 6.00 Build 0)  -->
<svg version="1.1" id="Layer_1" xmlns="http://www.w3.org/2000/svg" xmlns:xlink="http://www.w3.org/1999/xlink" x="0px" y="0px"
	 viewBox="0 0 512 512" style="enable-background:new 0 0 512 512;" xml:space="preserve">
<g>
	<path style="fill:#242D3C;" d="M171.67,511.767l-9.766-79.219l-80.986,8.131l-8.883-111.841H21.928l42.619-124.69v-28.8h0.34
		C69.741,77.839,150.601,0,249.304,0v18.568c-91.576,0-166.08,74.496-166.08,166.065l-0.108,22.6l-35.215,103.04h41.28
		l8.745,110.039l80.182-8.051l11.988,97.236L171.67,511.767z"/>
	<polygon style="fill:#242D3C;" points="385.046,512 368.462,400.522 398.314,313.193 398.314,279.209 416.882,279.209 
		416.882,316.275 387.488,402.258 403.411,509.266 	"/>
	<rect x="135.039" y="168.236" style="fill:#242D3C;" width="75.82" height="18.568"/>
	<rect x="98.766" y="168.236" style="fill:#242D3C;" width="18.138" height="18.568"/>
	<rect x="135.039" y="204.503" style="fill:#242D3C;" width="75.82" height="18.568"/>
	<rect x="98.766" y="204.503" style="fill:#242D3C;" width="18.138" height="18.568"/>
	<rect x="171.954" y="131.968" style="fill:#242D3C;" width="38.907" height="18.568"/>
	<rect x="171.954" y="240.768" style="fill:#242D3C;" width="38.907" height="18.568"/>
	<rect x="377.983" y="168.236" style="fill:#242D3C;" width="75.82" height="18.568"/>
	<rect x="471.935" y="168.236" style="fill:#242D3C;" width="18.138" height="18.568"/>
	<rect x="377.983" y="204.503" style="fill:#242D3C;" width="75.82" height="18.568"/>
	<rect x="471.935" y="204.503" style="fill:#242D3C;" width="18.138" height="18.568"/>
	<rect x="377.983" y="131.968" style="fill:#242D3C;" width="38.907" height="18.568"/>
	<rect x="377.983" y="240.768" style="fill:#242D3C;" width="38.907" height="18.568"/>
	<rect x="267.007" y="36.273" style="fill:#242D3C;" width="18.568" height="75.82"/>
	<rect x="267.007" style="fill:#242D3C;" width="18.568" height="18.138"/>
	<rect x="303.282" y="36.273" style="fill:#242D3C;" width="18.57" height="75.82"/>
	<rect x="303.282" style="fill:#242D3C;" width="18.57" height="18.138"/>
	<rect x="230.731" y="73.185" style="fill:#242D3C;" width="18.568" height="38.907"/>
	<polygon style="fill:#242D3C;" points="358.104,112.092 339.537,112.092 339.537,36.273 416.882,36.273 416.882,54.84 
		358.104,54.84 	"/>
	<rect x="303.256" y="279.219" style="fill:#242D3C;" width="18.57" height="231.424"/>
	<rect x="267.007" y="279.219" style="fill:#242D3C;" width="18.568" height="195.149"/>
	<rect x="267.007" y="492.493" style="fill:#242D3C;" width="18.568" height="18.14"/>
	<rect x="339.531" y="279.219" style="fill:#242D3C;" width="18.57" height="38.907"/>
	<polygon style="fill:#242D3C;" points="228.952,382.513 210.385,382.513 210.385,352.558 230.729,332.211 230.729,279.209 
		249.297,279.209 249.297,339.899 228.952,360.246 	"/>
</g>
<rect x="210.866" y="112.092" style="fill:#ffd801;" width="167.117" height="167.117"/>
<g>
	<rect x="322.277" y="149.222" style="fill:#FFFFFF;" width="18.57" height="18.568"/>
	<rect x="285.132" y="149.222" style="fill:#FFFFFF;" width="18.57" height="18.568"/>
	<rect x="247.986" y="149.222" style="fill:#FFFFFF;" width="18.568" height="18.568"/>
	<rect x="322.277" y="186.365" style="fill:#FFFFFF;" width="18.57" height="18.568"/>
	<rect x="285.132" y="186.365" style="fill:#FFFFFF;" width="18.57" height="18.568"/>
	<rect x="247.986" y="186.365" style="fill:#FFFFFF;" width="18.568" height="18.568"/>
	<rect x="322.277" y="223.514" style="fill:#FFFFFF;" width="18.57" height="18.568"/>
	<rect x="285.132" y="223.514" style="fill:#FFFFFF;" width="18.57" height="18.568"/>
	<rect x="247.986" y="223.514" style="fill:#FFFFFF;" width="18.568" height="18.568"/>
</g>
<g>
</g>
<g>
</g>
<g>
</g>
<g>
</g>
<g>
</g>
<g>
</g>
<g>
</g>
<g>
</g>
<g>
</g>
<g>
</g>
<g>
</g>
<g>
</g>
<g>
</g>
<g>
</g>
<g>
</g>
</svg>
