<?xml version="1.0" encoding="iso-8859-1"?>
<!-- Generator: Adobe Illustrator 19.0.0, SVG Export Plug-In . SVG Version: 6.00 Build 0)  -->
<svg version="1.1" id="Layer_1" xmlns="http://www.w3.org/2000/svg" xmlns:xlink="http://www.w3.org/1999/xlink" x="0px" y="0px"
	 viewBox="0 0 512 512" style="enable-background:new 0 0 512 512;" xml:space="preserve">
<path style="fill:#242D3C;" d="M505.142,288h-18.286V97.142H25.142V288H6.858V96c0-4.572,1.779-8.876,5.012-12.114
	c3.254-3.249,7.557-5.028,12.129-5.028h464c4.572,0,8.875,1.782,12.114,5.012c3.246,3.254,5.028,7.557,5.028,12.129V288z"/>
<g>
	<rect x="48" y="167.987" style="fill:#005792;" width="32" height="32"/>
	<rect x="96" y="167.987" style="fill:#005792;" width="32" height="32"/>
	<rect x="144" y="167.987" style="fill:#005792;" width="32" height="32"/>
	<rect x="192" y="167.987" style="fill:#005792;" width="32" height="32"/>
	<rect x="240" y="167.987" style="fill:#005792;" width="32" height="32"/>
	<rect x="288" y="167.987" style="fill:#005792;" width="32" height="32"/>
	<rect x="336" y="167.987" style="fill:#005792;" width="32" height="32"/>
	<rect x="384" y="167.987" style="fill:#005792;" width="32" height="32"/>
	<rect x="432" y="167.987" style="fill:#005792;" width="32" height="32"/>
	<rect x="48" y="215.987" style="fill:#005792;" width="32" height="32"/>
	<path style="fill:#005792;" d="M104,232c4.093,0,8.187,1.564,11.313,4.687C118.436,239.816,120,243.909,120,248v-16
		c0-4.093,1.564-8.187,4.687-11.313c1.006-1.009,2.138-1.789,3.313-2.473V216H96v18.214C98.47,232.778,101.225,232,104,232z"/>
</g>
<path style="fill:#ffd801;" d="M152,216v16v16c0-4.093,1.564-8.187,4.687-11.313C159.816,233.564,163.909,232,168,232
	s8.187,1.564,11.313,4.687C182.436,239.816,184,243.909,184,248h144v-32H152z"/>
<g>
	<rect x="384" y="215.987" style="fill:#005792;" width="32" height="32"/>
	<rect x="432" y="215.987" style="fill:#005792;" width="32" height="32"/>
</g>
<rect x="71.987" y="120" style="fill:#ffd801;" width="32" height="32"/>
<g>
	<rect x="120" y="120" style="fill:#005792;" width="32" height="32"/>
	<rect x="167.987" y="120" style="fill:#005792;" width="32" height="32"/>
	<rect x="215.987" y="120" style="fill:#005792;" width="32" height="32"/>
	<rect x="263.987" y="120" style="fill:#005792;" width="32" height="32"/>
	<rect x="311.987" y="120" style="fill:#005792;" width="32" height="32"/>
	<rect x="359.987" y="120" style="fill:#005792;" width="32" height="32"/>
	<rect x="407.987" y="120" style="fill:#005792;" width="32" height="32"/>
</g>
<g>
	<rect x="210.278" y="270.848" style="fill:#242D3C;" width="18.289" height="18.286"/>
	<rect x="246.861" y="270.848" style="fill:#242D3C;" width="18.278" height="18.286"/>
	<rect x="283.418" y="270.848" style="fill:#242D3C;" width="18.291" height="18.286"/>
	<path style="fill:#242D3C;" d="M337.142,352h-18.286V232c0-6.707,2.614-13.018,7.357-17.772c4.767-4.762,11.077-7.37,17.784-7.37
		c6.707,0,13.018,2.611,17.772,7.357c4.754,4.769,7.37,11.08,7.37,17.787v80h-18.286v-80c0-1.828-0.714-3.553-2.015-4.856
		c-2.578-2.57-7.094-2.586-9.7,0.015c-1.285,1.288-1.999,3.013-1.999,4.844V352H337.142z"/>
	<path style="fill:#242D3C;" d="M401.142,312h-18.286v-28.342c0-1.83-0.714-3.556-2.015-4.856c-2.578-2.573-7.094-2.586-9.7,0.015
		c-1.285,1.288-1.999,3.013-1.999,4.844v28.342h-18.286v-28.342c0-6.707,2.611-13.018,7.357-17.772
		c4.767-4.759,11.077-7.37,17.784-7.37s13.018,2.611,17.772,7.36c4.759,4.767,7.37,11.077,7.37,17.784V312H401.142z"/>
	<path style="fill:#242D3C;" d="M433.142,312h-18.286v-28.342c0-1.83-0.714-3.556-2.015-4.856c-2.578-2.573-7.094-2.586-9.7,0.015
		c-1.285,1.288-1.999,3.013-1.999,4.844v28.342h-18.286v-28.342c0-6.707,2.611-13.018,7.357-17.772
		c4.767-4.759,11.077-7.37,17.784-7.37s13.018,2.611,17.772,7.36c4.759,4.767,7.37,11.077,7.37,17.784V312H433.142z"/>
	<path style="fill:#242D3C;" d="M441.142,456h-18.286v-25.656l24-64v-64.399c0-1.828-0.714-3.553-2.015-4.856
		c-2.578-2.57-7.094-2.586-9.7,0.015c-1.285,1.29-1.999,3.016-1.999,4.844v10.058h-18.286v-10.058
		c0-6.707,2.611-13.018,7.357-17.769c4.767-4.762,11.077-7.373,17.784-7.373s13.018,2.611,17.772,7.357
		c4.759,4.767,7.37,11.077,7.37,17.784v67.715l-24,64V456H441.142z"/>
	<path style="fill:#242D3C;" d="M345.142,456h-18.286v-20.321c-9.431-10.071-40-45.077-40-75.5v-32.177
		c0-6.707,2.611-13.018,7.357-17.772c4.767-4.754,11.077-7.37,17.784-7.37s13.018,2.614,17.772,7.357
		c4.759,4.767,7.37,11.077,7.37,17.784h-18.286c0-1.828-0.714-3.553-2.015-4.856c-2.578-2.57-7.094-2.586-9.7,0.015
		c-1.285,1.29-1.999,3.016-1.999,4.844v32.177c0,22.932,26.941,54.958,37.325,65.362l2.673,2.675L345.142,456z"/>
</g>
<path style="fill:#ffd801;" d="M437.658,458.342C436.093,456.783,434.051,456,432,456h-96c-2.051,0-4.093,0.783-5.658,2.342
	C328.783,459.907,328,461.949,328,464v48h112v-48C440,461.949,439.217,459.907,437.658,458.342z"/>
<g>
	<path style="fill:#242D3C;" d="M449.142,512h-18.286v-46.858h-93.714V512h-18.286v-48c0-4.572,1.782-8.876,5.015-12.114
		c3.254-3.246,7.555-5.028,12.127-5.028h96c4.572,0,8.875,1.782,12.114,5.015c3.246,3.254,5.028,7.555,5.028,12.127v48H449.142z"/>
	<path style="fill:#242D3C;" d="M193.142,352h-18.286V248c0-1.828-0.714-3.553-2.015-4.856c-2.578-2.57-7.094-2.586-9.7,0.015
		c-1.285,1.288-1.999,3.013-1.999,4.844v64h-18.286v-64c0-6.707,2.614-13.018,7.357-17.772c4.769-4.762,11.08-7.37,17.787-7.37
		c6.707,0,13.018,2.611,17.772,7.357c4.756,4.769,7.37,11.08,7.37,17.787V352z"/>
	<path style="fill:#242D3C;" d="M161.142,312h-18.286v-80c0-1.828-0.714-3.553-2.015-4.856c-2.578-2.575-7.096-2.578-9.692,0.01
		c-1.293,1.293-2.007,3.018-2.007,4.846v80h-18.286v-80c0-6.712,2.614-13.02,7.363-17.774c4.756-4.754,11.067-7.368,17.779-7.368
		c6.707,0,13.018,2.611,17.772,7.357c4.756,4.769,7.37,11.08,7.37,17.787V312H161.142z"/>
	<path style="fill:#242D3C;" d="M129.142,312h-18.286v-64c0-1.828-0.714-3.553-2.015-4.854c-2.586-2.578-7.094-2.586-9.692,0.008
		c-1.293,1.293-2.007,3.018-2.007,4.846v64H78.856v-64c0-6.712,2.614-13.02,7.363-17.774c4.756-4.754,11.067-7.368,17.779-7.368
		c6.712,0,13.02,2.614,17.772,7.36c4.756,4.762,7.37,11.072,7.37,17.782v64H129.142z"/>
	<path style="fill:#242D3C;" d="M89.142,456H70.856v-22.344l-24-64V264c0-6.712,2.614-13.02,7.363-17.774
		c4.756-4.754,11.067-7.368,17.779-7.368s13.02,2.614,17.772,7.36c4.756,4.762,7.37,11.072,7.37,17.782v48H78.853v-48
		c0-1.828-0.714-3.553-2.015-4.854c-2.586-2.58-7.094-2.586-9.692,0.005c-1.293,1.295-2.007,3.021-2.007,4.849v102.344l24,64V456
		H89.142z"/>
	<path style="fill:#242D3C;" d="M185.142,456h-18.286v-27.784l2.675-2.678c10.381-10.404,37.325-42.429,37.325-65.362V328
		c0-1.828-0.714-3.553-2.015-4.856c-2.578-2.57-7.094-2.586-9.7,0.015c-1.285,1.29-1.999,3.016-1.999,4.844h-18.286
		c0-6.707,2.614-13.018,7.357-17.772c4.769-4.754,11.08-7.37,17.787-7.37s13.018,2.614,17.772,7.357
		c4.756,4.767,7.37,11.077,7.37,17.784v32.177c0,30.423-30.572,65.431-40,75.5V456z"/>
</g>
<path style="fill:#ffd801;" d="M181.658,458.342C180.093,456.783,178.051,456,176,456H80c-2.045,0-4.093,0.783-5.658,2.342
	C72.783,459.907,72,461.949,72,464v48h112v-48C184,461.949,183.217,459.907,181.658,458.342z"/>
<g>
	<path style="fill:#242D3C;" d="M193.142,512h-18.286v-46.858H81.142V512H62.856v-48c0-4.572,1.779-8.876,5.012-12.114
		c3.254-3.246,7.557-5.028,12.129-5.028h96c4.572,0,8.876,1.782,12.114,5.015c3.251,3.254,5.028,7.555,5.028,12.127v48H193.142z"/>
	<path style="fill:#242D3C;" d="M265.142,88h-18.286V72c0-1.828-0.714-3.553-2.015-4.856c-1.288-1.285-3.013-1.999-4.844-1.999H192
		c-6.707,0-13.018-2.611-17.772-7.357c-4.756-4.769-7.37-11.08-7.37-17.787s2.614-13.018,7.357-17.772
		c4.767-4.762,11.077-7.37,17.784-7.37h96c1.828,0,3.553-0.714,4.856-2.015c1.285-1.288,1.999-3.013,1.999-4.844V0h18.286v8
		c0,6.707-2.614,13.018-7.357,17.772c-4.767,4.762-11.077,7.37-17.784,7.37h-96c-1.828,0-3.553,0.714-4.856,2.015
		c-1.285,1.288-1.999,3.013-1.999,4.844c0,1.83,0.714,3.553,2.015,4.856c1.288,1.285,3.013,1.999,4.844,1.999h48
		c6.707,0,13.018,2.611,17.772,7.357c4.756,4.769,7.37,11.08,7.37,17.787v16H265.142z"/>
</g>
<g>
</g>
<g>
</g>
<g>
</g>
<g>
</g>
<g>
</g>
<g>
</g>
<g>
</g>
<g>
</g>
<g>
</g>
<g>
</g>
<g>
</g>
<g>
</g>
<g>
</g>
<g>
</g>
<g>
</g>
</svg>
