<?xml version="1.0" encoding="iso-8859-1"?>
<!-- Generator: Adobe Illustrator 19.0.0, SVG Export Plug-In . SVG Version: 6.00 Build 0)  -->
<svg version="1.1" id="Layer_1" xmlns="http://www.w3.org/2000/svg" xmlns:xlink="http://www.w3.org/1999/xlink" x="0px" y="0px"
	 viewBox="0 0 512 512" style="enable-background:new 0 0 512 512;" xml:space="preserve">
<g>
	<polygon style="fill:#242D3C;" points="338.243,498.337 173.75,498.337 173.75,443.643 193.441,443.643 193.441,478.646 
		318.551,478.646 318.551,443.643 338.243,443.643 	"/>
	<rect x="142.285" y="478.643" style="fill:#242D3C;" width="227.43" height="19.692"/>
	<path style="fill:#242D3C;" d="M512,366.858H0V40.873c0-7.245,2.824-14.072,7.949-19.226c5.181-5.158,12.014-7.985,19.272-7.985
		h457.562c7.293,0,14.131,2.839,19.254,7.99c5.133,5.151,7.962,11.981,7.962,19.223v325.983H512z M19.692,347.164h472.614V40.873
		c0-1.994-0.794-3.889-2.23-5.33c-1.405-1.416-3.282-2.189-5.292-2.189H27.223c-2.012,0-3.907,0.786-5.345,2.214
		c-1.398,1.403-2.186,3.3-2.186,5.304V347.164z"/>
	<path style="fill:#242D3C;" d="M484.785,424.758H27.215c-7.322,0-14.17-2.842-19.277-8.008C2.842,411.686,0,404.846,0,397.545
		v-50.381h512v50.381c0,7.299-2.844,14.139-8.008,19.267C498.949,421.916,492.106,424.758,484.785,424.758z M19.692,366.858v30.687
		c0,2.017,0.776,3.894,2.186,5.292c1.444,1.457,3.315,2.227,5.338,2.227h457.569c1.17,0,3.407-0.279,5.271-2.161
		c1.475-1.467,2.253-3.348,2.253-5.361v-30.687H19.692V366.858z"/>
	<polygon style="fill:#242D3C;" points="418.004,237.519 348.421,237.519 348.421,142.996 418.004,142.996 418.004,162.688 
		368.113,162.688 368.113,217.828 418.004,217.828 	"/>
	<rect x="348.416" y="180.403" style="fill:#242D3C;" width="44.639" height="19.692"/>
	<path style="fill:#242D3C;" d="M219.832,237.519H207.36c-7.629,0-14.799-2.972-20.193-8.366
		c-5.391-5.391-8.361-12.562-8.361-20.188v-37.414c0-7.626,2.97-14.797,8.361-20.188c5.391-5.391,12.562-8.366,20.193-8.366h12.47
		c7.629,0,14.799,2.97,20.191,8.366c5.391,5.396,8.364,12.567,8.364,20.188v37.414c0,7.624-2.97,14.792-8.364,20.188
		C234.632,234.55,227.461,237.519,219.832,237.519z M207.36,162.688c-2.368,0-4.593,0.922-6.269,2.596
		c-1.674,1.672-2.593,3.899-2.593,6.264v37.414c0,2.365,0.919,4.593,2.593,6.267c1.677,1.672,3.899,2.596,6.269,2.596h12.47
		c2.368,0,4.59-0.924,6.269-2.596c1.669-1.674,2.593-3.899,2.593-6.267v-37.412c0-2.365-0.924-4.593-2.593-6.264
		c-1.677-1.674-3.899-2.596-6.269-2.596h-12.47V162.688z"/>
	<path style="fill:#242D3C;" d="M135.022,237.519H122.55c-7.626,0-14.797-2.97-20.188-8.366c-5.396-5.396-8.366-12.564-8.366-20.188
		v-37.414c0-7.624,2.97-14.792,8.361-20.188c5.396-5.396,12.564-8.366,20.193-8.366h12.472c7.631,0,14.799,2.972,20.193,8.366
		s8.364,12.562,8.364,20.188v9.846h-19.692v-9.846c0-2.365-0.924-4.588-2.593-6.264c-1.677-1.674-3.899-2.596-6.269-2.596h-12.472
		c-2.365,0-4.593,0.922-6.264,2.596c-1.674,1.672-2.596,3.899-2.596,6.264v37.414c0,2.365,0.922,4.593,2.596,6.267
		c1.672,1.672,3.899,2.596,6.264,2.596h12.472c2.371,0,4.593-0.924,6.267-2.596c1.672-1.677,2.596-3.899,2.596-6.267v-9.846h19.692
		v9.846c0,7.626-2.97,14.797-8.364,20.188C149.821,234.545,142.653,237.519,135.022,237.519z"/>
	<path style="fill:#242D3C;" d="M304.637,237.519h-41.024v-94.523h41.024c7.626,0,14.792,2.97,20.191,8.366
		c5.394,5.391,8.366,12.562,8.366,20.188v37.414c0,7.626-2.97,14.797-8.366,20.188C319.429,234.55,312.264,237.519,304.637,237.519z
		 M283.305,217.828h21.332c2.368,0,4.593-0.924,6.267-2.596c1.672-1.677,2.596-3.899,2.596-6.267v-37.414
		c0-2.365-0.922-4.588-2.596-6.264c-1.674-1.674-3.899-2.596-6.267-2.596h-21.332V217.828z"/>
</g>
<g>
	<rect x="49.231" y="258.56" style="fill:#005792;" width="413.542" height="59.085"/>
	<rect x="49.231" y="62.892" style="fill:#005792;" width="413.542" height="59.085"/>
</g>
<g>
	<rect x="285.542" y="82.586" style="fill:#FFFFFF;" width="19.692" height="19.692"/>
	<rect x="246.144" y="82.586" style="fill:#FFFFFF;" width="19.692" height="19.692"/>
	<rect x="206.771" y="82.586" style="fill:#FFFFFF;" width="19.692" height="19.692"/>
	<rect x="285.542" y="278.246" style="fill:#FFFFFF;" width="19.692" height="19.692"/>
	<rect x="246.144" y="278.246" style="fill:#FFFFFF;" width="19.692" height="19.692"/>
	<rect x="206.771" y="278.246" style="fill:#FFFFFF;" width="19.692" height="19.692"/>
</g>
<g>
</g>
<g>
</g>
<g>
</g>
<g>
</g>
<g>
</g>
<g>
</g>
<g>
</g>
<g>
</g>
<g>
</g>
<g>
</g>
<g>
</g>
<g>
</g>
<g>
</g>
<g>
</g>
<g>
</g>
</svg>
