<?xml version="1.0" encoding="iso-8859-1"?>
<!-- Generator: Adobe Illustrator 19.0.0, SVG Export Plug-In . SVG Version: 6.00 Build 0)  -->
<svg version="1.1" id="Layer_1" xmlns="http://www.w3.org/2000/svg" xmlns:xlink="http://www.w3.org/1999/xlink" x="0px" y="0px"
	 viewBox="0 0 512 512" style="enable-background:new 0 0 512 512;" xml:space="preserve">
<g>
	<path style="fill:#005792;" d="M234.813,155.935c-77.745,10.358-137.71,76.864-137.71,157.448
		c0,80.586,59.965,147.09,137.71,157.448V155.935z"/>
	<path style="fill:#005792;" d="M277.184,155.935V470.83c77.745-10.358,137.713-76.859,137.713-157.448
		C414.897,232.801,354.931,166.292,277.184,155.935z"/>
</g>
<g>
	<rect x="303.667" y="269.235" style="fill:#FFFFFF;" width="17.654" height="17.654"/>
	<rect x="303.667" y="304.563" style="fill:#FFFFFF;" width="17.654" height="17.654"/>
	<rect x="303.667" y="339.866" style="fill:#FFFFFF;" width="17.654" height="17.654"/>
	<rect x="190.669" y="269.235" style="fill:#FFFFFF;" width="17.654" height="17.654"/>
	<rect x="190.669" y="304.563" style="fill:#FFFFFF;" width="17.654" height="17.654"/>
	<rect x="190.669" y="339.866" style="fill:#FFFFFF;" width="17.654" height="17.654"/>
</g>
<path style="fill:#242D3C;" d="M286.016,512h-60.029V0h60.029V512z M243.64,494.346h24.717V17.654H243.64V494.346z"/>
<polygon style="fill:#ffd801;" points="365.463,33.551 146.537,33.551 105.93,82.988 146.537,132.421 365.463,132.421 
	379.584,118.295 379.584,47.677 "/>
<g>
	<polygon style="fill:#242D3C;" points="159.718,354.931 118.164,313.382 159.718,271.828 172.201,284.311 143.132,313.382 
		172.201,342.449 	"/>
	<polygon style="fill:#242D3C;" points="352.282,354.929 339.799,342.446 368.865,313.382 339.799,284.316 352.282,271.831 
		393.838,313.382 	"/>
</g>
<g>
</g>
<g>
</g>
<g>
</g>
<g>
</g>
<g>
</g>
<g>
</g>
<g>
</g>
<g>
</g>
<g>
</g>
<g>
</g>
<g>
</g>
<g>
</g>
<g>
</g>
<g>
</g>
<g>
</g>
</svg>
