<?xml version="1.0" encoding="iso-8859-1"?>
<!-- Generator: Adobe Illustrator 19.0.0, SVG Export Plug-In . SVG Version: 6.00 Build 0)  -->
<svg version="1.1" id="Layer_1" xmlns="http://www.w3.org/2000/svg" xmlns:xlink="http://www.w3.org/1999/xlink" x="0px" y="0px"
	 viewBox="0 0 512.008 512.008" style="enable-background:new 0 0 512.008 512.008;" xml:space="preserve">
<g>
	<rect x="311.811" y="397.901" style="fill:#242D3C;" width="18.286" height="69.98"/>
	<rect x="181.916" y="397.901" style="fill:#242D3C;" width="18.286" height="69.98"/>
	<rect x="168.532" y="388.736" style="fill:#242D3C;" width="174.95" height="18.286"/>
	<rect x="168.532" y="423.731" style="fill:#242D3C;" width="174.95" height="18.286"/>
	<rect x="168.532" y="458.726" style="fill:#242D3C;" width="174.95" height="18.289"/>
	<rect x="219.42" y="493.722" style="fill:#242D3C;" width="73.144" height="18.286"/>
	<path style="fill:#242D3C;" d="M330.076,407.035H181.911v-9.142c0-33.7-14.328-66.099-39.319-88.891l-0.852-0.742
		c-1.229-1.075-2.437-2.135-3.628-3.133l-0.294-0.256c-36.339-33.224-57.178-80.43-57.178-129.508C80.64,78.671,159.306,0,256.003,0
		s175.365,78.671,175.365,175.363c0,49.078-20.851,96.284-57.206,129.508c-1.725,1.462-3.218,2.801-4.685,4.137
		c-25.042,22.738-39.404,55.13-39.404,88.883v9.144H330.076z M199.89,388.749h112.205c2.376-35.558,18.506-69.143,45.084-93.274
		c1.626-1.477,3.29-2.962,4.91-4.334c32.312-29.535,50.993-71.821,50.993-115.779c0-86.612-70.461-157.076-157.076-157.076
		c-86.612,0-157.079,70.464-157.079,157.076c0,43.899,18.614,86.121,51.092,115.884c1.236,1.037,2.493,2.138,3.766,3.254l0.986,0.86
		C181.409,319.665,197.517,353.252,199.89,388.749z"/>
	<rect x="268.803" y="335.718" style="fill:#242D3C;" width="18.286" height="62.17"/>
	<rect x="224.924" y="335.718" style="fill:#242D3C;" width="18.286" height="62.17"/>
</g>
<polygon style="fill:#ffd801;" points="256.003,44.436 142.63,109.901 142.63,240.824 256.003,306.291 369.375,240.824 
	369.375,109.901 "/>
<g>
	<rect x="246.863" y="129.646" style="fill:#FFFFFF;" width="18.286" height="18.286"/>
	<rect x="246.863" y="166.218" style="fill:#FFFFFF;" width="18.286" height="18.286"/>
	<rect x="246.863" y="202.778" style="fill:#FFFFFF;" width="18.286" height="18.286"/>
</g>
<g>
	<polygon style="fill:#242D3C;" points="214.083,222.049 167.388,175.363 214.083,128.663 227.013,141.594 193.252,175.363 
		227.011,209.121 	"/>
	<polygon style="fill:#242D3C;" points="297.925,222.054 284.995,209.121 318.761,175.363 284.995,141.594 297.925,128.663 
		344.617,175.363 	"/>
</g>
<g>
</g>
<g>
</g>
<g>
</g>
<g>
</g>
<g>
</g>
<g>
</g>
<g>
</g>
<g>
</g>
<g>
</g>
<g>
</g>
<g>
</g>
<g>
</g>
<g>
</g>
<g>
</g>
<g>
</g>
</svg>
