<?xml version="1.0" encoding="iso-8859-1"?>
<!-- Generator: Adobe Illustrator 19.0.0, SVG Export Plug-In . SVG Version: 6.00 Build 0)  -->
<svg version="1.1" id="Layer_1" xmlns="http://www.w3.org/2000/svg" xmlns:xlink="http://www.w3.org/1999/xlink" x="0px" y="0px"
	 viewBox="0 0 512 512" style="enable-background:new 0 0 512 512;" xml:space="preserve">
<g>
	<path style="fill:#242D3C;" d="M512,475.535H0V98.481h512V475.535z M19.845,455.69h472.31V118.326H19.845V455.69z"/>
	<path style="fill:#242D3C;" d="M512,118.326H0V36.465h512V118.326z M19.845,98.481h472.31V56.31H19.845V98.481z"/>
	<rect x="158.771" y="108.39" style="fill:#242D3C;" width="19.845" height="357.197"/>
	<rect x="119.071" y="67.471" style="fill:#242D3C;" width="19.845" height="19.845"/>
	<rect x="79.386" y="67.471" style="fill:#242D3C;" width="19.845" height="19.845"/>
	<rect x="39.69" y="67.471" style="fill:#242D3C;" width="19.845" height="19.845"/>
	<path style="fill:#242D3C;" d="M313.549,197.706h-59.533v-59.535h59.535v59.535H313.549z M273.861,177.861h19.845v-19.845h-19.845
		V177.861z"/>
	<path style="fill:#242D3C;" d="M392.929,197.706h-59.535v-59.535h59.535V197.706z M353.239,177.861h19.845v-19.845h-19.845V177.861
		z"/>
</g>
<rect x="412.774" y="138.171" style="fill:#005792;" width="59.535" height="59.535"/>
<path style="fill:#242D3C;" d="M472.31,277.084H254.016v-59.535H472.31V277.084z M273.861,257.239h178.606v-19.845H273.861V257.239z
	"/>
<rect x="254.003" y="296.934" style="fill:#ffd801;" width="218.291" height="59.535"/>
<g>
	<path style="fill:#242D3C;" d="M353.239,435.845h-99.226V376.31h99.226V435.845z M273.861,416h59.535v-19.845h-59.535V416
		L273.861,416z"/>
	<polygon style="fill:#242D3C;" points="236.155,416 198.451,416 198.451,158.016 236.155,158.016 236.155,177.861 218.294,177.861 
		218.294,396.155 236.155,396.155 	"/>
	<rect x="208.384" y="237.389" style="fill:#242D3C;" width="27.784" height="19.845"/>
	<rect x="208.384" y="316.774" style="fill:#242D3C;" width="27.784" height="19.845"/>
	<rect x="452.454" y="396.16" style="fill:#242D3C;" width="19.845" height="19.845"/>
	<rect x="412.774" y="396.16" style="fill:#242D3C;" width="19.845" height="19.845"/>
	<rect x="373.094" y="396.16" style="fill:#242D3C;" width="19.845" height="19.845"/>
</g>
<rect x="39.69" y="138.171" style="fill:#005792;" width="99.226" height="99.226"/>
<g>
	<rect x="39.69" y="257.229" style="fill:#242D3C;" width="99.226" height="19.845"/>
	<rect x="39.69" y="296.934" style="fill:#242D3C;" width="99.226" height="19.845"/>
	<rect x="39.69" y="336.614" style="fill:#242D3C;" width="99.226" height="19.845"/>
	<rect x="39.69" y="376.32" style="fill:#242D3C;" width="99.226" height="19.845"/>
	<rect x="39.69" y="416" style="fill:#242D3C;" width="99.226" height="19.845"/>
</g>
<g>
</g>
<g>
</g>
<g>
</g>
<g>
</g>
<g>
</g>
<g>
</g>
<g>
</g>
<g>
</g>
<g>
</g>
<g>
</g>
<g>
</g>
<g>
</g>
<g>
</g>
<g>
</g>
<g>
</g>
</svg>
