<?xml version="1.0" encoding="iso-8859-1"?>
<!-- Generator: Adobe Illustrator 19.0.0, SVG Export Plug-In . SVG Version: 6.00 Build 0)  -->
<svg version="1.1" id="Layer_1" xmlns="http://www.w3.org/2000/svg" xmlns:xlink="http://www.w3.org/1999/xlink" x="0px" y="0px"
	 viewBox="0 0 512 512" style="enable-background:new 0 0 512 512;" xml:space="preserve">
<g>
	<path style="fill:#242D3C;" d="M403.044,511.992H22.423V0h294.569l86.052,86.049V511.992z M42.115,492.301h341.24V94.208
		l-74.524-74.516H42.115V492.301z"/>
	<polygon style="fill:#242D3C;" points="393.193,99.978 303.066,99.978 303.066,9.853 322.757,9.853 322.757,80.284 393.193,80.284 
			"/>
</g>
<path style="fill:#005792;" d="M334.828,255.997c0,67.433-54.664,122.089-122.092,122.089c-67.436,0-122.092-54.656-122.092-122.089
	c0-67.436,54.659-122.089,122.092-122.089C280.164,133.908,334.828,188.562,334.828,255.997z"/>
<g>
	<polygon style="fill:#242D3C;" points="167.588,302.346 121.239,256 167.585,209.651 181.514,223.572 149.092,256 181.512,288.415 
			"/>
	<polygon style="fill:#242D3C;" points="257.882,302.339 243.958,288.415 276.378,256 243.958,223.578 257.882,209.654 304.23,256 	
		"/>
	
		<rect x="202.895" y="188.008" transform="matrix(-0.9848 -0.1739 0.1739 -0.9848 377.7233 545.1011)" style="fill:#242D3C;" width="19.692" height="135.992"/>
	<rect x="163.505" y="80.284" style="fill:#242D3C;" width="19.692" height="19.692"/>
	<rect x="202.88" y="80.284" style="fill:#242D3C;" width="19.692" height="19.692"/>
	<rect x="242.278" y="80.284" style="fill:#242D3C;" width="19.692" height="19.692"/>
	<rect x="242.278" y="412.032" style="fill:#242D3C;" width="19.692" height="19.692"/>
	<rect x="202.88" y="412.032" style="fill:#242D3C;" width="19.692" height="19.692"/>
	<rect x="163.505" y="412.032" style="fill:#242D3C;" width="19.692" height="19.692"/>
</g>
<rect x="436.454" y="69.274" style="fill:#ffd801;" width="43.267" height="389.606"/>
<g>
	<path style="fill:#242D3C;" d="M489.577,468.731h-62.963V48.678L458.094,0l31.483,48.678V468.731z M446.308,449.037h23.578V54.492
		L458.097,36.26L446.31,54.492v394.545H446.308z"/>
	<path style="fill:#242D3C;" d="M458.094,512c-8.41,0-16.315-3.272-22.257-9.216c-5.949-5.962-9.224-13.862-9.224-22.262v-31.485
		h62.963v31.485c0,8.404-3.277,16.307-9.221,22.262C474.412,508.728,466.506,512,458.094,512z M446.308,468.731v11.791
		c0,3.146,1.229,6.108,3.464,8.348c4.429,4.429,12.214,4.434,16.66-0.008c2.225-2.232,3.456-5.192,3.456-8.34v-11.791H446.308z"/>
</g>
<g>
</g>
<g>
</g>
<g>
</g>
<g>
</g>
<g>
</g>
<g>
</g>
<g>
</g>
<g>
</g>
<g>
</g>
<g>
</g>
<g>
</g>
<g>
</g>
<g>
</g>
<g>
</g>
<g>
</g>
</svg>
