<?xml version="1.0" encoding="iso-8859-1"?>
<!-- Generator: Adobe Illustrator 19.0.0, SVG Export Plug-In . SVG Version: 6.00 Build 0)  -->
<svg version="1.1" id="Layer_1" xmlns="http://www.w3.org/2000/svg" xmlns:xlink="http://www.w3.org/1999/xlink" x="0px" y="0px"
	 viewBox="0 0 512 512" style="enable-background:new 0 0 512 512;" xml:space="preserve">
<g>
	<polygon style="fill:#005792;" points="340.7,375.603 256,319.114 256,499.418 410.493,396.413 410.493,329.065 	"/>
	<polygon style="fill:#005792;" points="171.292,375.603 256,319.114 256,499.418 101.501,396.413 101.501,329.065 	"/>
</g>
<g>
	<polygon style="fill:#242D3C;" points="101.486,227.328 0.003,159.647 171.297,45.476 227.489,82.934 217.162,98.427 
		171.297,67.855 33.569,159.647 101.486,204.951 217.162,127.798 227.489,143.291 	"/>
	<polygon style="fill:#242D3C;" points="410.506,227.328 284.488,143.291 294.815,127.798 410.506,204.951 478.433,159.649 
		340.682,67.85 294.812,98.399 284.493,82.898 340.69,45.481 511.997,159.642 	"/>
	<polygon style="fill:#242D3C;" points="256,510.605 92.191,401.393 92.191,329.065 110.81,329.065 110.81,391.429 256,488.225 
		401.183,391.429 401.183,329.065 419.799,329.065 419.799,401.393 	"/>
	<path style="fill:#242D3C;" d="M340.7,386.79l-101.484-67.676l171.269-114.173L512,272.553L340.7,386.79z M272.783,319.114
		l67.917,45.294l137.728-91.843l-67.932-45.253L272.783,319.114z"/>
	<path style="fill:#242D3C;" d="M171.277,386.79L0,272.553l101.494-67.61l171.29,114.173L171.277,386.79z M33.572,272.568
		l137.708,91.843l67.94-45.294l-137.723-91.802L33.572,272.568z"/>
	<rect x="246.682" y="319.104" style="fill:#242D3C;" width="18.619" height="180.301"/>
</g>
<polygon style="fill:#ffd801;" points="256,113.108 101.501,216.128 256,319.114 410.493,216.128 "/>
<g>
	<polygon style="fill:#242D3C;" points="255.997,330.281 84.731,216.143 217.162,127.839 227.489,143.329 118.292,216.136 
		255.997,307.907 393.725,216.136 284.488,143.291 294.815,127.798 427.287,216.143 	"/>
	<rect x="246.682" y="113.101" style="fill:#242D3C;" width="18.619" height="139.84"/>
	<polygon style="fill:#242D3C;" points="256.003,266.117 212.134,222.241 225.298,209.078 256.003,239.78 286.707,209.078 
		299.871,222.241 	"/>
	<rect x="246.682" y="75.871" style="fill:#242D3C;" width="18.619" height="18.619"/>
	<rect x="246.682" y="38.63" style="fill:#242D3C;" width="18.619" height="18.619"/>
	<rect x="246.682" y="1.395" style="fill:#242D3C;" width="18.619" height="18.619"/>
</g>
<g>
</g>
<g>
</g>
<g>
</g>
<g>
</g>
<g>
</g>
<g>
</g>
<g>
</g>
<g>
</g>
<g>
</g>
<g>
</g>
<g>
</g>
<g>
</g>
<g>
</g>
<g>
</g>
<g>
</g>
</svg>
