<?xml version="1.0" encoding="iso-8859-1"?>
<!-- Generator: Adobe Illustrator 19.0.0, SVG Export Plug-In . SVG Version: 6.00 Build 0)  -->
<svg version="1.1" id="Layer_1" xmlns="http://www.w3.org/2000/svg" xmlns:xlink="http://www.w3.org/1999/xlink" x="0px" y="0px"
	 viewBox="0 0 512 512" style="enable-background:new 0 0 512 512;" xml:space="preserve">
<g>
	<polygon style="fill:#242D3C;" points="512,433.568 336.858,433.568 336.858,413.876 492.308,413.876 492.308,86.225 
		19.692,86.225 19.692,413.876 175.142,413.876 175.142,433.568 0,433.568 0,66.531 512,66.531 	"/>
	<path style="fill:#242D3C;" d="M512,86.225H0V4.993h512V86.225z M19.692,66.531h472.614V24.685H19.692V66.531z"/>
</g>
<polygon style="fill:#005792;" points="42.668,109.196 42.668,390.906 193.546,390.906 108.308,257.379 169.876,195.841 
	255.977,195.841 342.116,195.841 403.692,257.379 318.428,390.906 469.335,390.906 469.335,109.196 "/>
<g>
	<rect x="121.446" y="35.762" style="fill:#242D3C;" width="19.692" height="19.692"/>
	<rect x="82.048" y="35.762" style="fill:#242D3C;" width="19.692" height="19.692"/>
	<rect x="42.668" y="35.762" style="fill:#242D3C;" width="19.692" height="19.692"/>
	<path style="fill:#242D3C;" d="M255.977,507.007L95.749,256.004l70.049-70.008h180.393l70.057,70.008L255.977,507.007z
		 M120.865,258.751l135.112,211.663l135.158-211.663l-53.097-53.064H173.955L120.865,258.751z"/>
	
		<rect x="270.745" y="254.801" transform="matrix(-0.9781 -0.2082 0.2082 -0.9781 477.3622 796.3659)" style="fill:#242D3C;" width="19.692" height="236.522"/>
	
		<rect x="113.176" y="363.183" transform="matrix(-0.2079 -0.9781 0.9781 -0.2079 -85.3462 676.9451)" style="fill:#242D3C;" width="236.481" height="19.691"/>
	
		<rect x="152.468" y="216.751" transform="matrix(-0.5146 -0.8574 0.8574 -0.5146 90.9809 504.6996)" style="fill:#242D3C;" width="71.755" height="19.694"/>
	
		<rect x="221.529" y="187.212" transform="matrix(-0.7813 -0.6241 0.6241 -0.7813 270.732 548.0437)" style="fill:#242D3C;" width="19.691" height="78.763"/>
	
		<rect x="241.215" y="216.748" transform="matrix(-0.6246 -0.7809 0.7809 -0.6246 278.9348 587.2668)" style="fill:#242D3C;" width="78.794" height="19.691"/>
	
		<rect x="313.816" y="190.73" transform="matrix(-0.8574 -0.5146 0.5146 -0.8574 484.5786 587.4649)" style="fill:#242D3C;" width="19.693" height="71.761"/>
	<rect x="108.314" y="247.525" style="fill:#242D3C;" width="295.398" height="19.689"/>
</g>
<g>
	<rect x="285.542" y="137.75" style="fill:#FFFFFF;" width="19.692" height="19.692"/>
	<rect x="246.144" y="137.75" style="fill:#FFFFFF;" width="19.692" height="19.692"/>
	<rect x="206.771" y="137.75" style="fill:#FFFFFF;" width="19.692" height="19.692"/>
</g>
<g>
</g>
<g>
</g>
<g>
</g>
<g>
</g>
<g>
</g>
<g>
</g>
<g>
</g>
<g>
</g>
<g>
</g>
<g>
</g>
<g>
</g>
<g>
</g>
<g>
</g>
<g>
</g>
<g>
</g>
</svg>
