<?xml version="1.0" encoding="iso-8859-1"?>
<!-- Generator: Adobe Illustrator 19.0.0, SVG Export Plug-In . SVG Version: 6.00 Build 0)  -->
<svg version="1.1" id="Capa_1" xmlns="http://www.w3.org/2000/svg" xmlns:xlink="http://www.w3.org/1999/xlink" x="0px" y="0px"
	 viewBox="0 0 496 496" style="enable-background:new 0 0 496 496;" xml:space="preserve">
<g>
	
		<rect x="339.982" y="287.16" transform="matrix(-0.7071 0.7071 -0.7071 -0.7071 857.086 388.9816)" style="fill:#403E3E;" width="16" height="169.678"/>
	
		<rect x="363.982" y="263.147" transform="matrix(-0.7071 0.7071 -0.7071 -0.7071 881.0769 331.0186)" style="fill:#403E3E;" width="16" height="169.678"/>
	
		<rect x="159.984" y="54.87" transform="matrix(-0.7071 0.7071 -0.7071 -0.7071 405.5524 167.9921)" style="fill:#403E3E;" width="16" height="226.238"/>
	<path style="fill:#403E3E;" d="M96,96H51.72L13.704,38.984l25.272-25.272L96,51.72V96z M60.28,80H80V60.28L41.016,34.296
		l-6.72,6.72L60.28,80z"/>
</g>
<g>
	<path style="fill:#ffd801;" d="M459.312,496h-38.624l-192-192L304,228.688l192,192v38.624L459.312,496z M427.312,480h25.376
		L480,452.688v-25.376l-176-176L251.312,304L427.312,480z"/>
	<path style="fill:#ffd801;" d="M248.12,306.952l-35.072-35.072l59.392-59.4l35.08,35.072L248.12,306.952z M235.672,271.88
		l12.448,12.448l36.776-36.776l-12.456-12.448L235.672,271.88z"/>
	
		<rect x="402.723" y="440.017" transform="matrix(-0.7071 0.7071 -0.7071 -0.7071 1081.5425 448.0444)" style="fill:#ffd801;" width="90.511" height="16"/>
</g>
<g>
	<rect x="432" y="48" style="fill:#403E3E;" width="16" height="16"/>
	<path style="fill:#403E3E;" d="M408,144c-30.872,0-56-25.12-56-56h16c0,22.056,17.944,40,40,40V144z"/>
</g>
<path style="fill:#005792;" d="M325.656,229.656l-11.312-11.312L372.688,160H408c39.704,0,72-32.304,72-72v-8h-4.688L432,123.312
	L372.688,64L416,20.688V16h-8c-39.704,0-72,32.304-72,72v35.312l-82.344,82.344l-11.312-11.312L320,116.688V88
	c0-48.52,39.48-88,88-88h24v27.312L395.312,64L432,100.688L468.688,64H496v24c0,48.52-39.48,88-88,88h-28.688L325.656,229.656z"/>
<g>
	<rect x="48" y="432" style="fill:#403E3E;" width="16" height="16"/>
	<path style="fill:#403E3E;" d="M144,408h-16c0-22.056-17.944-40-40-40v-16C118.88,352,144,377.128,144,408z"/>
</g>
<path style="fill:#005792;" d="M88,496H64v-27.312L100.688,432L64,395.312L27.312,432H0v-24c0-48.52,39.48-88,88-88h28.688
	l77.656-77.656l11.312,11.312L123.312,336H88c-39.696,0-72,32.296-72,72v8h4.688L64,372.688L123.312,432L80,475.312V480h8
	c39.696,0,72-32.296,72-72v-35.312l58.344-58.344l11.312,11.312L176,379.312V408C176,456.52,136.52,496,88,496z"/>
<g>
</g>
<g>
</g>
<g>
</g>
<g>
</g>
<g>
</g>
<g>
</g>
<g>
</g>
<g>
</g>
<g>
</g>
<g>
</g>
<g>
</g>
<g>
</g>
<g>
</g>
<g>
</g>
<g>
</g>
</svg>
