<?xml version="1.0" encoding="iso-8859-1"?>
<!-- Generator: Adobe Illustrator 19.0.0, SVG Export Plug-In . SVG Version: 6.00 Build 0)  -->
<svg version="1.1" id="Layer_1" xmlns="http://www.w3.org/2000/svg" xmlns:xlink="http://www.w3.org/1999/xlink" x="0px" y="0px"
	 viewBox="0 0 512 512" style="enable-background:new 0 0 512 512;" xml:space="preserve">
<path style="fill:#ffd801;" d="M339.697,217.979c0,67.228-54.528,121.718-121.72,121.718c-67.208,0-121.72-54.49-121.72-121.718
	c0-67.208,54.513-121.72,121.72-121.72C285.171,96.259,339.697,150.774,339.697,217.979z"/>
<g>
	<path style="fill:#FFFFFF;" d="M138.752,217.969h-19.32c0-26.26,10.248-50.995,28.859-69.658l13.683,13.647
		C146.995,176.973,138.752,196.859,138.752,217.969z"/>
	<path style="fill:#FFFFFF;" d="M225.472,272.568h-14.981c-8.591,0-16.66-3.338-22.717-9.405
		c-6.065-6.075-9.403-14.141-9.403-22.723h19.32c0,3.423,1.334,6.641,3.756,9.065c2.406,2.414,5.619,3.743,9.044,3.743h14.981
		c3.423,0,6.638-1.329,9.055-3.743c2.412-2.422,3.745-5.645,3.745-9.065s-1.329-6.623-3.738-9.029
		c-2.429-2.435-5.647-3.766-9.062-3.766h-14.981c-8.586,0-16.648-3.336-22.71-9.4c-6.067-6.067-9.411-14.139-9.411-22.725
		c0-8.591,3.343-16.663,9.416-22.723c6.065-6.062,14.129-9.395,22.705-9.395h14.981c8.571,0,16.632,3.336,22.707,9.393
		c6.075,6.083,9.416,14.147,9.416,22.728h-19.32c0-3.418-1.331-6.638-3.75-9.06c-2.417-2.406-5.635-3.74-9.05-3.74h-14.981
		c-3.418,0-6.633,1.329-9.052,3.748c-2.414,2.414-3.748,5.627-3.748,9.052s1.334,6.643,3.75,9.065
		c2.412,2.412,5.627,3.738,9.05,3.738h14.981c8.579,0,16.645,3.348,22.717,9.418c6.06,6.049,9.403,14.111,9.403,22.7
		c0,8.566-3.336,16.635-9.395,22.715C242.122,269.23,234.056,272.568,225.472,272.568z"/>
	<rect x="208.307" y="150.356" style="fill:#FFFFFF;" width="19.32" height="22.702"/>
	<rect x="208.307" y="262.912" style="fill:#FFFFFF;" width="19.32" height="22.694"/>
</g>
<g>
	<path style="fill:#242D3C;" d="M217.981,383.334c-44.17,0-85.696-17.201-116.925-48.43
		c-31.235-31.229-48.433-72.753-48.433-116.925c0-44.165,17.201-85.691,48.433-116.928c31.229-31.229,72.755-48.43,116.925-48.43
		c44.165,0,85.693,17.201,116.923,48.433c64.474,64.471,64.474,169.375,0,233.851C303.675,366.134,262.147,383.334,217.981,383.334z
		 M217.981,71.941c-39.012,0-75.684,15.188-103.263,42.772c-27.584,27.581-42.778,64.259-42.772,103.265
		c-0.003,39.007,15.188,75.681,42.772,103.265c27.579,27.584,64.253,42.77,103.263,42.77c39.007,0,75.679-15.186,103.263-42.77
		c56.94-56.942,56.94-149.591,0-206.531C293.66,87.13,256.988,71.941,217.981,71.941z"/>
	
		<rect x="321.222" y="334.918" transform="matrix(-0.7071 -0.7071 0.7071 -0.7071 344.5741 831.8803)" style="fill:#242D3C;" width="46.707" height="19.318"/>
	<path style="fill:#242D3C;" d="M471.201,512c-10.903,0-21.148-4.239-28.854-11.955l-116.92-116.92l57.697-57.697l116.925,116.92
		c7.708,7.713,11.95,17.964,11.95,28.854c-0.005,10.906-4.25,21.148-11.95,28.846C492.347,507.761,482.102,512,471.201,512z
		 M352.748,383.124l103.265,103.26c4.055,4.06,9.452,6.295,15.188,6.295c5.737,0,11.133-2.235,15.186-6.295
		c4.058-4.052,6.29-9.449,6.295-15.186c0-5.734-2.235-11.133-6.295-15.194l-103.26-103.26L352.748,383.124z"/>
	
		<rect x="59.286" y="65.204" transform="matrix(-0.7071 -0.7071 0.7071 -0.7071 74.8515 180.7303)" style="fill:#242D3C;" width="31.14" height="19.318"/>
	
		<rect x="124.941" y="21.324" transform="matrix(-0.3825 -0.9239 0.9239 -0.3825 165.6283 172.6549)" style="fill:#242D3C;" width="31.133" height="19.317"/>
	<rect x="208.307" style="fill:#242D3C;" width="19.32" height="31.14"/>
	
		<rect x="285.761" y="15.423" transform="matrix(-0.9238 -0.3828 0.3828 -0.9238 556.4767 172.7176)" style="fill:#242D3C;" width="19.322" height="31.141"/>
	
		<rect x="351.427" y="59.273" transform="matrix(-0.7071 -0.7071 0.7071 -0.7071 563.4896 383.093)" style="fill:#242D3C;" width="19.318" height="31.142"/>
	
		<rect x="395.3" y="124.943" transform="matrix(-0.3824 -0.924 0.924 -0.3824 429.9773 568.4307)" style="fill:#242D3C;" width="19.318" height="31.148"/>
	<rect x="404.813" y="208.307" style="fill:#242D3C;" width="31.145" height="19.32"/>
	
		<rect x="15.417" y="130.872" transform="matrix(-0.9239 -0.3827 0.3827 -0.9239 5.8326 282.2244)" style="fill:#242D3C;" width="31.138" height="19.321"/>
	<rect y="208.333" style="fill:#242D3C;" width="31.14" height="19.32"/>
	
		<rect x="21.331" y="279.881" transform="matrix(-0.3825 -0.924 0.924 -0.3825 -230.1465 437.0958)" style="fill:#242D3C;" width="19.319" height="31.149"/>
	
		<rect x="65.195" y="345.511" transform="matrix(-0.707 -0.7072 0.7072 -0.707 -127.5824 669.3107)" style="fill:#242D3C;" width="19.32" height="31.145"/>
	
		<rect x="130.86" y="389.408" transform="matrix(-0.9238 -0.3829 0.3829 -0.9238 115.2665 832.8998)" style="fill:#242D3C;" width="19.321" height="31.143"/>
	<rect x="208.307" y="404.813" style="fill:#242D3C;" width="19.32" height="31.147"/>
</g>
<g>
</g>
<g>
</g>
<g>
</g>
<g>
</g>
<g>
</g>
<g>
</g>
<g>
</g>
<g>
</g>
<g>
</g>
<g>
</g>
<g>
</g>
<g>
</g>
<g>
</g>
<g>
</g>
<g>
</g>
</svg>
