<?xml version="1.0" encoding="iso-8859-1"?>
<!-- Generator: Adobe Illustrator 19.0.0, SVG Export Plug-In . SVG Version: 6.00 Build 0)  -->
<svg version="1.1" id="Layer_1" xmlns="http://www.w3.org/2000/svg" xmlns:xlink="http://www.w3.org/1999/xlink" x="0px" y="0px"
	 viewBox="0 0 512.003 512.003" style="enable-background:new 0 0 512.003 512.003;" xml:space="preserve">
<g>
	<rect x="417.178" y="246.531" style="fill:#242D3C;" width="18.962" height="18.964"/>
	<rect x="455.117" y="246.531" style="fill:#242D3C;" width="18.964" height="18.964"/>
	<rect x="493.03" y="246.531" style="fill:#242D3C;" width="18.962" height="18.964"/>
	<rect y="246.531" style="fill:#242D3C;" width="18.962" height="18.964"/>
	<rect x="37.926" y="246.531" style="fill:#242D3C;" width="18.962" height="18.964"/>
	<rect x="75.85" y="246.531" style="fill:#242D3C;" width="18.964" height="18.964"/>
</g>
<path style="fill:#ffd801;" d="M387.407,256.003c12.918,22.31,20.296,48.233,20.296,75.853c0,83.773-67.935,151.703-151.703,151.703
	c-83.771,0-151.703-67.93-151.703-151.703c0-27.62,7.38-53.542,20.296-75.853c26.227,45.345,75.282,75.853,131.407,75.853
	C312.141,331.855,361.183,301.348,387.407,256.003z"/>
<path style="fill:#005792;" d="M256,28.447c83.768,0,151.703,67.924,151.703,151.703c0,27.617-7.378,53.54-20.296,75.85
	c-26.225-45.343-75.267-75.848-131.407-75.848c-56.125,0-105.18,30.508-131.407,75.85c-12.915-22.31-20.296-48.233-20.296-75.85
	C104.297,96.374,172.229,28.447,256,28.447z"/>
<g>
	<path style="fill:#242D3C;" d="M255.997,341.335c-57.367,0-110.863-30.879-139.615-80.586l-2.744-4.746l2.744-4.749
		c28.751-49.705,82.248-80.584,139.615-80.584s110.863,30.879,139.62,80.586l2.744,4.746l-2.747,4.746
		C366.861,310.456,313.362,341.335,255.997,341.335z M135.667,256.003c25.961,41.078,71.56,66.371,120.33,66.371
		c48.765,0,94.372-25.293,120.328-66.371c-25.958-41.078-71.562-66.371-120.328-66.371
		C207.227,189.632,161.626,214.925,135.667,256.003z"/>
	<path style="fill:#242D3C;" d="M256,299.187c-23.816,0-43.185-19.374-43.185-43.185c0-23.811,19.369-43.185,43.185-43.185
		s43.185,19.374,43.185,43.185C299.185,279.813,279.816,299.187,256,299.187z M256,231.78c-13.356,0-24.223,10.867-24.223,24.223
		c0,13.355,10.867,24.223,24.223,24.223c13.355,0,24.223-10.867,24.223-24.223C280.223,242.647,269.356,231.78,256,231.78z"/>
	<rect x="438.656" y="464.591" style="fill:#242D3C;" width="73.347" height="18.962"/>
	<polygon style="fill:#242D3C;" points="512,446.817 434.724,446.817 362.575,374.664 375.982,361.254 442.578,427.855 512,427.855 
			"/>
	<rect y="28.444" style="fill:#242D3C;" width="73.349" height="18.962"/>
	<polygon style="fill:#242D3C;" points="136.018,150.751 69.422,84.152 0,84.152 0,65.188 77.274,65.188 149.427,137.344 	"/>
</g>
<g>
</g>
<g>
</g>
<g>
</g>
<g>
</g>
<g>
</g>
<g>
</g>
<g>
</g>
<g>
</g>
<g>
</g>
<g>
</g>
<g>
</g>
<g>
</g>
<g>
</g>
<g>
</g>
<g>
</g>
</svg>
