<?xml version="1.0" encoding="iso-8859-1"?>
<!-- Generator: Adobe Illustrator 19.0.0, SVG Export Plug-In . SVG Version: 6.00 Build 0)  -->
<svg version="1.1" id="Capa_1" xmlns="http://www.w3.org/2000/svg" xmlns:xlink="http://www.w3.org/1999/xlink" x="0px" y="0px"
	 viewBox="0 0 512 512" style="enable-background:new 0 0 512 512;" xml:space="preserve">
<g>
	<path style="fill:#403E3E;" d="M472,452h-16V196c0-2.016-0.848-3.936-2.464-5.544c-1.6-1.608-3.52-2.456-5.536-2.456H64
		c-2.016,0-3.936,0.848-5.544,2.456C56.848,192.064,56,193.984,56,196v256H40V196c0-6.264,2.536-12.248,7.144-16.856
		S57.736,172,64,172h384c6.256,0,12.248,2.536,16.856,7.144C469.472,183.752,472,189.736,472,196V452z"/>
	<path style="fill:#403E3E;" d="M472,508H40c-10.392,0-20.352-4.24-28.056-11.944C4.24,488.36,0,478.392,0,468v-24h195.312l16,16
		h89.376l16-16H512v24c0,10.392-4.24,20.352-11.944,28.056S482.392,508,472,508z M16,460v8c0,6.12,2.576,12.064,7.256,16.744
		S33.88,492,40,492h432c6.12,0,12.064-2.576,16.744-7.256S496,474.12,496,468v-8H323.312l-16,16H204.688l-16-16H16z"/>
</g>
<g>
	<rect x="104" y="380" style="fill:#005792;" width="16" height="16"/>
	<rect x="136" y="380" style="fill:#005792;" width="16" height="16"/>
	<rect x="168" y="380" style="fill:#005792;" width="16" height="16"/>
	<rect x="200" y="380" style="fill:#005792;" width="16" height="16"/>
	<rect x="232" y="380" style="fill:#005792;" width="16" height="16"/>
	<rect x="264" y="380" style="fill:#005792;" width="16" height="16"/>
	<path style="fill:#005792;" d="M440,428H72v-80h368V428z M88,412h336v-48H88V412z"/>
</g>
<g>
	<rect x="72" y="284" style="fill:#ffd801;" width="16" height="48"/>
	<rect x="104" y="308" style="fill:#ffd801;" width="16" height="24"/>
	<rect x="136" y="260" style="fill:#ffd801;" width="16" height="72"/>
	<rect x="168" y="276" style="fill:#ffd801;" width="16" height="56"/>
	<rect x="200" y="252" style="fill:#ffd801;" width="16" height="80"/>
	<rect x="232" y="228" style="fill:#ffd801;" width="16" height="104"/>
	<rect x="264" y="244" style="fill:#ffd801;" width="16" height="88"/>
	<rect x="296" y="284" style="fill:#ffd801;" width="16" height="48"/>
	<rect x="328" y="236" style="fill:#ffd801;" width="16" height="96"/>
	<rect x="360" y="268" style="fill:#ffd801;" width="16" height="64"/>
	<rect x="392" y="204" style="fill:#ffd801;" width="16" height="128"/>
	<rect x="424" y="220" style="fill:#ffd801;" width="16" height="112"/>
</g>
<g>
	<rect x="72" y="236" style="fill:#403E3E;" width="48" height="16"/>
	<rect x="72" y="204" style="fill:#403E3E;" width="112" height="16"/>
	<path style="fill:#403E3E;" d="M368,156h-16c0-52.936-43.064-96-96-96s-96,43.064-96,96h-16c0-61.76,50.24-112,112-112
		S368,94.24,368,156z"/>
</g>
<path style="fill:#ffd801;" d="M320,156h-16c0-26.912-21.088-48-48-48s-48,21.088-48,48h-16c0-35.888,28.112-64,64-64
	S320,120.112,320,156z"/>
<g>
	<polygon style="fill:#403E3E;" points="280.416,62.528 266.232,20 245.768,20 231.592,62.528 216.408,57.472 234.232,4 277.768,4 
		295.584,57.472 	"/>
	<polygon style="fill:#403E3E;" points="158.248,113.552 134.512,58.168 158.168,34.512 213.552,58.248 207.248,72.952 
		161.832,53.488 153.488,61.832 172.952,107.248 	"/>
	<polygon style="fill:#403E3E;" points="120,156 104,156 104,134.232 157.472,116.408 162.528,131.592 120,145.768 	"/>
	<polygon style="fill:#403E3E;" points="408,156 392,156 392,145.768 349.472,131.592 354.528,116.408 408,134.232 	"/>
	<polygon style="fill:#403E3E;" points="353.752,113.552 339.048,107.248 358.512,61.832 350.168,53.488 304.752,72.952 
		298.456,58.248 353.832,34.512 377.488,58.168 	"/>
</g>
<g>
</g>
<g>
</g>
<g>
</g>
<g>
</g>
<g>
</g>
<g>
</g>
<g>
</g>
<g>
</g>
<g>
</g>
<g>
</g>
<g>
</g>
<g>
</g>
<g>
</g>
<g>
</g>
<g>
</g>
</svg>
