<?xml version="1.0" encoding="iso-8859-1"?>
<!-- Generator: Adobe Illustrator 19.0.0, SVG Export Plug-In . SVG Version: 6.00 Build 0)  -->
<svg version="1.1" id="Capa_1" xmlns="http://www.w3.org/2000/svg" xmlns:xlink="http://www.w3.org/1999/xlink" x="0px" y="0px"
	 viewBox="0 0 512 512" style="enable-background:new 0 0 512 512;" xml:space="preserve">
<g>
	<rect x="272" y="88" style="fill:#403E3E;" width="240" height="16"/>
	<path style="fill:#403E3E;" d="M40,440c-10.392,0-20.352-4.24-28.056-11.944C4.24,420.36,0,410.392,0,400V88h48v16H16v296
		c0,6.12,2.576,12.064,7.256,16.744S33.88,424,40,424V440z"/>
	<rect x="96" y="120" style="fill:#403E3E;" width="96" height="16"/>
	<rect x="96" y="152" style="fill:#403E3E;" width="48" height="16"/>
</g>
<g>
	<rect x="96" y="392" style="fill:#005792;" width="384" height="16"/>
	<path style="fill:#005792;" d="M472,440H40v-16c6.12,0,12.064-2.576,16.744-7.256S64,406.12,64,400V72h138.664l64,48H512v104h-16
		v-88H261.336l-64-48H80v312c0,8.648-2.936,17-8.368,24H472c6.12,0,12.064-2.576,16.744-7.256S496,406.12,496,400v-96h16v96
		c0,10.392-4.24,20.352-11.944,28.056S482.392,440,472,440z"/>
</g>
<g>
	<rect x="208" y="264" style="fill:#ffd801;" width="16" height="24"/>
	<rect x="240" y="264" style="fill:#ffd801;" width="16" height="24"/>
	<rect x="224" y="240" style="fill:#ffd801;" width="16" height="24"/>
	<rect x="192" y="240" style="fill:#ffd801;" width="16" height="24"/>
	<rect x="272" y="264" style="fill:#ffd801;" width="16" height="24"/>
	<rect x="304" y="264" style="fill:#ffd801;" width="16" height="24"/>
	<rect x="288" y="240" style="fill:#ffd801;" width="16" height="24"/>
	<rect x="256" y="240" style="fill:#ffd801;" width="16" height="24"/>
	<rect x="336" y="264" style="fill:#ffd801;" width="16" height="24"/>
	<rect x="368" y="264" style="fill:#ffd801;" width="16" height="24"/>
	<rect x="352" y="240" style="fill:#ffd801;" width="16" height="24"/>
	<rect x="320" y="240" style="fill:#ffd801;" width="16" height="24"/>
	<rect x="400" y="264" style="fill:#ffd801;" width="16" height="24"/>
	<rect x="432" y="264" style="fill:#ffd801;" width="16" height="24"/>
	<rect x="416" y="240" style="fill:#ffd801;" width="16" height="24"/>
	<rect x="384" y="240" style="fill:#ffd801;" width="16" height="24"/>
	<rect x="464" y="264" style="fill:#ffd801;" width="16" height="24"/>
	<rect x="496" y="264" style="fill:#ffd801;" width="16" height="24"/>
	<rect x="480" y="240" style="fill:#ffd801;" width="16" height="24"/>
	<rect x="448" y="240" style="fill:#ffd801;" width="16" height="24"/>
	<polygon style="fill:#ffd801;" points="176,288 152,288 152,272 160,272 160,256 96,256 96,240 176,240 	"/>
	<polygon style="fill:#ffd801;" points="131.312,352 108.688,352 96,339.312 96,264 112,264 112,332.688 115.312,336 124.688,336 
		128,332.688 128,264 144,264 144,339.312 	"/>
	<rect x="104" y="304" style="fill:#ffd801;" width="32" height="16"/>
</g>
<g>
</g>
<g>
</g>
<g>
</g>
<g>
</g>
<g>
</g>
<g>
</g>
<g>
</g>
<g>
</g>
<g>
</g>
<g>
</g>
<g>
</g>
<g>
</g>
<g>
</g>
<g>
</g>
<g>
</g>
</svg>
