<?xml version="1.0" encoding="iso-8859-1"?>
<!-- Generator: Adobe Illustrator 19.0.0, SVG Export Plug-In . SVG Version: 6.00 Build 0)  -->
<svg xmlns="http://www.w3.org/2000/svg" xmlns:xlink="http://www.w3.org/1999/xlink" version="1.1" id="Layer_1" x="0px" y="0px" viewBox="0 0 362.031 362.031" style="enable-background:new 0 0 362.031 362.031;" xml:space="preserve">
<polygon style="fill:#005792;" points="96.148,45.246 62.214,62.214 0,62.214 0,169.673 226.292,169.673 226.292,45.246 "/>
<polygon style="fill:#2B2B2B;" points="226.292,45.246 214.98,45.246 214.98,28.279 95.054,28.279 61.119,11.312 11.312,11.312   11.312,39.59 0,39.59 0,0 63.369,0 97.304,16.967 226.292,16.967 "/>
<g>
	<rect x="158.362" y="56.558" style="fill:#FFFFFF;" width="11.312" height="11.312"/>
	<rect x="180.985" y="56.558" style="fill:#FFFFFF;" width="11.312" height="11.312"/>
	<rect x="203.669" y="56.558" style="fill:#FFFFFF;" width="11.312" height="11.312"/>
</g>
<polygon style="fill:#ffd801;" points="231.948,237.604 197.952,254.571 135.739,254.571 135.739,362.031 362.031,362.031   362.031,237.604 "/>
<polygon style="fill:#2B2B2B;" points="362.031,237.604 350.719,237.604 350.719,220.575 230.792,220.575 196.858,203.608   147.05,203.608 147.05,231.948 135.739,231.948 135.739,192.296 199.108,192.296 233.042,209.264 362.031,209.264 "/>
<g>
	<rect x="294.161" y="248.915" style="fill:#FFFFFF;" width="11.312" height="11.312"/>
	<rect x="316.784" y="248.915" style="fill:#FFFFFF;" width="11.312" height="11.312"/>
	<rect x="339.408" y="248.915" style="fill:#FFFFFF;" width="11.312" height="11.312"/>
</g>
<g>
	<polygon style="fill:#2B2B2B;" points="362.031,79.181 350.719,79.181 350.719,28.279 299.817,28.279 299.817,16.967    362.031,16.967  "/>
	<rect x="328.096" y="39.59" style="fill:#2B2B2B;" width="11.312" height="11.312"/>
	<polygon style="fill:#2B2B2B;" points="62.214,362.031 0,362.031 0,299.817 11.312,299.817 11.312,350.719 62.214,350.719  "/>
	<rect x="22.623" y="328.096" style="fill:#2B2B2B;" width="11.312" height="11.312"/>
</g>
<g>
</g>
<g>
</g>
<g>
</g>
<g>
</g>
<g>
</g>
<g>
</g>
<g>
</g>
<g>
</g>
<g>
</g>
<g>
</g>
<g>
</g>
<g>
</g>
<g>
</g>
<g>
</g>
<g>
</g>
</svg>
