<?xml version="1.0" encoding="iso-8859-1"?>
<!-- Generator: Adobe Illustrator 19.0.0, SVG Export Plug-In . SVG Version: 6.00 Build 0)  -->
<svg version="1.1" id="Capa_1" xmlns="http://www.w3.org/2000/svg" xmlns:xlink="http://www.w3.org/1999/xlink" x="0px" y="0px"
	 viewBox="0 0 512 512" style="enable-background:new 0 0 512 512;" xml:space="preserve">
<path style="fill:#005792;" d="M448,296H64V56h384V296z M80,280h352V72H80V280z"/>
<g>
	<rect x="96" y="248" style="fill:#403E3E;" width="320" height="16"/>
	<polygon style="fill:#403E3E;" points="448,40 197.336,40 165.336,16 80,16 80,40 64,40 64,0 170.664,0 202.664,24 448,24 	"/>
	<rect x="96" y="88" style="fill:#403E3E;" width="112" height="16"/>
	<rect x="96" y="120" style="fill:#403E3E;" width="56" height="16"/>
	<rect x="216" y="216" style="fill:#403E3E;" width="16" height="16"/>
	<rect x="248" y="216" style="fill:#403E3E;" width="16" height="16"/>
	<rect x="280" y="216" style="fill:#403E3E;" width="16" height="16"/>
</g>
<g>
	<path style="fill:#ffd801;" d="M144,512H0V400h50.424l24,16H144V512z M16,496h112v-64H69.576l-24-16H16V496z"/>
	<path style="fill:#ffd801;" d="M328,512H184V400h50.424l24,16H328V512z M200,496h112v-64h-58.424l-24-16H200V496z"/>
	<path style="fill:#ffd801;" d="M512,512H368V400h50.424l24,16H512V512z M384,496h112v-64h-58.424l-24-16H384V496z"/>
</g>
<g>
	<path style="fill:#403E3E;" d="M256,376c-13.232,0-24-10.768-24-24s10.768-24,24-24s24,10.768,24,24S269.232,376,256,376z M256,344
		c-4.408,0-8,3.584-8,8s3.592,8,8,8c4.408,0,8-3.584,8-8S260.408,344,256,344z"/>
	<rect x="248" y="312" style="fill:#403E3E;" width="16" height="24"/>
	<rect x="248" y="368" style="fill:#403E3E;" width="16" height="24"/>
	<polygon style="fill:#403E3E;" points="80,392 64,392 64,344 240,344 240,360 80,360 	"/>
	<polygon style="fill:#403E3E;" points="448,392 432,392 432,360 272,360 272,344 448,344 	"/>
</g>
<g>
</g>
<g>
</g>
<g>
</g>
<g>
</g>
<g>
</g>
<g>
</g>
<g>
</g>
<g>
</g>
<g>
</g>
<g>
</g>
<g>
</g>
<g>
</g>
<g>
</g>
<g>
</g>
<g>
</g>
</svg>
