<?xml version="1.0" encoding="iso-8859-1"?>
<!-- Generator: Adobe Illustrator 19.0.0, SVG Export Plug-In . SVG Version: 6.00 Build 0)  -->
<svg version="1.1" id="Layer_1" xmlns="http://www.w3.org/2000/svg" xmlns:xlink="http://www.w3.org/1999/xlink" x="0px" y="0px"
	 viewBox="0 0 512 512" style="enable-background:new 0 0 512 512;" xml:space="preserve">
<g>
	<polygon style="fill:#242D3C;" points="338.524,498.36 173.476,498.36 173.476,443.346 193.956,443.346 193.956,477.88 
		318.044,477.88 318.044,443.346 338.524,443.346 	"/>
	<rect x="142.464" y="477.875" style="fill:#242D3C;" width="227.072" height="20.48"/>
	<path style="fill:#242D3C;" d="M512,367.089H0V41.224c0-7.345,2.86-14.264,8.056-19.487c5.248-5.233,12.175-8.097,19.535-8.097
		h456.819c7.396,0,14.328,2.877,19.52,8.097c5.202,5.22,8.069,12.142,8.069,19.487V367.089z M20.48,346.609h471.04V41.224
		c0-1.887-0.748-3.676-2.104-5.041c-1.329-1.336-3.1-2.063-5.002-2.063H27.592c-1.905,0-3.697,0.745-5.048,2.086
		c-1.318,1.331-2.063,3.121-2.063,5.018V346.609z"/>
	<path style="fill:#242D3C;" d="M484.413,424.896H27.584c-7.419,0-14.356-2.875-19.53-8.1C2.88,411.653,0,404.716,0,397.32v-50.714
		h512v50.714c0,7.388-2.88,14.321-8.108,19.525C498.767,422.021,491.832,424.896,484.413,424.896z M20.48,367.089v30.234
		c0,1.905,0.737,3.681,2.068,5.005c1.81,1.828,3.93,2.089,5.036,2.089h456.829c1.108,0,3.228-0.264,4.979-2.035
		c1.393-1.385,2.127-3.159,2.127-5.061v-30.234H20.48V367.089z"/>
</g>
<rect x="51.2" y="64.837" style="fill:#005792;" width="409.6" height="251.059"/>
<g>
	<rect x="130.557" y="176.87" style="fill:#FFFFFF;" width="20.48" height="68.636"/>
	<rect x="92.16" y="225.126" style="fill:#FFFFFF;" width="20.48" height="20.375"/>
	<rect x="168.96" y="202.906" style="fill:#FFFFFF;" width="20.48" height="42.596"/>
	<rect x="207.36" y="143.217" style="fill:#FFFFFF;" width="20.48" height="102.28"/>
	<rect x="245.76" y="159.002" style="fill:#FFFFFF;" width="20.48" height="86.49"/>
	<rect x="284.16" y="104.343" style="fill:#FFFFFF;" width="20.48" height="141.158"/>
	<rect x="322.56" y="172.109" style="fill:#FFFFFF;" width="20.48" height="73.393"/>
	<rect x="360.96" y="186.616" style="fill:#FFFFFF;" width="20.48" height="58.88"/>
	<rect x="399.36" y="127.736" style="fill:#FFFFFF;" width="20.48" height="117.76"/>
</g>
<g>
	<rect x="92.16" y="266.138" style="fill:#242D3C;" width="327.68" height="20.48"/>
	<rect x="92.16" y="94.108" style="fill:#242D3C;" width="97.28" height="20.48"/>
	<rect x="92.16" y="135.731" style="fill:#242D3C;" width="58.877" height="20.48"/>
</g>
<g>
</g>
<g>
</g>
<g>
</g>
<g>
</g>
<g>
</g>
<g>
</g>
<g>
</g>
<g>
</g>
<g>
</g>
<g>
</g>
<g>
</g>
<g>
</g>
<g>
</g>
<g>
</g>
<g>
</g>
</svg>
