<?xml version="1.0" encoding="iso-8859-1"?>
<!-- Generator: Adobe Illustrator 19.0.0, SVG Export Plug-In . SVG Version: 6.00 Build 0)  -->
<svg version="1.1" id="Layer_1" xmlns="http://www.w3.org/2000/svg" xmlns:xlink="http://www.w3.org/1999/xlink" x="0px" y="0px"
	 viewBox="0 0 512 512" style="enable-background:new 0 0 512 512;" xml:space="preserve">
<path style="fill:#242D3C;" d="M306.573,512c-32.835,0-59.548-27.615-59.548-61.555V100.733h17.966v349.711
	c0,24.036,18.652,43.589,41.582,43.589c22.943,0,41.61-19.556,41.61-43.589h17.966C366.147,484.385,339.425,512,306.573,512z"/>
<path style="fill:#ffd801;" d="M257.193,133.279c-0.389-0.018-0.788-0.018-1.185-0.018c-0.412,0-0.791,0-1.129,0.018
	c-98.143,0.545-179.615,73.626-197.676,170.258c11.597-10.668,29.148-17.495,48.824-17.495c20.334,0,38.456,7.314,49.974,18.614
	c11.5-11.323,29.614-18.614,50.017-18.614c20.355,0,38.495,7.324,49.989,18.647c11.502-11.323,29.642-18.647,49.989-18.647
	c20.421,0,38.541,7.291,50.038,18.614c11.505-11.297,29.619-18.614,49.951-18.614c19.684,0,37.276,6.828,48.812,17.495
	C436.756,206.904,355.284,133.824,257.193,133.279z"/>
<g>
	<rect x="95.258" y="118.298" style="fill:#242D3C;" width="17.971" height="34.862"/>
	<rect x="396.698" y="64.128" style="fill:#242D3C;" width="17.971" height="79.693"/>
	<rect x="280.909" style="fill:#242D3C;" width="17.971" height="46.07"/>
	<rect x="153.144" y="39.217" style="fill:#242D3C;" width="17.971" height="68.48"/>
	<rect x="328.909" y="79.462" style="fill:#242D3C;" width="17.971" height="25.377"/>
</g>
<g>
</g>
<g>
</g>
<g>
</g>
<g>
</g>
<g>
</g>
<g>
</g>
<g>
</g>
<g>
</g>
<g>
</g>
<g>
</g>
<g>
</g>
<g>
</g>
<g>
</g>
<g>
</g>
<g>
</g>
</svg>
