<?xml version="1.0" encoding="iso-8859-1"?>
<!-- Generator: Adobe Illustrator 19.0.0, SVG Export Plug-In . SVG Version: 6.00 Build 0)  -->
<svg version="1.1" id="Capa_1" xmlns="http://www.w3.org/2000/svg" xmlns:xlink="http://www.w3.org/1999/xlink" x="0px" y="0px"
	 viewBox="0 0 512 512" style="enable-background:new 0 0 512 512;" xml:space="preserve">
<polygon style="fill:#005792;" points="368,160 328,160 328,144 352,144 352,120 368,120 "/>
<polygon style="fill:#ffd801;" points="160,344 144,344 144,304 184,304 184,320 160,320 "/>
<path style="fill:#403E3E;" d="M256,280c-26.472,0-48-21.528-48-48s21.528-48,48-48s48,21.528,48,48S282.472,280,256,280z M256,200
	c-17.648,0-32,14.352-32,32s14.352,32,32,32s32-14.352,32-32S273.648,200,256,200z"/>
<path style="fill:#ffd801;" d="M256,368c-47.288,0-83.368-16.704-110.296-51.064l12.592-9.872C181.992,337.304,213.952,352,256,352
	c66.168,0,120-53.832,120-120h16C392,306.992,330.992,368,256,368z"/>
<g>
	<path style="fill:#005792;" d="M136,232h-16c0-74.992,61.008-136,136-136c47.28,0,83.36,16.704,110.296,51.064l-12.592,9.864
		C330,126.696,298.048,112,256,112C189.832,112,136,165.832,136,232z"/>
	<path style="fill:#005792;" d="M168,232h-16c0-57.344,46.656-104,104-104v16C207.48,144,168,183.48,168,232z"/>
</g>
<g>
	<rect x="248" y="224" style="fill:#403E3E;" width="16" height="16"/>
	<path style="fill:#403E3E;" d="M408,464H104c-17.944,0-32-14.056-32-32V32c0-17.944,14.056-32,32-32h304c17.944,0,32,14.056,32,32
		v400C440,449.944,425.944,464,408,464z M104,16c-9.12,0-16,6.88-16,16v400c0,9.128,6.88,16,16,16h304c9.128,0,16-6.872,16-16V32
		c0-9.12-6.872-16-16-16H104z"/>
	<rect x="104" y="32" style="fill:#403E3E;" width="16" height="16"/>
	<rect x="392" y="32" style="fill:#403E3E;" width="16" height="16"/>
	<rect x="104" y="416" style="fill:#403E3E;" width="16" height="16"/>
	<rect x="392" y="416" style="fill:#403E3E;" width="16" height="16"/>
	<polygon style="fill:#403E3E;" points="408,400 356.688,400 274.344,317.656 285.656,306.344 363.312,384 408,384 	"/>
	<path style="fill:#403E3E;" d="M200,512h-96c-17.944,0-32-14.056-32-32v-48h16v48c0,9.128,6.88,16,16,16h96V512z"/>
	<path style="fill:#403E3E;" d="M408,512h-96v-16h96c9.128,0,16-6.872,16-16v-48h16v48C440,497.944,425.944,512,408,512z"/>
	<rect x="216" y="496" style="fill:#403E3E;" width="16" height="16"/>
	<rect x="248" y="496" style="fill:#403E3E;" width="16" height="16"/>
	<rect x="280" y="496" style="fill:#403E3E;" width="16" height="16"/>
</g>
<g>
</g>
<g>
</g>
<g>
</g>
<g>
</g>
<g>
</g>
<g>
</g>
<g>
</g>
<g>
</g>
<g>
</g>
<g>
</g>
<g>
</g>
<g>
</g>
<g>
</g>
<g>
</g>
<g>
</g>
</svg>
