<?xml version="1.0" encoding="iso-8859-1"?>
<!-- Generator: Adobe Illustrator 19.0.0, SVG Export Plug-In . SVG Version: 6.00 Build 0)  -->
<svg version="1.1" id="Layer_1" xmlns="http://www.w3.org/2000/svg" xmlns:xlink="http://www.w3.org/1999/xlink" x="0px" y="0px"
	 viewBox="0 0 512 512" style="enable-background:new 0 0 512 512;" xml:space="preserve">
<g>
	<path style="fill:#ffd801;" d="M258.437,112.154c-40.394,0-76.966,16.376-103.444,42.849L203.29,203.3
		c14.131-14.126,33.636-22.881,55.148-22.881c43.023,0,78.021,35.003,78.021,78.019c0,21.512-8.75,41.016-22.881,55.148
		l48.297,48.297c26.473-26.478,42.849-63.048,42.849-103.444C404.726,177.651,339.231,112.154,258.437,112.154z"/>
	<path style="fill:#ffd801;" d="M258.437,472.991V512C398.487,512,512,398.492,512,258.437h-39.009
		C472.991,376.945,376.94,472.991,258.437,472.991z"/>
</g>
<path style="fill:#005792;" d="M258.437,43.886v68.268c80.794,0,146.289,65.492,146.289,146.286s-65.495,146.289-146.289,146.289
	c-80.791,0-146.286-65.495-146.286-146.289H43.886c0,118.492,96.059,214.554,214.551,214.554
	c118.495,0,214.554-96.059,214.554-214.554C472.991,139.948,376.932,43.886,258.437,43.886z"/>
<g>
	<path style="fill:#242D3C;" d="M258.437,414.474v-19.502c75.284,0,136.535-61.251,136.535-136.535s-61.251-136.532-136.535-136.532
		V102.4c86.036,0,156.037,70.001,156.037,156.037S344.476,414.474,258.437,414.474z"/>
	<path style="fill:#242D3C;" d="M258.437,482.749c-59.904,0-116.232-23.332-158.605-65.697l13.791-13.793
		c38.689,38.682,90.122,59.986,144.814,59.986c54.702,0,106.13-21.302,144.812-59.986c38.684-38.687,59.988-90.117,59.988-144.814
		h19.505c0,59.904-23.332,116.232-65.702,158.607C374.674,459.418,318.346,482.749,258.437,482.749z"/>
	<path style="fill:#242D3C;" d="M258.437,316.954c-32.266,0-58.514-26.248-58.514-58.514s26.248-58.514,58.514-58.514v19.505
		c-21.507,0-39.009,17.5-39.009,39.009s17.5,39.009,39.009,39.009V316.954z"/>
	<rect x="248.678" y="248.678" style="fill:#242D3C;" width="19.505" height="19.505"/>
	<path style="fill:#242D3C;" d="M19.505,258.437H0c0-3.389,0.064-6.769,0.195-10.13l19.489,0.753
		C19.564,252.17,19.505,255.299,19.505,258.437z"/>
	<path style="fill:#242D3C;" d="M21.138,230.344l-19.374-2.271c0.786-6.689,1.843-13.432,3.149-20.035l19.133,3.781
		C22.843,217.923,21.862,224.156,21.138,230.344z M28.408,193.577l-18.772-5.281c1.825-6.495,3.937-12.995,6.264-19.31l18.299,6.751
		C32.046,181.573,30.098,187.574,28.408,193.577z M41.375,158.41l-17.708-8.174c2.816-6.098,5.916-12.183,9.224-18.076l17.014,9.539
		C46.851,147.149,43.978,152.771,41.375,158.41z M59.717,125.709L43.512,114.86c3.748-5.604,7.764-11.123,11.932-16.404
		l15.314,12.076C66.903,115.42,63.188,120.527,59.717,125.709z M82.949,96.276l-14.323-13.24c4.557-4.925,9.38-9.754,14.339-14.346
		l13.251,14.316C91.628,87.252,87.163,91.717,82.949,96.276z M110.477,70.812L98.386,55.506c5.268-4.163,10.785-8.179,16.397-11.94
		l10.857,16.205C120.451,63.247,115.348,66.959,110.477,70.812z M141.619,49.951l-9.546-17.006c5.878-3.3,11.953-6.403,18.066-9.231
		l8.182,17.708C152.671,44.029,147.052,46.902,141.619,49.951z M175.629,34.237l-6.758-18.294c6.331-2.34,12.818-4.449,19.292-6.269
		l5.286,18.772C187.474,30.131,181.478,32.079,175.629,34.237z M211.686,24.069l-3.794-19.131c6.62-1.316,13.363-2.373,20.042-3.159
		l2.271,19.374C224.033,21.873,217.807,22.858,211.686,24.069z"/>
	<path style="fill:#242D3C;" d="M249.062,19.684L248.31,0.195C251.668,0.064,255.048,0,258.437,0v19.505
		C255.299,19.505,252.17,19.564,249.062,19.684z"/>
	<rect y="248.678" style="fill:#242D3C;" width="19.505" height="19.505"/>
	<rect x="248.678" style="fill:#242D3C;" width="19.505" height="19.505"/>
</g>
<g>
</g>
<g>
</g>
<g>
</g>
<g>
</g>
<g>
</g>
<g>
</g>
<g>
</g>
<g>
</g>
<g>
</g>
<g>
</g>
<g>
</g>
<g>
</g>
<g>
</g>
<g>
</g>
<g>
</g>
</svg>
