<?xml version="1.0" encoding="iso-8859-1"?>
<!-- Generator: Adobe Illustrator 19.0.0, SVG Export Plug-In . SVG Version: 6.00 Build 0)  -->
<svg version="1.1" id="Layer_1" xmlns="http://www.w3.org/2000/svg" xmlns:xlink="http://www.w3.org/1999/xlink" x="0px" y="0px"
	 viewBox="0 0 512 512" style="enable-background:new 0 0 512 512;" xml:space="preserve">
<g>
	<path style="fill:#242D3C;" d="M446.353,512H65.645V0h294.612l86.098,86.106V512H446.353z M85.682,491.963h340.634V94.403
		l-74.358-74.365H85.682V491.963z"/>
	<polygon style="fill:#242D3C;" points="436.325,100.257 346.088,100.257 346.088,10.02 366.127,10.02 366.127,80.22 436.325,80.22 
			"/>
</g>
<rect x="306.098" y="207.667" style="fill:#005792;" width="68.127" height="197.939"/>
<rect x="137.778" y="158.177" style="fill:#ffd801;" width="236.442" height="49.482"/>
<g>
	<path style="fill:#242D3C;" d="M384.239,415.611H127.761v-69.519h256.479V415.611z M147.798,395.574h216.404v-29.445H147.798
		V395.574z"/>
	<path style="fill:#242D3C;" d="M384.239,366.129H127.761v-69.519h256.479V366.129z M147.798,346.089h216.404v-29.445H147.798
		V346.089z"/>
	<path style="fill:#242D3C;" d="M384.239,316.644H127.761v-69.519h256.479V316.644z M147.798,296.607h216.404v-29.445H147.798
		V296.607z"/>
	<path style="fill:#242D3C;" d="M384.239,267.162H127.761v-69.519h256.479V267.162z M147.798,247.124h216.404v-29.445H147.798
		V247.124z"/>
	<path style="fill:#242D3C;" d="M384.239,217.679H127.761V148.16h256.479V217.679z M147.798,197.642h216.404v-29.445H147.798
		V197.642z"/>
	<rect x="296.063" y="197.632" style="fill:#242D3C;" width="20.037" height="217.958"/>
	<rect x="127.761" y="80.23" style="fill:#242D3C;" width="87.885" height="20.037"/>
	<rect x="127.761" y="113.884" style="fill:#242D3C;" width="187.674" height="20.037"/>
	<rect x="296.344" y="429.85" style="fill:#242D3C;" width="87.885" height="20.037"/>
</g>
<g>
</g>
<g>
</g>
<g>
</g>
<g>
</g>
<g>
</g>
<g>
</g>
<g>
</g>
<g>
</g>
<g>
</g>
<g>
</g>
<g>
</g>
<g>
</g>
<g>
</g>
<g>
</g>
<g>
</g>
</svg>
