<?xml version="1.0" encoding="iso-8859-1"?>
<!-- Generator: Adobe Illustrator 19.0.0, SVG Export Plug-In . SVG Version: 6.00 Build 0)  -->
<svg version="1.1" id="Capa_1" xmlns="http://www.w3.org/2000/svg" xmlns:xlink="http://www.w3.org/1999/xlink" x="0px" y="0px"
	 viewBox="0 0 512 512" style="enable-background:new 0 0 512 512;" xml:space="preserve">
<g>
	<rect x="264" y="248" style="fill:#403E3E;" width="16" height="16"/>
	<rect x="296" y="248" style="fill:#403E3E;" width="16" height="16"/>
	<rect x="328" y="248" style="fill:#403E3E;" width="16" height="16"/>
	<rect x="360" y="248" style="fill:#403E3E;" width="64" height="16"/>
	<rect x="184" y="248" style="fill:#403E3E;" width="64" height="16"/>
	<path style="fill:#403E3E;" d="M144,304c-26.472,0-48-21.528-48-48s21.528-48,48-48s48,21.528,48,48S170.472,304,144,304z M144,224
		c-17.648,0-32,14.352-32,32s14.352,32,32,32s32-14.352,32-32S161.648,224,144,224z"/>
	<rect x="136" y="248" style="fill:#403E3E;" width="16" height="16"/>
</g>
<g>
	
		<rect x="196.019" y="265.114" transform="matrix(-0.7071 0.7071 -0.7071 -0.7071 571.7455 395.2269)" style="fill:#403E3E;" width="16" height="101.823"/>
	
		<rect x="287.941" y="362.723" transform="matrix(-0.7071 0.7071 -0.7071 -0.7071 793.6877 487.2002)" style="fill:#403E3E;" width="16" height="90.511"/>
	
		<rect x="153.111" y="188.001" transform="matrix(-0.7071 0.7071 -0.7071 -0.7071 486.8817 190.3281)" style="fill:#403E3E;" width="101.823" height="16"/>
	
		<rect x="250.744" y="96.005" transform="matrix(-0.7071 0.7071 -0.7071 -0.7071 578.8461 -31.7563)" style="fill:#403E3E;" width="90.511" height="16"/>
	<path style="fill:#403E3E;" d="M144,352c-52.936,0-96-43.064-96-96s43.064-96,96-96v16c-44.112,0-80,35.888-80,80s35.888,80,80,80
		V352z"/>
</g>
<path style="fill:#005792;" d="M144,400C64.6,400,0,335.4,0,256s64.6-144,144-144c72.144,0,120.08,46.944,135.584,93.472
	l-15.168,5.064C250.72,169.448,208.176,128,144,128c-70.576,0-128,57.424-128,128s57.424,128,128,128
	c64.176,0,106.72-41.456,120.416-82.528l15.168,5.064C264.08,353.056,216.144,400,144,400z"/>
<path style="fill:#ffd801;" d="M464,304c-26.472,0-48-21.528-48-48s21.528-48,48-48s48,21.528,48,48S490.472,304,464,304z M464,224
	c-17.648,0-32,14.352-32,32s14.352,32,32,32s32-14.352,32-32S481.648,224,464,224z"/>
<rect x="456" y="248" style="fill:#403E3E;" width="16" height="16"/>
<path style="fill:#ffd801;" d="M352,96c-26.472,0-48-21.528-48-48s21.528-48,48-48s48,21.528,48,48S378.472,96,352,96z M352,16
	c-17.648,0-32,14.352-32,32s14.352,32,32,32s32-14.352,32-32S369.648,16,352,16z"/>
<rect x="344" y="40" style="fill:#403E3E;" width="16" height="16"/>
<path style="fill:#ffd801;" d="M352,512c-26.472,0-48-21.528-48-48s21.528-48,48-48s48,21.528,48,48S378.472,512,352,512z M352,432
	c-17.648,0-32,14.352-32,32s14.352,32,32,32s32-14.352,32-32S369.648,432,352,432z"/>
<rect x="344" y="456" style="fill:#403E3E;" width="16" height="16"/>
<g>
</g>
<g>
</g>
<g>
</g>
<g>
</g>
<g>
</g>
<g>
</g>
<g>
</g>
<g>
</g>
<g>
</g>
<g>
</g>
<g>
</g>
<g>
</g>
<g>
</g>
<g>
</g>
<g>
</g>
</svg>
