<?xml version="1.0" encoding="iso-8859-1"?>
<!-- Generator: Adobe Illustrator 19.0.0, SVG Export Plug-In . SVG Version: 6.00 Build 0)  -->
<svg xmlns="http://www.w3.org/2000/svg" xmlns:xlink="http://www.w3.org/1999/xlink" version="1.1" id="Layer_1" x="0px" y="0px" viewBox="0 0 512 512" style="enable-background:new 0 0 512 512;" xml:space="preserve">
<g>
	<path style="fill:#E3E3E3;" d="M256,36c-75.2,0-136,60.8-136,136h40c0-52.8,43.2-96,96-96s96,43.2,96,96h40   C392,96.8,331.2,36,256,36z"/>
	<polygon style="fill:#E3E3E3;" points="280,52 232,52 248,4 264,4  "/>
	<polygon style="fill:#E3E3E3;" points="216.8,56 175.2,80 164.8,30.4 179.2,22.4  "/>
	<polygon style="fill:#E3E3E3;" points="164,91.2 140,132.8 106.4,95.2 114.4,80.8  "/>
	<polygon style="fill:#E3E3E3;" points="136,148 136,172 88,172 88,164  "/>
	<polygon style="fill:#E3E3E3;" points="376,172 376,148 424,164 424,172  "/>
	<polygon style="fill:#E3E3E3;" points="372,132.8 348,91.2 397.6,80.8 405.6,95.2  "/>
	<polygon style="fill:#E3E3E3;" points="336.8,80 295.2,56 332.8,22.4 347.2,30.4  "/>
</g>
<path style="fill:#005792;" d="M256,108c-35.2,0-64,28.8-64,64h40c0-13.6,10.4-24,24-24s24,10.4,24,24h40  C320,136.8,291.2,108,256,108z"/>
<path style="fill:#2B2B2B;" d="M360,172h-16c0-48.8-39.2-88-88-88s-88,39.2-88,88h-16c0-57.6,46.4-104,104-104S360,114.4,360,172z"/>
<path style="fill:#E3E3E3;" d="M464.8,195.2c-4.8-4.8-10.4-7.2-16.8-7.2H64c-6.4,0-12,2.4-16.8,7.2S40,205.6,40,212v232h32V220h368  v224h32V212C472,205.6,469.6,200,464.8,195.2z"/>
<path style="fill:#2B2B2B;" d="M472,508H40c-10.4,0-20.8-4-28-12c-8-7.2-12-17.6-12-28v-24h195.2l16,16h89.6l16-16H512v24  c0,10.4-4,20.8-12,28C492.8,504,482.4,508,472,508z M16,460v8c0,6.4,2.4,12.8,7.2,16.8c4,4.8,10.4,7.2,16.8,7.2h432  c6.4,0,12.8-2.4,16.8-7.2c4.8-4.8,7.2-10.4,7.2-16.8v-8H323.2l-16,16H204.8l-16-16H16z"/>
<polygon style="fill:#ffd801;" points="424,236 360,300 344,284 316,312 304,300 296,308 272,284 264,292 240,268 188,320 176,308   144,340 128,324 88,364 88,428 424,428 "/>
<g>
	<rect x="88" y="396" style="fill:#2B2B2B;" width="16" height="32"/>
	<rect x="120" y="364" style="fill:#2B2B2B;" width="16" height="64"/>
	<rect x="152" y="356" style="fill:#2B2B2B;" width="16" height="72"/>
	<rect x="184" y="380" style="fill:#2B2B2B;" width="16" height="48"/>
	<rect x="216" y="396" style="fill:#2B2B2B;" width="16" height="32"/>
	<rect x="248" y="364" style="fill:#2B2B2B;" width="16" height="64"/>
	<rect x="280" y="324" style="fill:#2B2B2B;" width="16" height="104"/>
	<rect x="312" y="340" style="fill:#2B2B2B;" width="16" height="88"/>
	<rect x="344" y="372" style="fill:#2B2B2B;" width="16" height="56"/>
	<rect x="376" y="348" style="fill:#2B2B2B;" width="16" height="80"/>
	<rect x="408" y="308" style="fill:#2B2B2B;" width="16" height="120"/>
	<rect x="88" y="236" style="fill:#2B2B2B;" width="16" height="16"/>
	<rect x="120" y="236" style="fill:#2B2B2B;" width="16" height="16"/>
	<rect x="152" y="236" style="fill:#2B2B2B;" width="16" height="16"/>
</g>
<g>
</g>
<g>
</g>
<g>
</g>
<g>
</g>
<g>
</g>
<g>
</g>
<g>
</g>
<g>
</g>
<g>
</g>
<g>
</g>
<g>
</g>
<g>
</g>
<g>
</g>
<g>
</g>
<g>
</g>
</svg>
