<?xml version="1.0" encoding="iso-8859-1"?>
<!-- Generator: Adobe Illustrator 19.0.0, SVG Export Plug-In . SVG Version: 6.00 Build 0)  -->
<svg version="1.1" id="Layer_1" xmlns="http://www.w3.org/2000/svg" xmlns:xlink="http://www.w3.org/1999/xlink" x="0px" y="0px"
	 viewBox="0 0 512 512" style="enable-background:new 0 0 512 512;" xml:space="preserve">
<g>
	<rect x="167.6" y="248" style="fill:#005792;" width="176" height="112"/>
	<polygon style="fill:#005792;" points="199.6,392 199.6,360 231.6,360 	"/>
</g>
<g>
	<rect x="191.6" y="280" style="fill:#2B2B2B;" width="128" height="16"/>
	<rect x="191.6" y="312" style="fill:#2B2B2B;" width="64" height="16"/>
	<rect x="215.6" y="408" style="fill:#2B2B2B;" width="16" height="16"/>
	<rect x="247.6" y="408" style="fill:#2B2B2B;" width="16" height="16"/>
	<rect x="279.6" y="408" style="fill:#2B2B2B;" width="16" height="16"/>
</g>
<g>
	<path style="fill:#ffd801;" d="M415.6,328c0-13.6,10.4-24,24-24v-24c0-17.6-14.4-32-32-32s-32,14.4-32,32v96c0,17.6,14.4,32,32,32
		s32-14.4,32-32v-24C426,352,415.6,341.6,415.6,328z"/>
	<path style="fill:#ffd801;" d="M103.6,248c-17.6,0-32,14.4-32,32v24c13.6,0,24,10.4,24,24s-10.4,24-24,24v24c0,17.6,14.4,32,32,32
		s32-14.4,32-32v-96C135.6,262.4,121.2,248,103.6,248z"/>
</g>
<g>
	<path style="fill:#2B2B2B;" d="M471.6,328h-16v-69.6c0-7.2-1.6-14.4-4-21.6c-3.2-7.2-7.2-12.8-12-18.4l-16-15.2V184h16v12.8
		l11.2,11.2c6.4,6.4,12,14.4,16,23.2s5.6,18.4,5.6,27.2V328H471.6z"/>
	<path style="fill:#2B2B2B;" d="M439.6,360c-17.6,0-32-14.4-32-32s14.4-32,32-32s32,14.4,32,32S457.2,360,439.6,360z M439.6,312
		c-8.8,0-16,7.2-16,16s7.2,16,16,16s16-7.2,16-16S448.4,312,439.6,312z"/>
	<path style="fill:#2B2B2B;" d="M55.6,328h-16v-69.6c0-9.6,1.6-19.2,5.6-27.2c4-8.8,8.8-16.8,15.2-23.2l11.2-11.2V184h16v19.2
		l-16,15.2c-5.6,5.6-9.6,11.2-12,18.4c-3.2,7.2-4,14.4-4,21.6V328z"/>
	<path style="fill:#2B2B2B;" d="M71.6,360c-17.6,0-32-14.4-32-32s14.4-32,32-32s32,14.4,32,32S89.2,360,71.6,360z M71.6,312
		c-8.8,0-16,7.2-16,16s7.2,16,16,16s16-7.2,16-16S80.4,312,71.6,312z"/>
	<path style="fill:#2B2B2B;" d="M359.6,496h-64v-16h64c40,0,72-32,72-72v-56h16v56C447.6,456.8,408.4,496,359.6,496z"/>
</g>
<g>
	<path style="fill:#E3E3E3;" d="M239.6,464c-6.4,0-12,2.4-16.8,7.2s-7.2,11.2-7.2,16.8s2.4,12,7.2,16.8s11.2,7.2,16.8,7.2h56v-48
		H239.6z"/>
	<path style="fill:#E3E3E3;" d="M255.6,40c79.2,0,144,64.8,144,144h40c0-101.6-82.4-184-184-184s-184,82.4-184,184h40
		C111.6,104.8,176.4,40,255.6,40z"/>
</g>
<g>
</g>
<g>
</g>
<g>
</g>
<g>
</g>
<g>
</g>
<g>
</g>
<g>
</g>
<g>
</g>
<g>
</g>
<g>
</g>
<g>
</g>
<g>
</g>
<g>
</g>
<g>
</g>
<g>
</g>
</svg>
