<?xml version="1.0" encoding="iso-8859-1"?>
<!-- Generator: Adobe Illustrator 19.0.0, SVG Export Plug-In . SVG Version: 6.00 Build 0)  -->
<svg version="1.1" id="Layer_1" xmlns="http://www.w3.org/2000/svg" xmlns:xlink="http://www.w3.org/1999/xlink" x="0px" y="0px"
	 viewBox="0 0 512 512" style="enable-background:new 0 0 512 512;" xml:space="preserve">
<rect y="469.329" style="fill:#242D3C;" width="512" height="18.964"/>
<g>
	<rect y="374.532" style="fill:#005792;" width="56.883" height="75.853"/>
	<rect x="75.85" y="316.061" style="fill:#005792;" width="56.883" height="134.323"/>
	<rect x="151.706" y="257.591" style="fill:#005792;" width="56.883" height="192.794"/>
	<rect x="227.558" y="199.121" style="fill:#005792;" width="56.883" height="251.264"/>
	<rect x="303.411" y="140.645" style="fill:#005792;" width="56.883" height="309.734"/>
	<rect x="379.264" y="82.18" style="fill:#005792;" width="56.883" height="368.205"/>
	<rect x="455.117" y="23.707" style="fill:#005792;" width="56.883" height="426.675"/>
</g>
<g>
	<path style="fill:#242D3C;" d="M0,421.928v-18.962c186.742,0,362.499-98.573,494.897-277.565l15.242,11.274
		C374.075,320.626,192.904,421.928,0,421.928z"/>
	<polygon style="fill:#242D3C;" points="512,178.446 493.038,178.446 493.038,140.52 455.109,140.52 455.109,121.555 512,121.555 	
		"/>
	<rect x="227.558" y="23.707" style="fill:#242D3C;" width="38.162" height="18.962"/>
	<rect x="227.558" y="61.623" style="fill:#242D3C;" width="76.326" height="18.962"/>
</g>
<rect y="23.707" style="fill:#ffd801;" width="208.589" height="94.822"/>
<g>
	<rect x="132.741" y="61.623" style="fill:#FFFFFF;" width="18.962" height="18.962"/>
	<rect x="94.822" y="61.623" style="fill:#FFFFFF;" width="18.962" height="18.962"/>
	<rect x="56.883" y="61.623" style="fill:#FFFFFF;" width="18.967" height="18.962"/>
</g>
<g>
	<rect x="69.53" y="137.486" style="fill:#242D3C;" width="139.059" height="18.964"/>
	<rect y="175.415" style="fill:#242D3C;" width="139.059" height="18.962"/>
	<rect y="137.486" style="fill:#242D3C;" width="46.362" height="18.964"/>
</g>
<g>
</g>
<g>
</g>
<g>
</g>
<g>
</g>
<g>
</g>
<g>
</g>
<g>
</g>
<g>
</g>
<g>
</g>
<g>
</g>
<g>
</g>
<g>
</g>
<g>
</g>
<g>
</g>
<g>
</g>
</svg>
