<?xml version="1.0" encoding="iso-8859-1"?>
<!-- Generator: Adobe Illustrator 19.0.0, SVG Export Plug-In . SVG Version: 6.00 Build 0)  -->
<svg version="1.1" id="Capa_1" xmlns="http://www.w3.org/2000/svg" xmlns:xlink="http://www.w3.org/1999/xlink" x="0px" y="0px"
	 viewBox="0 0 512 512" style="enable-background:new 0 0 512 512;" xml:space="preserve">
<g>
	<path style="fill:#403E3E;" d="M392,476H288v-16h104c2.016,0,3.936-0.848,5.552-2.464c1.6-1.6,2.448-3.52,2.448-5.536v-16h16v16
		c0,6.256-2.528,12.24-7.136,16.848C404.24,473.472,398.256,476,392,476z"/>
	<path style="fill:#403E3E;" d="M224,476H120c-6.264,0-12.248-2.528-16.848-7.136C98.536,464.248,96,458.256,96,452v-16h16v16
		c0,2.016,0.848,3.936,2.464,5.544c1.6,1.608,3.52,2.456,5.536,2.456h104V476z"/>
	<path style="fill:#403E3E;" d="M256,508c-22.056,0-40-17.944-40-40s17.944-40,40-40s40,17.944,40,40S278.056,508,256,508z M256,444
		c-13.232,0-24,10.768-24,24s10.768,24,24,24s24-10.768,24-24S269.232,444,256,444z"/>
	<rect x="248" y="460" style="fill:#403E3E;" width="16" height="16"/>
	<rect x="248" y="220" style="fill:#403E3E;" width="16" height="96"/>
	<rect x="248" y="396" style="fill:#403E3E;" width="16" height="16"/>
	<rect x="248" y="364" style="fill:#403E3E;" width="16" height="16"/>
	<rect x="248" y="332" style="fill:#403E3E;" width="16" height="16"/>
</g>
<g>
	<path style="fill:#005792;" d="M192,380H16c-8.376,0-16-7.624-16-16V236c0-8.376,7.624-16,16-16h176c8.376,0,16,7.624,16,16v128
		C208,372.376,200.376,380,192,380z M16,236v128h176V236H16z"/>
	<rect x="72" y="372" style="fill:#005792;" width="16" height="40"/>
	<rect x="120" y="372" style="fill:#005792;" width="16" height="40"/>
	<rect x="56" y="404" style="fill:#005792;" width="96" height="16"/>
</g>
<g>
	<rect x="64" y="332" style="fill:#403E3E;" width="16" height="16"/>
	<rect x="96" y="332" style="fill:#403E3E;" width="16" height="16"/>
	<rect x="128" y="332" style="fill:#403E3E;" width="16" height="16"/>
</g>
<g>
	<path style="fill:#005792;" d="M496,380H320c-8.376,0-16-7.624-16-16V236c0-8.376,7.624-16,16-16h176c8.376,0,16,7.624,16,16v128
		C512,372.376,504.376,380,496,380z M320,236v128h176V236H320z"/>
	<rect x="376" y="372" style="fill:#005792;" width="16" height="40"/>
	<rect x="424" y="372" style="fill:#005792;" width="16" height="40"/>
	<rect x="360" y="404" style="fill:#005792;" width="96" height="16"/>
</g>
<g>
	<rect x="368" y="332" style="fill:#403E3E;" width="16" height="16"/>
	<rect x="400" y="332" style="fill:#403E3E;" width="16" height="16"/>
	<rect x="432" y="332" style="fill:#403E3E;" width="16" height="16"/>
</g>
<g>
	<path style="fill:#ffd801;" d="M344,164H168c-8.376,0-16-7.624-16-16V20c0-8.376,7.624-16,16-16h176c8.376,0,16,7.624,16,16v128
		C360,156.376,352.376,164,344,164z M168,20v128h176V20H168z"/>
	<rect x="224" y="156" style="fill:#ffd801;" width="16" height="40"/>
	<rect x="272" y="156" style="fill:#ffd801;" width="16" height="40"/>
	<rect x="208" y="188" style="fill:#ffd801;" width="96" height="16"/>
</g>
<g>
	<rect x="216" y="116" style="fill:#403E3E;" width="16" height="16"/>
	<rect x="248" y="116" style="fill:#403E3E;" width="16" height="16"/>
	<rect x="280" y="116" style="fill:#403E3E;" width="16" height="16"/>
</g>
<g>
</g>
<g>
</g>
<g>
</g>
<g>
</g>
<g>
</g>
<g>
</g>
<g>
</g>
<g>
</g>
<g>
</g>
<g>
</g>
<g>
</g>
<g>
</g>
<g>
</g>
<g>
</g>
<g>
</g>
</svg>
