<?xml version="1.0" encoding="iso-8859-1"?>
<!-- Generator: Adobe Illustrator 19.0.0, SVG Export Plug-In . SVG Version: 6.00 Build 0)  -->
<svg xmlns="http://www.w3.org/2000/svg" xmlns:xlink="http://www.w3.org/1999/xlink" version="1.1" id="Layer_1" x="0px" y="0px" viewBox="0 0 512 512" style="enable-background:new 0 0 512 512;" xml:space="preserve">
<polygon style="fill:#E3E3E3;" points="8,408 256,304 504,408 256,512 "/>
<polygon style="fill:#005792;" points="256,488 64,408 64,144 256,224 "/>
<polygon style="fill:#1CCACA;" points="256,488 448,408 448,144 256,224 "/>
<g>
	<polygon style="fill:#E3E3E3;" points="320,0 256,64 448,144 512,80  "/>
	<polygon style="fill:#E3E3E3;" points="192,0 256,64 64,144 0,80  "/>
</g>
<g>
	<polygon style="fill:#2B2B2B;" points="301.6,297.6 249.6,228.8 262.4,219.2 306.4,278.4 483.2,204.8 443.2,150.4 292.8,87.2    299.2,72.8 452.8,137.6 508.8,211.2  "/>
	<polygon style="fill:#2B2B2B;" points="210.4,297.6 3.2,211.2 59.2,137.6 212.8,72.8 219.2,87.2 68.8,150.4 28.8,204.8    205.6,278.4 249.6,219.2 262.4,228.8  "/>
	<polygon style="fill:#2B2B2B;" points="256,232.8 60.8,151.2 67.2,136.8 256,215.2 444.8,136.8 451.2,151.2  "/>
	<rect x="248" y="96" style="fill:#2B2B2B;" width="16" height="80"/>
	<polygon style="fill:#2B2B2B;" points="256,187.2 210.4,141.6 221.6,130.4 256,164.8 290.4,130.4 301.6,141.6  "/>
	<rect x="248" y="64" style="fill:#2B2B2B;" width="16" height="16"/>
	<rect x="248" y="32" style="fill:#2B2B2B;" width="16" height="16"/>
	<rect x="248" style="fill:#2B2B2B;" width="16" height="16"/>
</g>
<polygon style="fill:#4BCACA;" points="256,304 64,384.8 64,408 256,488 "/>
<polygon style="fill:#19B4B4;" points="448,408 448,384.8 256,304 256,488 "/>
<g>
</g>
<g>
</g>
<g>
</g>
<g>
</g>
<g>
</g>
<g>
</g>
<g>
</g>
<g>
</g>
<g>
</g>
<g>
</g>
<g>
</g>
<g>
</g>
<g>
</g>
<g>
</g>
<g>
</g>
</svg>
