<?xml version="1.0" encoding="iso-8859-1"?>
<!-- Generator: Adobe Illustrator 19.0.0, SVG Export Plug-In . SVG Version: 6.00 Build 0)  -->
<svg version="1.1" id="Layer_1" xmlns="http://www.w3.org/2000/svg" xmlns:xlink="http://www.w3.org/1999/xlink" x="0px" y="0px"
	 viewBox="0 0 512 512" style="enable-background:new 0 0 512 512;" xml:space="preserve">
<path style="fill:#005792;" d="M504.054,184.128c-47.987,0-65.398-30.136-108.577-18.742
	c-46.523,12.275-36.188,52.339-84.001,55.572c-34.025,2.301-54.113-50.642-102.103-24.55c-36.833,20.027-34.25,74.954-89.82,103.391
	c-29.898,15.299-80.136,16.159-119.537-31.017c0,112.438,0,235.866,0,235.866h504.041
	C504.054,504.645,504.054,250.685,504.054,184.128z"/>
<g>
	<path style="fill:#242D3C;" d="M256.829,289.597c-1.969,0-3.991-0.133-6.057-0.399c-6.316-0.842-12.078-3.052-17.152-6.582
		c-16.036-11.116-22.597-33.254-28.936-54.666c-9.206-31.071-16.207-49.81-36.303-49.18c-12.385,0.443-21.885,12.252-32.881,25.928
		c-12.595,15.66-26.87,33.405-49.8,37.437c-21.02,3.712-36.275-6.275-49.738-15.068C24.689,219.697,14.036,212.739,0,212.739
		v-19.387c19.809,0,34.025,9.29,46.569,17.485c12.462,8.146,22.298,14.574,35.771,12.209c15.752-2.772,26.588-16.241,38.052-30.5
		c12.805-15.926,26.051-32.394,47.304-33.149c36.475-1.29,47.084,34.383,55.572,63.045c5.391,18.196,10.964,37.012,21.404,44.247
		c2.563,1.779,5.381,2.852,8.625,3.282c6.554,0.868,11.628-0.589,15.936-4.549c15.396-13.99,19.835-54.694,24.128-94.062
		c5.153-47.242,10.02-91.868,33.51-109.952l11.827,15.357c-16.94,13.043-21.786,57.49-26.066,96.696
		c-4.9,44.936-9.528,87.375-30.328,106.276C275.174,286.287,266.616,289.597,256.829,289.597z"/>
	<path style="fill:#242D3C;" d="M453.875,156.155c-13.975,0-27.679-5.335-40.033-15.652c-7.501-6.259-13.655-16.858-20.772-29.125
		c-8.269-14.239-17.638-30.374-28.567-37.094l10.15-16.517c15.094,9.277,25.761,27.658,35.18,43.876
		c5.683,9.787,11.556,19.904,16.438,23.974c10.391,8.684,21.297,12.332,32.415,10.826c13.573-1.825,26.852-11.19,37.396-26.36
		L512,121.147c-13.686,19.692-31.7,31.949-50.729,34.509C458.803,155.988,456.333,156.155,453.875,156.155z"/>
	<path style="fill:#242D3C;" d="M350.676,90.711c-16.031,0-29.076-13.043-29.076-29.079s13.048-29.079,29.076-29.079
		c16.041,0,29.079,13.043,29.079,29.079C379.758,77.668,366.717,90.711,350.676,90.711z M350.676,51.94
		c-5.343,0-9.692,4.347-9.692,9.695c0,5.348,4.349,9.692,9.692,9.692c5.348,0,9.692-4.347,9.692-9.692
		C360.369,56.289,356.024,51.94,350.676,51.94z"/>
</g>
<g>
	<rect x="80.771" y="7.352" style="fill:#ffd801;" width="186.112" height="108.57"/>
	
		<rect x="253.158" y="47.918" transform="matrix(-0.707 -0.7072 0.7072 -0.707 411.9583 293.9219)" style="fill:#ffd801;" width="27.412" height="27.412"/>
</g>
<g>
	<rect x="105.984" y="71.324" style="fill:#FFFFFF;" width="67.853" height="19.387"/>
	<rect x="105.984" y="32.553" style="fill:#FFFFFF;" width="135.706" height="19.387"/>
</g>
<g>
	<rect x="90.47" y="427.108" style="fill:#242D3C;" width="142.157" height="19.387"/>
	<rect x="19.402" y="465.866" style="fill:#242D3C;" width="142.157" height="19.387"/>
	<rect x="19.402" y="427.108" style="fill:#242D3C;" width="47.386" height="19.387"/>
</g>
<g>
	<rect x="465.28" y="465.866" style="fill:#FFFFFF;" width="19.387" height="19.387"/>
	<rect x="426.496" y="465.866" style="fill:#FFFFFF;" width="19.384" height="19.387"/>
	<rect x="387.738" y="465.866" style="fill:#FFFFFF;" width="19.384" height="19.387"/>
</g>
<g>
</g>
<g>
</g>
<g>
</g>
<g>
</g>
<g>
</g>
<g>
</g>
<g>
</g>
<g>
</g>
<g>
</g>
<g>
</g>
<g>
</g>
<g>
</g>
<g>
</g>
<g>
</g>
<g>
</g>
</svg>
