<?xml version="1.0" encoding="iso-8859-1"?>
<!-- Generator: Adobe Illustrator 19.0.0, SVG Export Plug-In . SVG Version: 6.00 Build 0)  -->
<svg version="1.1" id="Layer_1" xmlns="http://www.w3.org/2000/svg" xmlns:xlink="http://www.w3.org/1999/xlink" x="0px" y="0px"
	 viewBox="0 0 512 512" style="enable-background:new 0 0 512 512;" xml:space="preserve">
<path style="fill:#ffd801;" d="M348.92,320.282c0,51.315-41.62,92.918-92.918,92.918c-51.31,0-92.918-41.603-92.918-92.918
	c0-51.313,41.608-92.92,92.918-92.92C307.3,227.361,348.92,268.969,348.92,320.282z"/>
<g>
	<path style="fill:#FFFFFF;" d="M262.147,366.641h-12.288c-7.455,0-14.467-2.908-19.74-8.179
		c-5.271-5.276-8.174-12.283-8.174-19.743h18.962c0,2.394,0.934,4.644,2.621,6.336c1.69,1.692,3.94,2.624,6.328,2.624h12.291
		c2.388,0,4.641-0.937,6.346-2.632c1.677-1.682,2.611-3.937,2.611-6.328c0-2.394-0.929-4.636-2.621-6.333
		c-1.687-1.684-3.94-2.616-6.333-2.616h-12.291c-7.462,0-14.477-2.908-19.743-8.182c-5.266-5.263-8.169-12.275-8.169-19.74
		c0-7.468,2.903-14.477,8.177-19.743c5.266-5.271,12.28-8.172,19.735-8.172h12.291c7.447,0,14.456,2.9,19.738,8.169
		c5.281,5.284,8.179,12.293,8.179,19.745h-18.962c0-2.394-0.929-4.639-2.621-6.336c-1.687-1.684-3.94-2.616-6.333-2.616h-12.291
		c-2.394,0-4.641,0.929-6.333,2.621c-1.692,1.687-2.619,3.937-2.619,6.331c0,2.401,0.929,4.646,2.614,6.333
		c1.697,1.697,3.94,2.624,6.336,2.624h12.291c7.455,0,14.464,2.901,19.74,8.174c5.279,5.281,8.177,12.291,8.177,19.74
		c0,7.444-2.901,14.454-8.161,19.735C276.603,363.738,269.596,366.641,262.147,366.641z"/>
	<rect x="246.531" y="264.781" style="fill:#FFFFFF;" width="18.964" height="18.619"/>
	<rect x="246.531" y="357.171" style="fill:#FFFFFF;" width="18.964" height="18.614"/>
</g>
<g>
	<path style="fill:#242D3C;" d="M335.703,512H176.302c-32.376,0-62.848-14.259-83.597-39.117
		c-20.746-24.86-29.322-57.39-23.529-89.244l32.596-179.274c3.86-21.228,15.107-40.532,31.675-54.362
		c16.571-13.821,37.578-21.437,59.146-21.437h126.81c21.583,0,42.591,7.616,59.151,21.437c16.571,13.834,27.82,33.142,31.675,54.369
		l32.594,179.267c5.793,31.852-2.785,64.379-23.526,89.244C398.551,497.741,368.079,512,335.703,512z M192.594,147.525
		c-17.142,0-33.833,6.052-46.999,17.037c-13.164,10.988-22.1,26.327-25.17,43.192L87.834,387.028
		c-4.782,26.307,2.304,53.171,19.436,73.702c17.134,20.531,42.296,32.305,69.033,32.305h159.401
		c26.739,0,51.899-11.776,69.038-32.305c17.132-20.534,24.215-47.401,19.43-73.702l-32.596-179.272
		c-3.062-16.87-12.001-32.21-25.167-43.2c-13.158-10.982-29.85-17.032-46.999-17.032L192.594,147.525L192.594,147.525z"/>
	<path style="fill:#242D3C;" d="M154.01,213.862l-18.657-3.392c2.468-13.573,9.367-25.418,19.963-34.263
		c10.596-8.842,23.485-13.512,37.279-13.512v18.962c-9.295,0-17.984,3.149-25.126,9.103
		C160.328,196.726,155.674,204.71,154.01,213.862z"/>
	<path style="fill:#242D3C;" d="M319.921,147.525H192.085V85.256h127.836V147.525z M211.047,128.563h89.91v-24.346h-89.91V128.563z"
		/>
	<path style="fill:#242D3C;" d="M228.196,35.837l-16.814-8.763C220.083,10.373,237.179,0,256.003,0s35.922,10.373,44.623,27.075
		l-16.814,8.763c-5.427-10.406-16.084-16.876-27.809-16.876C244.275,18.962,233.621,25.431,228.196,35.837z"/>
	<path style="fill:#242D3C;" d="M314.217,104.218H197.788L145.787,54.94l1.764-5.645c6.607-21.107,25.91-35.29,48.041-35.29
		c8.945,0,17.697,2.358,25.303,6.822l0.489,0.297c0.412,0.248,0.827,0.504,1.234,0.778c6.835,4.352,12.559,10.335,16.563,17.308
		l-16.448,9.441c-2.501-4.355-6.093-8.097-10.394-10.811l-1.236-0.776c-4.5-2.637-9.938-4.096-15.511-4.096
		c-11.863,0-22.426,6.538-27.766,16.735l37.519,35.551h101.32l37.517-35.551c-5.345-10.196-15.908-16.735-27.768-16.735
		c-5.578,0-11.011,1.459-15.708,4.214l-1.039,0.66c-4.303,2.719-7.895,6.451-10.394,10.806l-16.453-9.436
		c4.004-6.979,9.731-12.961,16.576-17.316c0.41-0.276,0.832-0.538,1.252-0.788l0.458-0.282c7.608-4.465,16.358-6.822,25.308-6.822
		c22.124,0,41.431,14.182,48.044,35.29l1.769,5.645L314.217,104.218z"/>
</g>
<g>
</g>
<g>
</g>
<g>
</g>
<g>
</g>
<g>
</g>
<g>
</g>
<g>
</g>
<g>
</g>
<g>
</g>
<g>
</g>
<g>
</g>
<g>
</g>
<g>
</g>
<g>
</g>
<g>
</g>
</svg>
