<?xml version="1.0" encoding="iso-8859-1"?>
<!-- Generator: Adobe Illustrator 19.0.0, SVG Export Plug-In . SVG Version: 6.00 Build 0)  -->
<svg version="1.1" id="Layer_1" xmlns="http://www.w3.org/2000/svg" xmlns:xlink="http://www.w3.org/1999/xlink" x="0px" y="0px"
	 viewBox="0 0 512 512" style="enable-background:new 0 0 512 512;" xml:space="preserve">
<rect x="74.523" y="55.613" style="fill:#ffd801;" width="362.957" height="362.957"/>
<g>
	<path style="fill:#242D3C;" d="M493.096,474.191H18.904V0h474.191V474.191z M39.384,453.711h433.231V20.48H39.384V453.711z"/>
	<rect x="29.144" y="108.083" style="fill:#242D3C;" width="45.373" height="20.48"/>
	<rect x="29.144" y="345.651" style="fill:#242D3C;" width="45.373" height="20.48"/>
</g>
<path style="fill:#FFFFFF;" d="M348.161,237.097c0,50.898-41.272,92.16-92.16,92.16s-92.16-41.26-92.16-92.16
	c0-50.888,41.272-92.16,92.16-92.16S348.161,186.207,348.161,237.097z"/>
<g>
	<path style="fill:#242D3C;" d="M262.102,283.904h-12.201c-7.608,0-14.769-2.959-20.157-8.34c-5.396-5.404-8.361-12.57-8.361-20.188
		h20.48c0,2.156,0.837,4.183,2.36,5.704c1.508,1.505,3.528,2.345,5.676,2.345h12.201c2.148,0,4.175-0.84,5.706-2.371
		c1.485-1.487,2.317-3.512,2.317-5.678c0-2.161-0.824-4.173-2.324-5.663c-1.533-1.536-3.553-2.373-5.701-2.373h-12.201
		c-7.624,0-14.787-2.972-20.173-8.374c-5.376-5.361-8.343-12.521-8.343-20.152c0-7.624,2.964-14.792,8.348-20.175
		c5.404-5.391,12.564-8.353,20.168-8.353h12.201c7.601,0,14.756,2.959,20.155,8.328c5.391,5.404,8.351,12.567,8.351,20.201h-20.48
		c0-2.168-0.832-4.193-2.34-5.704c-1.51-1.505-3.538-2.345-5.686-2.345h-12.201c-2.143,0-4.168,0.84-5.693,2.36
		c-1.508,1.508-2.345,3.533-2.345,5.688c0,2.148,0.832,4.16,2.345,5.67c1.533,1.536,3.548,2.373,5.693,2.373h12.201
		c7.621,0,14.784,2.972,20.175,8.364c5.366,5.353,8.33,12.513,8.33,20.152c0,7.624-2.957,14.792-8.32,20.168
		C276.86,280.945,269.702,283.904,262.102,283.904z"/>
	<rect x="245.761" y="181.811" style="fill:#242D3C;" width="20.48" height="18.726"/>
	<rect x="245.761" y="273.664" style="fill:#242D3C;" width="20.48" height="18.726"/>
	<path style="fill:#242D3C;" d="M160.378,512h-96.1v-58.289h96.1C160.378,453.711,160.378,512,160.378,512z M84.758,491.52h55.14
		v-17.329h-55.14V491.52z"/>
	<path style="fill:#242D3C;" d="M447.727,512h-96.1v-58.289h96.1V512z M372.108,491.52h55.14v-17.329h-55.14V491.52z"/>
	<rect x="382.593" y="181.811" style="fill:#242D3C;" width="20.48" height="110.592"/>
</g>
<g>
</g>
<g>
</g>
<g>
</g>
<g>
</g>
<g>
</g>
<g>
</g>
<g>
</g>
<g>
</g>
<g>
</g>
<g>
</g>
<g>
</g>
<g>
</g>
<g>
</g>
<g>
</g>
<g>
</g>
</svg>
