<?xml version="1.0" encoding="iso-8859-1"?>
<!-- Generator: Adobe Illustrator 19.0.0, SVG Export Plug-In . SVG Version: 6.00 Build 0)  -->
<svg version="1.1" id="Layer_1" xmlns="http://www.w3.org/2000/svg" xmlns:xlink="http://www.w3.org/1999/xlink" x="0px" y="0px"
	 viewBox="0 0 512 512" style="enable-background:new 0 0 512 512;" xml:space="preserve">
<g>
	<rect y="208.439" style="fill:#ffd801;" width="56.883" height="123.418"/>
	<rect x="75.85" y="68.548" style="fill:#ffd801;" width="56.883" height="157.747"/>
	<rect x="151.706" y="293.533" style="fill:#ffd801;" width="56.883" height="69.299"/>
	<rect x="227.558" y="112.669" style="fill:#ffd801;" width="56.883" height="71.91"/>
	<rect x="303.411" y="28.445" style="fill:#ffd801;" width="56.883" height="230.707"/>
	<rect x="379.264" y="243.511" style="fill:#ffd801;" width="56.883" height="85.171"/>
	<rect x="455.117" y="156.138" style="fill:#ffd801;" width="56.883" height="146.022"/>
</g>
<g>
	<rect y="350.826" style="fill:#005792;" width="56.883" height="56.883"/>
	<rect x="75.85" y="245.252" style="fill:#005792;" width="56.883" height="162.432"/>
	<rect x="151.706" y="381.802" style="fill:#005792;" width="56.883" height="25.91"/>
	<rect x="227.558" y="203.549" style="fill:#005792;" width="56.883" height="204.16"/>
	<rect x="303.411" y="278.122" style="fill:#005792;" width="56.883" height="129.577"/>
	<rect x="379.264" y="347.652" style="fill:#005792;" width="56.883" height="60.047"/>
	<rect x="455.117" y="321.105" style="fill:#005792;" width="56.883" height="86.592"/>
</g>
<g>
	<rect y="426.679" style="fill:#242D3C;" width="512" height="18.962"/>
	<rect y="464.593" style="fill:#242D3C;" width="18.962" height="18.962"/>
	<rect x="37.926" y="464.593" style="fill:#242D3C;" width="18.962" height="18.962"/>
	<rect x="75.85" y="464.593" style="fill:#242D3C;" width="18.964" height="18.962"/>
	<rect x="113.766" y="464.593" style="fill:#242D3C;" width="18.964" height="18.962"/>
	<rect x="151.706" y="464.593" style="fill:#242D3C;" width="18.962" height="18.962"/>
	<rect x="189.619" y="464.593" style="fill:#242D3C;" width="18.962" height="18.962"/>
	<rect x="227.558" y="464.593" style="fill:#242D3C;" width="18.964" height="18.962"/>
	<rect x="265.472" y="464.593" style="fill:#242D3C;" width="18.962" height="18.962"/>
	<rect x="303.411" y="464.593" style="fill:#242D3C;" width="18.962" height="18.962"/>
	<rect x="341.325" y="464.593" style="fill:#242D3C;" width="18.964" height="18.962"/>
	<rect x="379.264" y="464.593" style="fill:#242D3C;" width="18.962" height="18.962"/>
	<rect x="417.178" y="464.593" style="fill:#242D3C;" width="18.962" height="18.962"/>
	<rect x="455.117" y="464.593" style="fill:#242D3C;" width="18.964" height="18.962"/>
	<rect x="493.03" y="464.593" style="fill:#242D3C;" width="18.962" height="18.962"/>
</g>
<g>
</g>
<g>
</g>
<g>
</g>
<g>
</g>
<g>
</g>
<g>
</g>
<g>
</g>
<g>
</g>
<g>
</g>
<g>
</g>
<g>
</g>
<g>
</g>
<g>
</g>
<g>
</g>
<g>
</g>
</svg>
