<?xml version="1.0" encoding="iso-8859-1"?>
<!-- Generator: Adobe Illustrator 19.0.0, SVG Export Plug-In . SVG Version: 6.00 Build 0)  -->
<svg version="1.1" id="Layer_1" xmlns="http://www.w3.org/2000/svg" xmlns:xlink="http://www.w3.org/1999/xlink" x="0px" y="0px"
	 viewBox="0 0 512 512" style="enable-background:new 0 0 512 512;" xml:space="preserve">
<path style="fill:#005792;" d="M319.636,292.169c0,0.038,0,0.038,0,0.038c-12.918,82.714-30.387,168.591-87.616,168.591h-25.359
	c-36.641,0-47.736-55.183-56.003-108.078c35-124.111,32.581-310.83,91.377-310.83C291.822,41.891,297.743,175.786,319.636,292.169z"
	/>
<g>
	<path style="fill:#ffd801;" d="M512,460.799h-86.313c-62.93,0-89.219-79.096-106.051-168.591c0,0,0,0,0-0.038
		c11.988-76.741,20.032-150.733,52.355-150.733C439.168,141.436,401.633,460.799,512,460.799z"/>
	<path style="fill:#ffd801;" d="M150.659,352.721c-17.431,61.806-44.127,108.078-92.237,108.078H27.927
		c70.451,0,46.508-203.858,89.367-203.858C137.884,256.941,143.025,303.86,150.659,352.721z"/>
</g>
<g>
	<polygon style="fill:#242D3C;" points="512,470.109 18.619,470.109 18.619,41.891 37.235,41.891 37.235,451.488 512,451.488 	"/>
	<rect y="451.48" style="fill:#242D3C;" width="27.927" height="18.619"/>
	<rect y="414.258" style="fill:#242D3C;" width="27.927" height="18.616"/>
	<rect y="377.01" style="fill:#242D3C;" width="27.927" height="18.619"/>
	<rect y="339.788" style="fill:#242D3C;" width="27.927" height="18.616"/>
	<rect y="302.54" style="fill:#242D3C;" width="27.927" height="18.616"/>
	<rect y="265.317" style="fill:#242D3C;" width="27.927" height="18.616"/>
	<rect y="228.069" style="fill:#242D3C;" width="27.927" height="18.619"/>
	<rect y="190.847" style="fill:#242D3C;" width="27.927" height="18.619"/>
	<rect y="153.599" style="fill:#242D3C;" width="27.927" height="18.619"/>
	<rect y="116.351" style="fill:#242D3C;" width="27.927" height="18.616"/>
	<rect y="79.126" style="fill:#242D3C;" width="27.927" height="18.616"/>
	<rect y="41.891" style="fill:#242D3C;" width="27.927" height="18.616"/>
	<rect x="130.327" y="79.126" style="fill:#242D3C;" width="18.616" height="18.616"/>
	<rect x="93.082" y="79.126" style="fill:#242D3C;" width="18.616" height="18.616"/>
	<rect x="55.854" y="79.126" style="fill:#242D3C;" width="18.616" height="18.616"/>
	<rect x="55.854" y="116.351" style="fill:#242D3C;" width="93.082" height="18.616"/>
	<rect x="55.854" y="153.599" style="fill:#242D3C;" width="55.854" height="18.619"/>
</g>
<g>
</g>
<g>
</g>
<g>
</g>
<g>
</g>
<g>
</g>
<g>
</g>
<g>
</g>
<g>
</g>
<g>
</g>
<g>
</g>
<g>
</g>
<g>
</g>
<g>
</g>
<g>
</g>
<g>
</g>
</svg>
