<?xml version="1.0" encoding="iso-8859-1"?>
<!-- Generator: Adobe Illustrator 19.0.0, SVG Export Plug-In . SVG Version: 6.00 Build 0)  -->
<svg version="1.1" id="Capa_1" xmlns="http://www.w3.org/2000/svg" xmlns:xlink="http://www.w3.org/1999/xlink" x="0px" y="0px"
	 viewBox="0 0 512 512" style="enable-background:new 0 0 512 512;" xml:space="preserve">
<g>
	<path style="fill:#403E3E;" d="M184,480c-21.744,0-41.936-8.216-56.856-23.144C112.168,441,104,420.856,104,400V248h16v152
		c0,16.76,6.616,32.992,18.616,45.712C153.712,460.8,171.64,464,184,464c16.76,0,32.992-6.608,45.704-18.616
		C244.8,430.288,248,412.352,248,400V112c0-20.864,8.16-41,22.984-56.688C287,40.168,307.144,32,328,32s41,8.168,56.696,22.984
		C399.832,71,408,91.136,408,112v152h-16V112c0-16.76-6.608-32.992-18.616-45.704C360.992,54.616,344.76,48,328,48
		s-32.992,6.616-45.712,18.616C270.608,79,264,95.232,264,112v288c0,21.736-8.216,41.928-23.144,56.856
		C225,471.832,204.864,480,184,480z"/>
	<rect x="88" y="32" style="fill:#403E3E;" width="16" height="16"/>
	<rect x="120" y="32" style="fill:#403E3E;" width="16" height="16"/>
	<polygon style="fill:#403E3E;" points="168,72 152,72 152,16 72,16 72,72 56,72 56,0 168,0 	"/>
</g>
<g>
	<path style="fill:#ffd801;" d="M144,224H80c-10.392,0-20.36-4.24-28.056-11.944C44.24,204.36,40,194.392,40,184V64h144v120
		c0,10.392-4.24,20.36-11.944,28.056C164.36,219.76,154.392,224,144,224z M56,80v104c0,6.12,2.576,12.064,7.256,16.736
		C67.936,205.424,73.88,208,80,208h64c6.12,0,12.064-2.576,16.736-7.256C165.424,196.064,168,190.12,168,184V80H56z"/>
	<rect x="72" y="96" style="fill:#ffd801;" width="80" height="16"/>
	<rect x="72" y="128" style="fill:#ffd801;" width="80" height="16"/>
	<path style="fill:#ffd801;" d="M128,256H96c-4.376,0-8.056-1.544-11.248-4.736C81.544,248.056,80,244.376,80,240v-24h16v24h32v-24
		h16v24c0,4.376-1.544,8.056-4.736,11.248C136.056,254.456,132.376,256,128,256z"/>
</g>
<g>
	<rect x="408" y="464" style="fill:#403E3E;" width="16" height="16"/>
	<rect x="376" y="464" style="fill:#403E3E;" width="16" height="16"/>
	<polygon style="fill:#403E3E;" points="456,512 344,512 344,440 360,440 360,496 440,496 440,440 456,440 	"/>
</g>
<g>
	<path style="fill:#005792;" d="M472,448H328V328c0-10.392,4.24-20.352,11.944-28.056S357.608,288,368,288h64
		c10.392,0,20.352,4.24,28.056,11.944S472,317.608,472,328V448z M344,432h112V328c0-6.12-2.576-12.064-7.256-16.744
		S438.12,304,432,304h-64c-6.12,0-12.064,2.576-16.744,7.256S344,321.88,344,328V432z"/>
	<rect x="360" y="368" style="fill:#005792;" width="80" height="16"/>
	<rect x="360" y="400" style="fill:#005792;" width="80" height="16"/>
	<path style="fill:#005792;" d="M432,296h-16v-24h-32v24h-16v-24c0-4.384,1.552-8.064,4.744-11.256
		c2.92-2.928,7.232-4.744,11.256-4.744h32c4.384,0,8.072,1.552,11.256,4.744c2.92,2.92,4.744,7.232,4.744,11.256V296z"/>
</g>
<g>
	<rect x="320" y="104" style="fill:#403E3E;" width="16" height="16"/>
	<rect x="320" y="136" style="fill:#403E3E;" width="16" height="16"/>
	<rect x="320" y="168" style="fill:#403E3E;" width="16" height="16"/>
	<rect x="176" y="328" style="fill:#403E3E;" width="16" height="16"/>
	<rect x="176" y="360" style="fill:#403E3E;" width="16" height="16"/>
	<rect x="176" y="392" style="fill:#403E3E;" width="16" height="16"/>
</g>
<path style="fill:#005792;" d="M376,112h-16c0-17.944-14.056-32-32-32s-32,14.056-32,32h-16c0-26.912,21.088-48,48-48
	S376,85.088,376,112z"/>
<path style="fill:#ffd801;" d="M184,448c-26.912,0-48-21.088-48-48h16c0,17.944,14.056,32,32,32s32-14.056,32-32h16
	C232,426.912,210.912,448,184,448z"/>
<g>
</g>
<g>
</g>
<g>
</g>
<g>
</g>
<g>
</g>
<g>
</g>
<g>
</g>
<g>
</g>
<g>
</g>
<g>
</g>
<g>
</g>
<g>
</g>
<g>
</g>
<g>
</g>
<g>
</g>
</svg>
