<?xml version="1.0" encoding="iso-8859-1"?>
<!-- Generator: Adobe Illustrator 19.0.0, SVG Export Plug-In . SVG Version: 6.00 Build 0)  -->
<svg version="1.1" id="Layer_1" xmlns="http://www.w3.org/2000/svg" xmlns:xlink="http://www.w3.org/1999/xlink" x="0px" y="0px"
	 viewBox="0 0 512 512" style="enable-background:new 0 0 512 512;" xml:space="preserve">
<g>
	<rect x="176" y="92" style="fill:#005792;" width="336" height="208"/>
	<polygon style="fill:#005792;" points="472,356 472,300 416,300 	"/>
</g>
<g>
	<rect x="216" y="124" style="fill:#2B2B2B;" width="120" height="16"/>
	<rect x="216" y="156" style="fill:#2B2B2B;" width="256" height="16"/>
	<rect x="216" y="188" style="fill:#2B2B2B;" width="256" height="16"/>
	<rect x="352" y="220" style="fill:#2B2B2B;" width="120" height="16"/>
	<rect x="352" y="252" style="fill:#2B2B2B;" width="120" height="16"/>
</g>
<g>
	<rect y="220" style="fill:#ffd801;" width="336" height="208"/>
	<polygon style="fill:#ffd801;" points="40,484 40,428 96,428 	"/>
</g>
<g>
	<rect x="40" y="380" style="fill:#FFFFFF;" width="192" height="16"/>
	<rect x="40" y="348" style="fill:#FFFFFF;" width="256" height="16"/>
	<rect x="40" y="316" style="fill:#FFFFFF;" width="256" height="16"/>
	<rect x="40" y="284" style="fill:#FFFFFF;" width="120" height="16"/>
	<rect x="40" y="252" style="fill:#FFFFFF;" width="120" height="16"/>
</g>
<rect x="176" y="220" style="fill:#545B17;" width="160" height="80"/>
<g>
	<rect x="216" y="252" style="fill:#FFFFFF;" width="16" height="16"/>
	<rect x="248" y="252" style="fill:#FFFFFF;" width="16" height="16"/>
	<rect x="280" y="252" style="fill:#FFFFFF;" width="16" height="16"/>
</g>
<g>
	<polygon style="fill:#2B2B2B;" points="72,204 56,204 56,28 400,28 400,76 384,76 384,44 72,44 	"/>
	<rect x="96" y="60" style="fill:#2B2B2B;" width="264" height="16"/>
	<rect x="96" y="92" style="fill:#2B2B2B;" width="64" height="16"/>
	<rect x="96" y="124" style="fill:#2B2B2B;" width="64" height="16"/>
	<rect x="96" y="156" style="fill:#2B2B2B;" width="64" height="16"/>
	<rect x="96" y="188" style="fill:#2B2B2B;" width="64" height="16"/>
	<rect x="368" y="348" style="fill:#2B2B2B;" width="48" height="16"/>
	<rect x="368" y="380" style="fill:#2B2B2B;" width="120" height="16"/>
	<rect x="368" y="412" style="fill:#2B2B2B;" width="120" height="16"/>
	<rect x="296" y="444" style="fill:#2B2B2B;" width="192" height="16"/>
</g>
<g>
</g>
<g>
</g>
<g>
</g>
<g>
</g>
<g>
</g>
<g>
</g>
<g>
</g>
<g>
</g>
<g>
</g>
<g>
</g>
<g>
</g>
<g>
</g>
<g>
</g>
<g>
</g>
<g>
</g>
</svg>
