<?xml version="1.0" encoding="iso-8859-1"?>
<!-- Generator: Adobe Illustrator 19.0.0, SVG Export Plug-In . SVG Version: 6.00 Build 0)  -->
<svg version="1.1" id="Layer_1" xmlns="http://www.w3.org/2000/svg" xmlns:xlink="http://www.w3.org/1999/xlink" x="0px" y="0px"
	 viewBox="0 0 512 512" style="enable-background:new 0 0 512 512;" xml:space="preserve">
<g>
	<path style="fill:#242D3C;" d="M251.254,485.912c-3.3,0-6.584-0.061-9.853-0.189l0.742-18.947c3.023,0.12,6.06,0.174,9.111,0.174
		V485.912z"/>
	<path style="fill:#242D3C;" d="M221.734,484.197c-6.502-0.763-13.059-1.792-19.484-3.062l3.674-18.601
		c5.939,1.17,12.001,2.122,18.01,2.826L221.734,484.197z M183.06,476.543c-6.326-1.777-12.641-3.83-18.77-6.088l6.561-17.792
		c5.663,2.086,11.497,3.986,17.341,5.629L183.06,476.543z M146.063,462.895c-5.939-2.737-11.85-5.755-17.577-8.965l9.277-16.543
		c5.292,2.972,10.76,5.76,16.241,8.292L146.063,462.895z M111.672,443.603c-5.44-3.64-10.808-7.542-15.946-11.599l11.743-14.886
		c4.759,3.753,9.72,7.363,14.751,10.732L111.672,443.603z M80.732,419.191c-4.797-4.434-9.49-9.126-13.947-13.942l13.919-12.879
		c4.127,4.46,8.466,8.796,12.9,12.895L80.732,419.191z M53.97,390.26c-4.058-5.133-7.962-10.496-11.615-15.941l15.757-10.555
		c3.374,5.038,6.986,9.994,10.732,14.74L53.97,390.26z M32.036,357.518c-3.215-5.722-6.234-11.633-8.973-17.569l17.213-7.946
		c2.534,5.481,5.322,10.941,8.292,16.233L32.036,357.518z M15.503,321.74c-2.276-6.144-4.326-12.457-6.095-18.755l18.25-5.143
		c1.636,5.819,3.533,11.645,5.629,17.326L15.503,321.74z M4.808,283.8c-1.275-6.423-2.307-12.972-3.075-19.479l18.836-2.214
		c0.704,6.016,1.659,12.073,2.836,18.007L4.808,283.8z"/>
	<path style="fill:#242D3C;" d="M0.192,244.515C0.061,241.248,0,237.964,0,234.666h18.962c0,3.052,0.059,6.093,0.177,9.114
		L0.192,244.515z"/>
	<rect x="241.766" y="466.943" style="fill:#242D3C;" width="18.954" height="18.962"/>
	<rect y="225.184" style="fill:#242D3C;" width="18.962" height="18.962"/>
</g>
<path style="fill:#005792;" d="M322.834,346.464c-20.657,13.251-45.212,20.948-71.57,20.948
	c-70.116,0-127.493-54.385-132.367-123.256H42.918c4.961,110.789,96.33,199.104,208.348,199.104
	c47.34,0,90.977-15.798,125.98-42.376L322.834,346.464z"/>
<path style="fill:#ffd801;" d="M322.834,122.884l54.413-54.42c-35.005-26.578-78.643-42.376-125.98-42.376
	c-112.018,0-203.387,88.315-208.348,199.104h75.983c4.867-68.872,62.249-123.256,132.367-123.256
	C277.622,101.935,302.177,109.633,322.834,122.884z"/>
<g>
	<path style="fill:#242D3C;" d="M251.267,310.524c-41.82,0-75.848-34.025-75.848-75.85s34.028-75.85,75.848-75.85v18.962
		c-31.368,0-56.886,25.518-56.886,56.888s25.518,56.888,56.886,56.888V310.524z"/>
	<path style="fill:#242D3C;" d="M428.928,425.742L237.86,234.674L428.928,43.606l6.705,6.705
		C484.877,99.555,512,165.032,512,234.674s-27.123,135.117-76.367,184.366L428.928,425.742z M264.676,234.674l164.127,164.124
		c41.495-44.803,64.236-102.715,64.236-164.124s-22.74-119.322-64.236-164.124L264.676,234.674z"/>
	<rect x="251.264" y="225.189" style="fill:#242D3C;" width="109.033" height="18.962"/>
	<rect x="455.117" y="225.192" style="fill:#242D3C;" width="18.962" height="18.962"/>
	<rect x="417.178" y="225.192" style="fill:#242D3C;" width="18.962" height="18.962"/>
	<rect x="379.264" y="225.192" style="fill:#242D3C;" width="18.962" height="18.962"/>
</g>
<g>
</g>
<g>
</g>
<g>
</g>
<g>
</g>
<g>
</g>
<g>
</g>
<g>
</g>
<g>
</g>
<g>
</g>
<g>
</g>
<g>
</g>
<g>
</g>
<g>
</g>
<g>
</g>
<g>
</g>
</svg>
