<?xml version="1.0" encoding="iso-8859-1"?>
<!-- Generator: Adobe Illustrator 19.0.0, SVG Export Plug-In . SVG Version: 6.00 Build 0)  -->
<svg version="1.1" id="Layer_1" xmlns="http://www.w3.org/2000/svg" xmlns:xlink="http://www.w3.org/1999/xlink" x="0px" y="0px"
	 viewBox="0 0 512 512" style="enable-background:new 0 0 512 512;" xml:space="preserve">
<g>
	<rect x="247.168" y="129.587" style="fill:#242D3C;" width="17.656" height="17.654"/>
	<rect x="225.971" y="463.872" style="fill:#242D3C;" width="60.027" height="17.654"/>
	<path style="fill:#242D3C;" d="M363.958,512H148.055c-25.213,0-45.724-20.485-45.724-45.67V144.822
		c0-25.208,20.511-45.716,45.724-45.716h215.903c25.206,0,45.711,20.511,45.711,45.716V466.33
		C409.669,491.515,389.164,512,363.958,512z M148.055,116.759c-15.475,0-28.068,12.59-28.068,28.063V466.33
		c0,15.45,12.593,28.014,28.068,28.014h215.903c15.47,0,28.058-12.564,28.058-28.014V144.822c0-15.473-12.588-28.063-28.058-28.063
		H148.055z"/>
</g>
<rect x="143.025" y="160.077" style="fill:#ffd801;" width="225.946" height="290.97"/>
<g>
	<path style="fill:#242D3C;" d="M311.926,40.863C296.983,25.897,277.12,17.654,256,17.654s-40.983,8.241-55.923,23.206
		l-12.498-12.477C205.86,10.081,230.159,0,256,0c25.843,0,50.143,10.081,68.421,28.385L311.926,40.863z"/>
	<path style="fill:#242D3C;" d="M288.62,64.182c-8.737-8.732-20.321-13.542-32.62-13.542c-12.303,0-23.89,4.808-32.622,13.537
		l-12.483-12.483C222.961,39.629,238.979,32.983,256,32.983c17.014,0,33.029,6.646,45.102,18.706L288.62,64.182z"/>
	<path style="fill:#242D3C;" d="M265.311,87.493c-4.984-4.982-13.637-4.974-18.611-0.005l-12.49-12.477
		c5.821-5.827,13.558-9.034,21.791-9.034c8.225,0,15.962,3.205,21.786,9.027L265.311,87.493z"/>
</g>
<path style="fill:#FFFFFF;" d="M331.917,270.241c0,41.928-33.999,75.914-75.917,75.914c-41.92,0-75.917-33.987-75.917-75.914
	c0-41.925,33.997-75.919,75.917-75.919C297.917,194.324,331.917,228.319,331.917,270.241z"/>
<g>
	<path style="fill:#242D3C;" d="M261.025,309.192h-10.048c-6.372,0-12.37-2.478-16.883-6.986
		c-4.516-4.523-6.999-10.522-6.999-16.906h17.656c0,1.669,0.648,3.241,1.823,4.419c1.172,1.17,2.737,1.818,4.403,1.818h10.048
		c1.664,0,3.233-0.653,4.421-1.83c1.155-1.16,1.8-2.726,1.8-4.406c0-1.672-0.643-3.233-1.807-4.401
		c-1.183-1.183-2.747-1.83-4.413-1.83h-10.048c-6.385,0-12.383-2.491-16.893-7.007c-4.503-4.5-6.989-10.496-6.989-16.886
		c0-6.382,2.483-12.383,6.989-16.893c4.531-4.518,10.527-6.996,16.893-6.996h10.048c6.359,0,12.357,2.478,16.878,6.979
		c4.524,4.529,6.996,10.527,6.996,16.909h-17.654c0-1.674-0.645-3.244-1.818-4.421c-1.17-1.162-2.742-1.812-4.403-1.812h-10.048
		c-1.661,0-3.231,0.65-4.419,1.83c-1.162,1.165-1.81,2.734-1.81,4.403c0,1.669,0.643,3.231,1.815,4.403
		c1.185,1.188,2.749,1.836,4.411,1.836h10.048c6.385,0,12.385,2.486,16.896,7.002c4.5,4.495,6.981,10.491,6.981,16.883
		c0,6.382-2.476,12.383-6.976,16.891C273.39,306.716,267.392,309.192,261.025,309.192z"/>
	<rect x="247.168" y="224.691" style="fill:#242D3C;" width="17.654" height="15.437"/>
	<rect x="247.168" y="300.365" style="fill:#242D3C;" width="17.654" height="15.437"/>
	<rect x="199.503" y="371.584" style="fill:#242D3C;" width="112.998" height="17.654"/>
</g>
<rect x="225.997" y="406.886" style="fill:#FFFFFF;" width="60.029" height="17.654"/>
<g>
</g>
<g>
</g>
<g>
</g>
<g>
</g>
<g>
</g>
<g>
</g>
<g>
</g>
<g>
</g>
<g>
</g>
<g>
</g>
<g>
</g>
<g>
</g>
<g>
</g>
<g>
</g>
<g>
</g>
</svg>
