<?xml version="1.0" encoding="iso-8859-1"?>
<!-- Generator: Adobe Illustrator 19.0.0, SVG Export Plug-In . SVG Version: 6.00 Build 0)  -->
<svg version="1.1" id="Layer_1" xmlns="http://www.w3.org/2000/svg" xmlns:xlink="http://www.w3.org/1999/xlink" x="0px" y="0px"
	 viewBox="0 0 512 512" style="enable-background:new 0 0 512 512;" xml:space="preserve">
<rect x="40.96" y="143.36" style="fill:#ffd801;" width="20.48" height="307.2"/>
<rect x="81.92" y="71.219" style="fill:#242D3C;" width="20.48" height="379.341"/>
<rect x="122.88" y="123.776" style="fill:#005792;" width="20.48" height="326.784"/>
<rect x="163.84" y="233.472" style="fill:#ffd801;" width="20.48" height="217.088"/>
<rect x="204.8" y="306.688" style="fill:#242D3C;" width="20.48" height="143.872"/>
<rect x="245.76" y="253.261" style="fill:#005792;" width="20.48" height="197.299"/>
<rect x="286.72" y="20.48" style="fill:#ffd801;" width="20.48" height="430.08"/>
<rect x="327.68" y="134.477" style="fill:#242D3C;" width="20.48" height="316.083"/>
<rect x="368.64" y="80.556" style="fill:#005792;" width="20.48" height="369.997"/>
<rect x="409.6" y="199.34" style="fill:#ffd801;" width="20.48" height="251.213"/>
<rect x="450.56" y="165.197" style="fill:#242D3C;" width="20.48" height="285.363"/>
<rect x="491.52" y="140.628" style="fill:#005792;" width="20.48" height="309.939"/>
<g>
	<rect y="471.04" style="fill:#242D3C;" width="512" height="20.48"/>
	<rect y="20.48" style="fill:#242D3C;" width="20.48" height="20.48"/>
	<rect y="61.44" style="fill:#242D3C;" width="20.48" height="20.477"/>
	<rect y="102.4" style="fill:#242D3C;" width="20.48" height="20.48"/>
	<rect y="143.36" style="fill:#242D3C;" width="20.48" height="20.48"/>
	<rect y="184.32" style="fill:#242D3C;" width="20.48" height="20.48"/>
	<rect y="225.28" style="fill:#242D3C;" width="20.48" height="20.48"/>
	<rect y="266.24" style="fill:#242D3C;" width="20.48" height="20.48"/>
	<rect y="307.2" style="fill:#242D3C;" width="20.48" height="20.48"/>
	<rect y="348.16" style="fill:#242D3C;" width="20.48" height="20.48"/>
	<rect y="389.12" style="fill:#242D3C;" width="20.48" height="20.48"/>
	<rect y="430.08" style="fill:#242D3C;" width="20.48" height="20.475"/>
</g>
<g>
</g>
<g>
</g>
<g>
</g>
<g>
</g>
<g>
</g>
<g>
</g>
<g>
</g>
<g>
</g>
<g>
</g>
<g>
</g>
<g>
</g>
<g>
</g>
<g>
</g>
<g>
</g>
<g>
</g>
</svg>
