<?xml version="1.0" encoding="iso-8859-1"?>
<!-- Generator: Adobe Illustrator 19.0.0, SVG Export Plug-In . SVG Version: 6.00 Build 0)  -->
<svg version="1.1" id="Capa_1" xmlns="http://www.w3.org/2000/svg" xmlns:xlink="http://www.w3.org/1999/xlink" x="0px" y="0px"
	 viewBox="0 0 512 512" style="enable-background:new 0 0 512 512;" xml:space="preserve">
<g>
	<path style="fill:#403E3E;" d="M472,448h-16V192c0-2.016-0.848-3.936-2.464-5.544c-1.6-1.608-3.52-2.456-5.536-2.456H64
		c-2.016,0-3.936,0.848-5.544,2.456C56.848,188.064,56,189.984,56,192v256H40V192c0-6.264,2.536-12.248,7.144-16.856
		S57.736,168,64,168h384c6.256,0,12.248,2.536,16.856,7.144C469.472,179.752,472,185.736,472,192V448z"/>
	<path style="fill:#403E3E;" d="M472,504H40c-10.392,0-20.352-4.24-28.056-11.944C4.24,484.36,0,474.392,0,464v-24h195.312l16,16
		h89.376l16-16H512v24c0,10.392-4.24,20.352-11.944,28.056S482.392,504,472,504z M16,456v8c0,6.12,2.576,12.064,7.256,16.744
		S33.88,488,40,488h432c6.12,0,12.064-2.576,16.744-7.256S496,470.12,496,464v-8H323.312l-16,16H204.688l-16-16H16z"/>
</g>
<polygon style="fill:#005792;" points="432,264 416,264 416,224 96,224 96,264 80,264 80,208 432,208 "/>
<g>
	<rect x="280" y="400" style="fill:#403E3E;" width="16" height="16"/>
	<rect x="248" y="400" style="fill:#403E3E;" width="16" height="16"/>
	<rect x="216" y="400" style="fill:#403E3E;" width="16" height="16"/>
</g>
<g>
	<polygon style="fill:#005792;" points="200,416 80,416 80,360 96,360 96,400 200,400 	"/>
	<polygon style="fill:#005792;" points="432,416 312,416 312,400 416,400 416,360 432,360 	"/>
</g>
<g>
	<path style="fill:#ffd801;" d="M256,384c-39.696,0-72-32.296-72-72s32.304-72,72-72c39.704,0,72,32.296,72,72S295.704,384,256,384z
		 M256,256c-30.88,0-56,25.128-56,56s25.12,56,56,56c30.872,0,56-25.128,56-56S286.872,256,256,256z"/>
	<g transform="matrix(0.7071 -0.7071 0.7071 0.7071 -18.205 34.05)">
		<rect x="-10.652" y="356.485" style="fill:#ffd801;" width="16" height="67.88"/>
		<rect x="-36.596" y="382.429" style="fill:#ffd801;" width="67.88" height="16"/>
	</g>
	<rect x="320" y="304" style="fill:#ffd801;" width="80" height="16"/>
</g>
<rect x="416" y="304" style="fill:#403E3E;" width="16" height="16"/>
<rect x="112" y="304" style="fill:#ffd801;" width="80" height="16"/>
<rect x="80" y="304" style="fill:#403E3E;" width="16" height="16"/>
<g>
	<path style="fill:#005792;" d="M376,128h-16c0-57.344-46.656-104-104-104S152,70.656,152,128h-16C136,61.832,189.832,8,256,8
		S376,61.832,376,128z"/>
	<path style="fill:#005792;" d="M344,128h-16c0-39.696-32.296-72-72-72c-39.696,0-72,32.304-72,72h-16c0-48.52,39.48-88,88-88
		S344,79.48,344,128z"/>
	<path style="fill:#005792;" d="M312,128h-16c0-22.056-17.944-40-40-40s-40,17.944-40,40h-16c0-30.88,25.12-56,56-56
		C286.872,72,312,97.12,312,128z"/>
</g>
<path style="fill:#403E3E;" d="M256,152c-13.232,0-24-10.768-24-24s10.768-24,24-24s24,10.768,24,24S269.232,152,256,152z M256,120
	c-4.408,0-8,3.592-8,8c0,4.408,3.592,8,8,8c4.408,0,8-3.592,8-8S260.408,120,256,120z"/>
<g>
</g>
<g>
</g>
<g>
</g>
<g>
</g>
<g>
</g>
<g>
</g>
<g>
</g>
<g>
</g>
<g>
</g>
<g>
</g>
<g>
</g>
<g>
</g>
<g>
</g>
<g>
</g>
<g>
</g>
</svg>
