<?xml version="1.0" encoding="iso-8859-1"?>
<!-- Generator: Adobe Illustrator 19.0.0, SVG Export Plug-In . SVG Version: 6.00 Build 0)  -->
<svg version="1.1" id="Layer_1" xmlns="http://www.w3.org/2000/svg" xmlns:xlink="http://www.w3.org/1999/xlink" x="0px" y="0px"
	 viewBox="0 0 512.01 512.01" style="enable-background:new 0 0 512.01 512.01;" xml:space="preserve">
<g>
	<rect x="227.558" y="151.706" style="fill:#005792;" width="75.853" height="75.85"/>
	<rect x="322.381" y="85.325" style="fill:#005792;" width="75.853" height="142.208"/>
	<rect x="417.178" y="18.962" style="fill:#005792;" width="75.853" height="208.589"/>
</g>
<g>
	<rect x="227.558" y="284.442" style="fill:#ffd801;" width="75.853" height="75.853"/>
	<rect x="132.741" y="284.442" style="fill:#ffd801;" width="75.85" height="142.234"/>
	<rect x="37.926" y="284.442" style="fill:#ffd801;" width="75.85" height="208.589"/>
</g>
<g>
	<rect x="9.482" y="246.528" style="fill:#242D3C;" width="502.528" height="18.964"/>
	<rect y="18.962" style="fill:#242D3C;" width="18.962" height="474.086"/>
	<rect x="474.086" y="474.086" style="fill:#242D3C;" width="18.962" height="18.962"/>
	<rect x="436.147" y="474.086" style="fill:#242D3C;" width="18.962" height="18.962"/>
	<rect x="398.234" y="474.086" style="fill:#242D3C;" width="18.962" height="18.962"/>
	<rect x="37.926" y="18.962" style="fill:#242D3C;" width="18.962" height="18.964"/>
	<rect x="37.926" y="56.883" style="fill:#242D3C;" width="18.962" height="18.962"/>
	<rect x="37.926" y="94.822" style="fill:#242D3C;" width="18.962" height="18.962"/>
	<rect x="75.85" y="18.962" style="fill:#242D3C;" width="151.706" height="18.964"/>
	<rect x="75.85" y="56.883" style="fill:#242D3C;" width="151.706" height="18.962"/>
	<rect x="75.85" y="94.822" style="fill:#242D3C;" width="151.706" height="18.962"/>
</g>
<g>
</g>
<g>
</g>
<g>
</g>
<g>
</g>
<g>
</g>
<g>
</g>
<g>
</g>
<g>
</g>
<g>
</g>
<g>
</g>
<g>
</g>
<g>
</g>
<g>
</g>
<g>
</g>
<g>
</g>
</svg>
