<?xml version="1.0" encoding="iso-8859-1"?>
<!-- Generator: Adobe Illustrator 19.0.0, SVG Export Plug-In . SVG Version: 6.00 Build 0)  -->
<svg version="1.1" id="Capa_1" xmlns="http://www.w3.org/2000/svg" xmlns:xlink="http://www.w3.org/1999/xlink" x="0px" y="0px"
	 viewBox="0 0 512 512" style="enable-background:new 0 0 512 512;" xml:space="preserve">
<g>
	<path style="fill:#005792;" d="M192,112h-16c0-44.112,35.888-80,80-80v16C220.712,48,192,76.712,192,112z"/>
	<path style="fill:#005792;" d="M440,296h-72v-16h72c30.872,0,56-25.12,56-56s-25.128-56-56-56h-2.4
		c-2.568,0-4.984-1.24-6.496-3.328c-1.504-2.088-1.912-4.768-1.096-7.208C431.296,153.624,432,148.84,432,144
		c0-30.88-25.128-56-56-56c-6.928,0-12.224,0.832-17.192,2.688c-2.064,0.776-4.368,0.664-6.376-0.336
		c-1.984-0.992-3.472-2.76-4.104-4.888C336.208,44.568,298.24,16,256,16s-80.208,28.568-92.328,69.472
		c-0.632,2.128-2.12,3.896-4.104,4.888c-1.984,0.992-4.304,1.112-6.376,0.336C148.232,88.832,142.928,88,136,88
		c-30.88,0-56,25.12-56,56c0,4.832,0.704,9.624,1.992,13.472c0.816,2.44,0.4,5.12-1.104,7.208S76.968,168,74.4,168H72
		c-30.88,0-56,25.12-56,56s25.12,56,56,56h72v16H72c-39.696,0-72-32.304-72-72c0-37.176,28.328-67.872,64.536-71.616
		C64.176,149.664,64,146.848,64,144c0-39.696,32.304-72,72-72c5.544,0,10.36,0.44,14.856,1.392C167.208,29.808,209.36,0,256,0
		s88.8,29.808,105.144,73.392C365.632,72.44,370.456,72,376,72c39.704,0,72,32.304,72,72c0,2.848-0.176,5.664-0.528,8.384
		C483.672,156.128,512,186.824,512,224C512,263.696,479.704,296,440,296z"/>
</g>
<g>
	<path style="fill:#ffd801;" d="M144,448H0v-80h144V448z M16,432h112v-48H16V432z"/>
	<polygon style="fill:#ffd801;" points="144,512 0,512 0,464 16,464 16,496 128,496 128,464 144,464 	"/>
</g>
<g>
	<rect x="32" y="400" style="fill:#403E3E;" width="16" height="16"/>
	<rect x="32" y="464" style="fill:#403E3E;" width="16" height="16"/>
</g>
<g>
	<path style="fill:#ffd801;" d="M328,448H184v-80h144V448z M200,432h112v-48H200V432z"/>
	<polygon style="fill:#ffd801;" points="328,512 184,512 184,464 200,464 200,496 312,496 312,464 328,464 	"/>
</g>
<g>
	<rect x="216" y="400" style="fill:#403E3E;" width="16" height="16"/>
	<rect x="216" y="464" style="fill:#403E3E;" width="16" height="16"/>
</g>
<g>
	<path style="fill:#ffd801;" d="M512,448H368v-80h144V448z M384,432h112v-48H384V432z"/>
	<polygon style="fill:#ffd801;" points="512,512 368,512 368,464 384,464 384,496 496,496 496,464 512,464 	"/>
</g>
<g>
	<rect x="400" y="400" style="fill:#403E3E;" width="16" height="16"/>
	<rect x="400" y="464" style="fill:#403E3E;" width="16" height="16"/>
	<polygon style="fill:#403E3E;" points="448,352 432,352 432,328 80,328 80,352 64,352 64,312 448,312 	"/>
	<rect x="248" y="320" style="fill:#403E3E;" width="16" height="32"/>
	<rect x="160" y="264" style="fill:#403E3E;" width="16" height="56"/>
	<rect x="336" y="264" style="fill:#403E3E;" width="16" height="56"/>
	<rect x="216" y="280" style="fill:#403E3E;" width="16" height="16"/>
	<rect x="248" y="280" style="fill:#403E3E;" width="16" height="16"/>
	<rect x="280" y="280" style="fill:#403E3E;" width="16" height="16"/>
</g>
<g>
</g>
<g>
</g>
<g>
</g>
<g>
</g>
<g>
</g>
<g>
</g>
<g>
</g>
<g>
</g>
<g>
</g>
<g>
</g>
<g>
</g>
<g>
</g>
<g>
</g>
<g>
</g>
<g>
</g>
</svg>
