<?xml version="1.0" encoding="iso-8859-1"?>
<!-- Generator: Adobe Illustrator 19.0.0, SVG Export Plug-In . SVG Version: 6.00 Build 0)  -->
<svg version="1.1" id="Layer_1" xmlns="http://www.w3.org/2000/svg" xmlns:xlink="http://www.w3.org/1999/xlink" x="0px" y="0px"
	 viewBox="0 0 512 512" style="enable-background:new 0 0 512 512;" xml:space="preserve">
<circle style="fill:#ffd801;" cx="256" cy="136" r="40"/>
<g>
	<path style="fill:#2B2B2B;" d="M328,136h-16c0-31.2-24.8-56-56-56s-56,24.8-56,56h-16c0-40,32-72,72-72S328,96,328,136z"/>
	<path style="fill:#2B2B2B;" d="M360,136h-16c0-48.8-39.2-88-88-88s-88,39.2-88,88h-16c0-57.6,46.4-104,104-104S360,78.4,360,136z"
		/>
	<path style="fill:#2B2B2B;" d="M392,136h-16c0-66.4-53.6-120-120-120S136,69.6,136,136h-16C120,60.8,180.8,0,256,0
		S392,60.8,392,136z"/>
</g>
<rect x="248" y="128" style="fill:#FFFFFF;" width="16" height="16"/>
<path style="fill:#E3E3E3;" d="M381.6,194.4c-1.6-1.6-4-2.4-5.6-2.4H136c-2.4,0-4,0.8-5.6,2.4s-2.4,4-2.4,5.6v192h256V200
	C384,197.6,383.2,196,381.6,194.4z"/>
<path style="fill:#ffd801;" d="M128,376v32c0,16,6.4,32.8,18.4,45.6c12.8,12.8,28.8,18.4,45.6,18.4h128c16,0,32.8-6.4,45.6-18.4
	c12.8-12.8,18.4-28.8,18.4-45.6v-32H128z"/>
<path style="fill:#2B2B2B;" d="M400,392h-16v-16h16c6.4,0,12.8-2.4,16.8-7.2c4.8-4.8,7.2-10.4,7.2-16.8v-80c0-6.4-2.4-12.8-7.2-16.8
	S406.4,248,400,248h-16v-16h16c10.4,0,20.8,4,28,12c7.2,7.2,12,17.6,12,28v80c0,10.4-4,20.8-12,28C420.8,388,410.4,392,400,392z"/>
<g>
	<rect x="216" y="416" style="fill:#FFFFFF;" width="16" height="16"/>
	<rect x="248" y="416" style="fill:#FFFFFF;" width="16" height="16"/>
	<rect x="280" y="416" style="fill:#FFFFFF;" width="16" height="16"/>
</g>
<path style="fill:#E35B17;" d="M328,376H128v16h200v16c0,16-6.4,32.8-18.4,45.6C296.8,466.4,280.8,472,264,472h56
	c16,0,32.8-6.4,45.6-18.4c12.8-12.8,18.4-28.8,18.4-45.6v-32H328z"/>
<path style="fill:#CACACA;" d="M381.6,194.4c-1.6-1.6-4-2.4-5.6-2.4h-56c2.4,0,4,0.8,5.6,2.4s2.4,4,2.4,5.6v176h56V200
	C384,197.6,383.2,196,381.6,194.4z"/>
<path style="fill:#2B2B2B;" d="M408,512H104c-24.8,0-47.2-12.8-62.4-35.2l-1.6-2.4V456h80v16H57.6c8.8,12,24,24,46.4,24h304
	c22.4,0,36.8-12,46.4-24H392v-16h80v18.4l-1.6,2.4C455.2,499.2,432.8,512,408,512z"/>
<g>
</g>
<g>
</g>
<g>
</g>
<g>
</g>
<g>
</g>
<g>
</g>
<g>
</g>
<g>
</g>
<g>
</g>
<g>
</g>
<g>
</g>
<g>
</g>
<g>
</g>
<g>
</g>
<g>
</g>
</svg>
