<?xml version="1.0" encoding="iso-8859-1"?>
<!-- Generator: Adobe Illustrator 19.0.0, SVG Export Plug-In . SVG Version: 6.00 Build 0)  -->
<svg version="1.1" id="Capa_1" xmlns="http://www.w3.org/2000/svg" xmlns:xlink="http://www.w3.org/1999/xlink" x="0px" y="0px"
	 viewBox="0 0 512 512" style="enable-background:new 0 0 512 512;" xml:space="preserve">
<path style="fill:#005792;" d="M472,384H40v-16c6.12,0,12.064-2.576,16.744-7.256S64,350.12,64,344V16h138.664l64,48H512v280
	c0,10.392-4.24,20.352-11.944,28.056S482.392,384,472,384z M71.632,368H472c6.12,0,12.064-2.576,16.744-7.256S496,350.12,496,344V80
	H261.336l-64-48H80v312C80,352.648,77.064,361,71.632,368z"/>
<g>
	<rect x="272" y="32" style="fill:#403E3E;" width="240" height="16"/>
	<path style="fill:#403E3E;" d="M40,384c-10.392,0-20.352-4.24-28.056-11.944C4.24,364.36,0,354.392,0,344V32h48v16H16v296
		c0,6.12,2.576,12.064,7.256,16.744S33.88,368,40,368V384z"/>
	<rect x="96" y="64" style="fill:#403E3E;" width="96" height="16"/>
	<rect x="96" y="96" style="fill:#403E3E;" width="48" height="16"/>
	<rect x="72" y="448" style="fill:#403E3E;" width="184" height="16"/>
</g>
<g>
	<path style="fill:#ffd801;" d="M472,496H280v-80h192c10.392,0,20.352,4.24,28.056,11.944S512,445.608,512,456
		s-4.24,20.352-11.944,28.056S482.392,496,472,496z M296,480h176c6.12,0,12.064-2.576,16.744-7.256S496,462.12,496,456
		s-2.576-12.064-7.256-16.744S478.12,432,472,432H296V480z"/>
	<path style="fill:#ffd801;" d="M296,480h-48v-48h48V480z M264,464h16v-16h-16V464z"/>
</g>
<g>
	<path style="fill:#403E3E;" d="M58.744,480.568L0,470.776v-29.544l58.744-9.8L83.312,456L58.744,480.568z M16,457.224l37.256,6.2
		L60.688,456l-7.432-7.432L16,454.776V457.224z"/>
	<rect x="344" y="448" style="fill:#403E3E;" width="16" height="16"/>
	<rect x="376" y="448" style="fill:#403E3E;" width="16" height="16"/>
	<rect x="408" y="448" style="fill:#403E3E;" width="16" height="16"/>
</g>
<rect x="312" y="424" style="fill:#ffd801;" width="16" height="64"/>
<path style="fill:#403E3E;" d="M302.248,328h-28.504l-6.696-26.808c-6.504-1.632-12.976-4.28-19.096-7.816l-23.568,14.32
	l-20.088-20.088l14.392-23.712c-3.064-5.504-6.024-11.784-7.872-18.96L184,238.248v-28.496l26.808-6.696
	c1.632-6.504,4.28-12.984,7.808-19.096l-14.312-23.568l20.088-20.088l23.704,14.392c5.504-3.064,11.784-6.024,18.952-7.872
	L273.752,120h28.504l6.696,26.808c6.504,1.632,12.976,4.28,19.096,7.808l23.576-14.312l20.088,20.088l-14.4,23.704
	c3.064,5.504,6.024,11.784,7.872,18.96L392,209.752v28.496l-26.808,6.696c-1.632,6.504-4.28,12.976-7.816,19.096l14.32,23.576
	l-20.088,20.088l-23.712-14.4c-5.504,3.064-11.792,6.024-18.952,7.872L302.248,328z M286.248,312h3.504l6.16-24.632l5.176-0.856
	c8.736-1.464,16.128-5.368,22.8-9.368l4.144-2.488l21.16,12.84l2.32-2.32L338.528,263.8l2.832-4.24
	c3.296-4.944,7.56-12.856,9.168-22.48l0.856-5.168l24.616-6.16v-3.504l-24.632-6.16l-0.856-5.168
	c-1.464-8.744-5.368-16.128-9.368-22.808l-2.488-4.144l12.84-21.16l-2.32-2.32l-21.384,12.984l-4.232-2.824
	c-4.944-3.296-12.856-7.56-22.48-9.168l-5.176-0.856L289.752,136h-3.504l-6.16,24.632l-5.176,0.856
	c-8.744,1.456-16.128,5.36-22.8,9.368l-4.144,2.488l-21.16-12.848l-2.32,2.32l12.984,21.384l-2.824,4.24
	c-3.296,4.944-7.56,12.856-9.168,22.48l-0.856,5.176L200,222.248v3.504l24.632,6.16l0.856,5.176c1.456,8.744,5.36,16.128,9.368,22.8
	l2.488,4.144l-12.848,21.16l2.32,2.32l21.384-12.984l4.24,2.832c4.944,3.296,12.856,7.56,22.48,9.168l5.176,0.856L286.248,312z"/>
<path style="fill:#ffd801;" d="M288,272c-26.472,0-48-21.528-48-48s21.528-48,48-48s48,21.528,48,48S314.472,272,288,272z M288,192
	c-17.648,0-32,14.352-32,32s14.352,32,32,32s32-14.352,32-32S305.648,192,288,192z"/>
<rect x="280" y="216" style="fill:#403E3E;" width="16" height="16"/>
<g>
</g>
<g>
</g>
<g>
</g>
<g>
</g>
<g>
</g>
<g>
</g>
<g>
</g>
<g>
</g>
<g>
</g>
<g>
</g>
<g>
</g>
<g>
</g>
<g>
</g>
<g>
</g>
<g>
</g>
</svg>
