<?xml version="1.0" encoding="iso-8859-1"?>
<!-- Generator: Adobe Illustrator 19.0.0, SVG Export Plug-In . SVG Version: 6.00 Build 0)  -->
<svg version="1.1" id="Layer_1" xmlns="http://www.w3.org/2000/svg" xmlns:xlink="http://www.w3.org/1999/xlink" x="0px" y="0px"
	 viewBox="0 0 512 512" style="enable-background:new 0 0 512 512;" xml:space="preserve">
<g>
	<path style="fill:#005792;" d="M120.617,197.842c-13.299,0-25.8-5.179-35.182-14.566c-9.385-9.395-14.574-21.891-14.574-35.185
		V93.125c0-13.292,5.192-25.784,14.574-35.174c9.382-9.395,21.883-14.574,35.182-14.574c13.284,0,25.774,5.179,35.167,14.574
		c9.408,9.39,14.574,21.883,14.574,35.174v54.966c0,13.292-5.169,25.787-14.574,35.185
		C146.391,192.663,133.901,197.842,120.617,197.842z"/>
	<path style="fill:#005792;" d="M391.383,468.618c-13.289,0-25.782-5.174-35.164-14.566c-9.411-9.4-14.584-21.883-14.584-35.174
		v-54.968c0-13.289,5.174-25.787,14.584-35.182c9.382-9.388,21.875-14.566,35.164-14.566c13.299,0,25.8,5.179,35.185,14.566
		c9.382,9.395,14.574,21.893,14.574,35.182v54.968c0,13.292-5.192,25.774-14.574,35.174
		C417.183,463.444,404.682,468.618,391.383,468.618z"/>
</g>
<g>
	<path style="fill:#242D3C;" d="M120.617,241.216c-24.876,0-48.266-9.682-65.859-27.269c-17.585-17.597-27.267-40.983-27.267-65.856
		V93.125c0-24.87,9.684-48.259,27.261-65.851C72.351,9.684,95.741,0,120.617,0c24.868,0,48.251,9.684,65.843,27.272
		c17.582,17.595,27.267,40.983,27.267,65.853v54.966c0,24.87-9.684,48.259-27.261,65.851
		C168.865,231.534,145.485,241.216,120.617,241.216z M120.617,21.332c-19.18,0-37.212,7.468-50.775,21.025
		c-13.55,13.558-21.015,31.59-21.015,50.767v54.966c0,19.174,7.468,37.21,21.02,50.772c13.558,13.553,31.59,21.02,50.77,21.02
		c19.172,0,37.197-7.468,50.76-21.025c13.55-13.558,21.015-31.593,21.015-50.767V93.125c0-19.174-7.468-37.21-21.02-50.772
		C157.814,28.8,139.786,21.332,120.617,21.332z"/>
	<path style="fill:#242D3C;" d="M391.383,512c-24.858,0-48.246-9.682-65.846-27.267c-17.582-17.595-27.261-40.983-27.261-65.859
		v-54.968c0-24.876,9.679-48.264,27.254-65.851c17.608-17.59,40.991-27.274,65.853-27.274c24.876,0,48.266,9.684,65.861,27.272
		c17.582,17.595,27.264,40.983,27.264,65.853v54.968c0,24.87-9.682,48.259-27.261,65.851C439.644,502.318,416.259,512,391.383,512z
		 M391.383,292.116c-19.164,0-37.194,7.465-50.77,21.025c-13.542,13.553-21.005,31.583-21.005,50.765v54.968
		c0,19.182,7.462,37.212,21.012,50.77c13.568,13.555,31.598,21.023,50.762,21.023c19.18,0,37.212-7.468,50.775-21.025
		c13.55-13.56,21.018-31.593,21.018-50.767v-54.968c0-19.174-7.468-37.207-21.02-50.77
		C428.595,299.581,410.563,292.116,391.383,292.116z"/>
	
		<rect x="245.302" y="-72.085" transform="matrix(-0.7476 -0.6641 0.6641 -0.7476 277.3242 617.3752)" style="fill:#242D3C;" width="21.332" height="656.158"/>
	<polygon style="fill:#242D3C;" points="484.508,142.4 463.176,142.4 463.176,21.332 342.1,21.332 342.1,0 484.508,0 	"/>
</g>
<g>
</g>
<g>
</g>
<g>
</g>
<g>
</g>
<g>
</g>
<g>
</g>
<g>
</g>
<g>
</g>
<g>
</g>
<g>
</g>
<g>
</g>
<g>
</g>
<g>
</g>
<g>
</g>
<g>
</g>
</svg>
