<?xml version="1.0" encoding="iso-8859-1"?>
<!-- Generator: Adobe Illustrator 19.0.0, SVG Export Plug-In . SVG Version: 6.00 Build 0)  -->
<svg version="1.1" id="Layer_1" xmlns="http://www.w3.org/2000/svg" xmlns:xlink="http://www.w3.org/1999/xlink" x="0px" y="0px"
	 viewBox="0 0 512 512" style="enable-background:new 0 0 512 512;" xml:space="preserve">
<g>
	<path style="fill:#005792;" d="M187.969,372.754c0-10.609,1.111-21.117,3.269-31.419c-37.847-17.72-67.315-50.586-80.543-90.55
		c-44.908,22.223-75.807,68.467-75.807,121.969c0,75.151,60.92,136.064,136.069,136.064c25.876,0,50.04-7.245,70.633-19.791
		C207.479,459.873,187.969,417.802,187.969,372.754z"/>
	<path style="fill:#005792;" d="M170.958,219.681c30.259,0,59.991,9.093,85.046,25.82c25.052-16.727,54.784-25.82,85.043-25.82
		c16.724,0,33.103,2.691,48.704,7.954c1.508-8.092,2.319-16.435,2.319-24.97c0-75.151-60.918-136.069-136.067-136.069
		c-75.151,0-136.069,60.915-136.069,136.069c0,8.532,0.812,16.878,2.322,24.97C137.862,222.372,154.236,219.681,170.958,219.681z"/>
	<path style="fill:#005792;" d="M401.307,250.78c-13.222,39.969-42.693,72.835-80.538,90.555
		c2.156,10.296,3.267,20.808,3.267,31.419c0,45.048-19.505,87.122-53.619,116.27c20.59,12.547,44.759,19.791,70.63,19.791
		c75.149,0,136.069-60.913,136.069-136.064C477.116,319.252,446.217,273.006,401.307,250.78z"/>
</g>
<path style="fill:#ffd801;" d="M256.004,355.748c-17.242,0-34.12-2.834-50.166-8.433l-15.642-5.455l5.043-15.782
	c9.175-28.716,26.514-53.893,50.132-72.801l10.632-8.512l10.629,8.512c23.616,18.908,40.95,44.081,50.132,72.801l5.046,15.782
	l-15.647,5.455C290.121,352.911,273.243,355.748,256.004,355.748z"/>
<g>
	<path style="fill:#242D3C;" d="M256.004,512l-16.123-12.915c-38.566-30.897-60.687-76.943-60.687-126.331
		c0-8.835,0.737-17.72,2.194-26.499c-37.788-19.686-66.588-53.691-79.555-94.236l-7.647-23.928l23.716-8.269
		c16.98-5.921,34.829-8.922,53.059-8.922c30.144,0,59.423,8.335,85.046,24.166c25.623-15.831,54.897-24.166,85.043-24.166
		c18.232,0,36.086,3,53.053,8.922l23.724,8.269l-7.647,23.928c-12.964,40.545-41.764,74.547-79.555,94.231
		c1.457,8.781,2.194,17.667,2.194,26.504c0,49.387-22.121,95.432-60.687,126.331L256.004,512z M116.118,239.04l2.442,7.639
		c12.168,38.062,40.015,69.668,76.398,86.707l6.295,2.947l-1.426,6.805c-2.043,9.759-3.08,19.722-3.08,29.614
		c0,44.027,19.725,85.079,54.111,112.627l5.143,4.122l5.143-4.122c34.388-27.548,54.111-68.6,54.111-112.627
		c0-9.892-1.034-19.858-3.077-29.619l-1.428-6.802l6.295-2.944c36.383-17.039,64.23-48.645,76.401-86.707l2.442-7.639l-7.572-2.639
		c-15.107-5.271-31.012-7.944-47.27-7.944c-28.588,0-56.31,8.415-80.166,24.34l-4.874,3.256l-4.877-3.256
		c-23.857-15.926-51.579-24.34-80.169-24.34c-16.259,0-32.161,2.67-47.273,7.944L116.118,239.04z"/>
	<path style="fill:#242D3C;" d="M256.004,364.529c-18.23,0-36.078-3.003-53.056-8.919l-15.644-5.46
		c-4.49-1.562-6.92-6.426-5.473-10.957l5.048-15.788c9.705-30.362,28.032-56.986,53.007-76.977l10.629-8.512
		c3.205-2.57,7.767-2.57,10.972,0l10.629,8.512c24.965,19.983,43.297,46.605,53.007,76.977l5.048,15.788
		c1.446,4.534-0.98,9.395-5.473,10.957l-15.647,5.46C292.082,361.526,274.231,364.529,256.004,364.529z M201.158,336.387
		l7.572,2.639c15.114,5.271,31.02,7.944,47.273,7.944s32.159-2.673,47.27-7.944l7.572-2.639l-2.44-7.637
		c-8.655-27.072-24.998-50.798-47.26-68.623l-5.143-4.114l-5.143,4.114c-22.269,17.833-38.612,41.556-47.26,68.621L201.158,336.387z
		"/>
	<rect x="247.497" y="409.933" style="fill:#242D3C;" width="17.009" height="17.556"/>
	<rect x="163.67" y="258.304" style="fill:#242D3C;" width="17.556" height="17.556"/>
	<rect x="330.774" y="258.304" style="fill:#242D3C;" width="17.554" height="17.556"/>
	<rect x="442.671" y="488.474" style="fill:#242D3C;" width="67.907" height="17.556"/>
	<polygon style="fill:#242D3C;" points="510.568,472.003 439.026,472.003 388.433,421.409 400.854,408.998 446.296,454.449 
		510.568,454.449 	"/>
	<rect x="1.422" y="488.474" style="fill:#242D3C;" width="67.907" height="17.556"/>
	<polygon style="fill:#242D3C;" points="72.966,472.003 1.422,472.003 1.422,454.449 65.691,454.449 111.139,408.998 
		123.552,421.409 	"/>
	<rect x="222.051" y="34.017" style="fill:#242D3C;" width="67.909" height="17.556"/>
	<rect x="222.051" style="fill:#242D3C;" width="67.909" height="17.556"/>
	<rect x="247.215" y="66.586" style="fill:#242D3C;" width="17.556" height="67.904"/>
</g>
<g>
</g>
<g>
</g>
<g>
</g>
<g>
</g>
<g>
</g>
<g>
</g>
<g>
</g>
<g>
</g>
<g>
</g>
<g>
</g>
<g>
</g>
<g>
</g>
<g>
</g>
<g>
</g>
<g>
</g>
</svg>
