<?xml version="1.0" encoding="iso-8859-1"?>
<!-- Generator: Adobe Illustrator 19.0.0, SVG Export Plug-In . SVG Version: 6.00 Build 0)  -->
<svg version="1.1" id="Layer_1" xmlns="http://www.w3.org/2000/svg" xmlns:xlink="http://www.w3.org/1999/xlink" x="0px" y="0px"
	 viewBox="0 0 512 512" style="enable-background:new 0 0 512 512;" xml:space="preserve">
<g>
	<path style="fill:#242D3C;" d="M364.444,489.393H297.5l-3.886-25.989c-9.014,1.249-18.084,2.043-27.141,2.368v0.169l-9.482,0.015
		c-1.876,0-3.756-0.031-5.629-0.069c-0.643-0.008-1.352-0.038-2.056-0.067l-1.167-0.044c-1.418-0.054-2.675-0.097-3.922-0.159
		c-2.801-0.128-5.606-0.3-8.384-0.52l-1.119-0.082c-6.664-0.525-13.156-1.254-19.374-2.184l-18.583,26.56h-67.226v-54.582
		C70.482,404.029,24.842,353.336,0.65,291.482L0,289.818v-66.092h9.482c26.903,0,51.692-10.611,68.006-29.107
		c12.495-14.159,24.881-25.556,37.737-34.711V95.03h9.482c27.241,0,52.769,10.163,72.481,28.741
		c19.382-4.516,39.47-6.799,59.804-6.799c118.961,0,215.736,78.275,215.736,174.49c0,52.073-28.239,100.808-77.586,134.08
		L364.444,489.393z M313.838,470.431h38.679l27.804-57.823l2.199-1.444c45.279-29.729,71.245-73.359,71.245-119.703
		c0-85.757-88.274-155.525-196.774-155.525c-20.595,0-40.904,2.516-60.36,7.488l-5.363,1.37l-3.827-3.994
		c-14.359-14.979-33.001-24.123-53.253-26.299v55.444l-4.209,2.819c-12.997,8.694-25.516,19.948-38.275,34.401
		c-17.948,20.352-44.073,32.883-72.745,35.151v43.909c23.357,58.522,67.418,106.161,124.252,134.267l5.279,2.611v47.327h38.392
		l19.779-28.278l5.942,1.032c7.419,1.293,15.355,2.276,23.596,2.926l1.126,0.082c2.596,0.207,5.189,0.364,7.782,0.484
		c1.185,0.054,2.365,0.097,3.533,0.141l1.482,0.056c0.522,0.023,1.044,0.044,1.567,0.051c1.078,0.023,2.138,0.044,3.185,0.056
		l2.112-0.005c14.313,0,28.762-1.267,42.952-3.761l9.577-1.684L313.838,470.431z"/>
	<path style="fill:#242D3C;" d="M463.247,300.941v-18.962c16.427,0,29.791-13.363,29.791-29.786H512
		C512,279.076,490.13,300.941,463.247,300.941z"/>
	<path style="fill:#242D3C;" d="M130.314,262.423c-16.105,0-29.204-13.107-29.204-29.215h18.962c0,5.652,4.593,10.25,10.24,10.25
		c5.647,0,10.24-4.6,10.24-10.25h18.964C159.519,249.316,146.419,262.423,130.314,262.423z"/>
	<path style="fill:#242D3C;" d="M264.374,343.977h-14.351c-8.256,0-16.033-3.215-21.903-9.055
		c-5.87-5.883-9.085-13.676-9.085-21.967h18.962c0,3.238,1.252,6.275,3.523,8.548c2.263,2.258,5.297,3.512,8.504,3.512h14.351
		c3.2,0,6.226-1.254,8.522-3.54c2.24-2.245,3.487-5.281,3.487-8.52c0-3.223-1.237-6.226-3.487-8.458
		c-2.294-2.296-5.315-3.551-8.522-3.551h-14.351c-8.282,0-16.072-3.233-21.929-9.101c-5.829-5.786-9.06-13.571-9.06-21.885
		c0-8.287,3.213-16.077,9.055-21.932c5.873-5.865,13.658-9.083,21.934-9.083h14.351c8.264,0,16.041,3.218,21.903,9.065
		c5.855,5.873,9.07,13.663,9.07,21.952h-18.962c0-3.233-1.247-6.264-3.517-8.54c-2.266-2.26-5.284-3.512-8.492-3.512h-14.351
		c-3.218,0-6.244,1.252-8.52,3.525c-2.255,2.26-3.507,5.292-3.507,8.525c0,3.223,1.236,6.228,3.484,8.456
		c2.307,2.312,5.33,3.569,8.54,3.569h14.351c8.269,0,16.049,3.223,21.908,9.078c5.839,5.806,9.065,13.586,9.065,21.893
		c0,8.297-3.215,16.084-9.05,21.942C280.392,340.762,272.617,343.977,264.374,343.977z"/>
	<rect x="247.706" y="226.381" style="fill:#242D3C;" width="18.964" height="22.06"/>
	<rect x="247.706" y="334.49" style="fill:#242D3C;" width="18.964" height="22.042"/>
</g>
<path style="fill:#ffd801;" d="M257.178,97.533c-20.644,0-37.45-16.814-37.45-37.476c0-20.652,16.806-37.45,37.45-37.45
	c20.675,0,37.478,16.801,37.478,37.45C294.656,80.719,277.852,97.533,257.178,97.533z"/>
<g>
</g>
<g>
</g>
<g>
</g>
<g>
</g>
<g>
</g>
<g>
</g>
<g>
</g>
<g>
</g>
<g>
</g>
<g>
</g>
<g>
</g>
<g>
</g>
<g>
</g>
<g>
</g>
<g>
</g>
</svg>
