<?xml version="1.0" encoding="iso-8859-1"?>
<!-- Generator: Adobe Illustrator 19.0.0, SVG Export Plug-In . SVG Version: 6.00 Build 0)  -->
<svg version="1.1" id="Capa_1" xmlns="http://www.w3.org/2000/svg" xmlns:xlink="http://www.w3.org/1999/xlink" x="0px" y="0px"
	 viewBox="0 0 512 512" style="enable-background:new 0 0 512 512;" xml:space="preserve">
<g>
	<path style="fill:#005792;" d="M512,216H312c-4.016,0-8.32-1.816-11.248-4.736c-3.2-3.2-4.752-6.88-4.752-11.264V0h16v200h200V216z
		"/>
	<path style="fill:#005792;" d="M200,216H0v-16h200V0h16v200c0,4.008-1.816,8.328-4.736,11.248C208.056,214.456,204.376,216,200,216
		z"/>
	<path style="fill:#005792;" d="M312,512h-16V312c0-4.384,1.552-8.072,4.744-11.256S307.616,296,312,296h200v16H312V512z"/>
	<path style="fill:#005792;" d="M216,512h-16V312H0v-16h200c4.384,0,8.064,1.552,11.256,4.744c3.2,3.2,4.744,6.88,4.744,11.256V512z
		"/>
</g>
<path style="fill:#403E3E;" d="M144,160H56v-16h88V56h16v88c0,4.376-1.544,8.056-4.736,11.248C152.056,158.456,148.376,160,144,160z
	"/>
<g>
	<path style="fill:#ffd801;" d="M152,64c-17.648,0-32-14.352-32-32s14.352-32,32-32s32,14.352,32,32S169.648,64,152,64z M152,16
		c-8.824,0-16,7.176-16,16s7.176,16,16,16s16-7.176,16-16S160.824,16,152,16z"/>
	<path style="fill:#ffd801;" d="M32,184c-17.648,0-32-14.352-32-32s14.352-32,32-32s32,14.352,32,32S49.648,184,32,184z M32,136
		c-8.824,0-16,7.176-16,16s7.176,16,16,16s16-7.176,16-16S40.824,136,32,136z"/>
</g>
<path style="fill:#403E3E;" d="M456,160h-88c-4.016,0-8.32-1.816-11.248-4.736c-3.2-3.2-4.752-6.88-4.752-11.264V56h16v88h88V160z"
	/>
<g>
	<path style="fill:#ffd801;" d="M360,64c-17.648,0-32-14.352-32-32s14.352-32,32-32s32,14.352,32,32S377.648,64,360,64z M360,16
		c-8.824,0-16,7.176-16,16s7.176,16,16,16s16-7.176,16-16S368.824,16,360,16z"/>
	<path style="fill:#ffd801;" d="M480,184c-17.648,0-32-14.352-32-32s14.352-32,32-32s32,14.352,32,32S497.648,184,480,184z M480,136
		c-8.824,0-16,7.176-16,16s7.176,16,16,16s16-7.176,16-16S488.824,136,480,136z"/>
</g>
<path style="fill:#403E3E;" d="M368,456h-16v-88c0-4.384,1.552-8.072,4.744-11.256c2.92-2.92,7.232-4.744,11.256-4.744h88v16h-88
	V456z"/>
<g>
	<path style="fill:#ffd801;" d="M360,512c-17.648,0-32-14.352-32-32s14.352-32,32-32s32,14.352,32,32S377.648,512,360,512z M360,464
		c-8.824,0-16,7.176-16,16s7.176,16,16,16s16-7.176,16-16S368.824,464,360,464z"/>
	<path style="fill:#ffd801;" d="M480,392c-17.648,0-32-14.352-32-32s14.352-32,32-32s32,14.352,32,32S497.648,392,480,392z M480,344
		c-8.824,0-16,7.176-16,16s7.176,16,16,16s16-7.176,16-16S488.824,344,480,344z"/>
</g>
<path style="fill:#403E3E;" d="M160,456h-16v-88H56v-16h88c4.384,0,8.064,1.552,11.256,4.744c3.2,3.2,4.744,6.88,4.744,11.256V456z"
	/>
<g>
	<path style="fill:#ffd801;" d="M152,512c-17.648,0-32-14.352-32-32s14.352-32,32-32s32,14.352,32,32S169.648,512,152,512z M152,464
		c-8.824,0-16,7.176-16,16s7.176,16,16,16s16-7.176,16-16S160.824,464,152,464z"/>
	<path style="fill:#ffd801;" d="M32,392c-17.648,0-32-14.352-32-32s14.352-32,32-32s32,14.352,32,32S49.648,392,32,392z M32,344
		c-8.824,0-16,7.176-16,16s7.176,16,16,16s16-7.176,16-16S40.824,344,32,344z"/>
</g>
<g>
	<rect x="248" y="216" style="fill:#403E3E;" width="16" height="16"/>
	<rect x="248" y="184" style="fill:#403E3E;" width="16" height="16"/>
	<rect x="248" y="152" style="fill:#403E3E;" width="16" height="16"/>
	<rect x="248" y="344" style="fill:#403E3E;" width="16" height="16"/>
	<rect x="248" y="312" style="fill:#403E3E;" width="16" height="16"/>
	<rect x="248" y="280" style="fill:#403E3E;" width="16" height="16"/>
	<rect x="216" y="248" style="fill:#403E3E;" width="16" height="16"/>
	<rect x="184" y="248" style="fill:#403E3E;" width="16" height="16"/>
	<rect x="152" y="248" style="fill:#403E3E;" width="16" height="16"/>
	<rect x="344" y="248" style="fill:#403E3E;" width="16" height="16"/>
	<rect x="312" y="248" style="fill:#403E3E;" width="16" height="16"/>
	<rect x="280" y="248" style="fill:#403E3E;" width="16" height="16"/>
</g>
<g>
	<rect x="376" y="248" style="fill:#005792;" width="136" height="16"/>
	<rect y="248" style="fill:#005792;" width="136" height="16"/>
	<rect x="248" y="376" style="fill:#005792;" width="16" height="136"/>
	<rect x="248" style="fill:#005792;" width="16" height="136"/>
</g>
<g>
</g>
<g>
</g>
<g>
</g>
<g>
</g>
<g>
</g>
<g>
</g>
<g>
</g>
<g>
</g>
<g>
</g>
<g>
</g>
<g>
</g>
<g>
</g>
<g>
</g>
<g>
</g>
<g>
</g>
</svg>
