<?xml version="1.0" encoding="iso-8859-1"?>
<!-- Generator: Adobe Illustrator 19.0.0, SVG Export Plug-In . SVG Version: 6.00 Build 0)  -->
<svg version="1.1" id="Capa_1" xmlns="http://www.w3.org/2000/svg" xmlns:xlink="http://www.w3.org/1999/xlink" x="0px" y="0px"
	 viewBox="0 0 512 512" style="enable-background:new 0 0 512 512;" xml:space="preserve">
<g>
	<path style="fill:#005792;" d="M192,148h-16c0-44.112,35.888-80,80-80v16C220.712,84,192,112.712,192,148z"/>
	<path style="fill:#005792;" d="M440,332h-16v-16h16c30.872,0,56-25.128,56-56c0-30.88-25.128-56-56-56h-2.4
		c-2.568,0-4.984-1.24-6.496-3.328c-1.504-2.088-1.912-4.768-1.096-7.208C431.296,189.624,432,184.84,432,180
		c0-30.88-25.128-56-56-56c-6.928,0-12.224,0.832-17.192,2.688c-2.064,0.784-4.368,0.664-6.376-0.336
		c-1.984-0.992-3.472-2.76-4.104-4.888C336.208,80.568,298.24,52,256,52s-80.208,28.568-92.328,69.472
		c-0.632,2.128-2.12,3.896-4.104,4.888c-1.984,0.992-4.304,1.112-6.376,0.336C148.232,124.832,142.928,124,136,124
		c-30.88,0-56,25.12-56,56c0,4.832,0.704,9.624,1.992,13.472c0.816,2.44,0.4,5.12-1.104,7.208S76.968,204,74.4,204H72
		c-30.88,0-56,25.12-56,56c0,30.872,25.12,56,56,56h16v16H72c-39.696,0-72-32.296-72-72c0-37.176,28.328-67.872,64.536-71.616
		C64.176,185.664,64,182.848,64,180c0-39.696,32.304-72,72-72c5.544,0,10.36,0.44,14.856,1.392C167.208,65.808,209.36,36,256,36
		s88.8,29.808,105.144,73.392C365.632,108.44,370.456,108,376,108c39.704,0,72,32.304,72,72c0,2.848-0.176,5.664-0.528,8.384
		C483.672,192.128,512,222.824,512,260C512,299.704,479.704,332,440,332z"/>
</g>
<path style="fill:#403E3E;" d="M256,436c-61.76,0-112-50.24-112-112s50.24-112,112-112s112,50.24,112,112S317.76,436,256,436z
	 M256,228c-52.936,0-96,43.064-96,96s43.064,96,96,96s96-43.064,96-96S308.936,228,256,228z"/>
<path style="fill:#ffd801;" d="M256,396c-39.696,0-72-32.296-72-72s32.304-72,72-72c39.704,0,72,32.296,72,72S295.704,396,256,396z
	 M256,268c-30.88,0-56,25.128-56,56s25.12,56,56,56c30.872,0,56-25.128,56-56S286.872,268,256,268z"/>
<g>
	<polygon style="fill:#403E3E;" points="280.416,230.528 266.232,188 245.768,188 231.592,230.528 216.408,225.472 234.232,172 
		277.768,172 295.584,225.472 	"/>
	<polygon style="fill:#403E3E;" points="158.248,281.544 134.512,226.168 158.168,202.512 213.552,226.248 207.248,240.952 
		161.832,221.488 153.488,229.832 172.952,275.248 	"/>
	<polygon style="fill:#403E3E;" points="353.752,281.544 339.048,275.248 358.512,229.832 350.168,221.488 304.752,240.952 
		298.456,226.248 353.832,202.512 377.488,226.168 	"/>
	<polygon style="fill:#403E3E;" points="277.768,476 234.232,476 216.408,422.528 231.592,417.472 245.768,460 266.232,460 
		280.416,417.472 295.584,422.528 	"/>
	<polygon style="fill:#403E3E;" points="353.832,445.488 298.456,421.752 304.752,407.048 350.168,426.512 358.512,418.168 
		339.048,372.752 353.752,366.456 377.488,421.832 	"/>
	<polygon style="fill:#403E3E;" points="354.528,363.584 349.472,348.416 392,334.232 392,313.768 349.472,299.584 354.528,284.416 
		408,302.232 408,345.768 	"/>
	<polygon style="fill:#403E3E;" points="157.472,363.584 104,345.768 104,302.232 157.472,284.416 162.528,299.584 120,313.768 
		120,334.232 162.528,348.416 	"/>
	<polygon style="fill:#403E3E;" points="158.168,445.488 134.512,421.832 158.248,366.456 172.952,372.752 153.488,418.168 
		161.832,426.512 207.248,407.048 213.552,421.752 	"/>
	<rect x="216" y="316" style="fill:#403E3E;" width="16" height="16"/>
	<rect x="248" y="316" style="fill:#403E3E;" width="16" height="16"/>
	<rect x="280" y="316" style="fill:#403E3E;" width="16" height="16"/>
</g>
<g>
</g>
<g>
</g>
<g>
</g>
<g>
</g>
<g>
</g>
<g>
</g>
<g>
</g>
<g>
</g>
<g>
</g>
<g>
</g>
<g>
</g>
<g>
</g>
<g>
</g>
<g>
</g>
<g>
</g>
</svg>
