<?xml version="1.0" encoding="iso-8859-1"?>
<!-- Generator: Adobe Illustrator 19.0.0, SVG Export Plug-In . SVG Version: 6.00 Build 0)  -->
<svg version="1.1" id="Layer_1" xmlns="http://www.w3.org/2000/svg" xmlns:xlink="http://www.w3.org/1999/xlink" x="0px" y="0px"
	 viewBox="0 0 512 512" style="enable-background:new 0 0 512 512;" xml:space="preserve">
<g>
	<path style="fill:#242D3C;" d="M392.253,512H11.546V0h294.61l86.098,86.106V512z M31.583,491.963h340.636V94.403l-74.358-74.365
		H31.583V491.963z"/>
	<polygon style="fill:#242D3C;" points="382.228,100.257 291.991,100.257 291.991,10.02 312.026,10.02 312.026,80.22 382.228,80.22 
			"/>
	<rect x="73.659" y="80.23" style="fill:#242D3C;" width="128.23" height="20.037"/>
	<rect x="71.657" y="271.565" style="fill:#242D3C;" width="260.48" height="20.037"/>
	<rect x="71.657" y="311.629" style="fill:#242D3C;" width="260.48" height="20.037"/>
	<rect x="71.657" y="351.693" style="fill:#242D3C;" width="260.48" height="20.037"/>
	<rect x="71.657" y="391.782" style="fill:#242D3C;" width="260.48" height="20.037"/>
	<rect x="71.657" y="431.846" style="fill:#242D3C;" width="260.48" height="20.037"/>
</g>
<g>
	<polygon style="fill:#ffd801;" points="88.758,233.062 74.593,218.895 135.112,158.382 175.186,198.454 228.618,145.019 
		268.692,185.096 315.041,138.747 329.208,152.914 268.692,213.43 228.618,173.353 175.186,226.79 135.112,186.716 	"/>
	<polygon style="fill:#ffd801;" points="332.142,186.755 312.105,186.755 312.105,155.848 281.201,155.848 281.201,135.811 
		332.142,135.811 	"/>
</g>
<g>
	<polygon style="fill:#242D3C;" points="500.454,471.926 422.31,471.926 422.31,451.889 480.417,451.889 480.417,276.073 
		500.454,276.073 	"/>
	<path style="fill:#242D3C;" d="M472.402,512h-60.111V86.09l30.057-30.057l30.054,30.057V512z M432.328,491.963h20.037V94.387
		l-10.017-10.02l-10.02,10.02V491.963z"/>
	<rect x="422.323" y="266.061" style="fill:#242D3C;" width="40.074" height="20.035"/>
	<rect x="432.333" y="50.13" style="fill:#242D3C;" width="20.037" height="20.073"/>
</g>
<g>
</g>
<g>
</g>
<g>
</g>
<g>
</g>
<g>
</g>
<g>
</g>
<g>
</g>
<g>
</g>
<g>
</g>
<g>
</g>
<g>
</g>
<g>
</g>
<g>
</g>
<g>
</g>
<g>
</g>
</svg>
