<?xml version="1.0" encoding="iso-8859-1"?>
<!-- Generator: Adobe Illustrator 19.0.0, SVG Export Plug-In . SVG Version: 6.00 Build 0)  -->
<svg version="1.1" id="Layer_1" xmlns="http://www.w3.org/2000/svg" xmlns:xlink="http://www.w3.org/1999/xlink" x="0px" y="0px"
	 viewBox="0 0 512 512" style="enable-background:new 0 0 512 512;" xml:space="preserve">
<g>
	<circle style="fill:#E3E3E3;" cx="80" cy="224" r="80"/>
	<circle style="fill:#E3E3E3;" cx="432" cy="224" r="80"/>
	<circle style="fill:#E3E3E3;" cx="256" cy="112" r="112"/>
	<circle style="fill:#E3E3E3;" cx="384" cy="128" r="64"/>
	<circle style="fill:#E3E3E3;" cx="128" cy="128" r="64"/>
	<rect x="80" y="160" style="fill:#E3E3E3;" width="352" height="144"/>
</g>
<g>
	<rect x="216" y="168" style="fill:#2B2B2B;" width="16" height="16"/>
	<rect x="248" y="168" style="fill:#2B2B2B;" width="16" height="16"/>
	<rect x="280" y="168" style="fill:#2B2B2B;" width="16" height="16"/>
</g>
<g>
	<path style="fill:#FFFFFF;" d="M211.2,212.8c-3.2-3.2-7.2-4.8-11.2-4.8s-8,1.6-11.2,4.8S184,220,184,224v72h32v-72
		C216,220,214.4,216,211.2,212.8z"/>
	<path style="fill:#FFFFFF;" d="M323.2,212.8c-3.2-3.2-7.2-4.8-11.2-4.8s-8,1.6-11.2,4.8S296,220,296,224v72h32v-72
		C328,220,326.4,216,323.2,212.8z"/>
</g>
<g>
	<rect x="248" y="464" style="fill:#2B2B2B;" width="16" height="48"/>
	<path style="fill:#2B2B2B;" d="M256,472c-6.4,0-12.8-2.4-16.8-7.2S232,454.4,232,448v-8h16v8c0,2.4,0.8,4,2.4,5.6
		c3.2,3.2,8,3.2,11.2,0c1.6-1.6,2.4-3.2,2.4-5.6v-8h16v8c0,6.4-2.4,12.8-7.2,16.8S262.4,472,256,472z"/>
</g>
<path style="fill:#ffd801;" d="M336,384c0,14.4-5.6,28.8-16.8,40c-11.2,11.2-25.6,16-39.2,16h-48c-14.4,0-28.8-5.6-39.2-16
	c-11.2-11.2-16.8-25.6-16.8-40v-64h160V384z"/>
<path style="fill:#FFFFFF;" d="M232,424c-10.4,0-20.8-4-28-12c-7.2-7.2-12-17.6-12-28v-16c0-4.8,3.2-8,8-8s8,3.2,8,8v16
	c0,6.4,2.4,12.8,7.2,16.8c4.8,4.8,10.4,7.2,16.8,7.2c4.8,0,8,3.2,8,8S236.8,424,232,424z"/>
<path style="fill:#2B2B2B;" d="M336,336H176c-6.4,0-12.8-2.4-16.8-7.2c-4.8-4.8-7.2-10.4-7.2-16.8s2.4-12.8,7.2-16.8
	c4.8-4.8,10.4-7.2,16.8-7.2h160c6.4,0,12.8,2.4,16.8,7.2c4.8,4.8,7.2,10.4,7.2,16.8c0,6.4-2.4,12.8-7.2,16.8
	C348.8,333.6,342.4,336,336,336z M176,304c-2.4,0-4,0.8-5.6,2.4c-1.6,1.6-2.4,3.2-2.4,5.6s0.8,4,2.4,5.6s3.2,2.4,5.6,2.4h160
	c2.4,0,4-0.8,5.6-2.4s2.4-3.2,2.4-5.6s-0.8-4-2.4-5.6l0,0c-1.6-1.6-3.2-2.4-5.6-2.4H176z"/>
<g>
</g>
<g>
</g>
<g>
</g>
<g>
</g>
<g>
</g>
<g>
</g>
<g>
</g>
<g>
</g>
<g>
</g>
<g>
</g>
<g>
</g>
<g>
</g>
<g>
</g>
<g>
</g>
<g>
</g>
</svg>
