<?xml version="1.0" encoding="iso-8859-1"?>
<!-- Generator: Adobe Illustrator 19.0.0, SVG Export Plug-In . SVG Version: 6.00 Build 0)  -->
<svg version="1.1" id="Layer_1" xmlns="http://www.w3.org/2000/svg" xmlns:xlink="http://www.w3.org/1999/xlink" x="0px" y="0px"
	 viewBox="0 0 512 512" style="enable-background:new 0 0 512 512;" xml:space="preserve">
<rect y="80" style="fill:#E3E3E3;" width="512" height="416"/>
<rect x="24" y="104" style="fill:#FFFFFF;" width="464" height="368"/>
<rect y="16" style="fill:#005792;" width="512" height="64"/>
<g>
	<rect x="24" y="40" style="fill:#2B2B2B;" width="16" height="16"/>
	<rect x="56" y="40" style="fill:#2B2B2B;" width="16" height="16"/>
	<rect x="88" y="40" style="fill:#2B2B2B;" width="16" height="16"/>
</g>
<rect x="120" y="40" style="fill:#FFFFFF;" width="368" height="16"/>
<g>
	<rect x="48" y="420" style="fill:#2B2B2B;" width="56" height="16"/>
	<rect x="152" y="420" style="fill:#2B2B2B;" width="312" height="16"/>
	<rect x="120" y="412" style="fill:#2B2B2B;" width="16" height="32"/>
</g>
<rect x="48" y="132" style="fill:#ffd801;" width="416" height="256"/>
<polygon style="fill:#FFFFFF;" points="224,212 232,212 320,260 232,308 224,308 "/>
<g>
	<rect x="216" y="356" style="fill:#2B2B2B;" width="16" height="16"/>
	<rect x="248" y="356" style="fill:#2B2B2B;" width="16" height="16"/>
	<rect x="280" y="356" style="fill:#2B2B2B;" width="16" height="16"/>
</g>
<g>
</g>
<g>
</g>
<g>
</g>
<g>
</g>
<g>
</g>
<g>
</g>
<g>
</g>
<g>
</g>
<g>
</g>
<g>
</g>
<g>
</g>
<g>
</g>
<g>
</g>
<g>
</g>
<g>
</g>
</svg>
