<?xml version="1.0" encoding="iso-8859-1"?>
<!-- Generator: Adobe Illustrator 19.0.0, SVG Export Plug-In . SVG Version: 6.00 Build 0)  -->
<svg version="1.1" id="Layer_1" xmlns="http://www.w3.org/2000/svg" xmlns:xlink="http://www.w3.org/1999/xlink" x="0px" y="0px"
	 viewBox="0 0 512 512" style="enable-background:new 0 0 512 512;" xml:space="preserve">
<path style="fill:#242D3C;" d="M504.653,512H7.347V206.28L256.003,26.621L504.65,206.28V512H504.653z M27.241,492.106h457.521
	V216.453L256.005,51.162L27.241,216.453V492.106z"/>
<g>
	<rect x="72.645" y="236.262" style="fill:#005792;" width="366.72" height="19.894"/>
	<rect x="132.838" y="273.51" style="fill:#005792;" width="245.402" height="19.894"/>
	<rect x="194.893" y="310.733" style="fill:#005792;" width="122.237" height="19.894"/>
	<rect x="63.043" style="fill:#005792;" width="385.92" height="217.216"/>
</g>
<g>
	<path style="fill:#FFFFFF;" d="M390.172,196.772H121.818v-9.946c0-15.665-12.733-28.408-28.383-28.408h-9.946V58.79h9.946
		c15.649,0,28.383-12.739,28.383-28.401v-9.946h268.355v9.946c0,15.662,12.741,28.401,28.403,28.401h9.946v99.628h-9.946
		c-15.662,0-28.403,12.744-28.403,28.408V196.772z M140.682,176.881H371.31c3.924-18.665,18.655-33.4,37.317-37.325V77.655
		C389.965,73.731,375.235,59,371.31,40.335H140.682c-3.919,18.662-18.644,33.395-37.299,37.32v61.901
		C122.035,143.478,136.76,158.216,140.682,176.881z"/>
	<path style="fill:#FFFFFF;" d="M256,161.426c-29.128,0-52.823-23.695-52.823-52.823c0-29.123,23.695-52.815,52.823-52.815
		s52.826,23.693,52.826,52.815C308.826,137.728,285.128,161.426,256,161.426z M256,75.679c-18.161,0-32.932,14.769-32.932,32.924
		c0,18.158,14.771,32.932,32.932,32.932s32.932-14.774,32.932-32.932S274.161,75.679,256,75.679z"/>
	<rect x="343.219" y="98.655" style="fill:#FFFFFF;" width="41.416" height="19.894"/>
	<rect x="127.37" y="98.655" style="fill:#FFFFFF;" width="41.413" height="19.894"/>
</g>
<g>
	
		<rect x="365.414" y="144.304" transform="matrix(-0.5204 -0.8539 0.8539 -0.5204 328.1443 752.4009)" style="fill:#242D3C;" width="19.891" height="279.495"/>
	
		<rect x="-3.086" y="274.103" transform="matrix(-0.8541 -0.5201 0.5201 -0.8541 105.6537 597.7352)" style="fill:#242D3C;" width="279.5" height="19.891"/>
	<polygon style="fill:#242D3C;" points="22.464,510.551 12.122,493.558 256.003,345.101 499.878,493.558 489.536,510.551 
		256.003,368.389 	"/>
</g>
<g>
</g>
<g>
</g>
<g>
</g>
<g>
</g>
<g>
</g>
<g>
</g>
<g>
</g>
<g>
</g>
<g>
</g>
<g>
</g>
<g>
</g>
<g>
</g>
<g>
</g>
<g>
</g>
<g>
</g>
</svg>
