<?xml version="1.0" encoding="iso-8859-1"?>
<!-- Generator: Adobe Illustrator 19.0.0, SVG Export Plug-In . SVG Version: 6.00 Build 0)  -->
<svg version="1.1" id="Layer_1" xmlns="http://www.w3.org/2000/svg" xmlns:xlink="http://www.w3.org/1999/xlink" x="0px" y="0px"
	 viewBox="0 0 512.005 512.005" style="enable-background:new 0 0 512.005 512.005;" xml:space="preserve">
<path style="fill:#ffd801;" d="M255.996,221.699c-44.746,0-81.142-36.398-81.142-81.157c0-44.713,36.398-81.098,81.142-81.098
	c44.759,0,81.16,36.385,81.16,81.098C337.156,185.3,300.755,221.699,255.996,221.699z"/>
<g>
	<path style="fill:#242D3C;" d="M255.988,382.415l-111.634-156.46c-19.185-26.913-28.913-55.647-28.913-85.407
		C115.442,63.053,178.495,0,255.988,0c77.517,0,140.577,63.05,140.577,140.547c0,29.371-10.002,58.9-28.915,85.396L255.988,382.415z
		 M255.988,18.488c-67.305,0-122.061,54.756-122.061,122.061c0,25.836,8.573,50.959,25.477,74.673l96.584,135.36l96.612-135.38
		c16.906-23.68,25.477-48.794,25.477-74.655C378.08,73.242,323.309,18.488,255.988,18.488z"/>
	<rect x="191.338" y="406.835" style="fill:#242D3C;" width="129.331" height="18.488"/>
</g>
<path style="fill:#005792;" d="M71.348,301.568c-35.84,0-64.927,29.097-64.927,64.929c0,14.958,5.44,28.352,13.443,39.583
	c51.482,72.161,51.482,72.161,51.482,72.161s0,0,51.502-72.166c8.023-11.231,13.445-24.655,13.445-39.575
	C136.298,330.665,107.237,301.568,71.348,301.568z"/>
<path style="fill:#FFFFFF;" d="M71.348,405.005c-21.228,0-38.5-17.275-38.5-38.508c0-21.222,17.272-38.482,38.5-38.482
	c21.235,0,38.51,17.26,38.51,38.482C109.859,387.73,92.586,405.005,71.348,405.005z M71.348,346.504
	c-11.034,0-20.012,8.968-20.012,19.996c0,11.036,8.978,20.019,20.012,20.019c11.039,0,20.022-8.986,20.022-20.019
	C91.37,355.469,82.387,346.504,71.348,346.504z"/>
<rect x="39.338" y="493.517" style="fill:#242D3C;" width="64.051" height="18.488"/>
<path style="fill:#005792;" d="M440.646,301.568c-35.848,0-64.934,29.097-64.934,64.929c0,14.958,5.437,28.352,13.443,39.583
	c51.492,72.161,51.492,72.161,51.492,72.161s0,0,51.492-72.166c8.023-11.231,13.445-24.655,13.445-39.575
	C505.583,330.665,476.525,301.568,440.646,301.568z"/>
<path style="fill:#FFFFFF;" d="M440.646,405.005c-21.227,0-38.497-17.275-38.497-38.508c0-21.222,17.27-38.482,38.497-38.482
	c21.233,0,38.51,17.26,38.51,38.482C479.156,387.73,461.879,405.005,440.646,405.005z M440.646,346.504
	c-11.034,0-20.009,8.968-20.009,19.996c0,11.036,8.978,20.019,20.009,20.019c11.041,0,20.022-8.986,20.022-20.019
	C460.668,355.469,451.688,346.504,440.646,346.504z"/>
<rect x="408.631" y="493.517" style="fill:#242D3C;" width="64.051" height="18.488"/>
<g>
</g>
<g>
</g>
<g>
</g>
<g>
</g>
<g>
</g>
<g>
</g>
<g>
</g>
<g>
</g>
<g>
</g>
<g>
</g>
<g>
</g>
<g>
</g>
<g>
</g>
<g>
</g>
<g>
</g>
</svg>
