<?xml version="1.0" encoding="iso-8859-1"?>
<!-- Generator: Adobe Illustrator 19.0.0, SVG Export Plug-In . SVG Version: 6.00 Build 0)  -->
<svg version="1.1" id="Layer_1" xmlns="http://www.w3.org/2000/svg" xmlns:xlink="http://www.w3.org/1999/xlink" x="0px" y="0px"
	 viewBox="0 0 512 512" style="enable-background:new 0 0 512 512;" xml:space="preserve">
<g>
	<path style="fill:#242D3C;" d="M166.881,422.07H0l44.298-76.726h78.287L166.881,422.07z M30.866,404.25h105.149l-23.718-41.085
		h-57.71L30.866,404.25z"/>
	<path style="fill:#242D3C;" d="M339.42,422.07H172.549l44.296-76.726h78.31L339.42,422.07z M203.412,404.25h105.155l-23.708-41.085
		h-57.725L203.412,404.25z"/>
	<path style="fill:#242D3C;" d="M512,422.07H345.114l44.303-76.726h78.282L512,422.07z M375.977,404.25h105.157l-23.726-41.085
		H399.7L375.977,404.25z"/>
	<path style="fill:#242D3C;" d="M253.153,326.636H86.272l44.303-76.723h78.305L253.153,326.636z M117.146,308.815h105.149
		l-23.708-41.083h-57.723L117.146,308.815z"/>
	<path style="fill:#242D3C;" d="M425.728,326.636H258.849l44.275-76.723h78.308L425.728,326.636z M289.708,308.815h105.155
		l-23.721-41.083h-57.731L289.708,308.815z"/>
	<path style="fill:#242D3C;" d="M339.43,231.186H172.564l44.28-76.705h78.308L339.43,231.186z M203.428,213.366h105.139
		l-23.706-41.068h-57.728L203.428,213.366z"/>
</g>
<g>
	<path style="fill:#005792;" d="M446.817,182.676c-27.745,0-50.217,22.518-50.217,50.227c0-27.707-22.515-50.227-50.235-50.227
		c27.72,0,50.235-22.51,50.235-50.191C396.6,160.166,419.072,182.676,446.817,182.676z"/>
	<path style="fill:#005792;" d="M345.28,118.436c-15.749,0-28.516,12.79-28.516,28.529c0-15.739-12.79-28.529-28.531-28.529
		c15.739,0,28.531-12.785,28.531-28.506C316.764,105.654,329.531,118.436,345.28,118.436z"/>
	<path style="fill:#005792;" d="M170.081,179.699c-11.668,0-21.125,9.459-21.125,21.112c0-11.653-9.459-21.112-21.102-21.112
		c11.643,0,21.102-9.457,21.102-21.107C148.956,170.243,158.415,179.699,170.081,179.699z"/>
</g>
<g>
</g>
<g>
</g>
<g>
</g>
<g>
</g>
<g>
</g>
<g>
</g>
<g>
</g>
<g>
</g>
<g>
</g>
<g>
</g>
<g>
</g>
<g>
</g>
<g>
</g>
<g>
</g>
<g>
</g>
</svg>
