<?xml version="1.0" encoding="iso-8859-1"?>
<!-- Generator: Adobe Illustrator 19.0.0, SVG Export Plug-In . SVG Version: 6.00 Build 0)  -->
<svg version="1.1" id="Layer_1" xmlns="http://www.w3.org/2000/svg" xmlns:xlink="http://www.w3.org/1999/xlink" x="0px" y="0px"
	 viewBox="0 0 512 512" style="enable-background:new 0 0 512 512;" xml:space="preserve">
<g>
	<rect y="339.63" style="fill:#242D3C;" width="512" height="20.48"/>
	<rect y="378.875" style="fill:#242D3C;" width="512" height="20.48"/>
	<rect y="418.12" style="fill:#242D3C;" width="512" height="20.48"/>
	<rect y="457.39" style="fill:#242D3C;" width="512" height="20.48"/>
	<path style="fill:#242D3C;" d="M512,320.85H0V34.13h512V320.85z M20.48,300.37h471.04V54.61H20.48V300.37z"/>
</g>
<path style="fill:#005792;" d="M421.888,73.042H90.112c0,28.28-22.92,51.2-51.2,51.2v106.496c28.28,0,51.2,22.912,51.2,51.2h331.776
	c0-28.288,22.92-51.2,51.2-51.2V124.242C444.808,124.242,421.888,101.322,421.888,73.042z M256,259.41
	c-45.235,0-81.92-36.68-81.92-81.92c0-45.233,36.685-81.92,81.92-81.92s81.92,36.687,81.92,81.92
	C337.92,222.73,301.235,259.41,256,259.41z"/>
<g>
	<path style="fill:#242D3C;" d="M261.873,222.938h-11.745c-7.424,0-14.415-2.89-19.681-8.141c-5.268-5.286-8.156-12.28-8.156-19.717
		h20.48c0,1.976,0.768,3.837,2.163,5.235c1.377,1.372,3.228,2.14,5.192,2.14h11.745c1.969,0,3.822-0.771,5.233-2.168
		c1.349-1.357,2.109-3.22,2.109-5.21c0-1.979-0.75-3.82-2.12-5.184c-1.4-1.395-3.254-2.168-5.222-2.168h-11.745
		c-7.432,0-14.423-2.895-19.686-8.156c-5.248-5.235-8.148-12.227-8.148-19.684c0-7.429,2.888-14.42,8.131-19.684
		c5.289-5.274,12.28-8.164,19.704-8.164h11.745c7.419,0,14.408,2.888,19.681,8.136c5.263,5.289,8.143,12.275,8.143,19.712h-20.48
		c0-1.984-0.76-3.843-2.143-5.233c-1.377-1.364-3.233-2.135-5.199-2.135h-11.745c-1.964,0-3.814,0.768-5.215,2.166
		c-1.372,1.375-2.14,3.231-2.14,5.204c0,1.971,0.755,3.812,2.135,5.187c1.405,1.403,3.256,2.173,5.22,2.173h11.745
		c7.427,0,14.421,2.895,19.686,8.151c5.248,5.233,8.136,12.224,8.136,19.681c0,7.439-2.88,14.433-8.11,19.689
		C276.28,220.05,269.292,222.938,261.873,222.938z"/>
	<rect x="245.76" y="124.234" style="fill:#242D3C;" width="20.48" height="18.048"/>
	<rect x="245.76" y="212.705" style="fill:#242D3C;" width="20.48" height="18.022"/>
	<rect x="376.781" y="166.804" style="fill:#242D3C;" width="57.344" height="21.361"/>
	<rect x="77.888" y="166.804" style="fill:#242D3C;" width="57.344" height="21.361"/>
</g>
<g>
</g>
<g>
</g>
<g>
</g>
<g>
</g>
<g>
</g>
<g>
</g>
<g>
</g>
<g>
</g>
<g>
</g>
<g>
</g>
<g>
</g>
<g>
</g>
<g>
</g>
<g>
</g>
<g>
</g>
</svg>
