<?xml version="1.0" encoding="iso-8859-1"?>
<!-- Generator: Adobe Illustrator 19.0.0, SVG Export Plug-In . SVG Version: 6.00 Build 0)  -->
<svg version="1.1" id="Layer_1" xmlns="http://www.w3.org/2000/svg" xmlns:xlink="http://www.w3.org/1999/xlink" x="0px" y="0px"
	 viewBox="0 0 512 512" style="enable-background:new 0 0 512 512;" xml:space="preserve">
<circle style="fill:#005792;" cx="256" cy="256" r="256"/>
<g>
	<path style="fill:#FFFFFF;" d="M256,456c-110.4,0-200-89.6-200-200S145.6,56,256,56s200,89.6,200,200S366.4,456,256,456z M256,72
		C154.4,72,72,154.4,72,256s82.4,184,184,184s184-82.4,184-184S357.6,72,256,72z"/>
	<path style="fill:#FFFFFF;" d="M156,313.6c-3.2-18.4-4-37.6-4-57.6s1.6-39.2,4-57.6l16,2.4c-2.4,17.6-4,36-4,55.2s1.6,37.6,4,55.2
		L156,313.6z"/>
	<path style="fill:#FFFFFF;" d="M256,456c-1.6,0-2.4,0-4,0c-35.2-2.4-66.4-37.6-84.8-94.4l15.2-4.8c16,50.4,42.4,81.6,70.4,83.2
		c0.8,0,1.6,0,2.4,0s1.6,0,2.4,0c28-1.6,54.4-32.8,71.2-83.2l15.2,4.8c-18.4,56.8-49.6,92-84.8,94.4C258.4,456,257.6,456,256,456z"
		/>
	<path style="fill:#FFFFFF;" d="M356,313.6l-16-2.4c2.4-17.6,4-36,4-55.2s-1.6-37.6-4-55.2l16-2.4c3.2,18.4,4,37.6,4,57.6
		C360,276,358.4,295.2,356,313.6z"/>
	<path style="fill:#FFFFFF;" d="M329.6,155.2c-16-50.4-42.4-81.6-70.4-83.2c-0.8,0-1.6,0-2.4,0s-1.6,0-2.4,0
		c-28,1.6-55.2,32.8-71.2,83.2l-15.2-4.8c18.4-56.8,49.6-92,84.8-94.4c2.4,0,4.8,0,7.2,0c35.2,2.4,66.4,37.6,84.8,94.4L329.6,155.2z
		"/>
	<path style="fill:#FFFFFF;" d="M320.8,173.6c-41.6-8-88-8-129.6,0l-3.2-16c43.2-8,92-8,135.2,0L320.8,173.6z"/>
	<path style="fill:#FFFFFF;" d="M370.4,341.6l-5.6-15.2c44.8-16,72.8-41.6,74.4-68c0-0.8,0-1.6,0-2.4s0-1.6,0-2.4
		c-1.6-26.4-29.6-52-74.4-68l5.6-15.2c52,18.4,83.2,48.8,85.6,82.4c0,0.8,0,2.4,0,3.2s0,2.4,0,4
		C453.6,292.8,422.4,323.2,370.4,341.6z"/>
	<path style="fill:#FFFFFF;" d="M256,360c-23.2,0-46.4-2.4-68-6.4l3.2-16c41.6,8,88,8,129.6,0l3.2,16C302.4,357.6,279.2,360,256,360
		z"/>
	<path style="fill:#FFFFFF;" d="M141.6,341.6c-52-18.4-83.2-48.8-85.6-81.6c0-0.8,0-2.4,0-3.2s0-2.4,0-4
		c2.4-33.6,32.8-63.2,85.6-81.6l5.6,15.2c-44.8,16-72.8,41.6-74.4,68c0,0.8,0,1.6,0,2.4s0,1.6,0,2.4c1.6,26.4,29.6,52,74.4,68
		L141.6,341.6z"/>
	<rect x="248" y="32" style="fill:#FFFFFF;" width="16" height="200"/>
	<rect x="248" y="280" style="fill:#FFFFFF;" width="16" height="200"/>
	<rect x="32" y="248" style="fill:#FFFFFF;" width="168" height="16"/>
	<rect x="312" y="248" style="fill:#FFFFFF;" width="168" height="16"/>
</g>
<g>
	<rect x="496" y="248" style="fill:#2B2B2B;" width="16" height="16"/>
	<rect y="248" style="fill:#2B2B2B;" width="16" height="16"/>
	<rect x="248" style="fill:#2B2B2B;" width="16" height="16"/>
	<rect x="248" y="496" style="fill:#2B2B2B;" width="16" height="16"/>
	<path style="fill:#2B2B2B;" d="M168,208c-17.6,0-32-14.4-32-32s14.4-32,32-32s32,14.4,32,32S185.6,208,168,208z M168,160
		c-8.8,0-16,7.2-16,16s7.2,16,16,16s16-7.2,16-16S176.8,160,168,160z"/>
	<path style="fill:#2B2B2B;" d="M344,208c-17.6,0-32-14.4-32-32s14.4-32,32-32s32,14.4,32,32S361.6,208,344,208z M344,160
		c-8.8,0-16,7.2-16,16s7.2,16,16,16s16-7.2,16-16S352.8,160,344,160z"/>
	<path style="fill:#2B2B2B;" d="M168,368c-17.6,0-32-14.4-32-32s14.4-32,32-32s32,14.4,32,32S185.6,368,168,368z M168,320
		c-8.8,0-16,7.2-16,16s7.2,16,16,16s16-7.2,16-16S176.8,320,168,320z"/>
	<path style="fill:#2B2B2B;" d="M344,368c-17.6,0-32-14.4-32-32s14.4-32,32-32s32,14.4,32,32S361.6,368,344,368z M344,320
		c-8.8,0-16,7.2-16,16s7.2,16,16,16s16-7.2,16-16S352.8,320,344,320z"/>
	<rect x="248" y="248" style="fill:#2B2B2B;" width="16" height="16"/>
	<rect x="216" y="248" style="fill:#2B2B2B;" width="16" height="16"/>
	<rect x="280" y="248" style="fill:#2B2B2B;" width="16" height="16"/>
</g>
<g>
</g>
<g>
</g>
<g>
</g>
<g>
</g>
<g>
</g>
<g>
</g>
<g>
</g>
<g>
</g>
<g>
</g>
<g>
</g>
<g>
</g>
<g>
</g>
<g>
</g>
<g>
</g>
<g>
</g>
</svg>
