<?xml version="1.0" encoding="iso-8859-1"?>
<!-- Generator: Adobe Illustrator 19.0.0, SVG Export Plug-In . SVG Version: 6.00 Build 0)  -->
<svg xmlns="http://www.w3.org/2000/svg" xmlns:xlink="http://www.w3.org/1999/xlink" version="1.1" id="Layer_1" x="0px" y="0px" viewBox="0 0 512 512" style="enable-background:new 0 0 512 512;" xml:space="preserve">
<polygon style="fill:#E3E3E3;" points="320,0 24,0 24,512 392,512 392,72 "/>
<polygon style="fill:#CACACA;" points="320,0 320,72 392,72 "/>
<path style="fill:#FFFFFF;" d="M80,256c0,70.4,57.6,128,128,128V128C137.6,128,80,185.6,80,256z"/>
<circle style="fill:#ffd801;" cx="208" cy="256" r="96"/>
<path style="fill:#E35B17;" d="M208,160v192c52.8,0,96-43.2,96-96S260.8,160,208,160z"/>
<g>
	
		<rect x="319.086" y="92.163" transform="matrix(-0.4234 -0.9059 0.9059 -0.4234 289.3207 573.2574)" style="fill:#2B2B2B;" width="15.999" height="204.792"/>
	
		<rect x="224.771" y="309.691" transform="matrix(-0.9059 -0.4235 0.4235 -0.9059 489.0123 744.0427)" style="fill:#2B2B2B;" width="204.801" height="16"/>
</g>
<circle style="fill:#FFFFFF;" cx="208" cy="256" r="64"/>
<g>
	<path style="fill:#2B2B2B;" d="M448,176c-22.4,0-40-17.6-40-40s17.6-40,40-40s40,17.6,40,40S470.4,176,448,176z M448,112   c-13.6,0-24,10.4-24,24s10.4,24,24,24s24-10.4,24-24S461.6,112,448,112z"/>
	<path style="fill:#2B2B2B;" d="M208,296c-22.4,0-40-17.6-40-40s17.6-40,40-40s40,17.6,40,40S230.4,296,208,296z M208,232   c-13.6,0-24,10.4-24,24s10.4,24,24,24s24-10.4,24-24S221.6,232,208,232z"/>
	<path style="fill:#2B2B2B;" d="M448,416c-22.4,0-40-17.6-40-40s17.6-40,40-40s40,17.6,40,40S470.4,416,448,416z M448,352   c-13.6,0-24,10.4-24,24s10.4,24,24,24s24-10.4,24-24S461.6,352,448,352z"/>
	<rect x="440" y="128" style="fill:#2B2B2B;" width="16" height="16"/>
	<rect x="440" y="368" style="fill:#2B2B2B;" width="16" height="16"/>
	<rect x="200" y="248" style="fill:#2B2B2B;" width="16" height="16"/>
	<rect x="352" y="248" style="fill:#2B2B2B;" width="16" height="16"/>
	<rect x="384" y="248" style="fill:#2B2B2B;" width="16" height="16"/>
	<rect x="416" y="248" style="fill:#2B2B2B;" width="16" height="16"/>
	<rect x="56" y="32" style="fill:#2B2B2B;" width="16" height="16"/>
	<rect x="88" y="32" style="fill:#2B2B2B;" width="16" height="16"/>
	<rect x="120" y="32" style="fill:#2B2B2B;" width="16" height="16"/>
	<rect x="56" y="64" style="fill:#2B2B2B;" width="240" height="16"/>
	<rect x="56" y="96" style="fill:#2B2B2B;" width="88" height="16"/>
	<rect x="160" y="96" style="fill:#2B2B2B;" width="200" height="16"/>
	<rect x="56" y="400" style="fill:#2B2B2B;" width="304" height="16"/>
	<rect x="56" y="432" style="fill:#2B2B2B;" width="56" height="16"/>
	<rect x="128" y="432" style="fill:#2B2B2B;" width="232" height="16"/>
	<rect x="56" y="464" style="fill:#2B2B2B;" width="136" height="16"/>
	<rect x="208" y="464" style="fill:#2B2B2B;" width="56" height="16"/>
</g>
<g>
</g>
<g>
</g>
<g>
</g>
<g>
</g>
<g>
</g>
<g>
</g>
<g>
</g>
<g>
</g>
<g>
</g>
<g>
</g>
<g>
</g>
<g>
</g>
<g>
</g>
<g>
</g>
<g>
</g>
</svg>
