<?xml version="1.0" encoding="iso-8859-1"?>
<!-- Generator: Adobe Illustrator 19.0.0, SVG Export Plug-In . SVG Version: 6.00 Build 0)  -->
<svg version="1.1" id="Layer_1" xmlns="http://www.w3.org/2000/svg" xmlns:xlink="http://www.w3.org/1999/xlink" x="0px" y="0px"
	 viewBox="0 0 512 512" style="enable-background:new 0 0 512 512;" xml:space="preserve">
<rect y="464.593" style="fill:#242D3C;" width="512" height="18.962"/>
<g>
	<rect y="28.445" style="fill:#ffd801;" width="56.883" height="417.178"/>
	<rect x="75.85" y="197.713" style="fill:#ffd801;" width="56.883" height="247.91"/>
	<rect x="151.706" y="288.874" style="fill:#ffd801;" width="56.883" height="156.749"/>
	<rect x="227.558" y="343.172" style="fill:#ffd801;" width="56.883" height="102.451"/>
	<rect x="303.411" y="378.141" style="fill:#ffd801;" width="56.883" height="67.489"/>
	<rect x="379.264" y="399.159" style="fill:#ffd801;" width="56.883" height="46.464"/>
	<rect x="455.117" y="408.708" style="fill:#ffd801;" width="56.883" height="36.938"/>
</g>
<g>
	<rect x="75.85" y="28.445" style="fill:#005792;" width="56.883" height="150.303"/>
	<rect x="151.706" y="28.445" style="fill:#005792;" width="56.883" height="241.485"/>
	<rect x="227.558" y="28.445" style="fill:#005792;" width="56.883" height="295.757"/>
	<rect x="303.411" y="28.445" style="fill:#005792;" width="56.883" height="330.726"/>
	<rect x="379.264" y="28.445" style="fill:#005792;" width="56.883" height="351.744"/>
	<rect x="455.117" y="28.445" style="fill:#005792;" width="56.883" height="361.293"/>
</g>
<g>
	<rect x="18.962" y="47.412" style="fill:#FFFFFF;" width="18.964" height="18.962"/>
	<rect x="94.822" y="47.412" style="fill:#FFFFFF;" width="18.962" height="18.962"/>
	<rect x="170.675" y="47.412" style="fill:#FFFFFF;" width="18.964" height="18.962"/>
	<rect x="246.528" y="47.412" style="fill:#FFFFFF;" width="18.964" height="18.962"/>
	<rect x="322.381" y="47.412" style="fill:#FFFFFF;" width="18.962" height="18.962"/>
	<rect x="398.234" y="47.412" style="fill:#FFFFFF;" width="18.962" height="18.962"/>
	<rect x="474.086" y="47.412" style="fill:#FFFFFF;" width="18.962" height="18.962"/>
</g>
<g>
</g>
<g>
</g>
<g>
</g>
<g>
</g>
<g>
</g>
<g>
</g>
<g>
</g>
<g>
</g>
<g>
</g>
<g>
</g>
<g>
</g>
<g>
</g>
<g>
</g>
<g>
</g>
<g>
</g>
</svg>
