<?xml version="1.0" encoding="iso-8859-1"?>
<!-- Generator: Adobe Illustrator 19.0.0, SVG Export Plug-In . SVG Version: 6.00 Build 0)  -->
<svg xmlns="http://www.w3.org/2000/svg" xmlns:xlink="http://www.w3.org/1999/xlink" version="1.1" id="Layer_1" x="0px" y="0px" viewBox="0 0 496 496" style="enable-background:new 0 0 496 496;" xml:space="preserve">
<path style="fill:#1CCACA;" d="M128,376C61.6,376,8,361.6,8,344v40c0,17.6,53.6,32,120,32s120-14.4,120-32v-40  C248,361.6,194.4,376,128,376z"/>
<ellipse style="fill:#005792;" cx="128" cy="344" rx="120" ry="32"/>
<path style="fill:#CACACA;" d="M128,296C61.6,296,8,281.6,8,264v40c0,17.6,53.6,32,120,32s120-14.4,120-32v-40  C248,281.6,194.4,296,128,296z"/>
<ellipse style="fill:#E3E3E3;" cx="128" cy="264" rx="120" ry="32"/>
<path style="fill:#1CCACA;" d="M128,216C61.6,216,8,201.6,8,184v40c0,17.6,53.6,32,120,32s120-14.4,120-32v-40  C248,201.6,194.4,216,128,216z"/>
<ellipse style="fill:#005792;" cx="128" cy="184" rx="120" ry="32"/>
<path style="fill:#CACACA;" d="M128,136C61.6,136,8,121.6,8,104v40c0,17.6,53.6,32,120,32s120-14.4,120-32v-40  C248,121.6,194.4,136,128,136z"/>
<ellipse style="fill:#E3E3E3;" cx="128" cy="104" rx="120" ry="32"/>
<g>
	<rect x="264" y="320" style="fill:#2B2B2B;" width="40" height="16"/>
	<rect x="264" y="160" style="fill:#2B2B2B;" width="40" height="16"/>
	<polygon style="fill:#2B2B2B;" points="344,448 296,448 296,48 344,48 344,64 312,64 312,432 344,432  "/>
	<rect x="304" y="240" style="fill:#2B2B2B;" width="40" height="16"/>
</g>
<rect x="360" style="fill:#ffd801;" width="128" height="112"/>
<rect x="360" y="48" style="fill:#2B2B2B;" width="128" height="16"/>
<g>
	<rect x="376" y="16" style="fill:#FFFFFF;" width="16" height="16"/>
	<rect x="376" y="80" style="fill:#FFFFFF;" width="16" height="16"/>
</g>
<rect x="360" y="192" style="fill:#ffd801;" width="128" height="112"/>
<rect x="360" y="240" style="fill:#2B2B2B;" width="128" height="16"/>
<g>
	<rect x="376" y="208" style="fill:#FFFFFF;" width="16" height="16"/>
	<rect x="376" y="272" style="fill:#FFFFFF;" width="16" height="16"/>
</g>
<rect x="360" y="384" style="fill:#ffd801;" width="128" height="112"/>
<rect x="360" y="432" style="fill:#2B2B2B;" width="128" height="16"/>
<g>
	<rect x="376" y="400" style="fill:#FFFFFF;" width="16" height="16"/>
	<rect x="376" y="464" style="fill:#FFFFFF;" width="16" height="16"/>
</g>
<g>
	<rect x="120" y="8" style="fill:#2B2B2B;" width="16" height="16"/>
	<rect x="120" y="40" style="fill:#2B2B2B;" width="16" height="16"/>
	<rect x="120" y="72" style="fill:#2B2B2B;" width="16" height="16"/>
	<rect x="120" y="400" style="fill:#2B2B2B;" width="16" height="16"/>
	<rect x="120" y="432" style="fill:#2B2B2B;" width="16" height="16"/>
	<rect x="120" y="464" style="fill:#2B2B2B;" width="16" height="16"/>
</g>
<g>
	<path style="fill:#19B4B4;" d="M34.4,324c21.6,7.2,56,12,93.6,12s72-4.8,93.6-12c-21.6-7.2-56-12-93.6-12S56.8,316.8,34.4,324z"/>
	<path style="fill:#19B4B4;" d="M34.4,244c21.6,7.2,56,12,93.6,12s72-4.8,93.6-12c-21.6-7.2-56-12-93.6-12S56.8,236.8,34.4,244z"/>
	<path style="fill:#19B4B4;" d="M34.4,164c21.6,7.2,56,12,93.6,12s72-4.8,93.6-12c-21.6-7.2-56-12-93.6-12S56.8,156.8,34.4,164z"/>
</g>
<g>
</g>
<g>
</g>
<g>
</g>
<g>
</g>
<g>
</g>
<g>
</g>
<g>
</g>
<g>
</g>
<g>
</g>
<g>
</g>
<g>
</g>
<g>
</g>
<g>
</g>
<g>
</g>
<g>
</g>
</svg>
