<?xml version="1.0" encoding="iso-8859-1"?>
<!-- Generator: Adobe Illustrator 19.0.0, SVG Export Plug-In . SVG Version: 6.00 Build 0)  -->
<svg version="1.1" id="Layer_1" xmlns="http://www.w3.org/2000/svg" xmlns:xlink="http://www.w3.org/1999/xlink" x="0px" y="0px"
	 viewBox="0 0 512 512" style="enable-background:new 0 0 512 512;" xml:space="preserve">
<g>
	<rect x="75.85" y="331.848" style="fill:#ffd801;" width="56.883" height="120.036"/>
	<rect y="331.848" style="fill:#ffd801;" width="56.883" height="92.096"/>
	<rect x="151.706" y="331.848" style="fill:#ffd801;" width="56.883" height="71.109"/>
	<rect x="227.558" y="331.848" style="fill:#ffd801;" width="56.883" height="170.675"/>
	<rect x="303.411" y="331.848" style="fill:#ffd801;" width="56.883" height="111.427"/>
	<rect x="379.264" y="331.848" style="fill:#ffd801;" width="56.883" height="56.883"/>
	<rect x="455.117" y="331.848" style="fill:#ffd801;" width="56.883" height="92.096"/>
</g>
<g>
	<rect x="0" y="129.779" style="fill:#242D3C;" width="18.964" height="145.178"/>
	<rect x="37.929" y="174.612" style="fill:#242D3C;" width="18.962" height="100.352"/>
	<rect x="75.855" y="9.477" style="fill:#242D3C;" width="18.962" height="265.472"/>
	<rect x="113.792" y="115.656" style="fill:#242D3C;" width="18.964" height="159.283"/>
	<rect x="151.706" y="46.484" style="fill:#242D3C;" width="18.962" height="228.454"/>
	<rect x="189.645" y="127.066" style="fill:#242D3C;" width="18.962" height="147.891"/>
	<rect x="227.558" y="25.672" style="fill:#242D3C;" width="18.964" height="249.267"/>
	<rect x="265.472" y="68.27" style="fill:#242D3C;" width="18.962" height="206.694"/>
	<rect x="303.411" y="115.656" style="fill:#242D3C;" width="18.962" height="159.283"/>
	<rect x="341.325" y="30.303" style="fill:#242D3C;" width="18.962" height="244.659"/>
	<rect x="379.264" y="129.779" style="fill:#242D3C;" width="18.962" height="145.178"/>
	<rect x="417.178" y="99.707" style="fill:#242D3C;" width="18.962" height="175.258"/>
	<rect x="455.117" y="46.484" style="fill:#242D3C;" width="18.962" height="228.454"/>
	<rect x="493.03" y="137.874" style="fill:#242D3C;" width="18.962" height="137.088"/>
	<rect y="293.908" style="fill:#242D3C;" width="18.962" height="18.962"/>
	<rect x="37.924" y="293.908" style="fill:#242D3C;" width="18.962" height="18.962"/>
	<rect x="75.85" y="293.908" style="fill:#242D3C;" width="18.962" height="18.962"/>
	<rect x="113.766" y="293.908" style="fill:#242D3C;" width="18.964" height="18.962"/>
	<rect x="151.706" y="293.908" style="fill:#242D3C;" width="18.962" height="18.962"/>
	<rect x="189.619" y="293.908" style="fill:#242D3C;" width="18.962" height="18.962"/>
	<rect x="227.558" y="293.908" style="fill:#242D3C;" width="18.964" height="18.962"/>
	<rect x="265.472" y="293.908" style="fill:#242D3C;" width="18.962" height="18.962"/>
	<rect x="303.411" y="293.908" style="fill:#242D3C;" width="18.962" height="18.962"/>
	<rect x="341.325" y="293.908" style="fill:#242D3C;" width="18.962" height="18.962"/>
	<rect x="379.264" y="293.908" style="fill:#242D3C;" width="18.962" height="18.962"/>
	<rect x="417.178" y="293.908" style="fill:#242D3C;" width="18.962" height="18.962"/>
	<rect x="455.117" y="293.908" style="fill:#242D3C;" width="18.962" height="18.962"/>
	<rect x="493.03" y="293.908" style="fill:#242D3C;" width="18.962" height="18.962"/>
</g>
<g>
</g>
<g>
</g>
<g>
</g>
<g>
</g>
<g>
</g>
<g>
</g>
<g>
</g>
<g>
</g>
<g>
</g>
<g>
</g>
<g>
</g>
<g>
</g>
<g>
</g>
<g>
</g>
<g>
</g>
</svg>
