<?xml version="1.0" encoding="iso-8859-1"?>
<!-- Generator: Adobe Illustrator 19.0.0, SVG Export Plug-In . SVG Version: 6.00 Build 0)  -->
<svg version="1.1" id="Layer_1" xmlns="http://www.w3.org/2000/svg" xmlns:xlink="http://www.w3.org/1999/xlink" x="0px" y="0px"
	 viewBox="0 0 512 512" style="enable-background:new 0 0 512 512;" xml:space="preserve">
<g>
	<path style="fill:#242D3C;" d="M429.775,444.303l-65.564-65.58l7.247-7.24c30.868-30.835,47.867-71.841,47.867-115.469v-10.24
		h92.662v10.24c0,68.398-26.627,132.692-74.967,181.048L429.775,444.303z M392.983,378.534l36.639,36.649
		c37.686-41.037,59.31-93.253,61.673-148.931h-51.771C437.243,308.106,420.974,347.341,392.983,378.534z"/>
	<path style="fill:#242D3C;" d="M184.067,109.059l-35.438-85.56l9.411-3.94C189.036,6.579,221.973,0,255.941,0h10.24v92.692
		l-10.232,0.005c-21.55,0.015-42.55,4.204-62.42,12.439L184.067,109.059z M175.439,34.719l19.814,47.834
		c16.287-5.719,33.183-9.083,50.445-10.048V20.695C221.509,21.732,197.96,26.427,175.439,34.719z"/>
</g>
<path style="fill:#ffd801;" d="M411.092,204.815h95.688C486.359,104.653,407.316,25.556,307.133,5.161v95.78
	C356.101,117.13,394.883,155.868,411.092,204.815z"/>
<path style="fill:#005792;" d="M329.446,401.884c-22.505,11.374-47.514,17.434-73.459,17.434c-90.056,0-163.32-73.27-163.32-163.331
	c0-48.509,21.294-93.184,56.717-123.633l-36.652-88.489C42.99,90.744,0.013,169.513,0.013,256.044
	C0.013,397.181,114.819,512,255.941,512c51.026,0,99.753-14.799,141.284-42.324L329.446,401.884z"/>
<g>
	
		<rect x="245.763" y="166.237" transform="matrix(-0.7074 -0.7069 0.7069 -0.7074 256.1187 618.0787)" style="fill:#242D3C;" width="20.481" height="179.569"/>
	<path style="fill:#242D3C;" d="M295.549,329.728c-18.842,0-34.171-15.337-34.171-34.189c0-18.836,15.327-34.166,34.171-34.166
		c18.844,0,34.176,15.327,34.176,34.166C329.725,314.391,314.394,329.728,295.549,329.728z M295.549,281.851
		c-7.547,0-13.691,6.139-13.691,13.688c0,7.56,6.141,13.711,13.691,13.711c7.552,0,13.696-6.152,13.696-13.711
		C309.245,287.99,303.101,281.851,295.549,281.851z"/>
	<path style="fill:#242D3C;" d="M216.453,250.624c-18.847,0-34.179-15.332-34.179-34.179s15.332-34.176,34.179-34.176
		c18.844,0,34.176,15.327,34.176,34.176C250.629,235.292,235.297,250.624,216.453,250.624z M216.453,202.749
		c-7.552,0-13.699,6.144-13.699,13.696c0,7.552,6.147,13.699,13.699,13.699c7.552,0,13.696-6.147,13.696-13.699
		C230.149,208.893,224.005,202.749,216.453,202.749z"/>
</g>
<g>
</g>
<g>
</g>
<g>
</g>
<g>
</g>
<g>
</g>
<g>
</g>
<g>
</g>
<g>
</g>
<g>
</g>
<g>
</g>
<g>
</g>
<g>
</g>
<g>
</g>
<g>
</g>
<g>
</g>
</svg>
