<?xml version="1.0" encoding="iso-8859-1"?>
<!-- Generator: Adobe Illustrator 19.0.0, SVG Export Plug-In . SVG Version: 6.00 Build 0)  -->
<svg version="1.1" id="Capa_1" xmlns="http://www.w3.org/2000/svg" xmlns:xlink="http://www.w3.org/1999/xlink" x="0px" y="0px"
	 viewBox="0 0 496 496" style="enable-background:new 0 0 496 496;" xml:space="preserve">
<g>
	<rect x="160" y="440" style="fill:#403E3E;" width="64" height="16"/>
	<rect x="184" y="40" style="fill:#403E3E;" width="16" height="16"/>
	<path style="fill:#403E3E;" d="M224,496H64c-26.472,0-48-21.528-48-48V48C16,21.528,37.528,0,64,0h256c26.472,0,48,21.528,48,48v16
		h-16V48c0-17.648-14.352-32-32-32H64c-17.648,0-32,14.352-32,32v400c0,17.648,14.352,32,32,32h160V496z"/>
</g>
<polygon style="fill:#005792;" points="224,416 56,416 56,80 224,80 224,96 72,96 72,400 224,400 "/>
<g>
	<path style="fill:#403E3E;" d="M448,496H272c-17.944,0-32-14.056-32-32V328h16v136c0,9.128,6.872,16,16,16h176
		c9.128,0,16-6.872,16-16V112c0-9.12-6.872-16-16-16H272c-9.128,0-16,6.88-16,16v104h-16V112c0-17.944,14.056-32,32-32h176
		c17.944,0,32,14.056,32,32v352C480,481.944,465.944,496,448,496z"/>
	<rect x="352" y="120" style="fill:#403E3E;" width="16" height="16"/>
</g>
<polygon style="fill:#ffd801;" points="448,416 272,416 272,328 288,328 288,400 432,400 432,176 288,176 288,248 272,248 272,160 
	448,160 "/>
<g>
	<rect x="328" y="440" style="fill:#403E3E;" width="64" height="16"/>
	<rect x="240" y="264" style="fill:#403E3E;" width="16" height="16"/>
	<rect x="272" y="264" style="fill:#403E3E;" width="16" height="16"/>
	<rect x="208" y="264" style="fill:#403E3E;" width="16" height="16"/>
</g>
<path style="fill:#ffd801;" d="M168,328c-2.08,0-4.128-0.816-5.656-2.344l-64-64c-3.128-3.128-3.128-8.184,0-11.312l64-64
	c2.288-2.296,5.712-2.984,8.72-1.736c2.984,1.24,4.936,4.16,4.936,7.392v40h80v16h-88c-4.416,0-8-3.584-8-8v-28.688L115.312,256
	L160,300.688V272c0-4.424,3.584-8,8-8h24v16h-16v40c0,3.232-1.952,6.16-4.936,7.392C170.072,327.808,169.032,328,168,328z"/>
<path style="fill:#005792;" d="M328,360c-1.032,0-2.072-0.192-3.064-0.608C321.944,358.16,320,355.232,320,352v-40h-80v-16h88
	c4.424,0,8,3.576,8,8v28.688L380.688,288L336,243.312V272c0,4.424-3.576,8-8,8h-24v-16h16v-40c0-3.232,1.944-6.152,4.936-7.392
	c3-1.224,6.432-0.56,8.72,1.736l64,64c3.128,3.128,3.128,8.184,0,11.312l-64,64C332.128,359.184,330.08,360,328,360z"/>
<g>
</g>
<g>
</g>
<g>
</g>
<g>
</g>
<g>
</g>
<g>
</g>
<g>
</g>
<g>
</g>
<g>
</g>
<g>
</g>
<g>
</g>
<g>
</g>
<g>
</g>
<g>
</g>
<g>
</g>
</svg>
