<?xml version="1.0" encoding="iso-8859-1"?>
<!-- Generator: Adobe Illustrator 19.0.0, SVG Export Plug-In . SVG Version: 6.00 Build 0)  -->
<svg version="1.1" id="Capa_1" xmlns="http://www.w3.org/2000/svg" xmlns:xlink="http://www.w3.org/1999/xlink" x="0px" y="0px"
	 viewBox="0 0 512 512" style="enable-background:new 0 0 512 512;" xml:space="preserve">
<g>
	<path style="fill:#005792;" d="M320,248H0V80h86.112l48-24H320V248z M16,232h288V72H137.888l-48,24H16V232z"/>
	<polygon style="fill:#005792;" points="320,64 304,64 304,40 134.112,40 86.112,16 16,16 16,56 0,56 0,0 89.888,0 137.888,24 
		320,24 	"/>
</g>
<g>
	<rect x="32" y="40" style="fill:#403E3E;" width="16" height="16"/>
	<rect x="64" y="40" style="fill:#403E3E;" width="16" height="16"/>
	<rect x="96" y="40" style="fill:#403E3E;" width="16" height="16"/>
</g>
<rect x="32" y="200" style="fill:#005792;" width="256" height="16"/>
<g>
	<path style="fill:#ffd801;" d="M512,512H192V344h86.112l48-24H512V512z M208,496h288V336H329.888l-48,24H208V496z"/>
	<polygon style="fill:#ffd801;" points="512,328 496,328 496,304 326.112,304 278.112,280 208,280 208,320 192,320 192,264 
		281.888,264 329.888,288 512,288 	"/>
</g>
<g>
	<rect x="224" y="304" style="fill:#403E3E;" width="16" height="16"/>
	<rect x="256" y="304" style="fill:#403E3E;" width="16" height="16"/>
	<rect x="288" y="304" style="fill:#403E3E;" width="16" height="16"/>
</g>
<rect x="224" y="464" style="fill:#ffd801;" width="256" height="16"/>
<g>
	<polygon style="fill:#403E3E;" points="512,112 496,112 496,40 424,40 424,24 512,24 	"/>
	<rect x="464" y="56" style="fill:#403E3E;" width="16" height="16"/>
	<polygon style="fill:#403E3E;" points="88,512 0,512 0,424 16,424 16,496 88,496 	"/>
	<rect x="32" y="464" style="fill:#403E3E;" width="16" height="16"/>
</g>
<g>
</g>
<g>
</g>
<g>
</g>
<g>
</g>
<g>
</g>
<g>
</g>
<g>
</g>
<g>
</g>
<g>
</g>
<g>
</g>
<g>
</g>
<g>
</g>
<g>
</g>
<g>
</g>
<g>
</g>
</svg>
