<?xml version="1.0" encoding="iso-8859-1"?>
<!-- Generator: Adobe Illustrator 19.0.0, SVG Export Plug-In . SVG Version: 6.00 Build 0)  -->
<svg version="1.1" id="Layer_1" xmlns="http://www.w3.org/2000/svg" xmlns:xlink="http://www.w3.org/1999/xlink" x="0px" y="0px"
	 viewBox="0 0 511.997 511.997" style="enable-background:new 0 0 511.997 511.997;" xml:space="preserve">
<rect x="13.078" y="401.766" style="fill:#ffd801;" width="46.715" height="74.752"/>
<polygon style="fill:#242D3C;" points="115.852,476.498 97.166,476.498 97.166,411.095 22.422,411.095 22.422,476.498 
	3.736,476.498 3.736,392.41 115.852,392.41 "/>
<rect x="143.871" y="270.95" style="fill:#ffd801;" width="46.715" height="205.542"/>
<polygon style="fill:#242D3C;" points="246.657,476.498 227.969,476.498 227.969,280.292 153.225,280.292 153.225,476.498 
	134.54,476.498 134.54,261.604 246.657,261.604 "/>
<rect x="274.687" y="140.147" style="fill:#ffd801;" width="46.717" height="336.358"/>
<polygon style="fill:#242D3C;" points="377.458,476.498 358.772,476.498 358.772,149.489 284.028,149.489 284.028,476.498 
	265.34,476.498 265.34,130.803 377.458,130.803 "/>
<rect x="405.503" y="9.341" style="fill:#005792;" width="46.715" height="467.149"/>
<g>
	<polygon style="fill:#242D3C;" points="508.261,476.498 489.576,476.498 489.576,18.685 414.831,18.685 414.831,476.498 
		396.143,476.498 396.143,0 508.261,0 	"/>
	<rect x="3.736" y="493.312" style="fill:#242D3C;" width="504.525" height="18.685"/>
	<rect x="3.736" y="261.606" style="fill:#242D3C;" width="18.685" height="18.688"/>
	<rect x="47.336" y="261.606" style="fill:#242D3C;" width="18.685" height="18.688"/>
	<rect x="90.935" y="261.606" style="fill:#242D3C;" width="18.685" height="18.688"/>
	<rect x="3.736" y="130.79" style="fill:#242D3C;" width="18.685" height="18.685"/>
	<rect x="47.338" y="130.79" style="fill:#242D3C;" width="18.685" height="18.685"/>
	<rect x="90.94" y="130.79" style="fill:#242D3C;" width="18.683" height="18.685"/>
	<rect x="134.527" y="130.79" style="fill:#242D3C;" width="18.685" height="18.685"/>
	<rect x="178.149" y="130.79" style="fill:#242D3C;" width="18.685" height="18.685"/>
	<rect x="221.746" y="130.79" style="fill:#242D3C;" width="18.685" height="18.685"/>
	<rect x="3.736" style="fill:#242D3C;" width="18.685" height="18.685"/>
	<rect x="47.338" style="fill:#242D3C;" width="18.685" height="18.685"/>
	<rect x="90.94" style="fill:#242D3C;" width="18.683" height="18.685"/>
	<rect x="134.527" style="fill:#242D3C;" width="18.685" height="18.685"/>
	<rect x="178.149" style="fill:#242D3C;" width="18.685" height="18.685"/>
	<rect x="221.746" style="fill:#242D3C;" width="18.685" height="18.685"/>
	<rect x="265.343" style="fill:#242D3C;" width="18.688" height="18.685"/>
	<rect x="308.939" style="fill:#242D3C;" width="18.688" height="18.685"/>
	<rect x="352.536" style="fill:#242D3C;" width="18.685" height="18.685"/>
</g>
<g>
</g>
<g>
</g>
<g>
</g>
<g>
</g>
<g>
</g>
<g>
</g>
<g>
</g>
<g>
</g>
<g>
</g>
<g>
</g>
<g>
</g>
<g>
</g>
<g>
</g>
<g>
</g>
<g>
</g>
</svg>
