<?xml version="1.0" encoding="iso-8859-1"?>
<!-- Generator: Adobe Illustrator 19.0.0, SVG Export Plug-In . SVG Version: 6.00 Build 0)  -->
<svg xmlns="http://www.w3.org/2000/svg" xmlns:xlink="http://www.w3.org/1999/xlink" version="1.1" id="Layer_1" x="0px" y="0px" viewBox="0 0 432 432" style="enable-background:new 0 0 432 432;" xml:space="preserve">
<g>
	<rect x="352" y="112" style="fill:#2B2B2B;" width="16" height="32"/>
	<rect x="64" y="112" style="fill:#2B2B2B;" width="16" height="32"/>
	<rect x="352" y="256" style="fill:#2B2B2B;" width="16" height="32"/>
	<rect x="64" y="256" style="fill:#2B2B2B;" width="16" height="32"/>
	<rect x="352" y="400" style="fill:#2B2B2B;" width="16" height="32"/>
	<rect x="64" y="400" style="fill:#2B2B2B;" width="16" height="32"/>
	<rect x="112" y="416" style="fill:#2B2B2B;" width="208" height="16"/>
</g>
<g>
	<rect x="40" style="fill:#E3E3E3;" width="352" height="112"/>
	<rect x="40" y="144" style="fill:#E3E3E3;" width="352" height="112"/>
	<rect x="40" y="288" style="fill:#E3E3E3;" width="352" height="112"/>
</g>
<circle style="fill:#E35B17;" cx="344" cy="344" r="24"/>
<g>
	<rect x="288" y="320" style="fill:#FFFFFF;" width="16" height="16"/>
	<rect x="256" y="320" style="fill:#FFFFFF;" width="16" height="16"/>
	<rect x="224" y="320" style="fill:#FFFFFF;" width="16" height="16"/>
	<rect x="288" y="352" style="fill:#FFFFFF;" width="16" height="16"/>
	<rect x="256" y="352" style="fill:#FFFFFF;" width="16" height="16"/>
	<rect x="224" y="352" style="fill:#FFFFFF;" width="16" height="16"/>
</g>
<g>
	<rect x="96" y="320" style="fill:#2B2B2B;" width="16" height="48"/>
	<rect x="64" y="320" style="fill:#2B2B2B;" width="16" height="48"/>
	<rect x="128" y="320" style="fill:#2B2B2B;" width="16" height="48"/>
</g>
<circle style="fill:#E35B17;" cx="344" cy="200" r="24"/>
<g>
	<rect x="288" y="176" style="fill:#FFFFFF;" width="16" height="16"/>
	<rect x="256" y="176" style="fill:#FFFFFF;" width="16" height="16"/>
	<rect x="224" y="176" style="fill:#FFFFFF;" width="16" height="16"/>
	<rect x="288" y="208" style="fill:#FFFFFF;" width="16" height="16"/>
	<rect x="256" y="208" style="fill:#FFFFFF;" width="16" height="16"/>
	<rect x="224" y="208" style="fill:#FFFFFF;" width="16" height="16"/>
</g>
<g>
	<rect x="96" y="176" style="fill:#2B2B2B;" width="16" height="48"/>
	<rect x="64" y="176" style="fill:#2B2B2B;" width="16" height="48"/>
	<rect x="128" y="176" style="fill:#2B2B2B;" width="16" height="48"/>
</g>
<circle style="fill:#E35B17;" cx="344" cy="56" r="24"/>
<g>
	<rect x="288" y="32" style="fill:#FFFFFF;" width="16" height="16"/>
	<rect x="256" y="32" style="fill:#FFFFFF;" width="16" height="16"/>
	<rect x="224" y="32" style="fill:#FFFFFF;" width="16" height="16"/>
	<rect x="288" y="64" style="fill:#FFFFFF;" width="16" height="16"/>
	<rect x="256" y="64" style="fill:#FFFFFF;" width="16" height="16"/>
	<rect x="224" y="64" style="fill:#FFFFFF;" width="16" height="16"/>
</g>
<g>
	<rect x="96" y="32" style="fill:#2B2B2B;" width="16" height="48"/>
	<rect x="64" y="32" style="fill:#2B2B2B;" width="16" height="48"/>
	<rect x="128" y="32" style="fill:#2B2B2B;" width="16" height="48"/>
</g>
<g>
</g>
<g>
</g>
<g>
</g>
<g>
</g>
<g>
</g>
<g>
</g>
<g>
</g>
<g>
</g>
<g>
</g>
<g>
</g>
<g>
</g>
<g>
</g>
<g>
</g>
<g>
</g>
<g>
</g>
</svg>
