<?xml version="1.0" encoding="iso-8859-1"?>
<!-- Generator: Adobe Illustrator 19.0.0, SVG Export Plug-In . SVG Version: 6.00 Build 0)  -->
<svg xmlns="http://www.w3.org/2000/svg" xmlns:xlink="http://www.w3.org/1999/xlink" version="1.1" id="Layer_1" x="0px" y="0px" viewBox="0 0 472 472" style="enable-background:new 0 0 472 472;" xml:space="preserve">
<g>
	<path style="fill:#2B2B2B;" d="M313.6,434.4l-5.6-15.2c71.2-26.4,122.4-89.6,133.6-164l16,2.4C445.6,338.4,390.4,405.6,313.6,434.4   z"/>
	<path style="fill:#2B2B2B;" d="M441.6,192.8C426.4,92,338.4,16,236,16S45.6,92,30.4,192.8l-16-2.4C30.4,82.4,125.6,0,236,0   s205.6,82.4,221.6,191.2L441.6,192.8z"/>
	<path style="fill:#2B2B2B;" d="M210.4,446.4c-100.8-11.2-180.8-89.6-196-189.6l16-2.4C44,348,119.2,420,212,430.4L210.4,446.4z"/>
	<path style="fill:#2B2B2B;" d="M236,472c-17.6,0-32-14.4-32-32s14.4-32,32-32s32,14.4,32,32S253.6,472,236,472z M236,424   c-8.8,0-16,7.2-16,16s7.2,16,16,16c8.8,0,16-7.2,16-16S244.8,424,236,424z"/>
	<path style="fill:#2B2B2B;" d="M236,104c-17.6,0-32-14.4-32-32s14.4-32,32-32s32,14.4,32,32S253.6,104,236,104z M236,56   c-8.8,0-16,7.2-16,16s7.2,16,16,16c8.8,0,16-7.2,16-16S244.8,56,236,56z"/>
	<path style="fill:#2B2B2B;" d="M95.2,193.6l-16-3.2c9.6-45.6,39.2-84.8,80.8-107.2l7.2,14.4C130.4,117.6,104,152.8,95.2,193.6z"/>
	<path style="fill:#2B2B2B;" d="M236,384c-75.2,0-140.8-52.8-156-126.4l16-3.2C109.6,320,168.8,368,236,368s126.4-48,140.8-113.6   l16,3.2C376.8,331.2,311.2,384,236,384z"/>
	<path style="fill:#2B2B2B;" d="M376.8,193.6c-12-57.6-60-102.4-118.4-112l2.4-16c64.8,10.4,117.6,60,131.2,124L376.8,193.6z"/>
	<rect x="412" y="216" style="fill:#2B2B2B;" width="16" height="16"/>
	<rect x="444" y="216" style="fill:#2B2B2B;" width="16" height="16"/>
	<rect x="380" y="216" style="fill:#2B2B2B;" width="16" height="16"/>
	<rect x="44" y="216" style="fill:#2B2B2B;" width="16" height="16"/>
	<rect x="76" y="216" style="fill:#2B2B2B;" width="16" height="16"/>
	<rect x="12" y="216" style="fill:#2B2B2B;" width="16" height="16"/>
	<rect x="44" y="32" style="fill:#2B2B2B;" width="16" height="16"/>
	<rect x="412" y="32" style="fill:#2B2B2B;" width="16" height="16"/>
	<rect x="44" y="400" style="fill:#2B2B2B;" width="16" height="16"/>
	<rect x="412" y="400" style="fill:#2B2B2B;" width="16" height="16"/>
</g>
<circle style="fill:#E3E3E3;" cx="236" cy="224" r="96"/>
<g>
	<path style="fill:#FFFFFF;" d="M236,224l-68-68c-17.6,17.6-28,41.6-28,68H236z"/>
	<path style="fill:#FFFFFF;" d="M236,224l56.8,56.8c14.4-14.4,23.2-34.4,23.2-56.8L236,224L236,224z"/>
</g>
<path style="fill:#005792;" d="M320.8,308.8L236,224v120C268.8,344,299.2,330.4,320.8,308.8z"/>
<path style="fill:#E3E3E3;" d="M356,224c0-32.8-13.6-63.2-35.2-84.8L236,224H356z"/>
<path style="fill:#E35B17;" d="M188,224c0-13.6,5.6-25.6,14.4-33.6l-33.6-33.6C150.4,173.6,140,197.6,140,224c0,52.8,43.2,96,96,96  v-48C209.6,272,188,250.4,188,224z"/>
<path style="fill:#CACACA;" d="M236,224h96c0-26.4-10.4-50.4-28-68L236,224z"/>
<path style="fill:#ffd801;" d="M202.4,190.4L202.4,190.4l-33.6-33.6c-4,4-8,8.8-12,14.4c-10.4,15.2-16,33.6-16,53.6h48  C188,210.4,193.6,198.4,202.4,190.4z"/>
<path style="fill:#4BCACA;" d="M236,224v96c26.4,0,50.4-10.4,68-28L236,224z"/>
<g>
</g>
<g>
</g>
<g>
</g>
<g>
</g>
<g>
</g>
<g>
</g>
<g>
</g>
<g>
</g>
<g>
</g>
<g>
</g>
<g>
</g>
<g>
</g>
<g>
</g>
<g>
</g>
<g>
</g>
</svg>
