<?xml version="1.0" encoding="iso-8859-1"?>
<!-- Generator: Adobe Illustrator 19.0.0, SVG Export Plug-In . SVG Version: 6.00 Build 0)  -->
<svg xmlns="http://www.w3.org/2000/svg" xmlns:xlink="http://www.w3.org/1999/xlink" version="1.1" id="Layer_1" x="0px" y="0px" viewBox="0 0 512 512" style="enable-background:new 0 0 512 512;" xml:space="preserve">
<g>
	<polygon style="fill:#2B2B2B;" points="224,476 96,476 96,436 112,436 112,460 224,460  "/>
	<polygon style="fill:#2B2B2B;" points="416,476 288,476 288,460 400,460 400,436 416,436  "/>
	<path style="fill:#2B2B2B;" d="M256,508c-22.4,0-40-17.6-40-40s17.6-40,40-40s40,17.6,40,40S278.4,508,256,508z M256,444   c-13.6,0-24,10.4-24,24s10.4,24,24,24s24-10.4,24-24S269.6,444,256,444z"/>
	<rect x="248" y="460" style="fill:#2B2B2B;" width="16" height="16"/>
	<rect x="248" y="220" style="fill:#2B2B2B;" width="16" height="96"/>
	<rect x="248" y="396" style="fill:#2B2B2B;" width="16" height="16"/>
	<rect x="248" y="364" style="fill:#2B2B2B;" width="16" height="16"/>
	<rect x="248" y="332" style="fill:#2B2B2B;" width="16" height="16"/>
</g>
<g>
	<path style="fill:#E3E3E3;" d="M192,380H16c-8.8,0-16-7.2-16-16V236c0-8.8,7.2-16,16-16h176c8.8,0,16,7.2,16,16v128   C208,372.8,200.8,380,192,380z M192,364v8V364L192,364L192,364z M16,236v128h176V236H16z"/>
	<rect x="72" y="380" style="fill:#E3E3E3;" width="64" height="32"/>
	<rect x="56" y="404" style="fill:#E3E3E3;" width="96" height="16"/>
</g>
<rect x="32" y="252" style="fill:#005792;" width="144" height="96"/>
<g>
	<rect x="64" y="292" style="fill:#FFFFFF;" width="16" height="16"/>
	<rect x="96" y="292" style="fill:#FFFFFF;" width="16" height="16"/>
	<rect x="128" y="292" style="fill:#FFFFFF;" width="16" height="16"/>
</g>
<g>
	<path style="fill:#E3E3E3;" d="M496,380H320c-8.8,0-16-7.2-16-16V236c0-8.8,7.2-16,16-16h176c8.8,0,16,7.2,16,16v128   C512,372.8,504.8,380,496,380z M496,364v8V364L496,364L496,364z M320,236v128h176V236H320z"/>
	<rect x="376" y="380" style="fill:#E3E3E3;" width="64" height="32"/>
	<rect x="360" y="404" style="fill:#E3E3E3;" width="96" height="16"/>
</g>
<rect x="336" y="252" style="fill:#005792;" width="144" height="96"/>
<g>
	<rect x="368" y="292" style="fill:#FFFFFF;" width="16" height="16"/>
	<rect x="400" y="292" style="fill:#FFFFFF;" width="16" height="16"/>
	<rect x="432" y="292" style="fill:#FFFFFF;" width="16" height="16"/>
</g>
<g>
	<path style="fill:#E3E3E3;" d="M344,164H168c-8.8,0-16-7.2-16-16V20c0-8.8,7.2-16,16-16h176c8.8,0,16,7.2,16,16v128   C360,156.8,352.8,164,344,164z M344,148v8V148L344,148L344,148z M168,20v128h176V20H168z"/>
	<rect x="224" y="164" style="fill:#E3E3E3;" width="64" height="32"/>
	<rect x="208" y="188" style="fill:#E3E3E3;" width="96" height="16"/>
</g>
<rect x="184" y="36" style="fill:#ffd801;" width="144" height="96"/>
<g>
	<rect x="216" y="76" style="fill:#FFFFFF;" width="16" height="16"/>
	<rect x="248" y="76" style="fill:#FFFFFF;" width="16" height="16"/>
	<rect x="280" y="76" style="fill:#FFFFFF;" width="16" height="16"/>
</g>
<g>
</g>
<g>
</g>
<g>
</g>
<g>
</g>
<g>
</g>
<g>
</g>
<g>
</g>
<g>
</g>
<g>
</g>
<g>
</g>
<g>
</g>
<g>
</g>
<g>
</g>
<g>
</g>
<g>
</g>
</svg>
