<?xml version="1.0" encoding="iso-8859-1"?>
<!-- Generator: Adobe Illustrator 19.0.0, SVG Export Plug-In . SVG Version: 6.00 Build 0)  -->
<svg xmlns="http://www.w3.org/2000/svg" xmlns:xlink="http://www.w3.org/1999/xlink" version="1.1" id="Layer_1" x="0px" y="0px" viewBox="0 0 356.436 356.436" style="enable-background:new 0 0 356.436 356.436;" xml:space="preserve">
<g>
	<path style="fill:#2B2B2B;" d="M28.34,274.396c-7.359,0-14.717-2.858-19.826-8.514C2.858,260.774,0,253.415,0,246.057V25.481   h28.279v11.312H11.312v209.264c0,4.5,1.703,9.061,5.108,11.859c2.858,3.406,7.359,5.108,11.859,5.108v11.372H28.34z"/>
	<rect x="192.357" y="25.481" style="fill:#2B2B2B;" width="164.018" height="11.312"/>
</g>
<path style="fill:#005792;" d="M186.702,48.105L141.455,14.17H50.963v226.292c0,5.656-2.25,11.312-6.811,15.812  c-4.5,4.5-10.156,6.811-15.812,6.811v11.312h305.473c5.656,0,11.312-2.25,15.812-6.811c4.5-4.5,6.811-10.156,6.811-15.812V48.105  H186.702z"/>
<g>
	<rect x="73.586" y="48.105" style="fill:#2B2B2B;" width="73.525" height="11.312"/>
	<rect x="73.586" y="70.728" style="fill:#2B2B2B;" width="39.59" height="11.312"/>
</g>
<path style="fill:#FFFFFF;" d="M288.566,172.532V161.22l-23.535-4.683c-0.669-3.892-1.703-7.723-3.041-11.312l18.001-15.629  l-5.656-10.156l-22.623,8.028c-2.554-3.102-5.473-6.021-8.575-8.575l8.028-22.623l-10.156-5.656l-15.629,18.001  c-3.649-1.338-7.419-2.372-11.312-3.041L209.385,82.1h-11.312l-4.683,23.475c-3.892,0.669-7.723,1.703-11.312,3.041L166.45,90.614  l-10.156,5.656l8.028,22.623c-3.102,2.554-6.021,5.473-8.575,8.575l-22.623-8.028l-5.656,10.156l18.001,15.629  c-1.338,3.649-2.372,7.419-3.041,11.312l-23.475,4.683v11.312l23.475,4.683c0.669,3.892,1.703,7.723,3.041,11.312l-18.001,15.629  l5.656,10.156l22.623-8.028c2.554,3.102,5.473,6.021,8.575,8.575l-8.149,22.745l10.156,5.656l15.629-18.001  c3.649,1.338,7.419,2.372,11.312,3.041l4.683,23.475h11.312l4.683-23.475c3.892-0.669,7.723-1.703,11.312-3.041l15.629,18.001  l10.156-5.656l-8.028-22.623c3.102-2.554,6.021-5.473,8.575-8.575l22.623,8.028l5.656-10.156l-18.001-15.629  c1.338-3.649,2.372-7.419,3.041-11.312L288.566,172.532z"/>
<polygon style="fill:#ffd801;" points="333.813,285.708 333.813,297.02 322.501,297.02 322.501,285.708 169.734,285.708   169.734,342.266 322.501,342.266 322.501,330.954 333.813,330.954 333.813,342.266 356.436,342.266 356.436,285.708 "/>
<rect x="181.046" y="285.708" style="fill:#2B2B2B;" width="11.312" height="56.558"/>
<g>
	<rect x="203.73" y="308.331" style="fill:#FFFFFF;" width="11.312" height="11.312"/>
	<rect x="226.353" y="308.331" style="fill:#FFFFFF;" width="11.312" height="11.312"/>
	<rect x="248.976" y="308.331" style="fill:#FFFFFF;" width="11.312" height="11.312"/>
</g>
<g>
	<rect x="50.963" y="308.331" style="fill:#E3E3E3;" width="118.771" height="11.312"/>
	<polygon style="fill:#E3E3E3;" points="39.651,330.954 0.061,319.643 0.061,308.331 39.651,297.02 56.619,313.987  "/>
</g>
<path style="fill:#2B2B2B;" d="M203.73,217.778c-28.279,0-50.902-22.623-50.902-50.902s22.623-50.902,50.902-50.902  s50.902,22.623,50.902,50.902S232.009,217.778,203.73,217.778z M203.73,127.285c-22.076,0-39.59,17.515-39.59,39.59  s17.515,39.59,39.59,39.59s39.59-17.515,39.59-39.59S225.745,127.285,203.73,127.285z"/>
<circle style="fill:#E3E3E3;" cx="203.73" cy="166.876" r="22.623"/>
<g>
</g>
<g>
</g>
<g>
</g>
<g>
</g>
<g>
</g>
<g>
</g>
<g>
</g>
<g>
</g>
<g>
</g>
<g>
</g>
<g>
</g>
<g>
</g>
<g>
</g>
<g>
</g>
<g>
</g>
</svg>
