<?xml version="1.0" encoding="iso-8859-1"?>
<!-- Generator: Adobe Illustrator 19.0.0, SVG Export Plug-In . SVG Version: 6.00 Build 0)  -->
<svg version="1.1" id="Layer_1" xmlns="http://www.w3.org/2000/svg" xmlns:xlink="http://www.w3.org/1999/xlink" x="0px" y="0px"
	 viewBox="0 0 512 512" style="enable-background:new 0 0 512 512;" xml:space="preserve">
<path style="fill:#242D3C;" d="M454.254,153.023h-19.249v-36.57H32.722c-3.597,0-6.981,1.398-9.523,3.948
	c-2.55,2.545-3.95,5.924-3.95,9.526H0c0-8.745,3.407-16.963,9.587-23.14c6.177-6.177,14.395-9.585,23.135-9.585h421.535v55.821
	H454.254z"/>
<rect x="59.668" y="60.632" style="fill:#005792;" width="334.925" height="92.39"/>
<g>
	<path style="fill:#242D3C;" d="M492.751,451.368H32.719c-8.74,0-16.957-3.405-23.14-9.585C3.407,435.611,0,427.391,0,418.648
		V129.926h19.249c0,3.602,1.403,6.981,3.948,9.526c2.545,2.55,5.929,3.948,9.526,3.948h460.032v117.414h-19.249v-98.166H32.722
		c-4.726,0-9.293-0.993-13.473-2.883v258.883c0,3.599,1.403,6.981,3.948,9.526c2.545,2.55,5.929,3.948,9.526,3.948h440.783v-98.166
		h19.249v117.412H492.751z"/>
	<rect x="38.502" y="393.627" style="fill:#242D3C;" width="19.249" height="19.249"/>
	<path style="fill:#242D3C;" d="M57.743,376.129H38.495v-17.5h19.249V376.129z M57.743,341.129H38.495v-17.495h19.249V341.129z
		 M57.743,306.136H38.495v-17.5h19.249V306.136z M57.743,271.136H38.495v-17.495h19.249V271.136z M57.743,236.141H38.495v-17.5
		h19.249V236.141z"/>
	<rect x="38.502" y="181.889" style="fill:#242D3C;" width="19.249" height="19.249"/>
	<path style="fill:#242D3C;" d="M415.15,201.143h-19.858v-19.249h19.858V201.143z M375.439,201.143h-19.858v-19.249h19.858V201.143z
		 M335.726,201.143h-19.853v-19.249h19.853V201.143z M296.015,201.143h-19.858v-19.249h19.858V201.143z M256.305,201.143h-19.858
		v-19.249h19.858V201.143z M216.594,201.143h-19.858v-19.249h19.858L216.594,201.143L216.594,201.143z M176.881,201.143h-19.858
		v-19.249h19.858V201.143z M137.165,201.143h-19.853v-19.249h19.853V201.143z M97.454,201.143H77.601v-19.249h19.853V201.143z"/>
	<rect x="435.021" y="181.889" style="fill:#242D3C;" width="19.249" height="19.249"/>
	<path style="fill:#242D3C;" d="M454.254,376.129h-19.249v-17.5h19.249V376.129z M454.254,236.141h-19.249v-17.5h19.249V236.141z"/>
	<rect x="435.021" y="393.627" style="fill:#242D3C;" width="19.249" height="19.249"/>
	<path style="fill:#242D3C;" d="M415.15,412.873h-19.858v-19.249h19.858V412.873z M375.439,412.873h-19.858v-19.249h19.858V412.873z
		 M335.726,412.873h-19.853v-19.249h19.853V412.873z M296.015,412.873h-19.858v-19.249h19.858V412.873z M256.305,412.873h-19.858
		v-19.249h19.858V412.873z M216.589,412.873h-19.853v-19.249h19.853L216.589,412.873L216.589,412.873z M176.881,412.873h-19.858
		v-19.249h19.858V412.873z M137.165,412.873h-19.855v-19.249h19.855V412.873z M97.454,412.873H77.601v-19.249h19.853V412.873z"/>
	<path style="fill:#242D3C;" d="M512,343.581H404.211c-12.334,0-23.936-4.805-32.666-13.527c-8.724-8.732-13.53-20.329-13.53-32.671
		c0-12.337,4.805-23.936,13.527-32.66c8.732-8.73,20.332-13.535,32.668-13.535H512V343.581z M404.211,270.437
		c-7.196,0-13.965,2.806-19.054,7.895c-5.087,5.089-7.892,11.858-7.892,19.052c0,7.199,2.806,13.962,7.895,19.059
		c5.087,5.084,11.858,7.887,19.052,7.887h88.543v-53.896h-88.543V270.437z"/>
	<rect x="394.803" y="287.771" style="fill:#242D3C;" width="19.249" height="19.249"/>
</g>
<g>
</g>
<g>
</g>
<g>
</g>
<g>
</g>
<g>
</g>
<g>
</g>
<g>
</g>
<g>
</g>
<g>
</g>
<g>
</g>
<g>
</g>
<g>
</g>
<g>
</g>
<g>
</g>
<g>
</g>
</svg>
