<?xml version="1.0" encoding="iso-8859-1"?>
<!-- Generator: Adobe Illustrator 19.0.0, SVG Export Plug-In . SVG Version: 6.00 Build 0)  -->
<svg version="1.1" id="Layer_1" xmlns="http://www.w3.org/2000/svg" xmlns:xlink="http://www.w3.org/1999/xlink" x="0px" y="0px"
	 viewBox="0 0 512 512" style="enable-background:new 0 0 512 512;" xml:space="preserve">
<g>
	
		<rect x="228.456" y="213.75" transform="matrix(-0.682 -0.7313 0.7313 -0.682 181.4368 670.3806)" style="fill:#2B2B2B;" width="15.999" height="163.994"/>
	
		<rect x="193.887" y="287.675" transform="matrix(-0.731 -0.6823 0.6823 -0.731 275.8144 700.069)" style="fill:#2B2B2B;" width="163.991" height="15.999"/>
	
		<rect x="227.864" y="292.593" transform="matrix(-0.5844 -0.8115 0.8115 -0.5844 36.2908 850.1799)" style="fill:#2B2B2B;" width="16" height="246.407"/>
	
		<rect x="152.837" y="407.84" transform="matrix(-0.8115 -0.5843 0.5843 -0.8115 257.0585 914.5952)" style="fill:#2B2B2B;" width="246.392" height="16"/>
</g>
<g>
	<polygon style="fill:#E3E3E3;" points="224,184 88,496 88,512 144,512 144,496 256,192 	"/>
	<polygon style="fill:#E3E3E3;" points="288,184 256,192 368,496 368,512 424,512 424,496 	"/>
</g>
<circle style="fill:#ffd801;" cx="256" cy="152" r="56"/>
<circle style="fill:#FFFFFF;" cx="256" cy="152" r="32"/>
<g>
	<rect x="248" y="144" style="fill:#2B2B2B;" width="16" height="16"/>
	<path style="fill:#2B2B2B;" d="M344,152h-16c0-40-32-72-72-72s-72,32-72,72h-16c0-48.8,39.2-88,88-88S344,103.2,344,152z"/>
	<path style="fill:#2B2B2B;" d="M376,152h-16c0-57.6-46.4-104-104-104S152,94.4,152,152h-16c0-66.4,53.6-120,120-120
		S376,85.6,376,152z"/>
	<path style="fill:#2B2B2B;" d="M408,152h-16c0-75.2-60.8-136-136-136S120,76.8,120,152h-16C104,68,172,0,256,0S408,68,408,152z"/>
	<rect x="280" y="480" style="fill:#2B2B2B;" width="16" height="16"/>
	<rect x="248" y="480" style="fill:#2B2B2B;" width="16" height="16"/>
	<rect x="216" y="480" style="fill:#2B2B2B;" width="16" height="16"/>
</g>
<g>
</g>
<g>
</g>
<g>
</g>
<g>
</g>
<g>
</g>
<g>
</g>
<g>
</g>
<g>
</g>
<g>
</g>
<g>
</g>
<g>
</g>
<g>
</g>
<g>
</g>
<g>
</g>
<g>
</g>
</svg>
