<?xml version="1.0" encoding="iso-8859-1"?>
<!-- Generator: Adobe Illustrator 19.0.0, SVG Export Plug-In . SVG Version: 6.00 Build 0)  -->
<svg version="1.1" id="Layer_1" xmlns="http://www.w3.org/2000/svg" xmlns:xlink="http://www.w3.org/1999/xlink" x="0px" y="0px"
	 viewBox="0 0 512 512" style="enable-background:new 0 0 512 512;" xml:space="preserve">
<g>
	<polygon style="fill:#242D3C;" points="512,290.586 385.564,290.586 385.564,272.929 494.346,272.929 494.346,119.163 
		17.654,119.163 17.654,272.929 126.436,272.929 126.436,290.586 0,290.586 0,101.507 512,101.507 	"/>
	<polygon style="fill:#242D3C;" points="476.69,255.276 385.564,255.276 385.564,237.622 459.036,237.622 459.036,154.473 
		52.964,154.473 52.964,237.622 126.436,237.622 126.436,255.276 35.31,255.276 35.31,136.817 476.69,136.817 	"/>
</g>
<rect x="275.942" y="196.045" style="fill:#005792;" width="70.973" height="210.125"/>
<g>
	<path style="fill:#242D3C;" d="M366.52,410.493l-221.071-0.031c-7.217,0-14.554-2.944-19.748-8.197
		c-5.192-5.123-8.092-12.127-8.092-19.648V196.05h17.654v186.568c0,2.757,1.034,5.299,2.916,7.158
		c1.935,1.956,4.511,3.034,7.153,3.034c0.02,0,0.041,0,0.061,0l221.133,0.031c2.711,0,5.284-1.075,7.247-3.031
		c1.912-1.91,2.972-4.462,2.964-7.173V196.05h17.654v186.568c0.015,7.416-2.877,14.418-8.151,19.689
		C380.931,407.593,373.929,410.493,366.52,410.493z"/>
	<rect x="156.237" y="218.522" style="fill:#242D3C;" width="17.654" height="59.213"/>
	<rect x="156.237" y="300.211" style="fill:#242D3C;" width="17.654" height="59.213"/>
	<rect x="76.6" y="187.213" style="fill:#242D3C;" width="358.81" height="17.654"/>
</g>
<g>
</g>
<g>
</g>
<g>
</g>
<g>
</g>
<g>
</g>
<g>
</g>
<g>
</g>
<g>
</g>
<g>
</g>
<g>
</g>
<g>
</g>
<g>
</g>
<g>
</g>
<g>
</g>
<g>
</g>
</svg>
