<?xml version="1.0" encoding="iso-8859-1"?>
<!-- Generator: Adobe Illustrator 19.0.0, SVG Export Plug-In . SVG Version: 6.00 Build 0)  -->
<svg version="1.1" id="Layer_1" xmlns="http://www.w3.org/2000/svg" xmlns:xlink="http://www.w3.org/1999/xlink" x="0px" y="0px"
	 viewBox="0 0 512.005 512.005" style="enable-background:new 0 0 512.005 512.005;" xml:space="preserve">
<polygon style="fill:#005792;" points="455.112,186.482 436.15,146.415 379.261,146.415 360.294,198.493 303.409,198.493 
	284.444,222.463 227.551,222.463 208.589,182.401 151.703,182.401 132.739,234.423 75.845,234.423 56.888,282.364 0,282.364 
	0,386.124 56.888,386.124 75.853,362.157 132.746,362.157 151.708,326.225 208.591,326.225 227.551,350.194 284.444,350.194 
	303.409,338.182 360.294,338.182 379.261,302.255 436.15,302.255 455.112,326.225 512,326.225 512,186.482 "/>
<polygon style="fill:#ffd801;" points="0,386.124 0,422.109 512,422.109 512,326.225 455.112,326.225 436.15,302.255 
	379.261,302.255 360.294,338.182 303.409,338.182 284.444,350.194 227.551,350.194 208.591,326.225 151.708,326.225 
	132.746,362.157 75.853,362.157 56.888,386.124 "/>
<polygon style="fill:#FFFFFF;" points="61.652,395.972 0,395.972 0,376.278 52.122,376.278 71.089,352.308 126.807,352.308 
	145.769,316.379 213.358,316.379 232.315,340.346 281.587,340.346 300.549,328.337 354.363,328.337 373.327,292.41 440.914,292.41 
	459.878,316.379 512,316.379 512,336.07 450.345,336.07 431.386,312.101 385.195,312.101 366.231,348.028 306.266,348.028 
	287.306,360.04 222.784,360.04 203.827,336.07 157.647,336.07 138.685,372.003 80.62,372.003 "/>
<g>
	<rect x="492.314" y="50.508" style="fill:#242D3C;" width="19.692" height="19.692"/>
	<rect x="452.915" y="50.508" style="fill:#242D3C;" width="19.692" height="19.692"/>
	<rect x="413.542" y="50.508" style="fill:#242D3C;" width="19.697" height="19.692"/>
	<rect y="129.281" style="fill:#242D3C;" width="132.739" height="19.692"/>
	<rect y="168.662" style="fill:#242D3C;" width="66.368" height="19.692"/>
	<rect x="227.558" y="50.508" style="fill:#242D3C;" width="113.792" height="19.692"/>
	<rect x="170.675" y="89.883" style="fill:#242D3C;" width="113.766" height="19.692"/>
	<rect x="170.675" y="50.508" style="fill:#242D3C;" width="37.924" height="19.692"/>
</g>
<rect y="50.508" style="fill:#ffd801;" width="132.739" height="59.085"/>
<rect x="28.442" y="70.202" style="fill:#FFFFFF;" width="75.85" height="19.692"/>
<rect y="441.806" style="fill:#242D3C;" width="512" height="19.692"/>
<g>
</g>
<g>
</g>
<g>
</g>
<g>
</g>
<g>
</g>
<g>
</g>
<g>
</g>
<g>
</g>
<g>
</g>
<g>
</g>
<g>
</g>
<g>
</g>
<g>
</g>
<g>
</g>
<g>
</g>
</svg>
