<?xml version="1.0" encoding="iso-8859-1"?>
<!-- Generator: Adobe Illustrator 19.0.0, SVG Export Plug-In . SVG Version: 6.00 Build 0)  -->
<svg version="1.1" id="Layer_1" xmlns="http://www.w3.org/2000/svg" xmlns:xlink="http://www.w3.org/1999/xlink" x="0px" y="0px"
	 viewBox="0 0 496 496" style="enable-background:new 0 0 496 496;" xml:space="preserve">
<g>
	<path style="fill:#E3E3E3;" d="M16,48C16,21.6,37.6,0,64,0h240c26.4,0,48,21.6,48,48v400c0,26.4-21.6,48-48,48H64
		c-26.4,0-48-21.6-48-48V48z"/>
	<rect x="32" y="80" style="fill:#FFFFFF;" width="304" height="336"/>
	<g>
		<rect x="160" y="440" style="fill:#2B2B2B;" width="48" height="16"/>
		<rect x="176" y="32" style="fill:#2B2B2B;" width="48" height="16"/>
		<rect x="144" y="32" style="fill:#2B2B2B;" width="16" height="16"/>
	</g>
</g>
<g>
	<rect x="48" y="96" style="fill:#ffd801;" width="272" height="32"/>
	<rect x="48" y="144" style="fill:#ffd801;" width="32" height="32"/>
	<rect x="96" y="144" style="fill:#ffd801;" width="32" height="32"/>
	<rect x="144" y="144" style="fill:#ffd801;" width="32" height="32"/>
	<rect x="192" y="144" style="fill:#ffd801;" width="32" height="32"/>
	<rect x="240" y="144" style="fill:#ffd801;" width="32" height="32"/>
	<rect x="48" y="192" style="fill:#ffd801;" width="32" height="32"/>
	<rect x="96" y="192" style="fill:#ffd801;" width="32" height="32"/>
	<rect x="144" y="192" style="fill:#ffd801;" width="32" height="32"/>
	<rect x="192" y="192" style="fill:#ffd801;" width="32" height="32"/>
	<rect x="240" y="192" style="fill:#ffd801;" width="32" height="32"/>
	<rect x="48" y="240" style="fill:#ffd801;" width="32" height="32"/>
	<rect x="96" y="240" style="fill:#ffd801;" width="32" height="32"/>
	<rect x="144" y="240" style="fill:#ffd801;" width="32" height="32"/>
	<rect x="192" y="240" style="fill:#ffd801;" width="32" height="32"/>
	<rect x="240" y="240" style="fill:#ffd801;" width="32" height="32"/>
	<rect x="288" y="144" style="fill:#ffd801;" width="32" height="32"/>
	<rect x="288" y="192" style="fill:#ffd801;" width="32" height="32"/>
	<rect x="288" y="240" style="fill:#ffd801;" width="32" height="32"/>
	<rect x="48" y="288" style="fill:#ffd801;" width="32" height="32"/>
	<rect x="96" y="288" style="fill:#ffd801;" width="32" height="32"/>
	<rect x="144" y="288" style="fill:#ffd801;" width="32" height="32"/>
	<rect x="48" y="336" style="fill:#ffd801;" width="32" height="32"/>
	<rect x="96" y="336" style="fill:#ffd801;" width="32" height="32"/>
	<rect x="192" y="288" style="fill:#ffd801;" width="32" height="32"/>
	<rect x="240" y="288" style="fill:#ffd801;" width="32" height="32"/>
	<rect x="288" y="288" style="fill:#ffd801;" width="32" height="32"/>
</g>
<g>
	<rect x="144" y="384" style="fill:#2B2B2B;" width="16" height="16"/>
	<rect x="176" y="384" style="fill:#2B2B2B;" width="16" height="16"/>
	<rect x="208" y="384" style="fill:#2B2B2B;" width="16" height="16"/>
</g>
<rect x="248" y="160" style="fill:#005792;" width="224" height="256"/>
<g>
	<rect x="352" y="120" style="fill:#2B2B2B;" width="48" height="16"/>
	<rect x="320" y="120" style="fill:#2B2B2B;" width="16" height="16"/>
	<rect x="336" y="440" style="fill:#2B2B2B;" width="48" height="16"/>
	<path style="fill:#2B2B2B;" d="M440,496H280c-22.4,0-40-17.6-40-40V120c0-22.4,17.6-40,40-40h160c22.4,0,40,17.6,40,40v336
		C480,478.4,462.4,496,440,496z M280,96c-13.6,0-24,10.4-24,24v336c0,13.6,10.4,24,24,24h160c13.6,0,24-10.4,24-24V120
		c0-13.6-10.4-24-24-24H280z"/>
</g>
<g>
	<rect x="272" y="224" style="fill:#1CCACA;" width="32" height="32"/>
	<rect x="320" y="224" style="fill:#1CCACA;" width="32" height="32"/>
	<rect x="368" y="224" style="fill:#1CCACA;" width="32" height="32"/>
	<rect x="416" y="224" style="fill:#1CCACA;" width="32" height="32"/>
	<rect x="272" y="272" style="fill:#1CCACA;" width="32" height="32"/>
	<rect x="320" y="272" style="fill:#1CCACA;" width="32" height="32"/>
	<rect x="368" y="272" style="fill:#1CCACA;" width="32" height="32"/>
	<rect x="416" y="320" style="fill:#1CCACA;" width="32" height="32"/>
	<rect x="272" y="176" style="fill:#1CCACA;" width="176" height="32"/>
</g>
<g>
	<rect x="320" y="384" style="fill:#FFFFFF;" width="16" height="16"/>
	<rect x="352" y="384" style="fill:#FFFFFF;" width="16" height="16"/>
	<rect x="384" y="384" style="fill:#FFFFFF;" width="16" height="16"/>
</g>
<g>
</g>
<g>
</g>
<g>
</g>
<g>
</g>
<g>
</g>
<g>
</g>
<g>
</g>
<g>
</g>
<g>
</g>
<g>
</g>
<g>
</g>
<g>
</g>
<g>
</g>
<g>
</g>
<g>
</g>
</svg>
