<?xml version="1.0" encoding="iso-8859-1"?>
<!-- Generator: Adobe Illustrator 19.0.0, SVG Export Plug-In . SVG Version: 6.00 Build 0)  -->
<svg version="1.1" id="Capa_1" xmlns="http://www.w3.org/2000/svg" xmlns:xlink="http://www.w3.org/1999/xlink" x="0px" y="0px"
	 viewBox="0 0 512 512" style="enable-background:new 0 0 512 512;" xml:space="preserve">
<g>
	<rect x="184" y="256" style="fill:#403E3E;" width="16" height="16"/>
	<rect x="216" y="256" style="fill:#403E3E;" width="16" height="16"/>
	<rect x="248" y="256" style="fill:#403E3E;" width="16" height="16"/>
	<rect x="184" y="288" style="fill:#403E3E;" width="16" height="16"/>
	<rect x="216" y="288" style="fill:#403E3E;" width="16" height="16"/>
	<rect x="248" y="288" style="fill:#403E3E;" width="16" height="16"/>
	<rect x="184" y="320" style="fill:#403E3E;" width="16" height="16"/>
	<rect x="216" y="320" style="fill:#403E3E;" width="80" height="16"/>
	<rect x="280" y="256" style="fill:#403E3E;" width="16" height="16"/>
	<rect x="184" y="224" style="fill:#403E3E;" width="16" height="16"/>
	<rect x="216" y="224" style="fill:#403E3E;" width="16" height="16"/>
	<rect x="248" y="224" style="fill:#403E3E;" width="16" height="16"/>
	<rect x="280" y="224" style="fill:#403E3E;" width="16" height="16"/>
	<rect x="280" y="288" style="fill:#403E3E;" width="16" height="16"/>
	<rect x="312" y="256" style="fill:#403E3E;" width="16" height="16"/>
	<rect x="312" y="224" style="fill:#403E3E;" width="16" height="16"/>
	<rect x="312" y="288" style="fill:#403E3E;" width="16" height="16"/>
	<rect x="312" y="320" style="fill:#403E3E;" width="16" height="16"/>
	<path style="fill:#403E3E;" d="M344,488h-24c-6.256,0-12.24-2.528-16.848-7.136C298.528,476.24,296,470.256,296,464v-40h16v40
		c0,2.016,0.848,3.936,2.464,5.552c1.6,1.6,3.52,2.448,5.536,2.448h24V488z"/>
	<rect x="480" y="472" style="fill:#403E3E;" width="32" height="16"/>
	<rect x="392" y="472" style="fill:#403E3E;" width="40" height="16"/>
</g>
<g>
	<path style="fill:#ffd801;" d="M368,512c-17.648,0-32-14.352-32-32s14.352-32,32-32s32,14.352,32,32S385.648,512,368,512z M368,464
		c-8.824,0-16,7.176-16,16s7.176,16,16,16s16-7.176,16-16S376.824,464,368,464z"/>
	<path style="fill:#ffd801;" d="M456,512c-17.648,0-32-14.352-32-32s14.352-32,32-32s32,14.352,32,32S473.648,512,456,512z M456,464
		c-8.824,0-16,7.176-16,16s7.176,16,16,16s16-7.176,16-16S464.824,464,456,464z"/>
</g>
<g>
	<path style="fill:#403E3E;" d="M192,488h-24v-16h24c2.016,0,3.936-0.848,5.544-2.464c1.608-1.6,2.456-3.52,2.456-5.536v-40h16v40
		c0,6.256-2.536,12.248-7.144,16.856C204.248,485.472,198.264,488,192,488z"/>
	<rect x="80" y="472" style="fill:#403E3E;" width="40" height="16"/>
	<rect y="472" style="fill:#403E3E;" width="32" height="16"/>
</g>
<g>
	<path style="fill:#ffd801;" d="M144,512c-17.648,0-32-14.352-32-32s14.352-32,32-32s32,14.352,32,32S161.648,512,144,512z M144,464
		c-8.824,0-16,7.176-16,16s7.176,16,16,16s16-7.176,16-16S152.824,464,144,464z"/>
	<path style="fill:#ffd801;" d="M56,512c-17.648,0-32-14.352-32-32s14.352-32,32-32s32,14.352,32,32S73.648,512,56,512z M56,464
		c-8.824,0-16,7.176-16,16s7.176,16,16,16s16-7.176,16-16S64.824,464,56,464z"/>
</g>
<g>
	<path style="fill:#403E3E;" d="M368,160h-16v-48c0-52.936-43.064-96-96-96s-96,43.064-96,96v48h-16v-48C144,50.24,194.24,0,256,0
		s112,50.24,112,112V160z"/>
	<path style="fill:#403E3E;" d="M336,136h-16v-24c0-35.288-28.712-64-64-64s-64,28.712-64,64v24h-16v-24c0-44.112,35.888-80,80-80
		s80,35.888,80,80V136z"/>
</g>
<g>
	<polygon style="fill:#005792;" points="117.656,397.656 106.344,386.344 136,356.688 136,203.312 106.344,173.656 117.656,162.344 
		152,196.688 152,363.312 	"/>
	<polygon style="fill:#005792;" points="394.344,397.656 360,363.312 360,196.688 394.344,162.344 405.656,173.656 376,203.312 
		376,356.688 405.656,386.344 	"/>
	<path style="fill:#005792;" d="M384,408H272v-8c0-9.128-6.872-16-16-16c-9.12,0-16,6.872-16,16v8H128c-13.232,0-24-10.768-24-24
		V176c0-13.232,10.768-24,24-24h256c13.232,0,24,10.768,24,24v208C408,397.232,397.232,408,384,408z M287.032,392H384
		c4.416,0,8-3.584,8-8V176c0-4.408-3.584-8-8-8H128c-4.408,0-8,3.592-8,8v208c0,4.416,3.592,8,8,8h96.968
		c3.464-13.952,15.856-24,31.032-24S283.56,378.048,287.032,392z"/>
</g>
<g>
</g>
<g>
</g>
<g>
</g>
<g>
</g>
<g>
</g>
<g>
</g>
<g>
</g>
<g>
</g>
<g>
</g>
<g>
</g>
<g>
</g>
<g>
</g>
<g>
</g>
<g>
</g>
<g>
</g>
</svg>
