<?xml version="1.0" encoding="iso-8859-1"?>
<!-- Generator: Adobe Illustrator 19.0.0, SVG Export Plug-In . SVG Version: 6.00 Build 0)  -->
<svg version="1.1" id="Layer_1" xmlns="http://www.w3.org/2000/svg" xmlns:xlink="http://www.w3.org/1999/xlink" x="0px" y="0px"
	 viewBox="0 0 512 512" style="enable-background:new 0 0 512 512;" xml:space="preserve">
<g>
	
		<rect x="306.801" y="423.537" transform="matrix(-0.2095 -0.9778 0.9778 -0.2095 18.2992 877.8671)" style="fill:#2B2B2B;" width="114.399" height="16"/>
	
		<rect x="140.142" y="374.32" transform="matrix(-0.9777 -0.2099 0.2099 -0.9777 202.4058 884.5197)" style="fill:#2B2B2B;" width="16" height="114.397"/>
	<path style="fill:#2B2B2B;" d="M408,512h-16v-8c0-2.4-0.8-4-2.4-5.6s-3.2-2.4-5.6-2.4H128c-2.4,0-4,0.8-5.6,2.4
		c-1.6,1.6-2.4,3.2-2.4,5.6v8h-16v-8c0-6.4,2.4-12.8,7.2-16.8s10.4-7.2,16.8-7.2h256c6.4,0,12.8,2.4,16.8,7.2s7.2,10.4,7.2,16.8V512
		z"/>
	<rect x="216" y="448" style="fill:#2B2B2B;" width="16" height="16"/>
	<rect x="248" y="448" style="fill:#2B2B2B;" width="16" height="16"/>
	<rect x="280" y="448" style="fill:#2B2B2B;" width="16" height="16"/>
</g>
<circle style="fill:#E3E3E3;" cx="256" cy="208" r="208"/>
<circle style="fill:#FFFFFF;" cx="256" cy="208" r="152"/>
<circle style="fill:#005792;" cx="256" cy="208" r="104"/>
<g>
	<path style="fill:#1CCACA;" d="M256,104c-57.6,0-104,46.4-104,104s46.4,104,104,104s104-46.4,104-104S313.6,104,256,104z M256,280
		c-40,0-72-32-72-72s32-72,72-72s72,32,72,72S296,280,256,280z"/>
	<circle style="fill:#1CCACA;" cx="256" cy="208" r="32"/>
</g>
<path style="fill:#2B2B2B;" d="M256,320c-61.6,0-112-50.4-112-112S194.4,96,256,96s112,50.4,112,112S317.6,320,256,320z M256,112
	c-52.8,0-96,43.2-96,96s43.2,96,96,96s96-43.2,96-96S308.8,112,256,112z"/>
<g>
	<circle style="fill:#FFFFFF;" cx="240" cy="192" r="24"/>
	<circle style="fill:#FFFFFF;" cx="280" cy="232" r="8"/>
</g>
<g>
	<rect x="248" y="24" style="fill:#2B2B2B;" width="16" height="16"/>
	<rect x="248" y="376" style="fill:#2B2B2B;" width="16" height="16"/>
	<rect x="72" y="200" style="fill:#2B2B2B;" width="16" height="16"/>
	<rect x="424" y="200" style="fill:#2B2B2B;" width="16" height="16"/>
</g>
<g>
</g>
<g>
</g>
<g>
</g>
<g>
</g>
<g>
</g>
<g>
</g>
<g>
</g>
<g>
</g>
<g>
</g>
<g>
</g>
<g>
</g>
<g>
</g>
<g>
</g>
<g>
</g>
<g>
</g>
</svg>
