<?xml version="1.0" encoding="iso-8859-1"?>
<!-- Generator: Adobe Illustrator 19.0.0, SVG Export Plug-In . SVG Version: 6.00 Build 0)  -->
<svg xmlns="http://www.w3.org/2000/svg" xmlns:xlink="http://www.w3.org/1999/xlink" version="1.1" id="Layer_1" x="0px" y="0px" viewBox="0 0 480 480" style="enable-background:new 0 0 480 480;" xml:space="preserve">
<g>
	<rect x="400" y="204" style="fill:#2B2B2B;" width="80" height="16"/>
	<rect x="400" y="172" style="fill:#2B2B2B;" width="80" height="16"/>
	<rect x="400" y="236" style="fill:#2B2B2B;" width="80" height="16"/>
	<rect x="400" y="268" style="fill:#2B2B2B;" width="80" height="16"/>
	<rect x="400" y="300" style="fill:#2B2B2B;" width="80" height="16"/>
	<rect x="256" y="332" style="fill:#2B2B2B;" width="224" height="16"/>
	<rect x="256" y="364" style="fill:#2B2B2B;" width="224" height="16"/>
	<rect x="256" y="396" style="fill:#2B2B2B;" width="224" height="16"/>
	<rect x="256" y="428" style="fill:#2B2B2B;" width="224" height="16"/>
	<rect x="256" y="460" style="fill:#2B2B2B;" width="128" height="16"/>
</g>
<path style="fill:#E3E3E3;" d="M384,316H32V60h352V316z M48,300h320V76H48V300z"/>
<rect x="64" y="92" style="fill:#005792;" width="288" height="192"/>
<g>
	<polygon style="fill:#1CCACA;" points="264,156 136,284 352,284 352,244  "/>
	<polygon style="fill:#1CCACA;" points="144,204 64,284 224,284  "/>
</g>
<circle style="fill:#FFFFFF;" cx="180" cy="152" r="24"/>
<g>
	<rect x="336" y="4" style="fill:#2B2B2B;" width="16" height="16"/>
	<path style="fill:#2B2B2B;" d="M480,92h-80V12h80V92z M416,76h48V28h-48V76z"/>
	<rect x="432" y="44" style="fill:#2B2B2B;" width="16" height="16"/>
	<polygon style="fill:#2B2B2B;" points="16,100 0,100 0,28 72,28 72,44 16,44  "/>
	<rect x="88" y="28" style="fill:#2B2B2B;" width="16" height="16"/>
	<rect x="120" y="28" style="fill:#2B2B2B;" width="16" height="16"/>
	<rect x="144" y="460" style="fill:#2B2B2B;" width="16" height="16"/>
	<rect x="112" y="460" style="fill:#2B2B2B;" width="16" height="16"/>
	<rect x="176" y="460" style="fill:#2B2B2B;" width="16" height="16"/>
</g>
<rect y="300" style="fill:#ffd801;" width="192" height="128"/>
<rect x="32" y="300" style="fill:#E45B17;" width="160" height="16"/>
<polygon style="fill:#FFFFFF;" points="80,348 112,364 80,380 "/>
<g>
</g>
<g>
</g>
<g>
</g>
<g>
</g>
<g>
</g>
<g>
</g>
<g>
</g>
<g>
</g>
<g>
</g>
<g>
</g>
<g>
</g>
<g>
</g>
<g>
</g>
<g>
</g>
<g>
</g>
</svg>
