<?xml version="1.0" encoding="iso-8859-1"?>
<!-- Generator: Adobe Illustrator 19.0.0, SVG Export Plug-In . SVG Version: 6.00 Build 0)  -->
<svg xmlns="http://www.w3.org/2000/svg" xmlns:xlink="http://www.w3.org/1999/xlink" version="1.1" id="Layer_1" x="0px" y="0px" viewBox="0 0 512 512" style="enable-background:new 0 0 512 512;" xml:space="preserve">
<g>
	
		<rect x="411.965" y="115.199" transform="matrix(-0.7071 -0.7071 0.7071 -0.7071 623.5873 522.2966)" style="fill:#2B2B2B;" width="16" height="33.6"/>
	
		<rect x="399.882" y="116.282" transform="matrix(-0.7071 -0.7071 0.7071 -0.7071 643.2411 515.0032)" style="fill:#2B2B2B;" width="56.799" height="16"/>
	
		<rect x="75.236" y="123.998" transform="matrix(-0.7071 -0.7071 0.7071 -0.7071 63.7783 290.4146)" style="fill:#2B2B2B;" width="33.6" height="16"/>
	
		<rect x="75.753" y="95.88" transform="matrix(-0.7071 -0.7071 0.7071 -0.7071 55.0966 271.381)" style="fill:#2B2B2B;" width="16" height="56.799"/>
	<rect x="248" y="32" style="fill:#2B2B2B;" width="16" height="56"/>
	<path style="fill:#2B2B2B;" d="M288,64h-64c-8.8,0-16.8-3.2-22.4-9.6c-6.4-5.6-9.6-13.6-9.6-22.4s3.2-16.8,9.6-22.4   C207.2,3.2,215.2,0,224,0h64c8.8,0,16.8,3.2,22.4,9.6c6.4,5.6,9.6,13.6,9.6,22.4s-3.2,16.8-9.6,22.4C304.8,60.8,296.8,64,288,64z    M224,16c-4,0-8,1.6-11.2,4.8S208,28,208,32s1.6,8,4.8,11.2S220,48,224,48h64c4,0,8-1.6,11.2-4.8S304,36,304,32s-1.6-8-4.8-11.2   S292,16,288,16H224z"/>
</g>
<circle style="fill:#E3E3E3;" cx="256" cy="296" r="216"/>
<circle style="fill:#FFFFFF;" cx="256" cy="296" r="184"/>
<path style="fill:#E3E3E3;" d="M291.2,427.2c12-3.2,24.8,3.2,28.8,15.2c11.2-4.8,21.6-11.2,31.2-18.4c-8-9.6-8-23.2,1.6-32.8  s23.2-9.6,32.8-1.6c7.2-9.6,13.6-20,18.4-31.2c-12-4-18.4-16.8-15.2-28.8c3.2-12,15.2-19.2,27.2-17.6c0.8-5.6,0.8-12,0.8-17.6  s-0.8-12-0.8-17.6c-12,2.4-24-4.8-27.2-17.6c-3.2-12,3.2-24.8,15.2-28.8c-4.8-11.2-11.2-21.6-18.4-31.2c-9.6,8-23.2,8-32.8-1.6  c-8.8-8.8-9.6-23.2-1.6-32.8c-9.6-7.2-20-13.6-31.2-18.4c-4,12-16.8,18.4-28.8,15.2s-19.2-15.2-17.6-27.2  c-5.6,2.4-11.2,1.6-17.6,1.6s-12,0.8-17.6,0.8c2.4,12-4.8,24-17.6,27.2c-12,3.2-24.8-3.2-28.8-15.2c-11.2,4.8-21.6,11.2-31.2,18.4  c8,9.6,8,23.2-1.6,32.8c-8.8,8.8-23.2,9.6-32.8,1.6c-7.2,9.6-13.6,20-18.4,31.2c12,4,18.4,16.8,15.2,28.8  c-3.2,12-15.2,19.2-27.2,17.6c0.8,4.8,0,10.4,0,16.8s0.8,12,0.8,17.6c12-2.4,24,4.8,27.2,17.6c3.2,12-3.2,24.8-15.2,28.8  c4.8,11.2,11.2,21.6,18.4,31.2c9.6-8,23.2-8,32.8,1.6c8.8,8.8,9.6,23.2,1.6,32.8c9.6,7.2,20,13.6,31.2,18.4  c4-12,16.8-18.4,28.8-15.2c12,3.2,19.2,15.2,17.6,27.2c5.6,0.8,12,0.8,17.6,0.8c6.4,0,12-0.8,17.6-0.8  C272,442.4,279.2,430.4,291.2,427.2z"/>
<g>
	<rect x="248" y="168" style="fill:#2B2B2B;" width="16" height="16"/>
	
		<rect x="188.087" y="184.024" transform="matrix(-0.5001 -0.866 0.866 -0.5001 127.8726 457.8618)" style="fill:#2B2B2B;" width="15.999" height="15.999"/>
	
		<rect x="144.018" y="227.959" transform="matrix(-0.8659 -0.5002 0.5002 -0.8659 165.6232 516.3171)" style="fill:#2B2B2B;" width="16" height="16"/>
	<rect x="128" y="288" style="fill:#2B2B2B;" width="16" height="16"/>
	
		<rect x="144.016" y="347.959" transform="matrix(-0.4996 -0.8663 0.8663 -0.4996 -80.3948 665.4765)" style="fill:#2B2B2B;" width="16.001" height="16.001"/>
	
		<rect x="187.997" y="391.964" transform="matrix(-0.866 -0.5001 0.5001 -0.866 165.6861 844.3359)" style="fill:#2B2B2B;" width="15.999" height="15.999"/>
	<rect x="248" y="408" style="fill:#2B2B2B;" width="16" height="16"/>
	
		<rect x="307.912" y="391.937" transform="matrix(-0.5001 -0.866 0.866 -0.5001 127.583 873.5202)" style="fill:#2B2B2B;" width="15.999" height="15.999"/>
	
		<rect x="352.037" y="348.046" transform="matrix(-0.8664 -0.4994 0.4994 -0.8664 494.1613 844.3157)" style="fill:#2B2B2B;" width="16" height="16"/>
	<rect x="368" y="288" style="fill:#2B2B2B;" width="16" height="16"/>
	
		<rect x="351.924" y="228.068" transform="matrix(-0.5001 -0.866 0.866 -0.5001 335.509 665.808)" style="fill:#2B2B2B;" width="15.999" height="15.999"/>
	
		<rect x="308.059" y="184.011" transform="matrix(-0.8661 -0.4999 0.4999 -0.8661 493.8081 516.3059)" style="fill:#2B2B2B;" width="16" height="16"/>
</g>
<path style="fill:#FFFFFF;" d="M336,296c0,44-36,80-80,80s-80-36-80-80s36-80,80-80S336,252,336,296z"/>
<path style="fill:#ffd801;" d="M304,296c0,26.4-21.6,48-48,48s-48-21.6-48-48s21.6-48,48-48S304,269.6,304,296z"/>
<g>
	<path style="fill:#2B2B2B;" d="M256,320c-13.6,0-24-10.4-24-24s10.4-24,24-24s24,10.4,24,24S269.6,320,256,320z M256,288   c-4.8,0-8,3.2-8,8s3.2,8,8,8c4.8,0,8-3.2,8-8S260.8,288,256,288z"/>
	<rect x="272" y="288" style="fill:#2B2B2B;" width="80" height="16"/>
	<path style="fill:#2B2B2B;" d="M256,488c-105.6,0-192-86.4-192-192s86.4-192,192-192s192,86.4,192,192S361.6,488,256,488z M256,120   c-96.8,0-176,79.2-176,176s79.2,176,176,176s176-79.2,176-176S352.8,120,256,120z"/>
</g>
<g>
</g>
<g>
</g>
<g>
</g>
<g>
</g>
<g>
</g>
<g>
</g>
<g>
</g>
<g>
</g>
<g>
</g>
<g>
</g>
<g>
</g>
<g>
</g>
<g>
</g>
<g>
</g>
<g>
</g>
</svg>
