<?xml version="1.0" encoding="iso-8859-1"?>
<!-- Generator: Adobe Illustrator 19.0.0, SVG Export Plug-In . SVG Version: 6.00 Build 0)  -->
<svg version="1.1" id="Layer_1" xmlns="http://www.w3.org/2000/svg" xmlns:xlink="http://www.w3.org/1999/xlink" x="0px" y="0px"
	 viewBox="0 0 512 512" style="enable-background:new 0 0 512 512;" xml:space="preserve">
<g>
	<path style="fill:#2B2B2B;" d="M472,472c-10.4,0-20.8-4-28-12c-7.2-7.2-12-17.6-12-28V96c0-6.4-2.4-12.8-7.2-16.8S414.4,72,408,72
		V56c10.4,0,20.8,4,28,12c7.2,7.2,12,17.6,12,28v336c0,6.4,2.4,12.8,7.2,16.8c8.8,8.8,24.8,8.8,33.6,0c4.8-4.8,7.2-10.4,7.2-16.8V16
		H128v24h-16V0h400v432c0,10.4-4,20.8-12,28C492.8,468,482.4,472,472,472z"/>
	<rect x="400" y="88" style="fill:#2B2B2B;" width="16" height="384"/>
</g>
<rect y="128" style="fill:#E3E3E3;" width="384" height="384"/>
<path style="fill:#2B2B2B;" d="M384,136H0V96c0-10.4,4-20.8,12-28c7.2-7.2,17.6-12,28-12h368v16c-6.4,0-12.8,2.4-16.8,7.2
	S384,89.6,384,96V136z M16,120h352V96c0-8.8,3.2-16.8,8-24H40c-6.4,0-12.8,2.4-16.8,7.2C18.4,84,16,89.6,16,96V120z"/>
<path style="fill:#E35B17;" d="M32,184c0-8.8,7.2-16,16-16h144c8.8,0,16,7.2,16,16v144c0,8.8-7.2,16-16,16H48c-8.8,0-16-7.2-16-16
	V184z"/>
<rect x="48" y="184" style="fill:#ffd801;" width="144" height="144"/>
<g>
	<rect x="72" y="288" style="fill:#FFFFFF;" width="16" height="16"/>
	<path style="fill:#FFFFFF;" d="M128,304h-16c0-22.4-17.6-40-40-40v-16C103.2,248,128,272.8,128,304z"/>
	<path style="fill:#FFFFFF;" d="M168,304h-16c0-44-36-80-80-80v-16C124.8,208,168,251.2,168,304z"/>
</g>
<g>
	<rect x="288" y="456" style="fill:#2B2B2B;" width="64" height="16"/>
	<rect x="288" y="424" style="fill:#2B2B2B;" width="40" height="16"/>
	<rect x="288" y="392" style="fill:#2B2B2B;" width="64" height="16"/>
	<rect x="288" y="360" style="fill:#2B2B2B;" width="40" height="16"/>
	<rect x="288" y="328" style="fill:#2B2B2B;" width="64" height="16"/>
	<rect x="288" y="296" style="fill:#2B2B2B;" width="40" height="16"/>
	<rect x="288" y="264" style="fill:#2B2B2B;" width="64" height="16"/>
	<rect x="288" y="232" style="fill:#2B2B2B;" width="40" height="16"/>
	<rect x="288" y="200" style="fill:#2B2B2B;" width="64" height="16"/>
	<rect x="288" y="168" style="fill:#2B2B2B;" width="40" height="16"/>
</g>
<g>
	<rect x="224" y="168" style="fill:#1CCACA;" width="48" height="48"/>
	<rect x="224" y="232" style="fill:#1CCACA;" width="48" height="48"/>
	<rect x="224" y="296" style="fill:#1CCACA;" width="48" height="48"/>
	<rect x="224" y="360" style="fill:#1CCACA;" width="48" height="48"/>
	<rect x="224" y="424" style="fill:#1CCACA;" width="48" height="48"/>
</g>
<g>
	<rect x="32" y="360" style="fill:#2B2B2B;" width="176" height="16"/>
	<rect x="32" y="392" style="fill:#2B2B2B;" width="176" height="16"/>
	<rect x="32" y="424" style="fill:#2B2B2B;" width="176" height="16"/>
	<rect x="32" y="456" style="fill:#2B2B2B;" width="136" height="16"/>
	<rect x="32" y="88" style="fill:#2B2B2B;" width="16" height="16"/>
	<rect x="64" y="88" style="fill:#2B2B2B;" width="16" height="16"/>
	<rect x="96" y="88" style="fill:#2B2B2B;" width="16" height="16"/>
</g>
<g>
</g>
<g>
</g>
<g>
</g>
<g>
</g>
<g>
</g>
<g>
</g>
<g>
</g>
<g>
</g>
<g>
</g>
<g>
</g>
<g>
</g>
<g>
</g>
<g>
</g>
<g>
</g>
<g>
</g>
</svg>
