<?xml version="1.0" encoding="iso-8859-1"?>
<!-- Generator: Adobe Illustrator 19.0.0, SVG Export Plug-In . SVG Version: 6.00 Build 0)  -->
<svg version="1.1" id="Layer_1" xmlns="http://www.w3.org/2000/svg" xmlns:xlink="http://www.w3.org/1999/xlink" x="0px" y="0px"
	 viewBox="0 0 512 512" style="enable-background:new 0 0 512 512;" xml:space="preserve">
<polygon style="fill:#005792;" points="456.346,71.437 404.076,143.585 367.657,149.358 331.238,180.984 294.82,147.891 
	258.401,185.772 231.56,188.777 204.716,225.242 155.159,203.494 105.61,295.212 76.797,292.675 47.982,315.738 47.982,359.767 
	76.797,346.212 105.61,357.412 155.159,311.872 204.716,332.782 231.56,301.115 258.401,289.249 294.82,257.3 331.238,283.674 
	367.657,257.3 404.076,253.706 456.346,218.578 508.605,238.351 508.605,92.769 "/>
<polygon style="fill:#242D3C;" points="107.707,368.525 77.156,356.646 52.068,368.451 43.894,351.086 76.436,335.777 
	103.516,346.301 153.208,300.631 201.953,321.203 225.661,293.228 253.176,281.068 294.246,245.038 331.238,271.828 
	364.129,248.008 400.727,244.396 455.104,207.849 512,229.379 505.208,247.327 457.585,229.307 407.421,263.017 371.185,266.593 
	331.238,295.519 295.393,269.563 263.626,297.434 237.455,309 207.478,344.361 157.115,323.116 "/>
<polygon style="fill:#ffd801;" points="508.605,340.032 508.605,419.133 47.982,419.133 47.982,400.361 76.797,390.431 
	105.61,392.084 155.159,363.62 204.716,376.986 231.56,367.567 258.401,363.812 294.82,343.501 331.238,366.589 367.657,343.501 
	404.076,340.032 456.346,316.429 "/>
<g>
	<rect y="409.549" style="fill:#242D3C;" width="508.595" height="19.192"/>
	<rect x="38.385" y="64.077" style="fill:#242D3C;" width="19.192" height="383.846"/>
	<rect y="64.077" style="fill:#242D3C;" width="19.192" height="19.19"/>
	<rect y="102.451" style="fill:#242D3C;" width="19.192" height="19.192"/>
	<rect y="140.851" style="fill:#242D3C;" width="19.192" height="19.197"/>
	<rect y="179.226" style="fill:#242D3C;" width="19.192" height="19.197"/>
	<rect y="217.626" style="fill:#242D3C;" width="19.192" height="19.192"/>
	<rect y="256" style="fill:#242D3C;" width="19.192" height="19.192"/>
	<rect y="294.374" style="fill:#242D3C;" width="19.192" height="19.195"/>
	<rect y="332.774" style="fill:#242D3C;" width="19.192" height="19.195"/>
	<rect y="371.149" style="fill:#242D3C;" width="19.192" height="19.192"/>
	<rect x="132.211" y="64.077" style="fill:#242D3C;" width="110.899" height="19.192"/>
	<rect x="76.769" y="102.451" style="fill:#242D3C;" width="110.899" height="19.192"/>
	<rect x="76.769" y="64.077" style="fill:#242D3C;" width="36.961" height="19.192"/>
</g>
<g>
</g>
<g>
</g>
<g>
</g>
<g>
</g>
<g>
</g>
<g>
</g>
<g>
</g>
<g>
</g>
<g>
</g>
<g>
</g>
<g>
</g>
<g>
</g>
<g>
</g>
<g>
</g>
<g>
</g>
</svg>
