<?xml version="1.0" encoding="iso-8859-1"?>
<!-- Generator: Adobe Illustrator 19.0.0, SVG Export Plug-In . SVG Version: 6.00 Build 0)  -->
<svg version="1.1" id="Capa_1" xmlns="http://www.w3.org/2000/svg" xmlns:xlink="http://www.w3.org/1999/xlink" x="0px" y="0px"
	 viewBox="0 0 512 512" style="enable-background:new 0 0 512 512;" xml:space="preserve">
<g>
	<path style="fill:#403E3E;" d="M360,364H152v-80h208V364z M168,348h176v-48H168V348z"/>
	<path style="fill:#403E3E;" d="M360,460H152v-80h208V460z M168,444h176v-48H168V444z"/>
	<path style="fill:#403E3E;" d="M360,268H152v-80h208V268z M168,252h176v-48H168V252z"/>
	<path style="fill:#403E3E;" d="M344,300H168v-48h176V300z M184,284h144v-16H184V284z"/>
	<path style="fill:#403E3E;" d="M344,396H168v-48h176V396z M184,380h144v-16H184V380z"/>
	<polygon style="fill:#403E3E;" points="344,476 328,476 328,460 184,460 184,476 168,476 168,444 344,444 	"/>
</g>
<g>
	<rect x="184" y="220" style="fill:#ffd801;" width="80" height="16"/>
	<rect x="312" y="220" style="fill:#ffd801;" width="16" height="16"/>
	<rect x="184" y="316" style="fill:#ffd801;" width="80" height="16"/>
	<rect x="312" y="316" style="fill:#ffd801;" width="16" height="16"/>
	<rect x="184" y="412" style="fill:#ffd801;" width="80" height="16"/>
	<rect x="312" y="412" style="fill:#ffd801;" width="16" height="16"/>
</g>
<g>
	<path style="fill:#005792;" d="M192,148h-16c0-44.112,35.888-80,80-80v16C220.712,84,192,112.712,192,148z"/>
	<path style="fill:#005792;" d="M440,332h-64v-16h64c30.872,0,56-25.128,56-56c0-30.88-25.128-56-56-56h-2.4
		c-2.568,0-4.984-1.24-6.496-3.328c-1.504-2.088-1.912-4.768-1.096-7.208C431.296,189.624,432,184.84,432,180
		c0-30.88-25.128-56-56-56c-6.928,0-12.224,0.832-17.192,2.688c-2.064,0.784-4.368,0.664-6.376-0.336
		c-1.984-0.992-3.472-2.76-4.104-4.888C336.208,80.568,298.24,52,256,52s-80.208,28.568-92.328,69.472
		c-0.632,2.128-2.12,3.896-4.104,4.888c-1.984,0.992-4.304,1.112-6.376,0.336C148.232,124.832,142.928,124,136,124
		c-30.88,0-56,25.12-56,56c0,4.832,0.704,9.624,1.992,13.472c0.816,2.44,0.4,5.12-1.104,7.208S76.968,204,74.4,204H72
		c-30.88,0-56,25.12-56,56c0,30.872,25.12,56,56,56h64v16H72c-39.696,0-72-32.296-72-72c0-37.176,28.328-67.872,64.536-71.616
		C64.176,185.664,64,182.848,64,180c0-39.696,32.304-72,72-72c5.544,0,10.36,0.44,14.856,1.392C167.208,65.808,209.36,36,256,36
		s88.8,29.808,105.144,73.392C365.632,108.44,370.456,108,376,108c39.704,0,72,32.304,72,72c0,2.848-0.176,5.664-0.528,8.384
		C483.672,192.128,512,222.824,512,260C512,299.704,479.704,332,440,332z"/>
</g>
<g>
	<rect x="376" y="380" style="fill:#403E3E;" width="16" height="16"/>
	<rect x="376" y="412" style="fill:#403E3E;" width="16" height="16"/>
	<rect x="376" y="444" style="fill:#403E3E;" width="16" height="16"/>
	<rect x="120" y="444" style="fill:#403E3E;" width="16" height="16"/>
	<rect x="120" y="412" style="fill:#403E3E;" width="16" height="16"/>
	<rect x="120" y="380" style="fill:#403E3E;" width="16" height="16"/>
</g>
<g>
</g>
<g>
</g>
<g>
</g>
<g>
</g>
<g>
</g>
<g>
</g>
<g>
</g>
<g>
</g>
<g>
</g>
<g>
</g>
<g>
</g>
<g>
</g>
<g>
</g>
<g>
</g>
<g>
</g>
</svg>
