<?xml version="1.0" encoding="iso-8859-1"?>
<!-- Generator: Adobe Illustrator 19.0.0, SVG Export Plug-In . SVG Version: 6.00 Build 0)  -->
<svg version="1.1" id="Layer_1" xmlns="http://www.w3.org/2000/svg" xmlns:xlink="http://www.w3.org/1999/xlink" x="0px" y="0px"
	 viewBox="0 0 512 512" style="enable-background:new 0 0 512 512;" xml:space="preserve">
<g>
	<path style="fill:#ffd801;" d="M472,144v80c22.4,0,40-17.6,40-40S494.4,144,472,144z"/>
	<rect x="56" y="88" style="fill:#ffd801;" width="120" height="192"/>
</g>
<polygon style="fill:#E3E3E3;" points="176,88 160,88 160,280 176,280 432,336 432,32 "/>
<polygon style="fill:#CACACA;" points="400,328.8 432,336 432,32 400,39.2 "/>
<g>
	<path style="fill:#2B2B2B;" d="M448,368c-13.6,0-24-10.4-24-24V24c0-13.6,10.4-24,24-24s24,10.4,24,24v320
		C472,357.6,461.6,368,448,368z M448,16c-4.8,0-8,3.2-8,8v320c0,4.8,3.2,8,8,8s8-3.2,8-8V24C456,19.2,452.8,16,448,16z"/>
	<rect x="248" y="176" style="fill:#2B2B2B;" width="16" height="16"/>
	<rect x="280" y="176" style="fill:#2B2B2B;" width="16" height="16"/>
	<rect x="312" y="176" style="fill:#2B2B2B;" width="16" height="16"/>
	<polygon style="fill:#2B2B2B;" points="208,376 168,376 168,360 192,360 192,328 208,328 	"/>
	<rect x="144" y="328" style="fill:#2B2B2B;" width="24" height="16"/>
	<rect x="144" y="360" style="fill:#2B2B2B;" width="24" height="16"/>
	<rect x="144" y="392" style="fill:#2B2B2B;" width="24" height="16"/>
	<rect x="144" y="424" style="fill:#2B2B2B;" width="24" height="16"/>
	<path style="fill:#2B2B2B;" d="M136,512c-10.4,0-20.8-4-28-12c-7.2-7.2-12-17.6-12-28V352c0-17.6-14.4-32-32-32h-8v-40h16v24.8
		c22.4,4,40,23.2,40,47.2v120c0,6.4,2.4,12.8,7.2,16.8c8.8,8.8,24.8,8.8,33.6,0c4.8-4.8,7.2-10.4,7.2-16.8V296h16v176
		c0,10.4-4,20.8-12,28C156.8,508,146.4,512,136,512z"/>
	<polygon style="fill:#2B2B2B;" points="56,240 0,240 0,128 56,128 56,144 16,144 16,224 56,224 	"/>
	<rect x="8" y="160" style="fill:#2B2B2B;" width="24" height="16"/>
	<rect x="8" y="192" style="fill:#2B2B2B;" width="24" height="16"/>
</g>
<rect x="160" y="88" style="fill:#E35B17;" width="16" height="192"/>
<g>
</g>
<g>
</g>
<g>
</g>
<g>
</g>
<g>
</g>
<g>
</g>
<g>
</g>
<g>
</g>
<g>
</g>
<g>
</g>
<g>
</g>
<g>
</g>
<g>
</g>
<g>
</g>
<g>
</g>
</svg>
