<?xml version="1.0" encoding="iso-8859-1"?>
<!-- Generator: Adobe Illustrator 19.0.0, SVG Export Plug-In . SVG Version: 6.00 Build 0)  -->
<svg version="1.1" id="Layer_1" xmlns="http://www.w3.org/2000/svg" xmlns:xlink="http://www.w3.org/1999/xlink" x="0px" y="0px"
	 viewBox="0 0 512 512" style="enable-background:new 0 0 512 512;" xml:space="preserve">
<path style="fill:#242D3C;" d="M321.554,477.891H0l142.835-287.245l39.608,79.66l17.946-36.081L321.554,477.891z M29.719,459.476
	h262.118l-91.448-183.903l-17.946,36.081l-39.608-79.652L29.719,459.476z"/>
<g>
	<polygon style="fill:#005792;" points="151.48,344.463 89.705,468.682 213.248,468.682 	"/>
	<polygon style="fill:#005792;" points="305.851,144.484 144.64,468.682 467.064,468.682 	"/>
	<polygon style="fill:#005792;" points="377.541,198.285 243.082,468.682 512,468.682 	"/>
</g>
<g>
	<rect x="14.861" y="459.469" style="fill:#242D3C;" width="497.126" height="18.412"/>
	<polygon style="fill:#242D3C;" points="261.809,472.783 245.322,464.586 346.747,260.618 386.806,341.171 463.24,187.461 
		479.726,195.658 386.806,382.518 346.747,301.967 	"/>
	<polygon style="fill:#242D3C;" points="476.242,234.675 465.684,203.218 434.225,213.78 428.362,196.324 477.279,179.899 
		493.701,228.813 	"/>
</g>
<rect x="305.843" y="34.109" style="fill:#ffd801;" width="73.651" height="55.237"/>
<rect x="296.653" y="34.109" style="fill:#242D3C;" width="18.412" height="128.896"/>
<g>
</g>
<g>
</g>
<g>
</g>
<g>
</g>
<g>
</g>
<g>
</g>
<g>
</g>
<g>
</g>
<g>
</g>
<g>
</g>
<g>
</g>
<g>
</g>
<g>
</g>
<g>
</g>
<g>
</g>
</svg>
