<?xml version="1.0" encoding="iso-8859-1"?>
<!-- Generator: Adobe Illustrator 19.0.0, SVG Export Plug-In . SVG Version: 6.00 Build 0)  -->
<svg version="1.1" id="Layer_1" xmlns="http://www.w3.org/2000/svg" xmlns:xlink="http://www.w3.org/1999/xlink" x="0px" y="0px"
	 viewBox="0 0 512 512" style="enable-background:new 0 0 512 512;" xml:space="preserve">
<path style="fill:#E3E3E3;" d="M512,399.7c0,8.8-7.2,16-16,16H16c-8.8,0-16-7.2-16-16v-112c0-8.8,7.2-16,16-16h480
	c8.8,0,16,7.2,16,16V399.7z"/>
<g>
	<path style="fill:#2B2B2B;" d="M80,271.7H64v-168c0-2.4-0.8-4-2.4-5.6c-3.2-3.2-8-3.2-11.2,0c-1.6,1.6-2.4,3.2-2.4,5.6v168H32v-168
		c0-6.4,2.4-12.8,7.2-16.8c8.8-8.8,24.8-8.8,33.6,0c4.8,4.8,7.2,10.4,7.2,16.8L80,271.7L80,271.7z"/>
	<path style="fill:#2B2B2B;" d="M480,271.7h-16v-168c0-2.4-0.8-4-2.4-5.6c-3.2-3.2-8-3.2-11.2,0c-1.6,1.6-2.4,3.2-2.4,5.6v168h-16
		v-168c0-6.4,2.4-12.8,7.2-16.8c8.8-8.8,24.8-8.8,33.6,0c4.8,4.8,7.2,10.4,7.2,16.8L480,271.7L480,271.7z"/>
	<rect x="416" y="415.7" style="fill:#2B2B2B;" width="64" height="16"/>
	<rect x="32" y="415.7" style="fill:#2B2B2B;" width="64" height="16"/>
	<path style="fill:#2B2B2B;" d="M312,255.7h-16c0-22.4-17.6-40-40-40s-40,17.6-40,40h-16c0-31.2,24.8-56,56-56S312,224.5,312,255.7z
		"/>
	<path style="fill:#2B2B2B;" d="M280,255.7h-16c0-4.8-3.2-8-8-8s-8,3.2-8,8h-16c0-13.6,10.4-24,24-24S280,242.1,280,255.7z"/>
	<path style="fill:#2B2B2B;" d="M344,255.7h-16c0-40-32-72-72-72s-72,32-72,72h-16c0-48.8,39.2-88,88-88S344,206.9,344,255.7z"/>
	<path style="fill:#2B2B2B;" d="M376,255.7h-16c0-57.6-46.4-104-104-104s-104,46.4-104,104h-16c0-66.4,53.6-120,120-120
		S376,189.3,376,255.7z"/>
	<path style="fill:#2B2B2B;" d="M408,255.7h-16c0-75.2-60.8-136-136-136s-136,60.8-136,136h-16c0-84,68-152,152-152
		S408,171.7,408,255.7z"/>
</g>
<rect x="40" y="311.7" style="fill:#FFFFFF;" width="432" height="72"/>
<polygon style="fill:#2B2B2B;" points="480,383.7 464,383.7 464,319.7 48,319.7 48,383.7 32,383.7 32,303.7 480,303.7 "/>
<g>
	<rect x="416" y="335.7" style="fill:#ffd801;" width="32" height="32"/>
	<rect x="320" y="335.7" style="fill:#ffd801;" width="32" height="32"/>
</g>
<g>
	<rect x="368" y="335.7" style="fill:#005792;" width="32" height="32"/>
	<rect x="272" y="335.7" style="fill:#005792;" width="32" height="32"/>
</g>
<g>
	<rect x="64" y="343.7" style="fill:#2B2B2B;" width="16" height="16"/>
	<rect x="96" y="343.7" style="fill:#2B2B2B;" width="16" height="16"/>
	<rect x="128" y="343.7" style="fill:#2B2B2B;" width="16" height="16"/>
	<rect x="160" y="343.7" style="fill:#2B2B2B;" width="16" height="16"/>
</g>
<g>
</g>
<g>
</g>
<g>
</g>
<g>
</g>
<g>
</g>
<g>
</g>
<g>
</g>
<g>
</g>
<g>
</g>
<g>
</g>
<g>
</g>
<g>
</g>
<g>
</g>
<g>
</g>
<g>
</g>
</svg>
