<?xml version="1.0" encoding="iso-8859-1"?>
<!-- Generator: Adobe Illustrator 19.0.0, SVG Export Plug-In . SVG Version: 6.00 Build 0)  -->
<svg xmlns="http://www.w3.org/2000/svg" xmlns:xlink="http://www.w3.org/1999/xlink" version="1.1" id="Layer_1" x="0px" y="0px" viewBox="0 0 512 512" style="enable-background:new 0 0 512 512;" xml:space="preserve">
<g>
	<rect x="352" y="72" style="fill:#2B2B2B;" width="16" height="16"/>
	<rect x="384" y="72" style="fill:#2B2B2B;" width="16" height="16"/>
	<rect x="416" y="72" style="fill:#2B2B2B;" width="16" height="16"/>
	<rect x="80" y="424" style="fill:#2B2B2B;" width="16" height="16"/>
	<rect x="112" y="424" style="fill:#2B2B2B;" width="16" height="16"/>
	<rect x="144" y="424" style="fill:#2B2B2B;" width="16" height="16"/>
</g>
<path style="fill:#E3E3E3;" d="M512,496c0,8.8-7.2,16-16,16H288c-8.8,0-16-7.2-16-16V192c0-8.8,7.2-16,16-16h208c8.8,0,16,7.2,16,16  V496z"/>
<path style="fill:#FFFFFF;" d="M454.4,241.6c-16.8-16.8-40-25.6-62.4-25.6s-44.8,8.8-62.4,25.6c-16.8,16.8-25.6,40-25.6,62.4v152  h176V304C480,281.6,471.2,259.2,454.4,241.6z"/>
<path style="fill:#ffd801;" d="M392,232c-40,0-72,32-72,72s32,72,72,72s72-32,72-72S432,232,392,232z M392,320c-8.8,0-16-7.2-16-16  s7.2-16,16-16s16,7.2,16,16S400.8,320,392,320z"/>
<path style="fill:#2B2B2B;" d="M392,328c-13.6,0-24-10.4-24-24s10.4-24,24-24s24,10.4,24,24S405.6,328,392,328z M392,296  c-4.8,0-8,3.2-8,8s3.2,8,8,8s8-3.2,8-8S396.8,296,392,296z"/>
<path style="fill:#FFFFFF;" d="M448,304h-16c0-22.4-17.6-40-40-40v-16C423.2,248,448,272.8,448,304z"/>
<g>
	<rect x="288" y="192" style="fill:#2B2B2B;" width="16" height="16"/>
	<rect x="480" y="192" style="fill:#2B2B2B;" width="16" height="16"/>
	<rect x="288" y="480" style="fill:#2B2B2B;" width="16" height="16"/>
	<rect x="480" y="480" style="fill:#2B2B2B;" width="16" height="16"/>
</g>
<g>
	<rect x="400" y="408" style="fill:#E3E3E3;" width="64" height="32"/>
	<rect x="320" y="424" style="fill:#E3E3E3;" width="48" height="16"/>
</g>
<polygon style="fill:#2B2B2B;" points="363.2,408 320,408 320,392 356.8,392 398.4,350.4 409.6,361.6 "/>
<path style="fill:#E3E3E3;" d="M240,320c0,8.8-7.2,16-16,16H16c-8.8,0-16-7.2-16-16V16C0,7.2,7.2,0,16,0h208c8.8,0,16,7.2,16,16V320  z"/>
<path style="fill:#FFFFFF;" d="M182.4,65.6C164.8,48.8,142.4,40,120,40s-44.8,8.8-62.4,25.6C40.8,83.2,32,105.6,32,128v152h176V128  C208,105.6,199.2,83.2,182.4,65.6z"/>
<path style="fill:#ffd801;" d="M120,56c-40,0-72,32-72,72s32,72,72,72s72-32,72-72S160,56,120,56z M120,144c-8.8,0-16-7.2-16-16  s7.2-16,16-16s16,7.2,16,16S128.8,144,120,144z"/>
<path style="fill:#2B2B2B;" d="M120,152c-13.6,0-24-10.4-24-24s10.4-24,24-24s24,10.4,24,24S133.6,152,120,152z M120,120  c-4.8,0-8,3.2-8,8s3.2,8,8,8s8-3.2,8-8S124.8,120,120,120z"/>
<path style="fill:#FFFFFF;" d="M176,128h-16c0-22.4-17.6-40-40-40V72C151.2,72,176,96.8,176,128z"/>
<g>
	<rect x="16" y="16" style="fill:#2B2B2B;" width="16" height="16"/>
	<rect x="208" y="16" style="fill:#2B2B2B;" width="16" height="16"/>
	<rect x="16" y="304" style="fill:#2B2B2B;" width="16" height="16"/>
	<rect x="208" y="304" style="fill:#2B2B2B;" width="16" height="16"/>
</g>
<g>
	<rect x="128" y="232" style="fill:#E3E3E3;" width="64" height="32"/>
	<rect x="48" y="248" style="fill:#E3E3E3;" width="48" height="16"/>
</g>
<polygon style="fill:#2B2B2B;" points="91.2,232 48,232 48,216 84.8,216 126.4,174.4 137.6,185.6 "/>
<g>
</g>
<g>
</g>
<g>
</g>
<g>
</g>
<g>
</g>
<g>
</g>
<g>
</g>
<g>
</g>
<g>
</g>
<g>
</g>
<g>
</g>
<g>
</g>
<g>
</g>
<g>
</g>
<g>
</g>
</svg>
