<?xml version="1.0" encoding="iso-8859-1"?>
<!-- Generator: Adobe Illustrator 19.0.0, SVG Export Plug-In . SVG Version: 6.00 Build 0)  -->
<svg version="1.1" id="Capa_1" xmlns="http://www.w3.org/2000/svg" xmlns:xlink="http://www.w3.org/1999/xlink" x="0px" y="0px"
	 viewBox="0 0 512 512" style="enable-background:new 0 0 512 512;" xml:space="preserve">
<path style="fill:#005792;" d="M440,324h-88v-16h88c30.872,0,56-25.128,56-56c0-30.88-25.128-56-56-56h-2.4
	c-2.568,0-4.984-1.24-6.496-3.328c-1.504-2.088-1.912-4.768-1.096-7.208C431.296,181.624,432,176.84,432,172
	c0-30.88-25.128-56-56-56c-6.928,0-12.224,0.832-17.192,2.688c-2.064,0.784-4.368,0.664-6.376-0.336
	c-1.984-0.992-3.472-2.76-4.104-4.888C336.208,72.568,298.24,44,256,44s-80.208,28.568-92.328,69.472
	c-0.632,2.128-2.12,3.896-4.104,4.888c-1.984,1-4.304,1.112-6.376,0.336C148.232,116.832,142.928,116,136,116
	c-30.88,0-56,25.12-56,56c0,4.832,0.704,9.624,1.992,13.472c0.816,2.44,0.4,5.12-1.104,7.208S76.968,196,74.4,196H72
	c-30.88,0-56,25.12-56,56c0,30.872,25.12,56,56,56h88v16H72c-39.696,0-72-32.296-72-72c0-37.176,28.328-67.872,64.536-71.616
	C64.176,177.664,64,174.848,64,172c0-39.696,32.304-72,72-72c5.544,0,10.36,0.44,14.856,1.392C167.208,57.808,209.36,28,256,28
	s88.8,29.808,105.144,73.392C365.632,100.44,370.456,100,376,100c39.704,0,72,32.304,72,72c0,2.848-0.176,5.664-0.528,8.384
	C483.672,184.128,512,214.824,512,252C512,291.704,479.704,324,440,324z"/>
<g>
	<rect x="352" y="340" style="fill:#403E3E;" width="16" height="16"/>
	<rect x="384" y="340" style="fill:#403E3E;" width="16" height="16"/>
	<rect x="416" y="340" style="fill:#403E3E;" width="16" height="16"/>
	<rect x="80" y="340" style="fill:#403E3E;" width="16" height="16"/>
	<rect x="112" y="340" style="fill:#403E3E;" width="16" height="16"/>
	<rect x="144" y="340" style="fill:#403E3E;" width="16" height="16"/>
</g>
<path style="fill:#ffd801;" d="M256,484c-8.088,0-16.488-3.568-22.464-9.544C227.208,468.128,224,460.568,224,452V348h16v104
	c0,4.288,1.544,7.832,4.856,11.144C248.44,466.728,252.96,468,256,468c4.288,0,7.832-1.536,11.136-4.848
	C270.728,459.56,272,455.04,272,452V348h16v104c0,8.096-3.568,16.488-9.552,22.464C272.136,480.792,264.576,484,256,484z"/>
<g>
	<path style="fill:#403E3E;" d="M256,324c-61.76,0-112-50.24-112-112s50.24-112,112-112s112,50.24,112,112S317.76,324,256,324z
		 M256,116c-52.936,0-96,43.064-96,96s43.064,96,96,96s96-43.064,96-96S308.936,116,256,116z"/>
	<path style="fill:#403E3E;" d="M296,356h-80c-4.416,0-8-3.576-8-8v-40h16v32h64v-32h16v40C304,352.424,300.424,356,296,356z"/>
</g>
<g>
	<path style="fill:#005792;" d="M256,292c-44.112,0-80-35.888-80-80s35.888-80,80-80s80,35.888,80,80S300.112,292,256,292z M256,148
		c-35.288,0-64,28.712-64,64s28.712,64,64,64s64-28.712,64-64S291.288,148,256,148z"/>
	<path style="fill:#005792;" d="M224,212h-16c0-26.912,21.088-48,48-48v16C238.056,180,224,194.056,224,212z"/>
</g>
<g>
</g>
<g>
</g>
<g>
</g>
<g>
</g>
<g>
</g>
<g>
</g>
<g>
</g>
<g>
</g>
<g>
</g>
<g>
</g>
<g>
</g>
<g>
</g>
<g>
</g>
<g>
</g>
<g>
</g>
</svg>
