<?xml version="1.0" encoding="iso-8859-1"?>
<!-- Generator: Adobe Illustrator 19.0.0, SVG Export Plug-In . SVG Version: 6.00 Build 0)  -->
<svg xmlns="http://www.w3.org/2000/svg" xmlns:xlink="http://www.w3.org/1999/xlink" version="1.1" id="Layer_1" x="0px" y="0px" viewBox="0 0 512 512" style="enable-background:new 0 0 512 512;" xml:space="preserve">
<g>
	<path style="fill:#2B2B2B;" d="M448,152h-56v-16h56c2.4,0,4-0.8,5.6-2.4c1.6-1.6,2.4-3.2,2.4-5.6v-16h16v16   c0,6.4-2.4,12.8-7.2,16.8C460.8,149.6,454.4,152,448,152z"/>
	<path style="fill:#2B2B2B;" d="M120,152H64c-6.4,0-12.8-2.4-16.8-7.2c-4.8-4-7.2-10.4-7.2-16.8v-16h16v16c0,2.4,0.8,4,2.4,5.6   c1.6,1.6,3.2,2.4,5.6,2.4h56V152z"/>
	<path style="fill:#2B2B2B;" d="M472,400h-16v-16c0-2.4-0.8-4-2.4-5.6s-3.2-2.4-5.6-2.4h-56v-16h56c6.4,0,12.8,2.4,16.8,7.2   c4.8,4.8,7.2,10.4,7.2,16.8V400z"/>
	<path style="fill:#2B2B2B;" d="M56,400H40v-16c0-6.4,2.4-12.8,7.2-16.8c4-4.8,10.4-7.2,16.8-7.2h56v16H64c-2.4,0-4,0.8-5.6,2.4   c-1.6,1.6-2.4,3.2-2.4,5.6V400z"/>
	<rect x="376" y="248" style="fill:#2B2B2B;" width="40" height="16"/>
	<rect x="96" y="248" style="fill:#2B2B2B;" width="40" height="16"/>
</g>
<rect x="136" y="96" style="fill:#005792;" width="240" height="96"/>
<g>
	<rect x="216" y="136" style="fill:#2B2B2B;" width="16" height="16"/>
	<rect x="248" y="136" style="fill:#2B2B2B;" width="16" height="16"/>
	<rect x="280" y="136" style="fill:#2B2B2B;" width="16" height="16"/>
</g>
<rect x="136" y="208" style="fill:#005792;" width="240" height="96"/>
<g>
	<rect x="216" y="248" style="fill:#2B2B2B;" width="16" height="16"/>
	<rect x="248" y="248" style="fill:#2B2B2B;" width="16" height="16"/>
	<rect x="280" y="248" style="fill:#2B2B2B;" width="16" height="16"/>
</g>
<rect x="136" y="320" style="fill:#005792;" width="240" height="96"/>
<g>
	<rect x="216" y="360" style="fill:#2B2B2B;" width="16" height="16"/>
	<rect x="248" y="360" style="fill:#2B2B2B;" width="16" height="16"/>
	<rect x="280" y="360" style="fill:#2B2B2B;" width="16" height="16"/>
</g>
<rect y="208" style="fill:#ffd801;" width="96" height="96"/>
<rect x="40" y="248" style="fill:#FFFFFF;" width="16" height="16"/>
<rect x="416" y="208" style="fill:#ffd801;" width="96" height="96"/>
<rect x="456" y="248" style="fill:#FFFFFF;" width="16" height="16"/>
<circle style="fill:#E3E3E3;" cx="48" cy="48" r="48"/>
<rect x="40" y="40" style="fill:#2B2B2B;" width="16" height="16"/>
<circle style="fill:#E3E3E3;" cx="464" cy="48" r="48"/>
<rect x="456" y="40" style="fill:#2B2B2B;" width="16" height="16"/>
<circle style="fill:#E3E3E3;" cx="48" cy="464" r="48"/>
<rect x="40" y="456" style="fill:#2B2B2B;" width="16" height="16"/>
<circle style="fill:#E3E3E3;" cx="464" cy="464" r="48"/>
<rect x="456" y="456" style="fill:#2B2B2B;" width="16" height="16"/>
<g>
</g>
<g>
</g>
<g>
</g>
<g>
</g>
<g>
</g>
<g>
</g>
<g>
</g>
<g>
</g>
<g>
</g>
<g>
</g>
<g>
</g>
<g>
</g>
<g>
</g>
<g>
</g>
<g>
</g>
</svg>
