<?xml version="1.0" encoding="iso-8859-1"?>
<!-- Generator: Adobe Illustrator 19.0.0, SVG Export Plug-In . SVG Version: 6.00 Build 0)  -->
<svg version="1.1" id="Layer_1" xmlns="http://www.w3.org/2000/svg" xmlns:xlink="http://www.w3.org/1999/xlink" x="0px" y="0px"
	 viewBox="0 0 493.794 493.794" style="enable-background:new 0 0 493.794 493.794;" xml:space="preserve">
<g>
	<path style="fill:#2B2B2B;" d="M446.897,493.794h-72v-8c0-2.4-0.8-4-2.4-5.6s-3.2-2.4-5.6-2.4h-240c-2.4,0-4,0.8-5.6,2.4
		c-1.6,1.6-2.4,3.2-2.4,5.6v8h-72v-48h16v32h41.6c0.8-3.2,3.2-6.4,5.6-8.8c4.8-4.8,10.4-7.2,16.8-7.2h240c6.4,0,12.8,2.4,16.8,7.2
		c2.4,2.4,4.8,5.6,5.6,8.8h41.6v-32h16L446.897,493.794L446.897,493.794z"/>
	
		<rect x="100.495" y="41.787" transform="matrix(-0.7071 -0.7071 0.7071 -0.7071 242.8728 200.1754)" style="fill:#2B2B2B;" width="124.799" height="16"/>
	
		<rect x="322.967" y="-12.62" transform="matrix(-0.7071 -0.7071 0.7071 -0.7071 529.7959 319.0084)" style="fill:#2B2B2B;" width="16" height="124.799"/>
	<path style="fill:#2B2B2B;" d="M302.897,125.794h-16c0-22.4-17.6-40-40-40s-40,17.6-40,40h-16c0-31.2,24.8-56,56-56
		S302.897,94.594,302.897,125.794z"/>
</g>
<path style="fill:#E3E3E3;" d="M486.897,413.794c0,17.6-14.4,32-32,32h-416c-17.6,0-32-14.4-32-32v-256c0-17.6,14.4-32,32-32h416
	c17.6,0,32,14.4,32,32V413.794z"/>
<path style="fill:#FFFFFF;" d="M326.897,373.794c0,12.8-11.2,24-24,24h-224c-12.8,0-24-11.2-24-24v-176c0-12.8,11.2-24,24-24h224
	c12.8,0,24,11.2,24,24V373.794z"/>
<rect x="78.897" y="197.794" style="fill:#005792;" width="224" height="176"/>
<g>
	<path style="fill:#2B2B2B;" d="M302.897,405.794h-224c-17.6,0-32-14.4-32-32v-176c0-17.6,14.4-32,32-32h224c17.6,0,32,14.4,32,32
		v176C334.897,391.394,320.497,405.794,302.897,405.794z M78.897,181.794c-8.8,0-16,7.2-16,16v176c0,8.8,7.2,16,16,16h224
		c8.8,0,16-7.2,16-16v-176c0-8.8-7.2-16-16-16H78.897z"/>
	<rect x="382.897" y="389.794" style="fill:#2B2B2B;" width="48" height="16"/>
	<rect x="382.897" y="357.794" style="fill:#2B2B2B;" width="48" height="16"/>
	<rect x="382.897" y="325.794" style="fill:#2B2B2B;" width="48" height="16"/>
	<rect x="382.897" y="293.794" style="fill:#2B2B2B;" width="48" height="16"/>
	<rect x="382.897" y="261.794" style="fill:#2B2B2B;" width="48" height="16"/>
</g>
<g>
	<rect x="150.897" y="341.794" style="fill:#FFFFFF;" width="16" height="16"/>
	<rect x="182.897" y="341.794" style="fill:#FFFFFF;" width="16" height="16"/>
	<rect x="214.897" y="341.794" style="fill:#FFFFFF;" width="16" height="16"/>
</g>
<circle style="fill:#ffd801;" cx="406.897" cy="205.794" r="40"/>
<circle style="fill:#FFFFFF;" cx="406.897" cy="205.794" r="16"/>
<g>
</g>
<g>
</g>
<g>
</g>
<g>
</g>
<g>
</g>
<g>
</g>
<g>
</g>
<g>
</g>
<g>
</g>
<g>
</g>
<g>
</g>
<g>
</g>
<g>
</g>
<g>
</g>
<g>
</g>
</svg>
