<?xml version="1.0" encoding="iso-8859-1"?>
<!-- Generator: Adobe Illustrator 19.0.0, SVG Export Plug-In . SVG Version: 6.00 Build 0)  -->
<svg version="1.1" id="Layer_1" xmlns="http://www.w3.org/2000/svg" xmlns:xlink="http://www.w3.org/1999/xlink" x="0px" y="0px"
	 viewBox="0 0 512 512" style="enable-background:new 0 0 512 512;" xml:space="preserve">
<polygon style="fill:#2B2B2B;" points="476,200 460,200 460,196 244,57.6 28,196 28,200 12,200 12,188 244,38.4 476,188 "/>
<path style="fill:#E3E3E3;" d="M436,32c0-8,3.2-16,9.6-22.4S460,0,468,0H84c-8,0-16,3.2-22.4,9.6C55.2,16,52,24,52,32v456h384V32z"
	/>
<polygon style="fill:#ffd801;" points="244,360 12,208 12,512 476,512 476,208 "/>
<g>
	<polygon style="fill:#E35B17;" points="244,360 12,512 476,512 	"/>
	<polygon style="fill:#E35B17;" points="244,360 52,234.4 52,488 436,488 436,234.4 	"/>
</g>
<polygon style="fill:#CA5114;" points="436,485.6 244,360 52,485.6 52,488 436,488 "/>
<polygon style="fill:#2B2B2B;" points="244,361.6 12,212 12,200 28,200 28,204 244,342.4 460,204 460,200 476,200 476,212 "/>
<path style="fill:#E3E3E3;" d="M468,0H84c17.6,0,32,14.4,32,32v16h384V32C500,14.4,485.6,0,468,0z"/>
<g>
	<path style="fill:#2B2B2B;" d="M140,144c-13.6,0-24-10.4-24-24s10.4-24,24-24s24,10.4,24,24S153.6,144,140,144z M140,112
		c-4.8,0-8,3.2-8,8s3.2,8,8,8s8-3.2,8-8S144.8,112,140,112z"/>
	<path style="fill:#2B2B2B;" d="M156,176h-16c-31.2,0-56-24.8-56-56s24.8-56,56-56s56,24.8,56,56h-16c0-22.4-17.6-40-40-40
		c-22.4,0-40,17.6-40,40s17.6,40,40,40h16V176z"/>
	<path style="fill:#2B2B2B;" d="M172,144c-6.4,0-12.8-2.4-16.8-7.2c-4.8-4.8-7.2-10.4-7.2-16.8h16c0,2.4,0.8,4,2.4,5.6
		c3.2,3.2,8,3.2,11.2,0c1.6-1.6,2.4-3.2,2.4-5.6h16c0,6.4-2.4,12.8-7.2,16.8C184.8,141.6,178.4,144,172,144z"/>
	<rect x="212" y="64" style="fill:#2B2B2B;" width="192" height="16"/>
	<rect x="212" y="96" style="fill:#2B2B2B;" width="192" height="16"/>
	<rect x="212" y="128" style="fill:#2B2B2B;" width="192" height="16"/>
	<rect x="212" y="160" style="fill:#2B2B2B;" width="192" height="16"/>
	<rect x="84" y="192" style="fill:#2B2B2B;" width="320" height="16"/>
	<rect x="132" y="224" style="fill:#2B2B2B;" width="224" height="16"/>
	<rect x="172" y="256" style="fill:#2B2B2B;" width="144" height="16"/>
</g>
<g>
	<rect x="204" y="448" style="fill:#FFFFFF;" width="16" height="16"/>
	<rect x="236" y="448" style="fill:#FFFFFF;" width="16" height="16"/>
	<rect x="268" y="448" style="fill:#FFFFFF;" width="16" height="16"/>
</g>
<path style="fill:#CACACA;" d="M116,32v16h320V32c0-8,3.2-16,9.6-22.4S460,0,468,0H84C101.6,0,116,14.4,116,32z"/>
<g>
</g>
<g>
</g>
<g>
</g>
<g>
</g>
<g>
</g>
<g>
</g>
<g>
</g>
<g>
</g>
<g>
</g>
<g>
</g>
<g>
</g>
<g>
</g>
<g>
</g>
<g>
</g>
<g>
</g>
</svg>
