<?xml version="1.0" encoding="iso-8859-1"?>
<!-- Generator: Adobe Illustrator 19.0.0, SVG Export Plug-In . SVG Version: 6.00 Build 0)  -->
<svg version="1.1" id="Layer_1" xmlns="http://www.w3.org/2000/svg" xmlns:xlink="http://www.w3.org/1999/xlink" x="0px" y="0px"
	 viewBox="0 0 512 512" style="enable-background:new 0 0 512 512;" xml:space="preserve">
<path style="fill:#005792;" d="M328,144v64h-32h-24v8l-24,88h120c6.4,0,12,2.4,16.8,7.2s7.2,11.2,7.2,16.8c0,2.4-0.8,5.6-1.6,8H440
	l48,48v-48h24V144H328z"/>
<g>
	<rect x="408" y="168" style="fill:#2B2B2B;" width="16" height="16"/>
	<rect x="440" y="168" style="fill:#2B2B2B;" width="16" height="16"/>
	<rect x="472" y="168" style="fill:#2B2B2B;" width="16" height="16"/>
	<rect x="352" y="200" style="fill:#2B2B2B;" width="136" height="16"/>
	<rect x="296" y="232" style="fill:#2B2B2B;" width="192" height="16"/>
	<rect x="296" y="264" style="fill:#2B2B2B;" width="192" height="16"/>
	<rect x="416" y="296" style="fill:#2B2B2B;" width="72" height="16"/>
	<path style="fill:#2B2B2B;" d="M360,408h-40v-16h40c4,0,8-1.6,11.2-4.8S376,380,376,376h16c0,8.8-3.2,16.8-9.6,22.4
		S368.8,408,360,408z"/>
	<path style="fill:#2B2B2B;" d="M352,456h-40v-16h40c4,0,8-1.6,11.2-4.8S368,428,368,424h16c0,8.8-3.2,16.8-9.6,22.4
		S360.8,456,352,456z"/>
	<path style="fill:#2B2B2B;" d="M344,504H189.6l-24-16H144v-16h26.4l24,16H344c4,0,8-1.6,11.2-4.8S360,476,360,472h16
		c0,8.8-3.2,16.8-9.6,22.4S352.8,504,344,504z"/>
	<path style="fill:#2B2B2B;" d="M368,360h-40v-16h40c4,0,8-1.6,11.2-4.8S384,332,384,328s-1.6-8-4.8-11.2S372,312,368,312H237.6
		l26.4-96.8V184c0-2.4-0.8-4-2.4-5.6c-3.2-3.2-8-3.2-11.2,0c-1.6,1.6-2.4,3.2-2.4,5.6v1.6l-26.4,51.2l-66.4,74.4H128v-16h20.8
		l60.8-68.8l22.4-45.6c0.8-5.6,3.2-11.2,7.2-15.2c8.8-8.8,24.8-8.8,33.6,0c4.8,4.8,7.2,10.4,7.2,16.8v34.4l-21.6,77.6H368
		c8.8,0,16.8,3.2,22.4,9.6s9.6,14.4,9.6,22.4s-3.2,16.8-9.6,22.4S376.8,360,368,360z"/>
</g>
<rect y="296" style="fill:#ffd801;" width="128" height="208"/>
<rect y="296" style="fill:#E35B17;" width="80" height="208"/>
<g>
	<rect x="96" y="472" style="fill:#FFFFFF;" width="16" height="16"/>
	<rect x="96" y="440" style="fill:#FFFFFF;" width="16" height="16"/>
</g>
<g>
	<rect x="32" y="40" style="fill:#2B2B2B;" width="16" height="16"/>
	<rect x="64" y="40" style="fill:#2B2B2B;" width="16" height="16"/>
	<rect x="96" y="40" style="fill:#2B2B2B;" width="16" height="16"/>
	<rect x="32" y="72" style="fill:#2B2B2B;" width="272" height="16"/>
	<rect x="32" y="104" style="fill:#2B2B2B;" width="272" height="16"/>
	<rect x="32" y="136" style="fill:#2B2B2B;" width="160" height="16"/>
	<rect x="32" y="168" style="fill:#2B2B2B;" width="160" height="16"/>
	<rect x="184" y="40" style="fill:#2B2B2B;" width="120" height="16"/>
	<polygon style="fill:#2B2B2B;" points="52,264 32,264 32,216 0,216 0,8 336,8 336,216 296,216 296,200 320,200 320,24 16,24 
		16,200 48,200 48,241.6 76,200 192,200 192,216 84,216 	"/>
</g>
<g>
</g>
<g>
</g>
<g>
</g>
<g>
</g>
<g>
</g>
<g>
</g>
<g>
</g>
<g>
</g>
<g>
</g>
<g>
</g>
<g>
</g>
<g>
</g>
<g>
</g>
<g>
</g>
<g>
</g>
</svg>
