<?xml version="1.0" encoding="iso-8859-1"?>
<!-- Generator: Adobe Illustrator 19.0.0, SVG Export Plug-In . SVG Version: 6.00 Build 0)  -->
<svg version="1.1" id="Layer_1" xmlns="http://www.w3.org/2000/svg" xmlns:xlink="http://www.w3.org/1999/xlink" x="0px" y="0px"
	 viewBox="0 0 512 512" style="enable-background:new 0 0 512 512;" xml:space="preserve">
<g>
	<path style="fill:#242D3C;" d="M506.733,512H5.265v-58.801h501.471V512H506.733z M25.576,491.686h460.849v-18.179H25.576V491.686z"
		/>
	<path style="fill:#242D3C;" d="M506.733,265.093H5.265v-58.801h501.471v58.801H506.733z M25.576,244.782h460.849v-18.179H25.576
		V244.782z"/>
	<rect x="447.922" y="284.083" style="fill:#242D3C;" width="20.314" height="150.124"/>
	<rect x="390.194" y="284.083" style="fill:#242D3C;" width="20.314" height="150.124"/>
	<rect x="332.44" y="284.083" style="fill:#242D3C;" width="20.314" height="150.124"/>
	<rect x="274.712" y="284.083" style="fill:#242D3C;" width="20.314" height="150.124"/>
	<rect x="216.984" y="284.083" style="fill:#242D3C;" width="20.314" height="150.124"/>
	<rect x="159.231" y="284.083" style="fill:#242D3C;" width="20.311" height="150.124"/>
	<rect x="101.492" y="284.083" style="fill:#242D3C;" width="20.314" height="150.124"/>
	<rect x="43.749" y="284.083" style="fill:#242D3C;" width="20.314" height="150.124"/>
	<polygon style="fill:#242D3C;" points="450.904,223.626 255.999,28.723 61.093,223.626 46.732,209.267 255.999,0 465.266,209.267 	
		"/>
</g>
<circle style="fill:#005792;" cx="255.999" cy="138.496" r="46.182"/>
<g>
</g>
<g>
</g>
<g>
</g>
<g>
</g>
<g>
</g>
<g>
</g>
<g>
</g>
<g>
</g>
<g>
</g>
<g>
</g>
<g>
</g>
<g>
</g>
<g>
</g>
<g>
</g>
<g>
</g>
</svg>
