<?xml version="1.0" encoding="iso-8859-1"?>
<!-- Generator: Adobe Illustrator 19.0.0, SVG Export Plug-In . SVG Version: 6.00 Build 0)  -->
<svg version="1.1" id="Layer_1" xmlns="http://www.w3.org/2000/svg" xmlns:xlink="http://www.w3.org/1999/xlink" x="0px" y="0px"
	 viewBox="0 0 512 512" style="enable-background:new 0 0 512 512;" xml:space="preserve">
<g>
	<rect x="17.654" y="459.035" style="fill:#242D3C;" width="476.698" height="17.654"/>
	<rect x="17.654" y="423.732" style="fill:#242D3C;" width="17.654" height="17.654"/>
	<rect x="52.964" y="423.732" style="fill:#242D3C;" width="17.656" height="17.654"/>
	<rect x="88.276" y="423.732" style="fill:#242D3C;" width="17.654" height="17.654"/>
	<rect x="123.597" y="423.732" style="fill:#242D3C;" width="17.654" height="17.654"/>
	<rect x="158.899" y="423.732" style="fill:#242D3C;" width="17.654" height="17.654"/>
	<rect x="194.207" y="423.732" style="fill:#242D3C;" width="17.654" height="17.654"/>
	<rect x="229.53" y="423.732" style="fill:#242D3C;" width="17.654" height="17.654"/>
	<rect x="264.832" y="423.732" style="fill:#242D3C;" width="17.654" height="17.654"/>
	<rect x="300.134" y="423.732" style="fill:#242D3C;" width="17.654" height="17.654"/>
	<rect x="335.437" y="423.732" style="fill:#242D3C;" width="17.654" height="17.654"/>
	<rect x="370.765" y="423.732" style="fill:#242D3C;" width="17.656" height="17.654"/>
	<rect x="406.067" y="423.732" style="fill:#242D3C;" width="17.654" height="17.654"/>
	<rect x="441.37" y="423.732" style="fill:#242D3C;" width="17.654" height="17.654"/>
	<rect x="476.698" y="423.732" style="fill:#242D3C;" width="17.654" height="17.654"/>
</g>
<g>
	<rect x="17.654" y="291.304" style="fill:#ffd801;" width="17.654" height="114.76"/>
	<rect x="52.964" y="277.787" style="fill:#ffd801;" width="17.656" height="128.282"/>
	<rect x="88.276" y="217.678" style="fill:#ffd801;" width="17.654" height="188.39"/>
	<rect x="123.597" y="185.371" style="fill:#ffd801;" width="17.654" height="220.698"/>
	<rect x="158.899" y="242.484" style="fill:#ffd801;" width="17.654" height="163.594"/>
	<rect x="194.207" y="256.001" style="fill:#ffd801;" width="17.654" height="150.067"/>
	<rect x="229.53" y="242.484" style="fill:#ffd801;" width="17.654" height="163.594"/>
	<rect x="264.832" y="182.376" style="fill:#ffd801;" width="17.654" height="223.693"/>
	<rect x="300.134" y="150.068" style="fill:#ffd801;" width="17.654" height="256"/>
	<rect x="335.437" y="207.167" style="fill:#ffd801;" width="17.654" height="198.912"/>
	<rect x="370.765" y="220.699" style="fill:#ffd801;" width="17.656" height="185.37"/>
	<rect x="406.067" y="207.167" style="fill:#ffd801;" width="17.654" height="198.912"/>
	<rect x="441.37" y="147.073" style="fill:#ffd801;" width="17.654" height="258.995"/>
	<rect x="476.698" y="114.761" style="fill:#ffd801;" width="17.654" height="291.302"/>
</g>
<g>
	<polygon style="fill:#242D3C;" points="190.569,199.397 186.911,199.397 184.289,196.809 138.634,151.118 151.124,138.643 
		196.78,184.332 190.551,190.552 	"/>
	<polygon style="fill:#242D3C;" points="367.119,164.087 363.464,164.087 360.842,161.496 315.185,115.808 327.675,103.333 
		373.33,149.021 367.101,155.242 	"/>
	<polygon style="fill:#242D3C;" points="395.745,164.087 392.084,164.087 392.069,155.242 385.843,149.019 466.808,68.018 
		479.299,80.5 	"/>
	<polygon style="fill:#242D3C;" points="219.192,199.397 215.534,199.397 215.519,190.552 209.29,184.329 290.255,103.328 
		302.746,115.811 	"/>
	<polygon style="fill:#242D3C;" points="42.642,234.71 38.984,234.71 38.966,225.865 32.737,219.639 113.705,138.638 
		126.193,151.123 	"/>
	<path style="fill:#242D3C;" d="M26.483,264.828C11.878,264.828,0,252.95,0,238.348c0-14.602,11.878-26.483,26.483-26.483
		s26.483,11.878,26.483,26.483C52.966,252.952,41.085,264.828,26.483,264.828z M26.483,229.518c-4.869,0-8.827,3.958-8.827,8.827
		s3.958,8.827,8.827,8.827s8.827-3.958,8.827-8.827S31.352,229.518,26.483,229.518z"/>
	<path style="fill:#242D3C;" d="M132.413,158.898c-14.605,0-26.483-11.878-26.483-26.483c0-14.605,11.878-26.483,26.483-26.483
		s26.483,11.878,26.483,26.483C158.897,147.02,147.018,158.898,132.413,158.898z M132.413,123.588c-4.869,0-8.827,3.958-8.827,8.827
		s3.958,8.827,8.827,8.827s8.827-3.958,8.827-8.827S137.283,123.588,132.413,123.588z"/>
	<path style="fill:#242D3C;" d="M203.036,229.518c-14.605,0-26.483-11.881-26.483-26.483c0-14.605,11.881-26.483,26.483-26.483
		s26.483,11.881,26.483,26.483C229.517,217.64,217.638,229.518,203.036,229.518z M203.036,194.208c-4.869,0-8.827,3.958-8.827,8.827
		c0,4.869,3.958,8.827,8.827,8.827s8.827-3.958,8.827-8.827C211.863,198.166,207.903,194.208,203.036,194.208z"/>
	<path style="fill:#242D3C;" d="M308.964,123.588c-14.602,0-26.483-11.878-26.483-26.483s11.881-26.483,26.483-26.483
		c14.605,0,26.483,11.878,26.483,26.483S323.571,123.588,308.964,123.588z M308.964,88.278c-4.867,0-8.827,3.958-8.827,8.827
		s3.96,8.827,8.827,8.827c4.869,0,8.827-3.958,8.827-8.827S313.836,88.278,308.964,88.278z"/>
	<path style="fill:#242D3C;" d="M379.584,194.208c-14.602,0-26.483-11.881-26.483-26.483c0-14.602,11.881-26.483,26.483-26.483
		c14.605,0,26.486,11.881,26.486,26.483C406.07,182.33,394.189,194.208,379.584,194.208z M379.584,158.898
		c-4.867,0-8.827,3.958-8.827,8.827s3.96,8.827,8.827,8.827c4.869,0,8.829-3.958,8.829-8.827
		C388.413,162.856,384.456,158.898,379.584,158.898z"/>
	<path style="fill:#242D3C;" d="M485.517,88.278c-14.602,0-26.483-11.881-26.483-26.483s11.881-26.483,26.483-26.483
		S512,47.192,512,61.795S500.119,88.278,485.517,88.278z M485.517,52.965c-4.869,0-8.827,3.958-8.827,8.827s3.958,8.829,8.827,8.829
		c4.867,0,8.827-3.958,8.827-8.829C494.346,56.925,490.386,52.965,485.517,52.965z"/>
</g>
<g>
</g>
<g>
</g>
<g>
</g>
<g>
</g>
<g>
</g>
<g>
</g>
<g>
</g>
<g>
</g>
<g>
</g>
<g>
</g>
<g>
</g>
<g>
</g>
<g>
</g>
<g>
</g>
<g>
</g>
</svg>
