<?xml version="1.0" encoding="iso-8859-1"?>
<!-- Generator: Adobe Illustrator 19.0.0, SVG Export Plug-In . SVG Version: 6.00 Build 0)  -->
<svg version="1.1" id="Layer_1" xmlns="http://www.w3.org/2000/svg" xmlns:xlink="http://www.w3.org/1999/xlink" x="0px" y="0px"
	 viewBox="0 0 512 512" style="enable-background:new 0 0 512 512;" xml:space="preserve">
<path style="fill:#242D3C;" d="M256,512C114.839,512,0,397.161,0,256S114.839,0,256,0s256,114.839,256,256S397.161,512,256,512z
	 M256,20.48C126.136,20.48,20.48,126.134,20.48,256S126.136,491.52,256,491.52c129.866,0,235.52-105.654,235.52-235.52
	S385.866,20.48,256,20.48z"/>
<path style="fill:#ffd801;" d="M440.32,256c0,101.788-82.552,184.32-184.32,184.32c-101.783,0-184.32-82.532-184.32-184.32
	c0-101.793,82.537-184.32,184.32-184.32C357.768,71.68,440.32,154.207,440.32,256z"/>
<g>
	<path style="fill:#FFFFFF;" d="M268.193,339.384h-24.384c-12.495,0-24.248-4.864-33.091-13.706
		c-8.845-8.852-13.711-20.608-13.711-33.114h20.48c0,7.037,2.739,13.658,7.713,18.632c4.972,4.966,11.584,7.706,18.611,7.706h24.384
		c7.022,0,13.64-2.739,18.639-7.721c4.943-4.964,7.683-11.584,7.683-18.616s-2.729-13.64-7.701-18.609
		c-4.974-4.974-11.589-7.716-18.621-7.716h-24.384c-12.516,0-24.271-4.877-33.103-13.724c-8.832-8.819-13.701-20.577-13.701-33.088
		c0-12.521,4.869-24.271,13.711-33.106c8.845-8.84,20.595-13.704,33.091-13.704h24.384c12.48,0,24.233,4.864,33.096,13.693
		c8.847,8.86,13.706,20.616,13.706,33.116h-20.48c0-7.037-2.734-13.652-7.701-18.629c-4.982-4.961-11.599-7.7-18.621-7.7h-24.384
		c-7.027,0-13.64,2.737-18.619,7.713c-4.966,4.961-7.703,11.576-7.703,18.616c0,7.04,2.737,13.647,7.703,18.611
		c4.972,4.979,11.579,7.721,18.619,7.721h24.384c12.503,0,24.261,4.872,33.108,13.716c8.832,8.835,13.696,20.585,13.696,33.088
		c0,12.488-4.859,24.241-13.683,33.098C292.426,334.52,280.673,339.384,268.193,339.384z"/>
	<rect x="245.76" y="153.6" style="fill:#FFFFFF;" width="20.48" height="29.263"/>
	<rect x="245.76" y="329.139" style="fill:#FFFFFF;" width="20.48" height="29.256"/>
</g>
<g>
</g>
<g>
</g>
<g>
</g>
<g>
</g>
<g>
</g>
<g>
</g>
<g>
</g>
<g>
</g>
<g>
</g>
<g>
</g>
<g>
</g>
<g>
</g>
<g>
</g>
<g>
</g>
<g>
</g>
</svg>
