<?xml version="1.0" encoding="iso-8859-1"?>
<!-- Generator: Adobe Illustrator 19.0.0, SVG Export Plug-In . SVG Version: 6.00 Build 0)  -->
<svg version="1.1" id="Layer_1" xmlns="http://www.w3.org/2000/svg" xmlns:xlink="http://www.w3.org/1999/xlink" x="0px" y="0px"
	 viewBox="0 0 512 512" style="enable-background:new 0 0 512 512;" xml:space="preserve">
<path style="fill:#E3E3E3;" d="M72,16v440c0,8-3.2,16-9.6,22.4C56,484.8,48,488,40,488l0,0v8h440c8,0,16-3.2,22.4-9.6
	c6.4-6.4,9.6-14.4,9.6-22.4V16H72z"/>
<g>
	<path style="fill:#2B2B2B;" d="M40,496c-10.4,0-20.8-4-28-12c-7.2-7.2-12-17.6-12-28V56h16v400c0,6.4,2.4,12.8,7.2,16.8
		c8.8,8.8,24.8,8.8,33.6,0C61.6,468,64,462.4,64,456V16h16v440c0,10.4-4,20.8-12,28C60.8,492,50.4,496,40,496z"/>
	<rect x="32" y="56" style="fill:#2B2B2B;" width="16" height="400"/>
</g>
<rect x="112" y="56" style="fill:#E35B17;" width="368" height="48"/>
<g>
	<rect x="112" y="120" style="fill:#2B2B2B;" width="368" height="16"/>
	<rect x="112" y="280" style="fill:#2B2B2B;" width="112" height="16"/>
	<rect x="112" y="248" style="fill:#2B2B2B;" width="112" height="16"/>
	<rect x="112" y="216" style="fill:#2B2B2B;" width="112" height="16"/>
	<rect x="112" y="184" style="fill:#2B2B2B;" width="112" height="16"/>
	<rect x="112" y="152" style="fill:#2B2B2B;" width="112" height="16"/>
	<rect x="112" y="312" style="fill:#2B2B2B;" width="112" height="16"/>
	<rect x="240" y="280" style="fill:#2B2B2B;" width="112" height="16"/>
	<rect x="240" y="312" style="fill:#2B2B2B;" width="112" height="16"/>
	<rect x="240" y="376" style="fill:#2B2B2B;" width="112" height="16"/>
	<rect x="240" y="408" style="fill:#2B2B2B;" width="112" height="16"/>
	<rect x="240" y="440" style="fill:#2B2B2B;" width="112" height="16"/>
	<rect x="368" y="280" style="fill:#2B2B2B;" width="112" height="16"/>
	<rect x="368" y="312" style="fill:#2B2B2B;" width="112" height="16"/>
	<rect x="112" y="344" style="fill:#2B2B2B;" width="112" height="16"/>
	<rect x="240" y="344" style="fill:#2B2B2B;" width="112" height="16"/>
	<rect x="368" y="344" style="fill:#2B2B2B;" width="112" height="16"/>
	<rect x="368" y="376" style="fill:#2B2B2B;" width="112" height="16"/>
	<rect x="368" y="408" style="fill:#2B2B2B;" width="112" height="16"/>
	<rect x="368" y="440" style="fill:#2B2B2B;" width="56" height="16"/>
</g>
<rect x="240" y="152" style="fill:#1CCACA;" width="240" height="112"/>
<rect x="256" y="168" style="fill:#005792;" width="208" height="80"/>
<g>
	<rect x="320" y="200" style="fill:#2B2B2B;" width="16" height="16"/>
	<rect x="352" y="200" style="fill:#2B2B2B;" width="16" height="16"/>
	<rect x="384" y="200" style="fill:#2B2B2B;" width="16" height="16"/>
	<path style="fill:#2B2B2B;" d="M224,456H112v-80h112V456z M128,440h80v-48h-80V440z"/>
</g>
<g>
</g>
<g>
</g>
<g>
</g>
<g>
</g>
<g>
</g>
<g>
</g>
<g>
</g>
<g>
</g>
<g>
</g>
<g>
</g>
<g>
</g>
<g>
</g>
<g>
</g>
<g>
</g>
<g>
</g>
</svg>
