<?xml version="1.0" encoding="iso-8859-1"?>
<!-- Generator: Adobe Illustrator 19.0.0, SVG Export Plug-In . SVG Version: 6.00 Build 0)  -->
<svg version="1.1" id="Capa_1" xmlns="http://www.w3.org/2000/svg" xmlns:xlink="http://www.w3.org/1999/xlink" x="0px" y="0px"
	 viewBox="0 0 512 512" style="enable-background:new 0 0 512 512;" xml:space="preserve">
<g>
	<path style="fill:#005792;" d="M272,184h-16V56c0-2.016-0.848-3.936-2.456-5.544C251.936,48.848,250.016,48,248,48H40
		c-2.016,0-3.936,0.848-5.544,2.456C32.848,52.064,32,53.984,32,56v128H16V56c0-6.264,2.536-12.248,7.144-16.856S33.736,32,40,32
		h208c6.264,0,12.248,2.536,16.856,7.144S272,49.736,272,56V184z"/>
	<polygon style="fill:#005792;" points="240,184 200,184 200,168 224,168 224,80 64,80 64,168 88,168 88,184 48,184 48,64 240,64 	
		"/>
	<path style="fill:#005792;" d="M264,248H24c-6.264,0-12.248-2.536-16.856-7.144S0,230.264,0,224v-24h288v24
		c0,6.264-2.528,12.248-7.136,16.848C276.248,245.464,270.256,248,264,248z M16,216v8c0,2.016,0.848,3.936,2.456,5.544
		C20.064,231.152,21.984,232,24,232h240c2.016,0,3.936-0.848,5.544-2.464c1.608-1.6,2.456-3.52,2.456-5.536v-8H16z"/>
</g>
<g>
	<rect x="104" y="168" style="fill:#403E3E;" width="16" height="16"/>
	<rect x="136" y="168" style="fill:#403E3E;" width="16" height="16"/>
	<rect x="168" y="168" style="fill:#403E3E;" width="16" height="16"/>
</g>
<g>
	<path style="fill:#ffd801;" d="M496,416h-16V288c0-2.016-0.848-3.936-2.464-5.552c-1.6-1.6-3.52-2.448-5.536-2.448H264
		c-2.016,0-3.936,0.848-5.544,2.464c-1.608,1.6-2.456,3.52-2.456,5.536v128h-16V288c0-6.256,2.536-12.248,7.144-16.856
		C251.752,266.528,257.736,264,264,264h208c6.256,0,12.24,2.528,16.848,7.136C493.472,275.76,496,281.744,496,288V416z"/>
	<polygon style="fill:#ffd801;" points="464,416 424,416 424,400 448,400 448,312 288,312 288,400 312,400 312,416 272,416 272,296 
		464,296 	"/>
	<path style="fill:#ffd801;" d="M488,480H248c-6.264,0-12.248-2.528-16.848-7.136C226.536,468.248,224,462.256,224,456v-24h288v24
		c0,6.256-2.528,12.24-7.136,16.848C500.24,477.472,494.256,480,488,480z M240,448v8c0,2.016,0.848,3.936,2.464,5.544
		c1.6,1.608,3.52,2.456,5.536,2.456h240c2.016,0,3.936-0.848,5.552-2.464c1.6-1.6,2.448-3.52,2.448-5.536v-8H240z"/>
</g>
<g>
	<rect x="328" y="400" style="fill:#403E3E;" width="16" height="16"/>
	<rect x="360" y="400" style="fill:#403E3E;" width="16" height="16"/>
	<rect x="392" y="400" style="fill:#403E3E;" width="16" height="16"/>
	<rect x="288" y="112" style="fill:#403E3E;" width="80" height="16"/>
	<rect x="408" y="168" style="fill:#403E3E;" width="16" height="80"/>
	<path style="fill:#403E3E;" d="M416,152c-17.648,0-32-14.352-32-32s14.352-32,32-32s32,14.352,32,32S433.648,152,416,152z M416,104
		c-8.824,0-16,7.176-16,16s7.176,16,16,16s16-7.176,16-16S424.824,104,416,104z"/>
	<rect x="88" y="264" style="fill:#403E3E;" width="16" height="80"/>
	<path style="fill:#403E3E;" d="M96,424c-17.648,0-32-14.352-32-32s14.352-32,32-32s32,14.352,32,32S113.648,424,96,424z M96,376
		c-8.824,0-16,7.176-16,16s7.176,16,16,16s16-7.176,16-16S104.824,376,96,376z"/>
	<rect x="144" y="384" style="fill:#403E3E;" width="80" height="16"/>
</g>
<g>
</g>
<g>
</g>
<g>
</g>
<g>
</g>
<g>
</g>
<g>
</g>
<g>
</g>
<g>
</g>
<g>
</g>
<g>
</g>
<g>
</g>
<g>
</g>
<g>
</g>
<g>
</g>
<g>
</g>
</svg>
