<?xml version="1.0" encoding="iso-8859-1"?>
<!-- Generator: Adobe Illustrator 19.0.0, SVG Export Plug-In . SVG Version: 6.00 Build 0)  -->
<svg version="1.1" id="Layer_1" xmlns="http://www.w3.org/2000/svg" xmlns:xlink="http://www.w3.org/1999/xlink" x="0px" y="0px"
	 viewBox="0 0 512 512" style="enable-background:new 0 0 512 512;" xml:space="preserve">
<rect x="45.722" y="152.397" style="fill:#ffd801;" width="420.582" height="65.828"/>
<g>
	<path style="fill:#242D3C;" d="M445.676,405.309H66.294c-7.98,0-15.442-3.075-21.012-8.653c-5.537-5.565-8.707-13.24-8.707-21.066
		l0.008-239.14c0-7.926,3.085-15.396,8.686-21.036c5.645-5.622,13.089-8.701,21.005-8.724h379.407c7.926,0,15.365,3.082,21,8.676
		c5.658,5.686,8.753,13.158,8.753,21.087l-0.031,239.142c0.046,7.818-3.139,15.521-8.732,21.071
		C461.174,402.222,453.693,405.309,445.676,405.309z M445.727,124.974H66.294c-3.039,0.01-5.921,1.203-8.09,3.359
		c-2.14,2.156-3.341,5.053-3.341,8.118l-0.005,239.14c0,3.034,1.229,6.003,3.372,8.159c2.107,2.109,4.974,3.277,8.064,3.277h379.382
		c3.1,0,5.957-1.165,8.051-3.282c2.191-2.171,3.402-5.102,3.384-8.1l0.033-239.194c0-3.057-1.203-5.949-3.389-8.146
		C451.602,126.172,448.742,124.974,445.727,124.974z"/>
	<rect x="259.661" y="275.2" style="fill:#242D3C;" width="170.086" height="18.286"/>
	<rect x="259.661" y="311.782" style="fill:#242D3C;" width="94.182" height="18.286"/>
	<path style="fill:#242D3C;" d="M187.149,347.684c-11.172,0-21.75-4.127-29.896-11.384c-8.154,7.258-18.755,11.384-29.947,11.384
		c-24.824,0-45.02-20.214-45.02-45.059c0-24.842,20.196-45.056,45.02-45.056c11.197,0,21.793,4.127,29.947,11.384
		c8.143-7.258,18.724-11.384,29.896-11.384c24.858,0,45.079,20.214,45.079,45.056C232.228,327.473,212.006,347.684,187.149,347.684z
		 M157.258,313.318L157.258,313.318c3.064,0,5.921,1.533,7.619,4.086c4.987,7.514,13.315,11.999,22.275,11.999
		c14.774,0,26.793-12.006,26.793-26.772c0-14.761-12.017-26.77-26.793-26.77c-8.963,0-17.288,4.485-22.275,12.001
		c-1.692,2.55-4.554,4.086-7.619,4.086c-3.064,0-5.921-1.533-7.619-4.086c-4.984-7.516-13.335-12.001-22.331-12.001
		c-14.743,0-26.737,12.009-26.737,26.77c0,14.766,11.994,26.772,26.737,26.772c8.993,0,17.341-4.485,22.336-12.001
		C151.337,314.849,154.196,313.318,157.258,313.318z"/>
	<polygon style="fill:#242D3C;" points="18.286,115.832 0,115.832 0,70.118 45.714,70.118 45.714,88.404 18.286,88.404 	"/>
	<polygon style="fill:#242D3C;" points="45.714,441.882 0,441.882 0,396.168 18.286,396.168 18.286,423.598 45.714,423.598 	"/>
	<polygon style="fill:#242D3C;" points="512,115.832 493.714,115.832 493.714,88.404 466.286,88.404 466.286,70.118 512,70.118 	"/>
	<polygon style="fill:#242D3C;" points="512,441.882 466.286,441.882 466.286,423.598 493.714,423.598 493.714,396.168 512,396.168 
			"/>
</g>
<g>
</g>
<g>
</g>
<g>
</g>
<g>
</g>
<g>
</g>
<g>
</g>
<g>
</g>
<g>
</g>
<g>
</g>
<g>
</g>
<g>
</g>
<g>
</g>
<g>
</g>
<g>
</g>
<g>
</g>
</svg>
