<?xml version="1.0" encoding="iso-8859-1"?>
<!-- Generator: Adobe Illustrator 19.0.0, SVG Export Plug-In . SVG Version: 6.00 Build 0)  -->
<svg version="1.1" id="Layer_1" xmlns="http://www.w3.org/2000/svg" xmlns:xlink="http://www.w3.org/1999/xlink" x="0px" y="0px"
	 viewBox="0 0 512 512" style="enable-background:new 0 0 512 512;" xml:space="preserve">
<polygon style="fill:#005792;" points="442.185,9.308 442.185,158.254 381.674,158.254 381.674,232.727 321.164,232.727 
	321.164,121.019 260.655,121.019 260.655,83.781 200.147,83.781 200.147,269.962 139.636,269.962 139.636,158.254 79.128,158.254 
	79.128,195.492 18.62,195.492 18.62,355.607 502.691,355.607 502.691,9.308 "/>
<polygon style="fill:#ffd801;" points="442.185,512 442.185,449.441 381.674,449.441 381.674,410.721 321.164,410.721 
	321.164,461.358 260.655,461.358 260.655,484.447 200.147,484.447 200.147,387.633 139.636,387.633 139.636,453.164 79.128,453.164 
	79.128,426.358 18.62,426.358 18.62,355.607 502.691,355.607 502.691,512 "/>
<g>
	<polygon style="fill:#242D3C;" points="209.455,279.273 130.328,279.273 130.328,167.565 88.436,167.565 88.436,204.8 18.62,204.8 
		18.62,186.181 69.82,186.181 69.82,148.946 148.947,148.946 148.947,260.654 190.836,260.654 190.836,74.473 269.964,74.473 
		269.964,111.708 330.474,111.708 330.474,223.419 372.363,223.419 372.363,148.946 432.874,148.946 432.874,0 502.691,0 
		502.691,18.619 451.491,18.619 451.491,167.565 390.985,167.565 390.985,242.035 311.855,242.035 311.855,130.327 251.347,130.327 
		251.347,93.092 209.455,93.092 	"/>
	<rect x="18.62" y="346.291" style="fill:#242D3C;" width="484.07" height="18.619"/>
	<rect x="9.309" style="fill:#242D3C;" width="18.619" height="512"/>
</g>
<g>
</g>
<g>
</g>
<g>
</g>
<g>
</g>
<g>
</g>
<g>
</g>
<g>
</g>
<g>
</g>
<g>
</g>
<g>
</g>
<g>
</g>
<g>
</g>
<g>
</g>
<g>
</g>
<g>
</g>
</svg>
