<?xml version="1.0" encoding="iso-8859-1"?>
<!-- Generator: Adobe Illustrator 19.0.0, SVG Export Plug-In . SVG Version: 6.00 Build 0)  -->
<svg version="1.1" id="Capa_1" xmlns="http://www.w3.org/2000/svg" xmlns:xlink="http://www.w3.org/1999/xlink" x="0px" y="0px"
	 viewBox="0 0 512 512" style="enable-background:new 0 0 512 512;" xml:space="preserve">
<g>
	<polygon style="fill:#403E3E;" points="168,64 152,64 152,51.312 136,35.312 136,0 152,0 152,28.688 168,44.688 	"/>
	<polygon style="fill:#403E3E;" points="200,64 184,64 184,43.312 168,27.312 168,0 184,0 184,20.688 200,36.688 	"/>
	<polygon style="fill:#403E3E;" points="232,64 216,64 216,35.312 200,19.312 200,0 216,0 216,12.688 232,28.688 	"/>
	<polygon style="fill:#403E3E;" points="360,64 344,64 344,44.688 360,28.688 360,0 376,0 376,35.312 360,51.312 	"/>
	<polygon style="fill:#403E3E;" points="328,64 312,64 312,36.688 328,20.688 328,0 344,0 344,27.312 328,43.312 	"/>
	<polygon style="fill:#403E3E;" points="296,64 280,64 280,28.688 296,12.688 296,0 312,0 312,19.312 296,35.312 	"/>
	<rect x="248" style="fill:#403E3E;" width="16" height="64"/>
	<polygon style="fill:#403E3E;" points="376,512 360,512 360,483.312 344,467.312 344,448 360,448 360,460.688 376,476.688 	"/>
	<polygon style="fill:#403E3E;" points="344,512 328,512 328,491.312 312,475.312 312,448 328,448 328,468.688 344,484.688 	"/>
	<polygon style="fill:#403E3E;" points="312,512 296,512 296,499.312 280,483.312 280,448 296,448 296,476.688 312,492.688 	"/>
	<polygon style="fill:#403E3E;" points="152,512 136,512 136,476.688 152,460.688 152,448 168,448 168,467.312 152,483.312 	"/>
	<polygon style="fill:#403E3E;" points="184,512 168,512 168,484.688 184,468.688 184,448 200,448 200,475.312 184,491.312 	"/>
	<polygon style="fill:#403E3E;" points="216,512 200,512 200,492.688 216,476.688 216,448 232,448 232,483.312 216,499.312 	"/>
	<rect x="248" y="448" style="fill:#403E3E;" width="16" height="64"/>
	<polygon style="fill:#403E3E;" points="35.312,376 0,376 0,360 28.688,360 44.688,344 64,344 64,360 51.312,360 	"/>
	<polygon style="fill:#403E3E;" points="27.312,344 0,344 0,328 20.688,328 36.688,312 64,312 64,328 43.312,328 	"/>
	<polygon style="fill:#403E3E;" points="19.312,312 0,312 0,296 12.688,296 28.688,280 64,280 64,296 35.312,296 	"/>
	<polygon style="fill:#403E3E;" points="64,168 44.688,168 28.688,152 0,152 0,136 35.312,136 51.312,152 64,152 	"/>
	<polygon style="fill:#403E3E;" points="64,200 36.688,200 20.688,184 0,184 0,168 27.312,168 43.312,184 64,184 	"/>
	<polygon style="fill:#403E3E;" points="64,232 28.688,232 12.688,216 0,216 0,200 19.312,200 35.312,216 64,216 	"/>
	<rect y="248" style="fill:#403E3E;" width="64" height="16"/>
	<polygon style="fill:#403E3E;" points="467.312,168 448,168 448,152 460.688,152 476.688,136 512,136 512,152 483.312,152 	"/>
	<polygon style="fill:#403E3E;" points="475.312,200 448,200 448,184 468.688,184 484.688,168 512,168 512,184 491.312,184 	"/>
	<polygon style="fill:#403E3E;" points="483.312,232 448,232 448,216 476.688,216 492.688,200 512,200 512,216 499.312,216 	"/>
	<polygon style="fill:#403E3E;" points="512,376 476.688,376 460.688,360 448,360 448,344 467.312,344 483.312,360 512,360 	"/>
	<polygon style="fill:#403E3E;" points="512,344 484.688,344 468.688,328 448,328 448,312 475.312,312 491.312,328 512,328 	"/>
	<polygon style="fill:#403E3E;" points="512,312 492.688,312 476.688,296 448,296 448,280 483.312,280 499.312,296 512,296 	"/>
	<rect x="448" y="248" style="fill:#403E3E;" width="64" height="16"/>
</g>
<g>
	<rect x="184" y="184" style="fill:#005792;" width="16" height="16"/>
	<rect x="216" y="184" style="fill:#005792;" width="16" height="16"/>
	<rect x="248" y="184" style="fill:#005792;" width="16" height="16"/>
	<rect x="280" y="184" style="fill:#005792;" width="16" height="16"/>
	<rect x="312" y="184" style="fill:#005792;" width="16" height="16"/>
	<rect x="184" y="216" style="fill:#005792;" width="16" height="16"/>
	<rect x="216" y="216" style="fill:#005792;" width="16" height="16"/>
	<rect x="248" y="216" style="fill:#005792;" width="16" height="16"/>
	<rect x="280" y="216" style="fill:#005792;" width="16" height="16"/>
	<rect x="312" y="216" style="fill:#005792;" width="16" height="16"/>
	<rect x="184" y="248" style="fill:#005792;" width="16" height="16"/>
	<rect x="216" y="248" style="fill:#005792;" width="16" height="16"/>
	<rect x="248" y="248" style="fill:#005792;" width="16" height="16"/>
	<rect x="280" y="248" style="fill:#005792;" width="16" height="16"/>
	<rect x="312" y="248" style="fill:#005792;" width="16" height="16"/>
	<rect x="184" y="280" style="fill:#005792;" width="16" height="16"/>
	<rect x="216" y="280" style="fill:#005792;" width="16" height="16"/>
	<rect x="248" y="280" style="fill:#005792;" width="16" height="16"/>
	<rect x="280" y="280" style="fill:#005792;" width="16" height="16"/>
	<rect x="312" y="280" style="fill:#005792;" width="16" height="16"/>
	<rect x="184" y="312" style="fill:#005792;" width="16" height="16"/>
	<rect x="216" y="312" style="fill:#005792;" width="16" height="16"/>
	<rect x="248" y="312" style="fill:#005792;" width="16" height="16"/>
	<rect x="280" y="312" style="fill:#005792;" width="16" height="16"/>
	<rect x="312" y="312" style="fill:#005792;" width="16" height="16"/>
</g>
<g>
	<path style="fill:#403E3E;" d="M408,432H104c-13.232,0-24-10.768-24-24V104c0-13.232,10.768-24,24-24h304c13.232,0,24,10.768,24,24
		v304C432,421.232,421.232,432,408,432z M104,96c-4.408,0-8,3.592-8,8v304c0,4.416,3.592,8,8,8h304c4.416,0,8-3.584,8-8V104
		c0-4.408-3.584-8-8-8H104z"/>
	<rect x="368" y="368" style="fill:#403E3E;" width="16" height="16"/>
</g>
<path style="fill:#005792;" d="M352,384H128V128h256v224h-8c-13.232,0-24,10.768-24,24V384z M144,368h192.808
	c3.184-15.648,15.544-28.008,31.192-31.192V144H144V368z"/>
<g>
	<polygon style="fill:#ffd801;" points="464,96 448,96 448,64 416,64 416,48 464,48 	"/>
	<polygon style="fill:#ffd801;" points="64,96 48,96 48,48 96,48 96,64 64,64 	"/>
	<polygon style="fill:#ffd801;" points="96,464 48,464 48,416 64,416 64,448 96,448 	"/>
	<polygon style="fill:#ffd801;" points="464,464 416,464 416,448 448,448 448,416 464,416 	"/>
</g>
<g>
</g>
<g>
</g>
<g>
</g>
<g>
</g>
<g>
</g>
<g>
</g>
<g>
</g>
<g>
</g>
<g>
</g>
<g>
</g>
<g>
</g>
<g>
</g>
<g>
</g>
<g>
</g>
<g>
</g>
</svg>
