<?xml version="1.0" encoding="iso-8859-1"?>
<!-- Generator: Adobe Illustrator 19.0.0, SVG Export Plug-In . SVG Version: 6.00 Build 0)  -->
<svg version="1.1" id="Layer_1" xmlns="http://www.w3.org/2000/svg" xmlns:xlink="http://www.w3.org/1999/xlink" x="0px" y="0px"
	 viewBox="0 0 512.008 512.008" style="enable-background:new 0 0 512.008 512.008;" xml:space="preserve">
<g>
	<rect x="284.979" y="53.137" style="fill:#ffd801;" width="19.323" height="19.32"/>
	<rect x="284.979" y="91.777" style="fill:#ffd801;" width="19.323" height="19.32"/>
	<rect x="284.979" y="130.418" style="fill:#ffd801;" width="19.323" height="19.32"/>
</g>
<g>
	<rect x="323.635" y="53.137" style="fill:#242D3C;" width="154.573" height="19.32"/>
	<rect x="323.635" y="91.777" style="fill:#242D3C;" width="154.573" height="19.32"/>
	<rect x="323.635" y="130.418" style="fill:#242D3C;" width="154.573" height="19.32"/>
</g>
<g>
	<rect x="43.471" y="362.269" style="fill:#005792;" width="19.32" height="19.32"/>
	<rect x="43.471" y="400.9" style="fill:#005792;" width="19.32" height="19.323"/>
	<rect x="43.471" y="439.556" style="fill:#005792;" width="19.32" height="19.32"/>
</g>
<g>
	<rect x="82.125" y="362.269" style="fill:#242D3C;" width="154.573" height="19.32"/>
	<rect x="82.125" y="400.9" style="fill:#242D3C;" width="154.573" height="19.323"/>
	<rect x="82.125" y="439.556" style="fill:#242D3C;" width="154.573" height="19.32"/>
</g>
<path style="fill:#005792;" d="M140.076,14.493c-83.405,0-89.475,210.232-120.753,241.51h241.508
	C229.55,224.726,223.478,14.493,140.076,14.493z"/>
<path style="fill:#ffd801;" d="M260.831,256.004c31.281,31.281,37.356,241.51,120.755,241.51s89.475-210.23,120.755-241.51H260.831z
	"/>
<g>
	<rect x="9.659" y="246.353" style="fill:#242D3C;" width="502.349" height="19.32"/>
	<rect y="14.493" style="fill:#242D3C;" width="19.32" height="483.021"/>
</g>
<g>
	<rect x="130.414" y="53.137" style="fill:#FFFFFF;" width="19.32" height="19.32"/>
	<rect x="130.414" y="91.777" style="fill:#FFFFFF;" width="19.32" height="19.32"/>
	<rect x="130.414" y="130.418" style="fill:#FFFFFF;" width="19.32" height="19.32"/>
	<rect x="371.917" y="362.269" style="fill:#FFFFFF;" width="19.32" height="19.32"/>
	<rect x="371.917" y="400.9" style="fill:#FFFFFF;" width="19.32" height="19.323"/>
	<rect x="371.917" y="439.556" style="fill:#FFFFFF;" width="19.32" height="19.32"/>
</g>
<g>
	<path style="fill:#242D3C;" d="M253.064,261.746c-30.39-41.078-70.515-63.7-112.993-63.7c-42.47,0-82.601,22.623-112.986,63.7
		l-15.532-11.487c34.12-46.129,79.762-71.534,128.517-71.534c48.758,0,94.4,25.403,128.525,71.534L253.064,261.746z"/>
	<path style="fill:#242D3C;" d="M381.586,333.285c-0.005,0,0,0-0.005,0c-48.753,0-94.395-25.403-128.517-71.539l15.532-11.487
		c30.39,41.078,70.515,63.706,112.986,63.706c42.478,0,82.606-22.623,112.993-63.706l15.532,11.487
		C475.986,307.88,430.336,333.285,381.586,333.285z"/>
</g>
<g>
</g>
<g>
</g>
<g>
</g>
<g>
</g>
<g>
</g>
<g>
</g>
<g>
</g>
<g>
</g>
<g>
</g>
<g>
</g>
<g>
</g>
<g>
</g>
<g>
</g>
<g>
</g>
<g>
</g>
</svg>
