<?xml version="1.0" encoding="iso-8859-1"?>
<!-- Generator: Adobe Illustrator 19.0.0, SVG Export Plug-In . SVG Version: 6.00 Build 0)  -->
<svg version="1.1" id="Layer_1" xmlns="http://www.w3.org/2000/svg" xmlns:xlink="http://www.w3.org/1999/xlink" x="0px" y="0px"
	 viewBox="0 0 512 512" style="enable-background:new 0 0 512 512;" xml:space="preserve">
<path style="fill:#242D3C;" d="M256,512C114.839,512,0,397.161,0,256S114.839,0,256,0s256,114.839,256,256S397.161,512,256,512z
	 M256,20.48C126.136,20.48,20.48,126.134,20.48,256S126.136,491.52,256,491.52c129.866,0,235.52-105.654,235.52-235.52
	S385.866,20.48,256,20.48z"/>
<path style="fill:#005792;" d="M440.32,256c0,101.788-82.552,184.32-184.32,184.32c-101.783,0-184.32-82.532-184.32-184.32
	c0-101.793,82.537-184.32,184.32-184.32C357.768,71.68,440.32,154.207,440.32,256z"/>
<g>
	<path style="fill:#FFFFFF;" d="M269.655,348.16H242.34c-13.663,0-26.516-5.325-36.196-14.991
		c-9.677-9.674-15.004-22.536-15.004-36.214v-81.907c0-13.681,5.327-26.54,15.004-36.214c9.677-9.669,22.528-14.994,36.196-14.994
		h27.315c13.665,0,26.516,5.32,36.198,14.986c9.682,9.684,15.012,22.548,15.012,36.219h-20.48c0-8.205-3.2-15.921-9.011-21.734
		c-5.806-5.793-13.522-8.991-21.719-8.991H242.34c-8.197,0-15.913,3.197-21.716,9.001c-5.809,5.801-9.004,13.519-9.004,21.727
		v81.905c0,8.207,3.197,15.928,9.004,21.727c5.809,5.806,13.519,9.001,21.716,9.001h27.315c8.197,0,15.913-3.2,21.724-9.001
		c5.806-5.809,9.006-13.524,9.006-21.727h20.48c0,13.673-5.33,26.534-15.009,36.214C296.166,342.835,283.315,348.16,269.655,348.16z
		"/>
	<rect x="168.632" y="221.184" style="fill:#FFFFFF;" width="98.304" height="20.48"/>
	<rect x="168.632" y="270.336" style="fill:#FFFFFF;" width="98.304" height="20.48"/>
</g>
<g>
</g>
<g>
</g>
<g>
</g>
<g>
</g>
<g>
</g>
<g>
</g>
<g>
</g>
<g>
</g>
<g>
</g>
<g>
</g>
<g>
</g>
<g>
</g>
<g>
</g>
<g>
</g>
<g>
</g>
</svg>
