<?xml version="1.0" encoding="iso-8859-1"?>
<!-- Generator: Adobe Illustrator 19.0.0, SVG Export Plug-In . SVG Version: 6.00 Build 0)  -->
<svg version="1.1" id="Layer_1" xmlns="http://www.w3.org/2000/svg" xmlns:xlink="http://www.w3.org/1999/xlink" x="0px" y="0px"
	 viewBox="0 0 512 512" style="enable-background:new 0 0 512 512;" xml:space="preserve">
<path style="fill:#005792;" d="M239.35,238.7V33.3c-126.459,0-228.943,102.484-228.943,228.943
	c0,57.219,21.046,109.501,55.757,149.64L239.35,238.7z"/>
<path style="fill:#ffd801;" d="M262.894,262.244L89.708,435.428c40.133,34.708,92.411,55.757,149.642,55.757
	c126.459,0,228.943-102.525,228.943-228.943H262.894V262.244z"/>
<g>
	<rect x="176.922" y="218.547" style="fill:#242D3C;" width="20.813" height="20.813"/>
	<rect x="135.286" y="218.547" style="fill:#242D3C;" width="20.813" height="20.813"/>
	<rect x="93.658" y="218.547" style="fill:#242D3C;" width="20.813" height="20.813"/>
	<path style="fill:#242D3C;" d="M309.082,153.672L413.914,48.837c-5.53-4.342-11.256-8.43-17.175-12.257L289.864,143.455
		C296.589,146.317,302.999,149.757,309.082,153.672z"/>
	<path style="fill:#242D3C;" d="M272.65,0v29.432l27.702-27.704C291.267,0.63,282.033,0,272.65,0z"/>
	<path style="fill:#242D3C;" d="M358.131,211.735l106.883-106.883c-3.825-5.919-7.915-11.645-12.257-17.175L347.919,192.515
		C351.831,198.597,355.267,205.012,358.131,211.735z"/>
	<path style="fill:#242D3C;" d="M321.039,5.171L272.65,53.56v29.432l71.532-71.537C336.63,8.975,328.914,6.861,321.039,5.171z"/>
	<path style="fill:#242D3C;" d="M337.649,178.662L441.728,74.58c-4.682-5.123-9.592-10.033-14.715-14.715L322.931,163.948
		C328.22,168.451,333.143,173.373,337.649,178.662z"/>
	<path style="fill:#242D3C;" d="M499.866,201.239l-27.702,27.702h29.43C501.594,219.561,500.961,210.324,499.866,201.239z"/>
	<path style="fill:#242D3C;" d="M490.138,157.409l-71.532,71.532h29.432l48.389-48.389
		C494.733,172.68,492.618,164.964,490.138,157.409z"/>
	<path style="fill:#242D3C;" d="M474.04,119.951L365.051,228.943h29.43l89.121-89.121
		C480.727,133.025,477.532,126.395,474.04,119.951z"/>
	<path style="fill:#242D3C;" d="M361.777,17.992l-89.126,89.121v29.432L381.642,27.553
		C375.201,24.061,368.573,20.867,361.777,17.992z"/>
	<rect x="387.789" y="491.187" style="fill:#242D3C;" width="80.504" height="20.813"/>
	<polygon style="fill:#242D3C;" points="468.293,471.675 383.48,471.675 323.505,411.699 338.227,396.984 392.097,450.862 
		468.293,450.862 	"/>
	<rect x="10.406" y="12.488" style="fill:#242D3C;" width="80.504" height="20.813"/>
	<polygon style="fill:#242D3C;" points="140.472,127.503 86.602,73.626 10.406,73.626 10.406,52.813 95.219,52.813 155.195,112.788 
			"/>
</g>
<g>
</g>
<g>
</g>
<g>
</g>
<g>
</g>
<g>
</g>
<g>
</g>
<g>
</g>
<g>
</g>
<g>
</g>
<g>
</g>
<g>
</g>
<g>
</g>
<g>
</g>
<g>
</g>
<g>
</g>
</svg>
