<?xml version="1.0" encoding="iso-8859-1"?>
<!-- Generator: Adobe Illustrator 19.0.0, SVG Export Plug-In . SVG Version: 6.00 Build 0)  -->
<svg xmlns="http://www.w3.org/2000/svg" xmlns:xlink="http://www.w3.org/1999/xlink" version="1.1" id="Layer_1" x="0px" y="0px" viewBox="0 0 504 504" style="enable-background:new 0 0 504 504;" xml:space="preserve">
<g>
	<path style="fill:#2B2B2B;" d="M40,436c-10.4,0-20.8-4-28-12c-8-7.2-12-17.6-12-28V84h40v16H16v296c0,6.4,2.4,12.8,7.2,16.8   c4,4.8,10.4,7.2,16.8,7.2V436z"/>
	<rect x="272" y="84" style="fill:#2B2B2B;" width="232" height="16"/>
</g>
<path style="fill:#ffd801;" d="M264,116l-64-48H72v320c0,8-3.2,16-9.6,22.4S48,420,40,420v16h432c8,0,16-3.2,22.4-9.6  S504,412,504,404V116H264z"/>
<g>
	<rect x="104" y="116" style="fill:#FFFFFF;" width="104" height="16"/>
	<rect x="104" y="148" style="fill:#FFFFFF;" width="56" height="16"/>
	<polygon style="fill:#FFFFFF;" points="328,292 328,164 248,164 248,292 192,292 288,388 384,292  "/>
</g>
<g>
	<rect x="280" y="180" style="fill:#2B2B2B;" width="16" height="16"/>
	<rect x="280" y="212" style="fill:#2B2B2B;" width="16" height="16"/>
	<rect x="280" y="244" style="fill:#2B2B2B;" width="16" height="16"/>
</g>
<g>
</g>
<g>
</g>
<g>
</g>
<g>
</g>
<g>
</g>
<g>
</g>
<g>
</g>
<g>
</g>
<g>
</g>
<g>
</g>
<g>
</g>
<g>
</g>
<g>
</g>
<g>
</g>
<g>
</g>
</svg>
