<?xml version="1.0" encoding="iso-8859-1"?>
<!-- Generator: Adobe Illustrator 19.0.0, SVG Export Plug-In . SVG Version: 6.00 Build 0)  -->
<svg xmlns="http://www.w3.org/2000/svg" xmlns:xlink="http://www.w3.org/1999/xlink" version="1.1" id="Layer_1" x="0px" y="0px" viewBox="0 0 512 512" style="enable-background:new 0 0 512 512;" xml:space="preserve">
<path style="fill:#ffd801;" d="M328,328c0-8,3.2-16,9.6-22.4S352,296,360,296h80c8,0,16,3.2,22.4,9.6S472,320,472,328v112H328V328z"/>
<rect x="352" y="440" style="fill:#E3E3E3;" width="96" height="72"/>
<g>
	<rect x="408" y="472" style="fill:#2B2B2B;" width="16" height="16"/>
	<rect x="376" y="472" style="fill:#2B2B2B;" width="16" height="16"/>
</g>
<g>
	<rect x="360" y="368" style="fill:#FFFFFF;" width="80" height="16"/>
	<rect x="360" y="400" style="fill:#FFFFFF;" width="80" height="16"/>
</g>
<path style="fill:#2B2B2B;" d="M432,296h-16v-16h-32v16h-16v-16c0-4,1.6-8,4.8-11.2c3.2-3.2,7.2-4.8,11.2-4.8h32c4,0,8,1.6,11.2,4.8  c3.2,3.2,4.8,7.2,4.8,11.2V296z"/>
<path style="fill:#ffd801;" d="M184,184c0,8-3.2,16-9.6,22.4C168,212.8,160,216,152,216H72c-8,0-16-3.2-22.4-9.6  C43.2,200,40,192,40,184V72h144V184z"/>
<rect x="64" style="fill:#E3E3E3;" width="96" height="72"/>
<g>
	<rect x="88" y="24" style="fill:#2B2B2B;" width="16" height="16"/>
	<rect x="120" y="24" style="fill:#2B2B2B;" width="16" height="16"/>
</g>
<g>
	<rect x="72" y="128" style="fill:#FFFFFF;" width="80" height="16"/>
	<rect x="72" y="96" style="fill:#FFFFFF;" width="80" height="16"/>
</g>
<g>
	<path style="fill:#2B2B2B;" d="M128,248H96c-4,0-8-1.6-11.2-4.8C81.6,240,80,236,80,232v-16h16v16h32v-16h16v16c0,4-1.6,8-4.8,11.2   S132,248,128,248z"/>
	<path style="fill:#2B2B2B;" d="M184,480c-21.6,0-41.6-8-56.8-23.2S104,421.6,104,400V240h16v160c0,16.8,6.4,32.8,18.4,45.6   c12,12,28,18.4,45.6,18.4s32.8-6.4,45.6-18.4c12-12,18.4-28,18.4-45.6V112c0-21.6,8-41.6,23.2-56.8C286.4,40,306.4,32,328,32   s41.6,8,56.8,23.2C400,70.4,408,90.4,408,112v160h-16V112c0-16.8-6.4-32.8-18.4-45.6C360.8,54.4,344.8,48,328,48   s-32.8,6.4-45.6,18.4C270.4,79.2,264,95.2,264,112v288c0,21.6-8,41.6-23.2,56.8S205.6,480,184,480z"/>
	<rect x="320" y="104" style="fill:#2B2B2B;" width="16" height="16"/>
	<rect x="320" y="136" style="fill:#2B2B2B;" width="16" height="16"/>
	<rect x="320" y="168" style="fill:#2B2B2B;" width="16" height="16"/>
	<rect x="176" y="328" style="fill:#2B2B2B;" width="16" height="16"/>
	<rect x="176" y="360" style="fill:#2B2B2B;" width="16" height="16"/>
	<rect x="176" y="392" style="fill:#2B2B2B;" width="16" height="16"/>
	<path style="fill:#2B2B2B;" d="M376,112h-16c0-17.6-14.4-32-32-32s-32,14.4-32,32h-16c0-26.4,21.6-48,48-48S376,85.6,376,112z"/>
	<path style="fill:#2B2B2B;" d="M184,448c-26.4,0-48-21.6-48-48h16c0,17.6,14.4,32,32,32s32-14.4,32-32h16   C232,426.4,210.4,448,184,448z"/>
</g>
<g>
</g>
<g>
</g>
<g>
</g>
<g>
</g>
<g>
</g>
<g>
</g>
<g>
</g>
<g>
</g>
<g>
</g>
<g>
</g>
<g>
</g>
<g>
</g>
<g>
</g>
<g>
</g>
<g>
</g>
</svg>
