<?xml version="1.0" encoding="iso-8859-1"?>
<!-- Generator: Adobe Illustrator 19.0.0, SVG Export Plug-In . SVG Version: 6.00 Build 0)  -->
<svg version="1.1" id="Layer_1" xmlns="http://www.w3.org/2000/svg" xmlns:xlink="http://www.w3.org/1999/xlink" x="0px" y="0px"
	 viewBox="0 0 512 512" style="enable-background:new 0 0 512 512;" xml:space="preserve">
<g>
	<path style="fill:#2B2B2B;" d="M74.4,181.6C56.8,164,48,140.8,48,112s8.8-52,26.4-69.6l11.2,11.2C71.2,68,64,87.2,64,112
		s7.2,44,21.6,58.4L74.4,181.6z"/>
	<path style="fill:#2B2B2B;" d="M98.4,157.6c-12-12-18.4-27.2-18.4-45.6s6.4-33.6,18.4-45.6l11.2,11.2C100,87.2,96,97.6,96,112
		s4,24.8,13.6,34.4L98.4,157.6z"/>
	<path style="fill:#2B2B2B;" d="M122.4,133.6c-4.8-4.8-10.4-10.4-10.4-21.6c0-11.2,5.6-16.8,10.4-21.6l11.2,11.2l0,0
		c-4,4-5.6,5.6-5.6,10.4c0,4.8,1.6,6.4,5.6,10.4L122.4,133.6z"/>
	<path style="fill:#2B2B2B;" d="M437.6,181.6l-11.2-11.2C440.8,156,448,136.8,448,112c0-24.8-7.2-44-21.6-58.4l11.2-11.2
		C455.2,60,464,83.2,464,112C464,140.8,455.2,164,437.6,181.6z"/>
	<path style="fill:#2B2B2B;" d="M413.6,157.6l-11.2-11.2c9.6-9.6,13.6-20,13.6-34.4s-4-24.8-13.6-34.4l11.2-11.2
		c12,12,18.4,27.2,18.4,45.6C432,130.4,425.6,145.6,413.6,157.6z"/>
	<path style="fill:#2B2B2B;" d="M389.6,133.6l-11.2-11.2c4-4,5.6-5.6,5.6-10.4c0-4.8-1.6-6.4-5.6-10.4l11.2-11.2L384,96l5.6-5.6
		c4.8,4.8,10.4,10.4,10.4,21.6C400,123.2,394.4,128.8,389.6,133.6z"/>
</g>
<polygon style="fill:#E3E3E3;" points="168,272 80,312 0,512 136,448 "/>
<g>
	<polygon style="fill:#CACACA;" points="256,512 136,448 168,272 256,312 	"/>
	<polygon style="fill:#CACACA;" points="344,272 432,312 512,512 376,448 	"/>
</g>
<polygon style="fill:#E3E3E3;" points="256,512 376,448 344,272 256,312 "/>
<path style="fill:#ffd801;" d="M359.2,156c5.6-13.6,8.8-28,8.8-44C368,50.4,317.6,0,256,0S144,50.4,144,112c0,15.2,3.2,30.4,8.8,44
	C256,400,256,400,256,400S256,400,359.2,156z"/>
<circle style="fill:#FFFFFF;" cx="256" cy="112" r="72"/>
<g>
	<path style="fill:#2B2B2B;" d="M256,192c-44,0-80-36-80-80h16c0,35.2,28.8,64,64,64s64-28.8,64-64h16C336,156,300,192,256,192z"/>
	<rect x="248" y="104" style="fill:#2B2B2B;" width="16" height="16"/>
</g>
<g>
	<rect x="248" y="208" style="fill:#FFFFFF;" width="16" height="16"/>
	<rect x="248" y="240" style="fill:#FFFFFF;" width="16" height="16"/>
	<rect x="248" y="272" style="fill:#FFFFFF;" width="16" height="16"/>
</g>
<path style="fill:#E35B17;" d="M256,312v88c0,0,0,0,45.6-108.8L256,312z"/>
<path style="fill:#CA5115;" d="M210.4,291.2C256,400,256,400,256,400v-88L210.4,291.2z"/>
<g>
</g>
<g>
</g>
<g>
</g>
<g>
</g>
<g>
</g>
<g>
</g>
<g>
</g>
<g>
</g>
<g>
</g>
<g>
</g>
<g>
</g>
<g>
</g>
<g>
</g>
<g>
</g>
<g>
</g>
</svg>
