<?xml version="1.0" encoding="iso-8859-1"?>
<!-- Generator: Adobe Illustrator 19.0.0, SVG Export Plug-In . SVG Version: 6.00 Build 0)  -->
<svg version="1.1" id="Layer_1" xmlns="http://www.w3.org/2000/svg" xmlns:xlink="http://www.w3.org/1999/xlink" x="0px" y="0px"
	 viewBox="0 0 512 512" style="enable-background:new 0 0 512 512;" xml:space="preserve">
<g>
	<path style="fill:#2B2B2B;" d="M256,448c-19.2,0-28-8.8-37.6-18.4l11.2-11.2c8.8,8.8,13.6,13.6,26.4,13.6s17.6-4.8,26.4-13.6
		l11.2,11.2C284,439.2,275.2,448,256,448z"/>
	<path style="fill:#2B2B2B;" d="M256,480c-24.8,0-43.2-8-61.6-26.4l11.2-11.2c15.2,15.2,29.6,21.6,50.4,21.6
		c20,0,35.2-6.4,50.4-21.6l11.2,11.2C299.2,472,280.8,480,256,480z"/>
	<path style="fill:#2B2B2B;" d="M256,512c-34.4,0-62.4-11.2-85.6-34.4l11.2-11.2c20,20,44,29.6,74.4,29.6s54.4-9.6,74.4-29.6
		l11.2,11.2C318.4,500.8,290.4,512,256,512z"/>
	<rect x="216" y="272" style="fill:#2B2B2B;" width="16" height="32"/>
	<rect x="280" y="272" style="fill:#2B2B2B;" width="16" height="32"/>
	<rect x="248" y="272" style="fill:#2B2B2B;" width="16" height="32"/>
	<path style="fill:#2B2B2B;" d="M256,416c-13.6,0-24-10.4-24-24h16c0,4.8,3.2,8,8,8s8-3.2,8-8h16C280,405.6,269.6,416,256,416z"/>
</g>
<rect x="8" y="32" style="fill:#005792;" width="144" height="272"/>
<g>
	<rect x="152" y="128" style="fill:#2B2B2B;" width="32" height="16"/>
	<rect x="152" y="192" style="fill:#2B2B2B;" width="32" height="16"/>
</g>
<g>
	<rect x="72" y="32" style="fill:#1CCACA;" width="16" height="272"/>
	<rect x="8" y="160" style="fill:#1CCACA;" width="144" height="16"/>
</g>
<g>
	<rect x="32" y="56" style="fill:#FFFFFF;" width="16" height="16"/>
	<rect x="32" y="120" style="fill:#FFFFFF;" width="16" height="16"/>
	<rect x="112" y="56" style="fill:#FFFFFF;" width="16" height="16"/>
	<rect x="112" y="120" style="fill:#FFFFFF;" width="16" height="16"/>
	<rect x="32" y="200" style="fill:#FFFFFF;" width="16" height="16"/>
	<rect x="32" y="264" style="fill:#FFFFFF;" width="16" height="16"/>
	<rect x="112" y="200" style="fill:#FFFFFF;" width="16" height="16"/>
	<rect x="112" y="264" style="fill:#FFFFFF;" width="16" height="16"/>
	<rect x="112" y="232" style="fill:#FFFFFF;" width="16" height="16"/>
	<rect x="112" y="88" style="fill:#FFFFFF;" width="16" height="16"/>
	<rect x="32" y="88" style="fill:#FFFFFF;" width="16" height="16"/>
	<rect x="32" y="232" style="fill:#FFFFFF;" width="16" height="16"/>
</g>
<rect x="360" y="32" style="fill:#005792;" width="144" height="272"/>
<g>
	<rect x="328" y="128" style="fill:#2B2B2B;" width="32" height="16"/>
	<rect x="328" y="192" style="fill:#2B2B2B;" width="32" height="16"/>
</g>
<g>
	<rect x="424" y="32" style="fill:#1CCACA;" width="16" height="272"/>
	<rect x="360" y="160" style="fill:#1CCACA;" width="144" height="16"/>
</g>
<g>
	<rect x="464" y="56" style="fill:#FFFFFF;" width="16" height="16"/>
	<rect x="464" y="120" style="fill:#FFFFFF;" width="16" height="16"/>
	<rect x="384" y="56" style="fill:#FFFFFF;" width="16" height="16"/>
	<rect x="384" y="120" style="fill:#FFFFFF;" width="16" height="16"/>
	<rect x="464" y="200" style="fill:#FFFFFF;" width="16" height="16"/>
	<rect x="464" y="264" style="fill:#FFFFFF;" width="16" height="16"/>
	<rect x="384" y="200" style="fill:#FFFFFF;" width="16" height="16"/>
	<rect x="384" y="264" style="fill:#FFFFFF;" width="16" height="16"/>
	<rect x="384" y="232" style="fill:#FFFFFF;" width="16" height="16"/>
	<rect x="384" y="88" style="fill:#FFFFFF;" width="16" height="16"/>
	<rect x="464" y="88" style="fill:#FFFFFF;" width="16" height="16"/>
	<rect x="464" y="232" style="fill:#FFFFFF;" width="16" height="16"/>
</g>
<rect x="184" y="32" style="fill:#E3E3E3;" width="144" height="192"/>
<g>
	<rect x="184" y="208" style="fill:#ffd801;" width="144" height="64"/>
	<rect x="216" style="fill:#ffd801;" width="80" height="32"/>
</g>
<rect x="184" y="208" style="fill:#E35B17;" width="144" height="16"/>
<g>
	<rect x="216" y="176" style="fill:#2B2B2B;" width="16" height="16"/>
	<rect x="216" y="144" style="fill:#2B2B2B;" width="16" height="16"/>
	<rect x="216" y="112" style="fill:#2B2B2B;" width="16" height="16"/>
	<rect x="216" y="80" style="fill:#2B2B2B;" width="16" height="16"/>
	<rect x="216" y="48" style="fill:#2B2B2B;" width="16" height="16"/>
</g>
<path style="fill:#E3E3E3;" d="M168,376v16h176v-16c0-48.8-39.2-88-88-88S168,327.2,168,376z"/>
<rect x="168" y="376" style="fill:#CACACA;" width="176" height="16"/>
<g>
</g>
<g>
</g>
<g>
</g>
<g>
</g>
<g>
</g>
<g>
</g>
<g>
</g>
<g>
</g>
<g>
</g>
<g>
</g>
<g>
</g>
<g>
</g>
<g>
</g>
<g>
</g>
<g>
</g>
</svg>
