<?xml version="1.0" encoding="iso-8859-1"?>
<!-- Generator: Adobe Illustrator 19.0.0, SVG Export Plug-In . SVG Version: 6.00 Build 0)  -->
<svg version="1.1" id="Layer_1" xmlns="http://www.w3.org/2000/svg" xmlns:xlink="http://www.w3.org/1999/xlink" x="0px" y="0px"
	 viewBox="0 0 512 512" style="enable-background:new 0 0 512 512;" xml:space="preserve">
<path style="fill:#ffd801;" d="M256,190.456c-36.193,0-65.536,29.343-65.536,65.536c0,36.201,29.343,65.536,65.536,65.536
	c36.201,0,65.536-29.335,65.536-65.536C321.536,219.799,292.201,190.456,256,190.456z M256,286.712
	c-16.96,0-30.72-13.752-30.72-30.72c0-16.96,13.76-30.72,30.72-30.72s30.72,13.76,30.72,30.72
	C286.72,272.96,272.96,286.712,256,286.712z"/>
<rect x="245.76" y="245.76" style="fill:#242D3C;" width="20.48" height="20.48"/>
<g>
	<path style="fill:#005792;" d="M460.8,256c0,113.088-91.704,204.8-204.8,204.8c-113.088,0-204.8-91.712-204.8-204.8
		c0-113.132,91.712-204.8,204.8-204.8V0C114.609,0,0,114.609,0,256s114.609,256,256,256s256-114.609,256-256H460.8z"/>
	<path style="fill:#005792;" d="M364.626,364.626C336.814,392.399,298.44,409.6,256,409.6c-84.823,0-153.6-68.772-153.6-153.6
		c0-42.432,17.208-80.817,44.977-108.623l-36.17-36.17C74.135,148.275,51.2,199.475,51.2,256c0,113.088,91.712,204.8,204.8,204.8
		c56.527,0,107.727-22.935,144.794-60.006L364.626,364.626z"/>
	<path style="fill:#005792;" d="M256,153.6v-51.2c-84.823,0-153.6,68.772-153.6,153.6S171.177,409.6,256,409.6v-51.2
		c-56.568,0-102.4-45.832-102.4-102.4S199.432,153.6,256,153.6z"/>
</g>
<g>
	<path style="fill:#242D3C;" d="M256,471.04c-118.572,0-215.04-96.468-215.04-215.04c0-57.413,22.377-111.409,63.007-152.033
		l14.479,14.479C81.684,155.208,61.44,204.055,61.44,256c0,107.279,87.281,194.56,194.56,194.56S450.56,363.279,450.56,256h20.48
		C471.04,374.572,374.572,471.04,256,471.04z"/>
	<path style="fill:#242D3C;" d="M256,419.84c-90.34,0-163.84-73.5-163.84-163.84S165.66,92.16,256,92.16v20.48
		c-79.048,0-143.36,64.312-143.36,143.36S176.952,399.36,256,399.36c38.275,0,74.286-14.907,101.386-41.979l14.472,14.487
		C340.892,402.806,299.745,419.84,256,419.84z"/>
	<rect x="276.48" y="117.76" style="fill:#242D3C;" width="20.48" height="20.48"/>
	<rect x="317.44" y="117.76" style="fill:#242D3C;" width="143.36" height="20.48"/>
	<rect x="276.48" y="66.56" style="fill:#242D3C;" width="20.48" height="20.48"/>
	<rect x="317.44" y="66.56" style="fill:#242D3C;" width="143.36" height="20.48"/>
	<rect x="276.48" y="15.36" style="fill:#242D3C;" width="20.48" height="20.48"/>
	<rect x="317.44" y="15.36" style="fill:#242D3C;" width="143.36" height="20.48"/>
</g>
<g>
</g>
<g>
</g>
<g>
</g>
<g>
</g>
<g>
</g>
<g>
</g>
<g>
</g>
<g>
</g>
<g>
</g>
<g>
</g>
<g>
</g>
<g>
</g>
<g>
</g>
<g>
</g>
<g>
</g>
</svg>
