<?xml version="1.0" encoding="iso-8859-1"?>
<!-- Generator: Adobe Illustrator 19.0.0, SVG Export Plug-In . SVG Version: 6.00 Build 0)  -->
<svg version="1.1" id="Layer_1" xmlns="http://www.w3.org/2000/svg" xmlns:xlink="http://www.w3.org/1999/xlink" x="0px" y="0px"
	 viewBox="0 0 512 512" style="enable-background:new 0 0 512 512;" xml:space="preserve">
<g>
	<rect x="18.962" y="70.029" style="fill:#242D3C;" width="18.964" height="157.568"/>
	<rect x="94.822" y="85.709" style="fill:#242D3C;" width="18.962" height="256.128"/>
	<rect x="170.675" y="125.399" style="fill:#242D3C;" width="18.964" height="196.019"/>
	<rect x="246.528" y="114.299" style="fill:#242D3C;" width="18.964" height="147.594"/>
	<rect x="322.381" y="0.945" style="fill:#242D3C;" width="18.962" height="286.208"/>
	<rect x="398.234" y="114.58" style="fill:#242D3C;" width="18.962" height="231.501"/>
	<rect x="474.086" y="125.399" style="fill:#242D3C;" width="18.962" height="143.693"/>
</g>
<g>
	<rect y="142.843" style="fill:#005792;" width="56.883" height="60.652"/>
	<rect x="75.85" y="106.107" style="fill:#005792;" width="56.883" height="159.386"/>
</g>
<g>
	<rect x="151.706" y="160.873" style="fill:#ffd801;" width="56.883" height="143.329"/>
	<rect x="227.558" y="182.523" style="fill:#ffd801;" width="56.883" height="50.511"/>
</g>
<rect x="303.411" y="18.97" style="fill:#005792;" width="56.883" height="187.008"/>
<rect x="379.264" y="170.414" style="fill:#ffd801;" width="56.883" height="154.829"/>
<rect x="455.117" y="142.843" style="fill:#005792;" width="56.883" height="90.189"/>
<g>
	<rect y="363.131" style="fill:#242D3C;" width="512" height="18.962"/>
	<rect x="493.03" y="401.07" style="fill:#242D3C;" width="18.962" height="60.142"/>
	<rect x="455.117" y="401.07" style="fill:#242D3C;" width="18.964" height="41.572"/>
	<rect x="417.178" y="401.07" style="fill:#242D3C;" width="18.962" height="109.985"/>
	<rect x="379.264" y="401.07" style="fill:#242D3C;" width="18.962" height="84.106"/>
	<rect x="341.325" y="401.07" style="fill:#242D3C;" width="18.964" height="99.441"/>
	<rect x="303.411" y="401.07" style="fill:#242D3C;" width="18.962" height="30.07"/>
	<rect x="265.472" y="401.07" style="fill:#242D3C;" width="18.962" height="103.27"/>
	<rect x="227.558" y="401.07" style="fill:#242D3C;" width="18.964" height="95.283"/>
	<rect x="189.619" y="401.07" style="fill:#242D3C;" width="18.962" height="72.602"/>
	<rect x="151.706" y="401.07" style="fill:#242D3C;" width="18.962" height="101.358"/>
	<rect x="113.766" y="401.07" style="fill:#242D3C;" width="18.964" height="47.685"/>
	<rect x="75.85" y="401.07" style="fill:#242D3C;" width="18.964" height="72.602"/>
	<rect x="37.926" y="401.07" style="fill:#242D3C;" width="18.962" height="94.648"/>
	<rect y="401.07" style="fill:#242D3C;" width="18.962" height="47.685"/>
</g>
<g>
</g>
<g>
</g>
<g>
</g>
<g>
</g>
<g>
</g>
<g>
</g>
<g>
</g>
<g>
</g>
<g>
</g>
<g>
</g>
<g>
</g>
<g>
</g>
<g>
</g>
<g>
</g>
<g>
</g>
</svg>
