<?xml version="1.0" encoding="iso-8859-1"?>
<!-- Generator: Adobe Illustrator 19.0.0, SVG Export Plug-In . SVG Version: 6.00 Build 0)  -->
<svg xmlns="http://www.w3.org/2000/svg" xmlns:xlink="http://www.w3.org/1999/xlink" version="1.1" id="Layer_1" x="0px" y="0px" viewBox="0 0 512 512" style="enable-background:new 0 0 512 512;" xml:space="preserve">
<polygon style="fill:#E3E3E3;" points="288,480 160,480 168,400 280,400 "/>
<rect x="144" y="472" style="fill:#2B2B2B;" width="160" height="16"/>
<path style="fill:#E3E3E3;" d="M448,48v180.8c-8-3.2-16-4.8-24-4.8c-2.4,0-5.6,0-8,0.8V56H32v280H0V48c0-6.4,2.4-12,7.2-16.8  S17.6,24,24,24h400c6.4,0,12,2.4,16.8,7.2C445.6,36,448,41.6,448,48z"/>
<g>
	<rect x="200" y="360" style="fill:#2B2B2B;" width="48" height="16"/>
	<path style="fill:#2B2B2B;" d="M336,408H24c-6.4,0-12-2.4-16.8-7.2C2.4,396.8,0,390.4,0,384v-56h336v16H16v40c0,1.6,0,4,2.4,5.6   c1.6,1.6,3.2,2.4,5.6,2.4h312V408z"/>
</g>
<path style="fill:#005792;" d="M400,72v156.8c-8,3.2-15.2,8-21.6,14.4c-12,12-18.4,28-18.4,44.8v24H48V72H400z"/>
<circle style="fill:#FFFFFF;" cx="224" cy="192" r="80"/>
<polygon style="fill:#2B2B2B;" points="216,235.2 178.4,197.6 189.6,186.4 216,212.8 266.4,162.4 277.6,173.6 "/>
<rect x="336" y="328" style="fill:#ffd801;" width="176" height="152"/>
<g>
	<path style="fill:#2B2B2B;" d="M496,328h-16v-40c0-15.2-5.6-28.8-16-39.2c-10.4-10.4-24.8-16.8-40-16.8s-28.8,5.6-40,16.8   s-16,24.8-16,39.2v40h-16v-40c0-19.2,7.2-37.6,20.8-51.2c13.6-13.6,32-20.8,51.2-20.8s37.6,7.2,51.2,20.8s20.8,32,20.8,51.2V328z"/>
	<path style="fill:#2B2B2B;" d="M464,312h-16v-24c0-6.4-2.4-12.8-7.2-16.8c-8.8-8.8-24.8-8.8-33.6,0c-4.8,4-7.2,10.4-7.2,16.8v24   h-16v-24c0-10.4,4-20.8,12-28s17.6-12,28-12s20.8,4,28,12c7.2,7.2,12,17.6,12,28V312z"/>
</g>
<g>
	<rect x="384" y="360" style="fill:#FFFFFF;" width="16" height="16"/>
	<rect x="416" y="360" style="fill:#FFFFFF;" width="16" height="16"/>
	<rect x="448" y="360" style="fill:#FFFFFF;" width="16" height="16"/>
	<rect x="384" y="392" style="fill:#FFFFFF;" width="16" height="16"/>
	<rect x="416" y="392" style="fill:#FFFFFF;" width="16" height="16"/>
	<rect x="448" y="392" style="fill:#FFFFFF;" width="16" height="16"/>
	<rect x="384" y="424" style="fill:#FFFFFF;" width="16" height="16"/>
	<rect x="416" y="424" style="fill:#FFFFFF;" width="16" height="16"/>
	<rect x="448" y="424" style="fill:#FFFFFF;" width="16" height="16"/>
</g>
<rect x="336" y="472" style="fill:#2B2B2B;" width="176" height="16"/>
<g>
</g>
<g>
</g>
<g>
</g>
<g>
</g>
<g>
</g>
<g>
</g>
<g>
</g>
<g>
</g>
<g>
</g>
<g>
</g>
<g>
</g>
<g>
</g>
<g>
</g>
<g>
</g>
<g>
</g>
</svg>
