<?xml version="1.0" encoding="iso-8859-1"?>
<!-- Generator: Adobe Illustrator 19.0.0, SVG Export Plug-In . SVG Version: 6.00 Build 0)  -->
<svg xmlns="http://www.w3.org/2000/svg" xmlns:xlink="http://www.w3.org/1999/xlink" version="1.1" id="Layer_1" x="0px" y="0px" viewBox="0 0 504 504" style="enable-background:new 0 0 504 504;" xml:space="preserve">
<g>
	<path style="fill:#2B2B2B;" d="M40,436c-10.4,0-20.8-4-28-12c-8-7.2-12-17.6-12-28V84h40v16H16v296c0,6.4,2.4,12.8,7.2,16.8   c4,4.8,10.4,7.2,16.8,7.2V436z"/>
	<rect x="272" y="84" style="fill:#2B2B2B;" width="232" height="16"/>
</g>
<path style="fill:#ffd801;" d="M264,116l-64-48H72v320c0,8-3.2,16-9.6,22.4S48,420,40,420v16h432c8,0,16-3.2,22.4-9.6  S504,412,504,404V116H264z"/>
<g>
	<rect x="104" y="116" style="fill:#FFFFFF;" width="104" height="16"/>
	<rect x="104" y="148" style="fill:#FFFFFF;" width="56" height="16"/>
	<rect x="216" y="276" style="fill:#FFFFFF;" width="16" height="24"/>
	<rect x="248" y="276" style="fill:#FFFFFF;" width="16" height="24"/>
	<rect x="232" y="252" style="fill:#FFFFFF;" width="16" height="24"/>
	<rect x="200" y="252" style="fill:#FFFFFF;" width="16" height="24"/>
	<rect x="184" y="276" style="fill:#FFFFFF;" width="16" height="24"/>
	<rect x="168" y="252" style="fill:#FFFFFF;" width="16" height="24"/>
	<rect x="280" y="276" style="fill:#FFFFFF;" width="16" height="24"/>
	<rect x="312" y="276" style="fill:#FFFFFF;" width="16" height="24"/>
	<rect x="296" y="252" style="fill:#FFFFFF;" width="16" height="24"/>
	<rect x="264" y="252" style="fill:#FFFFFF;" width="16" height="24"/>
	<rect x="344" y="276" style="fill:#FFFFFF;" width="16" height="24"/>
	<rect x="376" y="276" style="fill:#FFFFFF;" width="16" height="24"/>
	<rect x="360" y="252" style="fill:#FFFFFF;" width="16" height="24"/>
	<rect x="328" y="252" style="fill:#FFFFFF;" width="16" height="24"/>
	<rect x="408" y="276" style="fill:#FFFFFF;" width="16" height="24"/>
	<rect x="440" y="276" style="fill:#FFFFFF;" width="16" height="24"/>
	<rect x="424" y="252" style="fill:#FFFFFF;" width="16" height="24"/>
	<rect x="392" y="252" style="fill:#FFFFFF;" width="16" height="24"/>
	<rect x="472" y="276" style="fill:#FFFFFF;" width="16" height="24"/>
	<rect x="488" y="252" style="fill:#FFFFFF;" width="16" height="24"/>
	<rect x="456" y="252" style="fill:#FFFFFF;" width="16" height="24"/>
	<path style="fill:#FFFFFF;" d="M104,252v80c0,4,1.6,8,4.8,11.2S116,348,120,348h16c4,0,8-1.6,11.2-4.8S152,336,152,332v-80H104z    M136,332h-16v-32h16V332z"/>
</g>
<g>
</g>
<g>
</g>
<g>
</g>
<g>
</g>
<g>
</g>
<g>
</g>
<g>
</g>
<g>
</g>
<g>
</g>
<g>
</g>
<g>
</g>
<g>
</g>
<g>
</g>
<g>
</g>
<g>
</g>
</svg>
