<?xml version="1.0" encoding="iso-8859-1"?>
<!-- Generator: Adobe Illustrator 19.0.0, SVG Export Plug-In . SVG Version: 6.00 Build 0)  -->
<svg version="1.1" id="Layer_1" xmlns="http://www.w3.org/2000/svg" xmlns:xlink="http://www.w3.org/1999/xlink" x="0px" y="0px"
	 viewBox="0 0 512 512" style="enable-background:new 0 0 512 512;" xml:space="preserve">
<path style="fill:#242D3C;" d="M141.507,512C63.48,512,0,448.52,0,370.493s63.48-141.509,141.507-141.509
	c78.029,0,141.504,63.48,141.504,141.509S219.535,512,141.507,512z M141.507,249.464c-66.734,0-121.027,54.29-121.027,121.029
	c0,66.734,54.292,121.027,121.027,121.027c66.732,0,121.024-54.293,121.024-121.027
	C262.533,303.754,208.241,249.464,141.507,249.464z"/>
<path style="fill:#005792;" d="M237.763,370.493c0,53.156-43.11,96.261-96.256,96.261c-53.151,0-96.256-43.105-96.256-96.261
	c0-53.158,43.103-96.259,96.256-96.259C194.652,274.235,237.763,317.335,237.763,370.493z"/>
<path style="fill:#242D3C;" d="M370.493,283.016c-78.026,0-141.504-63.478-141.504-141.512C228.987,63.48,292.467,0,370.493,0
	S512,63.48,512,141.504C512,219.535,448.52,283.016,370.493,283.016z M370.493,20.48c-66.732,0-121.024,54.292-121.024,121.024
	c0,66.737,54.292,121.032,121.024,121.032c66.734,0,121.027-54.295,121.027-121.032C491.52,74.772,437.228,20.48,370.493,20.48z"/>
<path style="fill:#ffd801;" d="M466.747,141.504c0,53.161-43.108,96.261-96.256,96.261s-96.259-43.1-96.259-96.261
	c0-53.156,43.11-96.256,96.259-96.256S466.747,88.348,466.747,141.504z"/>
<g>
	<path style="fill:#242D3C;" d="M53.297,141.507h-20.48c0-29.036,11.308-56.328,31.836-76.854
		c20.529-20.534,47.823-31.836,76.854-31.836v20.48c-23.565,0-45.714,9.175-62.374,25.836S53.297,117.944,53.297,141.507z"/>
	<path style="fill:#242D3C;" d="M370.493,479.186v-20.48c23.562,0,45.714-9.178,62.374-25.838
		c16.661-16.66,25.838-38.812,25.838-62.374h20.48c0,29.033-11.305,56.328-31.839,76.854
		C426.821,467.881,399.524,479.186,370.493,479.186z"/>
</g>
<g>
</g>
<g>
</g>
<g>
</g>
<g>
</g>
<g>
</g>
<g>
</g>
<g>
</g>
<g>
</g>
<g>
</g>
<g>
</g>
<g>
</g>
<g>
</g>
<g>
</g>
<g>
</g>
<g>
</g>
</svg>
