<?xml version="1.0" encoding="iso-8859-1"?>
<!-- Generator: Adobe Illustrator 19.0.0, SVG Export Plug-In . SVG Version: 6.00 Build 0)  -->
<svg xmlns="http://www.w3.org/2000/svg" xmlns:xlink="http://www.w3.org/1999/xlink" version="1.1" id="Layer_1" x="0px" y="0px" viewBox="0 0 512 512" style="enable-background:new 0 0 512 512;" xml:space="preserve">
<g>
	<rect x="56" y="272" style="fill:#2B2B2B;" width="16" height="16"/>
	<rect x="56" y="304" style="fill:#2B2B2B;" width="16" height="16"/>
	<rect x="56" y="336" style="fill:#2B2B2B;" width="16" height="16"/>
	<rect x="440" y="160" style="fill:#2B2B2B;" width="16" height="16"/>
	<rect x="440" y="192" style="fill:#2B2B2B;" width="16" height="16"/>
	<rect x="440" y="224" style="fill:#2B2B2B;" width="16" height="16"/>
</g>
<path style="fill:#ffd801;" d="M256,160c-52.8,0-96,43.2-96,96s43.2,96,96,96s96-43.2,96-96S308.8,160,256,160z M256,312  c-31.2,0-56-24.8-56-56s24.8-56,56-56s56,24.8,56,56S287.2,312,256,312z"/>
<path style="fill:#2B2B2B;" d="M256,288c-17.6,0-32-14.4-32-32s14.4-32,32-32s32,14.4,32,32S273.6,288,256,288z M256,240  c-8.8,0-16,7.2-16,16c0,8.8,7.2,16,16,16c8.8,0,16-7.2,16-16S264.8,240,256,240z"/>
<g>
	<polygon style="fill:#005792;" points="256,0 256,128 320,64  "/>
	<path style="fill:#005792;" d="M96,256H32C32,132.8,132.8,32,256,32v64C168,96,96,168,96,256z"/>
	<polygon style="fill:#005792;" points="256,384 256,512 192,448  "/>
	<path style="fill:#005792;" d="M256,480v-64c88,0,160-72,160-160h64C480,379.2,379.2,480,256,480z"/>
</g>
<g>
</g>
<g>
</g>
<g>
</g>
<g>
</g>
<g>
</g>
<g>
</g>
<g>
</g>
<g>
</g>
<g>
</g>
<g>
</g>
<g>
</g>
<g>
</g>
<g>
</g>
<g>
</g>
<g>
</g>
</svg>
