<?xml version="1.0" encoding="iso-8859-1"?>
<!-- Generator: Adobe Illustrator 19.0.0, SVG Export Plug-In . SVG Version: 6.00 Build 0)  -->
<svg version="1.1" id="Capa_1" xmlns="http://www.w3.org/2000/svg" xmlns:xlink="http://www.w3.org/1999/xlink" x="0px" y="0px"
	 viewBox="0 0 496 496" style="enable-background:new 0 0 496 496;" xml:space="preserve">
<g>
	<polygon style="fill:#403E3E;" points="496,480 0,480 0,112 16,112 16,464 480,464 480,112 496,112 	"/>
	<rect x="32" y="48" style="fill:#403E3E;" width="16" height="16"/>
	<rect x="64" y="48" style="fill:#403E3E;" width="16" height="16"/>
	<rect x="96" y="48" style="fill:#403E3E;" width="16" height="16"/>
</g>
<polygon style="fill:#005792;" points="496,96 0,96 0,16 496,16 496,64 128,64 128,48 480,48 480,32 16,32 16,80 496,80 "/>
<g>
	<path style="fill:#ffd801;" d="M384,408H112c-2.848,0-5.48-1.512-6.912-3.968c-1.432-2.464-1.456-5.504-0.048-7.976l136-240
		c2.84-5.008,11.08-5.008,13.92,0l136,240c1.408,2.48,1.384,5.512-0.048,7.976C389.48,406.488,386.84,408,384,408z M125.728,392
		h244.544L248,176.224L125.728,392z"/>
	<rect x="240" y="248" style="fill:#ffd801;" width="16" height="80"/>
	<rect x="240" y="344" style="fill:#ffd801;" width="16" height="16"/>
</g>
<g>
	<rect x="384" y="272" style="fill:#403E3E;" width="16" height="16"/>
	<rect x="96" y="272" style="fill:#403E3E;" width="16" height="16"/>
	<polygon style="fill:#403E3E;" points="48,160 32,160 32,112 80,112 80,128 48,128 	"/>
	<polygon style="fill:#403E3E;" points="464,160 448,160 448,128 416,128 416,112 464,112 	"/>
	<polygon style="fill:#403E3E;" points="464,448 416,448 416,432 448,432 448,400 464,400 	"/>
	<polygon style="fill:#403E3E;" points="80,448 32,448 32,400 48,400 48,432 80,432 	"/>
	<rect x="96" y="112" style="fill:#403E3E;" width="16" height="16"/>
	<rect x="128" y="112" style="fill:#403E3E;" width="16" height="16"/>
	<rect x="160" y="112" style="fill:#403E3E;" width="16" height="16"/>
	<rect x="192" y="112" style="fill:#403E3E;" width="16" height="16"/>
	<rect x="224" y="112" style="fill:#403E3E;" width="16" height="16"/>
	<rect x="256" y="112" style="fill:#403E3E;" width="16" height="16"/>
	<rect x="288" y="112" style="fill:#403E3E;" width="16" height="16"/>
	<rect x="320" y="112" style="fill:#403E3E;" width="16" height="16"/>
	<rect x="352" y="112" style="fill:#403E3E;" width="16" height="16"/>
	<rect x="384" y="112" style="fill:#403E3E;" width="16" height="16"/>
	<rect x="448" y="208" style="fill:#403E3E;" width="16" height="16"/>
	<rect x="448" y="176" style="fill:#403E3E;" width="16" height="16"/>
	<rect x="448" y="240" style="fill:#403E3E;" width="16" height="16"/>
	<rect x="448" y="272" style="fill:#403E3E;" width="16" height="16"/>
	<rect x="448" y="304" style="fill:#403E3E;" width="16" height="16"/>
	<rect x="448" y="336" style="fill:#403E3E;" width="16" height="16"/>
	<rect x="448" y="368" style="fill:#403E3E;" width="16" height="16"/>
	<rect x="32" y="208" style="fill:#403E3E;" width="16" height="16"/>
	<rect x="32" y="176" style="fill:#403E3E;" width="16" height="16"/>
	<rect x="32" y="240" style="fill:#403E3E;" width="16" height="16"/>
	<rect x="32" y="272" style="fill:#403E3E;" width="16" height="16"/>
	<rect x="32" y="304" style="fill:#403E3E;" width="16" height="16"/>
	<rect x="32" y="336" style="fill:#403E3E;" width="16" height="16"/>
	<rect x="32" y="368" style="fill:#403E3E;" width="16" height="16"/>
	<rect x="96" y="432" style="fill:#403E3E;" width="16" height="16"/>
	<rect x="128" y="432" style="fill:#403E3E;" width="16" height="16"/>
	<rect x="160" y="432" style="fill:#403E3E;" width="16" height="16"/>
	<rect x="192" y="432" style="fill:#403E3E;" width="16" height="16"/>
	<rect x="224" y="432" style="fill:#403E3E;" width="16" height="16"/>
	<rect x="256" y="432" style="fill:#403E3E;" width="16" height="16"/>
	<rect x="288" y="432" style="fill:#403E3E;" width="16" height="16"/>
	<rect x="320" y="432" style="fill:#403E3E;" width="16" height="16"/>
	<rect x="352" y="432" style="fill:#403E3E;" width="16" height="16"/>
	<rect x="384" y="432" style="fill:#403E3E;" width="16" height="16"/>
</g>
<g>
</g>
<g>
</g>
<g>
</g>
<g>
</g>
<g>
</g>
<g>
</g>
<g>
</g>
<g>
</g>
<g>
</g>
<g>
</g>
<g>
</g>
<g>
</g>
<g>
</g>
<g>
</g>
<g>
</g>
</svg>
