<?xml version="1.0" encoding="iso-8859-1"?>
<!-- Generator: Adobe Illustrator 19.0.0, SVG Export Plug-In . SVG Version: 6.00 Build 0)  -->
<svg version="1.1" id="Layer_1" xmlns="http://www.w3.org/2000/svg" xmlns:xlink="http://www.w3.org/1999/xlink" x="0px" y="0px"
	 viewBox="0 0 512 512" style="enable-background:new 0 0 512 512;" xml:space="preserve">
<polygon style="fill:#005792;" points="80.614,355.899 15.432,468.805 496.568,468.805 431.386,355.899 "/>
<rect x="220.365" y="165.197" style="fill:#ffd801;" width="71.281" height="190.72"/>
<rect x="220.365" y="355.891" style="fill:#FFFFFF;" width="71.281" height="112.896"/>
<polygon style="fill:#ffd801;" points="180.447,165.189 256,34.286 331.594,165.189 "/>
<g>
	<polygon style="fill:#242D3C;" points="512,477.714 0,477.714 170.665,182.118 186.094,191.027 30.866,459.894 481.134,459.894 
		325.908,191.027 341.34,182.118 	"/>
	<rect x="48.008" y="403.43" style="fill:#242D3C;" width="416" height="17.82"/>
	<rect x="80.617" y="346.982" style="fill:#242D3C;" width="350.771" height="17.82"/>
	<rect x="113.203" y="290.534" style="fill:#242D3C;" width="285.619" height="17.82"/>
	<rect x="145.766" y="234.112" style="fill:#242D3C;" width="220.467" height="17.82"/>
</g>
<g>
	<rect x="247.091" y="111.729" style="fill:#FFFFFF;" width="17.82" height="17.82"/>
	<rect x="247.091" y="147.379" style="fill:#FFFFFF;" width="17.82" height="17.82"/>
	<rect x="247.091" y="183.014" style="fill:#FFFFFF;" width="17.82" height="17.818"/>
</g>
<g>
</g>
<g>
</g>
<g>
</g>
<g>
</g>
<g>
</g>
<g>
</g>
<g>
</g>
<g>
</g>
<g>
</g>
<g>
</g>
<g>
</g>
<g>
</g>
<g>
</g>
<g>
</g>
<g>
</g>
</svg>
