<?xml version="1.0" encoding="iso-8859-1"?>
<!-- Generator: Adobe Illustrator 19.0.0, SVG Export Plug-In . SVG Version: 6.00 Build 0)  -->
<svg version="1.1" id="Capa_1" xmlns="http://www.w3.org/2000/svg" xmlns:xlink="http://www.w3.org/1999/xlink" x="0px" y="0px"
	 viewBox="0 0 512 512" style="enable-background:new 0 0 512 512;" xml:space="preserve">
<path style="fill:#403E3E;" d="M488,363.882H24c-13.232,0-24-10.768-24-24v-96c0-13.232,10.768-24,24-24h464
	c13.232,0,24,10.768,24,24v96C512,353.114,501.232,363.882,488,363.882z M24,235.882c-4.408,0-8,3.592-8,8v96c0,4.416,3.592,8,8,8
	h464c4.416,0,8-3.584,8-8v-96c0-4.408-3.584-8-8-8H24z"/>
<g>
	<path style="fill:#ffd801;" d="M480,315.882h-48v-48h48V315.882z M448,299.882h16v-16h-16V299.882z"/>
	<path style="fill:#ffd801;" d="M80,315.882H32v-48h48V315.882z M48,299.882h16v-16H48V299.882z"/>
</g>
<g>
	<path style="fill:#403E3E;" d="M80,227.882H64v-168c0-2.016-0.848-3.936-2.456-5.544c-3.216-3.208-7.864-3.208-11.088,0
		C48.848,55.946,48,57.866,48,59.882v168H32v-168c0-6.264,2.536-12.248,7.144-16.856c9.208-9.208,24.504-9.208,33.712,0
		C77.464,47.634,80,53.618,80,59.882V227.882z"/>
	<path style="fill:#403E3E;" d="M480,227.882h-16v-168c0-2.016-0.848-3.936-2.464-5.544c-3.2-3.2-7.864-3.208-11.088,0.008
		c-1.6,1.6-2.448,3.52-2.448,5.536v168h-16v-168c0-6.264,2.528-12.248,7.136-16.848c9.232-9.224,24.504-9.216,33.728-0.008
		C477.472,47.634,480,53.618,480,59.882V227.882z"/>
	<rect x="32" y="355.882" style="fill:#403E3E;" width="16" height="24"/>
	<rect x="464" y="355.882" style="fill:#403E3E;" width="16" height="24"/>
	<path style="fill:#403E3E;" d="M416,355.882h-16v-72H112v72H96v-72c0-4.376,1.544-8.056,4.736-11.248
		c3.2-3.2,6.88-4.752,11.264-4.752h288c4.384,0,8.072,1.552,11.256,4.744S416,279.498,416,283.882V355.882z"/>
</g>
<g>
	<rect x="136" y="307.882" style="fill:#005792;" width="16" height="16"/>
	<rect x="168" y="307.882" style="fill:#005792;" width="16" height="16"/>
	<rect x="200" y="307.882" style="fill:#005792;" width="16" height="16"/>
</g>
<g>
	<rect x="232" y="307.882" style="fill:#ffd801;" width="16" height="16"/>
	<rect x="264" y="307.882" style="fill:#ffd801;" width="16" height="16"/>
</g>
<g>
	<rect x="328" y="307.882" style="fill:#403E3E;" width="48" height="16"/>
	<rect x="248" y="379.882" style="fill:#403E3E;" width="16" height="40"/>
	<rect x="32" y="435.882" style="fill:#403E3E;" width="200" height="16"/>
	<rect x="280" y="435.882" style="fill:#403E3E;" width="200" height="16"/>
</g>
<path style="fill:#ffd801;" d="M256,475.882c-17.648,0-32-14.352-32-32s14.352-32,32-32s32,14.352,32,32
	S273.648,475.882,256,475.882z M256,427.882c-8.824,0-16,7.176-16,16s7.176,16,16,16s16-7.176,16-16S264.824,427.882,256,427.882z"
	/>
<g>
	<path style="fill:#005792;" d="M296,203.882h-16c0-13.232-10.768-24-24-24s-24,10.768-24,24h-16c0-22.056,17.944-40,40-40
		S296,181.826,296,203.882z"/>
	<path style="fill:#005792;" d="M328,203.882h-16c0-30.88-25.128-56-56-56c-30.88,0-56,25.12-56,56h-16c0-39.696,32.304-72,72-72
		C295.704,131.882,328,164.186,328,203.882z"/>
	<path style="fill:#005792;" d="M360,203.882h-16c0-48.52-39.48-88-88-88s-88,39.48-88,88h-16c0-57.344,46.656-104,104-104
		S360,146.538,360,203.882z"/>
	<path style="fill:#005792;" d="M392,203.882h-16c0-66.168-53.832-120-120-120s-120,53.832-120,120h-16c0-74.992,61.008-136,136-136
		S392,128.89,392,203.882z"/>
</g>
<g>
</g>
<g>
</g>
<g>
</g>
<g>
</g>
<g>
</g>
<g>
</g>
<g>
</g>
<g>
</g>
<g>
</g>
<g>
</g>
<g>
</g>
<g>
</g>
<g>
</g>
<g>
</g>
<g>
</g>
</svg>
