<?xml version="1.0" encoding="iso-8859-1"?>
<!-- Generator: Adobe Illustrator 19.0.0, SVG Export Plug-In . SVG Version: 6.00 Build 0)  -->
<svg version="1.1" id="Capa_1" xmlns="http://www.w3.org/2000/svg" xmlns:xlink="http://www.w3.org/1999/xlink" x="0px" y="0px"
	 viewBox="0 0 512 512" style="enable-background:new 0 0 512 512;" xml:space="preserve">
<g>
	<rect x="248" y="72" style="fill:#403E3E;" width="16" height="80"/>
	
		<rect x="86.874" y="316.416" transform="matrix(-0.881 0.4732 -0.4732 -0.881 398.0409 548.7004)" style="fill:#403E3E;" width="86.259" height="16.001"/>
	
		<rect x="338.888" y="179.612" transform="matrix(-0.8812 0.4728 -0.4728 -0.8812 807.3399 172.3115)" style="fill:#403E3E;" width="86.258" height="15.992"/>
	
		<rect x="121.991" y="144.466" transform="matrix(-0.473 0.8811 -0.8811 -0.473 356.7603 161.7937)" style="fill:#403E3E;" width="16.001" height="86.259"/>
	
		<rect x="374.028" y="281.259" transform="matrix(-0.473 0.8811 -0.8811 -0.473 848.5244 141.2287)" style="fill:#403E3E;" width="15.993" height="86.259"/>
	<rect x="248" y="360" style="fill:#403E3E;" width="16" height="80"/>
	<rect x="56" y="216" style="fill:#403E3E;" width="16" height="16"/>
	<rect x="56" y="248" style="fill:#403E3E;" width="16" height="16"/>
	<rect x="56" y="280" style="fill:#403E3E;" width="16" height="16"/>
	<rect x="440" y="280" style="fill:#403E3E;" width="16" height="16"/>
	<rect x="440" y="248" style="fill:#403E3E;" width="16" height="16"/>
	<rect x="440" y="216" style="fill:#403E3E;" width="16" height="16"/>
	<rect x="120" y="104" style="fill:#403E3E;" width="16" height="16"/>
	<rect x="152" y="80" style="fill:#403E3E;" width="16" height="16"/>
	<rect x="184" y="56" style="fill:#403E3E;" width="16" height="16"/>
	<rect x="376" y="104" style="fill:#403E3E;" width="16" height="16"/>
	<rect x="344" y="80" style="fill:#403E3E;" width="16" height="16"/>
	<rect x="312" y="56" style="fill:#403E3E;" width="16" height="16"/>
	<rect x="120" y="384" style="fill:#403E3E;" width="16" height="16"/>
	<rect x="152" y="408" style="fill:#403E3E;" width="16" height="16"/>
	<rect x="184" y="432" style="fill:#403E3E;" width="16" height="16"/>
	<rect x="376" y="384" style="fill:#403E3E;" width="16" height="16"/>
	<rect x="344" y="408" style="fill:#403E3E;" width="16" height="16"/>
	<rect x="312" y="432" style="fill:#403E3E;" width="16" height="16"/>
	<rect x="248" y="32" style="fill:#403E3E;" width="16" height="16"/>
	<rect x="248" y="464" style="fill:#403E3E;" width="16" height="16"/>
	<rect x="56" y="144" style="fill:#403E3E;" width="16" height="16"/>
	<rect x="440" y="144" style="fill:#403E3E;" width="16" height="16"/>
	<rect x="56" y="352" style="fill:#403E3E;" width="16" height="16"/>
	<rect x="440" y="352" style="fill:#403E3E;" width="16" height="16"/>
</g>
<g>
	<path style="fill:#005792;" d="M256,368c-61.76,0-112-50.24-112-112s50.24-112,112-112s112,50.24,112,112S317.76,368,256,368z
		 M256,160c-52.936,0-96,43.064-96,96s43.064,96,96,96s96-43.064,96-96S308.936,160,256,160z"/>
	<path style="fill:#005792;" d="M258.048,368l-4.968-0.112c-27.488-4.576-35.304-61.696-37.04-79.096l15.92-1.592
		c4.136,41.344,16.128,62.768,23.272,64.8h1.8c7.176-1.424,18.96-24.32,23-64.8l15.92,1.592c-3.664,36.656-15.44,76.704-37.48,79.16
		L258.048,368z"/>
	<path style="fill:#005792;" d="M280.04,224.8c-4.048-40.472-15.832-63.376-23-64.8h-1.8c-7.152,2.032-19.144,23.456-23.272,64.8
		l-15.92-1.592c1.744-17.392,9.552-74.512,37.04-79.096l4.96-0.112l0.44,0.048c22.04,2.448,33.816,42.496,37.48,79.152L280.04,224.8
		z"/>
	<path style="fill:#005792;" d="M256,296c-55.656,0-112-13.744-112-40c0-26.264,56.344-40,112-40s112,13.736,112,40
		C368,282.256,311.656,296,256,296z M256,232c-59.552,0-96,15.536-96,24c0,8.464,36.448,24,96,24s96-15.536,96-24
		S315.552,232,256,232z"/>
</g>
<g>
	<rect x="216" y="248" style="fill:#403E3E;" width="16" height="16"/>
	<rect x="248" y="248" style="fill:#403E3E;" width="16" height="16"/>
	<rect x="280" y="248" style="fill:#403E3E;" width="16" height="16"/>
</g>
<g>
	<path style="fill:#ffd801;" d="M256,80c-22.056,0-40-17.944-40-40s17.944-40,40-40s40,17.944,40,40S278.056,80,256,80z M256,16
		c-13.232,0-24,10.768-24,24s10.768,24,24,24s24-10.768,24-24S269.232,16,256,16z"/>
	<path style="fill:#ffd801;" d="M64,192c-22.056,0-40-17.944-40-40s17.944-40,40-40s40,17.944,40,40S86.056,192,64,192z M64,128
		c-13.232,0-24,10.768-24,24s10.768,24,24,24s24-10.768,24-24S77.232,128,64,128z"/>
	<path style="fill:#ffd801;" d="M64,400c-22.056,0-40-17.944-40-40s17.944-40,40-40s40,17.944,40,40S86.056,400,64,400z M64,336
		c-13.232,0-24,10.768-24,24s10.768,24,24,24s24-10.768,24-24S77.232,336,64,336z"/>
	<path style="fill:#ffd801;" d="M448,192c-22.056,0-40-17.944-40-40s17.944-40,40-40s40,17.944,40,40S470.056,192,448,192z M448,128
		c-13.232,0-24,10.768-24,24s10.768,24,24,24s24-10.768,24-24S461.232,128,448,128z"/>
	<path style="fill:#ffd801;" d="M448,400c-22.056,0-40-17.944-40-40s17.944-40,40-40s40,17.944,40,40S470.056,400,448,400z M448,336
		c-13.232,0-24,10.768-24,24s10.768,24,24,24s24-10.768,24-24S461.232,336,448,336z"/>
	<path style="fill:#ffd801;" d="M256,512c-22.056,0-40-17.944-40-40s17.944-40,40-40s40,17.944,40,40S278.056,512,256,512z M256,448
		c-13.232,0-24,10.768-24,24s10.768,24,24,24s24-10.768,24-24S269.232,448,256,448z"/>
</g>
<g>
</g>
<g>
</g>
<g>
</g>
<g>
</g>
<g>
</g>
<g>
</g>
<g>
</g>
<g>
</g>
<g>
</g>
<g>
</g>
<g>
</g>
<g>
</g>
<g>
</g>
<g>
</g>
<g>
</g>
</svg>
