<?xml version="1.0" encoding="iso-8859-1"?>
<!-- Generator: Adobe Illustrator 19.0.0, SVG Export Plug-In . SVG Version: 6.00 Build 0)  -->
<svg xmlns="http://www.w3.org/2000/svg" xmlns:xlink="http://www.w3.org/1999/xlink" version="1.1" id="Layer_1" x="0px" y="0px" viewBox="0 0 512 512" style="enable-background:new 0 0 512 512;" xml:space="preserve">
<g>
	<circle style="fill:#E3E3E3;" cx="256" cy="216" r="168"/>
	<polygon style="fill:#E3E3E3;" points="288,56 224,56 240,0 272,0  "/>
	<polygon style="fill:#E3E3E3;" points="165.6,80 120,125.6 92,74.4 114.4,52  "/>
	<polygon style="fill:#E3E3E3;" points="96,184 96,248 40,232 40,200  "/>
	<polygon style="fill:#E3E3E3;" points="120,306.4 165.6,352 114.4,380 92,357.6  "/>
	<polygon style="fill:#E3E3E3;" points="346.4,352 392,306.4 420,357.6 397.6,380  "/>
	<polygon style="fill:#E3E3E3;" points="416,248 416,184 472,200 472,232  "/>
	<polygon style="fill:#E3E3E3;" points="392,125.6 346.4,80 397.6,52 420,74.4  "/>
</g>
<path style="fill:#ffd801;" d="M224,344v136c0,8,3.2,16,9.6,22.4c6.4,6.4,14.4,9.6,22.4,9.6s16-3.2,22.4-9.6S288,488,288,480V344  H224z"/>
<path style="fill:#E35B17;" d="M224,380.8c10.4,2.4,20.8,3.2,32,3.2c11.2,0,21.6-0.8,32-3.2V344h-64V380.8z"/>
<circle style="fill:#FFFFFF;" cx="256" cy="216" r="128"/>
<circle style="fill:#005792;" cx="256" cy="216" r="96"/>
<g>
	<rect x="216" y="208" style="fill:#FFFFFF;" width="16" height="16"/>
	<rect x="248" y="208" style="fill:#FFFFFF;" width="16" height="16"/>
	<rect x="280" y="208" style="fill:#FFFFFF;" width="16" height="16"/>
</g>
<g>
	<path style="fill:#2B2B2B;" d="M256,352c-75.2,0-136-60.8-136-136S180.8,80,256,80s136,60.8,136,136S331.2,352,256,352z M256,96   c-66.4,0-120,53.6-120,120s53.6,120,120,120s120-53.6,120-120S322.4,96,256,96z"/>
	<rect x="72" y="136" style="fill:#2B2B2B;" width="16" height="16"/>
	<rect x="424" y="136" style="fill:#2B2B2B;" width="16" height="16"/>
	<rect x="72" y="280" style="fill:#2B2B2B;" width="16" height="16"/>
	<rect x="424" y="280" style="fill:#2B2B2B;" width="16" height="16"/>
	<rect x="176" y="32" style="fill:#2B2B2B;" width="16" height="16"/>
	<rect x="320" y="32" style="fill:#2B2B2B;" width="16" height="16"/>
	<rect x="176" y="384" style="fill:#2B2B2B;" width="16" height="16"/>
	<rect x="320" y="384" style="fill:#2B2B2B;" width="16" height="16"/>
</g>
<g>
</g>
<g>
</g>
<g>
</g>
<g>
</g>
<g>
</g>
<g>
</g>
<g>
</g>
<g>
</g>
<g>
</g>
<g>
</g>
<g>
</g>
<g>
</g>
<g>
</g>
<g>
</g>
<g>
</g>
</svg>
