<?xml version="1.0" encoding="iso-8859-1"?>
<!-- Generator: Adobe Illustrator 19.0.0, SVG Export Plug-In . SVG Version: 6.00 Build 0)  -->
<svg version="1.1" id="Layer_1" xmlns="http://www.w3.org/2000/svg" xmlns:xlink="http://www.w3.org/1999/xlink" x="0px" y="0px"
	 viewBox="0 0 480 480" style="enable-background:new 0 0 480 480;" xml:space="preserve">
<g>
	<path style="fill:#E3E3E3;" d="M480,440c0,17.6-14.4,32-32,32H32c-17.6,0-32-14.4-32-32V72c0-17.6,14.4-32,32-32h416
		c17.6,0,32,14.4,32,32V440z"/>
	<path style="fill:#E3E3E3;" d="M448,40H176v176h304V72C480,54.4,465.6,40,448,40z"/>
</g>
<path style="fill:#ffd801;" d="M80,8C62.4,8,48,22.4,48,40v352c0,17.6,14.4,32,32,32h64c17.6,0,32-14.4,32-32V40
	c0-17.6-14.4-32-32-32H80z"/>
<path style="fill:#E35B17;" d="M80,424h64c17.6,0,32-14.4,32-32V40H48v352C48,409.6,62.4,424,80,424z"/>
<g>
	<rect x="104" y="176" style="fill:#FFFFFF;" width="16" height="16"/>
	<rect x="104" y="208" style="fill:#FFFFFF;" width="16" height="16"/>
	<rect x="104" y="240" style="fill:#FFFFFF;" width="16" height="16"/>
</g>
<g>
	<path style="fill:#2B2B2B;" d="M272,424h-64v-48h64V424z M224,408h32v-16h-32V408z"/>
	<path style="fill:#2B2B2B;" d="M352,424h-64v-48h64V424z M304,408h32v-16h-32V408z"/>
	<path style="fill:#2B2B2B;" d="M432,424h-64v-48h64V424z M384,408h32v-16h-32V408z"/>
	<path style="fill:#2B2B2B;" d="M272,360h-64v-48h64V360z M224,344h32v-16h-32V344z"/>
	<path style="fill:#2B2B2B;" d="M352,360h-64v-48h64V360z M304,344h32v-16h-32V344z"/>
	<path style="fill:#2B2B2B;" d="M432,360h-64v-48h64V360z M384,344h32v-16h-32V344z"/>
	<path style="fill:#2B2B2B;" d="M272,296h-64v-48h64V296z M224,280h32v-16h-32V280z"/>
	<path style="fill:#2B2B2B;" d="M352,296h-64v-48h64V296z M304,280h32v-16h-32V280z"/>
	<path style="fill:#2B2B2B;" d="M432,296h-64v-48h64V296z M384,280h32v-16h-32V280z"/>
</g>
<rect x="192" y="72" style="fill:#1CCACA;" width="256" height="112"/>
<rect x="208" y="88" style="fill:#005792;" width="224" height="80"/>
<g>
	<rect x="384" y="120" style="fill:#FFFFFF;" width="16" height="16"/>
	<rect x="352" y="120" style="fill:#FFFFFF;" width="16" height="16"/>
	<rect x="320" y="120" style="fill:#FFFFFF;" width="16" height="16"/>
	<rect x="288" y="120" style="fill:#FFFFFF;" width="16" height="16"/>
</g>
<path style="fill:#2B2B2B;" d="M88,472H32c-8.8,0-16.8-3.2-22.4-9.6C3.2,456,0,448,0,440V72c0-8.8,3.2-16.8,9.6-22.4
	C16,43.2,24,40,32,40v16c-4,0-8,1.6-11.2,4.8S16,68,16,72v368c0,4,1.6,8,4.8,11.2S28,456,32,456h56c4,0,8-1.6,11.2-4.8
	S104,444,104,440v-16h16v16c0,8.8-3.2,16.8-9.6,22.4C104.8,468.8,96.8,472,88,472z"/>
<g>
</g>
<g>
</g>
<g>
</g>
<g>
</g>
<g>
</g>
<g>
</g>
<g>
</g>
<g>
</g>
<g>
</g>
<g>
</g>
<g>
</g>
<g>
</g>
<g>
</g>
<g>
</g>
<g>
</g>
</svg>
