<?xml version="1.0" encoding="iso-8859-1"?>
<!-- Generator: Adobe Illustrator 19.0.0, SVG Export Plug-In . SVG Version: 6.00 Build 0)  -->
<svg version="1.1" id="Capa_1" xmlns="http://www.w3.org/2000/svg" xmlns:xlink="http://www.w3.org/1999/xlink" x="0px" y="0px"
	 viewBox="0 0 504 504" style="enable-background:new 0 0 504 504;" xml:space="preserve">
<g>
	<rect x="244" y="32" style="fill:#403E3E;" width="16" height="88"/>
	<path style="fill:#403E3E;" d="M284,64h-64c-8.568,0-16.128-3.208-22.456-9.544S188,40.568,188,32s3.208-16.128,9.544-22.456
		S211.432,0,220,0h64c8.568,0,16.128,3.208,22.456,9.536l0,0l0,0l0,0C312.792,15.872,316,23.432,316,32
		c0,8.576-3.208,16.128-9.544,22.464C300.128,60.792,292.568,64,284,64z M220,16c-4.288,0-7.832,1.544-11.144,4.856
		S204,27.712,204,32s1.544,7.832,4.856,11.144S215.712,48,220,48h64c4.288,0,7.832-1.544,11.144-4.856S300,36.288,300,32
		s-1.544-7.832-4.856-11.144l0,0C291.832,17.544,288.288,16,284,16H220z"/>
	<path style="fill:#403E3E;" d="M252,504c-119.104,0-216-96.896-216-216c0-103.376,73.384-192.48,174.496-211.856l3.008,15.712
		C119.92,109.792,52,192.28,52,288c0,110.28,89.72,200,200,200s200-89.72,200-200c0-95.72-67.92-178.208-161.504-196.144
		l3.016-15.712C394.616,95.52,468,184.624,468,288C468,407.104,371.104,504,252,504z"/>
</g>
<path style="fill:#005792;" d="M252,464c-13.152,0-24.688-1.112-35.28-3.384c-2.184-0.472-4.072-1.832-5.208-3.752
	s-1.416-4.232-0.776-6.368c3.6-12-2.344-24.688-13.84-29.52c-11.184-4.72-23.768-0.12-29.904,10.904
	c-1.088,1.952-2.936,3.368-5.104,3.888c-2.184,0.512-4.472,0.12-6.328-1.12c-19.992-13.328-36.888-30.216-50.216-50.216
	c-1.272-1.904-1.664-4.272-1.072-6.496c0.584-2.216,2.096-4.072,4.152-5.104c10.712-5.36,15.368-18.424,10.608-29.744
	c-4.752-11.272-17.928-17.48-29.416-13.872c-2.128,0.672-4.44,0.424-6.376-0.68c-1.936-1.112-3.328-2.968-3.832-5.152
	C77.08,313.328,76,302.088,76,288c0-13.696,1.144-25.608,3.4-35.4c0.504-2.16,1.864-4.008,3.776-5.12
	c1.92-1.112,4.2-1.368,6.32-0.744c11.992,3.6,24.688-2.344,29.52-13.84c4.72-11.192,0.128-23.768-10.912-29.904
	c-1.952-1.088-3.36-2.936-3.888-5.112c-0.528-2.168-0.12-4.464,1.12-6.32c13.328-19.992,30.224-36.888,50.216-50.216
	c1.92-1.272,4.272-1.648,6.496-1.072c2.216,0.584,4.072,2.104,5.104,4.152c5.352,10.704,18.408,15.368,29.736,10.608
	c11.8-4.72,17.568-17.12,13.84-29.528c-0.632-2.12-0.36-4.408,0.744-6.32c1.112-1.912,2.968-3.28,5.12-3.776
	C226.672,113.08,237.92,112,252,112c14.088,0,25.328,1.08,35.4,3.4c2.16,0.504,4.008,1.864,5.12,3.776
	c1.12,1.912,1.384,4.2,0.752,6.32c-3.6,12,2.344,24.688,13.832,29.52c11.216,4.712,23.768,0.128,29.904-10.912
	c1.088-1.952,2.936-3.36,5.112-3.888c2.152-0.528,4.456-0.128,6.32,1.12c20,13.328,36.888,30.224,50.216,50.216
	c1.272,1.912,1.664,4.272,1.08,6.496c-0.592,2.216-2.104,4.072-4.16,5.104c-10.712,5.352-15.368,18.416-10.6,29.736
	c4.632,11.6,17.544,17.64,29.416,13.872c2.096-0.672,4.424-0.432,6.376,0.68c1.936,1.104,3.32,2.976,3.832,5.144
	c2.248,9.784,3.4,21.696,3.4,35.416c0,13.152-1.112,24.688-3.384,35.28c-0.472,2.176-1.832,4.072-3.752,5.208
	c-1.928,1.136-4.232,1.408-6.376,0.776c-11.976-3.624-24.688,2.344-29.512,13.832c-4.768,11.32-0.112,24.384,10.6,29.744
	c2.056,1.032,3.56,2.88,4.16,5.104c0.584,2.216,0.192,4.584-1.08,6.496c-13.328,20-30.216,36.888-50.216,50.216
	c-1.912,1.28-4.256,1.664-6.496,1.08c-2.216-0.592-4.072-2.104-5.104-4.16c-5.36-10.712-18.392-15.368-29.744-10.6
	c-11.592,4.632-17.624,17.528-13.872,29.408c0.672,2.136,0.432,4.44-0.68,6.384c-1.104,1.936-2.968,3.32-5.144,3.832
	C277.352,462.912,266.104,464,252,464z M227.68,446.36c7.4,1.112,15.304,1.64,24.32,1.64c9.352,0,17.24-0.504,24.248-1.56
	c-1.384-17.064,8.4-33.712,24.784-40.264c16.04-6.736,34.288-2.056,45.064,10.592c13.264-9.792,24.88-21.408,34.672-34.672
	c-12.648-10.776-17.328-29.064-10.536-45.192c6.84-16.264,23.112-25.8,40.136-24.576C411.472,304.92,412,297.016,412,288
	c0-9.072-0.528-17.192-1.576-24.256c-17.184,1.376-33.704-8.408-40.248-24.776c-6.744-16.024-2.064-34.296,10.592-45.064
	c-9.832-13.312-21.496-24.968-34.824-34.776c-11.168,12.904-28.904,17.456-45.048,10.64c-16.28-6.848-25.856-23.192-24.568-40.192
	C269.288,128.504,261.376,128,252,128c-9.344,0-17.24,0.504-24.264,1.568c1.544,17.424-7.992,33.552-24.768,40.264
	c-16.008,6.744-34.296,2.064-45.064-10.592c-13.312,9.824-24.968,21.496-34.776,34.816c12.912,11.168,17.44,28.92,10.64,45.048
	c-6.84,16.272-23.16,25.832-40.176,24.568C92.536,270.76,92,278.904,92,288c0,9.352,0.504,17.256,1.568,24.28
	c16.712-1.36,33.392,8.44,40.2,24.616c6.792,16.136,2.112,34.424-10.536,45.192c9.824,13.312,21.496,24.968,34.824,34.784
	c11.168-12.912,28.912-17.456,45.048-10.648C219.36,413.072,228.936,429.384,227.68,446.36z"/>
<g>
	<rect x="244" y="160" style="fill:#403E3E;" width="16" height="16"/>
	<rect x="244" y="400" style="fill:#403E3E;" width="16" height="16"/>
	<rect x="124" y="280" style="fill:#403E3E;" width="16" height="16"/>
	<rect x="364" y="280" style="fill:#403E3E;" width="16" height="16"/>
	<rect x="156" y="192" style="fill:#403E3E;" width="16" height="16"/>
	<rect x="332" y="192" style="fill:#403E3E;" width="16" height="16"/>
	<rect x="156" y="368" style="fill:#403E3E;" width="16" height="16"/>
	<rect x="332" y="368" style="fill:#403E3E;" width="16" height="16"/>
	<path style="fill:#403E3E;" d="M252,312c-13.232,0-24-10.768-24-24s10.768-24,24-24s24,10.768,24,24S265.232,312,252,312z M252,280
		c-4.408,0-8,3.584-8,8s3.592,8,8,8c4.408,0,8-3.584,8-8S256.408,280,252,280z"/>
</g>
<path style="fill:#ffd801;" d="M252,352c-35.888,0-64-28.112-64-64s28.112-64,64-64s64,28.112,64,64S287.888,352,252,352z M252,240
	c-26.912,0-48,21.088-48,48s21.088,48,48,48s48-21.088,48-48S278.912,240,252,240z"/>
<g>
	<rect x="268" y="280" style="fill:#403E3E;" width="80" height="16"/>
	
		<rect x="389.362" y="120.012" transform="matrix(-0.7071 0.7071 -0.7071 -0.7071 793.8287 -72.7912)" style="fill:#403E3E;" width="45.256" height="16"/>
</g>
<polygon style="fill:#ffd801;" points="441.656,149.656 430.344,138.344 444,124.688 444,115.312 424.688,96 415.312,96 
	401.656,109.656 390.344,98.344 408.688,80 431.312,80 460,108.688 460,131.312 "/>
<rect x="84.001" y="105.378" transform="matrix(-0.7071 0.7071 -0.7071 -0.7071 247.5698 153.4653)" style="fill:#403E3E;" width="16" height="45.256"/>
<polygon style="fill:#ffd801;" points="62.344,149.656 44,131.312 44,108.688 72.688,80 95.312,80 113.656,98.344 102.344,109.656 
	88.688,96 79.312,96 60,115.312 60,124.688 73.656,138.344 "/>
<g>
</g>
<g>
</g>
<g>
</g>
<g>
</g>
<g>
</g>
<g>
</g>
<g>
</g>
<g>
</g>
<g>
</g>
<g>
</g>
<g>
</g>
<g>
</g>
<g>
</g>
<g>
</g>
<g>
</g>
</svg>
