<?xml version="1.0" encoding="iso-8859-1"?>
<!-- Generator: Adobe Illustrator 19.0.0, SVG Export Plug-In . SVG Version: 6.00 Build 0)  -->
<svg version="1.1" id="Layer_1" xmlns="http://www.w3.org/2000/svg" xmlns:xlink="http://www.w3.org/1999/xlink" x="0px" y="0px"
	 viewBox="0 0 512 512" style="enable-background:new 0 0 512 512;" xml:space="preserve">
<path style="fill:#005792;" d="M247.392,316.022l-31.834,31.834V232.919c0-56.297,37.404-103.834,88.704-119.188V93.709H83.309
	v324.659H304.26v-66.266C282.077,345.452,262.481,332.823,247.392,316.022z"/>
<g>
	<rect x="183.932" y="47.04" style="fill:#242D3C;" width="19.717" height="18.962"/>
	<rect x="155.511" y="446.003" style="fill:#242D3C;" width="76.552" height="18.962"/>
	<path style="fill:#242D3C;" d="M304.813,512H82.784c-24.63,0-44.667-20.022-44.667-44.634V44.675C38.117,20.042,58.154,0,82.784,0
		h222.029c24.617,0,44.652,20.042,44.652,44.675v63.818H330.5V44.675c0-14.177-11.525-25.71-25.687-25.71H82.784
		c-14.17,0-25.705,11.533-25.705,25.71v422.694c0,14.154,11.533,25.669,25.705,25.669h222.029c14.162,0,25.687-11.515,25.687-25.669
		V357.343h18.964v110.026C349.467,491.978,329.432,512,304.813,512z"/>
	<path style="fill:#242D3C;" d="M348.353,292.7h-16.758c-9.259,0-17.961-3.602-24.499-10.148
		c-6.528-6.523-10.127-15.219-10.127-24.476h18.962c0,4.191,1.623,8.115,4.57,11.062c2.964,2.967,6.904,4.598,11.095,4.598h16.758
		c4.191,0,8.131-1.636,11.098-4.598c2.944-2.954,4.572-6.892,4.572-11.062c0-4.186-1.626-8.123-4.585-11.085
		c-2.949-2.954-6.892-4.585-11.085-4.585h-16.758c-9.265,0-17.969-3.604-24.499-10.145c-6.531-6.525-10.127-15.222-10.127-24.484
		c0-9.275,3.599-17.971,10.138-24.492c6.523-6.533,15.222-10.14,24.489-10.14h16.758c9.26,0,17.964,3.607,24.504,10.15
		c6.533,6.548,10.13,15.242,10.13,24.481h-18.964c0-4.186-1.626-8.118-4.585-11.082c-2.949-2.954-6.892-4.588-11.085-4.588h-16.758
		c-4.198,0-8.131,1.633-11.082,4.588c-2.959,2.954-4.582,6.881-4.582,11.082c0,4.196,1.623,8.131,4.575,11.077
		c2.954,2.959,6.892,4.59,11.09,4.59h16.758c9.262,0,17.971,3.607,24.504,10.15c6.533,6.548,10.13,15.242,10.13,24.481
		c0,9.224-3.592,17.912-10.115,24.461C366.309,289.098,357.605,292.7,348.353,292.7z"/>
	<rect x="330.495" y="157.235" style="fill:#242D3C;" width="18.964" height="25.395"/>
	<rect x="330.495" y="283.213" style="fill:#242D3C;" width="18.964" height="25.398"/>
	<path style="fill:#242D3C;" d="M206.076,370.744V232.919c0-73.833,60.07-133.903,133.908-133.908
		c73.83,0,133.898,60.07,133.898,133.911c0,73.833-60.068,133.901-133.898,133.901l0,0c-34.601-0.008-67.853-13.491-92.695-37.289
		L206.076,370.744z M247.758,302.244l6.687,7.439c21.796,24.253,52.977,38.167,85.545,38.175
		c63.37,0,114.929-51.564,114.929-114.936c0-63.386-51.558-114.949-114.934-114.949c-63.378,0.003-114.944,51.569-114.944,114.944
		v92.05L247.758,302.244z"/>
</g>
<g>
</g>
<g>
</g>
<g>
</g>
<g>
</g>
<g>
</g>
<g>
</g>
<g>
</g>
<g>
</g>
<g>
</g>
<g>
</g>
<g>
</g>
<g>
</g>
<g>
</g>
<g>
</g>
<g>
</g>
</svg>
