<?xml version="1.0" encoding="iso-8859-1"?>
<!-- Generator: Adobe Illustrator 19.0.0, SVG Export Plug-In . SVG Version: 6.00 Build 0)  -->
<svg version="1.1" id="Layer_1" xmlns="http://www.w3.org/2000/svg" xmlns:xlink="http://www.w3.org/1999/xlink" x="0px" y="0px"
	 viewBox="0 0 512 512" style="enable-background:new 0 0 512 512;" xml:space="preserve">
<path style="fill:#E3E3E3;" d="M512,464c0,17.6-14.4,32-32,32H32c-17.6,0-32-14.4-32-32V160c0-17.6,14.4-32,32-32h448
	c17.6,0,32,14.4,32,32V464z"/>
<g>
	<rect x="40" y="312" style="fill:#2B2B2B;" width="16" height="16"/>
	<rect x="72" y="312" style="fill:#2B2B2B;" width="16" height="16"/>
	<rect x="104" y="312" style="fill:#2B2B2B;" width="16" height="16"/>
	<rect x="136" y="312" style="fill:#2B2B2B;" width="16" height="16"/>
	<rect x="168" y="312" style="fill:#2B2B2B;" width="16" height="16"/>
	<rect x="200" y="312" style="fill:#2B2B2B;" width="16" height="16"/>
	<rect x="232" y="312" style="fill:#2B2B2B;" width="16" height="16"/>
	<rect x="264" y="312" style="fill:#2B2B2B;" width="16" height="16"/>
	<rect x="296" y="312" style="fill:#2B2B2B;" width="16" height="16"/>
	<rect x="328" y="312" style="fill:#2B2B2B;" width="16" height="16"/>
	<rect x="40" y="344" style="fill:#2B2B2B;" width="16" height="16"/>
	<rect x="72" y="344" style="fill:#2B2B2B;" width="16" height="16"/>
	<rect x="104" y="344" style="fill:#2B2B2B;" width="16" height="16"/>
	<rect x="136" y="344" style="fill:#2B2B2B;" width="16" height="16"/>
	<rect x="168" y="344" style="fill:#2B2B2B;" width="16" height="16"/>
	<rect x="200" y="344" style="fill:#2B2B2B;" width="16" height="16"/>
	<rect x="232" y="344" style="fill:#2B2B2B;" width="16" height="16"/>
	<rect x="264" y="344" style="fill:#2B2B2B;" width="16" height="16"/>
	<rect x="296" y="344" style="fill:#2B2B2B;" width="16" height="16"/>
	<rect x="328" y="344" style="fill:#2B2B2B;" width="16" height="16"/>
	<rect x="40" y="376" style="fill:#2B2B2B;" width="16" height="16"/>
	<rect x="72" y="376" style="fill:#2B2B2B;" width="16" height="16"/>
	<rect x="104" y="376" style="fill:#2B2B2B;" width="16" height="16"/>
	<rect x="136" y="376" style="fill:#2B2B2B;" width="16" height="16"/>
	<rect x="168" y="376" style="fill:#2B2B2B;" width="16" height="16"/>
	<rect x="200" y="376" style="fill:#2B2B2B;" width="16" height="16"/>
	<rect x="232" y="376" style="fill:#2B2B2B;" width="16" height="16"/>
	<rect x="264" y="376" style="fill:#2B2B2B;" width="16" height="16"/>
	<rect x="296" y="376" style="fill:#2B2B2B;" width="16" height="16"/>
	<rect x="328" y="376" style="fill:#2B2B2B;" width="16" height="16"/>
	<rect x="40" y="408" style="fill:#2B2B2B;" width="16" height="16"/>
	<rect x="72" y="408" style="fill:#2B2B2B;" width="16" height="16"/>
	<rect x="104" y="408" style="fill:#2B2B2B;" width="16" height="16"/>
	<rect x="136" y="408" style="fill:#2B2B2B;" width="16" height="16"/>
	<rect x="168" y="408" style="fill:#2B2B2B;" width="16" height="16"/>
	<rect x="200" y="408" style="fill:#2B2B2B;" width="16" height="16"/>
	<rect x="232" y="408" style="fill:#2B2B2B;" width="16" height="16"/>
	<rect x="264" y="408" style="fill:#2B2B2B;" width="16" height="16"/>
	<rect x="296" y="408" style="fill:#2B2B2B;" width="16" height="16"/>
	<rect x="328" y="408" style="fill:#2B2B2B;" width="16" height="16"/>
	<rect x="40" y="440" style="fill:#2B2B2B;" width="16" height="16"/>
	<rect x="72" y="440" style="fill:#2B2B2B;" width="16" height="16"/>
	<rect x="104" y="440" style="fill:#2B2B2B;" width="16" height="16"/>
	<rect x="136" y="440" style="fill:#2B2B2B;" width="16" height="16"/>
	<rect x="168" y="440" style="fill:#2B2B2B;" width="16" height="16"/>
	<rect x="200" y="440" style="fill:#2B2B2B;" width="16" height="16"/>
	<rect x="232" y="440" style="fill:#2B2B2B;" width="16" height="16"/>
	<rect x="264" y="440" style="fill:#2B2B2B;" width="16" height="16"/>
	<rect x="296" y="440" style="fill:#2B2B2B;" width="16" height="16"/>
	<rect x="328" y="440" style="fill:#2B2B2B;" width="16" height="16"/>
	<rect x="360" y="312" style="fill:#2B2B2B;" width="16" height="16"/>
	<rect x="360" y="344" style="fill:#2B2B2B;" width="16" height="16"/>
	<rect x="360" y="376" style="fill:#2B2B2B;" width="16" height="16"/>
	<rect x="360" y="408" style="fill:#2B2B2B;" width="16" height="16"/>
	<rect x="360" y="440" style="fill:#2B2B2B;" width="16" height="16"/>
	<rect x="416" y="408" style="fill:#2B2B2B;" width="32" height="16"/>
	<rect x="416" y="440" style="fill:#2B2B2B;" width="32" height="16"/>
</g>
<circle style="fill:#ffd801;" cx="432" cy="352" r="40"/>
<circle style="fill:#FFFFFF;" cx="432" cy="352" r="24"/>
<rect x="424" y="312" style="fill:#2B2B2B;" width="16" height="40"/>
<rect x="56" y="184" style="fill:#FFFFFF;" width="400" height="80"/>
<rect x="40" y="168" style="fill:#005792;" width="432" height="112"/>
<g>
	<rect x="56" y="216" style="fill:#2B2B2B;" width="320" height="16"/>
	<rect x="392" y="216" style="fill:#2B2B2B;" width="64" height="16"/>
	<rect x="136" y="200" style="fill:#2B2B2B;" width="16" height="48"/>
	<rect x="424" y="112" style="fill:#2B2B2B;" width="48" height="16"/>
	<rect x="360" y="112" style="fill:#2B2B2B;" width="48" height="16"/>
	<rect x="296" y="112" style="fill:#2B2B2B;" width="48" height="16"/>
	<rect x="56" y="16" style="fill:#2B2B2B;" width="16" height="104"/>
	<rect x="40" y="112" style="fill:#2B2B2B;" width="48" height="16"/>
</g>
<g>
</g>
<g>
</g>
<g>
</g>
<g>
</g>
<g>
</g>
<g>
</g>
<g>
</g>
<g>
</g>
<g>
</g>
<g>
</g>
<g>
</g>
<g>
</g>
<g>
</g>
<g>
</g>
<g>
</g>
</svg>
