<?xml version="1.0" encoding="iso-8859-1"?>
<!-- Generator: Adobe Illustrator 19.0.0, SVG Export Plug-In . SVG Version: 6.00 Build 0)  -->
<svg version="1.1" id="Capa_1" xmlns="http://www.w3.org/2000/svg" xmlns:xlink="http://www.w3.org/1999/xlink" x="0px" y="0px"
	 viewBox="0 0 512 512" style="enable-background:new 0 0 512 512;" xml:space="preserve">
<g>
	<path style="fill:#005792;" d="M192,124h-16c0-44.112,35.888-80,80-80v16C220.712,60,192,88.712,192,124z"/>
	<path style="fill:#005792;" d="M440,308h-72v-16h72c30.872,0,56-25.12,56-56s-25.128-56-56-56h-2.4
		c-2.568,0-4.984-1.24-6.496-3.328c-1.504-2.088-1.912-4.768-1.096-7.208C431.296,165.624,432,160.84,432,156
		c0-30.88-25.128-56-56-56c-6.928,0-12.224,0.832-17.192,2.688c-2.064,0.784-4.368,0.664-6.376-0.336
		c-1.984-0.992-3.472-2.76-4.104-4.888C336.208,56.568,298.24,28,256,28s-80.208,28.568-92.328,69.472
		c-0.632,2.128-2.12,3.896-4.104,4.888c-1.984,0.992-4.304,1.112-6.376,0.336C148.232,100.832,142.928,100,136,100
		c-30.88,0-56,25.12-56,56c0,4.832,0.704,9.624,1.992,13.472c0.816,2.44,0.4,5.12-1.104,7.208S76.968,180,74.4,180H72
		c-30.88,0-56,25.12-56,56s25.12,56,56,56h72v16H72c-39.696,0-72-32.296-72-72c0-37.176,28.328-67.872,64.536-71.616
		C64.176,161.664,64,158.848,64,156c0-39.696,32.304-72,72-72c5.544,0,10.36,0.44,14.856,1.392C167.208,41.808,209.36,12,256,12
		s88.8,29.808,105.144,73.392C365.632,84.44,370.456,84,376,84c39.704,0,72,32.304,72,72c0,2.848-0.176,5.664-0.528,8.384
		C483.672,168.128,512,198.824,512,236C512,275.704,479.704,308,440,308z"/>
</g>
<g>
	<rect x="272" y="292" style="fill:#403E3E;" width="16" height="16"/>
	<rect x="272" y="324" style="fill:#403E3E;" width="16" height="16"/>
	<rect x="272" y="356" style="fill:#403E3E;" width="16" height="16"/>
	<rect x="272" y="388" style="fill:#403E3E;" width="16" height="112"/>
	<rect x="224" y="484" style="fill:#403E3E;" width="16" height="16"/>
	<rect x="224" y="452" style="fill:#403E3E;" width="16" height="16"/>
	<rect x="224" y="420" style="fill:#403E3E;" width="16" height="16"/>
	<rect x="224" y="292" style="fill:#403E3E;" width="16" height="112"/>
	<path style="fill:#403E3E;" d="M376,404h-16c-10.392,0-20.352-4.24-28.056-11.944S320,374.392,320,364V244h16v120
		c0,6.12,2.576,12.064,7.256,16.744S353.88,388,360,388h16V404z"/>
	<rect x="440" y="388" style="fill:#403E3E;" width="24" height="16"/>
	<rect x="400" y="388" style="fill:#403E3E;" width="16" height="16"/>
</g>
<path style="fill:#ffd801;" d="M408,436c-22.056,0-40-17.944-40-40s17.944-40,40-40s40,17.944,40,40S430.056,436,408,436z M408,372
	c-13.232,0-24,10.768-24,24s10.768,24,24,24s24-10.768,24-24S421.232,372,408,372z"/>
<g>
	<path style="fill:#403E3E;" d="M152,404h-16v-16h16c6.12,0,12.064-2.576,16.744-7.256S176,370.12,176,364V244h16v120
		c0,10.392-4.24,20.36-11.944,28.056C172.352,399.76,162.392,404,152,404z"/>
	<rect x="48" y="388" style="fill:#403E3E;" width="24" height="16"/>
	<rect x="96" y="388" style="fill:#403E3E;" width="16" height="16"/>
</g>
<path style="fill:#ffd801;" d="M104,436c-22.056,0-40-17.944-40-40s17.944-40,40-40s40,17.944,40,40S126.056,436,104,436z M104,372
	c-13.232,0-24,10.768-24,24s10.768,24,24,24s24-10.768,24-24S117.232,372,104,372z"/>
<g>
</g>
<g>
</g>
<g>
</g>
<g>
</g>
<g>
</g>
<g>
</g>
<g>
</g>
<g>
</g>
<g>
</g>
<g>
</g>
<g>
</g>
<g>
</g>
<g>
</g>
<g>
</g>
<g>
</g>
</svg>
