<?xml version="1.0" encoding="iso-8859-1"?>
<!-- Generator: Adobe Illustrator 19.0.0, SVG Export Plug-In . SVG Version: 6.00 Build 0)  -->
<svg version="1.1" id="Layer_1" xmlns="http://www.w3.org/2000/svg" xmlns:xlink="http://www.w3.org/1999/xlink" x="0px" y="0px"
	 viewBox="0 0 512 512" style="enable-background:new 0 0 512 512;" xml:space="preserve">
<g>
	<path style="fill:#242D3C;" d="M512,424.228H0V186.514h512V424.228z M18.286,405.942h475.428V204.8H18.286V405.942z"/>
	<rect x="228.582" y="232.218" style="fill:#242D3C;" width="118.861" height="18.286"/>
	<rect x="228.582" y="274.893" style="fill:#242D3C;" width="237.722" height="18.286"/>
	<rect x="228.582" y="317.568" style="fill:#242D3C;" width="237.722" height="18.286"/>
	<rect x="406.861" y="360.218" style="fill:#242D3C;" width="59.418" height="18.289"/>
</g>
<rect x="45.714" y="232.218" style="fill:#005792;" width="146.278" height="146.278"/>
<g>
	<path style="fill:#FFFFFF;" d="M124.308,347.164h-10.893c-6.789,0-13.176-2.647-17.992-7.45
		c-4.818-4.815-7.465-11.215-7.465-18.022h18.286c0,1.925,0.748,3.73,2.099,5.084c1.357,1.349,3.162,2.099,5.071,2.099h10.893
		c1.917,0,3.73-0.75,5.1-2.112c1.326-1.331,2.063-3.139,2.063-5.071s-0.735-3.727-2.071-5.066c-1.367-1.362-3.172-2.112-5.092-2.112
		h-10.893c-6.807,0-13.199-2.655-18.007-7.473c-4.797-4.774-7.45-11.169-7.45-17.992c0-6.817,2.65-13.222,7.465-18.022
		c4.815-4.803,11.203-7.45,17.992-7.45h10.893c6.784,0,13.179,2.644,17.999,7.444c4.81,4.805,7.45,11.205,7.45,18.028h-18.286
		c0-1.94-0.74-3.743-2.079-5.084c-1.357-1.349-3.167-2.099-5.084-2.099h-10.893c-1.91,0-3.715,0.75-5.076,2.107
		c-1.349,1.344-2.094,3.149-2.094,5.077c0,1.923,0.74,3.717,2.086,5.059c1.375,1.375,3.172,2.12,5.084,2.12h10.893
		c6.804,0,13.204,2.65,18.015,7.465c4.792,4.782,7.437,11.174,7.437,17.999c0,6.81-2.639,13.207-7.429,18.007
		C137.487,344.522,131.092,347.164,124.308,347.164z"/>
	<rect x="109.722" y="256" style="fill:#FFFFFF;" width="18.286" height="16.722"/>
	<rect x="109.722" y="338.022" style="fill:#FFFFFF;" width="18.286" height="16.719"/>
</g>
<g>
	<polygon style="fill:#242D3C;" points="475.428,159.086 457.142,159.086 457.142,106.058 292.572,106.058 292.572,87.772 
		475.428,87.772 	"/>
	<path style="fill:#242D3C;" d="M512,168.228H115.072L87.642,140.8l27.43-27.428H512V168.228z M122.642,149.942h371.072v-18.286
		H122.642L113.5,140.8L122.642,149.942z"/>
	<rect x="283.418" y="122.514" style="fill:#242D3C;" width="18.289" height="36.572"/>
	<rect x="75.579" y="131.661" style="fill:#242D3C;" width="24.993" height="18.286"/>
</g>
<g>
</g>
<g>
</g>
<g>
</g>
<g>
</g>
<g>
</g>
<g>
</g>
<g>
</g>
<g>
</g>
<g>
</g>
<g>
</g>
<g>
</g>
<g>
</g>
<g>
</g>
<g>
</g>
<g>
</g>
</svg>
