<?xml version="1.0" encoding="iso-8859-1"?>
<!-- Generator: Adobe Illustrator 19.0.0, SVG Export Plug-In . SVG Version: 6.00 Build 0)  -->
<svg version="1.1" id="Layer_1" xmlns="http://www.w3.org/2000/svg" xmlns:xlink="http://www.w3.org/1999/xlink" x="0px" y="0px"
	 viewBox="0 0 512 512" style="enable-background:new 0 0 512 512;" xml:space="preserve">
<rect x="35.505" y="13.079" style="fill:#005792;" width="130.79" height="93.432"/>
<g>
	<rect x="128.947" y="50.452" style="fill:#FFFFFF;" width="18.685" height="18.685"/>
	<rect x="91.564" y="50.452" style="fill:#FFFFFF;" width="18.685" height="18.685"/>
	<rect x="54.195" y="50.452" style="fill:#FFFFFF;" width="18.685" height="18.685"/>
</g>
<g>
	<polygon style="fill:#242D3C;" points="512,115.853 35.505,115.853 35.505,97.167 493.315,97.167 493.315,22.423 35.505,22.423 
		35.505,3.738 512,3.738 	"/>
	<rect y="3.738" style="fill:#242D3C;" width="18.685" height="112.115"/>
</g>
<rect x="35.507" y="143.872" style="fill:#ffd801;" width="411.085" height="93.43"/>
<g>
	<rect x="409.216" y="181.256" style="fill:#FFFFFF;" width="18.685" height="18.685"/>
	<rect x="371.866" y="181.256" style="fill:#FFFFFF;" width="18.688" height="18.685"/>
	<rect x="334.49" y="181.256" style="fill:#FFFFFF;" width="18.688" height="18.685"/>
</g>
<g>
	<polygon style="fill:#242D3C;" points="512,246.659 35.507,246.659 35.507,227.971 493.315,227.971 493.315,153.226 
		35.507,153.226 35.507,134.541 512,134.541 	"/>
	<rect y="134.528" style="fill:#242D3C;" width="18.685" height="112.118"/>
</g>
<rect x="35.505" y="274.688" style="fill:#005792;" width="224.23" height="93.432"/>
<g>
	<rect x="222.362" y="312.064" style="fill:#FFFFFF;" width="18.685" height="18.688"/>
	<rect x="184.986" y="312.064" style="fill:#FFFFFF;" width="18.685" height="18.688"/>
	<rect x="147.62" y="312.064" style="fill:#FFFFFF;" width="18.685" height="18.688"/>
</g>
<g>
	<polygon style="fill:#242D3C;" points="512,377.459 35.505,377.459 35.505,358.774 493.315,358.774 493.315,284.029 
		35.505,284.029 35.505,265.341 512,265.341 	"/>
	<rect y="265.344" style="fill:#242D3C;" width="18.685" height="112.118"/>
</g>
<rect x="35.505" y="405.504" style="fill:#005792;" width="336.358" height="93.43"/>
<g>
	<rect x="334.49" y="442.854" style="fill:#FFFFFF;" width="18.685" height="18.685"/>
	<rect x="297.114" y="442.854" style="fill:#FFFFFF;" width="18.685" height="18.685"/>
	<rect x="259.738" y="442.854" style="fill:#FFFFFF;" width="18.685" height="18.685"/>
</g>
<g>
	<polygon style="fill:#242D3C;" points="512,508.262 35.505,508.262 35.505,489.577 493.315,489.577 493.315,414.833 
		35.505,414.833 35.505,396.145 512,396.145 	"/>
	<rect y="396.134" style="fill:#242D3C;" width="18.685" height="112.118"/>
</g>
<g>
</g>
<g>
</g>
<g>
</g>
<g>
</g>
<g>
</g>
<g>
</g>
<g>
</g>
<g>
</g>
<g>
</g>
<g>
</g>
<g>
</g>
<g>
</g>
<g>
</g>
<g>
</g>
<g>
</g>
</svg>
